<svg width="53" height="129" viewBox="0 0 53 129" fill="none" xmlns="http://www.w3.org/2000/svg">
<path d="M49.06 30.9241C47.36 29.2621 45.13 28.2611 42.76 28.0921C40.34 27.9201 37.94 28.672 36.06 30.206C34.16 31.756 32.7899 33.8881 31.8799 36.1471C29.8599 41.1521 30.05 46.7271 30.56 52.0011C30.63 52.7191 30.71 53.4351 30.81 54.1491C30.81 54.1891 30.8298 54.218 30.8498 54.241C30.4698 54.933 30.0799 55.621 29.7099 56.318C29.5499 48.625 29.1199 40.9301 28.1099 33.2991C28.0699 33.0311 28.04 32.7631 28 32.4941C31.89 28.3551 35.9099 23.6231 36.1599 17.6661C36.2199 16.2331 36.0401 14.7891 35.5701 13.4321C35.0901 12.0511 34.35 10.7691 33.5 9.58806C31.9 7.37606 29.9801 5.33707 27.8201 3.67107C23.9501 0.69207 16.8499 -2.43094 13.4499 2.85506C11.8999 5.28406 11.8799 8.48805 12.1699 11.2631C12.4799 14.2341 13.34 17.1301 14.55 19.8551C15.77 22.5961 17.3101 25.2021 19.0801 27.6221C20.7201 29.8661 22.76 31.9711 25.49 32.8021C26.08 32.9821 26.69 33.0821 27.31 33.1151C28.2 39.7451 28.6399 46.428 28.8599 53.112C27.7199 52.142 26.5799 51.177 25.4399 50.215C26.0299 47.589 26.1699 44.875 25.6699 42.219C25.2099 39.776 24.16 37.4081 22.5 35.5451C20.83 33.6761 18.5399 32.4131 16.1899 31.6171C13.8299 30.8181 11.26 30.5201 8.80004 30.9551C6.60004 31.3431 4.57996 32.338 2.96996 33.892C1.47996 35.334 0.380067 37.246 0.0800673 39.314C-0.239933 41.572 0.419931 43.8501 1.68993 45.7221C3.01993 47.6861 4.94987 49.1531 7.12987 50.0621C12.1099 52.1411 17.61 51.4111 22.79 50.6531C23.49 50.5501 24.1899 50.4481 24.8899 50.3521C24.8999 50.3511 24.9099 50.3461 24.9099 50.3461C26.2399 51.4771 27.5699 52.6151 28.8799 53.7601C28.8899 53.9791 28.8999 54.1981 28.8999 54.4171C29.0999 61.5811 29.0399 68.7471 28.9599 75.9121C28.1499 75.1271 27.34 74.3461 26.53 73.5631C27.19 69.0701 27.4399 63.8611 24.6699 59.9811C22.2399 56.5731 17.98 55.3181 14.01 54.8201C11.7 54.5291 9.23984 54.4331 7.09984 55.5051C5.23984 56.4371 3.96988 58.1581 3.88988 60.2701C3.80988 62.4501 4.78986 64.6631 5.86986 66.5071C6.97986 68.4051 8.48987 70.034 10.3799 71.176C14.4199 73.62 19.3099 73.7071 23.8799 73.4631C24.4499 73.4331 25.0101 73.397 25.5801 73.362C26.7101 74.451 27.8299 75.542 28.9499 76.637C28.9399 77.225 28.9399 77.8131 28.9299 78.4021C28.8399 86.2101 28.7401 94.0221 28.3201 101.821C27.9001 109.658 27.1899 117.472 25.8799 125.214C25.7199 126.185 25.5499 127.155 25.3699 128.123C25.3399 128.299 25.6099 128.363 25.6399 128.186C27.2899 120.546 28.21 112.758 28.78 104.969C29.02 101.666 29.18 98.358 29.3 95.048C29.68 94.877 30.0599 94.6931 30.4299 94.5031C30.4499 94.5201 30.48 94.5301 30.51 94.5271C34.96 94.0541 39.5699 93.7971 43.6999 91.9021C45.4699 91.0891 47.1299 89.9921 48.4299 88.5241C49.6599 87.1341 50.5201 85.4071 50.8201 83.5721C51.1201 81.7871 50.8899 79.913 49.9599 78.336C48.9799 76.644 47.3098 75.5551 45.3398 75.4591C43.4198 75.3651 41.4601 76.0531 39.8301 77.0421C38.2101 78.0251 36.8199 79.3751 35.6999 80.8941C33.1899 84.2771 32.0699 88.4141 31.1399 92.4581C31.0399 92.9061 30.9398 93.3551 30.8398 93.8041C30.3398 94.0981 29.8301 94.3881 29.3201 94.6781C29.4801 90.2671 29.5599 85.852 29.6199 81.44C29.6599 78.997 29.7 76.5531 29.73 74.1091C30.03 73.9381 30.3299 73.762 30.6299 73.582C30.6399 73.636 30.67 73.6871 30.74 73.7011C33.07 74.2421 35.5199 74.505 37.9099 74.504C40.0499 74.503 42.1999 74.2211 44.1999 73.4491C45.9799 72.7671 47.6399 71.733 48.8999 70.306C50.2199 68.827 50.98 66.9841 51.24 65.0331C51.51 63.0011 51.32 60.9511 50.97 58.9421C50.79 57.9281 50.63 56.8151 50.03 55.9511C49.49 55.1821 48.6299 54.7241 47.7099 54.5921C46.6299 54.4361 45.5501 54.702 44.5701 55.133C43.5601 55.573 42.5899 56.1301 41.6499 56.7091C39.8099 57.8461 38.07 59.1801 36.55 60.7201C33.65 63.6401 31.4998 67.3861 30.8398 71.4771C30.7598 71.9771 30.7099 72.4791 30.6699 72.9841C30.6699 73.0021 30.6699 73.0151 30.6699 73.0321C30.3599 73.2481 30.05 73.463 29.73 73.681C29.8 68.222 29.83 62.7621 29.73 57.3031C29.73 57.1681 29.73 57.0321 29.72 56.8971C30.03 56.4001 30.3199 55.9 30.6199 55.4C30.6599 55.448 30.72 55.4771 30.8 55.4831C30.88 55.4901 30.97 55.478 31.05 55.474C31.08 55.473 31.1099 55.4711 31.1399 55.4701C31.1899 55.5321 31.2598 55.5731 31.3498 55.5591C34.1498 55.1591 36.91 54.3531 39.53 53.2991C41.94 52.3261 44.3199 51.1361 46.4199 49.5851C48.3599 48.1501 50.0899 46.3551 51.1499 44.1621C52.2199 41.9541 52.64 39.4111 52.23 36.9851C51.85 34.6871 50.73 32.5501 49.06 30.9241ZM20.6999 28.6921C19.7699 27.6051 18.9499 26.412 18.1699 25.211C17.3899 24.017 16.66 22.7911 16.01 21.5271C14.68 18.9821 13.63 16.269 13.06 13.452C12.78 12.066 12.6298 10.6541 12.5998 9.24007C12.5798 7.80107 12.6798 6.33905 13.0998 4.95705C13.4698 3.75705 14.1299 2.59507 15.1099 1.78707C16.1799 0.900067 17.5499 0.561065 18.9199 0.597065C21.5199 0.665065 24.0699 1.86005 26.1999 3.27105C28.3299 4.68705 30.1998 6.50105 31.8398 8.45705C33.6498 10.6061 35.2501 13.0481 35.5801 15.8971C35.9001 18.6271 35.1699 21.4041 33.9599 23.8371C32.6899 26.3841 30.88 28.5911 29.06 30.7591C28.69 31.1991 28.3199 31.636 27.9399 32.073C27.6299 29.861 27.2799 27.6491 26.8599 25.4461C27.9999 23.9451 29.0199 22.367 29.9399 20.728C30.4299 19.865 30.8901 18.988 31.3301 18.099C31.5501 17.654 31.76 17.2071 31.97 16.7561C32.17 16.3101 32.4 15.8621 32.53 15.3911C32.59 15.2081 32.32 15.1211 32.23 15.2771C31.98 15.7051 31.8099 16.176 31.6099 16.625C31.3999 17.076 31.19 17.5231 30.97 17.9681C30.54 18.8411 30.0799 19.703 29.6099 20.551C28.7299 22.1 27.78 23.6051 26.79 25.0831C26.12 21.5641 25.3 18.0701 24.28 14.6411C24.58 14.1411 24.8301 13.609 25.0801 13.081C25.4101 12.367 25.72 11.6381 25.99 10.8991C26.27 10.1551 26.51 9.40004 26.73 8.63704C26.84 8.23904 26.94 7.83805 27.04 7.43605C27.12 7.09605 27.31 6.63006 27.25 6.28206C27.23 6.15806 27.08 6.11107 27.01 6.22707C26.83 6.51907 26.82 6.98004 26.75 7.31404C26.66 7.70104 26.5699 8.08704 26.4599 8.46904C26.2599 9.21704 26.02 9.95705 25.76 10.6861C25.48 11.4351 25.1798 12.1731 24.8398 12.8981C24.6298 13.3631 24.3899 13.816 24.1699 14.275C23.7399 12.865 23.29 11.4631 22.79 10.0801C22.45 9.12907 22.0899 8.19906 21.6699 7.28106C21.5299 6.99106 21.0799 7.11206 21.1799 7.43706C22.3199 11.2401 23.6399 14.9651 24.6099 18.8211C24.7999 19.5601 24.9699 20.3031 25.1399 21.0461C21.8199 19.1671 18.7799 16.8901 15.9499 14.3341C15.8599 14.2561 15.7401 14.3861 15.8301 14.4671C18.6601 17.2211 21.88 19.5901 25.27 21.6101C25.94 24.5811 26.4999 27.5771 26.9599 30.5881C27.0499 31.2191 27.14 31.8511 27.22 32.4831C24.59 32.3101 22.3699 30.6261 20.6999 28.6921ZM25.1599 49.978C25.1399 49.85 25.0499 49.7451 24.8899 49.7561C23.9399 48.9601 22.98 48.1741 22.03 47.3861C22.03 47.3841 22.03 47.3841 22.03 47.3811C22.18 46.6701 22.1001 45.881 22.0801 45.159C22.0601 44.392 22.0099 43.6271 21.9299 42.8641C21.8599 42.1201 21.7599 41.3781 21.6499 40.6391C21.5899 40.2811 21.5299 39.9211 21.4599 39.5651C21.3899 39.2051 21.3299 38.8151 21.1599 38.4891C21.0999 38.3711 20.9399 38.453 20.9399 38.56C20.9099 38.904 21.0101 39.2661 21.0701 39.6051C21.1301 39.9741 21.2 40.3421 21.25 40.7121C21.37 41.4511 21.46 42.1931 21.54 42.9371C21.61 43.6621 21.6499 44.3891 21.6899 45.1171C21.7199 45.7891 21.68 46.4941 21.76 47.1651C20.18 45.8641 18.59 44.5691 16.99 43.2851C17 43.2691 17.01 43.2601 17.01 43.2421C17.01 42.8591 16.7599 42.4291 16.6299 42.0721C16.4899 41.7051 16.35 41.337 16.22 40.969C15.93 40.179 15.6298 39.3881 15.3398 38.5981C14.7598 37.0331 14.19 35.47 13.54 33.93C13.5 33.833 13.3599 33.8771 13.3899 33.9811C13.8699 35.5751 14.42 37.146 14.96 38.719C15.23 39.496 15.5 40.273 15.77 41.051C15.91 41.44 16.0399 41.8281 16.1799 42.2171C16.2299 42.3801 16.2798 42.573 16.3398 42.762C15.6198 42.188 14.9099 41.6061 14.1899 41.0371C12.7299 39.8851 11.26 38.751 9.78002 37.629C9.71002 37.58 9.62993 37.671 9.68993 37.724C11.4899 39.196 13.2898 40.6701 15.0898 42.1471C14.1598 42.2581 13.24 42.4281 12.3 42.5071C11.32 42.5901 10.3398 42.639 9.34984 42.625C7.35984 42.597 5.37991 42.3621 3.41991 41.9721C3.30991 41.9491 3.26987 42.1191 3.37987 42.1481C5.31987 42.6511 7.31005 42.9221 9.31005 42.9961C10.31 43.0331 11.3201 43.034 12.3201 42.969C13.3101 42.904 14.3501 42.8351 15.3201 42.6041C15.4001 42.5841 15.45 42.5271 15.47 42.4601C16.84 43.5921 18.2101 44.727 19.5801 45.866C19.3901 45.931 19.19 46.0121 19 46.0761C18.66 46.1891 18.31 46.2971 17.97 46.3971C17.25 46.6031 16.53 46.78 15.81 46.93C14.35 47.229 12.8799 47.4341 11.3899 47.5411C11.2599 47.5511 11.2599 47.76 11.3999 47.758C12.8899 47.74 14.36 47.5981 15.81 47.3151C16.54 47.1731 17.26 47.003 17.98 46.805C18.34 46.703 18.7101 46.594 19.0701 46.478C19.3501 46.387 19.6799 46.309 19.9499 46.168C21.3999 47.382 22.86 48.6021 24.31 49.8301C19.4 50.5261 14.35 51.4731 9.45995 50.2101C7.22995 49.6341 5.10997 48.5861 3.47997 46.9461C1.91997 45.3881 0.789862 43.3201 0.619862 41.1011C0.289862 36.9381 3.46001 33.221 7.27001 31.952C9.52001 31.203 11.96 31.193 14.26 31.698C16.6 32.209 18.92 33.2201 20.8 34.7131C22.7 36.2241 24.03 38.316 24.77 40.616C25.56 43.11 25.6599 45.7771 25.3799 48.3651C25.3199 48.9121 25.2699 49.459 25.1899 50.004C25.1799 49.998 25.1699 49.988 25.1599 49.978ZM26.03 73.073C26.05 72.892 25.9499 72.6911 25.7099 72.7051C25.6899 72.7061 25.6699 72.7081 25.6499 72.7091C24.4399 71.5451 23.23 70.3891 22.01 69.2341C22.16 68.7321 22.21 68.177 22.29 67.673C22.38 67.012 22.45 66.347 22.49 65.681C22.54 65.016 22.5701 64.3501 22.5801 63.6831C22.5901 63.3501 22.5801 63.0171 22.5701 62.6831C22.5701 62.3681 22.58 61.998 22.48 61.698C22.42 61.544 22.1999 61.554 22.1599 61.711C22.0899 62.002 22.1199 62.346 22.1199 62.646C22.1299 62.961 22.1199 63.2761 22.1199 63.5911C22.1099 64.2581 22.09 64.9241 22.05 65.5891C22.01 66.2531 21.9399 66.916 21.8799 67.578C21.8299 68.02 21.7399 68.4821 21.6999 68.9371C19.7099 67.0501 17.7099 65.1721 15.6999 63.3121C15.7199 63.2921 15.74 63.265 15.74 63.224C15.81 62.71 15.78 62.1821 15.78 61.6651C15.78 61.1021 15.78 60.5391 15.78 59.9761C15.77 59.4321 15.77 58.8891 15.76 58.3451C15.76 57.8331 15.8299 57.2321 15.6699 56.7381C15.6299 56.5991 15.4399 56.62 15.3999 56.749C15.2499 57.231 15.3301 57.8071 15.3301 58.3041C15.3401 58.8481 15.3398 59.391 15.3398 59.935C15.3498 60.478 15.3599 61.0221 15.3599 61.5651C15.3699 62.0551 15.3499 62.5591 15.4099 63.0481C14.9599 62.6331 14.51 62.2191 14.06 61.8041C14.04 61.7811 14.02 61.76 13.99 61.745C13.82 61.582 13.64 61.4181 13.46 61.2561C11.95 59.8771 10.4299 58.5041 8.88988 57.1601C8.77988 57.0701 8.63998 57.2221 8.73998 57.3171C10.28 58.7881 11.8099 60.2521 13.3599 61.7131C12.9699 61.7231 12.5799 61.753 12.1999 61.754C11.6599 61.756 11.11 61.7501 10.56 61.7361C9.45005 61.7071 8.33997 61.6501 7.22997 61.5961C7.11997 61.5911 7.10995 61.7641 7.20995 61.7771C8.30995 61.9241 9.41001 62.0081 10.52 62.0531C11.08 62.0761 11.65 62.0911 12.22 62.0971C12.73 62.1021 13.26 62.1431 13.77 62.1041C15.52 63.7601 17.27 65.4141 19.01 67.0701C17.04 67.7671 14.9498 68.1381 12.8498 68.1951C12.7098 68.1991 12.7199 68.4071 12.8599 68.4121C15.0699 68.4841 17.2401 68.1251 19.3201 67.3891C19.3301 67.3871 19.3298 67.382 19.3398 67.379C21.1298 69.076 22.9099 70.776 24.6899 72.487C24.7799 72.574 24.8699 72.663 24.9599 72.75C20.7199 73.009 16.3001 73.1711 12.3301 71.4541C10.4201 70.6281 8.74996 69.384 7.46996 67.733C6.19996 66.091 5.17995 64.1061 4.70995 62.0761C4.47995 61.0701 4.42997 60.006 4.72997 59.008C4.99997 58.106 5.58006 57.3201 6.32006 56.7391C8.07006 55.3561 10.34 55.1361 12.5 55.2871C14.51 55.4281 16.55 55.779 18.47 56.409C20.27 57.001 22.0001 57.9141 23.3301 59.2831C24.8301 60.8181 25.7099 62.8401 26.1299 64.9211C26.5899 67.2331 26.4698 69.5951 26.3498 71.9341C26.3298 72.3941 26.3 72.8531 26.28 73.3121C26.2 73.2351 26.11 73.154 26.03 73.073ZM31.4599 93.9471C32.8799 93.1531 34.23 92.24 35.53 91.276C35.54 91.296 35.5501 91.3171 35.5801 91.3301C36.3201 91.6711 37.22 91.769 38.02 91.831C38.87 91.897 39.72 91.8671 40.55 91.6841C40.69 91.6541 40.65 91.434 40.51 91.443C39.71 91.495 38.8998 91.532 38.0898 91.479C37.6798 91.452 37.2598 91.4 36.8498 91.332C36.4798 91.27 36.11 91.1711 35.74 91.1151C35.98 90.9341 36.2199 90.7541 36.4599 90.5701C38.0499 89.3251 39.5499 87.9631 40.9599 86.5061C41.2499 86.5741 41.5799 86.5031 41.8799 86.4591C42.2199 86.4091 42.5499 86.3541 42.8899 86.2921C43.5799 86.1641 44.2699 86.02 44.9599 85.858C45.6299 85.701 46.2999 85.523 46.9599 85.331C47.2999 85.23 47.65 85.1201 47.99 85.0061C48.3 84.9061 48.6599 84.8131 48.9099 84.6091C48.9799 84.5561 48.9499 84.456 48.8599 84.453C48.5599 84.442 48.2299 84.571 47.9399 84.655C47.6099 84.751 47.2799 84.846 46.9499 84.939C46.2699 85.131 45.5899 85.306 44.8999 85.469C44.2299 85.628 43.5599 85.771 42.8799 85.897C42.5299 85.962 42.1898 86.0261 41.8398 86.0871C41.6498 86.1201 41.45 86.146 41.26 86.193C41.75 85.672 42.2299 85.1381 42.6999 84.5931C43.7499 83.3551 44.8398 82.0531 45.5898 80.6021C45.6598 80.4621 45.4599 80.315 45.3599 80.44C44.4299 81.524 43.6199 82.71 42.7099 83.81C42.6299 83.908 42.5399 84.0001 42.4599 84.0981C42.4599 83.9641 42.4599 83.8291 42.4599 83.6951C42.4599 83.3811 42.4599 83.0671 42.4599 82.7531C42.4699 82.1641 42.47 81.575 42.47 80.987C42.47 80.398 42.47 79.8091 42.47 79.2211C42.47 78.6361 42.5399 77.9951 42.4099 77.4211C42.3799 77.2861 42.1799 77.3071 42.1499 77.4321C42.0299 78.0061 42.1099 78.6521 42.1099 79.2361C42.1099 79.8251 42.1099 80.4131 42.1199 81.0021C42.1199 81.5911 42.1199 82.1791 42.1299 82.7681C42.1299 83.0821 42.1299 83.3961 42.1299 83.7101C42.1299 83.9521 42.1299 84.194 42.1699 84.43C41.4199 85.307 40.63 86.1621 39.81 86.9761C39.24 87.5341 38.6601 88.0741 38.0701 88.6011C38.0601 87.7471 38.0298 86.896 38.0998 86.039C38.1498 85.51 38.22 84.9831 38.31 84.4601C38.4 83.9741 38.5501 83.4751 38.5701 82.9811C38.5701 82.8801 38.4199 82.855 38.3799 82.939C38.1399 83.391 38.07 83.9421 37.98 84.4411C37.89 84.9571 37.83 85.477 37.78 85.999C37.7 86.929 37.66 87.908 37.79 88.841C36.31 90.13 34.7599 91.3291 33.1199 92.4081C32.6199 92.7381 32.1098 93.0511 31.5998 93.3591C32.4098 89.6821 33.31 85.946 35.25 82.685C37.08 79.616 39.9701 76.9431 43.5701 76.2231C44.5201 76.0321 45.52 75.997 46.47 76.25C47.34 76.485 48.11 76.9991 48.72 77.6611C49.93 78.9721 50.4298 80.787 50.3498 82.543C50.2698 84.283 49.6198 86.012 48.5998 87.418C47.4998 88.933 45.9798 90.106 44.3398 90.982C42.5998 91.912 40.7 92.5061 38.77 92.9201C36.57 93.3951 34.3199 93.5881 32.1099 93.9901C31.8799 94.0311 31.6499 94.077 31.4299 94.121C31.4399 94.062 31.4499 94.0051 31.4599 93.9471ZM36.79 69.1751C37.27 68.7961 37.7399 68.4081 38.2099 68.0181C38.2299 68.0471 38.2701 68.0651 38.3201 68.0611C39.7301 67.9361 41.14 67.546 42.48 67.137C43.82 66.73 45.2299 66.274 46.4199 65.522C46.5099 65.462 46.4401 65.3161 46.3301 65.3471C44.9901 65.7411 43.6998 66.3111 42.3498 66.7231C41.1298 67.0981 39.8899 67.3501 38.6499 67.6521C40.3599 66.2091 42.0098 64.6951 43.5898 63.1131V63.112C43.9398 63.029 44.2799 62.9011 44.6299 62.7771C45.0899 62.6081 45.55 62.4281 46.01 62.2401C46.47 62.0521 46.9299 61.861 47.3799 61.655C47.5899 61.56 47.79 61.4471 47.99 61.3411C48.19 61.2401 48.4 61.1621 48.56 61.0071C48.61 60.9531 48.56 60.8501 48.49 60.8561C48.27 60.8731 48.0599 60.9821 47.8599 61.0591C47.6299 61.1461 47.3899 61.223 47.1599 61.318C46.7199 61.502 46.2798 61.6881 45.8398 61.8681C45.3898 62.0481 44.95 62.2271 44.51 62.4061C44.39 62.4551 44.2599 62.5021 44.1399 62.5501C45.1699 61.5041 46.1601 60.4311 47.0801 59.2891C47.2401 59.1011 46.97 58.8541 46.8 59.0321C44.71 61.2321 42.6399 63.439 40.3899 65.483C40.3499 65.519 40.3 65.554 40.26 65.59C40.3 65.169 40.3199 64.744 40.3599 64.323C40.4199 63.65 40.4998 62.9781 40.5998 62.3091C40.6898 61.6761 40.7999 61.0461 40.9299 60.4191C40.9899 60.1151 41.0599 59.8111 41.1299 59.5091C41.1999 59.1981 41.32 58.8751 41.3 58.5531C41.3 58.3971 41.1 58.3651 41.02 58.4891C40.86 58.7491 40.81 59.0711 40.74 59.3651C40.67 59.6851 40.6 60.0061 40.53 60.3281C40.4 60.9721 40.2799 61.62 40.1899 62.271C40.0999 62.886 40.03 63.5031 39.97 64.1221C39.92 64.7141 39.8599 65.3201 39.8999 65.9151C38.7299 66.9531 37.5401 67.954 36.3201 68.922C36.3401 66.938 36.29 64.9441 36.22 62.9631C36.22 62.7891 35.9599 62.803 35.9499 62.974C35.8899 65.062 35.8499 67.1641 35.8899 69.2531C35.0299 69.9261 34.16 70.5871 33.27 71.2231C32.62 71.6891 31.96 72.1431 31.3 72.5961C31.66 68.8201 33.3801 65.2531 35.8201 62.3851C37.1701 60.8131 38.7199 59.4341 40.4099 58.2421C41.2299 57.6571 42.09 57.1151 42.97 56.6151C43.93 56.0741 44.91 55.5311 45.99 55.2691C46.9 55.0481 47.9 55.081 48.72 55.547C49.62 56.053 49.9699 57.0131 50.1799 57.9681C50.5999 59.8671 50.86 61.846 50.77 63.793C50.68 65.682 50.16 67.5661 49.06 69.1231C48.01 70.6021 46.5099 71.726 44.8799 72.491C40.9599 74.334 36.5699 73.973 32.3799 73.551C31.8799 73.5 31.3799 73.453 30.8799 73.423C32.9499 72.153 34.9 70.6751 36.79 69.1751ZM47.1199 48.2431C45.2799 49.8191 43.1199 51.0241 40.9299 52.0281C38.4599 53.1571 35.87 54.0221 33.22 54.6021C32.57 54.7451 31.91 54.872 31.25 54.995C31.24 54.997 31.23 55.0051 31.22 55.0091C31.16 55.0081 31.1 55.008 31.04 55.008C30.98 55.008 30.9098 55.006 30.8498 55.008C31.8098 53.366 32.7599 51.71 33.6999 50.055C33.7199 50.108 33.7701 50.1551 33.8301 50.1581C34.2801 50.1781 34.7399 50.0341 35.1699 49.9321C35.6499 49.8191 36.1299 49.6991 36.6099 49.5671C37.5299 49.3121 38.4398 49.0271 39.3398 48.7131C41.1398 48.0861 42.8999 47.344 44.6099 46.495C45.5799 46.013 46.6199 45.527 47.4599 44.84C47.5499 44.764 47.4999 44.5781 47.3599 44.6321C46.4999 44.9781 45.6999 45.4731 44.8799 45.8941C44.0099 46.3371 43.13 46.752 42.24 47.137C40.47 47.899 38.65 48.5481 36.8 49.0781C36.29 49.2241 35.78 49.3641 35.26 49.4961C34.77 49.6221 34.24 49.6951 33.78 49.9161C34.05 49.4491 34.3201 48.9831 34.5801 48.5161C35.0001 47.7811 35.4298 47.0461 35.8498 46.3091C35.8698 46.3701 35.93 46.4191 36 46.3891C37.35 45.8191 38.74 45.2671 40.02 44.5411C40.1 44.4921 40.0399 44.3551 39.9499 44.3861C38.5699 44.8531 37.2599 45.5111 35.9499 46.1361C36.6699 44.8731 37.37 43.6001 38 42.2911C38.82 41.9071 39.5801 41.388 40.3201 40.874C41.1101 40.329 41.8699 39.7521 42.6099 39.1411C43.3199 38.5521 44.0099 37.9381 44.6799 37.2961C45.0199 36.9691 45.3399 36.6271 45.6499 36.2781C45.9599 35.9401 46.31 35.6011 46.54 35.2091C46.6 35.1161 46.4699 34.9931 46.3799 35.0621C46.0299 35.3331 45.7399 35.6871 45.4299 35.9981C45.0899 36.3301 44.7499 36.6531 44.4099 36.9801C43.7499 37.6211 43.0598 38.237 42.3498 38.823C41.6498 39.398 40.9299 39.9501 40.1899 40.4731C39.5499 40.9241 38.88 41.3301 38.24 41.7721C38.49 41.2151 38.7399 40.6531 38.9599 40.0801C39.2599 39.3101 39.53 38.5271 39.74 37.7271C39.95 36.9041 40.1399 36.0631 40.1499 35.2101C40.1499 35.1161 40.01 35.1101 39.99 35.1951C39.78 35.9411 39.6299 36.701 39.4099 37.444C39.1899 38.168 38.9499 38.8841 38.6799 39.5871C38.2299 40.7271 37.6999 41.838 37.1399 42.93C37.0199 41.703 36.9199 40.4771 36.9199 39.2421C36.9199 38.5721 36.95 37.9021 37 37.2341C37.04 36.5551 37.1699 35.866 37.1499 35.185C37.1399 35.084 37.01 35.0831 36.98 35.1691C36.77 35.7951 36.7299 36.4821 36.6799 37.1361C36.6199 37.8411 36.5998 38.5481 36.5998 39.2551C36.6098 40.5981 36.6999 41.9531 36.9599 43.2721C36.8899 43.4241 36.81 43.577 36.73 43.728C36.15 44.831 35.5399 45.9231 34.9299 47.0111C34.8099 46.0881 34.6801 45.1671 34.5801 44.2421C34.5301 43.7221 34.4899 43.201 34.4399 42.681C34.3999 42.175 34.41 41.6441 34.31 41.1471C34.28 41.0431 34.1098 41.0501 34.0898 41.1561C34.0298 41.6581 34.0999 42.191 34.1299 42.694C34.1699 43.235 34.22 43.7741 34.28 44.3131C34.39 45.3261 34.53 46.3361 34.75 47.3321C33.8 49.0191 32.8299 50.6971 31.8699 52.3821C31.6099 52.8591 31.3501 53.3411 31.0801 53.8201C30.9201 51.1661 30.6199 48.5281 30.6299 45.8641C30.6499 43.3331 30.9399 40.816 31.6399 38.379C32.9099 33.971 35.9298 29.3281 40.8498 28.7011C43.1398 28.4091 45.4999 28.9671 47.3999 30.2831C49.2499 31.5641 50.61 33.4881 51.29 35.6261C52.01 37.8901 51.8999 40.357 51.1299 42.594C50.3699 44.822 48.8999 46.7191 47.1199 48.2431Z" fill="#4D4C51"/>
</svg>
