<svg width="70" height="81" viewBox="0 0 70 81" fill="none" xmlns="http://www.w3.org/2000/svg">
<path d="M51.006 5.80724C50.74 6.23724 50.56 6.53714 50.38 6.82714C49.423 8.39714 47.873 8.99722 46.17 8.90722C44.986 8.84722 43.765 8.38721 42.651 7.89721C40.934 7.12721 39.778 5.64713 38.65 4.18713C37.972 3.31713 37.4 2.35717 36.719 1.48717C36.24 0.877175 36.088 0.917126 35.502 1.43713C34.97 1.90713 34.428 2.37723 33.85 2.79723C32.546 3.74723 31.119 4.29723 29.513 3.54723C28.642 3.13723 27.841 2.55721 27.031 2.02721C26.133 1.42721 25.189 1.09724 24.186 1.55724C23.511 1.86724 22.876 2.27716 22.275 2.71716C21.689 3.13716 21.26 3.83717 20.403 3.73717C19.51 3.62717 18.731 3.76719 18.036 4.37719C17.642 4.72719 17.098 4.75723 16.748 4.29723C16.253 3.63723 15.666 3.36714 14.876 3.44714C14.625 3.46714 14.354 3.38713 14.101 3.31713C13.467 3.13713 12.957 3.22724 12.425 3.67724C11.259 4.66724 10.242 4.74717 9.06699 3.97717C8.63699 3.70717 8.27899 3.26716 7.97199 2.84716C7.44599 2.12716 6.75398 1.81721 5.92098 1.89721C4.94498 1.98721 3.98099 2.16722 3.00999 2.28722C2.35499 2.37722 1.69199 2.41718 0.909989 2.49718C1.71199 3.23718 2.43598 3.88713 3.12698 4.56713C4.08798 5.51713 4.61099 6.59716 4.17699 7.96716C4.07999 8.27716 4.04099 8.60724 3.98499 8.92724C3.85899 9.66724 4.03298 10.1971 4.80698 10.5771C6.01398 11.1871 6.30598 12.3072 5.67298 13.4872C5.46898 13.8572 5.19598 14.2072 4.91898 14.5372C4.36298 15.1972 4.37498 15.5572 4.93298 16.2572C5.37198 16.8072 5.81199 17.3772 6.16399 17.9872C7.03499 19.4972 6.74399 21.2572 5.48299 22.4072C5.15099 22.7072 4.80699 22.9971 4.42499 23.3271C4.62799 23.7071 4.79898 24.1172 5.05598 24.4672C6.20499 26.0372 7.36099 27.6072 8.55199 29.1472C9.45899 30.3172 9.60499 31.1672 8.70899 32.2972C7.94699 33.2472 6.99298 34.0472 6.11798 34.9172C5.91298 35.1172 5.68298 35.2971 5.36698 35.5771C6.11798 36.0671 6.75999 36.5372 7.44199 36.9172C8.88299 37.7372 10.155 38.7372 11.107 40.1172C11.702 40.9772 12.557 41.3771 13.549 41.6871C14.661 42.0371 15.729 42.6071 16.752 43.1971C17.46 43.5971 17.706 44.3472 17.528 45.1572C17.377 45.8372 17.183 46.5072 16.997 47.1772C16.815 47.8272 16.885 48.4572 17.312 48.9972C17.965 49.8272 18.743 50.5472 19.76 50.8572C21.107 51.2572 22.471 51.6172 23.848 51.8772C25.466 52.1872 26.77 52.9172 27.706 54.3072C28.24 55.0972 28.231 55.8872 27.619 56.5972C27.265 56.9972 26.879 57.3771 26.456 57.8171C27.39 58.3471 28.337 58.7071 29.349 58.7071C30.876 58.7071 32.404 58.6272 33.927 58.5472C35.578 58.4572 36.986 57.6772 38.455 57.0372C40.049 56.3372 41.624 56.5271 43.053 57.7071C43.281 57.8971 43.702 57.9871 43.999 57.9371C44.68 57.8171 45.358 57.6272 46.003 57.3872C47.011 56.9972 48.138 56.7272 48.952 56.0872C51.162 54.3172 53.36 52.5072 55.137 50.2672C55.377 49.9672 55.543 49.6071 55.786 49.1971C55.177 49.2571 54.72 49.2672 54.27 49.3372C50.21 50.0072 46.152 49.8772 42.076 49.1372C37.78 48.3472 33.47 47.6572 29.17 46.8872C27.853 46.6572 26.551 46.2972 25.243 45.9872C25.253 45.9372 25.264 45.8771 25.276 45.8171C25.545 45.8571 25.815 45.8971 26.086 45.9371C30.186 46.5171 34.293 47.0571 38.389 47.6871C43.227 48.4171 48.057 49.2371 52.937 48.4571C53.679 48.3371 54.425 48.2572 55.25 48.1472C55.109 47.9472 55.042 47.8172 54.935 47.7172C53.71 46.6472 52.48 45.5872 51.249 44.5172C51.15 44.4272 51.037 44.3572 50.944 44.2572C49.07 42.3472 47.204 40.4172 45.321 38.5172C45.129 38.3172 44.83 38.1072 44.585 38.1072C42.402 38.0772 40.214 38.2071 38.037 38.0771C33.478 37.7971 29.012 36.8171 24.572 35.7071C20.878 34.7871 17.512 32.9972 14.039 31.4972C13.675 31.3372 13.368 31.0471 13.036 30.8171C13.076 30.7171 13.117 30.6272 13.157 30.5372C22.957 35.1872 33.193 37.3971 44.088 37.0771C43.795 36.7371 43.661 36.5672 43.506 36.4072C41.49 34.4172 39.545 32.3471 37.432 30.4571C35.918 29.1171 34.175 28.0272 32.548 26.8072C32.065 26.4472 31.618 26.2472 30.967 26.2172C26.976 26.0072 23.036 25.3372 19.231 24.0072C16.202 22.9372 13.226 21.7172 10.232 20.5472C9.84999 20.3972 9.50799 20.1372 9.14799 19.9272C9.17799 19.8572 9.20499 19.7972 9.23299 19.7272C9.49799 19.7972 9.76899 19.8371 10.024 19.9371C12.438 20.8371 14.854 21.7272 17.257 22.6472C20.717 23.9872 24.289 24.7572 27.954 25.0572C28.674 25.1172 29.398 25.1272 30.286 25.1672C29.089 24.2372 28.009 23.4672 27.004 22.6072C23.309 19.4372 19.641 16.2372 15.957 13.0572C13.78 11.1772 11.599 9.29719 9.08798 7.87719C8.75198 7.68719 8.43898 7.45717 8.11498 7.23717C8.68098 7.37717 9.18898 7.61717 9.69998 7.85717C12.553 9.18717 14.894 11.2672 17.304 13.2372C21.038 16.2872 24.718 19.4072 28.436 22.4772C29.311 23.1972 30.243 23.8472 31.288 24.6372C31.222 24.2272 31.214 24.0072 31.151 23.7972C30.649 22.1072 30.144 20.4172 29.62 18.7372C29.463 18.2372 29.271 17.7372 29.052 17.2572C27.354 13.5672 25.642 9.87714 23.941 6.19714C23.626 5.50714 23.333 4.8172 23.029 4.1372C23.084 4.1072 23.139 4.07723 23.195 4.04723C23.549 4.56723 23.943 5.07719 24.245 5.62719C24.72 6.49719 25.082 7.43722 25.585 8.28722C27.655 11.8072 29.307 15.5172 30.641 19.3572C31.311 21.2772 32.226 23.1572 32.36 25.2472C32.37 25.3872 32.582 25.5572 32.732 25.6672C34.111 26.6672 35.581 27.5572 36.862 28.6672C39.03 30.5572 41.078 32.5772 43.178 34.5472C43.291 34.6572 43.413 34.7472 43.67 34.9772C43.291 33.4172 42.895 32.0572 42.638 30.6772C41.965 27.0472 41.007 23.4972 39.61 20.0572C37.802 15.6172 36.082 11.1172 32.691 7.52721C32.546 7.37721 32.457 7.16717 32.342 6.98717C34.499 8.52717 36.092 10.5072 37.327 12.7972C41.262 20.0672 43.308 27.9272 44.901 35.9272C44.986 36.3572 45.192 36.8072 45.461 37.1572C48.022 40.4472 51.095 43.2072 54.365 45.7572C54.777 46.0772 55.183 46.4071 55.701 46.8171C55.703 46.3871 55.727 46.0672 55.701 45.7472C55.568 44.1972 55.458 42.6372 55.274 41.0872C54.377 33.5872 52.59 26.3071 49.575 19.3271C48.611 17.0971 47.751 14.8072 46.041 12.9972C45 11.8972 43.882 10.8672 42.833 9.83715C42.792 9.84715 42.857 9.81715 42.911 9.83715C43.055 9.87715 43.205 9.92719 43.336 10.0072C44.968 10.9872 46.441 12.2072 47.44 13.8072C48.52 15.5472 49.409 17.4072 50.234 19.2872C51.985 23.2572 53.445 27.3372 54.488 31.5372C55.574 35.9072 56.366 40.3371 56.663 44.8271C56.688 45.2371 56.744 45.6471 56.787 46.0671C56.865 46.0271 56.92 46.0172 56.932 45.9972C58.089 43.3472 59.423 40.7672 60.347 38.0372C61.176 35.5972 61.562 32.9971 62.116 30.4571C62.167 30.2171 62.11 29.8572 61.956 29.6772C61.475 29.1072 61.291 28.4672 61.313 27.7772C61.37 26.0472 61.412 24.3072 61.564 22.5972C61.71 20.9472 61.793 19.3172 61.423 17.6772C61.354 17.3772 61.257 17.0772 61.162 16.7472C60.802 17.3572 60.555 17.9272 60.181 18.3872C59.431 19.3172 58.382 19.2772 57.632 18.2972C57.219 17.7572 56.821 17.1772 56.564 16.5572C56.083 15.3872 55.832 14.1272 55.262 13.0172C54.308 11.1472 53.186 9.36713 52.124 7.56713C51.791 6.99713 51.419 6.45724 51.006 5.80724ZM56.797 49.6272C55.056 52.6872 52.389 54.5572 49.981 56.6772C49.383 57.1972 48.595 57.5771 47.828 57.8171C46.591 58.2171 45.307 58.4871 44.025 58.7071C43.635 58.7671 43.063 58.6272 42.774 58.3672C41.551 57.2472 40.117 57.0471 38.813 57.7071C35.86 59.2071 32.702 59.3972 29.477 59.3772C28.304 59.3772 27.251 58.9172 26.244 58.3472C25.822 58.1072 25.631 57.7672 26.101 57.3572C26.376 57.1172 26.598 56.8172 26.853 56.5572C27.473 55.9172 27.498 55.2772 26.883 54.5872C26.086 53.6972 25.075 53.2072 23.915 52.9872C22.085 52.6472 20.219 52.3872 18.567 51.4172C17.951 51.0572 17.401 50.5472 16.904 50.0172C16.026 49.0872 15.784 47.9872 16.16 46.7672C16.315 46.2772 16.443 45.7672 16.59 45.2672C16.79 44.5772 16.584 44.0471 15.941 43.7071C14.89 43.1571 13.828 42.6272 12.783 42.0572C12.343 41.8172 11.829 41.5972 11.536 41.2272C10.005 39.2572 8.14298 37.7471 5.90698 36.6871C5.74798 36.6171 5.60599 36.5072 5.45799 36.4072C4.33599 35.6872 4.37099 35.2472 5.36999 34.3872C6.30799 33.5672 7.16898 32.6372 7.96498 31.6772C8.53398 30.9872 8.41398 30.5972 7.85398 29.8572C6.58898 28.1772 5.34898 26.4772 4.09998 24.7872C3.99698 24.6472 3.91598 24.4871 3.83698 24.3271C3.18598 23.0171 3.20798 22.9272 4.36298 22.1272C5.98398 21.0172 6.21298 19.4271 4.99298 17.7071C4.76298 17.3771 4.49198 17.0772 4.24298 16.7672C3.50998 15.8572 3.54199 14.8972 4.28999 14.0372C4.58699 13.7072 4.86198 13.3272 5.05598 12.9272C5.38998 12.2272 5.18098 11.4872 4.49198 11.1072C3.50098 10.5572 3.23498 9.74716 3.40598 8.71716C3.44698 8.45716 3.47298 8.18714 3.55798 7.94714C4.00498 6.63714 3.40199 5.7072 2.43999 4.8872C1.71799 4.2672 1.00898 3.63716 0.334984 2.96716C0.144984 2.77716 -0.063017 2.36714 0.017983 2.19714C0.130983 1.94714 0.486982 1.72713 0.769982 1.68713C1.80298 1.53713 2.84799 1.47717 3.88599 1.35717C4.59899 1.27717 5.30298 1.11714 6.01998 1.07714C7.15898 1.02714 8.10298 1.43715 8.76998 2.45715C9.60298 3.74715 10.757 3.94713 11.865 2.93713C12.581 2.27713 13.323 2.17721 14.209 2.39721C14.57 2.48721 14.945 2.53722 15.312 2.53722C16.016 2.52722 16.617 2.74715 17.039 3.33715C17.33 3.73715 17.547 3.60713 17.908 3.43713C18.474 3.16713 19.105 2.85718 19.71 2.86718C20.518 2.87718 21.091 2.63713 21.586 2.06713C22.263 1.28713 23.141 0.867243 24.115 0.557243C25.35 0.167243 26.42 0.517209 27.489 1.14721C28.452 1.71721 29.426 2.27717 30.437 2.73717C31.094 3.03717 31.794 2.86716 32.37 2.46716C33.241 1.86716 34.097 1.24714 34.915 0.577141C35.868 -0.202859 36.573 -0.232825 37.394 0.737175C38.09 1.55717 38.654 2.49719 39.286 3.37719C41.013 5.78719 43.101 7.64714 46.174 7.94714C47.693 8.08714 49.007 7.72724 49.862 6.30724C50.76 4.81724 51.006 4.81721 52.038 6.27721C53.287 8.04721 54.561 9.81724 55.65 11.6772C56.299 12.7972 56.576 14.1072 57.088 15.3072C57.426 16.0872 57.846 16.8571 58.307 17.5771C58.689 18.1771 59.144 18.1772 59.563 17.6072C59.856 17.2172 60.007 16.7071 60.304 16.3171C60.503 16.0471 60.897 15.6772 61.111 15.7372C61.443 15.8272 61.886 16.2072 61.954 16.5172C62.231 17.8572 62.478 19.2072 62.553 20.5572C62.613 21.6372 62.377 22.7371 62.334 23.8271C62.282 25.1671 62.255 26.4972 62.306 27.8372C62.324 28.2872 62.63 28.7172 62.793 29.1672C62.917 29.5072 63.179 29.8871 63.113 30.1871C62.462 33.1671 61.944 36.2072 61.01 39.0972C60.157 41.7272 58.839 44.2072 57.725 46.7572C57.664 46.8872 57.591 47.0272 57.516 47.1572C56.969 48.0872 56.969 48.0872 57.656 48.9872C59.352 51.2172 60.957 53.5072 61.778 56.2172C62.413 58.3172 63.024 60.4172 63.517 62.5472C64.475 66.6672 66.066 70.5772 67.579 74.5272C67.874 75.2872 68.489 75.9272 68.947 76.6272C69.283 77.1572 69.631 77.6672 69.916 78.2172C70.021 78.4172 70.017 78.7271 69.962 78.9571C69.908 79.1771 69.762 79.4072 69.588 79.5472C68.919 80.0972 68.29 80.6971 67.421 80.9571C66.99 81.0771 66.768 80.9172 66.705 80.5372C66.507 79.3672 66.366 78.1972 66.159 77.0272C65.895 75.5372 65.622 74.0471 65.292 72.5771C65.11 71.7671 64.785 70.9871 64.546 70.1871C63.511 66.7471 62.49 63.2972 61.447 59.8572C60.935 58.1672 60.539 56.4171 59.807 54.8271C58.994 53.0571 57.858 51.4272 56.797 49.6272Z" fill="#231F20"/>
</svg>
