<svg width="64" height="75" viewBox="0 0 64 75" fill="none" xmlns="http://www.w3.org/2000/svg">
<path d="M29.667 28.2798C29.701 28.2598 29.735 28.2398 29.769 28.2198C29.325 27.2798 28.808 26.3798 28.45 25.4198C27.688 23.3698 26.768 21.4098 25.527 19.6298C23.556 16.7898 21.343 14.1598 18.755 11.8298C16.317 9.63976 13.855 7.48977 11.089 5.71977C10.868 5.57977 10.598 5.51985 10.345 5.42985C9.15 5.03985 7.949 4.66981 6.758 4.25981C5.594 3.86981 4.439 3.43977 3.136 2.96977C3.347 3.20977 3.444 3.34975 3.568 3.44975C4.697 4.45975 5.827 5.45976 6.96 6.45976C9.955 9.08976 12.918 11.7497 15.963 14.3197C17.735 15.8197 19.563 17.2398 21.118 18.9798C23.049 21.1298 25.004 23.2698 26.959 25.3998C27.85 26.3698 28.764 27.3198 29.667 28.2798ZM1.132 1.62981C1.342 2.20981 1.521 2.70976 1.706 3.20976C2.291 4.78976 2.874 6.36974 3.462 7.93974C3.918 9.15974 4.761 10.2198 4.833 11.5798C4.84 11.7198 4.922 11.8798 5.013 11.9998C6.01 13.2898 6.954 14.6198 8.038 15.8298C9.132 17.0598 10.349 18.1799 11.54 19.3099C14.126 21.7699 16.836 24.0597 19.968 25.8197C22.572 27.2797 25.232 28.5698 28.18 29.1698C28.615 29.2598 29.055 29.3198 29.612 29.4198C29.009 28.7698 28.504 28.2297 27.989 27.6897C26.308 25.9297 24.544 24.2398 22.959 22.3998C20.702 19.7698 18.3 17.3398 15.629 15.1198C12.624 12.6298 9.804 9.90984 6.909 7.28984C5.604 6.10984 4.29 4.93977 3.019 3.71977C2.365 3.08977 1.794 2.36981 1.132 1.62981ZM36.741 14.2098C36.838 14.2998 36.93 14.3898 37.033 14.4698C40.474 17.1298 43.083 20.4998 45.253 24.2198C46.487 26.3298 47.792 28.4097 48.749 30.6897C50.946 35.9497 52.595 41.3298 53.189 47.0098C53.36 48.6498 53.358 50.3099 52.961 51.9299C52.859 52.3399 52.921 52.6098 53.193 52.9098C53.848 53.6298 54.508 54.3498 55.11 55.1098C56.011 56.2598 56.864 57.4298 57.785 58.6598C57.897 58.4398 57.992 58.3199 58.026 58.1799C58.32 56.9699 58.68 55.7799 58.875 54.5499C59.714 49.2999 59.36 44.1098 57.733 39.0298C56.67 35.7198 55.021 32.7098 52.591 30.1998C49.536 27.0398 46.698 23.6898 43.962 20.2498C41.975 17.7498 39.625 15.6598 36.741 14.2098ZM42.785 43.1298C42.683 42.9698 42.647 42.8898 42.59 42.8298C41.828 42.0198 41.07 41.2098 40.297 40.4098C38.445 38.4898 36.578 36.5899 34.728 34.6799C33.478 33.3799 32.254 32.0598 31.01 30.7498C30.886 30.6198 30.719 30.4898 30.55 30.4498C29.043 30.1198 27.525 29.8198 26.02 29.4798C24.143 29.0498 22.51 28.0598 20.847 27.1498C18.763 25.9998 16.767 24.7198 14.977 23.1498C13.493 21.8498 12.026 20.5298 10.602 19.1598C9.043 17.6698 7.428 16.2198 6.221 14.3898C5.946 13.9698 5.606 13.5998 5.214 13.0998C5.612 15.1798 6.042 17.0998 6.328 19.0498C6.499 20.2198 6.992 21.1698 7.798 21.9698C9.285 23.4598 10.755 24.9798 12.306 26.3998C15.156 29.0198 18.157 31.4299 21.41 33.5599C24.942 35.8699 28.472 38.1598 32.334 39.8798C33.489 40.3998 34.645 40.9098 35.808 41.4098C36.14 41.5598 36.494 41.6598 36.848 41.7398C38.284 42.0598 39.726 42.3597 41.164 42.6897C41.675 42.7997 42.176 42.9598 42.785 43.1298ZM14.909 37.0599C14.875 37.0899 14.842 37.1098 14.806 37.1398C15.518 38.0798 16.176 39.0698 16.95 39.9498C18.564 41.7998 20.233 43.5998 21.889 45.4098C23.274 46.9198 24.626 48.4698 26.076 49.9098C28.406 52.2398 31.234 53.8798 34.13 55.3798C36.174 56.4398 38.256 57.4298 40.372 58.3298C41.705 58.8998 43.103 59.4498 44.521 59.6498C47.038 60.0098 49.594 60.0998 52.135 60.2898C52.571 60.3198 53.036 60.3598 53.448 60.2498C54.607 59.9498 55.743 59.5598 56.9 59.2098C56.906 59.2198 56.902 59.1598 56.87 59.1198C55.381 57.3198 54.225 55.2598 52.513 53.6298C52.233 53.3698 52.014 53.0298 51.728 52.7698C51.6 52.6598 51.358 52.5898 51.193 52.6298C49.22 53.0298 47.235 52.8198 45.31 52.4898C42.713 52.0498 40.148 51.3799 37.709 50.3099C36.097 49.6099 34.438 49.0099 32.827 48.2999C31.445 47.6899 30.071 47.0497 28.748 46.3197C27.042 45.3797 25.344 44.3997 23.725 43.3197C21.201 41.6297 18.747 39.8398 16.267 38.0898C15.804 37.7598 15.363 37.3999 14.909 37.0599ZM52.006 51.4698C52.076 51.4598 52.145 51.4598 52.215 51.4498C52.261 50.2898 52.384 49.1298 52.336 47.9698C52.217 45.1498 51.616 42.3898 50.966 39.6498C50.62 38.1898 50.141 36.7698 49.683 35.3498C48.866 32.7998 47.965 30.2897 46.692 27.9397C46.199 27.0297 45.63 26.1598 45.125 25.2498C43.65 22.6198 41.979 20.1098 39.905 17.9098C38.515 16.4398 36.982 15.0899 35.416 13.8099C34.605 13.1399 33.641 12.5598 32.648 12.2298C29.938 11.3398 27.14 10.7198 24.52 9.54985C24.489 9.52985 24.441 9.55975 24.375 9.56975C25.111 10.2197 25.823 10.8198 26.511 11.4598C28.653 13.4298 30.876 15.3198 32.889 17.4098C34.382 18.9698 35.609 20.7798 36.932 22.4898C38.457 24.4598 39.933 26.4798 41.003 28.7398C41.625 30.0598 42.11 31.4398 42.685 32.7798C43.811 35.3998 44.377 38.1498 44.531 40.9898C44.564 41.6298 44.443 42.2799 44.409 42.9299C44.403 43.0599 44.427 43.2298 44.507 43.3298C45.095 44.0598 45.676 44.7998 46.308 45.4898C46.993 46.2398 47.74 46.9298 48.438 47.6598C49.638 48.9298 50.819 50.1998 52.006 51.4698ZM12.02 5.48979C12.006 5.53979 11.992 5.57981 11.976 5.62981C12.545 5.96981 13.159 6.25984 13.674 6.66984C15.186 7.87984 16.655 9.1298 18.145 10.3698C20.712 12.4898 22.959 14.9098 24.956 17.5798C26.28 19.3498 27.591 21.1198 28.514 23.1498C29.246 24.7498 29.975 26.3598 30.677 27.9798C31.218 29.2198 31.805 30.4198 32.783 31.4198C36.118 34.7998 39.42 38.2198 42.735 41.6298C42.981 41.8798 43.244 42.1198 43.522 42.3798C43.582 42.2498 43.622 42.1998 43.628 42.1498C43.64 42.0198 43.644 41.8898 43.64 41.7498C43.574 39.6298 43.361 37.5198 42.679 35.5198C41.575 32.2598 40.448 29.0298 38.527 26.1198C36.717 23.3798 34.893 20.6598 32.764 18.1598C30.24 15.1898 27.193 12.7898 24.278 10.2398C23.548 9.60979 22.794 8.88985 21.919 8.54985C19.477 7.57985 16.977 6.75975 14.478 5.94975C13.692 5.69975 12.841 5.63979 12.02 5.48979ZM51.065 52.1998C51.077 52.1398 51.089 52.0898 51.103 52.0298C50.483 51.3298 49.87 50.6199 49.242 49.9299C47.613 48.1599 45.984 46.3798 44.338 44.6198C44.145 44.4098 43.829 44.1599 43.586 44.1799C42.715 44.2399 41.929 43.9598 41.12 43.7298C40.442 43.5298 39.744 43.3798 39.046 43.2798C37.31 43.0098 35.635 42.5697 34.094 41.6897C33.812 41.5297 33.515 41.3898 33.213 41.2698C30.234 40.1098 27.44 38.5699 24.799 36.7999C21.494 34.5899 18.183 32.3598 15.241 29.6498C13.129 27.7098 11.029 25.7498 8.933 23.7898C8.376 23.2698 7.855 22.7097 7.217 22.0697C7.637 23.7997 8.41 25.1898 9.241 26.5498C10.803 29.1098 12.179 31.7598 13.354 34.5198C13.71 35.3498 14.189 36.0698 14.915 36.5998C16.196 37.5398 17.477 38.4798 18.787 39.3798C20.889 40.8098 23.003 42.2198 25.137 43.6098C28.086 45.5198 31.268 47.0098 34.484 48.3898C37.119 49.5098 39.859 50.4198 42.598 51.2798C44.21 51.7898 45.867 52.2598 47.605 52.1598C47.83 52.1498 48.061 52.2398 48.287 52.2398C49.214 52.2398 50.139 52.2198 51.065 52.1998ZM0 0.28984C0.121 0.24984 0.304001 0.249845 0.374001 0.169845C0.597001 -0.120155 0.746002 0.00975183 0.927002 0.199752C1.921 1.23975 3.055 1.99983 4.484 2.40983C5.803 2.77983 7.02 3.48975 8.321 3.94975C9.271 4.26975 10.274 4.5398 11.27 4.6198C14.205 4.8598 16.916 5.87982 19.628 6.88982C22.373 7.90982 25.077 9.03985 27.824 10.0498C29.096 10.5198 30.419 10.8698 31.737 11.1998C33.829 11.7198 35.695 12.7298 37.582 13.7198C41.188 15.6098 43.827 18.5398 46.372 21.6098C48.436 24.1098 50.53 26.5899 52.774 28.9299C55.731 32.0099 57.745 35.5798 58.972 39.6298C59.857 42.5498 60.166 45.5598 60.291 48.5998C60.4 51.3098 60.064 53.9698 59.573 56.6098C59.4 57.5398 58.959 58.4198 58.67 59.3398C58.612 59.5198 58.63 59.7798 58.728 59.9498C59.559 61.3498 60.434 62.7198 61.259 64.1198C61.942 65.2798 62.681 66.4198 63.2 67.6498C64.151 69.8998 64.378 72.2098 63.196 74.4798C63.085 74.6998 62.852 74.9098 62.63 74.9898C62.469 75.0398 62.174 74.9198 62.047 74.7898C61.963 74.6898 62.013 74.3898 62.107 74.2398C62.737 73.2698 62.914 72.1999 62.902 71.0599C62.88 69.1299 62.051 67.4998 61.118 65.8998C60.191 64.3098 59.239 62.7398 58.298 61.1598C57.837 60.3798 57.437 60.1698 56.544 60.3498C55.944 60.4598 55.317 60.5599 54.77 60.8099C53.533 61.3899 52.257 61.2498 50.98 61.1598C49.051 61.0198 47.126 60.7997 45.195 60.6897C43.407 60.5797 41.772 59.9598 40.183 59.2498C37.592 58.0998 35.021 56.8897 32.511 55.5697C29.446 53.9597 26.569 52.0597 24.238 49.4397C21.255 46.0897 18.222 42.7798 15.321 39.3698C13.996 37.8098 13.038 35.9799 12.242 34.0599C11.079 31.2399 9.766 28.4898 8.241 25.8398C6.74 23.2298 6.085 20.3198 5.523 17.3898C5.22 15.8098 4.747 14.2697 4.403 12.6897C3.997 10.8397 3.118 9.17977 2.351 7.46977C1.766 6.15977 1.398 4.75982 0.955002 3.38982C0.620002 2.36982 0.32 1.33984 0 0.28984Z" fill="#231F20"/>
</svg>
