<svg width="60" height="197" viewBox="0 0 60 197" fill="none" xmlns="http://www.w3.org/2000/svg">
<path d="M59.1519 97.25C59.2599 97.08 59.0969 96.85 58.9039 96.87C58.8189 96.79 58.7229 96.73 58.6179 96.68C58.5829 96.64 58.5329 96.61 58.4689 96.62C58.3509 96.58 58.2299 96.55 58.1069 96.53C57.6249 96.48 57.1319 96.57 56.6559 96.63C56.0909 96.71 55.5279 96.8 54.9659 96.9C50.5319 97.67 46.2199 99.1 42.1589 101.03C40.1249 102 38.1519 103.09 36.2479 104.29C35.3079 104.89 34.3789 105.5 33.4799 106.16C32.6459 106.76 31.8349 107.43 31.2069 108.25C31.1749 108.3 31.1459 108.34 31.1149 108.38C31.0979 104.52 31.0829 100.65 31.0659 96.78C32.1099 96.76 33.1509 96.65 34.1859 96.51C35.3669 96.35 36.5389 96.13 37.6989 95.85C40.0319 95.3 42.3139 94.52 44.4759 93.48C48.3819 91.6 51.865 88.84 54.413 85.31C55.8 83.4 56.8939 81.26 57.5909 79C57.6519 78.8 57.5149 78.55 57.2759 78.6C52.8169 79.55 48.4199 80.92 44.3549 83.01C40.6259 84.93 37.1959 87.4399 34.4139 90.5899C33.1279 92.0499 31.9969 93.6299 31.0609 95.3299C31.0459 91.8999 31.033 88.46 31.017 85.03C31.043 84.99 31.0569 84.94 31.0449 84.87C31.0309 84.79 31.0259 84.72 31.0189 84.64C32.6569 84.45 34.2879 83.95 35.8369 83.42C37.5519 82.84 39.2169 82.11 40.8169 81.26C44.0409 79.55 47.0069 77.36 49.5689 74.76C50.1329 74.19 50.6709 73.59 51.1939 72.98C51.5699 72.62 51.904 72.23 52.168 71.78C52.304 71.61 52.445 71.44 52.577 71.26C52.889 70.84 53.2229 70.4299 53.4419 69.9599C53.5779 69.6599 53.2199 69.48 52.9999 69.63C50.9569 69.82 48.9059 70.2099 46.9159 70.6999C44.9219 71.1899 42.9619 71.8399 41.0969 72.6999C37.8739 74.1999 34.901 76.37 32.77 79.24C32.191 80.02 31.6769 80.8499 31.2419 81.7199C31.1599 81.8799 31.0809 82.0499 31.0029 82.2199C30.9869 78.5099 30.9739 74.7999 30.9559 71.0799C31.8099 71.4199 32.7509 71.5499 33.6639 71.5899C34.6499 71.6199 35.6409 71.56 36.6149 71.4C38.6069 71.08 40.534 70.37 42.309 69.42C45.972 67.46 48.9429 64.47 51.5049 61.23C52.1609 60.41 52.7929 59.5599 53.4069 58.6999C53.7179 58.2699 54.0249 57.83 54.3299 57.39C54.4789 57.17 54.6549 56.9499 54.7899 56.6999C54.8009 56.6899 54.8129 56.68 54.8239 56.67C54.8939 56.61 54.915 56.5299 54.908 56.4599C54.953 56.3399 54.9849 56.22 54.9959 56.1C55.0939 54.92 53.4479 55.0699 52.6999 55.0899C51.5599 55.1199 50.4309 55.29 49.3189 55.54C45.2269 56.43 41.181 57.94 37.754 60.39C34.805 62.49 32.3059 65.36 30.9839 68.76C31.0079 68.41 31.0189 68.07 31.0399 67.74C31.0919 66.92 31.1319 66.09 31.1519 65.27C31.1709 64.44 31.1759 63.61 31.1669 62.79C31.1629 62.39 31.159 61.99 31.142 61.6C31.134 61.41 31.1269 61.22 31.1059 61.03C31.0959 60.93 31.088 60.84 31.072 60.75C31.068 60.72 31.0569 60.7 31.0489 60.68C33.7409 58.93 36.1939 56.83 38.4239 54.52C40.7479 52.11 42.7979 49.4699 44.5089 46.5899C45.4719 44.9699 46.33 43.3 47.072 41.56C47.111 41.47 47.0909 41.3899 47.0449 41.3299C47.0309 41.2999 47.0049 41.27 46.9619 41.26C46.9549 41.25 46.9479 41.25 46.9409 41.25C46.9319 41.25 46.9219 41.24 46.9119 41.24C46.8769 41.23 46.8419 41.2199 46.8069 41.2099C46.8009 41.1499 46.7389 41.09 46.6589 41.12C46.6309 41.13 46.6029 41.14 46.5759 41.15C45.4589 40.88 44.3069 41.0399 43.2369 41.4399C45.0499 39.6599 46.633 37.65 47.775 35.38C48.166 34.6 48.54 33.7899 48.78 32.9499C48.963 32.3099 49.0689 31.4699 48.5669 30.9499C47.8879 30.2299 46.8499 30.72 46.0959 31.02C45.1299 31.4 44.1749 31.81 43.2299 32.24C43.0299 32.33 42.8329 32.43 42.6349 32.52C44.9379 30.64 46.9869 28.4299 48.2689 25.7199C48.6599 24.8899 48.9679 24.03 49.1869 23.15C49.3649 22.43 49.5099 21.63 49.2329 20.91C49.1449 20.68 49.0119 20.5 48.8539 20.36C48.8289 20.32 48.797 20.29 48.757 20.28C48.374 19.99 47.8579 19.91 47.3449 20.01C46.4539 20.17 45.5779 20.56 44.7869 20.99C43.1459 21.88 41.7049 23.0999 40.3039 24.3199C38.8369 25.5999 37.423 26.94 36.124 28.4C33.704 31.1 31.6679 34.23 30.5959 37.72C30.5569 36.61 30.5199 35.51 30.4689 34.4C30.4439 33.86 30.4159 33.31 30.3879 32.76C31.7499 31.76 33.0759 30.69 34.3649 29.6C35.7639 28.41 37.1179 27.1699 38.3769 25.8299C40.6959 23.3699 42.6979 20.55 43.9019 17.37C44.0499 16.98 44.185 16.58 44.306 16.18C44.414 15.82 44.5399 15.4499 44.5809 15.0799C44.6059 14.8499 44.5959 14.61 44.5159 14.4C44.5179 14.33 44.484 14.28 44.434 14.24C44.415 14.21 44.4029 14.18 44.3799 14.15C44.1549 13.87 43.7819 13.8 43.4449 13.88C43.0779 13.96 42.747 14.17 42.421 14.35C42.099 14.53 41.7809 14.72 41.4679 14.91C40.8249 15.31 40.2009 15.7399 39.5999 16.1999C37.2219 18.0199 35.1809 20.2699 33.6099 22.8199C32.0289 25.3799 30.9009 28.21 30.3409 31.17C30.3299 31.23 30.3229 31.2899 30.3129 31.3399C30.1939 29.1799 30.0519 27.02 29.8619 24.86C30.8999 23.96 31.8289 22.9199 32.6719 21.8299C33.6189 20.6099 34.459 19.3099 35.181 17.9399C35.908 16.5599 36.515 15.12 36.991 13.64C37.513 12.01 37.922 10.3099 37.973 8.58994C37.997 7.76994 37.9629 6.91997 37.7599 6.11997C37.6119 5.52997 37.3519 4.91003 36.8459 4.55003C35.4879 3.57003 34.1579 5.12999 33.4379 6.13999C31.6329 8.65999 30.4339 11.5599 29.7469 14.5799C29.4499 15.8799 29.2559 17.21 29.1439 18.54C29.1019 18.25 29.055 17.96 29.012 17.66C28.953 16.39 28.7369 15.11 28.4539 13.87C28.0909 12.28 27.6019 10.7199 26.9799 9.20994C26.3519 7.68994 25.5979 6.21993 24.7329 4.81993C24.3069 4.12993 23.8519 3.46004 23.3679 2.81004C22.8759 2.14004 22.3719 1.47 21.7729 0.900004C21.1859 0.340004 20.4109 -0.0700111 19.5799 0.00998892C18.9169 0.0699889 18.3689 0.490038 18.0419 1.06004C17.7089 1.63004 17.5699 2.30994 17.5199 2.95994C17.4589 3.75994 17.4889 4.58999 17.5549 5.38999C17.8349 8.76999 19.0649 12.06 20.9709 14.86C22.7519 17.47 25.1359 19.6799 27.8359 21.3299C28.1729 21.5299 28.5159 21.73 28.8619 21.92C28.8689 21.92 28.8749 21.92 28.8819 21.92C29.1739 24.78 29.4249 27.64 29.6089 30.5C29.5899 30.47 29.5709 30.44 29.5519 30.41C29.3829 29.78 29.1919 29.15 28.9709 28.53C28.4539 27.09 27.7909 25.69 27.0199 24.37C25.4869 21.73 23.4989 19.36 21.1609 17.4C20.5779 16.91 19.9719 16.45 19.3469 16.01C18.7119 15.57 18.0279 15.04 17.2659 14.85C16.5439 14.68 15.8489 15.0099 15.5929 15.7199C15.3429 16.4099 15.4739 17.19 15.6509 17.89C16.0759 19.56 16.9969 21.0499 17.9899 22.4399C18.9299 23.7599 19.9809 25 21.1209 26.15C23.3919 28.44 26.0189 30.35 28.8989 31.8C29.1469 31.92 29.3979 32.04 29.6489 32.16C29.6739 32.26 29.6999 32.3599 29.7259 32.4599C29.8879 35.5199 29.9959 38.59 30.0709 41.65C30.0669 41.65 30.0619 41.64 30.0569 41.63C29.9999 41.47 29.942 41.31 29.879 41.14C29.562 40.32 29.1709 39.53 28.7339 38.77C27.8399 37.21 26.7539 35.77 25.5949 34.4C24.4349 33.03 23.2229 31.69 21.9809 30.39C20.7479 29.1 19.4689 27.84 18.0619 26.74C16.5039 25.52 14.7759 24.5 12.8849 23.9C12.6769 23.83 12.4739 23.9799 12.4969 24.1999C12.6999 26.1999 13.4659 28.11 14.3749 29.88C15.1609 31.41 16.1059 32.8599 17.1849 34.1999C19.3469 36.8899 22.0409 39.14 25.0679 40.79C26.6499 41.65 28.3229 42.3299 30.0539 42.8199C30.0679 42.8599 30.0819 42.8999 30.0959 42.9399C30.1069 43.4699 30.1149 43.99 30.1249 44.52C29.9299 45.68 29.9089 46.87 30.0859 48.05C30.1139 48.24 30.1489 48.42 30.1859 48.6C30.1919 49.12 30.1999 49.63 30.2039 50.15C30.2109 51 30.2159 51.86 30.2209 52.72C29.2369 50.4 27.9129 48.23 26.2789 46.3C24.2449 43.9 21.7869 41.87 19.0329 40.35C18.2669 39.92 17.4779 39.5399 16.6699 39.2099C16.2559 39.0299 15.8359 38.87 15.4109 38.72C15.1299 38.63 14.838 38.52 14.543 38.48C14.478 38.44 14.4149 38.4 14.3489 38.37C14.2719 38.33 14.2159 38.3899 14.2119 38.4599C14.1999 38.4599 14.188 38.4599 14.176 38.4599C14.143 38.4699 14.1239 38.49 14.1179 38.52C14.0959 38.55 14.0819 38.58 14.0969 38.62C14.5939 40.08 15.3199 41.46 16.1119 42.77C16.9049 44.09 17.8069 45.34 18.7959 46.52C20.7759 48.89 23.138 50.94 25.767 52.55C27.042 53.33 28.382 54.0199 29.767 54.5899C29.775 54.5999 29.7819 54.6 29.7899 54.61C29.8259 54.64 29.8629 54.64 29.8989 54.64C30.0109 54.69 30.1219 54.74 30.2349 54.78C30.2489 56.96 30.2559 59.13 30.2659 61.3C30.0139 60.9 29.7549 60.51 29.4879 60.12C28.9479 59.34 28.378 58.5799 27.78 57.8399C26.599 56.3899 25.3069 55.03 23.9249 53.76C21.1429 51.22 17.975 49.08 14.564 47.47C12.653 46.56 10.668 45.79 8.59795 45.35C8.43595 45.31 8.35691 45.54 8.45891 45.64C8.45791 45.65 8.45195 45.66 8.45995 45.68C9.96695 49.12 12.2999 52.2299 14.9939 54.8299C17.7209 57.4599 20.936 59.5899 24.426 61.0699C25.391 61.4799 26.3819 61.83 27.3859 62.12C28.3329 62.41 29.298 62.6599 30.275 62.8199C30.292 66.6099 30.3059 70.4 30.3199 74.18C29.0799 70.93 26.9069 68.1 24.3019 65.81C21.4259 63.28 18.0149 61.44 14.4689 60.03C13.4269 59.62 12.3689 59.24 11.3029 58.9C10.3109 58.58 9.29092 58.24 8.26092 58.06C8.25792 58.06 8.25391 58.05 8.25091 58.04C8.21691 57.98 8.14291 57.99 8.10991 58.03C8.09191 58.03 8.07392 58.03 8.05492 58.02C7.94092 58 7.88892 58.1299 7.92992 58.2099C7.85892 58.2199 7.79595 58.29 7.85595 58.36C8.04895 58.58 8.24895 58.8 8.44695 59.01C9.00695 60.34 9.78396 61.59 10.629 62.75C11.672 64.17 12.8809 65.47 14.1979 66.65C17.0519 69.2 20.439 71.1099 23.96 72.5799C25.887 73.3799 27.8629 74.07 29.8709 74.64C29.9169 74.69 29.9639 74.74 30.0099 74.8C30.0629 74.86 30.1289 74.87 30.1909 74.86C30.2359 74.91 30.2799 74.95 30.3239 75C30.3359 78.18 30.3479 81.36 30.3619 84.55C28.7769 82.09 26.661 79.9599 24.254 78.3199C21.46 76.4099 18.2399 75.15 14.8929 74.65C13.9349 74.51 12.9669 74.43 11.9979 74.41C11.0469 74.39 10.0069 74.36 9.0949 74.66C8.9849 74.69 8.9969 74.83 9.0739 74.89C8.9929 74.97 8.96096 75.0899 9.05596 75.2099C11.066 77.6899 13.6459 79.77 16.3709 81.4C19.1229 83.06 22.1249 84.27 25.2529 84.99C26.9169 85.38 28.653 85.65 30.366 85.65C30.366 85.66 30.366 85.66 30.366 85.66C30.385 90.06 30.4069 94.45 30.4269 98.85C28.5209 95.78 25.3409 93.74 21.9829 92.49C17.9719 91.01 13.5959 90.4 9.34093 90.9C8.14693 91.04 6.97196 91.28 5.81396 91.6C4.80796 91.88 3.8329 92.27 3.0949 93.03C2.9959 93.14 3.04794 93.2499 3.13994 93.3199C3.14094 93.3499 3.15191 93.39 3.17791 93.41C3.86591 94.07 4.71692 94.5699 5.51092 95.0899C6.30992 95.6099 7.12892 96.0999 7.95592 96.5799C9.61792 97.5299 11.3299 98.4 13.1039 99.13C16.6489 100.59 20.446 101.47 24.293 101.39C26.379 101.35 28.464 101.01 30.434 100.31C30.448 103.39 30.4619 106.47 30.4759 109.55C30.4759 109.55 30.474 109.55 30.473 109.56C30.444 109.63 30.4499 109.69 30.4769 109.75C30.4799 110.34 30.4819 110.93 30.4849 111.52C30.3119 111.34 30.1309 111.18 29.9419 111.02C29.3359 110.19 28.579 109.46 27.767 108.81C26.191 107.56 24.4359 106.5 22.7039 105.48C18.9829 103.28 14.9669 101.47 10.6519 100.88C9.59091 100.74 8.5199 100.67 7.4489 100.69C6.9019 100.7 6.35592 100.74 5.81292 100.79C5.31492 100.85 4.79792 100.9 4.31292 101.03C4.05792 101.1 3.79291 101.21 3.59691 101.39C3.59491 101.39 3.59391 101.39 3.59191 101.39C3.52491 101.4 3.49993 101.45 3.50493 101.5C3.47693 101.54 3.4449 101.57 3.4229 101.61C3.3969 101.65 3.37793 101.69 3.36193 101.74C3.31393 101.77 3.2899 101.84 3.3239 101.89C3.2819 102.19 3.42196 102.5 3.61596 102.75C4.19296 103.49 4.90893 104.16 5.61193 104.78C8.52893 107.37 12.0789 109.18 15.7709 110.37C20.0349 111.76 24.502 112.37 28.952 112.77C29.465 112.82 29.978 112.86 30.491 112.9C30.51 117.06 30.5289 121.21 30.5479 125.36C30.4009 125 30.2129 124.65 29.9969 124.32C29.8209 123.88 29.5099 123.51 29.1339 123.2C28.6769 122.68 28.1809 122.19 27.7029 121.74C26.2659 120.37 24.6789 119.16 22.9879 118.12C19.5989 116.04 15.8299 114.62 11.9369 113.82C9.73494 113.37 7.49392 113.13 5.24792 113.08C5.17592 113.07 5.11993 113.1 5.07293 113.13C5.04293 113.13 5.02294 113.16 5.00994 113.19C4.96294 113.17 4.90296 113.22 4.93096 113.27C4.93996 113.28 4.95191 113.3 4.96191 113.32C4.95791 113.34 4.95391 113.35 4.95391 113.38C4.97291 114.33 5.69092 115.04 6.33092 115.66C7.02692 116.34 7.74296 116.99 8.47796 117.62C9.96896 118.9 11.5389 120.09 13.1749 121.17C14.8069 122.26 16.5049 123.25 18.2549 124.13C20.0659 125.05 21.9359 125.89 23.8829 126.47C26.0409 127.12 28.329 127.43 30.556 126.98C30.569 129.94 30.5829 132.9 30.5969 135.86C29.9609 135.64 29.323 135.42 28.684 135.21C27.765 134.62 26.8119 134.07 25.8429 133.58C23.9999 132.64 22.0789 131.86 20.1179 131.21C16.1509 129.89 12.0069 129.06 7.85992 128.57C5.33692 128.27 2.74693 128.17 0.26293 128.79C0.23493 128.78 0.207922 128.77 0.179922 128.77C0.0679224 128.73 -0.0110503 128.85 0.0329497 128.93C-0.0200503 129.02 -0.0130625 129.14 0.0829375 129.24C3.05694 132.05 6.57793 134.28 10.3929 135.77C14.4929 137.37 18.9109 138.07 23.3049 137.87C25.6449 137.76 27.9629 137.39 30.2209 136.77C30.3479 136.86 30.4769 136.94 30.6039 137.03C30.6339 143.66 30.6639 150.29 30.6949 156.92C30.7579 170.14 30.6179 183.39 31.0859 196.61C31.0899 196.71 31.2669 196.71 31.2699 196.6C31.5909 184.62 31.3779 172.62 31.3309 160.64C31.2999 152.65 31.2679 144.67 31.2369 136.69C32.7769 137.4 34.4919 137.64 36.1819 137.6C38.0099 137.56 39.8249 137.15 41.5219 136.48C44.9119 135.13 47.7269 132.64 49.8969 129.74C50.9239 128.37 51.8029 126.9 52.5879 125.38C52.8259 125.03 53.0539 124.67 53.2759 124.31C53.4129 124.21 53.5529 124.11 53.6899 124.02C53.8959 123.87 53.7429 123.59 53.5419 123.58C53.4509 123.49 53.2779 123.47 53.1719 123.58C53.0999 123.55 53.017 123.56 52.939 123.62C50.387 125.76 47.4489 127.33 44.4619 128.76C41.4739 130.19 38.424 131.5 35.559 133.17C34.641 133.7 33.7559 134.28 32.9069 134.9C32.8169 134.89 32.6969 134.95 32.6359 134.98C32.4899 135.06 32.3559 135.16 32.2189 135.25C32.0779 135.35 31.9379 135.44 31.7979 135.54C31.6469 135.64 31.498 135.75 31.348 135.85C31.311 135.87 31.2719 135.9 31.2339 135.93C31.2209 132.73 31.2089 129.52 31.1959 126.32C32.1579 126.38 33.1339 126.32 34.0939 126.26C35.1569 126.2 36.2189 126.08 37.2709 125.91C39.1899 125.6 41.085 125.08 42.853 124.27C44.466 123.52 45.9699 122.53 47.2199 121.26C48.5059 119.95 49.4589 118.37 50.1769 116.69C51.0109 114.74 51.5589 112.69 52.0959 110.64C52.1909 110.28 51.6879 110.14 51.5959 110.51C51.5939 110.52 51.592 110.53 51.59 110.53C51.588 110.54 51.5849 110.54 51.5819 110.54C50.4539 111.85 48.8679 112.7 47.4219 113.61C45.9729 114.52 44.5099 115.41 43.0549 116.31C40.1739 118.1 37.3109 119.94 34.7009 122.11C33.9849 122.71 33.2879 123.33 32.6179 123.98C32.2809 124.3 31.9569 124.64 31.6399 124.99C31.4889 125.15 31.3349 125.31 31.1919 125.48C31.1909 125.32 31.1909 125.17 31.1899 125.01C31.1699 119.98 31.1479 114.95 31.1259 109.93C35.3989 111.07 40.0089 110.86 44.2419 109.64C48.2979 108.47 52.0289 106.26 55.0339 103.3C56.4909 101.86 57.8229 100.25 58.8769 98.5C59.0949 98.12 59.2919 97.68 59.1519 97.25ZM50.3029 88.9499C46.9059 91.9399 42.7689 93.98 38.4039 95.13C37.1289 95.47 35.835 95.7399 34.533 95.9499C33.763 96.0699 32.989 96.16 32.215 96.25C32.798 96.06 33.3749 95.85 33.9399 95.64C34.8959 95.28 35.8429 94.9 36.7789 94.49C38.6739 93.67 40.5239 92.7399 42.3179 91.7099C45.8739 89.6699 49.2159 87.26 52.2589 84.52C53.7429 83.18 55.1509 81.77 56.4969 80.3C55.1669 83.62 52.9859 86.5799 50.3029 88.9499ZM31.5259 96.14C33.0439 95.23 34.5299 94.27 36.0159 93.31C37.7379 92.19 39.4589 91.08 41.1869 89.98C44.6289 87.78 48.0469 85.55 51.4619 83.31C52.8739 82.38 54.2859 81.46 55.6939 80.53C53.3239 83.16 50.6799 85.54 47.8439 87.66C44.5739 90.1 41.039 92.18 37.322 93.87C36.285 94.34 35.2339 94.78 34.1699 95.18C33.6319 95.39 33.0929 95.59 32.5499 95.78C32.2099 95.9 31.8669 96.02 31.5259 96.14ZM46.6749 85.8199C43.2769 88.0499 39.8949 90.31 36.4879 92.52C34.9659 93.51 33.4369 94.5 31.9379 95.52C32.3949 95.01 32.8569 94.51 33.3159 94C34.0149 93.23 34.7389 92.48 35.4839 91.76C36.9569 90.32 38.5199 88.99 40.1619 87.75C43.4509 85.26 47.0369 83.19 50.8209 81.55C52.5359 80.81 54.2939 80.18 56.0809 79.63C52.9359 81.68 49.8109 83.7599 46.6749 85.8199ZM38.7309 87.29C42.1089 84.61 45.9969 82.6299 50.0569 81.1999C50.6849 80.9799 51.3189 80.7699 51.9549 80.5799C49.8309 81.4199 47.7629 82.41 45.7739 83.55C42.1509 85.62 38.801 88.14 35.783 91.02C34.955 91.81 34.157 92.6299 33.387 93.4699C32.693 94.2399 32.0599 95.03 31.4479 95.85C31.4309 95.87 31.4139 95.88 31.3969 95.89C33.2219 92.56 35.7609 89.66 38.7309 87.29ZM31.1519 70.18C33.2339 67.58 35.7649 65.38 38.5469 63.54C41.6859 61.47 45.0759 59.84 48.5549 58.43C49.9279 57.87 51.3129 57.3399 52.6999 56.8199C52.4609 56.9399 52.2239 57.0699 51.9869 57.1899C51.1639 57.6099 50.3459 58.03 49.5309 58.47C47.9149 59.33 46.3149 60.22 44.7319 61.14C41.5659 62.98 38.4729 64.95 35.4669 67.04C34.6129 67.63 33.7649 68.23 32.9289 68.85C32.3349 69.29 31.7329 69.72 31.1519 70.18ZM32.8489 69.3199C33.5979 68.7799 34.3479 68.2399 35.1039 67.7099C36.5919 66.6699 38.1009 65.66 39.6299 64.68C42.7349 62.69 45.9209 60.83 49.1859 59.11C50.0929 58.63 51.0059 58.1699 51.9239 57.7099C52.0669 57.6399 52.2139 57.57 52.3589 57.5C50.1949 59.18 47.9719 60.79 45.6939 62.31C42.6829 64.32 39.5699 66.17 36.3799 67.87C34.6979 68.77 32.9849 69.6099 31.2819 70.4699C31.8079 70.0899 32.3249 69.6999 32.8489 69.3199ZM51.7689 60.06C49.3949 63.24 46.6829 66.24 43.2889 68.35C41.6449 69.37 39.8499 70.19 37.9709 70.68C36.0869 71.16 34.0489 71.37 32.1189 71.04C31.9179 71.01 31.7179 70.96 31.5189 70.91C33.0099 70.68 34.4909 70.2199 35.8939 69.7099C37.6049 69.0899 39.2569 68.32 40.8459 67.43C44.1089 65.62 47.1219 63.3699 49.9629 60.9599C51.0279 60.0499 52.0729 59.1299 53.1149 58.1999C52.6749 58.8199 52.2269 59.44 51.7689 60.06ZM45.9089 63.67C43.0029 65.86 39.91 67.78 36.512 69.12C35.571 69.49 34.6109 69.8199 33.6359 70.0899C32.9509 70.2799 32.2579 70.4299 31.5629 70.5699C33.0389 69.9099 34.4829 69.18 35.9139 68.43C37.5159 67.6 39.0979 66.72 40.6589 65.81C43.7769 63.99 46.836 62.03 49.775 59.93C51.186 58.93 52.5679 57.88 53.9329 56.81C51.3569 59.2 48.7179 61.55 45.9089 63.67ZM36.8159 61.75C39.8629 59.25 43.5779 57.64 47.3579 56.6C49.4149 56.04 51.5719 55.53 53.7199 55.64C53.8949 55.65 54.1069 55.65 54.2729 55.73C50.6699 57.09 47.0729 58.4899 43.6179 60.2099C40.4049 61.7999 37.3389 63.6999 34.6519 66.0899C33.3349 67.2599 32.1269 68.5399 31.0629 69.9499C32.1089 66.7199 34.2079 63.9 36.8159 61.75ZM43.9169 14.61C43.9569 14.57 43.9959 14.54 44.0359 14.51C42.9699 17.11 41.472 19.51 39.762 21.74C37.992 24.04 36.005 26.19 33.952 28.24C33.368 28.83 32.7789 29.41 32.1859 29.98C31.8799 30.28 31.5589 30.57 31.2499 30.87C31.3629 30.72 31.4749 30.57 31.5879 30.43C32.0329 29.84 32.476 29.26 32.921 28.67C33.821 27.5 34.7279 26.32 35.6309 25.14C37.4179 22.82 39.2229 20.4999 41.0469 18.1999C41.9979 16.9999 42.9809 15.82 43.9169 14.61ZM33.4329 24.26C34.8019 21.76 36.6149 19.4799 38.7509 17.5799C39.8199 16.6299 40.9719 15.78 42.1949 15.04C42.5069 14.85 42.8219 14.66 43.1489 14.49C43.2609 14.44 43.4049 14.38 43.5469 14.35C43.4639 14.45 43.3859 14.55 43.3039 14.65C41.3319 16.39 39.4449 18.25 37.7389 20.24C35.8699 22.44 34.1529 24.7699 32.6359 27.2199C32.1949 27.9299 31.7659 28.65 31.3619 29.39C31.8519 27.61 32.5459 25.89 33.4329 24.26ZM31.0859 30.4699C32.2879 28.3299 33.5169 26.1999 34.9629 24.1999C36.6369 21.8899 38.5029 19.7099 40.5209 17.6899C41.0019 17.1999 41.4949 16.74 41.9949 16.28C41.6679 16.7 41.3419 17.11 41.0149 17.53C40.0959 18.69 39.1819 19.86 38.2739 21.03C36.4759 23.35 34.704 25.69 32.952 28.05C32.467 28.7 31.9859 29.36 31.5079 30.01C31.3529 30.23 31.1989 30.44 31.0449 30.65C31.0569 30.59 31.0729 30.5299 31.0859 30.4699ZM30.8629 31.5799C31.3409 31.1999 31.7759 30.7599 32.2159 30.3399C32.7559 29.8299 33.2939 29.32 33.8279 28.81C34.8779 27.79 35.9169 26.7599 36.9169 25.6899C38.9019 23.5799 40.752 21.3099 42.27 18.8299C42.868 17.8599 43.414 16.85 43.905 15.81C43.821 16.09 43.738 16.37 43.642 16.65C42.583 19.71 40.7619 22.44 38.6269 24.85C36.2949 27.49 33.574 29.7399 30.866 31.9699C30.837 31.9899 30.8089 32.02 30.7809 32.04C30.8039 31.88 30.8339 31.7299 30.8629 31.5799ZM18.6949 1.13999C18.7499 1.06999 18.8019 0.999921 18.8679 0.939921C18.8699 0.959921 18.8699 0.989989 18.8779 1.00999C18.9849 1.34999 19.1919 1.65995 19.3699 1.96995C19.5629 2.30995 19.7559 2.65998 19.9459 2.99998C20.3129 3.65998 20.6759 4.31996 21.0339 4.97996C21.7499 6.30996 22.447 7.63997 23.124 8.98997C24.465 11.66 25.7129 14.37 26.9199 17.1C27.2409 17.83 27.5599 18.55 27.8799 19.28C27.3579 18.73 26.8459 18.1699 26.3559 17.5899C25.3999 16.4599 24.4969 15.28 23.6639 14.05C21.9709 11.55 20.4639 8.84998 19.4529 5.99998C18.8929 4.41998 18.5769 2.79999 18.6949 1.13999ZM22.2389 15.56C20.2669 13.07 18.8979 10.12 18.3429 6.97996C18.2039 6.18996 18.1149 5.38994 18.0809 4.58994C18.0499 3.86994 18.0389 3.13002 18.1689 2.42002C18.2129 2.18002 18.2799 1.92992 18.3749 1.68992C18.3229 2.90992 18.5589 4.15004 18.9039 5.31004C19.3559 6.84004 20.0129 8.30997 20.7039 9.73997C22.0249 12.48 23.6689 15.06 25.5779 17.42C26.4699 18.53 27.4279 19.61 28.4609 20.6C28.5279 20.75 28.5949 20.9 28.6619 21.05C26.2089 19.64 23.9969 17.79 22.2389 15.56ZM28.6599 20.0899C27.8049 17.7699 26.8359 15.5 25.8069 13.25C24.5539 10.51 23.2139 7.79999 21.7999 5.13999C21.4039 4.39999 21.0019 3.65001 20.5929 2.91001C20.3879 2.55001 20.1819 2.18004 19.9749 1.81004C19.7719 1.45004 19.5929 1.05998 19.3129 0.749979C19.2919 0.729979 19.2699 0.70993 19.2469 0.69993C19.7719 0.47993 20.3929 0.610033 20.8759 0.930033C21.5449 1.36003 22.0369 2.03 22.5179 2.65C22.9899 3.26 23.4379 3.89001 23.8629 4.53001C24.7219 5.83001 25.4739 7.19997 26.1169 8.61997C26.7599 10.04 27.3009 11.51 27.7239 13.01C27.8599 13.49 27.9769 13.9699 28.0879 14.4599C28.0729 14.4899 28.0639 14.5299 28.0689 14.5699C28.2829 16.4199 28.491 18.27 28.689 20.12C28.68 20.11 28.6699 20.0999 28.6599 20.0899ZM16.5489 15.35C17.2699 15.08 18.1249 15.78 18.6849 16.15C19.2879 16.56 19.873 16.9799 20.439 17.4399C22.719 19.2599 24.6629 21.4799 26.2189 23.9499C27.2639 25.5999 28.1109 27.39 28.7679 29.23C28.4139 28.71 28.05 28.1999 27.681 27.6899C26.872 26.5699 26.0309 25.47 25.1589 24.4C23.4239 22.27 21.5589 20.2499 19.5939 18.3299C19.0299 17.7799 18.4559 17.2299 17.8729 16.6999C17.3929 16.2699 16.9129 15.83 16.3989 15.43C16.4459 15.4 16.4919 15.37 16.5489 15.35ZM22.4929 26.75C21.3559 25.72 20.3019 24.6 19.3439 23.41C18.3419 22.16 17.3799 20.82 16.7029 19.36C16.3549 18.61 16.0859 17.82 15.9769 17C15.9219 16.59 15.9169 16 16.1779 15.64C16.7949 16.79 17.587 17.8699 18.335 18.9399C19.135 20.0799 19.9619 21.21 20.8159 22.31C22.5049 24.49 24.275 26.62 26.168 28.63C26.701 29.2 27.2409 29.76 27.7889 30.31C27.9909 30.51 28.1959 30.71 28.4009 30.91C26.2729 29.77 24.2859 28.37 22.4929 26.75ZM28.9759 30.9C28.7319 30.66 28.4909 30.41 28.2479 30.17C27.7629 29.67 27.2839 29.18 26.8099 28.68C25.8619 27.67 24.9279 26.65 24.0199 25.61C22.2229 23.55 20.525 21.4099 18.926 19.1899C18.472 18.5599 18.0259 17.92 17.5879 17.28C17.3549 16.94 17.1259 16.59 16.8929 16.25C17.5709 16.89 18.2729 17.5 18.9379 18.15C19.9479 19.13 20.9309 20.14 21.8799 21.18C23.7389 23.22 25.4859 25.37 27.1039 27.6C27.5499 28.22 27.987 28.8399 28.413 29.4699C28.634 29.7999 28.8559 30.1199 29.0739 30.4499C29.1319 30.5399 29.1889 30.6199 29.2459 30.7099C29.3119 30.9299 29.379 31.16 29.439 31.38C29.293 31.21 29.1309 31.06 28.9759 30.9ZM36.926 5.48997C36.943 5.44997 36.9579 5.39995 36.9749 5.34995C36.9819 5.32995 36.9799 5.32003 36.9829 5.30003C37.0709 5.42003 37.1459 5.55993 37.2069 5.69993C37.5089 6.38993 37.5779 7.18002 37.6049 7.92002C37.6659 9.62002 37.3059 11.3199 36.8279 12.9399C36.4129 14.3499 35.8809 15.72 35.2399 17.04C33.9419 19.71 32.1989 22.16 30.1189 24.27C30.0509 24.34 29.985 24.41 29.918 24.48C29.926 24.46 29.9329 24.45 29.9409 24.43C31.8709 22.5 33.373 20.12 34.507 17.65C35.663 15.13 36.4139 12.4 36.7369 9.65C36.8979 8.28 36.969 6.87997 36.926 5.48997ZM35.7969 13.18C35.0949 15.82 33.9839 18.37 32.5129 20.68C31.8209 21.76 31.0359 22.78 30.2139 23.78C31.1039 21.65 31.9049 19.4999 32.6999 17.3399C33.6339 14.7999 34.5319 12.2499 35.4409 9.70994C35.8309 8.61994 36.2079 7.52002 36.5949 6.42002C36.6439 8.70002 36.3839 10.96 35.7969 13.18ZM29.655 22.75C29.646 22.67 29.6389 22.58 29.6299 22.5C29.5439 20.35 29.6629 18.1999 30.0219 16.0799C30.5109 13.1899 31.462 10.3599 32.947 7.82994C33.323 7.18994 33.7329 6.56995 34.1749 5.96995C34.5689 5.43995 35.1059 4.80994 35.7999 4.70994C33.1099 9.35994 31.1889 14.46 30.1479 19.73C29.9989 20.49 29.8699 21.25 29.7589 22.01C29.7249 22.26 29.689 22.51 29.655 22.75ZM29.775 23.9599C29.856 23.4399 29.9089 22.91 29.9839 22.39C30.0799 21.71 30.1919 21.03 30.3169 20.36C30.5709 19 30.8779 17.64 31.2469 16.31C31.9699 13.69 32.9199 11.1499 34.0819 8.69993C34.7239 7.33993 35.4319 6.01996 36.1989 4.72996C36.3279 4.75996 36.4449 4.81999 36.5549 4.88999C36.5379 4.91999 36.527 4.94998 36.53 4.99998C36.532 5.01998 36.5319 5.03993 36.5339 5.06993C36.5149 5.08993 36.4979 5.12 36.4869 5.15C35.7039 7.74 34.801 10.2899 33.9 12.8399C32.999 15.3899 32.0669 17.9299 31.1139 20.4599C30.6579 21.6699 30.2139 22.88 29.7869 24.1C29.7839 24.05 29.779 24.0099 29.775 23.9599ZM21.1059 30.3199C23.5489 32.8299 26.032 35.41 27.939 38.37C28.303 38.94 28.6389 39.52 28.9429 40.12C27.4489 38.13 25.8619 36.21 24.1869 34.37C22.0339 32.01 19.7469 29.77 17.3409 27.66C16.6629 27.07 15.9759 26.49 15.2789 25.92C14.9229 25.63 14.566 25.32 14.197 25.03C16.843 26.26 19.0829 28.2399 21.1059 30.3199ZM28.905 40.8299C28.72 40.7199 28.5359 40.6 28.3509 40.49C26.7149 38.73 25.0779 36.98 23.4359 35.23C21.2319 32.88 19.013 30.5499 16.806 28.1999C15.948 27.2899 15.0909 26.3799 14.2219 25.4699C14.4239 25.6399 14.6259 25.7999 14.8229 25.9599C15.4409 26.4699 16.0519 26.99 16.6559 27.52C17.8519 28.57 19.0189 29.65 20.1539 30.76C22.4409 33.01 24.595 35.39 26.616 37.88C27.402 38.84 28.16 39.8299 28.905 40.8299ZM19.3559 31.53C21.5229 33.9 23.7229 36.25 25.9209 38.6C26.2029 38.91 26.4859 39.21 26.7679 39.51C26.3699 39.26 25.9729 39.01 25.5799 38.75C24.1629 37.83 22.7699 36.8699 21.4439 35.8199C18.9769 33.8699 16.738 31.62 15.085 28.92C14.635 28.19 14.2329 27.43 13.8849 26.64C13.6189 26.04 13.4049 25.42 13.1829 24.8C15.1849 27.09 17.3069 29.28 19.3559 31.53ZM21.7009 37.89C19.0559 35.8 16.8109 33.19 15.1939 30.23C14.6609 29.26 14.1719 28.23 13.7909 27.18C14.0019 27.63 14.2239 28.08 14.4699 28.51C15.2239 29.85 16.1259 31.1 17.1249 32.27C19.2929 34.8 21.9119 36.87 24.6519 38.75C25.8129 39.54 27.0019 40.31 28.2059 41.05C28.4739 41.33 28.7409 41.62 29.0089 41.9C26.3719 40.98 23.8949 39.62 21.7009 37.89ZM22.8209 49.8399C20.4579 47.9099 18.388 45.6299 16.728 43.0799C15.873 41.7599 15.1719 40.3699 14.4969 38.9599C15.2219 40.0599 16.0839 41.1 16.9189 42.12C17.8389 43.25 18.7889 44.35 19.7729 45.42C21.7319 47.56 23.8059 49.59 25.9899 51.5C26.6529 52.07 27.3269 52.6399 28.0079 53.1999C26.1669 52.2599 24.4289 51.1399 22.8209 49.8399ZM29.5079 53.9C27.4129 52.26 25.3999 50.51 23.4749 48.67C21.3739 46.66 19.3829 44.53 17.5099 42.31C16.9909 41.69 16.4819 41.07 15.9819 40.43C15.6289 39.99 15.2809 39.5399 14.9249 39.0899C15.2859 39.3599 15.655 39.62 16.012 39.89C16.603 40.34 17.1889 40.79 17.7659 41.25C18.9089 42.16 20.0209 43.12 21.0959 44.11C23.2649 46.12 25.2819 48.29 27.1649 50.56C28.0929 51.69 28.97 52.85 29.809 54.04C29.708 53.99 29.6089 53.95 29.5079 53.9ZM24.8909 47.3399C22.8819 45.1699 20.6989 43.16 18.3969 41.3C17.7469 40.78 17.0879 40.26 16.4149 39.77C16.2209 39.62 16.0259 39.4799 15.8299 39.3299C15.9679 39.3899 16.1069 39.44 16.2439 39.5C16.9419 39.79 17.6249 40.12 18.2939 40.48C19.6669 41.21 20.9669 42.06 22.1869 43.03C24.6129 44.94 26.6529 47.29 28.2659 49.92C29.0509 51.2 29.7029 52.5599 30.2299 53.9599C30.2299 53.9799 30.2299 53.99 30.2299 54C28.5999 51.66 26.8249 49.4299 24.8909 47.3399ZM13.723 47.66C15.42 48.44 17.06 49.33 18.624 50.35C21.73 52.36 24.542 54.83 26.926 57.67C27.593 58.46 28.2269 59.28 28.8249 60.13C28.8509 60.16 28.8739 60.2 28.8989 60.24C28.8329 60.16 28.768 60.08 28.702 60.01C28.107 59.31 27.4889 58.63 26.8499 57.98C25.5939 56.69 24.257 55.49 22.848 54.37C21.425 53.24 19.9289 52.2 18.3719 51.26C16.8539 50.35 15.2729 49.58 13.6789 48.81C12.8039 48.39 11.9349 47.95 11.1249 47.41C10.4989 46.99 9.92995 46.52 9.40795 45.99C10.8649 46.5 12.317 47.02 13.723 47.66ZM28.5439 60.64C26.0959 58.97 23.6439 57.31 21.1979 55.63C18.3409 53.67 15.4779 51.7 12.8189 49.48C12.0749 48.86 11.3449 48.22 10.6379 47.56C10.3599 47.3 10.0929 47.02 9.82494 46.75C10.6729 47.54 11.6979 48.1499 12.6989 48.6899C14.2589 49.5299 15.8669 50.27 17.3979 51.17C20.5279 53 23.4209 55.23 25.9769 57.81C26.6869 58.52 27.3719 59.26 28.0289 60.03C28.2049 60.23 28.3749 60.44 28.5439 60.64ZM25.2329 60.79C23.4979 60.12 21.824 59.2999 20.236 58.3199C17.068 56.3799 14.2349 53.8799 11.9549 50.9499C10.8279 49.4899 9.86793 47.93 9.01293 46.31C9.38393 46.73 9.78592 47.12 10.1749 47.5C10.7879 48.11 11.419 48.7 12.064 49.27C13.369 50.43 14.7379 51.52 16.1359 52.56C19.0479 54.73 22.068 56.7499 25.0459 58.8299C26.5789 59.8899 28.1109 60.96 29.6449 62.02C29.6749 62.06 29.706 62.1 29.736 62.14C28.208 61.78 26.7039 61.37 25.2329 60.79ZM8.61596 58.76C9.17996 59.12 9.77493 59.45 10.3539 59.78C11.1619 60.25 11.9679 60.7199 12.7709 61.1899C14.3759 62.1499 15.9699 63.12 17.5329 64.14C20.4849 66.06 23.338 68.15 25.934 70.54C26.515 71.08 27.0759 71.6299 27.6229 72.1899C25.7759 71.0599 23.7479 70.19 21.8619 69.12C18.5789 67.28 15.4789 65.09 12.6199 62.64C11.2729 61.48 9.99595 60.26 8.74895 59C8.70595 58.92 8.65896 58.84 8.61596 58.76ZM19.6689 69.9C16.5369 68.14 13.662 65.8699 11.387 63.0799C10.553 62.0599 9.84591 60.9699 9.20391 59.8299C11.3269 62.0599 13.682 64.09 16.15 65.9C17.659 67.01 19.2219 68.04 20.8329 69C22.4079 69.93 24.0479 70.74 25.6399 71.65C26.8149 72.31 27.9879 72.9999 29.0439 73.8399C25.8139 72.7799 22.6399 71.57 19.6689 69.9ZM29.3389 73.38C28.5199 72.46 27.6399 71.58 26.7439 70.73C25.4749 69.54 24.1409 68.4099 22.7629 67.3399C19.8599 65.0899 16.7609 63.1 13.6019 61.23C12.7049 60.7 11.8029 60.18 10.8989 59.66C10.3719 59.36 9.84392 59.04 9.30492 58.75C9.78792 58.91 10.2719 59.06 10.7519 59.22C11.6939 59.53 12.6269 59.8599 13.5529 60.2099C15.3729 60.9099 17.1549 61.71 18.8599 62.65C21.9879 64.39 24.8529 66.65 27.0459 69.5C27.9929 70.72 28.7889 72.0499 29.4289 73.4499C29.3999 73.4299 29.3689 73.41 29.3389 73.38ZM11.6749 74.92C12.5299 74.93 13.3839 74.9799 14.2319 75.0899C15.9339 75.3099 17.6089 75.71 19.2169 76.31C22.1689 77.41 24.8749 79.16 27.0969 81.39C27.4209 81.72 27.7319 82.05 28.0329 82.4C26.3309 80.89 24.4019 79.61 22.4209 78.52C19.9079 77.14 17.2049 76.1099 14.4109 75.4699C13.2979 75.2099 12.1779 75.03 11.0469 74.93C11.2559 74.92 11.4669 74.91 11.6749 74.92ZM17.8429 76.89C20.5089 77.85 23.0339 79.1799 25.3319 80.8399C26.4179 81.6199 27.4289 82.49 28.4159 83.39C23.5739 81.18 18.73 78.96 13.887 76.75C12.647 76.18 11.3999 75.64 10.1479 75.1C12.7669 75.42 15.3619 75.99 17.8429 76.89ZM29.65 84.51C26.818 83.62 24.0599 82.53 21.3039 81.42C18.6279 80.35 15.9529 79.2399 13.5009 77.7099C12.5929 77.1399 11.7329 76.4999 10.9149 75.8199C15.6419 78.1099 20.455 80.2299 25.215 82.4499C26.691 83.1399 28.17 83.83 29.65 84.51ZM25.9759 84.67C24.4319 84.34 22.9169 83.8899 21.4429 83.3199C18.5009 82.1899 15.7349 80.6 13.2819 78.61C12.0209 77.59 10.883 76.46 9.79296 75.27C9.84996 75.3 9.90692 75.33 9.96392 75.35C11.7859 77.3 14.1419 78.6899 16.5239 79.8299C17.8429 80.4699 19.1919 81.0299 20.5479 81.5899C22.0619 82.1999 23.5789 82.81 25.1039 83.4C26.7589 84.03 28.4249 84.65 30.1199 85.17C30.1449 85.21 30.1719 85.24 30.1959 85.28C28.7799 85.14 27.3719 84.98 25.9759 84.67ZM5.87194 92.02C6.85294 91.74 7.86794 91.56 8.87694 91.42C10.9359 91.14 13.026 91.13 15.09 91.35C17.137 91.58 19.1579 92.0299 21.1069 92.6899C22.9949 93.3399 24.8139 94.19 26.4429 95.35C27.8449 96.34 29.0899 97.59 30.0339 99.03C26.8179 97.16 23.5849 95.27 20.1299 93.87C16.7759 92.5 13.1939 91.6099 9.55291 91.6999C7.75491 91.7399 5.95993 92.04 4.27093 92.66C4.76893 92.37 5.32394 92.18 5.87194 92.02ZM14.2949 92.5C17.8399 93.19 21.1829 94.6399 24.3579 96.3199C26.1049 97.2499 27.8089 98.26 29.5089 99.27C26.2739 98.82 23.1359 97.8699 20.0479 96.8199C16.5399 95.6199 13.0499 94.3299 9.41192 93.5699C7.62292 93.1999 5.8079 92.9799 3.9829 92.9599C7.3189 91.8999 10.8699 91.84 14.2949 92.5ZM28.874 99.6999C27.656 99.8799 26.4009 99.7799 25.1849 99.5899C23.4319 99.3199 21.6929 98.91 19.9699 98.5C16.4739 97.65 13.0319 96.6 9.64892 95.38C7.91392 94.75 6.20492 94.06 4.48192 93.41C7.80592 93.52 11.0729 94.3299 14.2339 95.3299C17.7389 96.4299 21.1679 97.78 24.7109 98.77C26.0809 99.15 27.47 99.4799 28.874 99.6999ZM19.2429 100.46C15.5369 99.7699 12.026 98.2799 8.74096 96.4599C7.80496 95.9399 6.89292 95.3799 5.98192 94.8299C5.20292 94.3499 4.4369 93.8 3.6209 93.38C3.6939 93.38 3.76696 93.39 3.83996 93.39C3.84796 93.39 3.85496 93.4 3.86596 93.41C5.50796 94.24 7.2149 94.9199 8.9359 95.5699C10.6559 96.2099 12.399 96.7999 14.155 97.3399C17.626 98.3999 21.171 99.29 24.749 99.91C26.498 100.22 28.3189 100.37 30.0369 99.87C30.0749 99.87 30.112 99.88 30.15 99.89C26.633 101.04 22.8709 101.14 19.2429 100.46ZM6.31591 101.19C7.37191 101.1 8.43396 101.11 9.49096 101.2C13.676 101.55 17.6289 103.13 21.2709 105.15C23.0309 106.13 24.7579 107.2 26.4109 108.35C27.1519 108.86 27.8859 109.42 28.5459 110.05C27.7319 109.56 26.8689 109.14 26.0419 108.72C24.3119 107.82 22.561 106.97 20.788 106.17C19.015 105.36 17.2209 104.6 15.4119 103.88C13.6079 103.16 11.7879 102.46 9.91094 101.95C8.49694 101.57 7.03996 101.3 5.57696 101.27C5.82296 101.24 6.06891 101.21 6.31591 101.19ZM9.24792 102.15C11.1039 102.61 12.8969 103.3 14.6709 104C18.1899 105.4 21.6409 106.98 25.0129 108.7C25.9449 109.18 26.8749 109.66 27.7909 110.17C28.3619 110.49 28.9229 110.83 29.4379 111.24C26.4529 109.83 23.4329 108.49 20.3709 107.25C16.8719 105.84 13.3359 104.52 9.75793 103.32C8.75192 102.98 7.74291 102.66 6.72991 102.34C6.22391 102.18 5.71694 102.02 5.20794 101.87C4.86494 101.77 4.52194 101.67 4.17394 101.58C5.88194 101.53 7.58892 101.74 9.24792 102.15ZM3.79992 101.83C3.80392 101.82 3.81093 101.82 3.81493 101.81C4.60493 102.14 5.4579 102.36 6.2719 102.62C7.1669 102.91 8.05892 103.2 8.95092 103.49C10.7479 104.09 12.536 104.72 14.314 105.37C17.856 106.68 21.3499 108.1 24.8049 109.62C26.2499 110.26 27.6839 110.92 29.1119 111.59C25.8549 111.09 22.6419 110.32 19.5049 109.31C15.9049 108.16 12.4039 106.69 9.05791 104.93C7.26091 103.98 5.52392 102.93 3.77892 101.9C3.78592 101.87 3.78692 101.85 3.79992 101.83ZM17.8249 110.46C14.1729 109.48 10.6209 107.97 7.55694 105.73C6.80594 105.18 6.08591 104.59 5.40691 103.95C5.06691 103.63 4.73595 103.31 4.41595 102.97C4.25595 102.8 3.94194 102.53 3.81194 102.25C5.21194 103.24 6.6869 104.12 8.1939 104.94C9.8729 105.85 11.5929 106.69 13.3469 107.45C16.8339 108.96 20.4519 110.17 24.1489 111.06C26.1649 111.54 28.2069 111.92 30.2579 112.22C30.2849 112.28 30.313 112.33 30.34 112.38C26.132 112.03 21.9089 111.57 17.8249 110.46ZM28.392 123.14C28.441 123.17 28.4879 123.2 28.5359 123.24C28.6909 123.4 28.8449 123.56 28.9949 123.73C29.2089 123.98 29.4149 124.23 29.6069 124.5C28.8609 123.98 27.9579 123.65 27.1359 123.37C25.2779 122.73 23.4199 122.1 21.5779 121.42C17.8839 120.05 14.24 118.51 10.78 116.62C9.80496 116.09 8.84994 115.52 7.90594 114.93C7.54794 114.71 7.19495 114.48 6.84295 114.25C7.21095 114.34 7.57992 114.44 7.94292 114.54C8.82992 114.8 9.71094 115.07 10.5879 115.36C12.3439 115.94 14.0759 116.59 15.7889 117.29C19.2249 118.68 22.5889 120.25 25.9269 121.87C26.7539 122.27 27.622 122.63 28.392 123.14ZM16.6619 115.67C20.3079 116.97 23.7209 118.89 26.6469 121.43C26.9509 121.69 27.2479 121.97 27.5409 122.24C27.4239 122.19 27.3079 122.13 27.1959 122.08C25.4799 121.26 23.7659 120.45 22.0419 119.65C18.5849 118.06 15.0809 116.55 11.4749 115.32C10.4589 114.98 9.43592 114.65 8.40392 114.36C7.65192 114.15 6.88195 113.91 6.10595 113.76C6.04595 113.72 5.98693 113.68 5.92693 113.64C9.57893 113.78 13.2149 114.44 16.6619 115.67ZM9.21392 117.35C8.45792 116.71 7.73195 116.04 7.04095 115.34C6.61095 114.9 6.20991 114.43 5.79491 113.98C6.30491 114.37 6.84993 114.72 7.37493 115.07C8.17793 115.61 9.00292 116.1 9.83892 116.58C11.5199 117.55 13.2509 118.42 15.0159 119.22C18.5619 120.83 22.2249 122.17 25.9079 123.42C27.4699 123.96 29.401 124.43 30.353 125.89C28.286 125.39 26.215 124.91 24.15 124.41C22.171 123.93 20.1959 123.43 18.2899 122.7C14.9849 121.45 11.9219 119.62 9.21392 117.35ZM19.168 123.97C17.466 123.15 15.8159 122.22 14.2249 121.2C15.2869 121.79 16.3799 122.32 17.5019 122.78C19.3639 123.54 21.2979 124.08 23.2469 124.56C25.6089 125.15 27.9739 125.74 30.3379 126.32C30.3969 126.34 30.4439 126.32 30.4809 126.3C30.4929 126.35 30.5059 126.39 30.5159 126.44C26.5989 127.24 22.64 125.66 19.168 123.97ZM45.6139 77.48C42.7909 79.7 39.6319 81.47 36.2739 82.75C35.3419 83.1 34.3949 83.41 33.4349 83.68C32.8239 83.86 32.2069 84.01 31.5909 84.16C31.6059 84.15 31.6199 84.14 31.6349 84.13C31.6509 84.13 31.6679 84.13 31.6849 84.12C34.6569 82.49 37.6129 80.83 40.5739 79.18C42.0609 78.35 43.5609 77.54 45.0569 76.73C46.2899 76.06 47.534 75.3999 48.749 74.6899C47.76 75.6799 46.7129 76.62 45.6139 77.48ZM49.9939 73.37C49.7189 73.58 49.433 73.7699 49.137 73.9499C47.837 74.7499 46.4679 75.4499 45.1329 76.1899C42.2069 77.8199 39.3029 79.49 36.3939 81.14C35.0759 81.89 33.7749 82.6599 32.4739 83.4399C33.3589 82.7099 34.2399 81.98 35.1689 81.31C36.5829 80.28 38.028 79.2799 39.504 78.3399C40.987 77.3999 42.5069 76.5099 44.0569 75.6899C45.5519 74.8899 47.0919 74.19 48.6019 73.42C49.5189 72.96 50.422 72.45 51.27 71.87C50.86 72.39 50.4319 72.88 49.9939 73.37ZM31.642 82.05C32.016 81.28 32.4539 80.54 32.9459 79.85C33.9309 78.45 35.1209 77.21 36.4439 76.13C39.3439 73.76 42.8269 72.24 46.4279 71.29C47.5209 71 48.6279 70.76 49.7399 70.56C50.3969 70.44 51.0569 70.35 51.7169 70.25C51.6569 70.27 51.598 70.28 51.538 70.3C51.114 70.41 50.6909 70.53 50.2709 70.66C49.4339 70.92 48.6059 71.2 47.7899 71.52C46.1699 72.14 44.5909 72.8899 43.0699 73.7199C40.0369 75.3999 37.2089 77.45 34.7049 79.85C33.3699 81.13 32.1279 82.5 31.0209 83.98C31.0889 83.31 31.34 82.66 31.642 82.05ZM38.366 77.13C41.136 75.07 44.183 73.39 47.4 72.15C48.287 71.8 49.1869 71.4899 50.0949 71.2099C50.5599 71.0599 51.0279 70.93 51.4979 70.81C51.6859 70.76 51.8769 70.71 52.0669 70.67C49.7739 72.59 46.8649 73.66 44.2419 75.04C41.1569 76.66 38.1779 78.52 35.4299 80.67C34.6459 81.28 33.8699 81.91 33.1049 82.54C32.4379 83.1 31.7759 83.66 31.1569 84.27C31.1089 84.28 31.06 84.3 31.012 84.31C31.012 84.3 31.012 84.29 31.012 84.29C33.178 81.62 35.606 79.18 38.366 77.13ZM30.8949 57.9C30.8899 56.81 30.8859 55.73 30.8799 54.64C30.9059 54.59 30.914 54.53 30.892 54.47C30.888 54.45 30.883 54.44 30.879 54.43C30.878 54.22 30.8769 54.02 30.8759 53.81C30.8679 52.46 30.8559 51.11 30.8429 49.76C32.9939 48.64 35.1279 47.48 37.1699 46.17C34.9089 48.61 33.0159 51.41 31.8419 54.53C31.4309 55.63 31.1129 56.75 30.8949 57.9ZM41.702 50.01C39.753 52.7 37.5529 55.18 35.0419 57.36C33.8489 58.39 32.6019 59.36 31.3169 60.28C31.4289 60.11 31.5459 59.96 31.6599 59.79C32.5899 58.99 33.4869 58.13 34.3649 57.27C35.5119 56.14 36.6269 54.99 37.7089 53.8C39.8749 51.42 41.9189 48.9299 43.7979 46.3199C44.2949 45.6299 44.7769 44.93 45.2599 44.22C44.2209 46.24 43.034 48.18 41.702 50.01ZM43.905 45.6C42.982 46.9 42.02 48.18 41.033 49.43C39.04 51.95 36.8879 54.36 34.6129 56.63C33.8839 57.36 33.1369 58.07 32.3859 58.77C33.8149 56.79 35.307 54.8599 36.835 52.9599C38.822 50.4799 40.9059 48.1 43.0599 45.77C43.8539 44.92 44.6689 44.08 45.4799 43.24C44.9739 44.04 44.455 44.83 43.905 45.6ZM46.5519 41.5C46.5449 41.52 46.5379 41.53 46.5319 41.55H46.5289C46.5149 41.56 46.4999 41.5699 46.4869 41.5799C45.3399 42.6599 44.268 43.83 43.197 44.99C42.117 46.16 41.058 47.35 40.025 48.56C37.959 50.98 35.9599 53.46 34.0629 56.01C33.1839 57.19 32.3399 58.4 31.4999 59.61C31.3569 59.74 31.215 59.87 31.072 60.01C31.094 59.75 31.1169 59.5 31.1479 59.25C31.2559 58.82 31.3919 58.4 31.5729 57.99C31.9159 57.19 32.3519 56.4399 32.8099 55.7099C33.6839 54.3199 34.63 52.97 35.629 51.66C37.616 49.06 39.8299 46.61 42.3459 44.51C43.0349 43.94 43.7449 43.38 44.4759 42.86C44.8529 42.6 45.235 42.3399 45.624 42.0799C45.923 41.8899 46.2349 41.71 46.5239 41.5C46.5329 41.5 46.5429 41.5 46.5519 41.5ZM45.9629 41.4499C45.4699 41.7299 44.9999 42.07 44.5499 42.38C43.8649 42.85 43.198 43.35 42.551 43.87C41.274 44.91 40.0729 46.03 38.9379 47.22C36.6269 49.64 34.6159 52.3199 32.7469 55.0899C32.3209 55.7199 31.911 56.36 31.556 57.04C32.111 54.78 33.0589 52.62 34.2939 50.65C35.2049 49.2 36.2639 47.8399 37.4239 46.5799C37.9729 45.9899 38.546 45.3999 39.142 44.8399C39.71 44.4299 40.2719 44.0199 40.8179 43.5799C41.2379 43.2499 41.6479 42.9 42.0519 42.54C43.2469 41.84 44.5829 41.3899 45.9629 41.4499ZM48.4069 32.29C48.3099 33.07 47.9359 33.85 47.6119 34.56C46.2659 37.51 44.1519 40.05 41.7329 42.18C40.6909 42.82 39.7429 43.62 38.8519 44.47C36.5439 46.11 34.0799 47.53 31.6359 48.97C31.3749 49.12 31.1169 49.2799 30.8579 49.4399C30.8779 49.4099 30.8889 49.3799 30.8939 49.3399C30.9919 49.1699 31.0969 48.9999 31.1989 48.8299C31.7889 48.4899 32.3579 48.1 32.9279 47.73C33.6729 47.25 34.4149 46.75 35.1469 46.25C36.5959 45.25 38.0199 44.21 39.3859 43.1C41.9069 41.04 44.2419 38.73 46.0969 36.05C46.9989 34.74 47.767 33.35 48.421 31.9C48.43 32.03 48.4229 32.17 48.4069 32.29ZM31.564 48.24C32.991 46.02 34.7599 44.01 36.6439 42.18C39.0519 39.83 41.681 37.74 44.21 35.53C45.505 34.4 46.7589 33.2199 47.9449 31.9699C46.8419 34.6199 45.1169 36.9899 43.1799 39.0799C40.8799 41.5699 38.205 43.67 35.439 45.61C34.651 46.17 33.8559 46.71 33.0569 47.25C32.5639 47.58 32.058 47.9 31.564 48.24ZM47.7659 31.1C47.8629 31.11 47.958 31.13 48.043 31.18C48.024 31.19 48.0039 31.1999 47.9869 31.2199C45.6399 33.7699 42.9719 35.99 40.3569 38.26C37.8829 40.4 35.4159 42.58 33.3549 45.14C32.4659 46.24 31.6809 47.41 30.9999 48.64C30.9439 48.69 30.8879 48.73 30.8329 48.77C30.8319 48.72 30.8309 48.67 30.8309 48.62C30.9509 47.32 31.2699 46.06 31.8359 44.86C32.5159 43.41 33.478 42.12 34.577 40.97C35.732 39.76 37.0409 38.71 38.3839 37.72C39.7859 36.69 41.2229 35.6999 42.6489 34.6899C44.3529 33.4899 46.0579 32.3 47.7659 31.1ZM44.4699 32.27C44.9249 32.07 45.3819 31.87 45.8409 31.68C46.1169 31.57 46.3949 31.4399 46.6769 31.3299C43.9389 33.2899 41.1809 35.2199 38.4739 37.2099C35.8399 39.1599 33.297 41.3499 31.793 44.3199C31.364 45.1599 31.0149 46.08 30.8069 47.02C30.7929 46.03 30.781 45.03 30.762 44.04C31.1 42.49 31.7689 41.01 32.7549 39.74C33.3809 38.94 34.1179 38.24 34.9119 37.61C36.7859 36.6 38.5969 35.47 40.3359 34.26C40.8239 34 41.3149 33.75 41.8069 33.51C42.6849 33.08 43.5729 32.66 44.4699 32.27ZM35.5099 29.99C36.6869 28.53 37.99 27.18 39.361 25.91C40.686 24.68 42.0569 23.47 43.5279 22.41C44.2529 21.89 45.0159 21.42 45.8309 21.06C46.2279 20.88 46.638 20.72 47.056 20.6C47.405 20.5 47.8209 20.41 48.1789 20.53C46.8269 21.29 45.5389 22.14 44.2679 23.03C42.8649 24.01 41.5179 25.0699 40.2329 26.1999C37.6909 28.4399 35.4109 30.9599 33.4189 33.6999C32.8659 34.4599 32.3359 35.24 31.8329 36.03C32.7499 33.85 34.0209 31.83 35.5099 29.99ZM31.439 37.04C32.898 34.7 34.5279 32.48 36.3799 30.42C38.6389 27.92 41.1619 25.6499 43.9099 23.6899C45.4039 22.6299 46.9909 21.6999 48.6009 20.8199C48.6709 20.9099 48.7249 21.01 48.7659 21.12C46.0539 23.06 43.46 25.16 41.007 27.43C38.537 29.71 36.2099 32.1399 34.0349 34.6999C32.9759 35.9499 31.8949 37.2199 30.9609 38.5699C30.9549 38.5799 30.9489 38.5799 30.9429 38.5899C31.0859 38.0699 31.256 37.55 31.439 37.04ZM48.4589 21.93C47.0599 24.55 45.2139 26.9 43.1459 29.01C40.7579 31.46 38.0599 33.5799 35.2889 35.5699C34.1389 36.3899 32.9629 37.18 31.7989 37.99C32.4859 37.13 33.1619 36.26 33.8729 35.42C34.9539 34.14 36.0729 32.8999 37.2309 31.6899C39.5639 29.2599 42.0489 26.9799 44.6569 24.8399C45.8929 23.8299 47.1649 22.87 48.4589 21.93ZM30.7819 39.23C30.9399 39.04 31.0929 38.85 31.2479 38.66C32.5149 37.85 33.757 36.99 34.991 36.13C36.44 35.12 37.8669 34.08 39.2459 32.97C41.8089 30.92 44.2249 28.63 46.2199 26.01C47.2189 24.7 48.1099 23.2999 48.8719 21.8399C48.8699 22.0299 48.8559 22.23 48.8299 22.4C48.7009 23.23 48.4299 24.0499 48.1129 24.8299C46.7369 28.2099 44.1199 30.86 41.2529 33.04C41.0249 33.21 40.7929 33.37 40.5619 33.54C39.6089 34.03 38.668 34.5399 37.741 35.0799C36.476 35.8099 35.2369 36.61 34.1259 37.56C33.2529 38.03 32.3709 38.49 31.4809 38.93C31.2449 39.05 31.0069 39.16 30.7689 39.28C30.7729 39.26 30.7779 39.25 30.7819 39.23ZM30.663 39.64C31.486 39.29 32.2979 38.92 33.1019 38.53C32.0639 39.63 31.2619 40.91 30.7289 42.3C30.7089 41.42 30.689 40.53 30.663 39.64ZM7.02691 128.97C9.12091 129.18 11.2089 129.52 13.2729 129.93C17.2819 130.72 21.24 131.88 24.931 133.65C25.542 133.94 26.1389 134.26 26.7269 134.59C24.2629 133.81 21.7799 133.09 19.2739 132.48C15.3659 131.51 11.4429 130.64 7.47094 129.99C5.51894 129.67 3.55193 129.35 1.57793 129.19C1.46493 129.15 1.35191 129.12 1.23791 129.08C3.14591 128.74 5.09891 128.77 7.02691 128.97ZM28.6389 135.74C27.9519 135.62 27.257 135.53 26.572 135.41C25.603 135.24 24.6349 135.07 23.6699 134.88C21.7539 134.51 19.8429 134.11 17.9399 133.68C14.1069 132.81 10.3019 131.82 6.53191 130.71C5.45391 130.39 4.37996 130.06 3.30596 129.72C4.40796 129.89 5.51195 130.05 6.61095 130.24C8.59495 130.57 10.573 130.94 12.543 131.35C16.495 132.17 20.3949 133.19 24.2609 134.35C25.7299 134.78 27.1879 135.25 28.6389 135.74ZM5.67095 130.87C7.56495 131.45 9.46993 132 11.3829 132.52C15.1719 133.55 18.9919 134.45 22.8409 135.21C23.9259 135.43 25.0139 135.64 26.1019 135.84C26.2589 135.87 26.4179 135.9 26.5759 135.93C23.6239 135.97 20.6799 135.78 17.7549 135.29C13.8489 134.64 10.0129 133.5 6.37993 131.93C5.35793 131.48 4.35093 131 3.36193 130.49C2.77793 130.19 2.20294 129.87 1.62694 129.55C2.96294 130.02 4.31495 130.45 5.67095 130.87ZM17.3289 137.08C13.2449 136.49 9.28292 135.07 5.74792 132.94C4.33492 132.09 2.99896 131.12 1.74096 130.06C2.10396 130.27 2.47196 130.47 2.83996 130.67C3.72396 131.14 4.62293 131.59 5.53393 132.01C7.35693 132.84 9.22892 133.57 11.1409 134.18C14.9619 135.39 18.9219 136.13 22.9189 136.41C25.1529 136.57 27.4209 136.58 29.6519 136.38C29.6579 136.39 29.6629 136.39 29.6689 136.4C25.6549 137.44 21.4349 137.67 17.3289 137.08ZM46.4039 132.8C43.7479 135.16 40.444 136.75 36.879 137.05C35.244 137.18 33.6229 136.98 32.0479 136.57C35.4149 136.62 38.8239 135.82 41.8839 134.45C45.0349 133.05 47.8599 130.98 50.1819 128.43C50.1859 128.42 50.1899 128.42 50.1939 128.41C49.1049 130.02 47.8529 131.51 46.4039 132.8ZM51.6539 125.99C50.2789 127.95 48.6269 129.7 46.7209 131.17C43.9179 133.34 40.6489 134.87 37.1959 135.66C35.7529 135.99 34.283 136.18 32.806 136.27C32.979 136.22 33.1519 136.18 33.3239 136.13C34.1229 135.89 34.913 135.63 35.697 135.35C37.276 134.79 38.8269 134.14 40.3409 133.42C43.3519 131.98 46.2199 130.25 48.8859 128.24C49.6259 127.69 50.3479 127.11 51.0539 126.51C51.2549 126.34 51.4549 126.16 51.6539 125.99ZM39.7309 131.5C41.9789 130.42 44.2639 129.42 46.4879 128.3C46.0619 128.56 45.6369 128.83 45.2069 129.09C42.3869 130.8 39.4689 132.33 36.4749 133.71C35.6349 134.09 34.789 134.47 33.939 134.83C33.681 134.94 33.42 135.05 33.158 135.15C35.24 133.75 37.4669 132.58 39.7309 131.5ZM32.3049 135.74C32.7899 135.55 33.2689 135.35 33.7459 135.15C34.5069 134.83 35.2629 134.51 36.0149 134.17C37.5329 133.5 39.0319 132.78 40.5129 132.03C43.4369 130.54 46.3099 128.95 49.0709 127.18C49.6989 126.77 50.3189 126.36 50.9369 125.94C50.3199 126.46 49.6899 126.97 49.0499 127.47C47.7469 128.48 46.3939 129.43 44.9959 130.31C42.1959 132.07 39.2209 133.55 36.1269 134.72C35.2729 135.05 34.4109 135.34 33.5419 135.62C33.0959 135.77 32.6469 135.91 32.1989 136.04C32.0179 136.1 31.8369 136.15 31.6559 136.21C31.8709 136.05 32.0889 135.9 32.3049 135.74ZM47.3559 120.45C44.9459 123.2 41.404 124.69 37.874 125.36C36.737 125.57 35.5879 125.71 34.4349 125.8C34.2219 125.82 34.0079 125.84 33.7949 125.85C34.6319 125.73 35.4609 125.55 36.2689 125.33C37.9569 124.88 39.59 124.23 41.129 123.41C44.053 121.83 46.5989 119.61 48.5789 116.94C49.4669 115.75 50.2819 114.45 50.9199 113.1C50.1739 115.75 49.1889 118.35 47.3559 120.45ZM32.7309 124.38C33.3269 123.81 33.9439 123.26 34.5759 122.73C35.8769 121.65 37.2439 120.64 38.6429 119.68C41.4559 117.75 44.4039 116.04 47.3039 114.25C47.5369 114.1 47.7689 113.96 48.0009 113.81C46.4659 114.89 44.9289 115.97 43.3839 117.03C40.7599 118.84 38.1449 120.67 35.5279 122.49C34.7949 123 34.0629 123.51 33.3299 124.02C33.0759 124.2 32.82 124.37 32.564 124.55C32.62 124.49 32.6749 124.44 32.7309 124.38ZM33.181 124.45L35.1529 123.1C36.4679 122.19 37.7829 121.29 39.0989 120.39C41.7449 118.58 44.3739 116.75 47.0139 114.93C47.8949 114.33 48.7819 113.73 49.6689 113.13C49.3169 113.54 48.958 113.94 48.585 114.32C47.447 115.5 46.2139 116.58 44.9229 117.59C42.1599 119.75 39.136 121.54 36.046 123.19C35.141 123.67 34.2299 124.14 33.3159 124.6C32.8409 124.84 32.3609 125.08 31.8849 125.33C32.3259 125.05 32.752 124.74 33.181 124.45ZM33.267 125.05C34.092 124.65 34.9149 124.24 35.7319 123.82C37.3399 122.99 38.9299 122.12 40.4799 121.18C43.3579 119.44 46.0969 117.45 48.4819 115.07C49.1289 114.43 49.751 113.76 50.335 113.06C50.451 112.92 50.5639 112.78 50.6779 112.63C50.1019 113.89 49.4619 115.09 48.6729 116.23C47.7599 117.55 46.6949 118.77 45.5139 119.86C43.0249 122.14 40.0449 123.83 36.8149 124.82C35.1819 125.32 33.5209 125.59 31.8309 125.76C32.3139 125.53 32.79 125.29 33.267 125.05ZM57.9569 97.54C56.6429 98.53 55.3049 99.49 53.9089 100.37C52.2369 101.42 50.5169 102.39 48.7579 103.29C45.2209 105.09 41.5279 106.56 37.7319 107.72C35.7239 108.33 33.6889 108.86 31.6479 109.34C33.2179 108.74 34.7679 108.07 36.3149 107.41C38.1189 106.64 39.9179 105.85 41.7119 105.06C45.3409 103.45 48.9539 101.8 52.5449 100.11C54.3499 99.26 56.1599 98.41 57.9569 97.54ZM57.5569 98.43C56.4709 99.55 55.3259 100.6 54.0859 101.56C52.4889 102.79 50.7929 103.9 49.0189 104.86C45.4869 106.77 41.6679 108.12 37.7159 108.83C36.6159 109.03 35.5059 109.18 34.3929 109.29C33.8299 109.34 33.266 109.38 32.702 109.41C32.451 109.43 32.1969 109.44 31.9449 109.45C35.6509 108.83 39.275 107.73 42.775 106.37C46.488 104.93 50.0699 103.15 53.4699 101.08C54.8539 100.23 56.2249 99.35 57.5569 98.43ZM35.2269 105.56C37.0279 104.35 38.8959 103.25 40.8229 102.26C44.6739 100.28 48.7649 98.74 52.9959 97.81C53.4259 97.71 53.8589 97.63 54.2919 97.54C51.8119 98.18 49.3689 98.95 46.9809 99.88C43.2729 101.31 39.6879 103.07 36.3119 105.17C34.7949 106.11 33.3149 107.11 31.9029 108.21C32.8289 107.14 34.0799 106.33 35.2269 105.56ZM31.4249 108.83C34.4909 106.65 37.6379 104.6 41.0009 102.89C44.5089 101.1 48.1799 99.64 51.9589 98.54C53.8379 97.99 55.7449 97.5499 57.6689 97.1899C56.1239 97.9499 54.5829 98.7199 53.0289 99.4599C51.2589 100.31 49.4829 101.14 47.7029 101.97C44.0989 103.63 40.4679 105.24 36.8209 106.81C34.9389 107.62 33.0349 108.39 31.1669 109.23C31.2439 109.1 31.3349 108.96 31.4249 108.83ZM58.0929 98.76C57.8209 99.18 57.5359 99.58 57.2399 99.98C56.6549 100.76 56.0249 101.51 55.3549 102.22C52.6189 105.13 49.191 107.39 45.434 108.74C41.183 110.26 36.6669 110.57 32.2189 109.87C31.9929 109.83 31.7679 109.79 31.5419 109.75C31.8669 109.77 32.1939 109.76 32.5189 109.75C33.0339 109.75 33.5479 109.72 34.0619 109.68C35.0749 109.6 36.0849 109.49 37.0869 109.32C39.0849 108.99 41.044 108.49 42.965 107.85C46.823 106.57 50.4799 104.67 53.7429 102.25C55.4419 100.99 57.07 99.5899 58.546 98.0699C58.41 98.3299 58.2119 98.58 58.0929 98.76Z" fill="#4D4C51"/>
</svg>
