<svg width="93" height="90" viewBox="0 0 93 90" fill="none" xmlns="http://www.w3.org/2000/svg">
<path d="M55.4689 31.8206C55.5009 31.8806 55.5299 31.9305 55.5599 31.9905C55.7789 32.0105 56.0429 32.1206 56.2079 32.0406C56.8769 31.7006 57.5049 31.2806 58.1689 30.9306C58.9139 30.5506 59.6789 30.1906 60.4419 29.8406C61.2979 29.4406 62.1799 29.1106 63.0169 28.6806C64.0319 28.1706 65.0069 27.5806 66.0089 27.0306C66.4279 26.8006 66.9559 26.7006 67.2799 26.3806C69.8709 23.8406 72.3839 21.2206 75.0069 18.7106C75.9879 17.7706 76.5819 16.6306 77.2279 15.5106C77.4139 15.1806 77.4799 14.5906 77.3089 14.2906C77.0009 13.7506 76.4709 13.3306 76.0399 12.8706C75.4119 13.5106 74.8139 14.1207 74.2159 14.7307C74.1599 14.6707 74.1069 14.6206 74.0529 14.5606C74.1639 14.4106 74.2519 14.2207 74.3949 14.1007C75.7789 12.9307 76.5219 11.5406 76.1989 9.65058C76.1209 9.20058 76.0159 8.9806 75.6279 8.8006C74.7939 8.4106 73.9319 8.06061 73.1629 7.56061C72.6879 7.25061 72.2589 6.77057 72.0029 6.26057C71.6649 5.59057 71.2039 5.14057 70.5009 5.26057C69.7619 5.38057 69.0359 5.67055 68.3489 5.99055C67.2049 6.51055 65.3989 6.22062 64.5149 5.32062C64.2169 5.01062 63.9199 4.63055 63.5449 4.49055C62.9969 4.27055 62.7899 4.86061 62.4879 5.18061C62.4219 5.25061 62.3109 5.27063 62.2439 5.33063C61.6869 5.89063 61.0929 6.42058 60.5989 7.03058C60.1599 7.57058 59.8729 8.2406 59.4479 8.8006C58.5089 10.0306 57.4479 11.1806 56.5719 12.4506C54.8049 15.0306 53.1539 17.6706 51.4039 20.2606C50.9409 20.9406 50.6809 21.6506 50.4619 22.4306C50.0989 23.7206 49.5839 24.9806 49.1849 26.2706C48.8849 27.2406 48.6639 28.2406 48.3619 29.4006C50.7009 26.8906 52.2419 23.9806 54.4849 21.6206C52.8089 24.8306 50.8639 27.8606 48.4539 30.5706C48.8769 30.9106 49.2299 31.2006 49.5759 31.4706C49.8399 31.3906 50.1289 31.1806 50.3789 31.2206C51.0479 31.3306 51.4179 30.9306 51.7989 30.5306C52.8799 29.3806 53.9449 28.2206 55.0299 27.0706C55.2339 26.8606 55.5069 26.7106 55.7469 26.5306C55.8029 26.6006 55.8579 26.6705 55.9159 26.7405C55.2359 27.5205 54.5549 28.3006 53.8809 29.0806C53.1939 29.8806 52.5149 30.7006 51.8149 31.5206C52.1149 31.7606 52.4029 31.9406 52.6339 32.1806C53.4089 32.9906 54.0759 33.0206 54.9109 32.2706C55.0869 32.1106 55.2819 31.9706 55.4689 31.8206ZM74.7739 68.3206C74.8599 68.2406 74.9469 68.1506 75.0339 68.0706C75.2149 68.2106 75.4159 68.3207 75.5789 68.4807C76.3299 69.2107 77.0629 69.9506 77.8199 70.6606C78.0029 70.8406 78.2349 71.0206 78.4709 71.0706C79.0399 71.1806 79.6219 71.2106 80.1979 71.2706C80.9769 71.3606 81.4669 70.9306 81.4339 70.1506C81.4179 69.8106 81.3839 69.4506 81.2509 69.1506C80.6309 67.7606 79.9949 66.3706 79.3179 65.0006C79.0239 64.4106 78.6899 63.8106 78.2369 63.3406C77.2399 62.3206 76.1509 61.3806 75.1099 60.4006C74.9229 60.2206 74.7899 59.9906 74.6309 59.7806C74.6909 59.7206 74.7519 59.6706 74.8119 59.6206C76.1229 60.8106 77.4359 62.0006 78.7479 63.1906C79.1109 62.6406 79.6709 62.1406 79.7809 61.5506C80.0629 60.0506 79.7609 58.6906 78.6119 57.5006C75.6299 54.4206 72.4609 51.5406 68.8059 49.3206C64.9159 46.9606 60.8469 44.8806 56.8499 42.6906C56.6369 42.5806 56.3629 42.5706 56.1599 42.5306C55.8009 43.1806 55.9749 43.6106 56.4979 43.9606C56.7799 44.1406 57.0619 44.3306 57.3239 44.5406C58.2479 45.2906 59.1659 46.0306 60.0759 46.7906C60.1659 46.8706 60.1869 47.0206 60.2409 47.1406C60.2069 47.1806 60.1729 47.2106 60.1399 47.2506C58.4409 46.1306 56.7419 45.0106 55.1529 43.9606C54.8869 44.6206 54.6379 45.2506 54.3169 46.0506C56.0589 48.1506 57.9239 50.4006 59.7999 52.6506C60.4829 53.4706 61.2009 54.2606 61.8859 55.0806C62.0129 55.2306 62.0589 55.4506 62.1419 55.6406C62.0729 55.6806 62.0049 55.7206 61.9379 55.7606C59.2279 52.7206 56.5179 49.6806 53.8599 46.7006C53.3809 47.3506 52.9759 47.9006 52.4969 48.5406C53.6489 50.1906 54.8469 51.9606 56.0909 53.6906C57.5089 55.6506 58.9729 57.5906 60.4059 59.5406C60.5209 59.7006 60.5529 59.9207 60.6219 60.1007C60.5449 60.1507 60.4679 60.1907 60.3899 60.2307C57.3009 56.6307 54.6699 52.6706 51.9049 49.0206C51.2729 49.6306 50.7209 50.1606 50.1679 50.6906C50.3789 51.1606 50.6269 51.7406 50.8949 52.3006C51.4139 53.4006 51.8689 54.5406 52.4829 55.5806C53.6489 57.5606 54.8589 59.5306 56.1399 61.4406C57.3149 63.1906 58.4669 64.9806 59.8789 66.5306C61.8069 68.6406 63.9619 70.5306 66.0399 72.5006C66.6379 73.0606 67.3119 73.5506 67.9559 74.0606C68.2749 74.3206 68.5299 74.2806 68.8179 73.9406C69.2069 73.4906 69.6719 73.1006 70.0889 72.7006C68.8909 71.1206 67.6989 69.4407 66.3899 67.8507C65.0889 66.2807 63.7729 64.7106 62.5989 63.0306C62.8639 63.0506 63.0239 63.1706 63.1479 63.3206C65.4419 66.1106 67.7429 68.9006 70.0179 71.7106C70.6539 72.5006 71.4029 73.0906 72.3049 73.5106C73.5479 71.9706 74.1519 72.1406 75.1769 73.2006C75.7039 73.7506 76.4009 74.1406 77.0429 74.5706C77.3829 74.8006 77.6829 74.7806 77.9609 74.3806C78.4569 73.6806 78.2829 72.0105 77.6429 71.3605C76.6669 70.3605 75.7279 69.3406 74.7739 68.3206ZM42.3839 31.8507C42.0799 32.1307 41.7759 32.6306 41.4759 32.6306C41.1539 32.6306 40.7289 32.2106 40.5329 31.8706C37.9659 27.3906 34.6819 23.4806 31.0159 19.8806C28.5899 17.5006 26.2299 15.0606 24.2169 12.3106C23.0769 10.7506 21.5529 9.64059 19.9179 8.66059C19.0119 8.12059 18.5409 8.34056 18.3109 9.38056C18.2289 9.76056 18.2389 10.1506 18.1859 10.5406C18.0779 11.3006 17.7659 11.5706 17.0079 11.4706C15.8059 11.3106 14.6079 11.1306 13.4159 10.9206C12.3299 10.7206 11.9529 10.8606 11.5609 11.9006C11.3259 12.5306 11.1829 13.2006 11.1059 13.8706C10.9399 15.2906 10.8079 16.7206 10.0119 18.0006C12.0499 20.2106 14.8849 21.4706 16.8289 23.7506C16.7869 23.8106 16.7429 23.8706 16.7019 23.9306C16.1449 23.5106 15.5979 23.0806 15.0329 22.6706C13.2209 21.3706 11.4109 20.0706 9.58291 18.8006C8.97691 18.3706 7.82692 18.6307 7.35192 19.2307C6.92192 19.7707 6.9849 20.9006 7.5209 21.3806C7.6999 21.5406 7.99292 21.6206 8.24392 21.6506C9.88892 21.8706 10.5629 22.4005 10.8619 23.9905C11.1779 25.6805 12.3279 26.5706 13.7459 27.2006C15.2079 27.8506 16.7449 28.3205 18.1959 28.9905C19.8209 29.7405 21.4279 30.5606 22.9679 31.4706C25.6619 33.0606 28.3059 34.7406 30.9539 36.4106C31.7909 36.9406 32.6529 37.3206 33.6429 37.4406C34.5349 37.5406 35.1819 38.0206 35.6189 38.9606C35.2989 38.9006 35.0989 38.8706 34.8759 38.8306C34.7589 39.5106 34.3439 39.5806 33.8149 39.3106C33.2769 39.0306 32.7639 38.7106 32.2279 38.4206C31.0919 37.8306 29.9569 37.2406 28.8049 36.6806C27.4759 36.0406 26.1599 35.3506 24.7839 34.8306C20.9749 33.3906 17.0369 32.4606 12.9769 32.0906C11.8189 31.9806 10.6569 31.9006 9.49792 31.8006C8.87592 31.7506 8.3959 31.9306 7.9519 32.4106C6.6719 33.7906 5.0649 34.6706 3.0559 35.3006C3.8889 35.5006 4.51191 35.6506 5.13491 35.8006C5.13291 35.8606 5.1309 35.9205 5.1289 35.9905C4.9379 36.0105 4.7429 36.0806 4.5559 36.0606C3.5529 35.9706 2.55392 35.8306 1.54992 35.7706C1.38692 35.7606 1.03492 36.1206 1.06192 36.2506C1.16492 36.7706 1.29291 37.3205 1.57891 37.7405C2.31391 38.8305 2.42991 39.9806 2.18191 41.2206C2.08191 41.7206 1.9459 42.2206 1.8879 42.7206C1.8659 42.9206 1.9559 43.1906 2.0979 43.3206C2.2069 43.4206 2.48091 43.3706 2.67291 43.3406C3.21491 43.2406 3.76491 42.9906 4.28891 43.0406C5.94791 43.2006 7.5949 43.4906 9.2489 43.7006C9.8969 43.7906 10.5509 43.8405 11.2039 43.8605C13.8939 43.9505 16.5839 44.0107 19.2719 44.1007C19.4689 44.1007 19.6639 44.1706 19.8469 44.3306C14.2749 44.9306 8.7389 44.0006 3.2759 43.8406C3.4179 44.9306 3.49692 45.8606 3.67892 46.7606C3.73492 47.0406 4.0229 47.4006 4.2879 47.5006C6.0009 48.1406 7.67191 48.9706 9.59991 48.7506C11.0189 48.5906 12.4439 48.4606 13.8689 48.3706C14.8029 48.3206 15.7439 48.3806 16.6819 48.3906C16.6899 48.4806 16.6959 48.5806 16.7019 48.6706C15.1339 48.7906 13.5629 48.8806 11.9989 49.0306C10.3859 49.1906 8.77991 49.4007 7.10391 49.6007C7.04791 49.7807 6.95391 50.0306 6.88891 50.2806C6.58791 51.4706 6.88091 51.9006 8.07791 52.0206C8.84991 52.1006 9.62391 52.1806 10.3979 52.2006C10.6469 52.2106 10.8999 52.0406 11.1519 51.9506C11.3059 51.9006 11.4599 51.8006 11.6139 51.8006C15.5669 51.8206 19.5209 51.8305 23.4719 51.8605C25.1409 51.8805 26.6129 51.4205 27.8469 50.2405C28.4209 49.7005 29.0609 49.2206 29.6349 48.5206C27.2409 48.6606 24.8449 48.8206 22.4509 48.9606C22.4289 48.8706 22.4089 48.7806 22.3879 48.6906C22.6239 48.6006 22.8579 48.4506 23.0989 48.4406C25.4209 48.2906 27.7439 48.1806 30.0639 48.0206C30.4499 48.0006 30.9069 47.8906 31.1849 47.6506C32.7349 46.3206 34.5959 45.6606 36.4879 45.0606C37.0679 44.8706 37.6539 45.1806 37.8699 45.7606C37.9279 45.9106 37.9949 46.0706 38.0669 46.2506C38.5989 46.0506 39.1019 45.8706 39.5969 45.6906C40.0139 46.0806 40.4109 46.5806 40.9279 46.8706C41.4329 47.1606 42.0599 47.2306 42.6499 47.4006C42.1119 48.2906 40.5129 47.9406 39.2649 46.7206C39.0679 46.8206 38.8599 46.9306 38.6069 47.0706C38.8599 47.3906 39.0779 47.6806 39.3229 48.0006C38.4519 48.2506 37.7969 47.6707 37.1149 46.2307C35.7249 47.5507 34.3159 48.8906 32.9009 50.2206C31.5129 51.5306 30.5369 53.2506 28.8819 54.3006C30.8229 51.4706 33.1719 49.0006 35.8279 46.8206C35.7759 46.7306 35.7229 46.6506 35.6709 46.5606C35.0809 46.7806 34.4409 46.9107 33.9089 47.2307C32.7389 47.9107 31.5679 48.6206 30.4939 49.4506C28.4529 51.0006 26.3289 52.5006 24.5189 54.3006C22.4829 56.3306 20.7509 58.6706 18.8989 60.8806C18.3679 61.5106 17.8979 62.1906 17.3709 62.8306C15.8599 64.6506 15.1079 66.7605 14.9849 69.1105C14.9659 69.4505 15.1329 69.8106 15.2399 70.2806C15.6299 70.0306 15.8679 69.8906 16.2879 69.6206C16.0899 70.0306 15.9729 70.2705 15.8629 70.4905C16.2509 70.8505 16.6339 71.2106 17.1269 71.6706C18.1059 70.3106 19.0879 68.9506 20.0669 67.5906C20.1429 67.6406 20.2179 67.6807 20.2939 67.7307C20.2679 67.8507 20.2739 67.9906 20.2119 68.0906C19.5269 69.1506 18.9579 70.3206 18.0959 71.2206C17.4029 71.9406 17.1109 72.6306 17.0949 73.5706C17.0869 74.0806 16.8859 74.5906 16.7289 75.2906C17.2759 75.1306 17.6589 75.0406 18.0329 74.9106C19.2819 74.5006 19.6939 74.7006 20.1129 75.9306C20.1429 76.0106 20.1879 76.0906 20.2919 76.3206C22.3919 73.5006 24.4219 70.7806 26.4539 68.0506C26.5239 68.0906 26.5919 68.1306 26.6609 68.1706C26.4799 68.5506 26.3469 68.9506 26.1109 69.2906C24.6719 71.3306 23.2059 73.3606 21.7599 75.3906C21.3109 76.0306 20.8879 76.6806 20.4599 77.3306C20.1679 77.7706 20.1939 78.1406 20.7979 78.2006C21.2129 78.2506 21.6719 78.2506 22.0599 78.1206C23.0669 77.7806 24.0509 77.3606 25.0339 76.9506C25.2409 76.8606 25.4229 76.6705 25.5659 76.4905C26.4329 75.3805 27.2789 74.2606 28.1409 73.1506C28.3039 72.9406 28.5109 72.7606 28.7809 72.6406C28.3319 74.3206 27.1679 75.5507 26.2799 76.7307C26.6789 77.5807 27.0249 78.3206 27.4379 79.2006C27.8709 78.7106 28.3299 78.2706 28.6989 77.7706C30.9639 74.6606 32.5619 71.1506 34.4809 67.8406C35.6649 65.8006 35.6669 63.5506 36.2969 61.4206C34.8229 63.3706 33.6429 65.5206 32.1639 67.4606C32.0749 67.4006 31.9859 67.3506 31.8959 67.3006C31.9919 67.1106 32.0729 66.9107 32.1799 66.7307C33.7619 64.0607 35.3769 61.4106 36.9089 58.7106C37.2439 58.1206 37.3239 57.3806 37.4649 56.6906C37.6579 55.7406 37.8109 54.7806 37.9579 53.8206C38.2059 52.1806 38.8659 50.7307 39.9659 49.4807C40.1489 49.2707 40.2349 48.9706 40.4149 48.6206C40.7809 48.9306 41.1049 49.2106 41.4919 49.5506C41.5949 49.2206 41.6629 49.0106 41.7979 48.5906C41.9869 49.0106 42.0959 49.2606 42.2109 49.5106C42.8269 49.5306 43.6259 49.1106 43.8619 50.1406C43.8699 50.1706 43.8759 50.2005 43.8779 50.2405C43.7409 51.4705 43.6039 52.7006 43.4669 53.9406C43.4229 53.9406 43.3819 53.9406 43.3399 53.9406C43.3059 52.7606 43.2739 51.5706 43.2399 50.3906C41.8889 50.5006 41.8739 50.5006 41.5679 51.7606C41.2519 53.0606 40.9759 54.3606 40.6739 55.6606C40.6059 55.9506 40.5049 56.2406 40.2999 56.5006C40.1209 55.4506 40.4689 54.4606 40.6909 53.4606C40.9179 52.4406 41.1499 51.4306 41.3829 50.4006C41.1169 50.2406 40.8919 50.1106 40.5499 49.9106C40.3909 50.2206 40.2399 50.5006 40.1109 50.7806C40.0099 51.0006 39.9839 51.2706 39.8469 51.4606C39.0479 52.5706 38.9409 53.9006 38.6689 55.1706C38.2949 56.9306 37.9239 58.6806 37.5639 60.4406C36.8789 63.8106 36.1989 67.1906 35.5219 70.5706C35.3309 71.5206 35.1459 72.4706 34.9779 73.4306C34.9279 73.7106 34.9439 73.9906 34.9199 74.4706C35.4109 74.2606 35.8459 74.1906 36.1059 73.9306C36.4759 73.5806 36.7899 73.4106 37.3579 73.8406C37.7609 71.8006 38.1419 69.8806 38.5239 67.9606C38.5929 67.9606 38.6649 67.9606 38.7349 67.9706C38.7459 68.2106 38.7999 68.4606 38.7659 68.6906C38.4779 70.6806 38.4619 72.7106 37.6139 74.5906C37.4709 74.9106 37.4969 75.3006 37.4589 75.6606C37.2839 77.3406 37.0969 79.0306 36.9539 80.7106C36.9269 81.0306 37.0239 81.3806 37.1369 81.6906C37.2779 82.0906 37.5739 82.2606 38.0069 82.0806C40.1429 81.2306 41.4349 82.6406 41.9589 84.4006C42.1399 84.9906 42.2129 85.6306 42.2889 86.2506C42.4299 87.4206 42.8089 87.6206 43.8739 87.0706C44.1759 86.9206 44.5119 86.8105 44.7739 86.6105C44.9809 86.4505 45.1929 86.1906 45.2309 85.9406C45.3169 85.3906 45.2949 84.8206 45.3189 84.2506C45.4199 84.2506 45.5229 84.2405 45.6249 84.2405C45.6559 84.7405 45.6419 85.2505 45.7299 85.7405C45.7989 86.1205 45.9459 86.5006 46.1469 86.8306C46.4109 87.2606 46.7709 87.6306 47.0709 88.0406C47.6169 88.7806 48.6049 88.7406 49.0949 87.9606C49.9599 86.5806 50.1149 84.9906 50.5159 83.4706C50.6569 82.9406 50.9769 82.4606 51.0939 81.9206C51.2269 81.3306 51.2709 80.7107 51.2589 80.1007C51.2469 79.4807 51.1199 78.8606 51.0439 78.2506C51.1199 78.2206 51.1929 78.2006 51.2689 78.1806C51.3779 78.3906 51.5469 78.5906 51.5869 78.8106C51.7119 79.5006 51.7869 80.2006 51.8809 80.9006C51.9029 81.0606 51.8569 81.2806 51.9459 81.3806C52.3199 81.8006 52.7349 82.1906 53.2379 82.7006C53.4029 82.4506 53.6629 82.1906 53.7539 81.8906C54.4929 79.4106 55.0339 76.9006 54.8189 74.2906C54.6499 72.2606 54.5049 70.2306 54.2449 68.2106C53.7439 64.3206 52.8249 60.5307 51.4519 56.8507C51.0029 55.6507 50.6269 54.4206 50.1979 53.2106C50.0109 52.6806 49.7469 52.1906 49.5719 51.6606C49.4669 51.3406 49.4649 50.9906 49.4009 50.5506C49.2289 50.4606 48.8509 50.3207 48.5149 50.1007C48.3899 50.0207 48.2549 49.7206 48.3089 49.6406C48.4039 49.4906 48.6799 49.3107 48.8069 49.3507C50.0049 49.7607 50.6289 49.1206 51.1239 48.1706C51.1989 48.0206 51.4099 47.9105 51.5809 47.8605C52.3849 47.6505 52.7769 47.1707 52.7729 46.3507C52.7709 46.2507 52.7449 46.1606 52.7529 46.0606C52.8299 45.1406 53.1479 44.9807 53.9709 45.4807C54.3229 44.8907 54.4519 44.3306 53.9349 43.7606C53.8619 43.6706 53.8319 43.4206 53.8759 43.3906C54.0209 43.3006 54.2249 43.2007 54.3759 43.2307C54.9839 43.3607 55.2279 43.0106 55.2149 42.5306C55.2029 42.0706 55.0079 41.6206 54.9049 41.1606C54.8709 41.0106 54.8109 40.7806 54.8829 40.7106C55.0039 40.6006 55.2189 40.5606 55.3949 40.5606C55.7949 40.5506 56.1939 40.6007 56.5949 40.6007C56.9589 40.6007 57.3249 40.5206 57.6839 40.5506C62.4129 40.9206 67.0769 40.4306 71.7219 39.5906C72.1749 39.5106 72.6479 39.5506 73.1149 39.6306C70.1909 40.3506 67.2799 41.0706 64.2379 41.0206C62.6009 41.0006 60.9599 41.1605 59.3209 41.2405C59.3169 41.3105 59.3109 41.3906 59.3069 41.4606C60.2549 41.6006 61.2029 41.7406 62.1499 41.8906C62.9389 42.0106 63.7259 42.1506 64.5179 42.2506C65.0189 42.3106 65.5279 42.3106 66.0319 42.3206C66.1539 42.3206 66.2769 42.2906 66.3939 42.3006C69.0639 42.6106 71.7459 42.4306 74.4219 42.5206C75.1179 42.5406 75.8529 42.6105 76.4949 42.8605C78.1059 43.4805 79.6769 43.1706 81.2889 42.9206C83.2219 42.6106 84.8349 41.5106 86.6309 40.8706C87.7279 40.4806 87.6159 39.3307 87.5389 38.3507C87.5249 38.1807 87.4609 38.0206 87.4399 37.9306C85.7889 38.0706 84.1629 38.2106 82.5379 38.3406C82.5239 38.3206 82.5079 38.2906 82.4949 38.2706C82.6479 38.2006 82.7969 38.1006 82.9549 38.0706C83.7459 37.9606 84.5669 37.9605 85.3259 37.7405C86.2749 37.4705 87.3519 37.4806 88.0399 36.5006C88.3489 36.0606 88.9789 35.8506 89.4439 35.5106C90.1019 35.0306 90.7809 34.5706 91.3709 34.0206C91.6789 33.7306 91.8419 33.2706 91.4569 32.8406C91.0849 32.4306 90.8229 32.1206 90.0879 32.3306C88.2819 32.8106 86.4159 33.0906 84.5749 33.4506C84.5489 33.3306 84.5209 33.2106 84.4929 33.0806C86.5319 32.6306 88.5719 32.1906 90.3599 31.8006C90.7179 30.9806 90.9819 30.4006 91.2279 29.8106C91.4689 29.2406 91.8819 28.6306 91.4769 28.0206C91.0379 27.3606 90.2309 27.1006 89.5399 27.2806C88.0769 27.6406 86.6999 27.1207 85.2839 27.1007C85.0709 27.1007 84.8489 27.0705 84.6459 27.1105C83.0849 27.4505 81.5329 27.8106 79.9689 28.1306C77.4999 28.6306 75.0239 29.1106 72.5509 29.5906C72.0069 29.7006 71.4619 29.8006 70.8999 29.8106C75.2029 28.1406 79.7849 27.6706 84.0599 26.8106C84.1629 25.9506 84.1929 25.2506 84.3419 24.5706C84.5069 23.8206 84.3179 23.6306 83.6049 23.4006C82.2979 23.0006 81.2109 23.4506 80.0429 23.9406C78.7059 24.5006 77.2889 24.8606 75.8989 25.2906C75.0419 25.5606 74.1089 25.6606 73.3259 26.0606C71.7519 26.8706 70.0359 26.8906 68.3709 27.0606C67.0869 27.1906 65.9369 27.5706 64.8899 28.2106C63.2669 29.1906 61.6039 30.0406 59.8199 30.7206C58.7789 31.1106 57.8909 31.9006 56.9269 32.5006C56.4639 32.7906 55.9849 33.0606 55.5439 33.4006C59.2809 31.9906 63.2169 31.5205 67.0519 30.6105C67.0749 30.7005 67.0969 30.7906 67.1209 30.8806C66.5309 31.0406 65.9449 31.2306 65.3509 31.3706C63.8669 31.7406 62.3789 32.0906 60.8889 32.4306C60.2269 32.5806 59.5259 32.6006 58.8939 32.8206C57.7139 33.2406 56.5719 33.7506 55.4209 34.2506C55.3299 34.2906 55.3279 34.5007 55.2499 34.6007C55.0659 34.8507 54.9009 35.2206 54.6519 35.3006C54.4359 35.3606 54.0229 35.1606 53.8759 34.9506C53.7539 34.7706 53.8949 34.4206 53.9269 34.0806C53.8769 34.0906 53.7579 34.0905 53.6429 34.1105C53.4109 34.1605 53.1799 34.2106 52.9499 34.2606C53.0189 34.0406 53.0889 33.8106 53.1559 33.5906C52.7249 33.3006 52.2579 33.0006 51.7139 32.6406C51.1829 33.0006 50.1269 32.5106 49.7909 33.8706C49.5009 33.4506 49.2799 33.2506 49.2069 33.0006C48.9149 32.0306 48.4299 31.6706 47.4479 31.7706C46.2959 31.8906 45.7219 31.4106 45.7799 30.3406C45.8889 28.3106 46.0199 26.2806 46.1469 24.2506C46.1509 24.1606 46.2009 24.0806 46.2879 23.8306C47.1109 26.3106 46.5249 28.6806 46.6399 31.0306C47.3789 30.9306 47.4319 30.3506 47.5799 29.8706C48.1849 27.8706 48.8469 25.8807 49.3559 23.8507C49.8169 22.0207 50.1089 20.1506 50.4699 18.3006C50.8139 16.5406 51.0899 14.7706 51.5069 13.0306C52.0479 10.7706 52.3459 8.50062 52.1049 6.19062C52.0319 5.49062 51.7019 4.80057 51.4139 4.14057C51.2069 3.66057 50.7899 3.44055 50.2259 3.49055C48.7909 3.62055 47.5559 3.34064 46.7289 1.96064C46.4149 1.44064 45.8249 1.07065 45.3189 0.600653C43.9679 2.37065 42.2969 2.73063 40.3579 2.33063C40.1309 2.29063 39.7639 2.45057 39.6049 2.64057C39.0899 3.24057 38.6489 3.9106 38.1699 4.5506C37.7509 5.1006 37.3079 5.64063 36.9009 6.20063C36.7969 6.34063 36.7039 6.57065 36.7419 6.72065C36.9859 7.76065 37.2899 8.78061 37.5289 9.81061C37.6839 10.4906 37.7549 11.1906 37.8639 11.8706C37.7349 11.9006 37.6059 11.9206 37.4769 11.9406C37.0019 9.88062 36.5289 7.82056 36.0229 5.63056C36.1699 5.62056 36.4459 5.61063 36.8729 5.58063C37.0079 5.35063 37.2109 4.97054 37.4409 4.61054C37.9099 3.88054 38.3509 3.12061 38.8799 2.43061C39.3719 1.79061 39.9539 1.51055 40.8919 1.74055C42.2889 2.08055 43.6119 1.64063 44.5199 0.450629C44.9449 -0.109371 45.3089 -0.129405 45.7739 0.290595C46.2879 0.760595 46.8919 1.18057 47.2539 1.76057C47.8889 2.76057 48.7869 2.86055 49.7889 2.74055C51.6399 2.52055 52.2029 2.88056 52.8109 4.63056C53.2359 5.85056 53.4189 7.08064 53.1659 8.34064C52.7949 10.1906 52.3849 12.0306 52.0139 13.8806C51.6679 15.6006 51.3539 17.3206 51.1539 19.0406C51.7739 18.1006 52.4689 17.1906 53.0009 16.2106C54.5929 13.2606 56.5829 10.6206 58.8799 8.19062C59.4439 7.59062 59.8539 6.86056 60.4039 6.25056C61.0949 5.48056 61.8339 4.76062 62.5969 4.07062C63.1989 3.52062 64.2109 3.66057 64.5959 4.39057C65.2359 5.59057 66.8249 5.90059 68.2179 5.29059C69.2589 4.83059 70.2479 4.24056 71.4379 4.75056C71.6409 4.89056 71.8459 5.02058 72.0479 5.15058C72.8649 6.91058 74.6109 7.41058 76.1589 8.15058C77.2039 8.66058 77.6709 9.61063 77.2889 10.7006C77.1699 11.0406 77.0609 11.3906 77.0229 11.7506C77.0029 11.9306 77.0949 12.2106 77.2339 12.3206C78.2829 13.0806 78.4929 14.2306 78.2109 15.3006C77.8569 16.6306 77.5259 18.0506 76.4749 19.0806C75.6099 19.9306 74.6809 20.7106 73.7909 21.5206C72.1709 23.0106 70.5599 24.5106 68.9449 26.0006C68.9689 26.0706 68.9929 26.1406 69.0159 26.2106C69.9739 25.9706 70.9459 25.7805 71.8869 25.4905C73.6219 24.9505 75.3299 24.3306 77.0649 23.7906C78.5009 23.3506 79.9399 22.8605 81.4139 22.6105C82.3319 22.4605 83.3329 22.6506 84.2689 22.8306C84.9419 22.9606 85.2199 23.7406 85.0459 24.5606C85.0359 24.6106 85.0119 24.6506 84.9979 24.7006C84.6119 26.0206 84.8109 26.2906 86.1599 26.4206C87.2889 26.5306 88.3849 26.6906 89.5469 26.5106C90.2169 26.4006 91.0179 26.7506 91.6769 27.0706C92.3689 27.4106 92.5889 28.2906 92.3189 29.1206C92.1639 29.6106 91.9929 30.1106 91.7089 30.5206C91.2819 31.1306 91.4749 31.6007 91.8499 32.1007C92.7159 33.2507 92.5689 34.3907 91.3889 35.2307C90.7609 35.6807 90.0859 36.0606 89.4039 36.4206C88.4469 36.9306 88.2459 37.3307 88.2759 38.3507C88.2959 39.0607 88.2279 39.7906 88.0399 40.4706C87.8169 41.2606 87.1689 41.6807 86.3889 41.9807C85.3279 42.3807 84.3459 43.0306 83.2609 43.3306C81.2729 43.8706 79.2979 44.5806 77.1379 44.0506C75.8329 43.7306 74.4639 43.6006 73.1189 43.5606C71.3309 43.4906 69.5389 43.6305 67.7489 43.6105C66.7199 43.5905 65.6829 43.4906 64.6619 43.3406C62.6729 43.0506 60.6899 42.7006 58.7029 42.3806C58.4749 42.3406 58.2319 42.3806 57.9519 42.5206C58.9949 43.0406 60.0239 43.5906 61.0809 44.0906C65.0929 45.9606 69.0049 48.0406 72.4849 50.7706C74.9369 52.7006 77.1419 54.9406 79.4129 57.0806C79.8919 57.5406 80.2139 58.1806 80.5319 58.7806C81.0719 59.7906 80.7279 62.0306 79.9279 62.8406C79.3829 63.3906 79.4709 63.9206 79.7909 64.5506C80.5319 66.0206 81.2589 67.5006 81.8989 69.0206C82.1009 69.5006 82.1409 70.1406 82.0219 70.6506C81.7709 71.7306 81.0719 72.1106 79.9339 71.9506C78.9879 71.8206 78.8689 71.9306 78.9919 72.8906C79.0889 73.6406 79.0539 74.3106 78.5349 74.9406C78.0419 75.5406 77.4939 75.6806 76.8799 75.3106C76.0769 74.8306 75.2869 74.3006 74.5709 73.6906C73.8259 73.0606 73.4689 73.0806 73.0319 73.9406C72.7599 74.4806 72.3439 74.5705 71.7659 74.2405C70.3649 73.4205 70.3649 73.4206 69.3419 74.6506C68.8339 75.2606 68.2119 75.4006 67.5459 74.9206C66.7059 74.3106 65.9109 73.6206 65.1479 72.9206C63.4619 71.3506 61.8439 69.7106 60.1319 68.1706C58.1149 66.3606 56.6969 64.1006 55.2419 61.8706C54.6109 60.8906 54.0129 59.9006 53.3189 58.9406C53.6389 60.1806 53.9529 61.4306 54.2829 62.6806C54.9109 65.0506 55.4089 67.4506 55.4149 69.9206C55.4149 70.5306 55.4729 71.1407 55.5859 71.7307C56.2219 75.0607 55.8559 78.3106 54.9479 81.5206C54.8109 82.0106 54.6209 82.5006 54.3479 82.9206C53.6869 83.9306 52.6359 83.8606 52.0459 82.8106C51.9879 82.7106 51.9249 82.6107 51.7719 82.3507C51.5949 82.8207 51.4319 83.1506 51.3399 83.5106C50.9109 85.1906 50.7269 86.9506 49.7749 88.4706C48.9699 89.7606 47.1379 89.8106 46.2559 88.5506C46.1309 88.3706 45.9839 88.2106 45.8729 88.0206C45.5109 87.4206 45.0539 87.4406 44.5359 87.8006C44.4759 87.8406 44.4189 87.8906 44.3529 87.9206C42.5009 88.7106 41.5869 88.5006 41.2859 86.3106C41.1579 85.3906 40.8819 84.4706 40.5129 83.6206C40.1589 82.8106 39.3979 82.5406 38.5719 82.9206C37.0179 83.6206 35.9869 82.4106 36.0029 81.0706C36.0169 79.8706 36.2269 78.6706 36.3499 77.4706C36.4359 76.6306 36.5189 75.8006 36.6169 74.8306C36.1819 74.9906 35.8989 75.1106 35.6089 75.2106C34.6539 75.5206 33.9899 75.1107 33.9859 74.1007C33.9819 73.3307 34.1529 72.5606 34.2819 71.8006C34.4349 70.8906 34.6259 70.0006 34.7129 69.0906C33.6479 71.0706 32.6409 73.0806 31.4969 75.0106C30.6329 76.4606 29.5939 77.8106 28.6259 79.2106C28.5449 79.3306 28.4289 79.4206 28.3199 79.5206C27.3719 80.3506 26.7389 80.1906 26.3069 79.0206C25.8409 77.7406 25.5919 77.6306 24.3209 78.1606C23.7619 78.4006 23.2159 78.6706 22.6719 78.9306C21.9089 79.3106 21.1619 79.3506 20.3549 79.0206C19.7349 78.7706 19.4289 78.3907 19.3839 77.7307C19.3339 77.0407 19.2289 76.3506 19.1369 75.5706C18.4999 75.7406 18.0129 75.8705 17.5239 75.9905C16.3919 76.2605 15.7989 75.6906 16.0109 74.5306C16.1019 74.0306 16.2589 73.5406 16.3179 73.0406C16.4039 72.3106 16.1569 71.7306 15.4719 71.3306C14.4539 70.7506 14.0209 69.9006 14.1329 68.6706C14.3499 66.2706 15.1819 64.1406 16.6339 62.2506C18.4979 59.8306 20.3829 57.4206 22.3079 55.0506C22.9439 54.2606 23.7309 53.6006 24.5019 52.8306C23.0189 52.8306 21.5829 52.8206 20.1489 52.8306C17.7469 52.8606 15.3449 52.9006 12.9429 52.9306C11.2269 52.9606 9.50491 53.0707 7.79391 52.9807C6.12491 52.9007 5.4549 51.7706 5.9389 50.1506C6.2779 49.0206 6.27792 49.0206 5.13092 48.6606C4.80792 48.5606 4.46392 48.5005 4.16192 48.3605C3.30092 47.9405 2.6959 47.3906 2.8309 46.2806C2.9479 45.3006 2.6529 44.4606 1.6249 44.0206C1.1209 43.8106 0.966916 43.3506 1.06192 42.8106C1.18592 42.0906 1.29691 41.3706 1.39791 40.6506C1.51191 39.8406 1.2389 39.1506 0.843898 38.4506C0.472898 37.7906 0.179922 37.0406 0.0369216 36.3006C-0.132078 35.4306 0.285905 34.9406 1.1509 34.7106C2.0169 34.4706 2.89391 34.2705 3.74591 33.9905C5.06091 33.5605 6.20092 32.8206 7.13592 31.8106C7.84092 31.0406 8.67192 30.8306 9.68692 30.8806C14.3669 31.0906 18.9489 31.8307 23.4209 33.2307C23.5279 33.2707 23.6369 33.2806 23.7719 33.2506C21.8449 31.9506 19.8979 30.7106 17.7349 29.8306C15.9659 29.1106 14.2269 28.3105 12.5019 27.4905C11.0499 26.7905 10.3369 25.5406 10.0359 24.0006C9.82691 22.9306 9.37592 22.5406 8.33792 22.4106C7.10592 22.2506 6.4479 21.6006 6.3399 20.4106C6.2369 19.2706 6.86592 18.1806 7.98492 18.0006C9.43092 17.7706 9.9179 16.8806 10.0809 15.6206C10.1779 14.8806 10.1709 14.1106 10.3429 13.3906C10.5409 12.5506 10.8189 11.7206 11.1819 10.9406C11.5439 10.1706 12.2769 9.95064 13.0949 10.0906C14.3349 10.3106 15.5749 10.5306 16.8069 10.8006C17.3429 10.9106 17.5399 10.7807 17.6019 10.2307C17.6649 9.63066 17.8419 9.05065 18.0049 8.47065C18.2109 7.75065 18.7759 7.54061 19.4329 7.68061C19.8959 7.77061 20.3649 7.96063 20.7739 8.20063C22.6139 9.28063 24.1159 10.7206 25.5309 12.3206C28.4809 15.6706 31.5979 18.8706 34.5819 22.1806C35.7309 23.4606 36.7059 24.8906 37.7569 26.2506C37.9759 26.5406 38.1739 26.8306 38.5059 27.0706C38.2259 26.1406 37.9519 25.2106 37.6639 24.2806C37.3879 23.4006 37.0399 22.5406 36.8209 21.6506C35.7699 17.3406 34.7369 13.0206 33.7299 8.70063C33.4939 7.68063 33.3659 6.64054 33.2089 5.61054C33.1679 5.33054 33.1299 5.00056 33.2289 4.75056C33.2989 4.58056 33.6799 4.3606 33.8029 4.4206C34.4689 4.7306 35.0969 5.11065 35.7389 5.47065C35.6989 5.57065 35.6569 5.67058 35.6149 5.77058C35.1659 5.64058 34.7149 5.51065 34.1509 5.35065C34.3239 6.40065 34.4509 7.41059 34.6679 8.41059C34.9939 9.93059 35.3909 11.4306 35.7409 12.9406C36.4439 15.9606 37.1269 18.9806 37.8349 22.0006C38.2059 23.5906 38.5139 25.1907 39.0289 26.7307C39.5229 28.2007 40.2459 29.6006 40.8679 31.0306C40.9559 31.0006 41.0449 30.9806 41.1329 30.9506C41.1399 30.8206 41.1739 30.6906 41.1519 30.5706C40.7529 28.3806 40.3779 26.1906 39.9369 24.0106C39.3759 21.2306 38.7579 18.4606 38.1699 15.6806C38.1369 15.5306 38.1599 15.3606 38.3249 15.1406C38.4189 15.3506 38.5539 15.5506 38.6029 15.7706C39.0329 17.6806 39.4399 19.6006 39.8709 21.5206C40.1009 22.5306 40.3799 23.5406 40.6139 24.5606C40.8739 25.6906 41.0869 26.8306 41.3629 27.9606C41.6809 29.2706 42.0459 30.5806 42.3899 31.8806L42.3839 31.8507Z" fill="#231F20"/>
</svg>
