<svg width="50" height="54" viewBox="0 0 50 54" fill="none" xmlns="http://www.w3.org/2000/svg">
<path d="M39.2337 36.0499C40.1467 35.7199 40.9467 35.4199 41.7517 35.1399C42.0407 35.0299 42.1317 34.8899 42.1267 34.5499C42.1217 34.1799 42.2127 33.7298 42.4297 33.4398C42.9827 32.6998 43.6187 32.0098 44.2437 31.3298C44.8337 30.6798 45.3907 30.0098 45.2367 29.0698C44.8827 26.8998 45.2827 24.7998 45.7267 22.7098C45.7937 22.3898 45.8017 22.2098 45.4617 22.0998C44.5487 21.8198 44.2657 21.1599 44.2537 20.2699C44.2307 18.6399 44.1317 17.0099 44.0887 15.3899C44.0697 14.6299 44.0737 13.8698 44.1307 13.1098C44.2027 12.1598 44.0997 11.9598 43.1297 11.8598C41.9997 11.7598 41.1587 11.2098 40.4717 10.3598C39.7817 9.50984 39.3557 8.55981 39.3047 7.44981C39.2917 7.16981 39.2897 6.92982 38.8797 6.83982C37.5857 6.53982 36.2967 6.23987 35.2687 5.25987C34.5187 4.54987 33.7137 3.91988 33.4297 2.89988C31.5057 3.63988 29.6657 3.39991 27.8757 2.54991C26.6257 1.94991 25.4197 1.22983 23.9457 1.34983C23.7647 1.36983 23.5627 1.29983 23.3907 1.21983C22.9537 1.03983 22.5717 0.979871 22.2037 1.38987C22.0877 1.51987 21.8227 1.54981 21.6187 1.57981C20.6457 1.71981 19.7757 1.37985 18.9177 0.989847C18.7707 0.919847 18.5867 0.839852 18.4417 0.869852C16.9257 1.18985 15.3997 1.46986 13.9067 1.87986C12.8057 2.17986 11.7307 2.2699 10.6217 2.0399C10.4067 1.9899 10.1927 1.92985 9.92272 1.86985C9.89272 2.14985 9.88072 2.37983 9.84472 2.59983C9.69472 3.52983 9.25272 4.32983 8.39672 4.71983C7.18172 5.28983 5.89572 5.69983 4.52772 5.71983C3.42872 5.73983 2.32872 5.70982 1.19472 5.70982C1.34972 5.98982 1.54571 6.30988 1.70171 6.64988C2.32871 8.00988 2.80172 9.4398 2.67672 10.9398C2.49472 13.1398 1.88472 15.2599 1.25272 17.3699C1.00372 18.1999 1.02972 19.0699 1.44872 19.7899C2.01972 20.7699 2.14872 21.7698 2.13372 22.8498C2.11472 24.1898 2.07772 25.5499 2.81872 26.7599C3.26572 27.4999 3.12771 28.1699 2.57871 28.7999C2.29271 29.1299 2.34172 29.4499 2.66372 29.7499C2.94072 30.0099 3.19672 30.2898 3.45272 30.5798C4.07672 31.2598 4.23572 32.0999 3.87972 32.7799C3.34372 33.7999 3.36472 33.9399 4.33472 34.5599C4.92772 34.9399 5.19172 35.4699 5.15272 36.1399C5.12872 36.5599 5.08971 36.9799 5.00171 37.3899C4.89171 37.8899 5.03571 38.3199 5.39971 38.6199C6.19471 39.2699 6.99771 39.9298 7.86771 40.4698C8.52771 40.8798 9.05171 41.3599 9.41071 42.0299C9.61771 42.4099 9.80272 42.8098 9.97172 43.2098C10.1747 43.6998 10.4957 43.9598 11.0537 43.9598C11.5487 43.9698 12.0437 44.0498 12.5377 44.1098C13.3657 44.2098 14.2547 44.1899 14.7467 45.0499C14.9147 45.3499 15.0897 45.6498 15.1877 45.9698C15.2917 46.3098 15.4797 46.5199 15.8227 46.5199C16.7357 46.5099 17.6777 46.6298 18.5527 46.4398C19.8747 46.1598 21.1427 45.6399 22.4457 45.2599C23.7247 44.8999 24.5637 45.3799 24.9487 46.6399C25.1307 47.2299 25.6417 47.5299 26.2597 47.3899C26.6497 47.2999 27.0317 47.1798 27.4187 47.0698C28.2287 46.8498 29.0447 46.4498 29.8517 46.4598C31.4027 46.4998 32.4497 45.7398 33.4317 44.7298C33.8797 44.2698 34.3367 43.7898 34.8677 43.4398C35.3947 43.0798 35.9957 42.7699 36.6087 42.6199C37.5397 42.3899 37.6297 42.2699 37.4317 41.3099C37.1537 39.9699 37.0267 38.6199 37.9767 37.4099C37.4007 37.6199 36.8457 37.8199 36.2977 38.0399C35.7837 38.2399 35.2947 38.5399 34.7627 38.6599C33.4757 38.9499 32.1747 39.1799 30.8717 39.3999C28.6997 39.7499 26.5187 40.0499 24.3477 40.4099C23.3197 40.5799 22.3927 40.9898 21.5827 41.6998C21.0047 42.1998 20.3287 42.6299 19.5427 42.5099C20.1747 42.1699 20.9037 41.8899 21.4787 41.4299C22.2627 40.7899 23.1217 40.3899 24.0807 40.1799C26.9907 39.5099 29.9027 38.8598 32.8147 38.2098C33.2257 38.1198 33.6567 38.0798 34.0487 37.9498C35.1117 37.5698 36.1587 37.1499 37.2127 36.7499C36.9817 36.5499 36.7847 36.4798 36.5817 36.4398C35.3817 36.1998 34.1757 35.9898 32.9817 35.7098C29.4767 34.9198 25.9797 34.0799 22.4727 33.2899C20.1267 32.7699 17.7707 32.2899 15.4147 31.8099C14.1637 31.5499 12.8907 31.3898 11.6497 31.0998C10.2077 30.7598 8.78771 30.3299 7.35871 29.9299C7.37571 29.8699 7.39272 29.8099 7.40972 29.7499C8.08372 29.9199 8.75772 30.0999 9.43172 30.2699C10.1167 30.4399 10.7947 30.6599 11.4897 30.7799C14.2347 31.2599 16.9897 31.6799 19.7347 32.1599C23.1987 32.7699 26.6667 33.3699 30.1147 34.0599C32.5297 34.5399 34.9147 35.1698 37.3127 35.7398C36.7417 35.0998 36.1367 34.5499 35.4877 34.0599C34.0147 32.9399 32.4637 31.9098 31.0427 30.7298C26.4987 26.9598 22.0027 23.1398 17.4817 19.3398C15.0317 17.2798 12.5667 15.2398 10.1157 13.1898C9.82771 12.9398 9.59072 12.6399 9.32972 12.3699C9.38372 12.3099 9.43871 12.2598 9.49271 12.1998C18.8497 19.5098 27.6027 27.5698 37.4527 34.4798C36.9887 33.6498 36.6067 32.8999 36.1577 32.1799C35.2257 30.6999 34.1807 29.2799 33.3247 27.7599C32.3007 25.9399 31.4327 24.0299 30.4837 22.1599C28.8007 18.8599 27.1267 15.5499 25.4117 12.2599C24.7547 10.9999 24.0317 9.7698 23.2697 8.5698C22.7307 7.7298 22.0697 6.95987 21.4717 6.13987C21.1727 5.73987 20.8807 5.3198 21.0957 4.6898C21.4157 5.1998 21.6767 5.64981 21.9757 6.07981C22.7297 7.14981 23.5797 8.1599 24.2447 9.2899C25.0187 10.5899 25.6207 11.9998 26.3257 13.3498C28.1957 16.9198 30.0517 20.4999 31.9757 24.0399C32.8897 25.7299 33.9297 27.3498 34.9407 28.9798C35.9517 30.6098 36.9987 32.2198 38.0297 33.8398C38.1077 33.9598 38.1887 34.0799 38.3197 34.2799C38.3597 34.0899 38.4027 33.9799 38.4017 33.8699C38.3867 32.4299 38.4447 30.9899 38.3287 29.5499C38.1127 26.8699 37.6927 24.1999 37.5497 21.5199C37.4147 18.9699 37.5177 16.4098 37.5367 13.8498C37.5387 13.5198 37.6637 13.1899 37.7317 12.8699C37.7957 12.8699 37.8587 12.8799 37.9227 12.8799C37.9667 13.2499 38.0467 13.6198 38.0487 13.9898C38.0547 15.0498 38.0567 16.1099 38.0117 17.1799C37.8637 20.6599 38.1567 24.0999 38.6937 27.5399C38.9827 29.3899 39.1777 31.2599 39.3237 33.1199C39.3987 34.0799 39.2717 35.0499 39.2337 36.0499ZM39.8437 36.9199C40.7857 37.8499 41.6727 38.6899 42.5137 39.5599C45.7137 42.8999 48.0947 46.7399 49.5107 51.1399C49.7527 51.8899 49.8567 52.6898 49.9917 53.4698C50.0607 53.8598 49.6557 54.1499 49.3247 53.9199C49.0977 53.7599 48.8397 53.4598 48.8317 53.2098C48.7667 51.3198 47.8557 49.7099 47.1377 48.0399C45.6297 44.5499 43.2087 41.6898 40.5637 38.9898C40.1507 38.5698 39.7507 38.1398 39.3337 37.7198C39.1427 37.5298 39.0387 37.4399 38.7937 37.7799C38.0117 38.8699 38.1147 40.0298 38.3827 41.2098C38.5897 42.1298 38.1927 43.2399 37.0007 43.3099C35.8097 43.3799 35.0387 44.2498 34.1997 44.9598C33.4627 45.5898 32.7357 46.2299 31.9457 46.7899C31.5907 47.0399 31.0977 47.1998 30.6637 47.2098C29.6057 47.2298 28.6287 47.5199 27.6537 47.8699C27.2957 47.9999 26.9257 48.0999 26.5537 48.1799C25.2817 48.4599 24.5027 48.0099 24.1167 46.7899C23.9007 46.1099 23.4557 45.8399 22.7507 46.0599C21.9127 46.3199 21.0957 46.6499 20.2637 46.9299C18.5727 47.5099 16.8627 47.8499 15.0877 47.2899C14.6827 47.1699 14.4607 46.9399 14.3507 46.5199C14.0867 45.5099 13.8437 45.1698 12.7907 45.0998C12.0087 45.0498 11.2177 44.9898 10.4577 44.8198C10.0747 44.7298 9.56872 44.4499 9.43372 44.1299C8.77772 42.5699 7.80872 41.3399 6.25672 40.5599C5.74072 40.2999 5.31972 39.8398 4.87972 39.4498C4.19172 38.8298 3.85771 38.0899 4.08271 37.1599C4.12671 36.9699 4.12472 36.7798 4.16772 36.5898C4.31372 35.9598 4.14071 35.5399 3.55271 35.1699C2.48171 34.4899 2.30572 33.6499 2.93572 32.5499C3.22372 32.0399 3.10272 31.6399 2.76772 31.2499C2.48172 30.9199 2.16572 30.6099 1.87272 30.2899C1.30572 29.6599 1.26472 28.9199 1.80372 28.2799C2.09272 27.9299 2.21172 27.6098 1.97272 27.1998C1.20772 25.8698 1.13472 24.4298 1.19372 22.9498C1.23272 21.9598 1.04972 21.0398 0.594717 20.1098C0.127717 19.1498 0.0737152 18.0698 0.417715 16.9598C1.06672 14.8798 1.66672 12.7598 1.72172 10.5698C1.75472 9.2698 1.33572 7.9998 0.704718 6.8198C0.448718 6.3398 0.255711 5.81991 0.0787107 5.29991C-0.105289 4.75991 0.0177144 4.64981 0.613714 4.69981C1.58371 4.76981 2.55471 4.86986 3.52671 4.87986C5.00371 4.89986 6.40672 4.51981 7.76272 3.94981C8.42772 3.67981 8.73272 3.13983 8.85772 2.46983C8.88972 2.29983 8.88072 2.12982 8.91372 1.95982C9.10572 0.989818 9.52172 0.729906 10.4527 1.04991C11.5427 1.42991 12.6007 1.38982 13.7167 1.08982C15.3197 0.659823 16.9577 0.349866 18.5867 0.00986646C18.7847 -0.0301335 19.0257 0.0598616 19.2307 0.129862C19.7837 0.329862 20.3137 0.629837 20.8807 0.729837C21.2227 0.789837 21.6137 0.539818 21.9897 0.459818C22.3807 0.369818 22.7827 0.269886 23.1757 0.279886C23.8347 0.309886 24.4907 0.419857 25.1477 0.499857C25.2977 0.519857 25.4587 0.519813 25.5927 0.579813C26.5847 1.02981 27.5467 1.5598 28.5647 1.9398C29.9677 2.4498 31.4097 2.83983 32.8817 2.09983C33.5697 1.74983 34.0487 1.98981 34.3107 2.69981C34.4497 3.08981 34.6557 3.46988 34.9277 3.76988C36.0077 4.94988 37.4037 5.59986 38.9647 5.87986C39.9267 6.03986 40.2207 6.26987 40.2557 7.25987C40.2917 8.27987 40.6157 9.18983 41.2867 9.96983C41.7777 10.5398 42.3637 10.9198 43.1457 10.9698C43.5037 10.9998 43.8727 11.0698 44.2057 11.1998C44.8277 11.4398 45.1587 12.0398 45.1467 12.6898C45.1227 13.9998 45.0987 15.2998 45.1127 16.6098C45.1257 17.7998 45.2077 18.9899 45.2217 20.1799C45.2287 20.7399 45.3837 21.1299 45.9767 21.2799C46.1597 21.3299 46.3307 21.4299 46.5037 21.5099C46.9207 21.6999 47.0537 22.0198 46.8787 22.4498C46.1557 24.1898 46.2427 26.0499 46.0697 27.8699C46.0537 28.0399 46.0687 28.2199 46.1137 28.3799C46.5447 29.9299 45.8577 31.0899 44.8077 32.1499C44.2237 32.7399 43.7047 33.3999 43.1927 34.0599C43.0857 34.1899 43.1027 34.4499 43.1187 34.6499C43.1857 35.4399 43.0997 35.6299 42.3727 35.9199C41.7347 36.1699 41.0787 36.3698 40.4347 36.6098C40.2607 36.6698 40.1037 36.7799 39.8437 36.9199Z" fill="#231F20"/>
</svg>
