<svg width="61" height="61" viewBox="0 0 61 61" fill="none" xmlns="http://www.w3.org/2000/svg">
<path d="M38.5098 44.64C37.5088 43.72 37.4798 42.84 37.9598 41.67C38.4278 40.53 38.7198 39.32 39.0678 38.2C39.5158 39.86 39.8728 41.57 40.4538 43.21C40.9288 44.55 40.5808 45.73 40.2598 47.1C39.6308 46.19 39.1988 45.28 38.5098 44.64ZM10.6868 33.36C13.4508 33.46 16.1168 34.1401 18.7688 34.9301C19.8478 35.2501 21.0398 35.2 22.1828 35.27C22.9048 35.31 23.4198 35.55 23.7488 36.25C24.8528 38.59 26.5268 40.3499 28.8438 41.5699C30.5118 42.4599 31.9958 43.7 33.9168 44.05C34.3358 44.12 34.7618 44.19 35.1848 44.2C36.4258 44.2 36.4928 44.24 36.9078 45.48C29.5008 43.71 22.1498 41.61 14.5478 40.67C18.2608 41.58 21.9858 42.45 25.6838 43.42C29.3858 44.39 33.0608 45.47 36.7478 46.5C36.7658 46.63 36.7828 46.77 36.8008 46.91C34.8948 47.88 33.0158 48.9199 31.0758 49.8199C29.4168 50.5899 27.6658 51.15 25.9968 51.9C24.9078 52.39 23.8598 52.51 22.6678 52.37C19.0578 51.98 16.3328 50.09 13.9168 47.52C11.7348 45.2 10.0748 42.54 8.50282 39.79C7.96582 38.85 7.25682 37.99 6.54482 37.17C5.41782 35.87 4.37381 34.4601 2.76881 33.6801C2.67981 33.6401 2.61181 33.55 2.53381 33.48C2.54681 33.42 2.55982 33.36 2.57282 33.29C5.27782 33.31 7.98481 33.27 10.6868 33.36ZM49.6828 25.83C49.5708 25.77 49.4588 25.72 49.3478 25.66C47.8868 28.37 46.3298 31.02 44.9928 33.79C43.6538 36.56 42.5358 39.4301 41.2478 42.4301C40.5478 40.8001 40.0948 39.27 39.9618 37.62C39.8578 36.33 39.5588 35.06 39.4858 33.78C39.3758 31.85 39.2488 29.9 39.3798 27.98C39.5828 25.02 40.1328 22.12 42.1478 19.76C44.5828 16.9 47.3758 14.51 50.7358 12.79C51.9228 12.18 52.9888 11.33 54.0768 10.54C54.6808 10.1 55.1908 9.53997 55.7908 9.08997C56.9858 8.20997 57.9698 7.15001 58.7708 5.89001C59.2378 5.15001 59.8838 4.51998 60.4488 3.84998C60.5168 3.88998 60.5858 3.92998 60.6538 3.97998C60.4518 4.58998 60.2778 5.21995 60.0408 5.81995C59.4678 7.27995 59.0708 8.74998 59.0308 10.35C58.9548 13.41 59.3458 16.39 60.0558 19.36C60.8038 22.5 60.3838 25.53 58.8468 28.42C58.0388 29.95 57.4888 31.62 56.2388 32.87C55.3298 33.78 54.4728 34.82 53.3898 35.45C51.9648 36.27 50.8058 37.35 49.6418 38.46C49.2728 38.81 48.8568 39.12 48.4288 39.4C47.4248 40.06 46.4078 40.6899 45.3838 41.3199C44.4378 41.8899 43.4758 42.44 42.5208 43C42.4398 42.9 42.3588 42.81 42.2768 42.71C44.3438 36.91 46.7908 31.27 49.6828 25.83ZM30.5378 3.68005C30.5438 2.85005 30.6018 2.01005 30.5318 1.18005C30.4978 0.780054 30.2248 0.39 30.0598 0C29.6718 0.26 29.2198 0.470059 28.9178 0.810059C28.7168 1.03006 28.6938 1.45003 28.6508 1.78003C28.5348 2.70003 28.4348 3.61003 28.3598 4.53003C28.3098 5.14003 28.1888 5.76997 28.3228 6.33997C28.6208 7.59997 28.2328 8.64998 27.6678 9.72998C26.2828 12.39 24.8708 15.05 23.6598 17.79C23.0538 19.16 22.8618 20.7199 22.4878 22.1899C22.3678 22.6599 22.2918 23.15 22.1448 23.61C21.3838 26 20.8058 28.4 21.6898 30.9C22.0988 32.06 22.4288 33.25 22.8698 34.67C21.2538 34.43 19.7008 34.36 18.2358 33.96C14.0428 32.81 9.79282 32.41 5.46382 32.53C4.13282 32.56 2.79682 32.33 1.46082 32.25C0.983816 32.23 0.181819 32.16 0.0798192 32.37C-0.242181 33.05 0.484817 33.29 0.930817 33.52C2.73282 34.46 4.40181 35.54 5.60881 37.24C6.34081 38.27 7.21581 39.2 7.86581 40.28C9.52981 43.04 11.1708 45.79 13.3748 48.17C15.9748 50.98 19.0228 52.78 22.8888 53.2C24.2138 53.34 25.3008 53.01 26.4398 52.52C27.7818 51.94 29.0998 51.24 30.5018 50.89C33.0828 50.25 35.4328 49.22 37.5488 47.6C37.8098 47.4 38.3428 47.39 38.6868 47.49C39.8418 47.86 40.4008 48.89 41.1528 49.75C43.3468 52.27 45.6298 54.72 47.9688 57.11C48.7148 57.87 49.7108 58.4101 50.6578 58.9301C51.7618 59.5401 52.9268 60.05 54.0858 60.55C54.6048 60.77 55.1678 60.96 55.7218 61C55.9928 61.02 56.2888 60.65 56.5738 60.46C56.3828 60.18 56.2528 59.75 55.9898 59.64C54.5618 59.04 53.0728 58.58 51.6608 57.95C50.6548 57.5 49.5698 57.02 48.8098 56.26C46.4728 53.91 44.2488 51.45 42.0468 48.97C41.6678 48.54 41.3978 47.81 41.4478 47.25C41.5318 46.31 41.8338 45.37 42.2008 44.49C42.3988 44.02 42.8808 43.63 43.3048 43.3C43.9748 42.77 44.6948 42.3 45.4098 41.83C46.4098 41.17 47.4248 40.53 48.4338 39.89C48.9158 39.58 49.4188 39.3 49.8808 38.97C50.9608 38.18 51.9428 37.21 53.1058 36.59C55.6048 35.24 57.1338 33.0499 58.4908 30.6899C58.8258 30.1099 58.8148 29.32 59.1608 28.75C60.9018 25.87 61.2088 22.77 60.6378 19.55C60.1288 16.67 59.5578 13.82 59.5848 10.88C59.5998 9.28 59.9088 7.79006 60.4558 6.31006C60.6258 5.85006 60.8058 5.39003 60.8858 4.91003C60.9788 4.35003 60.9668 3.77996 60.9998 3.20996C60.4558 3.51996 59.8098 3.73003 59.3848 4.16003C58.0758 5.48003 56.9478 6.99999 55.5678 8.23999C54.0558 9.58999 52.4548 10.92 50.6958 11.91C45.7658 14.67 41.4358 17.96 39.0878 23.67C38.7398 22.92 38.3938 22.31 38.1788 21.66C37.8908 20.79 37.7188 19.87 37.4698 18.99C36.5248 15.62 34.6438 12.67 33.1968 9.53003C32.3458 7.69003 31.7348 5.44004 30.5698 3.79004C29.4828 4.19004 31.7508 7.86997 32.0848 8.46997C34.5668 12.9 36.5638 17.52 37.3358 22.59C37.3778 22.87 37.4718 23.22 37.6678 23.37C38.9558 24.39 38.9468 25.71 38.6498 27.14C38.5568 27.59 38.5948 28.07 38.6088 28.53C38.6718 30.66 38.7798 32.79 38.8098 34.92C38.8488 37.61 37.5428 39.95 36.8588 42.72C36.5568 42.21 36.3328 41.95 36.2248 41.64C35.3928 39.27 34.4508 36.93 33.7968 34.52C32.7868 30.78 31.9788 27 31.0818 23.23C31.0358 23.04 30.9658 22.84 30.8918 22.66C30.8308 22.5 30.7458 22.36 30.6708 22.22C32.4848 29.35 32.5368 36.94 36.3428 43.61C34.6388 43.67 33.2268 43.22 31.9048 42.5C30.7448 41.87 29.6558 41.1 28.5058 40.45C27.1718 39.7 26.0438 38.73 25.3028 37.38C24.5388 36 23.8538 34.57 23.1848 33.13C21.7718 30.1 21.7008 27.01 22.8838 23.89C23.0248 23.51 23.2078 23.11 23.1888 22.73C23.0898 20.71 23.7998 18.92 24.6588 17.17C25.9328 14.59 27.2978 12.0401 28.5198 9.43005C28.8798 8.66005 28.9418 7.72999 29.0398 6.85999C29.1268 6.08999 29.0258 5.31004 29.0938 4.54004C29.1798 3.57004 29.3338 2.6 29.4988 1.63C29.5438 1.37 29.7328 1.13 29.8558 0.880005C29.9258 0.900005 29.9968 0.910054 30.0668 0.930054C30.2018 1.86005 30.3378 2.77995 30.4728 3.69995C30.4948 3.69995 30.5168 3.69005 30.5378 3.68005Z" fill="#231F20"/>
</svg>
