<svg width="44" height="34" viewBox="0 0 44 34" fill="none" xmlns="http://www.w3.org/2000/svg">
<path d="M5.86227 25.4121C6.79027 25.1621 7.17727 24.692 7.26727 23.822C7.37827 22.742 7.53827 21.6121 7.95127 20.6121C9.15427 17.7121 10.4793 14.8521 11.7963 11.9921C12.0813 11.3721 12.5143 10.8221 12.9113 10.2621C13.7833 9.02209 14.6733 7.79214 15.5643 6.56214C16.3133 5.53214 17.2363 4.7121 18.4673 4.2721C18.3603 4.4621 18.1963 4.59208 18.0523 4.75208C17.3663 5.48208 16.6263 6.18206 16.0213 6.97206C15.2293 8.01206 14.5273 9.12206 13.8233 10.2221C13.1823 11.2321 12.5243 12.2321 11.9953 13.2921C11.3293 14.6221 10.7423 16.0021 10.2053 17.4021C9.56927 19.0521 8.99227 20.7221 8.45427 22.4021C8.28827 22.9221 8.33628 23.5021 8.26828 24.2221C8.67928 24.0021 8.90327 23.8921 9.11827 23.7721C10.4193 23.0321 11.6763 22.182 13.0353 21.572C14.0463 21.112 14.3193 20.3621 14.6153 19.4221C15.2053 17.5421 15.7963 15.6421 16.6583 13.8721C17.6713 11.8021 18.9723 9.86207 20.1533 7.86207C20.2573 7.69207 20.3933 7.52208 20.5263 7.37208C21.2453 6.53208 21.9653 5.70207 22.6893 4.86207C22.8353 4.69207 23.0023 4.5521 23.1623 4.3921C23.2083 4.4221 23.2563 4.46208 23.3043 4.50208C20.1613 9.37208 17.0513 14.2521 15.5443 20.1021C15.8523 19.9721 15.9793 19.9421 16.0893 19.8821C17.8313 18.8821 19.5793 17.9021 21.2983 16.8621C21.6123 16.6821 21.8673 16.3421 22.0553 16.0221C22.4483 15.3521 22.7513 14.632 23.1383 13.962C24.1143 12.272 25.1113 10.5921 26.1033 8.91212C26.6593 7.97212 27.1483 6.97207 27.8113 6.11207C28.2763 5.51207 28.9583 5.06206 29.5883 4.60206C30.0233 4.29206 30.5383 4.08204 31.0173 3.83204C31.0653 3.92204 31.1153 4.02207 31.1623 4.11207C30.7813 4.38207 30.3543 4.60214 30.0253 4.93214C29.0083 5.93214 27.9943 6.89211 27.3743 8.28211C26.4023 10.4521 25.1273 12.4921 23.9883 14.5921C23.8883 14.7821 23.8443 14.992 23.7743 15.192C23.8223 15.242 23.8723 15.282 23.9203 15.332C25.6503 14.242 27.3863 13.1621 29.0993 12.0621C29.3013 11.9221 29.3693 11.6021 29.5223 11.3821C29.9713 10.7321 30.3763 10.042 30.9033 9.46205C31.7153 8.56205 32.5973 7.73211 33.4813 6.90211C34.0323 6.39211 34.6443 5.95206 35.2273 5.47206C35.2903 5.54206 35.3543 5.61214 35.4183 5.68214C33.8623 7.40214 32.3083 9.13206 30.7513 10.8521C30.7913 10.8921 30.8293 10.9421 30.8693 10.9921C34.8773 8.68208 38.8863 6.38203 42.8943 4.07203C42.8683 4.00203 42.8403 3.93208 42.8143 3.87208C42.0003 3.76208 41.1803 3.69212 40.3743 3.54212C36.0493 2.71212 31.7513 1.71211 27.3403 1.40211C25.8933 1.30211 24.4173 1.08209 23.0003 1.26209C19.4373 1.72209 16.0633 2.80209 13.1543 5.01209C11.0113 6.64209 9.01827 8.3921 8.03527 11.0221C7.53627 12.3521 6.86827 13.632 6.37527 14.962C5.59727 17.072 5.09228 19.2321 5.41728 21.5121C5.56728 22.5521 5.63328 23.6021 5.74228 24.6521C5.76828 24.8921 5.81827 25.1321 5.86227 25.4121ZM9.61328 24.942C15.2593 28.872 21.4583 29.862 28.1343 28.702C27.7433 28.982 27.3543 29.222 26.9333 29.322C23.4833 30.202 20.0263 30.0021 16.5803 29.3021C13.7233 28.7221 11.2973 27.1821 8.79727 25.8021C8.62927 25.7121 8.37227 25.5721 8.25427 25.6321C7.44027 26.0621 6.65227 26.5521 5.66827 27.1221C6.97927 28.1921 7.99727 29.222 9.20027 29.952C13.1563 32.352 17.5043 33.1721 22.0933 32.7421C23.0263 32.6621 23.9943 32.5521 24.8643 32.2221C27.5633 31.2321 29.8143 29.472 32.0343 27.712C36.1623 24.442 38.7883 20.1021 40.6453 15.2721C40.9873 14.3821 41.1383 13.412 41.2983 12.462C41.5633 10.872 41.7313 9.28203 42.0023 7.69203C42.1723 6.72203 42.4573 5.76205 42.7083 4.71205C41.9823 5.20205 41.3643 5.69203 40.6933 6.07203C37.3633 8.00203 34.0203 9.91204 30.6863 11.832C30.5043 11.942 30.3783 12.1421 30.2273 12.2921C30.4143 12.4521 30.5823 12.6921 30.7913 12.7321C31.8293 12.9421 32.8723 13.1921 33.9223 13.2421C35.5983 13.3321 37.2823 13.2721 38.9623 13.2821C39.1013 13.2821 39.2413 13.312 39.3813 13.332C39.3903 13.402 39.4023 13.4721 39.4143 13.5421C39.1573 13.6121 38.9023 13.7321 38.6383 13.7521C37.0083 13.8521 35.3683 14.0621 33.7463 13.9721C32.2043 13.8921 30.5343 14.0121 29.2853 12.8121C27.3363 14.0721 25.4003 15.3221 23.4833 16.5921C23.1443 16.8221 22.8733 17.1421 22.4423 17.5421C23.6133 17.7621 24.5553 17.9921 25.5103 18.1121C27.6393 18.3521 29.7763 18.5321 31.9053 18.7621C33.4033 18.9221 34.8893 19.0221 36.3583 18.5521C36.5673 18.4921 36.8133 18.5421 37.0403 18.5321C35.8473 19.3221 34.5823 19.702 33.1903 19.582C31.8133 19.472 30.4303 19.4021 29.0563 19.2721C26.7413 19.0621 24.4293 18.8121 22.1183 18.5621C21.8773 18.5321 21.6543 18.3621 21.4103 18.3121C21.1973 18.2621 20.9173 18.2121 20.7503 18.3021C19.9043 18.7721 19.0843 19.2921 18.2603 19.8021C17.4263 20.3121 16.5963 20.842 15.6223 21.452C21.0353 23.332 26.4163 24.5221 32.0563 24.4721C31.3243 24.7221 30.5943 24.8721 29.8563 24.9321C26.5283 25.1821 23.2623 24.7221 20.0573 23.8921C18.2383 23.4121 16.4743 22.7321 14.6773 22.1721C14.4953 22.1121 14.2263 22.1821 14.0503 22.2921C12.5823 23.1521 11.1253 24.032 9.61328 24.942ZM4.91427 27.952C4.09227 29.382 3.31628 30.732 2.54628 32.082C2.38828 32.362 2.31327 32.7121 2.09127 32.9221C1.87827 33.1221 1.51927 33.2921 1.23927 33.2721C0.786269 33.2421 0.0602674 32.2821 0.0062674 31.8021C-0.0517326 31.2821 0.298272 30.9621 0.830272 31.1621C1.27527 31.3321 1.47128 31.162 1.65628 30.822C2.28928 29.682 2.91927 28.5321 3.56227 27.3921C3.71727 27.1121 3.96527 26.8721 4.08827 26.5921C4.28827 26.1121 4.55126 25.6121 4.55326 25.1221C4.55726 24.1821 4.48527 23.232 4.28627 22.322C3.68327 19.572 4.24027 16.9721 5.17627 14.4221C5.71227 12.9521 6.40727 11.5421 7.01127 10.1021C8.27027 7.10206 10.6783 5.17209 13.2563 3.38209C16.1973 1.33209 19.5293 0.352114 23.0303 0.0321138C24.5613 -0.107886 26.1493 0.242045 27.6973 0.462045C30.5483 0.872045 33.3933 1.33214 36.2323 1.81214C38.4813 2.20214 40.7193 2.64203 42.9603 3.07203C44.0413 3.28203 44.1413 3.5821 43.8783 4.6421C43.4673 6.3121 42.9803 7.99203 42.8583 9.69203C42.4433 15.452 40.1113 20.392 36.5493 24.832C33.7783 28.292 30.2253 30.7621 26.3683 32.8621C24.5823 33.8321 22.6133 33.9221 20.6543 33.9921C16.5803 34.1221 12.6953 33.2921 9.15226 31.2621C7.83126 30.5121 6.71028 29.412 5.50128 28.462C5.33928 28.342 5.19227 28.192 4.91427 27.952Z" fill="#231F20"/>
</svg>
