<svg width="90" height="96" viewBox="0 0 90 96" fill="none" xmlns="http://www.w3.org/2000/svg">
<path d="M45.3605 44.813C47.9205 41.833 50.8255 39.133 53.6495 36.383C55.2625 34.813 57.0375 33.413 58.7095 31.903C59.3615 31.313 59.9065 30.6031 60.5515 30.0031C60.7725 29.8031 61.1525 29.763 61.4595 29.653C61.3795 29.913 61.3675 30.223 61.2095 30.423C60.0905 31.783 59.0245 33.2031 57.7835 34.4531C55.4135 36.8331 52.9185 39.0931 50.5125 41.4431C47.5395 44.3431 44.5265 47.2031 41.6765 50.2231C39.4785 52.5531 37.5065 55.103 35.4305 57.543C35.2755 57.733 35.1015 57.8931 34.9355 58.0731C34.9055 58.0331 34.8745 58.0031 34.8435 57.9631C38.3355 53.5731 41.7075 49.073 45.3605 44.813ZM21.9395 93.293C21.6655 93.473 21.2065 93.373 20.8325 93.403C20.9035 93.083 20.8875 92.7031 21.0595 92.4531C22.5265 90.3031 22.9655 87.8031 23.6655 85.3631C24.5635 82.2331 25.7505 79.1931 26.8435 76.1231C26.9595 75.7931 27.2415 75.493 27.5225 75.273C27.7775 75.073 28.2285 74.833 28.4245 74.933C28.6915 75.073 28.9405 75.5131 28.9465 75.8331C28.9645 76.7531 28.8685 77.6631 28.7925 78.5731C28.4875 82.2431 27.5415 85.7331 25.8515 89.0031C25.3265 90.0131 24.4935 90.8631 23.8685 91.7031C23.1635 92.3031 22.5945 92.863 21.9395 93.293ZM36.8725 89.773C37.4655 87.983 38.2115 86.1831 38.4095 84.3431C38.6935 81.6831 38.6945 78.983 38.5425 76.313C38.3385 72.713 38.0165 69.123 38.5355 65.533C38.6565 64.693 38.9495 63.873 39.2065 63.063C39.5485 61.993 40.4475 61.5131 41.4295 61.2131C42.2225 60.9631 43.1025 61.6031 43.2235 62.5931C43.3685 63.7731 43.5065 64.973 43.4195 66.153C43.1825 69.313 43.0845 72.5131 42.4445 75.6031C41.7415 78.9931 40.6125 82.3031 39.4415 85.5731C38.6335 87.8231 37.4535 89.9431 36.4045 92.1031C36.2245 92.4731 35.8695 92.7531 35.5945 93.0831C35.5645 93.0531 35.5345 93.0231 35.5035 92.9931C35.9665 91.9231 36.5065 90.873 36.8725 89.773ZM15.0115 26.1131C19.6185 24.8731 24.1865 25.0931 28.7885 26.2531C36.0755 28.0931 42.8855 31.0431 49.3895 34.7531C50.3375 35.2931 51.2475 35.903 52.2425 36.513C50.0735 38.803 47.9395 41.053 45.8045 43.303C36.1235 40.153 26.2115 39.183 16.1095 40.773C13.5885 41.173 10.9975 41.563 8.72848 42.923C20.9825 39.263 33.0855 40.2431 45.2595 43.9531C44.9075 44.4331 44.6525 44.803 44.3705 45.153C41.9585 48.153 39.5235 51.133 37.1445 54.153C36.7485 54.653 36.3355 54.8031 35.7605 54.8231C27.4795 55.1931 19.3875 56.753 11.3735 58.773C10.6655 58.953 9.97648 59.2231 9.28848 59.4731C9.01248 59.5731 8.76249 59.743 8.44949 59.913C17.5175 57.753 26.5975 56.183 36.0565 55.533C35.3885 56.433 34.8405 57.183 34.2845 57.923C32.4475 60.353 30.5905 62.7831 28.7805 65.2431C28.3905 65.7731 28.0125 65.913 27.3455 65.913C21.7015 65.883 16.1735 66.5131 11.0355 69.1031C10.8325 69.2031 10.6515 69.3531 10.4975 69.6031C15.8335 66.8731 21.5945 66.6931 27.4305 66.6131C21.5795 73.5131 17.3815 81.493 12.0405 88.693C12.1305 88.753 12.2205 88.823 12.3105 88.883C12.5325 88.613 12.7745 88.3531 12.9725 88.0731C16.6025 82.7831 20.2165 77.4931 23.8645 72.2231C24.4885 71.3231 25.2435 70.513 25.9655 69.683C27.2705 68.183 28.5935 66.7031 29.9165 65.2231C30.2945 64.8031 30.6965 64.3931 31.2235 63.8431C31.3075 64.3231 31.3835 64.613 31.4015 64.903C31.6175 68.503 31.8815 72.0931 32.0215 75.7031C32.1905 80.0731 31.7675 84.3731 30.1785 88.4931C30.0965 88.7031 30.0705 88.9431 30.2135 89.2331C30.5515 88.3031 30.9895 87.383 31.2115 86.423C32.0755 82.693 32.6575 78.9331 32.5175 75.0831C32.3985 71.8131 32.5065 68.523 32.2035 65.283C32.0385 63.513 32.5635 62.3731 33.7125 61.1231C36.8255 57.7131 39.7725 54.163 42.7875 50.673C42.9395 50.493 43.1075 50.333 43.3775 50.043C43.7075 51.603 43.9605 53.0331 44.3175 54.4431C45.6875 59.8531 46.6395 65.323 46.9695 70.893C47.1795 74.443 46.9775 77.9831 46.1625 81.4731C46.1145 81.6731 46.1015 81.8831 46.0715 82.0931C46.1535 82.1131 46.2355 82.133 46.3175 82.153C46.6655 80.733 47.0705 79.313 47.3515 77.883C48.2335 73.373 47.8965 68.8531 47.1735 64.3731C46.4635 59.9731 45.5045 55.6131 44.6535 51.2331C44.6245 51.0831 44.5855 50.943 44.5525 50.793C44.3175 49.703 44.4215 48.8531 45.3805 47.9831C47.5465 46.0131 49.5345 43.853 51.7315 41.633C52.4475 42.563 53.0995 43.3931 53.7195 44.2331C58.1835 50.3231 61.1265 57.1531 63.2645 64.3231C64.4925 68.4431 65.1055 72.683 64.4645 77.013C64.4485 77.123 64.4795 77.2331 64.4885 77.3431C64.5685 77.3631 64.6475 77.373 64.7275 77.383C64.8825 76.573 65.1115 75.763 65.1805 74.933C65.4925 71.203 64.8675 67.5631 63.8955 63.9731C62.4025 58.4631 60.2425 53.2031 57.4825 48.2231C56.0675 45.6631 54.2585 43.333 52.6395 40.913C54.1755 39.293 55.6805 37.713 57.1585 36.153C58.7605 37.943 60.2275 39.683 61.8105 41.313C64.7915 44.383 67.8925 47.333 70.8465 50.423C74.0275 53.763 76.7255 57.4531 78.5275 61.7331C78.5585 61.8031 78.6295 61.8631 78.8675 61.8531C78.6305 61.1131 78.4805 60.333 78.1415 59.653C76.4985 56.323 74.5445 53.1831 71.9935 50.4731C68.7225 47.0031 65.3205 43.6631 62.0215 40.2231C60.7985 38.9431 59.7135 37.5431 58.5495 36.2131C58.1295 35.7331 58.1305 35.383 58.6195 34.913C59.3865 34.173 60.0755 33.343 60.7615 32.533C61.1055 32.123 61.3565 32.023 61.9065 32.283C65.8255 34.133 69.7595 35.9431 73.7155 37.7131C76.0845 38.7731 78.5255 39.6731 80.8875 40.7431C83.2215 41.8031 85.1125 43.4031 86.2805 45.8531C86.3465 45.0231 85.8915 44.123 85.1335 43.173C83.6325 41.293 81.6415 40.1331 79.4795 39.2331C75.8435 37.7131 72.1665 36.2931 68.5585 34.7131C66.3065 33.7231 64.1495 32.523 61.9205 31.403C64.6185 30.803 67.2285 30.353 69.7625 29.643C72.8555 28.763 75.9035 28.7431 78.9995 29.4731C79.6125 29.6231 80.2445 29.6931 80.8865 29.7031C78.9625 28.7131 76.9115 28.133 74.7615 28.163C73.2795 28.183 71.7865 28.4231 70.3255 28.7031C68.2295 29.1031 66.1575 29.633 63.8435 30.163C64.4745 29.503 64.9415 29.023 65.3865 28.533C66.6755 27.113 67.9975 25.7131 69.2265 24.2431C70.1935 23.0831 71.4495 22.803 72.8295 22.793C76.0085 22.773 78.8315 23.7631 81.2555 25.8431C82.4105 26.8331 83.5845 27.803 84.7295 28.813C85.2155 29.233 85.3355 29.673 85.0375 30.383C84.2015 32.393 84.5865 34.4131 85.3795 36.3631C86.7295 39.6731 87.8665 43.053 88.6925 46.533C89.2995 49.093 88.8865 51.4231 87.1695 53.5031C86.1995 54.6731 85.3055 55.9231 84.4605 57.1931C83.2205 59.0431 82.5795 61.1531 82.1595 63.3231C81.5725 66.3731 80.2425 68.973 77.7765 70.943C76.2765 72.133 74.8305 73.4031 73.3505 74.6231C73.1275 74.8031 72.8485 74.9231 72.5225 75.1131C72.8575 71.7131 72.4655 68.4731 71.6425 65.3331C70.9575 62.7131 69.8595 60.213 68.9205 57.663C68.1255 55.513 67.3095 53.3631 65.8145 51.5731C64.9545 50.5431 64.0585 49.5331 63.1075 48.5931C62.8245 48.3131 62.1745 48.043 61.9175 48.183C61.5895 48.363 61.3165 48.9631 61.3275 49.3731C61.3505 50.1831 61.4875 51.023 61.7485 51.803C62.8355 55.013 64.1465 58.1231 65.7705 61.1231C67.2195 63.7931 68.1105 66.693 68.7405 69.663C68.8795 70.323 68.9735 70.993 69.1345 71.643C69.9515 74.963 69.3085 77.8131 66.9465 80.4531C63.8195 83.9331 59.9975 86.0331 55.4415 87.0731C58.1035 83.8431 58.7885 79.9931 58.7815 76.0031C58.7775 73.5031 58.5655 71.003 58.2905 68.513C57.8295 64.333 56.9005 60.2531 55.0375 56.4531C54.5745 55.5031 53.9815 54.593 53.2985 53.783C52.9565 53.383 52.1385 52.9431 51.7815 53.1031C51.1575 53.3631 50.6205 54.0131 50.2505 54.6231C50.0385 54.9831 50.1695 55.583 50.2475 56.053C50.7565 59.163 51.3895 62.2431 51.7955 65.3531C52.2575 68.8931 52.6205 72.453 52.8525 76.013C53.1075 79.923 52.8635 83.833 51.9705 87.673C51.9145 87.913 51.6965 88.233 51.4865 88.303C46.9225 89.663 42.3495 90.9931 37.7775 92.3331C37.5785 92.3931 37.3675 92.4131 37.0205 92.4731C37.5815 91.4131 38.1505 90.493 38.5725 89.513C39.6665 86.963 40.8855 84.4531 41.7095 81.8231C43.0805 77.4331 43.9205 72.923 43.9765 68.303C43.9995 66.423 43.9975 64.533 43.9845 62.643C43.9755 61.313 42.4585 59.8231 40.7155 60.6031C38.6845 61.5031 38.1075 63.233 37.8045 65.143C37.2155 68.863 37.4075 72.593 37.7985 76.303C38.2105 80.213 38.0065 84.043 36.7245 87.793C36.1125 89.583 35.4865 91.333 34.3435 92.893C33.3915 94.193 32.1765 94.943 30.6315 94.893C27.6785 94.813 24.7295 94.573 21.7775 94.293C27.3275 90.483 28.8435 84.753 29.5755 78.653C29.6985 77.633 29.6905 76.583 29.6525 75.543C29.6125 74.433 28.5275 73.853 27.5455 74.383C26.2615 75.063 25.6545 76.2931 25.2555 77.5731C24.1985 80.9831 23.2865 84.4431 22.1955 87.8431C21.7155 89.3331 20.9765 90.753 20.2825 92.163C19.9805 92.783 19.6085 93.303 20.6125 93.943C19.0885 93.803 18.1155 93.263 17.2905 92.313C16.8925 91.863 16.3485 91.4531 15.7875 91.2331C14.7655 90.8431 13.6915 90.5631 12.6195 90.3231C11.8965 90.1631 11.4245 89.793 11.1095 89.153C10.0255 86.933 8.88547 84.7331 7.85547 82.4931C6.35247 79.2231 4.93147 75.9131 3.45947 72.6231C3.16047 71.9531 3.27347 71.483 3.77047 70.903C7.28347 66.853 11.7935 64.9931 17.0535 64.8631C19.7935 64.7931 22.4735 64.5231 25.0775 63.6231C26.3595 63.1731 27.3065 62.3831 27.9375 61.1931C28.6935 59.7731 27.9435 58.5131 26.3275 58.5031C26.0245 58.5031 25.7165 58.5531 25.4195 58.6131C22.1315 59.3031 18.8065 59.8631 15.5695 60.7431C11.2285 61.9131 7.23749 63.8931 3.80249 66.8531C3.00649 67.5431 2.3385 68.373 1.4675 69.293C1.2325 66.333 0.985491 63.423 0.781491 60.513C0.734491 59.833 1.07249 59.3331 1.69049 58.9431C4.27049 57.3231 7.04047 56.1431 9.96347 55.3331C12.4365 54.6531 14.9075 53.923 17.4205 53.433C19.4805 53.033 21.6075 52.9831 23.6955 52.7031C26.2115 52.3731 28.7305 52.003 31.0255 50.813C32.2275 50.193 33.1935 49.3931 33.3385 47.8731C33.4835 46.3631 32.4705 45.6631 31.4515 44.9931C30.3725 44.2931 29.1295 44.0231 27.8485 44.2031C24.5835 44.6831 21.3095 45.1231 18.0705 45.7331C15.7395 46.1731 13.3855 46.693 11.1785 47.533C9.44549 48.193 7.75247 49.203 6.34747 50.413C4.51347 51.993 2.9805 53.9331 1.3165 55.7131C1.2435 55.7831 1.14748 55.843 0.879483 56.053C1.02948 54.693 1.19649 53.5331 1.27649 52.3631C1.36949 50.9931 1.42948 49.6231 1.43048 48.2431C1.43548 44.7731 2.74648 41.833 4.99948 39.263C5.15248 39.093 5.39449 38.983 5.60949 38.883C9.21449 37.073 13.0415 35.9031 16.9955 35.2431C18.5205 34.9931 20.1575 35.1531 21.7095 35.3631C26.3075 36.0031 30.8855 36.7731 35.4785 37.4431C36.0735 37.5331 36.8725 37.8031 37.1585 36.8531C37.5835 35.4331 37.4145 34.8231 36.4145 34.2431C36.2045 34.1231 35.9855 33.993 35.7545 33.923C29.6375 32.113 23.4725 30.5831 17.0165 31.4431C15.4895 31.6531 13.9435 32.043 12.5255 32.643C10.1685 33.623 7.78548 34.6431 6.00348 36.6031C5.87448 36.7531 5.67848 36.8331 5.47748 36.9631C5.65248 33.6331 5.75949 30.383 7.44549 27.413C8.24949 26.003 9.09948 24.6831 10.5165 23.8731C12.3635 22.8031 14.2605 21.8231 16.1405 20.8231C17.4615 20.1131 18.8655 20.123 20.2415 20.533C23.8675 21.613 27.4945 22.703 31.0835 23.893C33.2785 24.623 35.3845 25.623 37.5695 26.393C39.2075 26.963 40.9005 27.393 42.5855 27.813C42.9055 27.893 43.4595 27.753 43.6265 27.513C43.7765 27.293 43.6585 26.7331 43.4615 26.4631C41.7815 24.1931 39.7845 22.2231 37.4785 20.5831C36.0635 19.5731 34.6675 18.5331 33.2695 17.4931C32.7425 17.1031 32.2295 17.0331 31.5605 17.2031C30.6845 17.4331 29.7555 17.523 28.8445 17.553C25.4635 17.683 22.0835 18.063 18.7095 17.283C17.6415 17.043 16.4765 17.2131 15.1025 17.1931C15.6055 16.4731 16.0295 15.7431 16.5785 15.1131C18.1085 13.3731 19.7255 11.7131 21.2405 9.95306C22.6565 8.31306 24.0975 6.72311 26.3245 6.25311C29.5705 5.56311 32.5975 6.24303 35.0555 8.42303C36.7735 9.95303 38.1835 11.8431 39.6545 13.6231C41.5075 15.8731 43.4125 18.0731 46.0175 19.4631C46.8375 19.9031 47.8435 20.123 48.7775 20.163C49.6115 20.203 49.7115 19.6331 49.2245 18.9431C48.4675 17.8831 47.8425 16.723 47.0915 15.653C44.8795 12.493 42.4035 9.69304 38.7395 8.05304C36.2255 6.93304 33.9075 5.36309 31.4735 3.98309C33.7005 3.10309 35.9465 2.20308 38.2085 1.35308C39.5485 0.843084 40.8775 1.34306 42.1755 1.58306C43.3685 1.80306 44.5575 2.18304 45.6615 2.68304C46.3025 2.97304 46.9015 3.55301 47.2895 4.15301C47.8645 5.04301 48.2815 6.04302 48.6845 7.03302C49.8215 9.82302 51.7265 12.103 53.5365 14.433C53.9865 15.013 54.7395 15.4031 55.4035 14.9931C55.8675 14.7031 56.3295 14.0231 56.3515 13.4931C56.3965 12.4531 56.2425 11.3631 55.9865 10.3331C55.2095 7.23307 54.0105 4.34305 51.3705 2.31305C50.7235 1.80305 50.0415 1.35303 49.4015 0.673031C50.6585 0.893031 51.9315 1.05308 53.1685 1.35308C55.4475 1.91308 56.9415 3.52299 58.1925 5.38299C59.8425 7.84299 61.4665 10.313 63.1015 12.783C63.1355 12.833 63.1545 12.8931 63.1975 12.9431C65.6685 15.2731 65.0275 17.943 64.0295 20.653C63.0485 23.313 62.0655 25.9731 61.0775 28.6231C61.0385 28.7331 60.9415 28.813 60.7025 29.133C60.3455 28.143 59.9055 27.3331 59.7765 26.4831C59.4795 24.5231 59.3335 22.533 59.1265 20.563C58.9855 19.223 58.8465 17.883 58.5425 16.563C59.1475 20.773 58.1185 25.1631 60.1325 29.2131C60.0235 29.2631 59.9155 29.3231 59.8075 29.3731C59.4275 28.8731 58.8825 28.4231 58.6935 27.8631C57.2655 23.6131 54.8965 19.8731 52.3625 16.2331C50.5315 13.6031 48.5875 11.053 46.6075 8.53302C45.8205 7.53302 44.8085 6.70306 43.8775 5.82306C43.6725 5.63306 43.3755 5.533 43.1205 5.393C43.0685 5.453 43.0155 5.51306 42.9625 5.57306C43.1435 5.78306 43.3105 6.00306 43.5055 6.20306C49.2685 11.9731 53.5715 18.753 57.1235 26.043C57.3895 26.593 57.5055 27.2131 57.7735 27.7531C58.0365 28.2931 58.3775 28.793 58.7345 29.283C58.9805 29.613 59.4445 29.8331 58.9765 30.3331C58.6015 30.7331 58.3095 31.0731 57.6945 30.6031C54.7675 28.3531 51.6655 26.3031 48.9025 23.8731C46.1325 21.4331 43.1375 19.3431 40.0815 17.3431C37.4605 15.6131 34.6525 14.183 31.9135 12.643C31.5265 12.423 31.0645 12.3431 30.5525 12.3531C30.7305 12.4631 30.8985 12.593 31.0885 12.673C35.2825 14.473 38.8295 17.303 42.6035 19.783C45.6945 21.813 48.1995 24.513 51.0585 26.793C53.1285 28.453 55.2895 29.9931 57.4585 31.6131C56.0045 32.9731 54.4995 34.383 52.9775 35.813C50.6345 34.493 48.3765 33.103 46.0135 31.923C39.2285 28.523 32.1915 25.853 24.6075 24.883C21.0365 24.423 17.5295 24.7731 14.1155 25.9431C13.8725 26.0331 13.6425 26.1531 13.4065 26.2531C13.4255 26.3231 13.4445 26.3931 13.4645 26.4631C13.9805 26.3531 14.5005 26.2431 15.0115 26.1131ZM42.6495 26.9531C41.0655 26.5131 39.4535 26.1531 37.9065 25.6131C35.6915 24.8431 33.5435 23.8731 31.3335 23.0831C28.5435 22.0831 25.7475 21.093 22.9025 20.273C20.4815 19.573 18.0755 19.0231 15.5035 20.1931C13.0385 21.3231 10.5125 22.393 8.63247 24.293C6.20947 26.763 5.01048 29.903 4.93448 33.423C4.91048 34.543 4.73047 35.663 4.62347 36.783C4.58547 37.183 4.55147 37.5831 4.51547 37.9831C5.00147 37.9031 5.49847 37.8631 5.96847 37.7331C6.21547 37.6531 6.44248 37.453 6.63348 37.263C8.92848 34.963 11.8195 33.6931 14.8525 32.8331C18.1275 31.9131 21.5445 31.9531 24.8675 32.4731C28.3805 33.0231 31.8325 33.973 35.3075 34.763C35.5685 34.823 35.8665 34.943 36.0315 35.133C36.2035 35.333 36.3485 35.683 36.2945 35.913C36.2375 36.153 35.9545 36.383 35.7155 36.523C35.5555 36.613 35.2945 36.553 35.0855 36.523C31.4595 35.993 27.8375 35.423 24.2085 34.923C22.1275 34.633 20.0105 34.113 17.9525 34.263C14.2215 34.543 10.6715 35.793 7.24447 37.273C6.08947 37.773 4.89248 38.4631 4.06048 39.3731C1.71648 41.9531 0.502477 45.0231 0.723477 48.5831C0.790477 49.6831 0.778488 50.7831 0.690488 51.8731C0.551488 53.6131 0.310493 55.3431 0.139493 57.0731C0.119493 57.2731 0.276468 57.4831 0.351468 57.6931C0.537468 57.5731 0.759479 57.4831 0.900479 57.3231C1.09748 57.1031 1.19748 56.7931 1.40448 56.5831C2.56748 55.4131 3.85049 54.3531 4.90649 53.1031C7.56849 49.9431 11.0075 48.083 14.9455 47.273C19.2815 46.383 23.6815 45.793 28.0645 45.143C29.5285 44.923 30.8415 45.4331 31.9065 46.4931C32.5975 47.1731 32.6615 48.2431 31.9725 48.9431C31.5315 49.3931 31.0075 49.7931 30.4495 50.0831C28.3455 51.1531 26.0375 51.513 23.7335 51.793C20.4605 52.193 17.1645 52.373 13.9655 53.303C9.97848 54.463 5.94648 55.4631 2.30948 57.5831C0.749476 58.4831 -0.213506 59.6731 0.0404941 61.5731C0.438494 64.5331 0.851479 67.4931 1.27548 70.4531C1.30848 70.6931 1.47547 70.9031 1.50247 70.9531C2.60947 69.6531 3.51649 68.183 4.79049 67.163C8.11549 64.523 11.8765 62.593 16.0055 61.523C19.1685 60.703 22.3865 60.113 25.5815 59.423C25.8485 59.363 26.1285 59.3231 26.3985 59.3331C27.3625 59.3731 27.6875 59.9831 27.2255 60.8331C26.6875 61.8231 25.8605 62.423 24.8015 62.793C22.1365 63.723 19.3925 63.9431 16.5885 64.0031C14.9995 64.0331 13.3765 64.343 11.8475 64.803C10.4865 65.203 9.26747 66.063 7.92447 66.553C5.70447 67.363 4.23449 69.0031 2.94549 70.8431C2.68649 71.2131 2.61247 71.9131 2.77447 72.3431C4.08347 75.8031 5.44248 79.243 6.84048 82.663C7.61348 84.553 8.44348 86.423 9.33648 88.263C10.0955 89.833 11.0685 91.123 13.0545 91.393C14.0365 91.523 14.9675 92.1531 15.8825 92.6231C16.6635 93.0331 17.3415 93.6531 18.1465 93.9831C21.5475 95.3731 25.1815 95.4731 28.7715 95.7131C31.1675 95.8731 33.5355 95.7031 34.9795 93.4631C35.4165 93.5431 35.7605 93.703 36.0495 93.633C38.3355 93.083 40.6315 92.553 42.8855 91.893C45.9305 90.993 48.9435 89.9831 51.9615 88.9931C52.1845 88.9231 52.4225 88.6731 52.5105 88.4531C52.7215 87.9131 52.8825 87.353 53.0025 86.793C53.7645 83.183 53.9325 79.5131 53.6855 75.8531C53.4525 72.3831 53.1105 68.9131 52.6665 65.4631C52.2545 62.2531 51.6435 59.073 51.1275 55.883C51.0795 55.583 50.9835 55.2331 51.0875 54.9831C51.2415 54.6131 51.4985 54.213 51.8265 54.023C51.9945 53.923 52.5145 54.193 52.7015 54.423C53.3365 55.233 54.0875 56.0331 54.4415 56.9631C55.2055 58.9831 55.8805 61.063 56.3595 63.163C57.5385 68.343 58.2465 73.593 57.6125 78.903C57.2465 81.973 56.6335 85.0231 54.1345 87.2431C53.9245 87.4331 53.8015 87.723 53.5955 88.023C54.3805 88.463 55.0495 88.3131 55.7145 88.0731C56.6045 87.7531 57.4675 87.3331 58.3785 87.0931C62.3085 86.0631 65.2325 83.593 67.8755 80.673C69.8405 78.493 70.7055 76.0031 70.2235 73.0831C70.0295 71.9131 69.8165 70.7431 69.5795 69.5731C68.9635 66.5331 68.0455 63.5731 66.5815 60.8431C64.9735 57.8431 63.6075 54.753 62.5245 51.533C62.2285 50.663 61.8615 49.723 62.3045 48.423C63.3845 49.663 64.3285 50.683 65.1915 51.763C66.6685 53.613 67.3035 55.873 68.2055 58.013C69.6855 61.513 70.9655 65.073 71.3165 68.893C71.5105 71.003 72.0885 73.1231 71.3305 75.2531C71.2425 75.5031 71.4755 76.113 71.6605 76.163C72.0135 76.253 72.5255 76.1731 72.8205 75.9631C74.5925 74.6731 76.3535 73.3631 78.0565 71.9831C80.1525 70.2831 81.9115 68.3131 82.5975 65.5931C82.8435 64.6231 83.1685 63.653 83.3525 62.663C83.9405 59.523 85.5725 56.9231 87.6125 54.5731C89.7285 52.1331 90.4265 49.413 89.6975 46.313C88.8715 42.803 87.7265 39.393 86.3655 36.053C85.5455 34.043 85.2195 32.003 86.1975 29.923C86.2815 29.743 86.1445 29.343 85.9775 29.183C84.5875 27.873 83.1875 26.563 81.7495 25.303C79.2615 23.113 76.3275 22.0631 73.0285 21.9831C71.0555 21.9431 69.4185 22.5731 68.0935 24.1231C66.7065 25.7531 65.1785 27.263 63.7035 28.813C63.4375 29.093 63.1285 29.3331 62.8555 29.5731C62.0615 29.1431 61.8965 28.5831 62.1775 27.8431C62.9255 25.8731 63.6975 23.913 64.4025 21.933C64.9025 20.533 65.4455 19.123 65.7215 17.663C66.0565 15.893 65.7985 14.1931 64.3505 12.8631C63.9325 12.4831 63.6365 11.9531 63.3145 11.4731C61.7675 9.16308 60.2095 6.86303 58.6955 4.54303C56.4135 1.03303 53.0125 -0.0668912 49.0605 0.00310881C48.5135 0.0131088 47.9625 0.0930698 47.4285 0.21307C47.2375 0.25307 47.0915 0.503021 46.9255 0.663021C47.0995 0.803021 47.2515 1.00306 47.4505 1.08306C48.0745 1.31306 48.7985 1.37309 49.3365 1.73309C51.6655 3.25309 53.4675 5.24305 54.3635 7.94305C54.9395 9.68305 55.7915 11.3531 55.6445 13.2531C55.6155 13.6231 55.3455 14.233 55.1255 14.263C54.7605 14.313 54.2045 14.083 53.9725 13.783C52.1065 11.373 50.2465 8.94305 49.1205 6.06305C48.8115 5.26305 48.4865 4.44301 47.9845 3.77301C47.4565 3.06301 46.8055 2.31306 46.0345 1.95306C44.7725 1.36306 43.3945 0.94306 42.0205 0.70306C40.7535 0.48306 39.3315 0.263094 38.1495 0.613094C35.2365 1.48309 32.4205 2.68301 29.5745 3.77301C29.3595 3.85301 29.2185 4.13305 29.0435 4.31305C29.2755 4.47305 29.4875 4.683 29.7415 4.763C30.6585 5.063 31.6635 5.17308 32.5025 5.60308C35.2085 7.01308 37.8705 8.493 40.5135 10.013C41.2715 10.453 41.9535 11.053 42.5915 11.653C44.9495 13.893 46.9035 16.4531 48.4065 19.4931C47.9915 19.4131 47.5505 19.4431 47.2665 19.2431C45.6905 18.1631 43.9505 17.2231 42.6475 15.8631C40.6275 13.7531 38.9075 11.3631 37.0715 9.07306C34.3655 5.71306 28.9495 4.203 25.0235 5.763C22.8565 6.633 21.5205 8.463 20.0565 10.143C18.7115 11.683 17.2895 13.163 16.0225 14.763C15.1365 15.883 14.4535 17.1631 13.6795 18.3731C13.7425 18.4531 13.8055 18.5331 13.8685 18.6131C14.1115 18.5831 14.3755 18.5931 14.5945 18.5031C15.9075 17.9531 17.2695 17.843 18.6425 18.133C20.7495 18.573 22.8585 18.8031 25.0155 18.6031C27.2335 18.3931 29.4585 18.2531 31.6815 18.1131C32.0735 18.0831 32.5775 18.063 32.8545 18.273C35.2415 20.073 37.6265 21.883 39.9295 23.783C40.9925 24.663 41.8715 25.773 42.8345 26.773C42.7725 26.833 42.7105 26.8931 42.6495 26.9531Z" fill="#231F20"/>
<path d="M47.8105 37.2629C48.1015 37.4929 48.2805 38.073 48.2335 38.453C48.1995 38.723 47.7315 39.0729 47.3995 39.1629C45.6805 39.6029 43.3295 38.553 42.4445 36.983C42.3295 36.783 42.2875 36.5329 42.1555 36.1429C44.2995 35.7629 46.1795 35.9729 47.8105 37.2629ZM47.0185 39.863C47.9155 39.883 48.5825 39.4729 48.8635 38.6429C49.1555 37.7829 48.8985 36.973 48.1355 36.453C46.3685 35.253 44.4275 34.9629 42.3635 35.5129C41.6865 35.6929 41.4445 36.1829 41.7225 36.7729C42.0275 37.4229 42.4845 37.993 42.8755 38.603C44.0565 39.783 45.5365 39.833 47.0185 39.863Z" fill="#231F20"/>
<path d="M40.1235 44.933C40.4155 44.993 40.7095 45.133 40.9535 45.303C41.1975 45.483 41.3805 45.7431 41.5905 45.9631C41.3335 46.1931 41.1135 46.533 40.8115 46.643C39.4175 47.103 37.3245 46.073 36.8025 44.313C37.9105 44.513 39.0205 44.703 40.1235 44.933ZM40.9985 47.423C41.5825 47.243 41.9425 46.933 41.9845 46.273C42.0295 45.553 42.0035 44.8531 41.2075 44.6131C39.9325 44.2331 38.6385 43.873 37.3275 43.663C36.9255 43.603 36.2205 43.953 36.0565 44.303C35.8935 44.653 36.2155 45.2431 36.3695 45.7131C36.4205 45.8731 36.6125 45.9831 36.7395 46.1131C38.0095 47.0331 39.2845 47.933 40.9985 47.423Z" fill="#231F20"/>
<path d="M49.2304 31.643C48.6474 30.833 48.8474 30.3631 49.8324 30.2231C51.1244 30.0431 52.1744 30.5531 53.0224 31.4531C53.2384 31.6831 53.2914 32.203 53.2074 32.533C53.1524 32.743 52.7204 32.9931 52.4494 33.0031C51.4304 33.0431 50.4344 32.9131 49.6634 32.1131C49.5184 31.9631 49.3534 31.823 49.2304 31.643ZM52.9994 33.7131C54.1084 33.3431 54.4144 31.833 53.4894 31.153C52.6934 30.563 51.7854 30.0831 50.8644 29.7131C50.0204 29.3731 48.6784 29.763 48.4564 30.323C48.0684 31.293 48.6504 31.933 49.3094 32.523C49.3314 32.543 49.3534 32.563 49.1764 32.403C50.3914 33.583 51.5534 34.1931 52.9994 33.7131Z" fill="#231F20"/>
</svg>
