<svg width="58" height="124" viewBox="0 0 58 124" fill="none" xmlns="http://www.w3.org/2000/svg">
<path d="M27.4024 81.1595C27.4034 81.1795 27.4034 81.2095 27.4044 81.2395C27.3554 81.5195 27.2974 81.7895 27.2434 82.0695C26.8984 82.8295 26.6905 83.6695 26.8015 84.4695C26.7785 84.6195 26.7464 84.7595 26.7254 84.8995C26.6694 85.2895 26.6124 85.6796 26.5554 86.0596C25.3164 82.1596 22.5094 79.0395 19.0874 76.8295C17.1094 75.5495 14.9694 74.5495 12.7634 73.7295C11.5614 73.2895 10.3384 72.8996 9.1084 72.5396C8.4734 72.3596 7.83545 72.1795 7.19745 71.9995C6.63045 71.8495 6.09846 71.6695 5.50446 71.7295C5.41346 71.7395 5.34343 71.7895 5.27643 71.8395C4.99243 71.7495 4.71041 71.6495 4.42341 71.5695C4.03741 71.4695 3.68342 71.8895 3.80542 72.2495C4.58942 74.5895 5.64444 76.8395 6.93244 78.9395C9.20444 82.6595 12.1694 85.9295 15.5754 88.6395C19.0164 91.3795 23.3544 93.8195 24.1104 98.5695C24.1214 98.6395 24.1524 98.6895 24.1904 98.7295C24.1114 99.0295 24.0434 99.3295 23.9634 99.6295C22.9024 103.62 21.7554 107.59 20.5484 111.54C19.3434 115.48 17.9564 119.379 16.8394 123.339C16.6964 123.849 17.5234 124.15 17.7144 123.65C18.0764 122.72 18.4064 121.779 18.7224 120.829C20.8814 114.349 22.8925 107.809 24.6895 101.209C27.1325 102.129 29.8324 101.87 32.1964 100.81C37.3094 98.5296 39.9664 93.3495 42.7714 88.8195C44.2624 86.4195 45.9174 84.0195 48.1604 82.2495C50.4204 80.4695 53.1454 79.3095 56.0024 78.9495C56.2194 78.9195 56.3904 78.7595 56.4794 78.5795C56.5954 78.6095 56.7104 78.6396 56.8264 78.6796C57.1324 78.7696 57.3175 78.3695 57.0255 78.2195C54.1755 76.7395 50.7685 76.2596 47.5855 76.2996C41.8795 76.3696 36.3004 78.5395 32.0714 82.3695C30.5894 83.7095 29.2824 85.2295 28.1664 86.8795C28.5204 85.2095 28.8544 83.5395 29.1604 81.8695C29.3164 81.5995 29.4685 81.3296 29.6295 81.0596C29.7745 80.8096 29.9374 80.5695 30.0874 80.3295C31.3444 79.2495 32.9364 78.5895 34.4544 77.9795C37.6664 76.6695 40.7854 75.1495 43.4984 72.9695C45.9874 70.9595 47.9974 68.4895 49.3964 65.6095C50.7064 62.9095 51.4925 59.9896 52.0075 57.0496C52.2685 55.5496 52.4474 54.0496 52.5884 52.5396C52.6574 51.7996 52.7214 51.0595 52.7614 50.3195C52.7694 50.1695 52.7795 50.0195 52.7885 49.8695C52.9875 49.2695 53.1705 48.6596 53.3225 48.0396C53.3705 47.8396 53.1884 47.7596 53.0424 47.7996C53.0644 47.5196 52.6374 47.4195 52.5194 47.6895C52.0234 48.8095 51.4154 49.8096 50.5314 50.6696C49.6764 51.5096 48.6855 52.1995 47.6765 52.8295C45.6855 54.0795 43.6025 55.1595 41.6455 56.4595C39.5965 57.8295 37.6474 59.3295 35.9224 61.0895C34.2614 62.7895 32.8374 64.7195 31.8074 66.8695C31.5274 67.4495 31.2875 68.0495 31.0725 68.6595C31.2455 66.9995 31.3994 65.3396 31.5194 63.6796C31.8664 63.0296 32.2224 62.3795 32.6664 61.7795C33.2704 60.9595 33.9534 60.1995 34.6704 59.4695C36.0564 58.0695 37.5454 56.7695 38.9584 55.3995C43.7694 50.7195 48.3624 45.2596 49.8694 38.5496C50.6414 35.1096 50.4625 31.5295 49.8225 28.0895C49.4895 26.2895 49.0314 24.5195 48.5134 22.7695C48.0834 21.3195 47.6435 19.8496 47.0855 18.4296C47.0255 18.0296 46.9574 17.6195 46.8754 17.2195C46.8604 17.1395 46.8074 17.0995 46.7454 17.0795C46.7104 16.7995 46.2925 16.7595 46.2285 17.0695C45.5095 20.5795 42.6204 22.9995 40.0914 25.2795C37.8754 27.2795 36.0125 29.4895 34.5985 32.1295C33.2315 34.6795 32.3064 37.4495 31.7094 40.2795C31.5784 40.8995 31.4784 41.5195 31.3814 42.1495C31.1504 39.6495 30.8504 37.1596 30.4594 34.6796C30.6074 34.6296 30.7384 34.5195 30.8004 34.3395C31.6904 31.7295 32.1795 28.9995 32.2675 26.2395C32.4255 21.3095 31.2555 16.3796 28.8565 12.0596C27.6315 9.85957 26.0964 7.83956 24.3194 6.04956C23.4264 5.14956 22.4724 4.31957 21.4594 3.55957C20.9284 3.15957 20.3824 2.77945 19.8124 2.43945C19.5354 2.26945 19.2634 2.10951 18.9744 1.99951C18.6654 1.48951 18.3495 0.989512 18.0305 0.499512C18.0205 0.459512 18.0154 0.419517 18.0054 0.379517C17.9804 0.289517 17.9235 0.249483 17.8565 0.219483C17.8285 0.179483 17.8024 0.129478 17.7734 0.089478C17.6394 -0.110522 17.3714 0.059522 17.4274 0.259522C17.3524 0.289522 17.2944 0.359454 17.3314 0.439454C17.3714 0.539454 17.4224 0.629493 17.4664 0.729493C17.6014 2.21949 17.5844 3.66954 17.3204 5.14954C17.0554 6.63954 16.6224 8.08955 16.1864 9.53955C15.4244 12.0696 14.6384 14.6396 14.6354 17.3096C14.6314 19.8696 15.4694 22.3295 16.7724 24.5095C19.6204 29.2895 24.5464 32.3095 29.3454 34.8395C30.1634 40.0695 30.6305 45.3696 30.7495 50.6696C30.7795 51.9996 30.7794 53.3195 30.7664 54.6495C30.5194 53.1995 30.2244 51.7495 29.8594 50.3195C28.4214 44.6895 26.1664 39.2895 22.5184 34.7195C20.8674 32.6595 18.9775 30.7696 16.8695 29.1696C15.8215 28.3796 14.7194 27.6595 13.5744 27.0095C12.9994 26.6795 12.4134 26.3795 11.8154 26.0995C11.1944 25.8095 10.6174 25.7295 9.95942 25.5895C9.79842 25.5595 9.68341 25.6095 9.60541 25.6895C9.29641 25.6095 9.02346 25.9996 9.24146 26.2896C9.24646 26.3496 9.27241 26.3995 9.32441 26.4395C9.33241 26.4995 9.34444 26.5495 9.37244 26.6095C9.76444 27.4295 10.1914 28.2195 10.5224 29.0695C10.8364 29.8695 11.0964 30.6995 11.3154 31.5295C11.7624 33.2295 12.0355 34.9795 12.2495 36.7195C12.9805 42.6795 13.1325 49.2795 17.0125 54.2295C18.6665 56.3395 20.8294 57.9395 23.1704 59.2095C25.0854 60.2495 27.1214 61.0996 29.1954 61.7996C29.3754 61.9796 29.5694 62.1395 29.7554 62.3195C29.7684 62.4195 29.7845 62.5095 29.8015 62.6195C29.8575 62.9395 29.8974 63.2695 29.9354 63.5995C30.0114 64.2495 30.0795 64.8996 30.0985 65.5596C30.1385 66.8996 29.9434 68.2196 29.8234 69.5496C29.8204 69.5796 29.8274 69.6095 29.8314 69.6395C29.7174 70.6595 29.5934 71.6795 29.4614 72.6995C29.0174 71.4295 28.4974 70.1895 27.8914 68.9995C25.5704 64.4095 22.1525 60.4596 17.9005 57.5596C16.2395 56.4296 14.4674 55.4595 12.6224 54.6595C8.91744 52.5195 4.80043 51.1095 0.547429 50.5695C0.220429 50.5295 -0.0865953 50.7995 0.0224047 51.1395C0.999405 54.2195 2.30144 57.1895 3.89844 59.9995C6.72844 64.9795 10.4944 69.4395 14.9674 73.0195C17.1814 74.7895 19.5694 76.3595 22.0994 77.6395C23.9254 78.5695 26.1874 79.4895 27.4024 81.1595ZM26.4984 31.7695C24.9414 30.8795 23.4284 29.9195 22.0494 28.7795C18.0194 25.4495 15.1974 20.6895 15.8214 15.3295C16.1224 12.7295 16.9704 10.2495 17.5914 7.71948C18.0014 6.04948 18.3554 4.27955 18.3034 2.53955C18.5304 3.10955 18.7284 3.68955 18.8754 4.28955C19.2084 5.62955 19.3315 7.02955 19.3535 8.40955C19.4335 13.2395 18.2464 18.2195 19.9324 22.8995C20.7894 25.2895 22.2445 27.3695 23.9345 29.2295C24.7435 30.1195 25.6094 30.9595 26.4984 31.7695ZM31.9564 48.4296C32.1024 42.4096 33.1714 36.1795 36.4324 31.0095C38.1094 28.3595 40.3974 26.3695 42.6234 24.1995C44.0024 22.8495 45.2814 21.3595 46.0554 19.6295C45.4544 22.3895 43.5424 24.7695 41.7354 26.8995C39.7474 29.2495 37.9874 31.6995 36.6044 34.4595C35.2794 37.0995 34.2885 39.9096 33.6555 42.7896C33.0165 45.6996 32.7685 48.6595 32.8615 51.6295C32.8955 52.7095 32.9375 53.7895 32.9005 54.8495C32.8665 55.0295 32.8424 55.2195 32.8714 55.3995C32.8104 56.3595 32.6744 57.3095 32.3834 58.2395C32.3514 58.2995 32.3195 58.3696 32.2885 58.4296C32.3365 57.0196 32.1194 55.5695 32.0544 54.1895C31.9614 52.2695 31.9104 50.3496 31.9564 48.4296ZM31.5284 70.6295C31.6094 70.2795 31.7014 69.9295 31.8084 69.5895C32.2044 68.3095 32.7565 67.0796 33.4185 65.9196C35.8725 61.6196 39.8424 58.4696 44.0054 55.9196C45.8864 54.7596 47.8814 53.7695 49.6484 52.4395C49.9264 52.2295 50.2024 51.9995 50.4724 51.7595C50.4624 51.7795 50.4534 51.7896 50.4434 51.8096C49.5804 52.9996 48.5764 54.0795 47.4904 55.0695C45.2844 57.0895 42.7414 58.6995 40.3514 60.4795C38.1614 62.1195 36.1174 63.9395 34.4284 66.0995C33.3204 67.5095 32.3524 69.0395 31.5284 70.6295ZM30.5484 61.1495C28.8774 58.4595 27.7494 55.4695 26.8414 52.4395C25.0734 46.5195 24.0144 40.2795 20.9144 34.8595C23.1334 37.4595 24.9564 40.3895 26.4204 43.4995C28.7054 48.3495 29.8784 53.5396 30.6614 58.8096C30.6284 59.5896 30.5924 60.3695 30.5484 61.1495ZM26.2434 88.1796C26.2274 88.2996 26.2094 88.4095 26.1934 88.5295C26.0674 89.4295 25.9554 90.3295 25.8414 91.2295C25.8094 91.3095 25.7774 91.3895 25.7454 91.4695C25.5754 90.4295 25.3054 89.4096 24.9224 88.4296C23.2764 84.1996 20.1335 80.6395 16.6295 77.8295C15.3845 76.8295 14.0684 75.9295 12.7004 75.1195C12.7224 75.1295 12.7455 75.1295 12.7675 75.1395C16.7315 76.5995 20.4985 78.6995 23.2285 81.9895C24.7185 83.7795 25.7884 85.9296 26.2434 88.1796ZM28.6624 88.4296C31.2314 84.0796 35.1964 80.6595 39.8964 78.8295C37.2474 80.1495 34.8384 81.9595 32.8204 84.1595C30.8044 86.3495 29.1394 88.8595 27.7824 91.5095C27.3124 92.4295 26.8914 93.3695 26.4984 94.3195C26.5094 94.2495 26.5204 94.1795 26.5314 94.0995C26.5914 93.8595 26.6424 93.6095 26.7014 93.3595C26.8584 92.8495 26.9734 92.3395 27.0554 91.8195C27.0654 91.7795 27.0744 91.7295 27.0844 91.6895C27.5384 90.5695 28.0464 89.4696 28.6624 88.4296ZM26.6035 71.3995C25.1885 67.4895 23.0144 63.8895 20.2424 60.8195C21.4224 61.8395 22.5314 62.9495 23.5344 64.1595C25.1064 66.0395 26.4795 68.0896 27.5645 70.2996C28.1015 71.3896 28.5734 72.5095 28.9774 73.6495C29.0654 73.8995 29.1414 74.1596 29.2174 74.4296C29.1684 74.7696 29.1254 75.1195 29.0734 75.4695C28.8684 76.8395 28.6404 78.2195 28.4044 79.5895C28.1574 76.7995 27.5585 74.0295 26.6035 71.3995Z" fill="#4D4C51"/>
</svg>
