<svg width="129" height="88" viewBox="0 0 129 88" fill="none" xmlns="http://www.w3.org/2000/svg">
<path d="M128.18 50.79C126.38 51.92 124.67 53.19 122.85 54.31C122.28 54.66 121.69 54.98 121.11 55.3C119.76 53.65 118.26 52.1099 116.73 50.6299C116.13 50.0399 115.51 49.4699 114.89 48.9099C114.83 48.8099 114.75 48.7199 114.62 48.6499C114.59 48.6299 114.56 48.6201 114.53 48.6001C113.53 47.7201 112.49 46.8701 111.4 46.1001C107.79 43.5401 103.58 41.6799 99.1301 41.3799C98.6101 41.3399 98.31 41.8 98.46 42.28C100.65 49.16 106.33 54.5999 113.32 56.4499C114.72 56.8199 116.13 57.0301 117.56 57.1101C117.47 57.1501 117.39 57.2 117.3 57.24C113.45 58.97 109.4 60.2299 105.24 60.9699C103.31 61.3199 101.36 61.5499 99.4001 61.6699C99.4301 61.6199 99.4601 61.58 99.4701 61.53C100.91 55.51 99.32 49.0001 95.57 44.1201C94.51 42.7401 93.2601 41.5099 91.8801 40.4499C91.6501 40.2799 91.2501 40.3499 91.1601 40.6499C89.2801 46.5799 90.3201 53.2199 93.7201 58.4099C94.5501 59.6899 95.5101 60.79 96.6401 61.78C91.9501 61.83 87.2601 61.25 82.7501 60.01C82.7501 60 82.7501 60 82.7501 60C82.9601 58.92 82.8901 57.8099 82.8601 56.7099C82.8301 55.6099 82.7601 54.5099 82.6701 53.4099C82.4901 51.1799 82.2001 48.95 81.8101 46.75C81.0501 42.41 79.9001 38.13 78.3701 33.99C78.1601 33.43 77.9501 32.8101 77.5701 32.3301C77.5601 32.3201 77.5601 32.31 77.5601 32.31C77.4801 32.1 77.3201 31.9899 77.1401 31.9399C77.1101 31.9199 77.0801 31.8801 77.0501 31.8601C76.3101 31.4201 75.4101 31.6599 74.8101 32.2199C74.1501 32.8299 73.9701 33.7601 73.8701 34.6101C73.7601 35.5801 73.7001 36.55 73.6801 37.52C73.5901 41.44 74.1601 45.3401 75.3201 49.0901C75.9601 51.1601 76.7901 53.1901 77.8001 55.1101C78.3001 56.0801 78.8501 57.0299 79.4401 57.9499C79.7301 58.3899 80.0201 58.85 80.3301 59.29C74.9701 57.5 70.1601 54.6999 65.6701 51.3999C65.7001 51.3499 65.7401 51.3 65.7501 51.24C65.7701 51.06 65.7101 50.93 65.6501 50.77C65.6401 50.73 65.6301 50.6899 65.6101 50.6499C65.5901 50.5799 65.5401 50.5299 65.5201 50.4699C65.4901 50.4299 65.4801 50.4199 65.5101 50.4499C65.5101 50.4399 65.5101 50.4199 65.5001 50.4099C65.5101 50.4399 65.5101 50.4299 65.5001 50.3899C65.4901 50.3499 65.4801 50.32 65.4701 50.29C65.4401 50.19 65.4201 50.13 65.4001 50.04C65.3701 49.86 65.3301 49.68 65.2901 49.51C65.3101 49.22 65.3301 48.9399 65.3501 48.6599C65.9801 46.0199 66.1501 43.22 66.0701 40.57C65.9601 36.87 65.2701 33.1899 64.0601 29.6999C63.5501 28.2399 63.0201 26.1801 61.3801 25.6001C59.8871 25.0701 58.7881 26.2301 58.4171 27.5801C57.9581 29.2401 58.0111 31.09 58.0681 32.79C58.1331 34.74 58.3971 36.6801 58.7981 38.5901C59.5081 41.9801 60.6291 45.2399 61.8901 48.4599C60.1351 47.0099 58.4221 45.4999 56.7421 43.9599C54.0031 41.4599 51.3151 38.8701 48.5761 36.3401C48.7541 36.3101 48.9101 36.1999 48.9761 35.9599C50.5561 30.0899 50.5581 23.83 48.8111 18C48.5261 17.05 48.0061 15.93 46.9021 15.77C45.6451 15.58 44.7701 16.67 44.4011 17.74C43.4321 20.52 43.4311 23.67 43.9241 26.55C44.3771 29.19 45.2211 31.9099 46.4111 34.3799C43.8881 32.1099 41.2991 29.9299 38.5701 27.9199C39.7011 19.8899 36.5671 11.3901 31.3031 5.35008C30.9681 4.96008 30.3511 5.12986 30.2671 5.62986C29.1451 12.4099 30.8201 19.91 34.9881 25.48C34.6281 25.25 34.2701 25.02 33.9041 24.79C31.1951 23.16 28.2641 21.7299 25.2141 20.6499C27.0491 15.0399 26.0921 8.72992 22.8471 3.81992C21.9371 2.43992 20.8361 1.08993 19.5231 0.0799337C19.3011 -0.100066 18.9111 0.0399435 18.8971 0.339943C18.7251 3.97994 18.9631 7.5701 19.8381 11.1201C20.6061 14.2301 21.7331 17.34 23.4431 20.07C23.1821 19.99 22.9171 19.9301 22.6541 19.8501C22.5601 19.6801 22.3831 19.5701 22.1401 19.6001C22.0651 19.6101 21.9931 19.6299 21.9201 19.6499C16.8751 18.3399 11.6091 18.06 6.53011 19.49C5.42411 19.8 4.34608 20.1799 3.29208 20.6399C3.03408 20.7499 3.20207 21.13 3.46407 21.04C7.92107 19.44 12.6221 19.16 17.2311 19.82C16.1191 20.17 15.0291 20.6201 13.9781 21.0801C12.2421 21.8401 10.5701 22.74 8.96407 23.75C5.63507 25.84 2.80211 28.43 0.111108 31.27C-0.190892 31.59 0.174065 32.1801 0.592065 32.0901C4.56106 31.1801 8.45411 29.6001 12.1241 27.8701C15.8321 26.1101 19.3841 24.0199 22.7491 21.6799C22.9681 21.5199 23.0161 21.3101 22.9691 21.1201C25.7021 21.9601 28.3491 23.0899 30.8311 24.4399C30.0781 24.4599 29.3201 24.5399 28.5931 24.6299C27.3411 24.7899 26.1101 25.0699 24.9021 25.4299C22.4601 26.1699 20.1351 27.2799 18.0251 28.7099C17.1171 29.3199 15.9341 30.0299 15.3161 30.9599C14.7601 31.7899 15.0661 32.9601 16.2281 32.8701C16.2991 32.8601 16.3711 32.8401 16.4431 32.8301C17.7881 33.1601 19.3701 33.0299 20.6841 32.8999C22.2941 32.7499 23.8891 32.3801 25.4171 31.8501C28.5671 30.7601 31.3851 28.8999 33.6471 26.4599C33.7191 26.3799 33.7611 26.2999 33.7841 26.2199C40.5351 30.4799 46.3431 36.04 52.1351 41.52C50.4071 41.37 48.6661 41.3501 46.9331 41.3701C44.7781 41.4001 42.6211 41.5399 40.4971 41.9199C36.9121 42.5499 33.3611 43.8699 30.4941 46.1599C29.3821 47.0399 27.4641 48.5799 28.4331 50.1999C29.2321 51.5299 31.1951 51.4299 32.5301 51.4199C36.1781 51.3999 39.8011 50.7199 43.2191 49.4499C47.1371 47.9899 50.5441 45.75 53.6661 43C53.6731 42.99 53.6751 42.98 53.6811 42.98C54.0171 43.29 54.3521 43.6099 54.6881 43.9199C57.3711 46.4299 60.1301 48.8999 63.0201 51.1799C63.1001 51.2999 63.2001 51.3799 63.3101 51.4099C66.0601 53.5599 68.9301 55.5399 71.9801 57.2199C70.7501 57.0999 69.5201 57.05 68.3301 57.01C65.7701 56.93 63.2001 57.02 60.6581 57.29C55.5521 57.83 50.5001 59.0699 45.7211 60.9499C44.5701 61.3999 43.4361 61.9 42.3671 62.53C41.4471 63.07 40.3961 63.7101 39.7461 64.5801C39.1351 65.3901 39.1741 66.47 40.1041 67.01C41.0551 67.57 42.4301 67.49 43.4911 67.52C48.9251 67.69 54.2601 66.47 59.4531 64.99C62.1601 64.22 64.9001 63.46 67.5501 62.49C70.0301 61.58 72.4301 60.38 74.3701 58.55C74.3901 58.53 74.4001 58.51 74.4201 58.48C75.6701 59.09 76.9501 59.6399 78.2701 60.1299C79.1601 60.4599 80.0601 60.75 80.9601 61.03C79.6001 61.33 78.2501 61.8 76.9701 62.25C74.8401 63.01 72.7601 63.95 70.7801 65.04C66.8801 67.18 63.3301 69.9099 60.2581 73.1399C59.4881 73.9399 58.7511 74.7799 58.0501 75.6499C57.4001 76.4599 56.6181 77.31 56.3191 78.32C56.0381 79.27 56.3391 80.3099 57.3601 80.6299C58.4221 80.9599 59.6811 80.34 60.6701 80C65.4401 78.37 70.0001 76.16 74.2701 73.5C78.3801 70.94 82.8401 67.9 85.1201 63.49C85.3201 63.25 85.5301 63.03 85.7201 62.79C85.8701 62.61 85.9101 62.43 85.8901 62.25C89.2801 62.93 92.74 63.26 96.19 63.26C89.55 66.66 83.6901 71.76 79.0501 77.56C77.5201 79.48 76.1101 81.5101 74.8401 83.6101C74.6101 84.0001 74.8401 84.71 75.4001 84.57C84.3301 82.26 92.3401 76.9001 97.9901 69.6201C99.5801 67.5601 100.97 65.36 102.15 63.04C102.17 63 102.17 62.9599 102.18 62.9199C102.53 62.8799 102.88 62.85 103.23 62.8C105.56 62.49 107.89 61.9999 110.18 61.3799C108.18 63.7299 106.84 66.6901 105.96 69.5901C104.88 73.1401 104.5 76.9001 104.83 80.6001C105.01 82.6801 105.45 84.7299 106.1 86.7199C106.26 87.2199 106.92 87.2001 107.21 86.8601C111.9 81.2401 114.45 73.9301 114.39 66.6201C114.37 64.5201 114.15 62.4399 113.7 60.3999C113.69 60.3599 113.67 60.34 113.66 60.31C118.27 58.71 122.65 56.47 126.5 53.52C127.35 52.88 128.09 52.1999 128.81 51.4199C129.19 51.0099 128.58 50.54 128.18 50.79ZM19.2591 20.8799C18.3561 21.3199 17.4551 21.7699 16.5581 22.2199C14.7281 23.1499 12.9201 24.1301 11.1191 25.1101C8.2541 26.6701 5.43411 28.31 2.64211 29.99C4.67211 27.9 7.01608 26.07 9.44808 24.52C11.0371 23.51 12.7031 22.6201 14.4151 21.8401C15.8731 21.1801 17.3861 20.6701 18.8721 20.0901C19.3381 20.1801 19.8021 20.2799 20.2641 20.3899C19.9301 20.5499 19.5941 20.7099 19.2591 20.8799ZM20.7301 10.8701C20.0421 8.0501 19.6551 5.10003 19.6521 2.18003C20.4201 5.01003 21.3331 7.79987 22.0591 10.6399C22.7971 13.5299 23.4091 16.4499 23.9271 19.3799C22.6301 16.6299 21.4531 13.8501 20.7301 10.8701ZM18.8551 30.8301C18.2801 31.0401 17.7051 31.2399 17.1301 31.4499C16.8781 31.5399 16.6261 31.6299 16.3731 31.7199C16.5671 31.6499 16.0471 31.8001 16.0771 31.8301C16.0211 31.7701 16.2801 31.4399 16.3061 31.3999C16.9481 30.6199 17.9981 29.9799 18.8341 29.4099C20.7041 28.1399 22.7591 27.1599 24.9051 26.4599C26.0891 26.0699 27.3031 25.7901 28.5291 25.5801C29.5251 25.4001 30.5261 25.35 31.5261 25.25C27.4181 27.37 23.1951 29.2401 18.8551 30.8301ZM32.2611 17.3C31.3171 14.34 30.9401 11.2201 31.1511 8.1201C32.0281 11.1301 32.9431 14.1201 33.8611 17.1101C34.3821 18.8101 34.9021 20.5099 35.4231 22.1999C35.6831 23.0499 35.9481 23.9 36.2141 24.74C36.2301 24.79 36.2451 24.8399 36.2611 24.8899C34.5291 22.5999 33.1571 20.1 32.2611 17.3ZM45.4131 28.28C44.7931 25.71 44.5291 23.0199 44.9161 20.3899C45.0081 19.7699 45.1321 19.14 45.3071 18.53C45.4661 17.98 45.6621 17.31 46.1841 16.99C46.2431 16.95 46.2991 16.9199 46.3551 16.8999C46.1091 18.3799 46.1281 19.9099 46.1421 21.4099C46.1571 22.9999 46.2221 24.5899 46.3421 26.1799C46.5371 28.7399 46.8541 31.3001 47.2851 33.8401C46.6011 32.0101 45.8741 30.2 45.4131 28.28ZM40.6631 45.9599C38.7471 46.5799 36.8251 47.17 34.8961 47.75C33.7771 48.08 32.6481 48.4 31.5281 48.74C31.4361 48.76 31.3441 48.78 31.2521 48.8C31.1501 48.82 31.0631 48.8599 30.9871 48.9099C30.9491 48.9199 30.9111 48.9399 30.8741 48.9499C30.7861 48.9599 30.6981 48.98 30.6101 48.99C30.5601 48.99 30.5161 48.98 30.4611 48.99C30.3241 49.02 30.1871 49.05 30.0501 49.07C29.8221 49.12 29.6631 49.2399 29.5671 49.3899C29.5041 49.4099 29.4411 49.4299 29.3781 49.4599C29.3151 49.2799 29.3231 49.06 29.4541 48.81C29.8421 48.05 30.6911 47.4399 31.3491 46.9199C33.9531 44.8799 37.1361 43.67 40.3641 43.05C42.5011 42.64 44.6791 42.4699 46.8521 42.4099C48.1811 42.3799 49.5101 42.3899 50.8391 42.3899C47.4661 43.6299 44.0831 44.8599 40.6631 45.9599ZM63.8701 50.04C61.2801 43.81 58.7911 37.16 59.1441 30.31C59.1921 29.37 59.1481 27.1999 60.2171 26.6599C61.1001 30.5399 61.9701 34.4101 62.6001 38.3301C63.2301 42.2601 63.7101 46.2099 64.0501 50.1799C63.9901 50.1299 63.9301 50.09 63.8701 50.04ZM47.1641 64.1599C44.9571 64.5899 42.6891 64.9099 40.5001 65.4599C40.6651 65.0699 41.2411 64.6799 41.5041 64.4699C41.9751 64.0999 42.4751 63.7599 42.9961 63.4599C43.9491 62.9199 44.9601 62.47 45.9801 62.06C50.3851 60.3 55.0211 59.13 59.7251 58.53C62.3901 58.19 65.0701 58.01 67.7601 58.03C69.0601 58.05 70.3501 58.0799 71.6401 58.1699C71.7401 58.1799 71.8401 58.1899 71.9501 58.1899C63.7601 60.4799 55.5011 62.4999 47.1641 64.1599ZM79.4501 55.49C78.5601 53.96 77.7801 52.3499 77.1301 50.6999C75.8401 47.3799 75.0601 43.87 74.8201 40.31C74.7001 38.52 74.7201 36.7199 74.8901 34.9399C74.9601 34.2499 75.0701 33.05 75.8401 32.73C76.0301 34.99 76.6001 37.2199 77.0401 39.4399C77.4901 41.7399 77.9701 44.03 78.4501 46.32C78.9201 48.62 79.3901 50.9099 79.8801 53.1999C80.1201 54.3099 80.3501 55.42 80.5901 56.52C80.6701 56.89 80.7501 57.2599 80.8201 57.6299C80.3401 56.9299 79.8801 56.22 79.4501 55.49ZM78.6201 64.99C76.9001 66.25 75.1601 67.4799 73.4001 68.6799C69.8701 71.0799 66.2501 73.3399 62.5401 75.4499C61.5401 76.0299 60.5191 76.5899 59.4981 77.1499C58.9551 77.4399 58.4011 77.72 57.8571 78.02C58.2061 77.41 58.7471 76.8501 59.1411 76.3601C59.7791 75.5601 60.4471 74.79 61.1401 74.04C63.9401 71.05 67.2001 68.4499 70.7501 66.3999C72.7401 65.2499 74.8201 64.2599 76.9601 63.4399C78.9201 62.6999 80.9601 62.23 82.9401 61.57C82.9901 61.59 83.0401 61.6001 83.0901 61.6101C81.5801 62.7101 80.1301 63.89 78.6201 64.99ZM92.09 52.1599C91.16 48.8799 91.0501 45.33 91.8001 42C92.3001 43.49 92.9601 44.9299 93.5001 46.4099C94.1101 48.0699 94.6601 49.7499 95.1601 51.4399C96.1101 54.6799 96.8401 57.98 97.3801 61.31C94.9601 58.69 93.06 55.6099 92.09 52.1599ZM81.8101 79.4699C80.1401 80.6499 78.4301 81.7999 76.7001 82.9099C80.9301 76.2599 86.5401 70.5299 93.1401 66.2199C94.7701 65.1499 96.4601 64.1599 98.1601 63.2199C98.2701 63.2099 98.3801 63.1999 98.4901 63.1999C93.7501 69.3999 88.1901 74.9499 81.8101 79.4699ZM111.87 61.27C111.39 65.49 110.7 69.67 109.74 73.81C109.26 75.89 108.75 77.95 108.14 80C107.85 80.99 107.52 81.9599 107.19 82.9399C107.14 83.0599 107.09 83.18 107.04 83.3C106.98 83.42 106.97 83.5299 106.97 83.6299C106.9 83.8499 106.83 84.07 106.76 84.29C105.25 78.08 106.08 71.4999 108.78 65.6999C109.53 64.0899 110.47 62.56 111.39 61.03C111.74 60.93 112.09 60.84 112.44 60.73C112.44 60.74 112.44 60.75 112.44 60.76C112.17 60.77 111.91 60.94 111.87 61.27ZM102.04 46.81C101.56 46.09 101.15 45.34 100.77 44.56C101.81 45.25 102.88 45.91 103.94 46.57C105.65 47.64 107.35 48.72 109.06 49.79C112.29 51.81 115.52 53.81 118.76 55.8C112.09 55.8 105.73 52.39 102.04 46.81Z" fill="#4D4C51"/>
</svg>
