<svg width="57" height="137" viewBox="0 0 57 137" fill="none" xmlns="http://www.w3.org/2000/svg">
<path d="M54.175 37.9329C52.655 35.8869 50.445 34.4459 47.945 33.8559C45.395 33.2539 42.695 33.6289 40.425 34.9159C38.115 36.2169 36.285 38.2239 34.915 40.4429C31.875 45.3609 31.0951 51.2639 30.7151 56.9039C30.6651 57.6719 30.6149 58.4379 30.5949 59.2079C30.5949 59.2509 30.605 59.2849 30.625 59.3119C30.095 59.9739 29.5651 60.6319 29.0451 61.2989C30.2251 53.1739 31.125 44.9979 31.395 36.7889C31.405 36.4999 31.405 36.2109 31.415 35.9229C36.295 32.2409 41.4151 27.9589 42.7451 21.7329C43.0651 20.2359 43.1149 18.6829 42.8549 17.1729C42.5849 15.6359 42.0252 14.1589 41.3252 12.7659C40.0052 10.1599 38.3251 7.67893 36.3051 5.54993C32.7051 1.74093 25.665 -2.78208 21.115 2.19392C19.025 4.47992 18.4351 7.84992 18.2551 10.8199C18.0651 14.0019 18.4751 17.1999 19.2851 20.2789C20.1051 23.3759 21.2951 26.3879 22.7551 29.2429C24.1151 31.8909 25.915 34.4609 28.685 35.8099C29.285 36.1029 29.9152 36.3139 30.5752 36.4559C30.3552 43.5889 29.645 50.7019 28.705 57.7749C27.655 56.5559 26.6051 55.3419 25.5551 54.1309C26.6551 51.4689 27.2851 48.6369 27.2151 45.7529C27.1551 43.1009 26.4551 40.4269 25.0051 38.1759C23.5551 35.9189 21.325 34.1899 18.955 32.9439C16.585 31.6919 13.895 30.9329 11.195 30.9629C8.77504 30.9899 6.43505 31.6849 4.45505 33.0409C2.60505 34.2999 1.09501 36.1219 0.415009 38.2469C-0.334991 40.5679 -0.0249129 43.0799 0.995087 45.2709C2.07509 47.5699 3.87513 49.4499 6.03513 50.7859C10.9951 53.8419 16.985 54.0279 22.655 54.1309C23.425 54.1449 24.185 54.1589 24.955 54.1789C24.965 54.1789 24.9651 54.1759 24.9751 54.1749C26.1951 55.5969 27.4049 57.0249 28.6049 58.4589C28.5749 58.6909 28.5451 58.9229 28.5151 59.1539C27.4651 66.7299 26.1351 74.2619 24.7851 81.7909C24.0651 80.8239 23.335 79.8609 22.615 78.8969C24.105 74.2809 25.2951 68.8419 23.0151 64.2759C21.0251 60.2649 16.6951 58.2029 12.5451 56.9899C10.1251 56.2819 7.52514 55.7529 5.04514 56.5089C2.89514 57.1669 1.23513 58.7579 0.785126 60.9669C0.315126 63.2479 0.975146 65.7479 1.80515 67.8769C2.65515 70.0679 3.97513 72.0449 5.78513 73.5749C9.66513 76.8499 14.8751 77.7919 19.7951 78.3289C20.4051 78.3959 21.015 78.4569 21.625 78.5189C22.635 79.8609 23.645 81.2049 24.645 82.5519C24.535 83.1699 24.4252 83.7879 24.3152 84.4059C23.0752 91.3419 21.8049 98.2759 20.3449 105.171C19.6749 104.176 18.9151 103.227 18.2451 102.223C17.8151 101.574 17.4051 100.914 17.0051 100.247C17.0551 100.239 17.0949 100.217 17.1049 100.161C17.6749 98.4999 18.065 96.8329 18.155 95.0789C18.255 93.3429 18.1251 91.5799 17.7351 89.8829C17.0451 86.8969 15.635 83.4489 12.625 82.0879C11.265 81.4729 9.60508 81.3349 8.23508 81.9919C6.91508 82.6219 6.03494 83.8699 5.59494 85.2179C4.60494 88.2679 5.60498 91.6179 7.38498 94.1819C9.47498 97.1839 12.935 99.0549 16.405 100.08C16.775 100.7 17.1651 101.313 17.5551 101.918C17.9951 102.584 18.455 103.241 18.925 103.887C19.345 104.471 19.7651 105.069 20.2551 105.608C20.0151 106.723 19.7851 107.84 19.5351 108.953C17.7051 117.13 15.5752 125.232 12.8152 133.156C12.4652 134.15 12.1151 135.141 11.7551 136.129C11.6851 136.309 11.9651 136.422 12.0351 136.243C15.1351 128.487 17.4951 120.448 19.4751 112.347C20.3151 108.912 21.0651 105.458 21.7851 101.995C22.2151 101.881 22.6549 101.753 23.0849 101.618C23.1049 101.639 23.125 101.654 23.155 101.656C27.995 101.931 32.965 102.463 37.705 101.186C39.735 100.639 41.7049 99.7709 43.3449 98.4519C44.9049 97.2019 46.1251 95.5339 46.7751 93.6549C47.4051 91.8279 47.4851 89.8139 46.7851 87.9939C46.0251 86.0409 44.4449 84.6049 42.3549 84.1619C40.3149 83.7279 38.105 84.1119 36.195 84.8699C34.295 85.6239 32.5649 86.8029 31.1049 88.2059C27.8349 91.3309 25.895 95.4909 24.205 99.5879C24.015 100.042 23.835 100.498 23.645 100.953C23.055 101.174 22.455 101.391 21.865 101.607C22.805 96.9899 23.6751 92.3569 24.5251 87.7249C24.9951 85.1589 25.465 82.5929 25.925 80.0259C26.285 79.8989 26.6351 79.7659 26.9851 79.6279C26.9851 79.6869 27.0152 79.7449 27.0752 79.7709C29.4652 80.7459 32.0349 81.4489 34.5849 81.8639C36.8749 82.2349 39.2151 82.3119 41.4951 81.8479C43.5051 81.4379 45.4652 80.6379 47.0652 79.3569C48.7252 78.0279 49.8651 76.2209 50.4851 74.2119C51.1351 72.1199 51.2951 69.9289 51.2651 67.7529C51.2551 66.6539 51.2851 65.4559 50.7951 64.4419C50.3551 63.5389 49.5151 62.9069 48.5551 62.6079C47.4351 62.2559 46.245 62.3499 45.115 62.6309C43.955 62.9189 42.8251 63.3369 41.7151 63.7829C39.5451 64.6589 37.4652 65.7629 35.5652 67.1179C31.9652 69.6889 28.9952 73.2569 27.5752 77.4499C27.4052 77.9619 27.255 78.4819 27.125 79.0059C27.125 79.0249 27.125 79.0399 27.125 79.0569C26.755 79.2299 26.3751 79.4009 26.0051 79.5759C27.0351 73.8409 28.035 68.0979 28.895 62.3359C28.915 62.1929 28.935 62.0499 28.955 61.9069C29.365 61.4359 29.765 60.9609 30.175 60.4859C30.215 60.5439 30.2749 60.5849 30.3549 60.6039C30.4349 60.6259 30.535 60.6289 30.625 60.6389C30.655 60.6419 30.6851 60.6459 30.7151 60.6489C30.7551 60.7229 30.825 60.7779 30.935 60.7809C33.985 60.8459 37.0751 60.4779 40.0551 59.8229C42.8051 59.2189 45.5552 58.3789 48.0652 57.1119C50.3952 55.9389 52.5552 54.3499 54.0752 52.2269C55.6052 50.0889 56.4951 47.4839 56.4951 44.8599C56.4851 42.3789 55.665 39.9339 54.175 37.9329Z" fill="#4D4C51"/>
</svg>
