<svg width="84" height="94" viewBox="0 0 84 94" fill="none" xmlns="http://www.w3.org/2000/svg">
<path d="M83.159 90.0215C80.209 91.9015 76.389 92.2814 73.009 91.6914C71.019 91.3514 69.0989 90.6215 67.3489 89.5915C70.4689 85.9915 72.669 81.6115 74.039 77.0615C74.749 74.7415 75.239 72.3414 75.489 69.9314C75.739 67.6414 75.8189 65.2915 75.4489 63.0115C75.1089 60.9215 74.3289 58.6114 72.6989 57.1814C71.9189 56.4914 70.8889 56.0515 69.8389 56.2815C68.8789 56.4815 68.119 57.1514 67.539 57.9014C66.089 59.7814 65.149 62.2114 64.519 64.4714C63.829 66.9014 63.489 69.4314 63.419 71.9514C63.279 77.5414 64.4189 83.0714 65.6889 88.4914C64.9389 87.9214 64.2289 87.3016 63.5789 86.6216C58.7289 81.5316 56.829 74.6716 55.779 67.8516C57.549 66.3716 59.179 64.7714 60.619 62.9614C62.169 61.0014 63.509 58.8714 64.649 56.6514C66.959 52.1614 68.429 47.2614 68.929 42.2314C69.179 39.7614 69.1889 37.2715 68.9589 34.7915C68.8489 33.7015 68.8089 32.3814 68.0889 31.4814C67.3889 30.6114 66.269 30.6014 65.389 31.2014C64.369 31.9114 63.6089 33.1314 62.9689 34.1714C62.2189 35.3814 61.589 36.6714 61.049 37.9814C59.899 40.7314 58.989 43.6014 58.179 46.4714C56.689 51.7914 55.659 57.2515 55.129 62.7615C55.089 62.3815 55.049 62.0113 55.009 61.6313C55.119 61.4213 55.1289 61.1514 54.9389 60.9714C54.4989 56.8114 54.079 52.6315 53.169 48.5315C52.909 47.3615 52.589 46.2015 52.229 45.0615C53.629 43.2415 54.4889 40.9115 55.2189 38.7715C55.9989 36.4815 56.569 34.1114 56.919 31.7214C57.619 26.8814 57.419 21.8915 56.259 17.1315C55.759 15.0815 55.079 12.2914 52.629 11.8414C50.659 11.4814 49.3589 13.2715 48.7189 14.8715C47.8889 16.9715 47.4989 19.3515 47.2189 21.5815C46.9289 23.9115 46.869 26.2616 47.019 28.6016C47.169 31.0316 47.569 33.4415 48.169 35.8015C46.289 32.6015 43.999 29.6515 41.389 27.0215C41.389 26.9615 41.399 26.9116 41.399 26.8516C41.449 26.7616 41.4589 26.6515 41.4389 26.5415C41.4389 26.5215 41.4389 26.5014 41.4389 26.4814C41.5589 26.3814 41.6289 26.2315 41.5989 26.0415C41.5689 25.8915 41.539 25.7415 41.509 25.5915C41.609 24.1315 41.5589 22.6614 41.4389 21.2014C41.2789 19.1614 40.939 17.1415 40.429 15.1615C39.419 11.2015 37.7989 7.39143 35.5789 3.97143C34.5489 2.38143 33.2189 0.471431 31.0789 0.601431C29.0389 0.721431 28.219 2.82143 28.359 4.60143C28.509 6.64143 29.219 8.71147 29.879 10.6415C30.519 12.5415 31.3089 14.3915 32.2189 16.1815C33.3989 18.4715 34.799 20.6414 36.379 22.6714C34.839 21.5414 33.219 20.5015 31.539 19.5915C29.929 18.7215 28.269 17.9515 26.559 17.2815C25.649 11.1515 21.8989 5.4615 16.9589 1.8015C15.7989 0.941504 14.3589 -0.168525 12.8289 0.0214747C11.3989 0.201475 10.559 1.5914 10.539 2.9414C10.519 4.5814 11.5389 6.0215 12.4389 7.3015C13.4389 8.7315 14.569 10.0715 15.809 11.2915C17.519 12.9615 19.4089 14.4215 21.4389 15.6415C16.0589 14.2815 10.4189 13.9314 4.93891 14.8214C3.82891 15.0014 2.71898 15.2615 1.62898 15.5215C1.21898 15.6215 1.32897 16.2515 1.74897 16.1715C7.58897 15.1515 13.689 15.3215 19.499 16.6315C17.069 16.5715 14.619 16.7614 12.249 16.9914C10.259 17.1814 8.26903 17.4515 6.30903 17.8115C5.35903 17.9915 4.40894 18.1814 3.46894 18.4014C2.64894 18.5814 1.73897 18.7213 0.998973 19.1413C0.278973 19.5513 -0.0610176 20.2216 0.00898237 20.8716C-0.00101763 20.9216 -0.00100787 20.9715 0.0189921 21.0115C0.108992 21.4615 0.388977 21.8914 0.878977 22.2014C1.51898 22.6114 2.26897 22.7614 2.99897 22.9214C3.80897 23.1014 4.63894 23.2415 5.46894 23.3415C8.93894 23.7715 12.469 23.5915 15.879 22.8415C19.479 22.0415 22.899 20.6113 25.999 18.6313C26.979 19.0113 27.949 19.4313 28.889 19.8913C36.249 23.4513 42.459 29.3216 46.609 36.3616C43.039 33.2616 38.249 31.6615 33.899 30.0415C27.999 27.8215 21.8489 25.7416 15.4589 25.8616C14.0089 25.8916 12.569 26.0315 11.149 26.3015C9.879 26.5515 8.48891 26.8915 7.68891 28.0015C6.96891 29.0215 7.05903 30.3014 7.92903 31.1914C8.81903 32.0714 10.119 32.5813 11.229 33.1313C16.749 35.8713 22.619 37.9013 28.649 39.1413C35.229 40.4913 41.979 40.8916 48.669 40.3516C49.829 42.9116 50.749 45.5715 51.379 48.3115C52.019 51.0815 52.419 53.8814 52.739 56.7014C51.829 54.9514 50.669 53.3213 49.309 51.8813C45.569 47.9113 40.5589 45.4215 35.3189 44.0815C33.9289 43.7315 32.5189 43.4514 31.0989 43.2314C30.0789 43.0814 29.029 42.9814 28.009 43.2014C27.039 43.4014 26.1389 43.9115 25.6989 44.8215C25.1789 45.8815 25.469 47.0715 26.019 48.0615C26.639 49.1815 27.529 50.1716 28.389 51.1216C29.219 52.0416 30.089 52.9114 31.009 53.7414C32.919 55.4714 34.9989 56.9915 37.2189 58.2815C42.1289 61.1315 47.739 62.9014 53.419 63.1914C53.909 67.7114 54.589 72.4015 56.009 76.7915C55.459 76.1215 54.869 75.4716 54.289 74.8616C52.989 73.4816 51.569 72.2316 50.039 71.1216C48.529 70.0216 46.919 69.0815 45.239 68.2715C43.699 67.5315 41.8489 66.5715 40.0989 66.5915C38.4189 66.6015 37.1889 67.8415 37.0889 69.5115C36.9789 71.3415 38.209 72.8416 39.369 74.1116C41.979 76.9716 45.0589 79.4015 48.4489 81.2815C52.1289 83.3215 56.109 84.7113 60.259 85.3913C60.649 85.9413 61.069 86.4714 61.509 86.9914C63.979 89.8514 67.219 91.9915 70.859 93.0215C74.279 93.9915 78.359 94.1215 81.529 92.2615C82.269 91.8315 82.979 91.3015 83.639 90.7515C84.009 90.4515 83.589 89.7515 83.159 90.0215ZM16.549 2.71142C18.779 4.38142 20.709 6.45146 22.279 8.75146C23.609 10.7015 24.5789 12.8514 25.3189 15.0814C23.7089 12.6114 21.9289 10.2515 19.9589 8.04149C18.7989 6.73149 17.579 5.47147 16.309 4.26147C15.149 3.16147 13.9389 1.97141 12.5889 1.08141C13.9189 0.561411 15.569 1.98142 16.549 2.71142ZM12.129 1.35143C13.259 2.55143 14.579 3.58144 15.749 4.73144C16.979 5.94144 18.139 7.20145 19.259 8.49145C21.109 10.6314 22.7889 12.9115 24.3289 15.2815C22.0889 13.3715 19.969 11.3215 17.999 9.13146C16.889 7.90146 15.8289 6.64141 14.8189 5.33141C14.3389 4.71141 13.859 4.0814 13.399 3.4414C12.939 2.8014 12.509 2.11147 11.979 1.52147C12.029 1.46147 12.069 1.40143 12.129 1.35143ZM17.9589 11.7615C16.7989 10.7715 15.7189 9.68148 14.7089 8.53148C13.6989 7.37148 12.6689 6.11143 11.9689 4.72143C11.5789 3.96143 11.329 2.82144 11.679 1.98144C11.989 2.58144 12.389 3.1414 12.769 3.6914C13.269 4.4014 13.769 5.10148 14.289 5.78148C15.309 7.13148 16.369 8.44141 17.489 9.70141C19.119 11.5714 20.8689 13.3415 22.6989 15.0215C21.0189 14.0815 19.4289 13.0015 17.9589 11.7615ZM1.68891 19.9814C2.42891 19.6314 3.30895 19.5115 4.09895 19.3415C4.96895 19.1415 5.83894 18.9615 6.71894 18.8015C8.46894 18.4815 10.229 18.2215 11.999 18.0315C13.939 17.8115 15.899 17.7015 17.859 17.6315C19.519 17.5715 21.1889 17.6015 22.8489 17.5415C19.3089 18.2215 15.769 18.8515 12.179 19.3315C10.179 19.5915 8.17902 19.8315 6.16902 20.0415C5.15902 20.1415 4.159 20.2415 3.149 20.3415C2.509 20.4015 1.78896 20.4015 1.10896 20.5015C1.19896 20.3015 1.39891 20.1114 1.68891 19.9814ZM7.99897 22.3315C6.42897 22.2815 4.85892 22.1115 3.31892 21.8315C2.70892 21.7315 2.03896 21.6415 1.48896 21.3215C1.41896 21.2815 1.35902 21.2314 1.29902 21.1914C1.88902 21.1614 2.49902 21.0815 3.04902 21.0315C4.05902 20.9515 5.06892 20.8615 6.06892 20.7615C8.11892 20.5615 10.1689 20.3315 12.2089 20.0615C16.1389 19.5615 20.079 19.0215 23.979 18.3215C19.149 21.0915 13.559 22.4815 7.99897 22.3315ZM30.2089 2.09142C30.3689 1.96142 30.5389 1.87151 30.7089 1.81151C32.4589 4.62151 34.229 7.39146 35.669 10.3815C37.209 13.6015 38.439 16.9614 39.369 20.4014C39.489 20.8614 39.5889 21.3215 39.6989 21.7815C39.6389 21.6215 39.599 21.4615 39.539 21.3115C38.969 19.6715 38.319 18.0514 37.619 16.4614C36.209 13.2414 34.579 10.1115 32.729 7.13146C31.799 5.63146 30.8389 4.12146 29.7089 2.76146C29.8289 2.51146 29.9889 2.29142 30.2089 2.09142ZM29.4389 4.54149C29.4089 4.09149 29.419 3.66146 29.519 3.26146C30.549 4.92146 31.669 6.52141 32.659 8.20141C33.759 10.0914 34.7889 12.0315 35.7089 14.0215C36.6289 16.0215 37.439 18.0613 38.169 20.1313C38.219 20.2913 38.2689 20.4516 38.3289 20.6116C38.2189 20.4616 38.109 20.3013 37.999 20.1413C36.899 18.4913 35.859 16.8014 34.869 15.0814C32.909 11.6814 31.199 8.16145 29.519 4.62145C29.499 4.57145 29.4689 4.55149 29.4389 4.54149ZM30.109 7.60143C29.969 7.05143 29.759 6.38151 29.609 5.68151C30.959 9.04151 32.5889 12.2914 34.3389 15.4614C35.2989 17.1814 36.2989 18.8915 37.3389 20.5715C37.8189 21.3415 38.3189 22.1113 38.8189 22.8813C38.9689 23.1113 39.129 23.3415 39.279 23.5815C39.359 23.8615 39.439 24.1414 39.519 24.4214C35.089 19.6714 31.779 13.8914 30.109 7.60143ZM34.239 6.03148C33.339 4.53148 32.369 3.07143 31.269 1.72143C31.759 1.72143 32.269 1.92141 32.679 2.20141C33.479 2.77141 34.029 3.64141 34.559 4.45141C36.619 7.60141 38.209 11.0614 39.239 14.6914C39.799 16.6514 40.1889 18.6714 40.4389 20.7014C39.0689 15.5514 36.979 10.6015 34.239 6.03148ZM10.649 27.5915C12.009 27.2715 13.4189 27.0915 14.8189 27.0315C20.7289 26.7915 26.479 28.5114 31.979 30.4914C35.189 31.6514 38.539 32.7815 41.629 34.3315C39.089 33.3515 36.4489 32.5714 33.8489 31.9414C28.5189 30.6414 23.089 29.8813 17.639 29.3813C14.619 29.1113 11.569 28.8015 8.53901 28.7815C8.98901 28.1515 10.009 27.7415 10.649 27.5915ZM8.31892 29.3716C10.9489 29.7316 13.619 29.8315 16.269 30.0715C19.009 30.3215 21.749 30.6115 24.479 31.0115C29.729 31.7815 34.909 32.9615 39.879 34.8215C41.679 35.4915 43.3989 36.2813 45.0889 37.1413C35.4389 36.5013 25.8789 34.8116 16.5889 32.1216C13.8389 31.3316 11.1289 30.2913 8.33894 29.6413C8.32894 29.5513 8.30892 29.4616 8.31892 29.3716ZM15.4589 33.8015C14.1589 33.2615 12.869 32.6615 11.609 32.0415C10.999 31.7415 10.399 31.4316 9.80903 31.1116C9.38903 30.8816 8.91897 30.6014 8.61897 30.2114C10.749 31.2214 13.049 31.9216 15.299 32.6016C17.819 33.3816 20.369 34.0814 22.929 34.7014C28.029 35.9314 33.189 36.8615 38.389 37.5115C41.369 37.8815 44.3489 38.1415 47.3389 38.3215C47.4889 38.4115 47.649 38.4915 47.799 38.5715C47.889 38.7415 47.9889 38.9115 48.0689 39.0915C36.9989 39.9315 25.6989 38.1015 15.4589 33.8015ZM48.909 17.8514C49.249 16.4114 49.649 14.3215 50.929 13.3115C50.439 14.8815 50.1989 16.5714 49.9489 18.1614C49.6389 20.1414 49.429 22.1313 49.309 24.1313C49.079 28.0613 49.169 31.9914 49.609 35.9014C49.659 36.3814 49.719 36.8615 49.779 37.3415C47.749 31.0715 47.389 24.3014 48.909 17.8514ZM51.429 41.0515C51.339 40.5515 51.219 40.0615 51.129 39.5715C50.949 38.5915 50.779 37.6016 50.629 36.6116C50.349 34.6716 50.159 32.7115 50.059 30.7515C49.859 26.8515 50.019 22.9615 50.539 19.0915C50.689 17.9915 50.859 16.8915 51.059 15.8015C51.239 14.8415 51.4689 13.8915 51.5989 12.9215C51.9189 12.8215 52.239 12.8215 52.549 12.9015C52.539 12.9115 52.519 12.9214 52.519 12.9414C52.279 15.4314 52.249 17.9514 52.159 20.4514C52.069 22.9914 51.969 25.5415 51.879 28.0815C51.789 30.5915 51.719 33.0916 51.639 35.6016C51.589 37.3916 51.4689 39.2015 51.4389 41.0115C51.4289 41.0215 51.429 41.0415 51.429 41.0515ZM52.619 35.7915C52.669 33.2415 52.729 30.6913 52.769 28.1413C52.809 25.6413 52.849 23.1316 52.889 20.6216C52.929 18.0916 53.029 15.5615 52.929 13.0315C53.049 13.0915 53.169 13.1815 53.289 13.2615C53.239 13.3115 53.1989 13.3814 53.2089 13.4714C54.2789 20.9914 54.069 28.6315 52.609 36.0615C52.609 35.9715 52.609 35.8815 52.619 35.7915ZM52.4389 42.9814C52.4589 42.7214 52.469 42.4614 52.479 42.2014C52.499 42.1414 52.499 42.0815 52.489 42.0115C52.509 41.6915 52.529 41.3715 52.539 41.0415C54.309 34.1815 54.979 27.0514 54.499 19.9714C54.359 17.8514 54.099 15.7515 53.739 13.6515C53.819 13.7415 53.919 13.8215 53.989 13.9115C54.659 14.8315 54.9189 16.0415 55.1889 17.1315C56.2889 21.5315 56.559 26.1213 56.049 30.6313C55.759 33.1513 55.219 35.6415 54.429 38.0515C54.049 39.2315 53.609 40.3915 53.109 41.5315C52.899 42.0215 52.6689 42.5014 52.4389 42.9814ZM30.279 44.3215C31.549 44.4615 32.8289 44.7115 34.0689 45.0015C38.9789 46.1415 43.799 48.2414 47.529 51.6914C49.949 53.9414 51.859 56.7215 53.059 59.7815C53.069 59.8315 53.0689 59.8914 53.0789 59.9414C51.5889 57.5114 49.309 55.5714 46.999 53.9114C43.249 51.2214 39.189 48.9214 35.029 46.9014C33.079 45.9514 31.0889 45.0715 29.0689 44.2715C29.4789 44.2615 29.889 44.2815 30.279 44.3215ZM39.629 50.5615C41.619 51.6815 43.569 52.8716 45.479 54.1116C47.059 55.1516 48.619 56.2615 49.999 57.5615C50.769 58.2915 51.4689 59.0914 52.0889 59.9414C44.8989 57.3214 38.159 53.6013 32.109 48.8913C31.139 48.1413 30.199 47.3715 29.269 46.5715C28.609 45.9915 27.959 45.3615 27.269 44.7915C31.519 46.4415 35.659 48.3315 39.629 50.5615ZM28.9689 49.9814C28.0989 49.0014 25.939 46.6615 26.799 45.2515C27.299 45.7815 27.849 46.2714 28.369 46.7414C29.199 47.4914 30.039 48.2214 30.899 48.9314C32.589 50.3314 34.339 51.6513 36.149 52.8913C39.709 55.3213 43.4989 57.4314 47.4389 59.2114C49.2789 60.0414 51.1689 60.7714 53.0689 61.4414C53.1389 61.5514 53.209 61.6615 53.269 61.7715L53.279 61.9414C44.029 61.2314 35.1189 56.9914 28.9689 49.9814ZM66.919 40.8516C67.309 38.5816 67.609 36.2814 67.729 33.9714C67.749 34.1914 67.769 34.3915 67.779 34.5315C68.029 36.8715 68.0289 39.2415 67.8289 41.5815C67.4289 46.2615 66.159 50.8516 64.159 55.1016C62.419 58.7916 60.049 62.2815 57.269 65.3215C57.309 65.1615 57.339 64.9915 57.379 64.8315C59.529 61.6215 61.319 58.1716 62.809 54.6016C64.649 50.1816 66.089 45.5816 66.919 40.8516ZM67.0789 32.0615C66.8989 32.1115 66.759 32.2515 66.739 32.5015C66.449 37.2915 65.829 42.0014 64.639 46.6614C63.449 51.3014 61.7089 55.8015 59.4689 60.0415C58.9289 61.0815 58.339 62.1016 57.749 63.1216C58.019 61.8216 58.2889 60.5214 58.5889 59.2214C59.1189 56.9314 59.689 54.6516 60.279 52.3716C61.469 47.8616 62.8489 43.4114 64.3389 38.9914C65.1389 36.6314 66.059 34.3114 66.769 31.9214C66.889 31.9514 66.9889 31.9915 67.0789 32.0615ZM56.259 65.5515C56.209 65.6315 56.159 65.7115 56.109 65.7915C56.469 60.4915 57.2189 55.2315 58.4689 50.0615C59.1389 47.2715 59.949 44.5115 60.879 41.8015C61.739 39.2615 62.679 36.7214 64.129 34.4514C64.479 33.9114 64.859 33.3813 65.279 32.8813C65.509 32.6013 65.8289 32.2215 66.1889 32.0315C65.3289 33.9215 64.6489 35.8915 63.9489 37.8415C63.1689 40.0615 62.4289 42.2915 61.7189 44.5315C60.2989 49.0515 58.999 53.6114 57.889 58.2214C57.299 60.6514 56.689 63.0915 56.259 65.5515ZM42.309 75.2815C41.079 74.1615 39.6989 72.9214 38.8389 71.4814C38.6389 71.1414 38.489 70.7215 38.409 70.2815C41.199 73.2715 44.3689 75.9315 47.7089 78.2815C49.4289 79.4915 51.209 80.6214 53.029 81.6614C53.589 81.9814 54.1489 82.2715 54.7089 82.5715C50.1389 81.0115 45.889 78.5315 42.309 75.2815ZM56.309 82.4114C55.339 81.9314 54.3889 81.4113 53.4389 80.8813C51.6789 79.8813 49.949 78.8014 48.269 77.6614C44.809 75.3114 41.589 72.6515 38.499 69.8215C38.459 69.7815 38.3989 69.7715 38.3489 69.7715C38.3389 69.5715 38.349 69.3714 38.389 69.1714C39.129 69.5714 39.9389 69.8614 40.6889 70.2214C41.7189 70.7114 42.729 71.2215 43.729 71.7815C45.589 72.8215 47.399 73.9715 49.119 75.2515C50.849 76.5415 52.499 77.9614 54.049 79.4714C55.109 80.5014 56.079 81.6114 57.029 82.7214C56.779 82.6214 56.539 82.5214 56.309 82.4114ZM51.989 76.3616C49.279 74.1816 46.349 72.2514 43.259 70.6514C42.399 70.2114 41.529 69.7814 40.649 69.4014C39.989 69.1114 39.2989 68.7815 38.5989 68.5715C38.8289 68.1815 39.2189 67.8915 39.8289 67.8215C40.5789 67.7315 41.349 68.0015 42.059 68.2515C42.839 68.5415 43.619 68.8614 44.379 69.2114C45.909 69.9114 47.379 70.7614 48.779 71.7014C50.379 72.7714 51.889 73.9915 53.279 75.3215C54.599 76.6015 55.6889 78.0713 56.9489 79.3913C57.4289 80.5513 57.989 81.6715 58.609 82.7715C56.669 80.4015 54.349 78.2616 51.989 76.3616ZM74.289 62.7314C74.709 64.8614 74.6589 67.0614 74.4689 69.2114C74.2789 71.4714 73.869 73.7013 73.259 75.8913C72.839 77.4213 72.3089 78.9116 71.6889 80.3616C73.2589 75.1916 73.7889 69.7016 73.2089 64.3516C72.9689 62.1816 72.5489 60.0514 71.9589 57.9514C73.3089 59.0514 73.979 61.1614 74.289 62.7314ZM70.529 81.7414C70.149 82.9414 69.6989 84.1315 69.1989 85.3015C68.8389 85.9115 68.4689 86.5216 68.0889 87.1216C68.0889 86.9016 68.069 86.6814 68.049 86.4614C68.399 85.4614 68.699 84.4414 68.989 83.4414C69.579 81.3814 70.0689 79.3014 70.4489 77.2014C71.2289 72.8714 71.549 68.4715 71.389 64.0815C71.349 62.8615 71.269 61.6414 71.159 60.4314C71.099 59.8114 71.069 59.1414 70.989 58.4914C73.019 66.0314 72.899 74.2914 70.529 81.7414ZM66.8389 87.9714C64.8089 79.1314 62.9189 69.5615 66.9489 61.0115C67.3289 60.2015 67.929 58.9714 68.729 58.1514C68.569 58.7414 68.4589 59.3514 68.3389 59.9514C68.1389 60.9614 67.959 61.9815 67.789 63.0015C67.469 65.0015 67.219 67.0215 67.029 69.0415C66.639 73.0715 66.519 77.1414 66.679 81.1914C66.719 82.2614 66.779 83.3314 66.869 84.4014C66.939 85.2814 66.949 86.2416 67.129 87.1216C67.029 87.4016 66.9389 87.6814 66.8389 87.9714ZM68.5789 82.3616C68.3589 83.2016 68.119 84.0316 67.859 84.8716C67.859 84.8416 67.8589 84.8215 67.8489 84.7915C67.7589 83.7715 67.679 82.7414 67.619 81.7114C67.499 79.7214 67.4489 77.7314 67.4589 75.7414C67.4889 71.8014 67.7689 67.8614 68.3289 63.9514C68.4889 62.8614 68.669 61.7614 68.859 60.6714C69.039 59.6514 69.309 58.6215 69.409 57.5915C69.559 57.5115 69.699 57.4313 69.859 57.3813C69.879 58.2713 70.1089 59.1815 70.2089 60.0515C70.3389 61.1515 70.429 62.2516 70.489 63.3516C70.599 65.4516 70.599 67.5614 70.499 69.6614C70.289 73.9514 69.6589 78.2016 68.5789 82.3616Z" fill="#4D4C51"/>
</svg>
