<svg width="59" height="75" viewBox="0 0 59 75" fill="none" xmlns="http://www.w3.org/2000/svg">
<path d="M12.6617 52.7696C14.4707 51.8196 15.9617 50.2195 17.2887 48.6995C18.7397 47.0295 20.0208 45.2196 21.0928 43.2896C23.0388 39.7796 24.3038 35.9195 24.8088 31.9495C26.5978 43.3595 29.9647 54.5195 34.9327 64.9495C35.6787 66.5195 36.4577 68.0697 37.2687 69.6097C38.1037 71.1797 38.9298 72.7495 40.0048 74.1795C40.3218 74.5995 40.9207 74.1195 40.7317 73.6795C40.0967 72.2195 39.2957 70.8495 38.5467 69.4395C37.8337 68.0995 37.1448 66.7495 36.4808 65.3895C35.1218 62.5895 33.8627 59.7397 32.7067 56.8597C30.3887 51.0697 28.4017 45.1096 26.9617 39.0496C26.2537 36.0596 25.6577 33.0496 25.1517 30.0296C25.1597 30.0196 25.1687 30.0196 25.1767 30.0096C27.7317 37.9196 32.7008 44.9595 39.1788 50.1995C40.1668 50.9995 41.1887 51.7596 42.2497 52.4596C43.1367 53.0396 44.0468 53.6495 45.0778 53.9495C45.9338 54.1995 46.8987 54.2195 47.6487 53.6795C48.5517 53.0195 48.7287 51.9097 48.6127 50.8597C48.3277 48.3197 46.8717 45.8797 45.4567 43.8097C43.8647 41.4797 42.0788 39.2796 40.1578 37.2096C38.8118 35.7696 37.3868 34.3997 35.9048 33.0897C41.5628 36.0997 47.4837 38.5895 53.7847 39.6995C55.5227 40.0095 58.3077 40.4197 58.8727 38.1197C59.3647 36.1197 57.4638 34.2797 56.1268 33.1097C52.2288 29.6897 47.1827 27.9195 42.1747 26.8895C40.0877 26.4595 37.9717 26.1295 35.8497 25.8995C41.6627 25.1495 47.2948 22.5696 51.6578 18.7696C53.2408 17.3996 54.9138 15.7795 55.9598 13.9395C56.9618 12.1795 57.0687 9.86968 54.9947 8.83968C52.7697 7.72968 50.2497 9.0896 48.2137 10.0096C45.7607 11.1196 43.3747 12.3796 41.0707 13.7696C37.7247 15.7896 34.4528 18.1095 31.4598 20.6995C32.6518 19.4095 33.7957 18.0695 34.8757 16.6795C36.2607 14.8995 37.5528 13.0397 38.7258 11.1097C39.7228 9.4697 40.6327 7.68964 41.0057 5.79964C41.3467 4.05964 41.4448 1.65958 39.8378 0.489585C38.2898 -0.630415 36.3688 0.38959 35.0488 1.36959C31.5608 3.93959 29.3087 8.16962 27.5317 12.0296C26.3887 14.5196 25.4417 17.1497 24.7347 19.8297C24.2857 14.5897 22.0548 9.45965 18.5488 5.55965C17.1348 3.98965 15.3948 2.48961 13.2048 2.26961C11.2528 2.07961 9.42872 3.0395 8.69372 4.8995C7.87972 6.9495 8.64176 9.14966 9.45476 11.0697C10.3338 13.1397 11.4528 15.0995 12.7358 16.9395C13.7088 18.3395 14.7668 19.6695 15.8998 20.9195C15.6218 20.7795 15.3427 20.6296 15.0627 20.4996C12.0647 19.0896 8.59377 18.2597 5.26977 18.5897C3.65777 18.7597 2.07178 19.3497 1.00378 20.6097C-0.0232248 21.8297 -0.305244 23.4295 0.358756 24.8895C1.84376 28.1595 6.12376 28.4595 9.22576 28.6895C11.2468 28.8395 13.2788 28.8396 15.3008 28.7096C16.3518 28.6296 17.4527 28.5595 18.5387 28.4195C12.3457 32.5095 8.04075 39.4195 6.79375 46.6895C6.47275 48.5695 6.32774 51.0096 7.82274 52.4596C9.17874 53.7796 11.0967 53.5996 12.6617 52.7696ZM40.6097 47.8597C42.5177 49.6597 44.5188 51.3496 46.5438 53.0196C46.5528 53.0196 46.5618 53.0196 46.5698 53.0296C46.3118 53.0996 46.0218 53.1096 45.7028 53.0396C44.6998 52.8396 43.8258 52.2195 42.9918 51.6695C42.0208 51.0195 41.0717 50.3297 40.1537 49.6097C36.5047 46.7397 33.3358 43.2395 30.7648 39.3795C28.6818 36.2495 26.9837 32.8296 25.7087 29.2696H25.7098C26.2638 30.1896 26.8477 31.0896 27.4277 31.9796C28.6607 33.8696 29.9667 35.7096 31.3367 37.4996C34.1527 41.1896 37.2347 44.6697 40.6097 47.8597ZM37.1197 35.8197C39.0307 37.6397 40.8227 39.5995 42.4747 41.6595C44.0747 43.6595 45.6487 45.7497 46.7137 48.0897C47.1867 49.1297 47.6997 50.3496 47.6597 51.5096C47.6467 51.8896 47.5437 52.2096 47.3807 52.4596C47.3657 52.3096 47.2958 52.1697 47.1498 52.0597C43.5188 49.3297 40.1738 46.1795 37.0568 42.8795C33.9198 39.5695 31.0398 36.0096 28.4678 32.2396C27.5098 30.8296 26.6287 29.3795 25.7247 27.9395C25.7257 27.9295 25.7288 27.9195 25.7288 27.8995C26.2938 28.0395 26.8577 28.1797 27.4217 28.3197C30.8967 30.4797 34.1557 32.9897 37.1197 35.8197ZM57.0577 38.9095C56.0637 39.2995 54.8377 38.9997 53.8337 38.8097C49.1407 37.9397 44.6657 36.2495 40.3877 34.1595C37.4947 32.7495 34.7077 31.1496 31.9487 29.4996C38.4737 31.2896 44.8977 33.3995 51.2007 35.8895C53.3657 36.7495 55.5208 37.6295 57.6998 38.4295C57.5508 38.6295 57.3447 38.7995 57.0577 38.9095ZM39.2598 27.4195C44.0458 28.1795 48.9098 29.4397 53.0358 32.0697C54.0358 32.7097 54.9957 33.4196 55.8727 34.2196C56.6197 34.8996 57.3528 35.6197 57.7678 36.5597C57.9818 37.0497 58.0487 37.5696 57.9097 38.0196C54.1097 36.0596 50.0728 34.5196 46.0588 33.0496C41.7488 31.4696 37.3827 30.0296 32.9877 28.7096C31.5287 28.2696 30.0597 27.8596 28.5857 27.4696C27.9977 27.1096 27.4087 26.7495 26.8207 26.3995C27.1337 26.3995 27.4457 26.3995 27.7577 26.3995C27.8837 26.4795 28.0398 26.5196 28.2308 26.4696C28.2848 26.4496 28.3378 26.4395 28.3928 26.4195C29.5488 26.4595 30.7037 26.5097 31.8577 26.5897C34.3337 26.7597 36.8068 27.0295 39.2598 27.4195ZM55.0887 10.4896C55.6567 11.2196 55.4127 12.2096 55.0337 12.9696C54.1757 14.6896 52.6147 16.1595 51.2057 17.4395C48.2127 20.1495 44.6368 22.2196 40.8148 23.5196C38.1728 24.4196 35.4527 24.9097 32.7037 25.0597C39.0957 22.7897 45.0677 19.3596 50.2327 14.9596C51.1127 14.2096 51.9698 13.4297 52.7988 12.6197C53.5368 11.9097 54.3197 11.1697 54.9277 10.3197C54.9827 10.3797 55.0407 10.4296 55.0887 10.4896ZM39.1537 16.5096C41.2037 15.1396 43.3267 13.8796 45.5127 12.7396C46.5887 12.1796 47.6797 11.6395 48.7837 11.1395C49.8397 10.6595 50.9208 10.1197 52.0508 9.82967C52.7318 9.65967 53.5508 9.60971 54.2308 9.86971C53.6038 10.4097 53.0368 11.0197 52.4398 11.5797C51.7038 12.2797 50.9557 12.9597 50.1857 13.6197C48.6297 14.9497 46.9988 16.1897 45.3038 17.3297C41.9528 19.5997 38.3547 21.5096 34.5937 23.0096C32.7797 23.7296 30.9188 24.3197 29.0378 24.8497C32.2008 21.7997 35.4857 18.9596 39.1537 16.5096ZM39.6628 5.57967C39.2898 7.30967 38.4717 8.87949 37.5807 10.3895C36.5347 12.1595 35.3847 13.8696 34.1637 15.5196C32.1967 18.1896 29.9947 20.6496 27.6667 22.9896C28.1027 21.8496 28.5398 20.6997 29.0278 19.5797C29.9798 17.3797 31.0088 15.2197 32.1108 13.0897C33.1978 10.9997 34.3638 8.93952 35.5748 6.91952C36.1808 5.89952 36.8057 4.89951 37.4427 3.90951C37.9377 3.12951 38.5157 2.35963 38.9437 1.53963C40.0917 2.16963 39.8938 4.50967 39.6628 5.57967ZM27.8857 14.6695C29.3067 11.1095 31.1477 7.44962 33.6697 4.52962C34.3317 3.76962 35.0667 3.05955 35.8747 2.44955C36.4997 1.97955 37.2498 1.47961 38.0518 1.38961C37.4828 2.07961 37.0027 2.87969 36.5207 3.59969C35.8647 4.57969 35.2258 5.57967 34.6028 6.57967C33.3588 8.58967 32.2047 10.6496 31.1117 12.7396C30.0337 14.8096 29.0248 16.9096 28.0828 19.0396C27.2328 20.9596 26.3467 22.9295 25.6717 24.9395C25.4927 25.1095 25.3187 25.2896 25.1387 25.4596C25.1147 25.4196 25.0768 25.3997 25.0508 25.3697C25.0498 25.3597 25.0498 25.3397 25.0488 25.3297C25.6628 21.6797 26.5077 18.1295 27.8857 14.6695ZM12.4078 3.44955C14.5008 3.29955 16.2147 4.77957 17.5367 6.21957C19.8907 8.79957 21.6528 11.9196 22.6818 15.2496C23.5568 18.0796 23.9228 21.0797 23.8218 24.0597C23.6268 24.0897 23.4577 24.1897 23.3077 24.3097C21.5467 20.7897 19.6578 17.3295 17.6558 13.9395C16.6078 12.1595 15.5257 10.4095 14.4117 8.66952C13.8547 7.79952 13.2888 6.93968 12.7158 6.08968C12.2478 5.38968 11.7418 4.31955 10.9468 3.94955C11.3488 3.67955 11.8318 3.49955 12.4078 3.44955ZM15.0757 18.3597C13.8197 16.7497 12.7278 15.0196 11.7858 13.2096C10.8798 11.4696 9.88676 9.55969 9.59576 7.59969C9.39776 6.25969 9.78075 4.91949 10.7107 4.13949C10.7757 4.97949 11.5168 5.77957 11.9658 6.46957C12.5318 7.32957 13.0898 8.18965 13.6398 9.05965C14.7608 10.8397 15.8487 12.6295 16.9017 14.4495C18.9547 17.9895 20.8537 21.6196 22.6357 25.2996C22.5767 25.3696 22.5127 25.4396 22.4687 25.5196C22.4577 25.5496 22.4548 25.5697 22.4448 25.5897C19.6928 23.5097 17.2007 21.0797 15.0757 18.3597ZM1.55675 22.0597C2.26475 20.6797 3.77476 20.0697 5.23376 19.8697C8.16176 19.4797 11.3288 20.1797 14.0228 21.3097C16.4418 22.3297 18.4677 23.8197 20.3407 25.5597C19.3687 25.3497 18.3847 25.1796 17.4137 25.0096C15.6807 24.6996 13.9398 24.4596 12.1918 24.2596C8.65476 23.8696 5.11273 23.7395 1.55773 23.6795C1.45973 23.6795 1.37873 23.6996 1.30773 23.7396C1.21273 23.1896 1.27175 22.6197 1.55675 22.0597ZM16.2618 27.3995C14.6868 27.5595 13.0998 27.6297 11.5168 27.5997C9.95278 27.5697 8.38876 27.4596 6.83776 27.2596C5.32576 27.0596 3.62674 26.7696 2.45074 25.7096C2.13574 25.4296 1.87673 25.0996 1.67473 24.7496C5.12673 24.6196 8.60277 24.8095 12.0378 25.1495C13.7478 25.3195 15.4537 25.5396 17.1537 25.7896C18.5527 26.0096 19.9428 26.3096 21.3428 26.5196C21.4128 26.5896 21.4838 26.6596 21.5538 26.7296C21.5278 26.7396 21.5018 26.7496 21.4758 26.7596C21.3758 26.7096 21.2607 26.6795 21.1177 26.6895C19.4917 26.8395 17.8908 27.2395 16.2618 27.3995ZM7.99877 47.3597C8.57277 43.3597 10.1537 39.5195 12.4267 36.1995C14.7347 32.8195 17.7778 29.9997 21.2358 27.8297C21.2738 27.8197 21.3158 27.8096 21.3538 27.7996C21.5018 27.7496 21.6007 27.6597 21.6717 27.5597C21.8227 27.4697 21.9707 27.3796 22.1227 27.2896C22.1767 27.3396 22.2388 27.3697 22.3038 27.3697C22.3358 27.5497 22.3678 27.7195 22.4238 27.8895C22.5348 28.2295 22.6837 28.5795 22.8677 28.9095C20.8337 32.4995 18.9457 36.1796 16.8337 39.7396C14.5217 43.6296 11.9667 47.3597 9.41173 51.0997C9.01473 51.6797 9.90572 52.2195 10.3237 51.6795C13.1087 48.0595 15.5657 44.1796 17.8747 40.2496C19.8897 36.8196 21.8497 33.2797 23.3627 29.5797C23.4777 29.6997 23.5957 29.8195 23.7317 29.9195C23.7407 29.9295 23.7528 29.9295 23.7618 29.9395C23.2528 37.6795 19.6868 45.2295 13.8508 50.3895C12.7728 51.3395 11.0907 52.5597 9.55974 52.0597C7.68074 51.4497 7.77277 48.9297 7.99877 47.3597Z" fill="#4D4C51"/>
</svg>
