<svg width="76" height="60" viewBox="0 0 76 60" fill="none" xmlns="http://www.w3.org/2000/svg">
<path d="M74.8147 0.139376C74.5067 0.479376 74.2416 0.869351 73.9606 1.23935C73.8906 1.32935 73.8166 1.41937 73.7456 1.50937C71.1656 3.27937 67.9546 3.73932 65.2656 5.32932C62.7176 6.82932 61.1016 9.60939 60.8206 12.5294C60.7426 13.3394 60.7586 14.1593 60.8886 14.9593C61.0106 15.7193 61.2036 16.5493 61.6126 17.2093C59.0616 20.0093 56.4016 22.6994 53.6486 25.2994C53.9336 24.9094 54.2187 24.5094 54.5037 24.1194C55.4597 22.7894 56.4407 21.4794 57.3687 20.1294C58.1317 19.0194 58.8636 17.7894 58.9796 16.4194C59.1006 14.9894 58.5106 13.6194 57.5946 12.5394C57.0476 11.8994 56.3946 11.3594 55.6926 10.8994C55.0586 10.4794 54.4006 10.0793 53.6876 9.81931C53.6436 9.66931 53.4736 9.62933 53.3776 9.71933C53.2186 9.70933 53.0976 9.88938 53.2446 10.0194C53.2576 10.0294 53.2727 10.0394 53.2857 10.0494C53.2827 10.0694 53.2817 10.0893 53.2777 10.1093C50.9337 10.6093 49.6167 12.9594 49.2407 15.1694C49.0167 16.4894 49.0417 17.8294 49.0877 19.1594C49.1397 20.6594 49.2487 22.1594 49.4157 23.6494C49.5067 24.4594 49.6147 25.2793 49.7407 26.0793C49.8067 26.5093 49.8776 26.9393 49.9536 27.3593C50.0196 27.7293 50.0567 28.1294 50.1947 28.4894C50.1677 28.5094 50.1406 28.5394 50.1126 28.5594C48.3016 30.1694 46.4416 31.7193 44.5546 33.2293C44.5286 33.2493 44.5017 33.2594 44.4757 33.2794C44.2397 33.4094 43.9987 33.5493 43.7567 33.6893C43.8527 33.5593 43.9527 33.4393 44.0487 33.3193C44.5317 32.7193 44.9967 32.0993 45.4287 31.4593C46.2737 30.2093 46.9966 28.8694 47.4406 27.4194C48.2446 24.7994 48.0906 21.8694 46.2916 19.6794C45.4106 18.6094 44.2147 17.8293 42.8407 17.5793C42.6127 17.5393 42.4137 17.7393 42.4317 17.9593C41.3937 17.9693 40.4486 18.5394 39.7556 19.3094C38.8916 20.2794 38.5076 21.5793 38.3676 22.8393C38.0586 25.6393 38.5097 28.5693 39.3877 31.2293C39.6427 31.9993 39.9407 32.7493 40.2807 33.4893C40.4597 33.8793 40.6507 34.2594 40.8537 34.6294C41.0417 34.9794 41.2117 35.3494 41.5037 35.6294C39.5157 37.1394 37.4966 38.6194 35.4356 40.0394C34.9706 40.3494 34.4967 40.6593 34.0277 40.9793C34.0457 40.9393 34.0647 40.8993 34.0827 40.8593C34.4887 40.2193 34.8867 39.5694 35.2597 38.9094C36.0637 37.4794 36.7606 35.9994 37.2316 34.4294C38.0546 31.6794 38.0546 28.6094 36.7966 25.9894C36.1916 24.7294 35.2776 23.5593 34.0656 22.8393C33.9916 22.6793 33.8267 22.6094 33.6737 22.6394C33.5697 22.6194 33.4806 22.6894 33.4356 22.7794C33.4036 22.8294 33.3806 22.8793 33.3826 22.9493C32.1516 22.9393 30.8936 23.5493 29.9846 24.3193C28.9286 25.2293 28.1437 26.4394 27.7437 27.7694C26.7807 30.9794 27.8006 34.3493 29.0726 37.3193C29.4786 38.2693 29.9177 39.1994 30.3397 40.1394C30.5417 40.5894 30.7407 41.0393 30.9307 41.4893C31.0927 41.8793 31.2057 42.3394 31.4857 42.6494C29.1367 44.1594 26.7416 45.5993 24.3126 46.9693C24.4056 46.8393 24.4956 46.7093 24.5816 46.5893C24.9746 46.0393 25.3287 45.4493 25.6367 44.8493C26.2537 43.6293 26.6867 42.3193 26.9177 40.9793C27.4057 38.1593 26.9257 35.2094 25.6027 32.6594C25.2317 31.9494 24.8046 31.2694 24.3096 30.6294C23.8036 29.9794 23.2376 29.3093 22.5526 28.8393C22.3556 28.7093 22.0667 28.9094 22.1577 29.1194C20.9237 29.0894 19.5497 29.5093 18.5437 30.2193C17.4247 31.0193 16.8786 32.2393 16.9216 33.5993C16.9696 35.1493 17.5857 36.6994 18.0167 38.1694C18.5167 39.8794 19.0167 41.5794 19.5167 43.2894C19.8027 44.2694 20.0877 45.2393 20.3737 46.2193L20.8017 47.6794C20.9017 48.0294 20.9836 48.3893 21.1046 48.7293C20.5256 49.0393 19.9506 49.3594 19.3676 49.6594C16.6086 51.0794 13.8037 52.4194 10.9627 53.6794C8.09666 54.9394 5.16767 56.0393 2.26967 57.2193C1.56667 57.5093 0.867639 57.7993 0.174639 58.1093C-0.164361 58.2593 0.0366701 58.7294 0.38167 58.6394C3.41267 57.8594 6.32763 56.6294 9.20363 55.4194C12.1086 54.1894 14.9727 52.8693 17.7907 51.4493C19.0547 50.8093 20.3036 50.1493 21.5476 49.4793C21.5526 49.4793 21.5536 49.4893 21.5596 49.4893C22.2966 49.9293 23.0646 50.2894 23.7606 50.7994C24.4246 51.2994 25.0447 51.8494 25.6297 52.4294C26.9177 53.7194 28.0496 55.1494 29.3486 56.4194C31.5376 58.5694 34.6326 60.4394 37.7916 59.4194C38.5246 59.1894 39.2226 58.7994 39.7896 58.2694C40.3056 57.7994 40.8236 57.1593 40.9716 56.4493C41.0756 56.3393 41.1727 56.2293 41.2617 56.1093C41.4177 56.0793 41.5557 55.9594 41.5387 55.7494C41.5367 55.7294 41.5306 55.7093 41.5286 55.6893C41.9846 54.8593 42.1637 53.8493 42.0957 52.9593C41.9707 51.3393 41.0276 49.8394 39.7966 48.8094C38.4296 47.6694 36.7126 47.0694 34.9796 46.7594C33.1006 46.4194 31.1597 46.3494 29.2597 46.5194C28.0827 46.6194 26.9156 46.8293 25.7686 47.1093C27.9056 45.8693 30.0157 44.5894 32.0877 43.2494C32.0737 43.3094 32.1056 43.3894 32.1796 43.3994C33.7726 43.5394 35.3537 43.6093 36.8927 44.0993C38.4357 44.5793 39.8187 45.3694 41.0857 46.3694C42.3297 47.3494 43.4936 48.4393 44.8756 49.2293C46.2686 50.0293 47.9447 50.4694 49.5457 50.1594C50.9847 49.8794 52.2966 48.9993 52.9826 47.6893C53.2076 47.2593 53.3317 46.7993 53.3877 46.3393C53.4677 46.3193 53.5206 46.2294 53.4616 46.1394C53.4476 46.1194 53.4287 46.1093 53.4137 46.0893C53.4737 45.0893 53.1917 44.0593 52.6847 43.1893C51.8717 41.7893 50.4946 40.8093 49.0786 40.0893C47.6116 39.3393 46.0156 38.8094 44.3856 38.5594C42.3066 38.2494 40.1397 38.4193 38.1527 39.0893C40.0547 37.7193 41.9276 36.3093 43.7656 34.8593C43.7426 34.9293 43.7556 35.0093 43.8316 35.0693C46.6736 37.5493 49.9256 39.5893 53.2606 41.3393C54.7796 42.1393 56.4427 42.8894 58.1997 42.7594C59.8187 42.6394 61.2556 41.7294 62.3186 40.5394C63.4296 39.2994 64.2577 37.6593 64.4337 35.9893C64.6027 34.3793 64.0667 32.8794 62.9267 31.7394C60.5157 29.3394 56.5997 29.0994 53.4317 29.6594C51.5137 29.9894 49.6696 30.6393 47.9086 31.4593C48.2566 31.1693 48.6067 30.8693 48.9517 30.5693C50.7287 29.0393 52.4726 27.4593 54.1776 25.8393C54.2436 25.8493 54.3147 25.8493 54.3917 25.8193C54.6857 25.6993 54.9696 25.5494 55.2526 25.3994C55.6956 25.5394 56.1707 25.6193 56.6237 25.6893C57.2657 25.7893 57.9137 25.8394 58.5617 25.8694C59.8787 25.9394 61.1996 25.9093 62.5156 25.8393C63.8516 25.7593 65.1956 25.6493 66.5236 25.4793C67.7736 25.3293 69.0616 25.0394 70.0996 24.2894C70.5906 23.9294 71.0147 23.4893 71.3277 22.9693C71.5387 22.6193 71.7346 22.1994 71.7706 21.7794C71.8306 21.7794 71.8897 21.7794 71.9497 21.7694C72.1647 21.7594 72.1547 21.4494 71.9597 21.4094C71.8897 21.3994 71.8176 21.3894 71.7476 21.3694C71.7416 21.3494 71.7396 21.3194 71.7326 21.2894C71.7126 21.2194 71.6706 21.1694 71.6176 21.1294C71.2636 20.2694 70.7036 19.3994 70.0736 18.7494C69.3186 17.9594 68.3226 17.4293 67.2106 17.4693C65.8396 17.5193 64.5737 18.3093 63.4127 18.9593C62.1467 19.6793 60.9047 20.4293 59.6897 21.2193C59.0267 21.6593 58.3717 22.0994 57.7257 22.5594C57.4797 22.7394 57.2266 22.9093 56.9766 23.0893C58.8196 21.2393 60.6257 19.3594 62.3667 17.4094C62.4287 17.3494 62.4897 17.2693 62.5517 17.1993C65.4497 17.1793 68.6236 16.6794 70.8316 14.6694C73.0346 12.6594 73.3827 9.59933 73.9187 6.83933C74.1017 5.88933 74.2846 4.94936 74.4686 3.99936C74.5556 3.54936 74.6436 3.09939 74.7326 2.64939C74.7676 2.46939 74.8136 2.27933 74.8546 2.08933C74.9046 1.97933 74.9556 1.85935 75.0026 1.73935C75.1586 1.34935 75.3136 0.959317 75.4866 0.579317C75.6766 0.159317 75.1247 -0.210624 74.8147 0.139376ZM24.7396 32.4793C25.4216 33.6793 25.9097 35.0194 26.1657 36.3794C26.6487 38.9494 26.2976 41.6294 25.2056 43.9994C25.0606 44.3194 24.9026 44.6294 24.7326 44.9294C24.8576 44.4994 24.9676 44.0694 25.0676 43.6594C25.4236 42.2194 25.6076 40.7394 25.6306 39.2494C25.6716 36.6394 25.2216 33.9394 24.1566 31.5394C24.3636 31.8394 24.5586 32.1593 24.7396 32.4793ZM22.3826 29.3894C22.7646 29.8194 23.1656 30.2294 23.5266 30.6794C23.4996 30.7094 23.4827 30.7594 23.5017 30.7994C24.5997 33.4894 25.2346 36.2993 25.1466 39.2193C25.1026 40.6593 24.8927 42.0893 24.5277 43.4893C24.3427 44.1893 24.1146 44.8893 23.8466 45.5693C23.7036 45.9293 23.5417 46.2794 23.3897 46.6394C23.4927 46.1894 23.5917 45.7394 23.6737 45.2794C23.9027 44.0094 24.0437 42.7293 24.1117 41.4393C24.2457 38.8793 24.0936 36.2994 23.6336 33.7694C23.5036 33.0594 23.3487 32.3494 23.1737 31.6494C23.0017 30.9494 22.8646 30.1694 22.5206 29.5394C22.4876 29.4794 22.4366 29.4394 22.3806 29.4094C22.3816 29.3994 22.3806 29.3894 22.3826 29.3894ZM21.9597 29.6993C22.0347 30.2993 22.2727 30.8893 22.4267 31.4793C22.5897 32.0993 22.7317 32.7294 22.8557 33.3694C23.0957 34.5894 23.2656 35.8293 23.3646 37.0693C23.5666 39.5993 23.4676 42.1194 23.1096 44.6294C23.0116 45.3194 22.8907 46.0093 22.7487 46.6893C22.6587 47.1193 22.5877 47.5493 22.5167 47.9793C22.4357 48.0193 22.3536 48.0693 22.2716 48.1093C22.3196 47.9393 22.3176 47.7693 22.3236 47.5693C22.3336 47.1793 22.3416 46.7994 22.3386 46.4194C22.3326 45.6194 22.3076 44.8294 22.2636 44.0294C22.1796 42.5094 22.0476 40.9793 21.8446 39.4593C21.4346 36.3993 20.7196 33.3693 19.7196 30.4493C19.7066 30.4093 19.6847 30.3793 19.6637 30.3493C20.3827 30.0293 21.1817 29.8693 21.9597 29.6993ZM21.7426 48.3894C21.6886 48.1994 21.6266 48.0193 21.5706 47.8293L21.2186 46.6294C20.9836 45.8294 20.7497 45.0293 20.5147 44.2393C20.0457 42.6393 19.5756 41.0393 19.1066 39.4493C18.6606 37.9293 18.1347 36.4094 17.7877 34.8694C17.4997 33.5894 17.4707 32.2093 18.4317 31.1993C18.6217 30.9993 18.8296 30.8393 19.0466 30.6993C20.0206 33.5993 20.7627 36.5793 21.2487 39.6093C21.4867 41.0893 21.6617 42.5793 21.7487 44.0793C21.7927 44.8493 21.8197 45.6094 21.8297 46.3794C21.8347 46.7294 21.8397 47.0793 21.8407 47.4393C21.8417 47.7293 21.8066 48.0294 21.9456 48.2894C21.8776 48.3194 21.8096 48.3594 21.7426 48.3894ZM39.2586 57.7093C38.7786 58.1393 38.2106 58.4594 37.6016 58.6694C36.2196 59.1394 34.7326 58.9194 33.4096 58.3694C30.3006 57.0594 28.3517 54.1594 25.9867 51.8994C25.3457 51.2894 24.6697 50.7193 23.9287 50.2293C23.3237 49.8393 22.6536 49.4494 21.9426 49.2594C22.0516 49.2094 22.1616 49.1493 22.2706 49.0893C22.2786 49.0893 22.2797 49.1093 22.2907 49.1093C22.8977 49.2093 23.5526 49.0093 24.1646 48.9793C24.8166 48.9393 25.4657 48.9394 26.1157 48.9994C27.4317 49.1194 28.7247 49.4394 29.9597 49.9094C32.4857 50.8594 34.7336 52.4093 36.8176 54.0993C37.4286 54.5993 38.0287 55.1094 38.6217 55.6194C38.9027 55.8694 39.1826 56.1193 39.4616 56.3593C39.6276 56.5093 39.7877 56.6794 39.9677 56.7994C39.7737 57.1294 39.5606 57.4393 39.2586 57.7093ZM33.6666 47.3193C36.7296 47.6493 40.4717 48.8694 41.4367 52.1794C41.6597 52.9494 41.6617 53.7794 41.4627 54.5494C41.4427 54.6294 41.4066 54.6894 41.3826 54.7594C40.8986 52.6294 39.4857 50.7793 37.6547 49.5793C35.1557 47.9393 32.1236 47.4893 29.1876 47.5693C28.1716 47.5993 27.1616 47.6893 26.1536 47.8193C28.6076 47.2293 31.1546 47.0493 33.6666 47.3193ZM34.8236 48.8994C37.8646 49.9594 40.5676 52.4494 40.8546 55.8094C40.8306 55.8394 40.8137 55.8794 40.7887 55.9194C40.6417 55.8594 40.4606 55.9093 40.3646 56.0793C40.3596 56.0893 40.3557 56.0993 40.3507 56.1093C40.2657 56.0293 40.1777 55.9494 40.0897 55.8794C39.8097 55.6294 39.5297 55.3794 39.2487 55.1394C38.7017 54.6694 38.1497 54.1993 37.5877 53.7393C36.4847 52.8393 35.3456 51.9793 34.1336 51.2193C31.8156 49.7893 29.2357 48.7093 26.4997 48.4393C26.0307 48.3993 25.5556 48.3794 25.0816 48.3894C28.3436 48.0394 31.6756 47.7994 34.8236 48.8994ZM35.2246 41.6494C38.0746 40.5594 41.2247 40.2293 44.2177 40.8593C45.7527 41.1893 47.2286 41.7594 48.5886 42.5394C49.2776 42.9394 49.9326 43.3894 50.5496 43.8894C50.6696 43.9894 50.7796 44.0993 50.8966 44.1993C50.5866 44.0193 50.2706 43.8493 49.9506 43.6893C48.6376 43.0193 47.2626 42.4993 45.8446 42.1093C43.0076 41.3293 40.0176 41.0993 37.0946 41.4393C36.4036 41.5193 35.7177 41.6394 35.0377 41.7894C35.0977 41.7394 35.1636 41.6994 35.2246 41.6494ZM37.0097 29.8193C37.1517 31.8993 36.6527 33.9193 35.8617 35.8193C36.0247 35.1293 36.1606 34.4393 36.2636 33.7293C36.4796 32.2493 36.5547 30.7494 36.4867 29.2494C36.4517 28.4894 36.3816 27.7293 36.2736 26.9693C36.2506 26.8093 36.2287 26.6393 36.2047 26.4693C36.6607 27.5293 36.9307 28.6593 37.0097 29.8193ZM31.8767 41.8694C31.8397 41.7794 31.7996 41.6893 31.7606 41.5993C31.5876 41.1793 31.4067 40.7694 31.2207 40.3694C30.8677 39.5894 30.4987 38.8294 30.1417 38.0494C29.4617 36.5794 28.8197 35.0894 28.4177 33.5194C27.7067 30.7394 27.8047 27.5793 29.8277 25.3493C30.3137 24.8093 30.9007 24.3394 31.5457 24.0194C32.1577 23.6994 32.7866 23.5693 33.4506 23.4793C34.2606 28.6093 34.0227 33.8894 32.7357 38.9294C32.4827 39.9194 32.1717 40.8894 31.8767 41.8694ZM32.7246 41.4493C32.6766 41.5193 32.6237 41.5994 32.5717 41.6694C32.8267 40.9794 33.0496 40.2694 33.2456 39.5594C33.6086 38.2594 33.9017 36.9293 34.1237 35.5893C34.5667 32.9293 34.7277 30.2194 34.6007 27.5194C34.5407 26.2294 34.4096 24.9593 34.2196 23.6893C34.7456 24.1693 35.2117 24.6994 35.5977 25.2994C35.6097 25.8894 35.7597 26.5093 35.8277 27.0893C35.9127 27.8293 35.9637 28.5594 35.9807 29.2994C36.0147 30.7494 35.9177 32.1994 35.6997 33.6294C35.4817 35.0594 35.1397 36.4693 34.6677 37.8393C34.5147 38.2793 34.3447 38.7194 34.1657 39.1494C33.9267 39.5594 33.6816 39.9593 33.4296 40.3493C33.1986 40.7193 32.9626 41.0793 32.7246 41.4493ZM52.6256 45.9893C52.6086 46.3293 52.5486 46.6693 52.4226 46.9893C51.9256 48.2793 50.6837 49.1594 49.3487 49.3894C46.0997 49.9694 43.7066 47.4694 41.3496 45.6794C40.0246 44.6794 38.5686 43.9193 36.9716 43.4493C35.9836 43.1593 34.9216 42.9593 33.8726 42.9593C34.3026 42.8293 34.7346 42.7194 35.1716 42.6294C36.6786 42.2994 38.2187 42.1394 39.7597 42.1394C42.8237 42.1294 45.8907 42.7593 48.7157 43.9393C49.5097 44.2693 50.2756 44.6593 51.0316 45.0693C51.4086 45.2693 51.7746 45.4993 52.1466 45.7093C52.3056 45.7993 52.4646 45.8993 52.6256 45.9893ZM43.1956 39.2694C44.7346 39.3794 46.2497 39.7493 47.6737 40.3393C49.0547 40.9093 50.4506 41.6693 51.4356 42.8193C51.8666 43.3293 52.2197 43.9393 52.4287 44.5893C52.1367 44.2793 51.7996 43.9993 51.4956 43.7293C51.0076 43.3093 50.4926 42.9293 49.9556 42.5693C48.8556 41.8393 47.6746 41.2394 46.4276 40.7994C43.8716 39.8994 41.1196 39.6893 38.4566 40.1893C37.9076 40.2893 37.3776 40.4393 36.8546 40.5993C38.7846 39.5793 40.9706 39.1194 43.1956 39.2694ZM42.4447 31.8994C42.3877 32.4794 42.3237 33.0594 42.2547 33.6394C42.2397 33.6694 42.2217 33.6993 42.2077 33.7293C42.1577 33.8293 42.1696 33.9194 42.2116 34.0094C42.1946 34.1394 42.1776 34.2794 42.1596 34.4094C42.1066 34.4994 42.0466 34.5794 42.0006 34.6694C41.9706 34.7294 41.9666 34.7893 41.9746 34.8393C41.9346 34.8693 41.8947 34.8994 41.8557 34.9294C41.7687 34.7694 41.6666 34.5993 41.5756 34.4393C41.4076 34.1293 41.2486 33.8294 41.0966 33.5094C40.8066 32.9194 40.5446 32.3093 40.3126 31.6893C39.8446 30.4393 39.4967 29.1493 39.2757 27.8293C39.0587 26.5293 38.9536 25.1994 38.9946 23.8894C39.0316 22.6894 39.2146 21.4694 39.8046 20.4094C40.3646 19.4094 41.3527 18.6894 42.4777 18.4894C42.8677 22.9494 42.8787 27.4494 42.4447 31.8994ZM42.9337 32.4393C42.9357 32.4193 42.9387 32.3994 42.9417 32.3794C43.0807 31.2094 43.2037 30.0293 43.2827 28.8593C43.4377 26.5393 43.4776 24.2094 43.3956 21.8794C43.3546 20.7094 43.2786 19.5494 43.1776 18.3794C43.2786 18.4094 43.3706 18.4594 43.4696 18.4894C44.3306 19.3994 44.7067 20.4793 44.8817 21.7193C45.0787 23.1093 45.1047 24.5194 44.9577 25.9194C44.8147 27.2894 44.5187 28.6493 44.0637 29.9493C43.8317 30.6093 43.5567 31.2594 43.2437 31.8894C43.1487 32.0794 43.0387 32.2593 42.9337 32.4393ZM43.8787 32.1093C44.2107 31.3993 44.4956 30.6594 44.7376 29.9194C45.1976 28.4994 45.4896 27.0294 45.5936 25.5494C45.6956 24.0994 45.6586 22.5994 45.3706 21.1794C45.2256 20.4594 45.0007 19.6494 44.5617 19.0294C45.9297 19.9594 46.8536 21.5294 47.1016 23.1694C47.5146 25.8894 46.4127 28.5794 44.9157 30.7994C44.5457 31.3494 44.1467 31.8794 43.7387 32.3994C43.7867 32.2994 43.8337 32.1993 43.8787 32.1093ZM62.3097 39.2494C61.4667 40.4594 60.2496 41.5393 58.7716 41.8593C57.1896 42.2093 55.6156 41.6293 54.2056 40.9593C50.6336 39.2293 47.3407 37.0094 44.0977 34.7494C44.0507 34.7194 44.0027 34.7093 43.9577 34.7093C44.0587 34.6293 44.1607 34.5493 44.2617 34.4693C46.8137 34.2193 49.4057 34.0993 51.9627 34.3193C54.5747 34.5493 57.1597 35.1093 59.6267 35.9893C60.3017 36.2393 60.9687 36.4994 61.6247 36.7894C62.1567 37.0294 62.6766 37.3194 63.2266 37.5094C62.9906 38.1294 62.6747 38.7194 62.3097 39.2494ZM63.6406 35.1394C63.6676 35.6894 63.5986 36.2494 63.4566 36.7994C63.0546 36.5394 62.6017 36.3494 62.1687 36.1494C61.5497 35.8794 60.9217 35.6194 60.2857 35.3794C59.0357 34.9194 57.7527 34.5393 56.4547 34.2393C53.8327 33.6393 51.1316 33.3693 48.4426 33.4793C47.9876 33.4893 47.5417 33.5393 47.0957 33.5793C47.1517 33.5693 47.2087 33.5494 47.2647 33.5294C48.1157 33.2994 48.9746 33.0894 49.8416 32.9194C51.4376 32.6094 53.0617 32.4194 54.6897 32.4294C57.8107 32.4494 60.9437 33.2693 63.5117 35.0793C63.5517 35.1093 63.5966 35.1294 63.6406 35.1394ZM51.8067 30.8894C54.8107 30.0294 58.4177 29.7993 61.2047 31.4493C62.2407 32.0693 63.1086 32.9894 63.4666 34.1294C60.9446 32.5094 57.9357 31.8194 54.9517 31.7994C53.2157 31.7794 51.4846 32.0094 49.7896 32.3694C48.9666 32.5494 48.1516 32.7493 47.3436 32.9893C46.9626 33.0993 46.5477 33.1993 46.1397 33.3193C46.3657 33.1893 46.5876 33.0593 46.8156 32.9393C48.4116 32.1093 50.0707 31.3794 51.8067 30.8894ZM56.7047 12.5793C57.6677 13.5593 58.3816 14.8894 58.2636 16.2994C58.1536 17.5994 57.4406 18.7594 56.7086 19.8094C55.9296 20.9294 55.1236 22.0294 54.3256 23.1294C54.8666 21.8794 55.2837 20.5794 55.5587 19.2594C55.8567 17.8194 55.9907 16.3394 55.9577 14.8694C55.9417 14.1494 55.8847 13.4293 55.7807 12.7193C55.7317 12.3793 55.6867 12.0094 55.6107 11.6494C55.9957 11.9394 56.3697 12.2393 56.7047 12.5793ZM50.8496 26.9894C50.8076 27.1394 50.7647 27.2893 50.7227 27.4393C50.6577 27.1093 50.5796 26.7893 50.5286 26.4793C50.4166 25.8093 50.3176 25.1293 50.2296 24.4593C50.0516 23.0793 49.9216 21.6993 49.8416 20.3193C49.7006 17.8793 49.4817 15.1194 50.7227 12.9094C51.2807 11.9194 52.1516 11.1093 53.2116 10.6993C53.1176 11.6593 53.1267 12.6293 53.0767 13.5893C53.0097 14.8793 52.9007 16.1593 52.7517 17.4393C52.4557 19.9793 52.0007 22.4893 51.3877 24.9693C51.2187 25.6493 51.0386 26.3194 50.8496 26.9894ZM52.5396 25.0494C52.3386 25.3794 52.1277 25.6894 51.9057 25.9994C51.7837 26.1694 51.6537 26.3294 51.5557 26.5094C51.6407 26.2094 51.7297 25.9093 51.8087 25.6093C52.1407 24.3693 52.4337 23.1193 52.6867 21.8493C53.1917 19.3293 53.5347 16.7793 53.7147 14.2093C53.8017 12.9693 53.9356 11.6694 53.7896 10.4294C54.1826 10.6994 54.5937 10.9393 54.9917 11.2093C55.0357 11.7293 55.1696 12.2494 55.2296 12.7694C55.3136 13.4794 55.3596 14.2094 55.3646 14.9294C55.3756 16.3394 55.2217 17.7594 54.9207 19.1394C54.6197 20.5194 54.1657 21.8694 53.5667 23.1494C53.2627 23.7994 52.9196 24.4394 52.5396 25.0494ZM59.4257 22.3094C60.5377 21.5594 61.6736 20.8394 62.8306 20.1594C63.9346 19.5094 65.0726 18.7794 66.2996 18.3794C67.4006 18.0294 68.4776 18.1993 69.3576 18.9493C70.1176 19.5993 70.5687 20.4494 71.1027 21.2594C70.2057 21.1394 69.2886 21.1294 68.3886 21.1494C67.1766 21.1694 65.9657 21.2593 64.7667 21.4393C62.5177 21.7693 60.3047 22.3594 58.1807 23.1794C58.5947 22.8894 59.0067 22.5894 59.4257 22.3094ZM60.9077 23.0793C63.1967 22.4093 65.5746 22.0094 67.9566 21.8694C68.9486 21.8194 69.9416 21.8194 70.9346 21.8094C70.8786 22.0094 70.8126 22.1994 70.7246 22.3894C70.6686 22.3294 70.5886 22.2794 70.4896 22.2794C69.8736 22.2694 69.2307 22.4394 68.6217 22.5294C67.9997 22.6194 67.3777 22.7194 66.7567 22.8094C65.5437 22.9994 64.3317 23.1793 63.1187 23.3593C61.9057 23.5493 60.6926 23.7294 59.4816 23.9194C58.9446 23.9994 58.4047 24.0794 57.8667 24.1594C58.8597 23.7494 59.8747 23.3893 60.9077 23.0793ZM59.7227 24.4994C60.9367 24.3294 62.1487 24.1393 63.3617 23.9593C64.5747 23.7793 65.7876 23.5994 66.9996 23.4194C67.6216 23.3194 68.2437 23.2294 68.8657 23.1394C69.3687 23.0594 69.9006 23.0194 70.3986 22.8994C70.1756 23.1794 69.9226 23.4394 69.6306 23.6494C68.6526 24.3594 67.4227 24.5893 66.2487 24.7193C63.8227 25.0093 61.3447 25.2194 58.9007 25.1594C58.2207 25.1494 57.5407 25.0994 56.8637 25.0294C56.6207 25.0094 56.3747 24.9793 56.1297 24.9393C56.1547 24.9293 56.1816 24.9194 56.2066 24.9094C57.3846 24.8894 58.5577 24.6694 59.7227 24.4994ZM62.1687 16.5893C61.9957 16.0593 61.7967 15.5393 61.6997 14.9693C61.5847 14.3093 61.5426 13.6293 61.5866 12.9493C61.6766 11.5593 62.0806 10.1893 62.7706 8.97934C63.4816 7.71934 64.5076 6.70933 65.7366 5.96933C67.1176 5.12933 68.6737 4.63941 70.1677 4.04941C71.2887 3.60941 72.4037 3.11941 73.3797 2.42941C73.3887 2.45941 73.4186 2.47936 73.4376 2.49936C72.0576 4.36936 70.7057 6.25934 69.2807 8.09934C67.3777 10.5593 65.3967 12.9494 63.3427 15.2794C62.9557 15.7194 62.5627 16.1593 62.1687 16.5893ZM63.1386 16.5793C63.1266 16.5793 63.1157 16.5793 63.1037 16.5793C66.6327 12.5893 69.9487 8.39938 72.9807 4.01938C72.8607 4.33938 72.7476 4.67936 72.6276 4.99936C72.3466 5.73936 72.0566 6.48934 71.7446 7.22934C71.1136 8.70934 70.3966 10.1994 69.4636 11.5194C68.6446 12.6794 67.6767 13.7494 66.5647 14.6394C66.0327 15.0594 65.4667 15.4494 64.8717 15.7794C64.3117 16.0894 63.7146 16.3093 63.1386 16.5793ZM73.2887 5.75937C73.0087 7.20937 72.7706 8.68936 72.4146 10.1194C72.0936 11.4194 71.5996 12.6894 70.6826 13.6794C69.7776 14.6694 68.5587 15.3194 67.3037 15.7394C66.6037 15.9694 65.8867 16.1294 65.1637 16.2594C65.7417 15.9394 66.2877 15.5593 66.7677 15.1893C67.9147 14.2993 68.9186 13.2393 69.7766 12.0793C70.7496 10.7593 71.5736 9.33935 72.2836 7.85935C72.6536 7.08935 72.9956 6.30938 73.3206 5.51938C73.3296 5.48938 73.3406 5.46931 73.3496 5.44931C73.3286 5.54931 73.3087 5.65937 73.2887 5.75937Z" fill="#4D4C51"/>
</svg>
