<svg width="180" height="85" viewBox="0 0 180 85" fill="none" xmlns="http://www.w3.org/2000/svg">
<path d="M160.85 52.3C160.669 51.62 160.078 51.16 159.484 50.86C157.938 50.08 156.113 49.89 154.434 50.29C152.745 50.7 151.225 51.74 150.212 53.15C150.182 53.19 150.169 53.23 150.153 53.28C149.562 52.78 148.972 52.28 148.365 51.81C147.634 51.23 146.887 50.68 146.136 50.13C146.671 50.21 147.247 50.18 147.721 50.14C148.57 50.07 149.415 49.8699 150.21 49.5699C151.728 48.9899 153.428 47.97 154.247 46.51C154.646 45.81 154.751 44.9 154.164 44.25C153.608 43.65 152.724 43.5699 151.95 43.5899C150.375 43.6199 148.814 44.1 147.468 44.92C146.01 45.8 144.816 47.1 144.061 48.63C144.045 48.63 144.028 48.64 144.012 48.65C141.884 47.2 139.696 45.8399 137.447 44.5899C138.582 44.5499 139.679 44.27 140.734 43.75C141.455 43.4 142.12 42.95 142.718 42.41C143.304 41.89 143.897 41.2499 144.086 40.4599C144.264 39.7199 144.029 38.9099 143.378 38.4799C142.738 38.0499 141.866 38.0299 141.122 38.0699C139.679 38.1499 138.258 38.69 137.101 39.55C136.423 40.05 135.833 40.6499 135.349 41.3399C135.024 41.8099 134.608 42.42 134.513 43.03C132.637 42.08 130.733 41.19 128.795 40.38C129.76 40.06 130.663 39.44 131.373 38.79C132.493 37.77 133.495 36.27 133.652 34.74C133.815 33.13 132.534 32.01 130.986 32.01C129.366 32.02 128.147 33.36 127.383 34.65C126.872 35.52 126.489 36.4599 126.241 37.4399C126.099 37.9899 125.976 38.62 125.922 39.24C123.616 38.37 121.277 37.59 118.909 36.9C121.878 36.12 124.497 33.75 125.608 30.93C125.96 30.04 126.117 29.03 125.67 28.14C125.275 27.36 124.479 26.83 123.583 26.93C122.62 27.04 121.817 27.7099 121.115 28.3299C120.395 28.9599 119.76 29.6799 119.204 30.4599C117.969 32.1999 117.175 34.2199 116.916 36.3399C114.863 35.7899 112.792 35.31 110.707 34.9C111.878 34.27 112.904 33.28 113.74 32.3C114.869 30.99 115.898 29.32 116.309 27.63C116.501 26.83 116.463 25.9399 115.859 25.3299C115.304 24.7699 114.431 24.6399 113.691 24.8299C112.84 25.0499 112.159 25.7099 111.593 26.3399C110.965 27.0499 110.411 27.84 109.948 28.66C108.952 30.44 108.403 32.4199 108.271 34.4499C107.195 34.2599 106.117 34.0799 105.035 33.9399C104.419 33.8499 103.801 33.7899 103.184 33.7199C103.235 33.6799 103.287 33.64 103.331 33.61C104.119 33.05 104.838 32.39 105.479 31.66C106.785 30.18 107.771 28.43 108.341 26.54C108.625 25.6 108.739 24.48 107.943 23.75C107.261 23.12 106.211 23.03 105.374 23.37C103.56 24.09 102.171 26.11 101.352 27.8C100.542 29.48 100.028 31.5 100.134 33.4C97.494 33.18 94.848 33.04 92.199 33C93.512 32.21 94.705 31.08 95.659 30.01C97.063 28.43 98.288 26.55 98.954 24.53C99.214 23.74 99.349 22.76 98.89 22.02C98.359 21.15 97.252 20.95 96.346 21.29C95.348 21.66 94.58 22.58 93.929 23.39C93.207 24.28 92.579 25.25 92.068 26.28C91.059 28.31 90.386 30.68 90.392 32.99C87.68 32.99 84.967 33.09 82.261 33.29C86.236 31.05 89.316 26.98 90.607 22.68C90.908 21.68 91.244 20.33 90.389 19.49C89.525 18.65 88.22 19.0299 87.314 19.5899C85.198 20.8999 83.446 22.98 82.223 25.13C80.802 27.62 80.05 30.45 80 33.31C79.999 33.37 80.015 33.4199 80.03 33.4699C76.883 33.7599 73.747 34.1599 70.633 34.6999C70.238 34.7699 69.844 34.84 69.449 34.92C71.227 34 72.846 32.5799 74.201 31.1999C75.115 30.2799 75.955 29.2799 76.715 28.2199C77.455 27.1899 78.214 26.08 78.689 24.9C79.096 23.89 79.192 22.61 78.361 21.77C77.457 20.86 76.071 21.16 75.026 21.63C72.794 22.62 71.01 24.39 69.7 26.42C67.969 29.12 67.133 32.28 66.463 35.37C66.452 35.42 66.46 35.46 66.461 35.51C64.269 35.98 62.09 36.51 59.932 37.11C61.173 35.89 62.169 34.3099 62.934 32.8499C64.046 30.7399 64.801 28.42 65.103 26.05C65.22 25.14 65.276 24.08 64.683 23.31C64.078 22.51 63.046 22.4399 62.191 22.8399C61.166 23.3199 60.439 24.2699 59.826 25.1899C59.142 26.2199 58.637 27.35 58.248 28.51C57.776 29.93 57.509 31.4 57.349 32.88C57.184 34.41 56.959 36.09 57.115 37.63C57.127 37.74 57.18 37.84 57.25 37.91C54.099 38.89 50.997 40.0299 47.972 41.3499C49.386 39.8199 50.621 38.0699 51.673 36.3399C53.236 33.7699 54.343 30.81 54.429 27.77C54.461 26.66 54.399 25.27 53.403 24.56C52.35 23.8 50.994 24.32 50.188 25.18C49.256 26.17 48.627 27.55 48.08 28.79C47.506 30.08 47.046 31.43 46.713 32.8C46.338 34.35 46.126 35.94 46.067 37.53C46.037 38.33 46.051 39.1399 46.107 39.9399C46.15 40.5699 46.177 41.24 46.333 41.86C46.257 41.97 46.187 42.0799 46.114 42.1899C45.323 42.5599 44.531 42.9299 43.751 43.3199C42.005 44.2099 40.294 45.1699 38.618 46.1999C39.897 44.4799 40.852 42.48 41.572 40.49C42.504 37.91 43.207 35.01 43.151 32.25C43.128 31.14 42.741 29.94 41.675 29.41C40.719 28.94 39.707 29.33 39.07 30.12C38.298 31.08 37.889 32.36 37.496 33.51C37.024 34.89 36.676 36.31 36.452 37.75C35.956 40.95 36.09 44.1899 36.771 47.3499C36.773 47.3599 36.778 47.36 36.78 47.37C35.443 48.25 34.126 49.15 32.854 50.12C33.218 49.16 33.471 48.1499 33.7 47.1899C34.042 45.7599 34.259 44.2999 34.36 42.8399C34.46 41.3699 34.417 39.8999 34.177 38.4499C33.955 37.0999 33.636 35.66 32.913 34.49C32.303 33.5 31.251 32.7 30.033 33.02C28.959 33.3 28.29 34.33 27.903 35.31C26.899 37.83 26.592 40.7 26.807 43.4C27 45.81 27.647 48.1799 28.706 50.3499C25.347 48.5499 21.391 47.7 17.63 48.39C16.81 48.54 15.909 48.83 15.384 49.52C14.857 50.22 14.904 51.15 15.333 51.88C15.869 52.79 16.889 53.3 17.84 53.67C18.898 54.08 20.024 54.32 21.153 54.42C23.651 54.65 26.129 54.2099 28.568 53.6999C26.269 55.7999 24.126 58.07 22.227 60.55C21.554 61.43 20.925 62.34 20.315 63.26C20.181 63.47 20.52 63.71 20.666 63.51C23.224 60.04 26.162 56.8999 29.369 54.0699C28.304 56.0099 27.512 58.05 27.144 60.27C26.726 62.79 26.801 65.5999 27.838 67.9699C28.238 68.8899 28.915 69.85 29.927 70.13C30.162 70.19 30.394 70.2099 30.619 70.1899C30.826 70.3899 31.231 70.31 31.306 70.02C31.736 69.83 32.109 69.4999 32.377 69.0799C33.009 68.0899 33.137 66.88 33.244 65.75C33.375 64.34 33.401 62.92 33.333 61.51C33.26 60.01 33.056 58.52 32.755 57.06C33.252 57.66 33.761 58.2599 34.288 58.8399C36.025 60.7499 38.103 62.56 40.685 63.15C41.753 63.39 42.958 63.3999 43.928 62.8199C44.971 62.1999 45.236 60.98 44.773 59.9C44.29 58.76 43.327 57.7499 42.494 56.8499C41.561 55.8499 40.531 54.95 39.425 54.14C37.508 52.75 35.393 51.6699 33.145 50.9599C34.643 49.8299 36.195 48.77 37.788 47.76C38.686 52.54 42.836 56.38 47.459 57.56C49.595 58.1 52.723 57.7799 52.835 54.9599C52.888 53.6199 52.128 52.46 51.249 51.52C50.302 50.51 49.203 49.63 48.041 48.87C46.696 48 45.223 47.32 43.688 46.86C42.915 46.63 42.126 46.4499 41.327 46.3299C41.025 46.2899 40.707 46.2399 40.388 46.2099C40.686 46.0399 40.979 45.8599 41.28 45.6999C43.58 44.4399 45.951 43.31 48.366 42.29C48.599 44.69 49.508 46.9699 50.863 48.9799C52.348 51.1799 54.427 53.22 56.851 54.37C58.043 54.93 59.517 55.1699 60.66 54.3499C61.782 53.5499 61.908 52.0999 61.67 50.8499C61.191 48.3299 59.692 45.98 57.824 44.25C56.041 42.6 53.857 41.49 51.501 41.02C53.593 40.23 55.721 39.54 57.864 38.89C58.182 41.11 58.999 43.2 60.151 45.13C60.777 46.17 61.502 47.15 62.307 48.06C63.179 49.05 64.165 50.02 65.416 50.51C67.526 51.32 70.13 50.2299 70.067 47.7199C70.036 46.5099 69.431 45.3499 68.805 44.3299C68.194 43.3499 67.454 42.43 66.629 41.61C64.994 39.99 62.984 38.77 60.799 38.06C63.025 37.47 65.264 36.94 67.518 36.49C67.813 36.43 68.112 36.3899 68.407 36.3299C68.534 38.5199 69.532 40.55 70.715 42.37C71.367 43.37 72.09 44.32 72.834 45.26C73.599 46.22 74.347 47.32 75.361 48.03C76.21 48.63 77.334 48.9099 78.316 48.4599C79.332 48.0099 79.725 46.93 79.64 45.87C79.545 44.69 79.037 43.5399 78.55 42.4799C78.045 41.3799 77.45 40.3199 76.726 39.3499C75.591 37.8199 74.086 36.48 72.348 35.66C74.739 35.29 77.145 35 79.558 34.78C79.522 34.83 79.484 34.87 79.451 34.92C78.762 35.95 78.716 37.2599 78.887 38.4499C79.191 40.5599 80.154 42.5099 81.576 44.0999C82.289 44.8899 83.125 45.58 84.041 46.13C84.924 46.66 86.091 47.1999 87.104 46.6899C89.444 45.5199 87.526 42.1399 86.705 40.5899C85.517 38.3499 83.938 36.3299 82.097 34.5899C85.379 34.3599 88.671 34.2899 91.957 34.3499C90.442 35.1699 90.152 37.5399 90.064 39.0999C89.928 41.5299 90.351 44.55 91.881 46.53C93.214 48.25 95.887 48.7799 97.179 46.7099C98.328 44.8699 97.874 42.22 97.31 40.26C96.684 38.08 95.551 36.08 94.02 34.42C96.17 34.49 98.316 34.6199 100.452 34.8199C98.645 38.0699 98.668 42.4199 100.211 45.7099C100.588 46.5099 101.169 47.3399 102.072 47.5899C103.041 47.8499 104.048 47.3599 104.627 46.5799C105.272 45.7099 105.413 44.6 105.475 43.55C105.539 42.48 105.438 41.4099 105.222 40.3499C104.837 38.4799 103.988 36.5999 102.759 35.0899C104.857 35.3399 106.943 35.67 109.021 36.06C108.402 37.34 108.143 38.75 108.162 40.24C108.186 42.24 108.685 44.4 109.636 46.16C110.515 47.79 112.672 48.65 113.925 46.9C115.02 45.37 114.542 42.8999 114.097 41.2099C113.675 39.5999 112.941 38 111.929 36.64C113.666 37.01 115.393 37.43 117.106 37.9C114.947 40.62 114.459 44.47 115.83 47.68C116.473 49.18 118.042 51.1499 119.818 49.8299C121.419 48.6399 121.157 45.98 120.962 44.24C120.831 43.06 120.585 41.9 120.216 40.78C120.023 40.19 119.797 39.61 119.539 39.05C119.463 38.88 119.386 38.71 119.305 38.53C121.173 39.09 123.019 39.72 124.847 40.4C122.455 42.55 122.824 46.66 124.969 48.87C125.524 49.44 126.26 49.87 127.075 49.87C127.875 49.87 128.585 49.41 128.917 48.68C129.529 47.34 129.136 45.5299 128.673 44.1999C128.386 43.3799 127.989 42.58 127.495 41.86C127.37 41.68 127.232 41.47 127.083 41.27C128.606 41.89 130.118 42.5299 131.605 43.2299C131.922 43.3799 132.231 43.5499 132.546 43.7099C132.212 44.3199 131.952 44.99 131.72 45.63C131.363 46.61 131.106 47.63 131.006 48.67C130.835 50.44 131.123 52.3499 132.15 53.8399C133.047 55.1499 134.934 56.03 136.113 54.53C137.2 53.14 137.035 50.9399 136.751 49.3199C136.56 48.2199 136.248 47.16 135.869 46.11C135.761 45.81 135.639 45.5199 135.523 45.2299C137.601 46.3399 139.627 47.5499 141.603 48.8399C141.183 49.2199 140.826 49.62 140.516 50.13C140.134 50.76 139.868 51.4799 139.686 52.1899C139.312 53.6599 139.337 55.23 139.809 56.67C140.259 58.05 141.363 59.6 143.026 59.17C144.681 58.74 144.615 56.5699 144.624 55.2299C144.634 53.6599 144.473 52.08 144.121 50.54C145.717 51.67 147.258 52.8599 148.768 54.0999C147.29 56.1499 147.168 59.2199 148.119 61.4699C148.616 62.6399 149.69 64.17 151.173 63.5C152.728 62.8 152.503 60.92 152.286 59.54C152.135 58.58 151.954 57.62 151.744 56.67C153.122 57.92 154.47 59.2 155.751 60.56C156.588 61.44 157.413 62.32 158.287 63.16C158.782 63.64 159.637 62.96 159.225 62.38C157.757 60.32 155.952 58.53 154.127 56.79C153.706 56.39 153.262 56.01 152.831 55.62C153.74 55.89 154.68 56 155.685 55.91C157.214 55.77 158.836 55.25 160.033 54.26C160.617 53.78 161.061 53.07 160.85 52.3ZM15.996 50.24C16.346 49.49 17.43 49.3199 18.15 49.2099C20.018 48.9399 21.915 49.04 23.761 49.42C24.089 49.49 24.411 49.58 24.734 49.67C24.401 49.62 24.068 49.58 23.737 49.56C22.409 49.45 21.067 49.5 19.743 49.64C18.526 49.77 17.171 49.89 15.982 50.29C15.988 50.27 15.987 50.25 15.996 50.24ZM17.333 52.43C16.913 52.22 16.416 51.8699 16.127 51.4399C17.094 51.8999 18.188 52.1 19.234 52.31C20.399 52.53 21.575 52.7 22.757 52.8C24.248 52.93 25.758 52.97 27.262 52.92C23.949 53.58 20.406 53.98 17.333 52.43ZM22.734 52.04C21.666 51.96 20.6 51.83 19.543 51.66C18.418 51.47 17.304 51.14 16.169 51.04C16.079 51.03 16.023 51.08 15.989 51.14C15.965 51.08 15.924 51.0199 15.91 50.9599C17.067 50.9599 18.263 50.69 19.402 50.56C20.737 50.41 22.085 50.3399 23.426 50.4399C25.218 50.5799 26.907 51.05 28.438 51.91C26.541 52.11 24.647 52.18 22.734 52.04ZM32.032 35.16C32.651 36.2 32.931 37.5199 33.115 38.7099C33.313 39.9899 33.357 41.2899 33.289 42.5799C33.21 44.0599 32.958 45.5099 32.646 46.9599C32.386 48.1599 31.987 49.3599 31.762 50.5799C31.719 50.5699 31.675 50.56 31.632 50.55C31.725 50.16 31.789 49.76 31.863 49.39C32.015 48.63 32.142 47.8599 32.242 47.0899C32.431 45.6299 32.544 44.16 32.561 42.68C32.591 39.98 32.276 37.3 31.662 34.67C31.798 34.82 31.925 34.98 32.032 35.16ZM30.209 37.9399C30.289 36.6599 30.455 35.3799 30.541 34.0899C30.583 34.0899 30.624 34.0899 30.666 34.0899C31.401 36.9099 31.814 39.8099 31.853 42.7199C31.873 44.2099 31.8 45.7 31.614 47.18C31.521 47.91 31.405 48.64 31.264 49.37C31.248 49.45 31.225 49.54 31.207 49.62C30.624 47.16 30.268 44.65 30.165 42.12C30.109 40.73 30.123 39.3299 30.209 37.9399ZM28.354 37.5799C28.6 36.5599 28.877 35.35 29.608 34.55C29.755 34.39 29.906 34.2899 30.057 34.2099C29.404 36.7899 29.385 39.64 29.48 42.27C29.581 45.08 29.983 47.88 30.628 50.62C30.527 50.73 30.467 50.88 30.459 51.03C28.056 47.03 27.257 42.1299 28.354 37.5799ZM28.693 67.42C27.808 65.32 27.678 62.92 27.972 60.68C28.281 58.33 29.059 55.9999 30.029 53.8199C29.485 58.9199 29.742 64.07 30.396 69.15C29.567 69.11 28.977 68.1 28.693 67.42ZM32.001 67.03C31.897 67.63 31.678 68.46 31.164 68.89C30.378 63.85 30.304 58.75 30.551 53.67C30.702 54.05 30.875 54.42 31.086 54.78C32.275 58.72 32.703 63 32.001 67.03ZM35.421 58.5C34.488 57.54 33.604 56.5099 32.751 55.4799C32.556 55.2499 32.368 55.01 32.186 54.76C32.021 54.19 31.832 53.6299 31.635 53.0699C31.87 53.2899 32.117 53.4899 32.357 53.6899C32.825 54.0899 33.289 54.49 33.753 54.89C34.735 55.74 35.697 56.62 36.638 57.51C37.552 58.38 38.453 59.2699 39.322 60.1899C39.745 60.6299 40.155 61.09 40.564 61.55C40.702 61.71 40.833 61.87 40.965 62.04C38.766 61.54 36.959 60.08 35.421 58.5ZM42.11 62.17C41.435 61.36 40.618 60.62 39.896 59.89C38.962 58.93 38.022 57.9799 37.052 57.0699C36.108 56.1699 35.142 55.2999 34.157 54.4599C33.664 54.0299 33.162 53.6199 32.655 53.2099C32.255 52.8899 31.864 52.5499 31.398 52.3399C31.478 52.2799 31.557 52.21 31.638 52.15C32.021 52.54 32.58 52.75 33.051 53.01C33.614 53.32 34.17 53.6499 34.717 53.9799C35.878 54.6999 36.995 55.4899 38.061 56.3399C40.062 57.9399 41.868 59.78 43.458 61.78C43.093 62.07 42.6 62.16 42.11 62.17ZM42.523 58.54C43.043 59.15 44.14 60.3199 43.862 61.2299C42.223 59.2499 40.39 57.45 38.366 55.86C37.335 55.05 36.259 54.3 35.144 53.61C34.539 53.24 33.923 52.88 33.293 52.55C32.851 52.32 32.391 52.0399 31.894 51.9399C31.908 51.9299 31.921 51.92 31.935 51.91C36.03 53.01 39.764 55.3 42.523 58.54ZM41.429 34.61C41.522 33.92 41.593 33.22 41.646 32.52C41.69 31.94 41.768 31.3099 41.752 30.7099C42.149 31.3199 42.188 32.31 42.156 32.91C42.029 35.35 41.497 37.7799 40.681 40.0699C40.145 41.5799 39.445 42.99 38.684 44.37C38.913 43.82 39.123 43.2599 39.324 42.7299C39.82 41.42 40.234 40.09 40.593 38.74C40.956 37.39 41.242 36 41.429 34.61ZM40.956 30.5799C40.924 31.1299 40.945 31.68 40.922 32.23C40.891 32.94 40.839 33.6399 40.763 34.3499C40.612 35.7499 40.388 37.14 40.076 38.52C39.761 39.9 39.337 41.2599 38.833 42.5899C38.758 42.7899 38.674 42.98 38.59 43.18C38.454 41.03 38.4 38.88 38.701 36.75C38.879 35.49 39.175 34.2499 39.638 33.0699C39.867 32.4799 40.138 31.91 40.443 31.36C40.577 31.12 40.79 30.8599 40.956 30.5799ZM38.009 44.4699C37.823 44.8699 37.639 45.27 37.475 45.67C36.7 41.2 37.206 36.49 38.959 32.3C39.227 31.66 39.628 30.59 40.354 30.27C40.21 30.47 40.088 30.7 39.977 30.88C39.628 31.44 39.334 32.04 39.085 32.65C38.587 33.89 38.256 35.18 38.063 36.5C37.675 39.14 37.816 41.8099 38.009 44.4699ZM47.797 56.4399C45.722 55.9399 43.802 54.86 42.229 53.43C40.451 51.81 39.175 49.74 38.321 47.5C38.365 47.54 38.415 47.5699 38.461 47.5999C38.984 48.6099 39.932 49.46 40.72 50.25C41.669 51.2 42.677 52.0999 43.725 52.9399C45.425 54.3099 47.261 55.58 49.184 56.65C48.712 56.63 48.239 56.5499 47.797 56.4399ZM50.601 56.4399C50.598 56.4399 50.594 56.4399 50.59 56.4399C48.323 55.2399 46.15 53.95 44.12 52.36C43.115 51.57 42.151 50.74 41.22 49.87C40.635 49.32 40.086 48.68 39.491 48.11C39.634 48.16 39.776 48.22 39.914 48.28C40.509 48.54 41.098 48.8099 41.681 49.0999C42.847 49.6699 43.992 50.2899 45.109 50.9499C47.397 52.3099 49.438 53.93 51.547 55.53H51.551C51.381 55.93 51.075 56.2499 50.601 56.4399ZM40.645 47.55C41.246 47.62 41.843 47.73 42.433 47.86C43.623 48.14 44.785 48.54 45.889 49.06C46.998 49.58 48.056 50.22 49.017 50.99C49.921 51.7 50.918 52.56 51.44 53.61C51.6 53.93 51.684 54.28 51.702 54.62C49.86 52.96 47.694 51.55 45.568 50.31C44.413 49.64 43.23 49.0199 42.017 48.4599C41.427 48.1899 40.831 47.93 40.231 47.68C40.057 47.61 39.88 47.5299 39.702 47.4499C40.009 47.4999 40.32 47.51 40.645 47.55ZM52.899 25.64C53.408 26.24 53.278 27.52 53.241 28.17C53.088 30.81 52.085 33.33 50.77 35.61C50.036 36.88 49.197 38.08 48.305 39.24C48.299 39.13 48.293 39.01 48.286 38.89C48.585 38.33 48.877 37.7599 49.149 37.1899C49.758 35.8999 50.306 34.58 50.795 33.25C51.284 31.91 51.713 30.55 52.077 29.17C52.267 28.45 52.433 27.73 52.6 27C52.698 26.58 52.862 26.1 52.899 25.64ZM52.278 25.3199C52.075 25.8199 52.056 26.47 51.956 26.98C51.82 27.67 51.651 28.35 51.474 29.04C51.118 30.4 50.699 31.7499 50.219 33.0799C49.735 34.4099 49.186 35.73 48.579 37.01C48.487 37.21 48.386 37.3999 48.292 37.5899C48.301 37.2199 48.298 36.85 48.325 36.49C48.426 35.11 48.657 33.74 48.998 32.41C49.331 31.1 49.773 29.8299 50.323 28.5999C50.596 27.9899 50.89 27.39 51.204 26.8C51.463 26.32 51.795 25.8399 52.018 25.3399C52.104 25.3299 52.187 25.3099 52.278 25.3199ZM47.646 38.52C47.646 38.64 47.645 38.77 47.644 38.89C47.642 38.9 47.64 38.9 47.637 38.91C47.516 39.14 47.349 39.39 47.203 39.65C47.178 39.24 47.143 38.83 47.141 38.42C47.135 37.2 47.228 35.99 47.422 34.79C47.818 32.34 48.605 29.97 49.78 27.78C50.112 27.17 50.614 26.12 51.316 25.61C51.111 25.92 50.93 26.26 50.753 26.56C50.399 27.17 50.079 27.79 49.791 28.43C49.219 29.71 48.756 31.03 48.41 32.38C48.071 33.7 47.849 35.05 47.735 36.41C47.674 37.11 47.644 37.82 47.646 38.52ZM57.046 53.11C54.987 52.01 53.203 50.3599 51.866 48.4499C50.84 46.9799 50.094 45.34 49.552 43.64C49.676 43.8 49.803 43.96 49.917 44.12C50.292 44.62 50.674 45.12 51.066 45.61C51.848 46.6 52.646 47.57 53.459 48.53C54.276 49.49 55.094 50.45 55.924 51.4C56.339 51.88 56.757 52.3499 57.186 52.8199C57.367 53.0099 57.547 53.22 57.732 53.42C57.484 53.33 57.25 53.22 57.046 53.11ZM59.089 53.66C59.08 53.63 59.074 53.5999 59.058 53.5799C58.746 53.0799 58.245 52.68 57.839 52.26C57.402 51.8 56.963 51.35 56.528 50.9C55.657 49.99 54.805 49.06 53.982 48.11C53.156 47.15 52.347 46.1699 51.554 45.1899C51.158 44.6899 50.761 44.1999 50.364 43.7099C50.025 43.2899 49.697 42.76 49.218 42.49C49.198 42.41 49.17 42.33 49.151 42.25C50.209 43 51.326 43.6599 52.369 44.4399C53.432 45.2199 54.435 46.09 55.368 47.03C56.323 47.99 57.201 49.02 57.996 50.12C58.375 50.64 58.734 51.1799 59.073 51.7199C59.369 52.1999 59.625 52.87 60.02 53.3C59.756 53.53 59.432 53.63 59.089 53.66ZM60.063 49.67C60.354 50.46 60.734 51.5799 60.506 52.4799C60.325 52.1099 60.079 51.7599 59.883 51.4399C59.513 50.8299 59.118 50.24 58.7 49.67C57.881 48.55 56.974 47.49 55.992 46.5C54.308 44.81 52.29 43.0899 50.065 42.0999C54.456 42.4599 58.537 45.54 60.063 49.67ZM63.62 23.78C63.671 23.81 63.724 23.83 63.772 23.87C64.374 24.46 64.093 25.7 63.979 26.42C63.658 28.43 63.026 30.3799 62.11 32.1899C61.587 33.2199 60.979 34.23 60.293 35.16C60.044 35.5 59.775 35.83 59.507 36.15C61.537 32.31 62.835 28 63.62 23.78ZM58.294 34.27C58.381 33.06 58.525 31.85 58.776 30.67C59.215 28.59 60.005 26.54 61.373 24.89C61.68 24.52 62.28 23.8899 62.877 23.6999C62.466 26.0999 61.871 28.46 61.067 30.77C60.249 33.12 59.187 35.3499 58.1 37.5799C58.267 36.4999 58.216 35.36 58.294 34.27ZM65.6 49.3C64.615 48.83 63.816 48.0099 63.09 47.2199C62.358 46.4099 61.704 45.54 61.125 44.62C60.375 43.43 59.783 42.1499 59.286 40.8399C60.258 42.1599 61.266 43.46 62.278 44.75C63.497 46.32 64.717 47.8799 65.936 49.4399C65.821 49.3999 65.708 49.35 65.6 49.3ZM68.29 49.18C67.942 49.45 67.524 49.58 67.093 49.61C65.657 47.84 64.221 46.0799 62.785 44.3199C61.504 42.7399 60.234 41.16 58.872 39.66C58.794 39.42 58.71 39.1899 58.638 38.9499C60.373 40.5299 62.234 41.9699 63.937 43.5999C65.621 45.1999 67.196 46.9199 68.673 48.7099C68.578 48.8799 68.46 49.04 68.29 49.18ZM64.767 41.5799C66.326 42.8099 67.818 44.4599 68.572 46.3299C68.739 46.7399 68.872 47.2199 68.892 47.6899C67.488 46.0699 66.012 44.51 64.445 43.05C62.9 41.6 61.27 40.17 59.486 39.01C61.402 39.49 63.218 40.3499 64.767 41.5799ZM77.432 24.98C76.43 26.91 75.116 28.7 73.626 30.27C72.785 31.17 71.885 32.01 70.926 32.77C70.86 32.82 70.79 32.87 70.723 32.92C70.821 32.82 70.924 32.72 71.021 32.61C71.952 31.62 72.824 30.56 73.662 29.49C74.454 28.47 75.211 27.42 75.933 26.36C76.316 25.79 76.688 25.22 77.05 24.64C77.305 24.23 77.626 23.81 77.857 23.37C77.862 23.93 77.647 24.57 77.432 24.98ZM73.757 23.53C74.454 23.04 75.394 22.43 76.306 22.27C74.329 23.96 72.566 25.9 71.064 28.02C70.248 29.18 69.511 30.39 68.862 31.64C68.584 32.18 68.308 32.74 68.054 33.3C69.01 29.56 70.521 25.81 73.757 23.53ZM68.186 34.81C68.114 34.86 68.037 34.9099 67.966 34.9699C68.415 34.0199 68.814 33.04 69.304 32.11C69.955 30.87 70.689 29.67 71.502 28.53C73.121 26.26 75.058 24.25 77.227 22.5C77.28 22.46 77.316 22.41 77.341 22.36C77.41 22.39 77.457 22.44 77.511 22.49C77.485 22.5 77.458 22.52 77.436 22.54C77.036 22.98 76.799 23.5899 76.491 24.0999C76.136 24.6799 75.771 25.2599 75.396 25.8299C74.642 26.9699 73.846 28.09 73.009 29.17C72.219 30.2 71.388 31.19 70.546 32.17C70.102 32.69 69.648 33.1999 69.185 33.6999C68.852 34.0699 68.497 34.42 68.186 34.81ZM75.591 46.6999C74.839 45.9999 74.2 45.15 73.552 44.36C72.897 43.55 72.261 42.73 71.677 41.87C70.494 40.13 69.633 38.2399 69.103 36.2099C69.121 36.2099 69.139 36.2099 69.156 36.1999C70.292 38.2199 71.637 40.14 72.977 42.02C73.672 43 74.369 43.9799 75.086 44.9399C75.455 45.4299 75.828 45.92 76.201 46.41C76.454 46.74 76.708 47.16 77.003 47.49C76.47 47.38 75.94 47.0299 75.591 46.6999ZM78.092 47.24C78.029 47.3 77.96 47.33 77.893 47.37C77.638 46.85 77.12 46.3899 76.752 45.9399C76.382 45.4899 76.018 45.0299 75.657 44.5699C74.893 43.5999 74.14 42.62 73.416 41.62C72.253 40.01 71.163 38.3599 70.037 36.7199C70.126 36.7899 70.217 36.85 70.302 36.91C70.788 37.28 71.266 37.67 71.732 38.06C72.665 38.86 73.546 39.71 74.371 40.62C75.195 41.52 75.952 42.48 76.64 43.5C77.306 44.48 77.844 45.52 78.466 46.53C78.415 46.8 78.308 47.05 78.092 47.24ZM77.873 43.91C77.698 43.65 77.52 43.4 77.344 43.15C76.615 42.13 75.824 41.1499 74.981 40.2199C74.119 39.2699 73.194 38.37 72.213 37.54C71.791 37.19 71.355 36.85 70.91 36.53C74.279 37.72 76.562 40.6 77.873 43.91ZM89.341 22.98C88.619 25.04 87.496 26.98 86.107 28.67C85.329 29.61 84.482 30.5 83.549 31.29C83.146 31.63 82.714 31.93 82.279 32.23C83.646 30.64 84.857 28.88 86.033 27.16C87.38 25.19 88.644 23.17 89.869 21.13C89.8 21.8 89.481 22.58 89.341 22.98ZM89.433 20.01C89.491 20.05 89.556 20.08 89.603 20.12C88.382 22.41 87.022 24.64 85.548 26.78C84.556 28.22 83.478 29.59 82.423 30.99C82.425 30.98 82.426 30.9799 82.428 30.9699C82.643 30.3499 82.882 29.74 83.142 29.14C83.654 27.95 84.247 26.7899 84.917 25.6899C85.593 24.5699 86.346 23.5 87.172 22.49C87.56 22.02 87.963 21.56 88.381 21.11C88.719 20.74 89.109 20.4 89.433 20.01ZM82.958 43.9799C81.671 42.8099 80.722 41.32 80.166 39.68C79.716 38.34 79.477 36.5299 80.202 35.3299C80.223 37.4099 80.866 39.47 81.856 41.3C82.387 42.28 83.029 43.2 83.758 44.04C84.13 44.47 84.53 44.86 84.96 45.24C85.068 45.33 85.178 45.43 85.291 45.53C84.354 45.12 83.333 44.3199 82.958 43.9799ZM86.514 45.74C86.513 45.72 86.516 45.69 86.509 45.67C86.354 45.22 85.909 44.9999 85.561 44.6999C85.15 44.3499 84.757 43.9799 84.383 43.5899C83.634 42.8099 82.991 41.95 82.455 41.01C81.437 39.23 80.892 37.27 80.632 35.25C81.807 36.89 83.018 38.4899 84.084 40.1999C84.628 41.0699 85.142 41.96 85.622 42.87C86.071 43.72 86.535 44.59 86.879 45.49C86.782 45.61 86.661 45.7 86.514 45.74ZM84.679 39.39C85.207 40.19 85.685 41.02 86.106 41.88C86.476 42.64 87.026 43.61 87.093 44.49C86.8 43.9 86.513 43.2999 86.198 42.7099C85.684 41.7599 85.134 40.82 84.55 39.9C83.421 38.13 82.185 36.42 80.695 34.93C80.66 34.9 80.618 34.9 80.579 34.91C80.577 34.9 80.573 34.88 80.571 34.86C80.622 34.81 80.66 34.7499 80.716 34.7099C80.734 34.8199 80.779 34.93 80.887 35.02C82.335 36.31 83.613 37.77 84.679 39.39ZM82.003 30.5699C81.826 31.0599 81.511 31.68 81.505 32.23C81.345 32.45 81.182 32.66 81.025 32.88C81.106 28.52 83.116 24.28 86.383 21.4C86.943 20.91 87.932 19.99 88.823 19.9C88.531 20.17 88.26 20.48 88 20.75C87.558 21.23 87.132 21.7099 86.724 22.2199C85.915 23.2099 85.171 24.2599 84.502 25.3499C83.826 26.4599 83.226 27.61 82.708 28.79C82.453 29.37 82.218 29.9699 82.003 30.5699ZM92.39 28.04C93.083 26.24 94.119 24.56 95.456 23.16C95.868 22.73 96.635 22.0499 97.318 22.0999C96.634 23.9199 95.772 25.6699 94.739 27.3199C94.188 28.1899 93.588 29.04 92.962 29.87C92.523 30.45 92.018 30.98 91.561 31.55C91.699 30.36 91.947 29.19 92.39 28.04ZM91.468 32.51C91.472 32.46 91.479 32.41 91.483 32.36C92.262 31.76 92.92 30.91 93.541 30.15C94.195 29.35 94.785 28.5 95.335 27.63C96.377 25.98 97.232 24.22 97.929 22.39C97.937 22.4 97.947 22.4 97.955 22.41C98.487 22.99 98.105 24.05 97.856 24.67C97.178 26.35 96.211 27.93 95.034 29.31C94.372 30.08 93.649 30.8099 92.868 31.4599C92.42 31.8399 91.944 32.17 91.468 32.51ZM93.248 46.41C92.438 45.74 92.014 44.6999 91.7 43.7199C91.371 42.6999 91.172 41.6399 91.106 40.5699C91.032 39.3799 91.107 38.16 91.366 36.99C91.508 36.36 91.783 35.65 92.254 35.16C91.822 37.03 91.747 38.9399 91.961 40.8499C92.172 42.7299 92.592 44.75 93.38 46.5C93.337 46.47 93.289 46.45 93.248 46.41ZM94.289 46.92C94.343 46.83 94.362 46.73 94.316 46.61C93.933 45.63 93.502 44.6999 93.201 43.6899C92.911 42.7199 92.719 41.7199 92.598 40.7099C92.377 38.8799 92.427 37.02 92.602 35.18C93.838 39.03 94.747 42.9299 94.948 46.9799C94.73 46.9999 94.508 46.97 94.289 46.92ZM96.723 44.4499C96.66 45.2099 96.45 46.1 95.837 46.62C95.774 46.67 95.705 46.71 95.638 46.75C95.429 42.81 94.659 38.85 93.075 35.24C95.38 37.65 97 41.0999 96.723 44.4499ZM101.44 31.67C101.554 30.85 101.755 30.03 102.053 29.25C102.655 27.68 103.625 26.1699 104.916 25.0799C105.226 24.8199 105.672 24.53 106.121 24.43C105.233 25.9 104.343 27.3599 103.451 28.8299C102.994 29.5799 102.532 30.3199 102.081 31.0799C101.856 31.4499 101.634 31.8299 101.411 32.2099C101.407 32.2199 101.402 32.22 101.398 32.23C101.409 32.05 101.414 31.86 101.44 31.67ZM101.055 44.88C100.365 43.22 100.084 41.42 100.198 39.63C100.29 38.18 100.681 36.8 101.229 35.4799C101.793 39.11 102.232 42.72 102.135 46.4C101.602 46.11 101.265 45.38 101.055 44.88ZM104.198 44.62C104.062 45.36 103.684 46.32 102.862 46.49C102.958 43 102.732 39.41 101.86 36.02C103.702 38.46 104.763 41.53 104.198 44.62ZM102.301 32.92C102.239 32.97 102.007 33.1199 101.754 33.3199C101.639 33.2799 101.509 33.3 101.411 33.42C101.401 33.43 101.392 33.4499 101.382 33.4599C101.381 33.4199 101.382 33.3899 101.381 33.3499C101.617 33.1499 101.77 32.8499 101.932 32.5899C102.181 32.1899 102.432 31.79 102.679 31.39C103.139 30.65 103.589 29.89 104.044 29.14C104.98 27.6 105.918 26.05 106.859 24.51C106.924 24.54 106.99 24.57 107.051 24.62C107.673 25.13 107.147 26.3 106.926 26.91C106.366 28.46 105.479 29.8799 104.368 31.0899C103.74 31.7699 103.042 32.37 102.301 32.92ZM114.346 27.0799C114.523 26.6999 114.741 26.3 114.844 25.89C114.875 25.91 114.907 25.9199 114.938 25.9399C115.588 26.3299 115.341 27.2599 115.141 27.8399C114.661 29.2299 113.855 30.52 112.917 31.65C112.062 32.68 111.03 33.47 110.009 34.29C110.324 33.9 110.603 33.4599 110.86 33.0899C111.405 32.3199 111.922 31.5299 112.409 30.7199C112.882 29.9299 113.327 29.13 113.743 28.31C113.951 27.91 114.152 27.4899 114.346 27.0799ZM110.305 30.1999C110.932 28.7999 111.835 27.3099 113.037 26.3299C113.343 26.0799 113.747 25.85 114.157 25.79C113.975 26.12 113.836 26.4899 113.679 26.8199C113.485 27.2399 113.284 27.65 113.076 28.06C112.673 28.85 112.242 29.63 111.786 30.39C111.33 31.15 110.847 31.9 110.34 32.63C110.062 33.02 109.784 33.4199 109.496 33.8199C109.43 33.9099 109.369 33.9899 109.304 34.0799C109.432 32.7399 109.756 31.4199 110.305 30.1999ZM109.943 44.4C109.575 43.4 109.31 42.36 109.187 41.3C108.995 39.64 109.162 37.93 109.738 36.37C110.181 38 110.532 39.6699 110.777 41.3399C110.902 42.1999 110.996 43.06 111.06 43.92C111.124 44.79 111.077 45.68 111.181 46.54C110.543 46.04 110.202 45.11 109.943 44.4ZM113.071 41.4399C113.35 42.4499 113.505 43.49 113.51 44.54C113.515 45.48 113.178 47.13 111.864 46.87C111.814 46.86 111.771 46.8299 111.724 46.8199C111.768 46.7799 111.807 46.73 111.817 46.65C111.925 45.75 111.811 44.78 111.739 43.88C111.668 42.99 111.565 42.0999 111.429 41.2199C111.174 39.5599 110.777 37.95 110.272 36.36C111.546 37.87 112.536 39.5099 113.071 41.4399ZM124.736 28.76C124.967 29.4 124.748 30.15 124.479 30.74C123.861 32.11 122.888 33.33 121.72 34.26C120.804 34.99 119.764 35.5299 118.673 35.9499C119.915 34.9999 121.039 33.8899 122.032 32.6899C122.624 31.9799 123.176 31.2299 123.687 30.4599C123.949 30.0599 124.2 29.66 124.438 29.25C124.525 29.1 124.635 28.93 124.736 28.76ZM122.52 28.52C123.032 28.15 123.737 27.79 124.278 28.15C124.143 28.36 124.042 28.6 123.927 28.8C123.693 29.22 123.446 29.62 123.189 30.02C122.676 30.82 122.115 31.58 121.513 32.31C120.454 33.59 119.271 34.74 118.042 35.86C118.575 32.98 120.131 30.24 122.52 28.52ZM117.821 48.8499C117.075 48.2199 116.687 47.15 116.425 46.24C116.15 45.28 116.045 44.28 116.086 43.28C116.152 41.7 116.621 40.1199 117.397 38.7199C117.233 40.4399 117.205 42.17 117.318 43.9C117.382 44.89 117.483 45.89 117.621 46.87C117.71 47.51 117.757 48.26 117.936 48.92C117.898 48.9 117.861 48.8799 117.821 48.8499ZM118.658 49.15C118.637 48.73 118.512 48.3 118.444 47.89C118.373 47.47 118.309 47.05 118.252 46.63C118.123 45.67 118.029 44.72 117.968 43.76C117.853 41.93 117.852 40.1 117.914 38.27C117.947 38.38 117.996 38.4799 118.04 38.5899C117.942 40.3999 118.026 42.2 118.215 44.01C118.389 45.68 118.62 47.38 119.027 49.02C118.911 49.09 118.789 49.14 118.658 49.15ZM119.836 44.1999C119.974 45.2899 120.061 46.47 119.889 47.56C119.844 47.84 119.743 48.14 119.6 48.4C119.288 46.86 118.977 45.34 118.795 43.77C118.633 42.38 118.552 40.9799 118.486 39.5699C118.693 40.0199 118.887 40.4699 119.051 40.9399C119.425 41.9899 119.695 43.0899 119.836 44.1999ZM125.764 48.2299C124.818 47.3399 124.256 46.04 124.172 44.75C124.079 43.33 124.562 42.09 125.267 40.92C125.401 41.11 125.571 41.2899 125.745 41.4699C125.409 42.7199 125.37 44.0399 125.482 45.3299C125.543 46.0399 125.655 46.7399 125.81 47.4399C125.89 47.7899 125.984 48.15 126.091 48.5C125.972 48.42 125.861 48.3299 125.764 48.2299ZM127.293 43.67C127.831 44.78 128.164 46.05 128.152 47.29C128.147 47.8 128.046 48.47 127.541 48.74C127.365 48.83 127.18 48.8599 126.997 48.8499C126.977 48.6599 126.897 48.48 126.833 48.29C126.731 47.98 126.639 47.6599 126.558 47.3399C126.38 46.6499 126.255 45.9399 126.181 45.2299C126.067 44.1199 126.104 43.01 126.154 41.9C126.219 41.97 126.284 42.04 126.34 42.12C126.707 42.6 127.029 43.12 127.293 43.67ZM127.301 39.77C128.222 38.98 129.03 38.04 129.783 37.11C130.21 36.58 130.613 36.0299 131.005 35.4699C131.382 34.9299 131.921 34.34 131.972 33.67C131.984 33.52 131.786 33.45 131.674 33.52C131.142 33.82 130.827 34.51 130.476 35C130.072 35.57 129.646 36.12 129.216 36.66C128.485 37.59 127.681 38.46 126.937 39.38C126.954 39.06 126.976 38.74 127.032 38.43C127.161 37.69 127.367 36.96 127.662 36.27C128.178 35.06 128.985 33.62 130.287 33.13C131.367 32.73 132.787 33.2699 132.683 34.5899C132.584 35.8299 131.743 37.0799 130.89 37.9399C130.398 38.4399 129.833 38.85 129.219 39.18C128.702 39.46 128.154 39.67 127.613 39.89C127.509 39.85 127.405 39.81 127.301 39.77ZM133.15 53.17C132.94 52.86 132.774 52.5199 132.658 52.2299C132.298 51.3699 132.156 50.43 132.16 49.49C132.165 48.47 132.36 47.4499 132.647 46.4699C132.871 45.6999 133.204 44.93 133.444 44.16C133.538 44.2 133.633 44.25 133.727 44.3C133.404 45 133.321 45.88 133.217 46.62C133.102 47.44 133.031 48.2699 132.996 49.0899C132.937 50.4599 132.993 51.82 133.15 53.17ZM135.627 52.43C135.535 53.06 135.277 54.1699 134.434 54.0999C134.292 54.0899 134.159 54.05 134.032 53.99C133.784 52.42 133.668 50.84 133.711 49.25C133.734 48.39 133.804 47.53 133.914 46.68C133.978 46.18 134.101 45.66 134.179 45.15C134.347 45.56 134.513 45.98 134.667 46.4C135.006 47.33 135.305 48.28 135.496 49.25C135.697 50.29 135.779 51.38 135.627 52.43ZM136.044 42.24C136.346 41.74 136.726 41.3 137.149 40.9C138 40.1 139.069 39.53 140.206 39.27C140.725 39.15 141.873 38.97 142.554 39.25C142.319 39.27 142.079 39.32 141.854 39.37C141.433 39.45 141.016 39.5599 140.607 39.6899C139.82 39.9399 139.057 40.2899 138.34 40.6999C137.436 41.2199 136.604 41.8499 135.875 42.5899C135.93 42.4699 135.98 42.35 136.044 42.24ZM135.574 43.55C135.569 43.55 135.564 43.55 135.558 43.54C136.484 42.66 137.491 41.86 138.625 41.26C139.309 40.89 140.025 40.61 140.762 40.37C141.134 40.25 141.511 40.14 141.892 40.06C142.25 39.98 142.728 40 143.027 39.77C143.036 39.77 143.04 39.75 143.048 39.75C143.08 39.86 143.102 39.97 143.083 40.12C143.003 40.74 142.438 41.26 142 41.66C141.523 42.1 140.989 42.47 140.423 42.78C139.155 43.48 137.652 43.85 136.209 43.9C135.995 43.79 135.788 43.66 135.574 43.55ZM143.469 55.9C143.449 56.47 143.474 57.1699 143.192 57.6899C142.989 58.0599 142.616 58.15 142.257 58.06C142.254 57.81 142.196 57.56 142.146 57.31C142.074 56.95 142.021 56.5799 141.976 56.2099C141.891 55.5099 141.852 54.7999 141.865 54.0999C141.891 52.6699 142.107 51.2199 142.502 49.8499C142.565 49.6299 142.203 49.4899 142.12 49.7099C141.595 51.0999 141.277 52.4999 141.193 53.9799C141.151 54.7299 141.163 55.49 141.236 56.25C141.27 56.6 141.321 56.95 141.382 57.29C141.39 57.34 141.397 57.38 141.404 57.43C141.153 57.08 140.986 56.66 140.86 56.26C140.496 55.12 140.443 53.8799 140.671 52.7099C140.908 51.4899 141.483 50.27 142.209 49.24C142.355 49.34 142.501 49.43 142.646 49.53C143.031 50.91 143.319 52.2799 143.425 53.7099C143.479 54.4399 143.494 55.17 143.469 55.9ZM150.784 44.77C150.891 44.75 151.002 44.7399 151.112 44.7199C150.844 44.9099 150.581 45.11 150.316 45.29C149.645 45.74 148.955 46.16 148.25 46.55C147.471 46.99 146.668 47.37 145.864 47.75C147.076 46.21 148.836 45.12 150.784 44.77ZM145.099 49.4C145.039 49.35 144.977 49.31 144.916 49.27C144.988 49.12 145.076 48.9799 145.157 48.8299C146.38 48.4299 147.551 47.8399 148.669 47.2099C149.374 46.8199 150.063 46.3899 150.733 45.9399C151.282 45.5699 151.88 45.19 152.313 44.67C152.44 44.68 152.566 44.6899 152.688 44.7099C152.936 44.7599 153.243 44.83 153.384 45.06C153.562 45.36 153.395 45.7199 153.242 45.9799C152.892 46.5799 152.284 47.0699 151.729 47.4699C151.171 47.8699 150.568 48.2199 149.928 48.4699C149.201 48.7699 148.44 48.96 147.663 49.06C146.893 49.16 146.054 49.0099 145.306 49.1899C145.191 49.2199 145.133 49.3 145.099 49.4ZM154.831 51.26C155.721 51.06 156.663 51.08 157.55 51.28C157.889 51.36 158.307 51.46 158.697 51.62C158.305 51.57 157.909 51.53 157.514 51.52C156.647 51.48 155.786 51.57 154.936 51.74C153.74 51.99 152.622 52.4499 151.608 53.0999C152.484 52.1899 153.58 51.54 154.831 51.26ZM158.904 52.4499C158.534 52.5499 158.163 52.6399 157.788 52.7199C157.017 52.8899 156.242 53.04 155.465 53.16C154.218 53.37 152.963 53.5399 151.709 53.6999C152.773 53.1299 153.915 52.6999 155.099 52.4699C155.86 52.3299 156.642 52.27 157.416 52.29C157.82 52.3 158.223 52.33 158.623 52.39C158.712 52.41 158.807 52.4299 158.904 52.4499ZM149.811 62.14C148.888 61.13 148.591 59.42 148.603 58.11C148.614 56.88 148.967 55.76 149.46 54.67C149.478 54.68 149.496 54.6999 149.514 54.7099C149.239 55.9899 149.195 57.2899 149.381 58.5899C149.483 59.2999 149.637 60 149.851 60.68C150.038 61.28 150.252 61.9199 150.588 62.4599C150.335 62.5099 150.056 62.4 149.811 62.14ZM151.216 61.8399C151.182 61.9299 151.141 62.0199 151.095 62.0899C150.895 61.5499 150.652 61.0299 150.48 60.4799C150.277 59.8299 150.125 59.1599 150.032 58.4799C149.876 57.3599 149.865 56.2099 149.959 55.0699C150.033 55.1299 150.107 55.19 150.179 55.25C150.533 56.6 150.846 57.9599 151.076 59.3399C151.204 60.0999 151.486 61.0799 151.216 61.8399ZM156.155 54.79C154.647 55.05 152.93 54.9 151.478 54.4C151.419 54.35 151.362 54.3 151.305 54.24C152.768 54.19 154.218 54.05 155.666 53.81C156.419 53.69 157.169 53.55 157.916 53.39C158.303 53.31 158.69 53.23 159.078 53.15C159.327 53.1 159.57 53.0699 159.788 52.9799C159.382 53.9399 156.781 54.68 156.155 54.79Z" fill="#4D4C51"/>
</svg>
