<svg width="277" height="112" viewBox="0 0 277 112" fill="none" xmlns="http://www.w3.org/2000/svg">
<path d="M241.682 59.7399C241.642 59.7199 241.6 59.7 241.56 59.68C241.549 59.42 241.302 59.15 240.976 59.26C240.932 59.27 240.887 59.29 240.842 59.3C238.2 58 235.155 57.67 232.246 58.06C228.906 58.51 225.79 59.9 222.942 61.66C221.302 62.67 219.744 63.8099 218.218 64.9799C218.135 65.0399 218.088 65.1199 218.057 65.1999C210.948 65.7299 203.847 66.3799 196.756 67.1199C196.666 67.0799 196.565 67.1 196.479 67.15C195.619 67.24 194.758 67.32 193.898 67.41C193.307 67.48 192.717 67.5499 192.126 67.6199C193.417 67.0999 194.656 66.4499 195.816 65.6899C199.184 63.4699 201.811 60.3 203.724 56.78C204.789 54.82 205.631 52.7399 206.319 50.6199C206.401 50.5799 206.484 50.55 206.566 50.51C206.956 50.33 206.84 49.6199 206.367 49.7299C206.277 49.7499 206.188 49.78 206.098 49.81C205.915 49.74 205.695 49.7799 205.555 49.9599C203.751 50.4699 201.972 51.21 200.25 51.92C198.306 52.71 196.401 53.6199 194.597 54.6999C191.222 56.7199 188.257 59.4799 186.416 62.9899C185.931 63.9199 185.546 64.89 185.26 65.9C185.052 66.63 184.871 67.4299 184.851 68.2099C184.827 68.2199 184.803 68.2199 184.779 68.2199C184.63 68.2499 184.572 68.3599 184.584 68.4799C179.524 69.0799 174.468 69.72 169.42 70.41C168.953 70.48 168.487 70.5499 168.021 70.6099C168.038 70.5899 168.055 70.57 168.066 70.54C171.425 70.11 174.689 68.7999 177.496 66.9399C181.147 64.5299 184.033 61.0699 185.837 57.0899C186.855 54.8399 187.513 52.4399 187.794 49.9899C187.828 49.6899 187.596 49.4699 187.303 49.4799C178.258 49.8899 169.993 55.34 165.942 63.42C164.835 65.62 164.059 67.99 163.632 70.42C163.586 70.69 163.75 70.85 163.95 70.91C163.879 71.01 163.805 71.1199 163.738 71.2199C157.535 72.1199 151.341 73.09 145.161 74.13C144.626 74.22 144.092 74.32 143.557 74.41C144.6 74.01 145.615 73.52 146.58 73.03C148.348 72.12 150.036 71.0499 151.611 69.8399C154.731 67.4299 157.437 64.4599 159.493 61.0999C160.662 59.1899 161.629 57.16 162.37 55.04C162.442 54.84 162.345 54.54 162.087 54.53C157.913 54.29 153.881 55.54 150.461 57.93C146.975 60.36 144.362 63.8699 142.645 67.7299C141.659 69.9499 141.02 72.27 140.514 74.64C140.488 74.76 140.517 74.85 140.569 74.93C135.904 75.75 131.249 76.63 126.6 77.54C130.206 74.84 133.424 71.5099 136.146 67.9599C139.242 63.9099 141.791 59.4299 143.675 54.6999C144.739 52.0199 145.588 49.2599 146.218 46.4599C146.281 46.1799 145.943 45.9 145.682 46.03C138.051 49.82 132.508 56.9999 130.858 65.3699C130.361 67.8899 130.228 70.48 130.44 73.03C130.447 73.11 130.472 73.1699 130.506 73.2299C128.888 74.8399 127.174 76.34 125.402 77.78C123.906 78.07 122.408 78.36 120.914 78.66C117.269 79.4 113.627 80.1599 109.991 80.9599C110.711 80.3199 111.368 79.6 112.034 78.92C112.9 78.03 113.746 77.1199 114.577 76.1899C114.823 75.9199 115.057 75.6299 115.3 75.3599C119.162 74.7199 122.697 72.5099 125.387 69.7199C128.402 66.5899 130.162 62.67 130.97 58.43C131.225 57.09 131.41 55.73 131.554 54.38C131.626 53.69 131.689 53.0099 131.746 52.3299C131.802 51.6599 131.93 50.94 131.83 50.27C131.783 49.96 131.261 49.81 131.154 50.17C131.145 50.2 131.141 50.23 131.133 50.26C131.126 50.27 131.117 50.28 131.112 50.29C131.101 50.31 131.09 50.3299 131.079 50.3499C130.735 50.4499 130.426 50.6499 130.102 50.8199C129.614 51.0899 129.129 51.36 128.652 51.64C127.748 52.18 126.859 52.7399 125.99 53.3399C124.233 54.5399 122.57 55.8699 121.049 57.3499C118.054 60.2899 115.711 63.8799 114.603 67.9499C113.979 70.2399 113.817 72.6299 114.12 74.9799C114.151 75.2299 114.343 75.3299 114.534 75.3299C113.681 76.2999 112.813 77.25 111.926 78.18C110.991 79.17 109.963 80.1 109.104 81.15C105.038 82.05 100.983 82.99 96.949 84C95.998 84.24 95.052 84.5 94.105 84.75C93.92 84.8 93.999 85.1199 94.189 85.0799C102.192 83.4099 110.162 81.5999 118.173 79.9699C118.56 79.8899 118.95 79.8199 119.337 79.7399C119.359 79.7899 119.401 79.84 119.467 79.88C120.593 80.44 121.842 80.8 123.014 81.26C123.283 81.37 123.548 81.4799 123.816 81.5899C124.155 82.5499 124.678 83.4499 125.174 84.3199C125.748 85.3199 126.373 86.3 127.039 87.25C128.377 89.16 129.878 90.9499 131.509 92.6099C134.748 95.9199 138.559 98.68 142.69 100.76C144.804 101.83 147.053 102.78 149.354 103.39C149.468 103.47 149.6 103.51 149.733 103.49C149.819 103.52 149.903 103.55 149.988 103.57C150.545 103.7 150.823 102.77 150.272 102.59C150.208 102.57 150.144 102.55 150.08 102.52C149.87 102.11 149.626 101.71 149.371 101.31C148.23 96.77 146.919 92.1899 144.157 88.3499C142.813 86.4799 141.148 84.84 139.169 83.65C137.11 82.41 134.766 81.71 132.394 81.39C131.047 81.21 129.683 81.1599 128.325 81.1899C127.386 81.2099 126.432 81.25 125.497 81.38C124.926 81.14 124.353 80.9 123.774 80.67C122.694 80.25 121.548 79.79 120.393 79.53C126.598 78.29 132.816 77.12 139.047 76.02C139.141 76.22 139.235 76.4199 139.337 76.6199C139.361 76.6999 139.401 76.7799 139.46 76.8399C140.464 78.7199 141.816 80.45 143.253 82C144.963 83.84 146.881 85.4899 148.985 86.8699C153.616 89.8999 159.044 91.67 164.577 91.91C165.949 91.98 167.326 91.9499 168.695 91.8399C169.95 91.7299 171.378 91.66 172.548 91.15C173.033 90.94 173.482 90.6 173.746 90.17C174.019 90.09 174.162 89.7 173.975 89.42C173.982 89.22 173.956 89.01 173.866 88.78C173.643 88.23 173.157 87.82 172.745 87.41C172.268 86.94 171.79 86.46 171.307 86C167.354 82.18 162.893 78.73 157.776 76.63C154.59 75.32 151.117 74.56 147.66 74.54C153.941 73.5 160.234 72.54 166.538 71.65C169.222 71.28 171.909 70.9199 174.597 70.5699C174.614 70.6399 174.637 70.6999 174.682 70.7499C174.7 70.7799 174.729 70.78 174.749 70.8C174.75 70.82 174.751 70.8399 174.752 70.8599C174.743 70.9199 174.743 70.97 174.759 71.03C174.812 72.01 175.109 73.0199 175.392 73.9399C175.767 75.1399 176.243 76.3199 176.812 77.4399C177.919 79.6399 179.375 81.64 181.1 83.39C184.828 87.16 189.855 89.4599 195.128 89.9399C196.656 90.0799 198.202 90.08 199.729 89.93C200.483 89.85 201.232 89.7299 201.974 89.5799C202.722 89.4299 203.447 89.2699 204.079 88.8199C204.263 88.6899 204.237 88.37 204.051 88.26C204.061 88.21 204.08 88.1599 204.073 88.1099C204.052 87.9299 203.96 87.7899 203.83 87.6999C203.772 87.5899 203.706 87.48 203.645 87.38C203.492 87.13 203.336 86.88 203.176 86.63C202.856 86.13 202.523 85.63 202.177 85.15C201.514 84.23 200.801 83.3399 200.042 82.4899C198.493 80.7599 196.777 79.2 194.933 77.79C191.292 75.01 187.12 72.9099 182.699 71.6999C181.125 71.2699 179.509 70.95 177.881 70.78C177.447 70.62 177.012 70.4699 176.575 70.3199C181.342 69.7199 186.113 69.15 190.892 68.64C192.727 68.44 194.562 68.2499 196.398 68.0699C196.406 68.0999 196.421 68.12 196.434 68.14C196.421 68.14 196.41 68.14 196.397 68.14C196.31 68.14 196.225 68.21 196.265 68.3C196.372 68.56 196.581 68.7699 196.826 68.9599C197.288 70.0999 197.854 71.1899 198.571 72.2299C199.542 73.6299 200.742 74.9099 202.067 75.9899C204.93 78.3199 208.49 79.7099 212.177 79.9399C214.072 80.0499 215.968 79.88 217.804 79.4C218.554 79.2 219.545 79 219.977 78.27C220.471 77.45 219.85 76.7199 219.23 76.2099C216.297 73.7899 212.977 71.8199 209.476 70.3399C206.517 69.0899 203.409 68.1999 200.238 67.6999C205.267 67.2299 210.299 66.8 215.335 66.41C216.268 66.34 217.201 66.2699 218.134 66.1999C218.12 66.2499 218.12 66.3099 218.161 66.3499C218.793 67.0199 219.619 67.3899 220.453 67.7499C221.302 68.1199 222.196 68.3899 223.097 68.5999C224.939 69.0299 226.876 69.1299 228.756 68.9399C232.251 68.5799 235.586 67.1 238.244 64.81C239.711 63.55 240.945 62.06 241.932 60.4C242.085 60.15 241.89 59.8699 241.682 59.7399ZM132.317 71.3399C135.638 65.3199 138.896 59.2699 142.178 53.2399C142.691 52.2899 143.203 51.35 143.716 50.41C144.135 49.64 144.645 48.85 145.011 48.04C142.763 56.7 138.334 64.7199 132.317 71.3399ZM140.428 50.4499C141.627 49.4199 142.923 48.5099 144.286 47.7099C143.922 48.3099 143.628 48.9699 143.303 49.5799C142.863 50.4199 142.421 51.2499 141.979 52.0799C141.096 53.7499 140.215 55.4199 139.331 57.0799C137.563 60.4099 135.788 63.7399 134.018 67.0699C133.088 68.8199 132.182 70.5799 131.27 72.3399C130.737 64.0799 134.138 55.8699 140.428 50.4499ZM130.376 57.0799C130.003 59.3699 129.414 61.6399 128.442 63.7499C126.842 67.2199 124.196 70.1399 120.993 72.2099C119.662 73.0699 118.215 73.74 116.732 74.31C118.016 73.62 119.211 72.6599 120.308 71.7499C121.745 70.5599 123.087 69.2499 124.304 67.8299C126.759 64.9699 128.69 61.6499 129.999 58.1199C130.138 57.7499 130.264 57.3699 130.39 56.9899C130.384 57.0199 130.381 57.0499 130.376 57.0799ZM130.315 54.63C130.099 55.51 129.844 56.3799 129.551 57.2299C128.957 58.9699 128.197 60.65 127.307 62.26C125.541 65.45 123.229 68.37 120.498 70.78C119.732 71.46 118.932 72.0999 118.102 72.6899C117.703 72.9799 117.289 73.25 116.878 73.52C117.724 72.52 118.561 71.5099 119.367 70.4799C122.444 66.5399 125.231 62.37 127.72 58.04C128.801 56.15 129.864 54.23 130.8 52.27C130.602 53.04 130.506 53.85 130.315 54.63ZM117.429 63.17C119.491 59.59 122.552 56.7 125.886 54.31C126.83 53.63 127.801 53 128.791 52.39C129.262 52.1 129.734 51.81 130.209 51.53C130.329 51.45 130.454 51.3799 130.579 51.3199C129.614 53.1799 128.68 55.06 127.649 56.9C126.416 59.09 125.105 61.2399 123.718 63.3399C121.055 67.3699 118.121 71.2299 114.942 74.8699C114.268 70.8199 115.41 66.68 117.429 63.17ZM146.479 96.52C146.63 96.97 146.753 97.43 146.876 97.88C146.723 97.69 146.567 97.49 146.415 97.29C146.222 96.9 146.023 96.51 145.824 96.13C144.894 94.37 143.775 92.71 142.501 91.17C139.981 88.14 136.852 85.6399 133.342 83.8399C132.527 83.4199 131.688 83.0499 130.836 82.7199C131.306 82.8099 131.774 82.92 132.237 83.04C134.163 83.56 136.01 84.36 137.711 85.4C140.932 87.38 143.536 90.2599 145.25 93.6199C145.73 94.5499 146.143 95.52 146.479 96.52ZM131.287 82.13C133.573 82.36 135.827 82.9099 137.876 83.9699C141.049 85.6099 143.323 88.41 144.942 91.54C144.42 90.73 143.845 89.9499 143.221 89.2199C140.61 86.1399 137.12 83.8899 133.266 82.7099C132.371 82.4299 131.455 82.2299 130.531 82.0799C130.783 82.0999 131.036 82.1 131.287 82.13ZM128.34 82.3699C128.764 82.4999 129.189 82.63 129.607 82.78C130.525 83.1 131.424 83.48 132.3 83.9C134.05 84.75 135.703 85.7899 137.233 86.9799C139.894 89.0699 142.203 91.5999 143.995 94.4599C142.86 93.2299 141.675 92.05 140.431 90.93C136.611 87.51 132.303 84.63 127.688 82.39C127.645 82.37 127.601 82.3499 127.558 82.3299C127.819 82.3399 128.08 82.3599 128.34 82.3699ZM125.073 82.14C125.554 82.35 126.035 82.56 126.509 82.79C128.767 83.87 130.947 85.11 133.026 86.51C137.164 89.29 140.944 92.63 144.183 96.42C144.92 97.29 145.619 98.1799 146.3 99.0899C146.615 99.9099 146.905 100.75 147.267 101.56C146.133 101.15 145.007 100.72 143.905 100.21C141.842 99.2499 139.861 98.1199 137.986 96.8299C134.237 94.2499 130.883 91.0799 128.132 87.4599C127.357 86.4399 126.634 85.38 125.947 84.29C125.504 83.6 125.111 82.86 124.688 82.14C124.817 82.14 124.945 82.14 125.073 82.14ZM146.984 71.9699C146.044 72.4999 145.074 72.98 144.086 73.41C143.943 73.47 143.796 73.5299 143.652 73.5899C144.285 73.1599 144.903 72.7 145.506 72.27C146.924 71.26 148.307 70.2099 149.651 69.0999C152.305 66.9199 154.85 64.56 157.204 62.06C157.854 61.36 158.491 60.6599 159.115 59.9399C159.189 59.8599 159.268 59.7699 159.345 59.6899C156.408 64.7799 152.1 69.0799 146.984 71.9699ZM158.731 59.1999C158.184 59.8599 157.626 60.5 157.057 61.14C155.92 62.42 154.759 63.6699 153.528 64.8599C151.062 67.2399 148.43 69.4399 145.66 71.4599C145.014 71.9299 144.357 72.3799 143.698 72.8399C144.294 72.3099 144.891 71.7799 145.481 71.2399C146.827 70.0099 148.163 68.78 149.497 67.54C152.187 65.04 154.868 62.53 157.542 60.02C158.248 59.35 158.952 58.69 159.654 58.02C159.339 58.41 159.042 58.8299 158.731 59.1999ZM155.359 56.27C157.306 55.55 159.418 55.1599 161.498 55.2399C161.485 55.2699 161.471 55.2999 161.458 55.3399C160.821 55.8799 160.237 56.4999 159.636 57.0799C158.972 57.7299 158.307 58.37 157.642 59.02C156.307 60.31 154.966 61.5899 153.616 62.8599C150.947 65.3899 148.244 67.8699 145.525 70.3399C144.744 71.0499 143.97 71.7599 143.193 72.4799C142.626 72.9999 142.041 73.5 141.505 74.05C143.039 66.4 147.815 59.02 155.359 56.27ZM141.521 76.41C143.475 76.28 145.432 76.7499 147.287 77.3599C149.545 78.0999 151.773 78.9399 153.973 79.8299C158.319 81.6099 162.542 83.6399 166.61 85.9899C167.863 86.7099 169.095 87.4599 170.323 88.2199C170.399 88.2799 170.476 88.34 170.552 88.41C167.044 87.24 163.545 86.0599 160.088 84.7299C155.751 83.0599 151.461 81.2799 147.237 79.3399C145.223 78.4099 143.242 77.3999 141.217 76.4999C141.317 76.4599 141.42 76.44 141.521 76.41ZM169.438 90.76C168.105 90.91 166.76 90.9799 165.418 90.9599C160.189 90.8499 155.006 89.43 150.491 86.79C148.208 85.45 146.093 83.8 144.221 81.93C142.671 80.39 141.373 78.67 140.117 76.9C140.238 76.85 140.361 76.81 140.483 76.76C142.271 77.8 144.155 78.6899 146.017 79.5799C148.126 80.5899 150.252 81.57 152.392 82.51C156.616 84.37 160.902 86.08 165.243 87.65C167.618 88.51 170.004 89.3799 172.422 90.1099C171.574 90.6199 170.366 90.66 169.438 90.76ZM155.337 76.6999C160.277 78.2899 164.655 81.23 168.523 84.64C169.492 85.49 170.432 86.38 171.35 87.28C171.665 87.59 171.981 87.9099 172.286 88.2399C171.768 87.8999 171.234 87.58 170.706 87.26C170.506 87.1 170.307 86.93 170.107 86.77C169.263 86.08 168.403 85.42 167.532 84.76C165.794 83.46 164.033 82.18 162.2 81.02C158.538 78.69 154.569 76.7999 150.319 75.8499C149.758 75.7199 149.191 75.61 148.621 75.52C150.897 75.6 153.168 75.9999 155.337 76.6999ZM149.498 76.3C151.602 76.76 153.643 77.4599 155.615 78.3199C159.208 79.8999 162.562 82.03 165.667 84.42C164.167 83.64 162.656 82.89 161.14 82.16C156.827 80.1 152.372 78.2799 147.813 76.8399C146.434 76.3999 145.007 76.03 143.57 75.9C143.994 75.81 144.421 75.7499 144.849 75.6899C146.411 75.7899 147.966 75.96 149.498 76.3ZM167.342 69.54C168.171 69.05 168.991 68.54 169.795 68.01C171.478 66.91 173.111 65.7199 174.686 64.4599C177.81 61.9699 180.73 59.2099 183.353 56.1899C184.102 55.3299 184.813 54.43 185.511 53.53C185.443 53.68 185.381 53.8399 185.31 53.9899C184.911 54.8499 184.467 55.6799 183.984 56.4899C183.004 58.1399 181.856 59.6699 180.57 61.0899C177.998 63.9199 174.867 66.2599 171.428 67.9399C170.103 68.5899 168.736 69.1 167.342 69.54ZM182.26 61.39C179.652 64.73 176.136 67.21 172.167 68.68C171.115 69.07 170.033 69.3599 168.937 69.5899C175.164 67.5599 180.638 62.9999 184.123 57.5699C184.734 56.6199 185.29 55.6299 185.782 54.6099C185.882 54.3999 185.969 54.1899 186.064 53.9799C185.264 56.6599 183.982 59.18 182.26 61.39ZM170.048 67.05C169.163 67.65 168.264 68.22 167.353 68.78C166.894 69.07 166.424 69.3299 165.962 69.6099C166.025 69.5299 166.087 69.46 166.151 69.38C166.834 68.6 167.51 67.8 168.207 67.03C169.601 65.48 171.031 63.9599 172.517 62.4899C175.459 59.5899 178.6 56.9 181.89 54.41C183.372 53.28 184.911 52.24 186.413 51.14C181.934 57.34 176.381 62.76 170.048 67.05ZM180.278 51.81C182.038 51.17 183.868 50.74 185.724 50.52C184.439 51.32 183.21 52.2099 181.991 53.1199C180.316 54.3599 178.687 55.66 177.102 57.02C173.881 59.77 170.839 62.74 168.013 65.89C167.225 66.78 166.452 67.6699 165.709 68.5899C165.365 69.0199 165.015 69.45 164.678 69.89C166.374 61.63 172.322 54.69 180.278 51.81ZM187.866 74.5899C191.868 76.4599 195.517 79.0899 198.516 82.3399C198.966 82.8299 199.4 83.3399 199.821 83.8499C199.477 83.5599 199.132 83.2699 198.789 82.9799C197.142 81.6099 195.433 80.3199 193.676 79.0899C190.106 76.5999 186.317 74.41 182.344 72.63C182.16 72.54 181.973 72.47 181.788 72.38C183.875 72.93 185.914 73.6699 187.866 74.5899ZM187.081 76.01C190.874 78.02 194.484 80.36 197.852 83.02C199.152 84.05 200.377 85.16 201.619 86.25C201.626 86.26 201.633 86.27 201.64 86.28C201.592 86.25 201.544 86.2199 201.497 86.1999C201.056 85.9399 200.614 85.68 200.173 85.42C199.29 84.9 198.405 84.3899 197.521 83.8699C195.783 82.8599 194.056 81.83 192.329 80.79C188.811 78.69 185.299 76.5799 181.788 74.4699C180.088 73.4499 178.394 72.4199 176.655 71.4599C180.225 72.7699 183.708 74.22 187.081 76.01ZM199.34 85.9799C192.808 83.0999 186.568 79.4999 180.836 75.2499C179.871 74.5399 178.919 73.81 177.981 73.06C177.697 72.83 177.416 72.5999 177.134 72.3599C180.028 74.2499 183.036 75.99 185.989 77.78C189.494 79.9 193.006 82.0199 196.482 84.1899C197.435 84.7799 198.386 85.3799 199.34 85.9799ZM179.71 75.28C181.378 76.58 183.07 77.86 184.823 79.04C188.389 81.43 192.124 83.5899 195.978 85.4899C198.089 86.5299 200.24 87.4799 202.42 88.3699C201.667 88.5099 200.916 88.71 200.168 88.81C198.874 88.97 197.563 89.0299 196.259 88.9699C193.654 88.8399 191.078 88.27 188.665 87.28C184.177 85.43 180.43 82.08 177.983 77.9C177.3 76.73 176.719 75.5099 176.253 74.2399C176.031 73.6299 175.836 73.02 175.659 72.4C175.598 72.19 175.548 71.97 175.495 71.76C176.772 73.06 178.288 74.18 179.71 75.28ZM205.021 51.4899C205.007 51.5299 204.99 51.5799 204.976 51.6199C204.646 52.0999 204.351 52.6099 204.024 53.0899C203.519 53.8199 202.988 54.5299 202.434 55.2299C201.356 56.5799 200.19 57.8699 198.949 59.0799C196.445 61.5199 193.663 63.65 190.628 65.39C189.776 65.87 188.907 66.3299 188.021 66.7499C187.768 66.8699 187.511 66.9899 187.254 67.0999C187.984 66.4199 188.703 65.72 189.426 65.04C190.713 63.83 192.011 62.6299 193.321 61.4399C195.963 59.0499 198.651 56.71 201.383 54.42C202.167 53.76 202.958 53.1199 203.754 52.4799C204.164 52.1499 204.599 51.8299 205.021 51.4899ZM185.908 66.38C186.158 65.49 186.507 64.62 186.921 63.8C187.744 62.16 188.843 60.6699 190.114 59.3499C192.87 56.4899 196.405 54.54 200.036 53.01C201.097 52.57 202.172 52.15 203.253 51.76C203.355 51.72 203.458 51.68 203.56 51.65C203.521 51.68 203.483 51.7199 203.444 51.7499C202.754 52.3199 202.067 52.8999 201.378 53.4799C200.024 54.6199 198.681 55.77 197.348 56.93C194.66 59.27 192.017 61.6599 189.421 64.0999C188.121 65.3299 186.752 66.54 185.578 67.89C185.677 67.38 185.768 66.87 185.908 66.38ZM187.976 67.8699C187.587 67.9299 187.195 67.98 186.802 68.01C187.991 67.59 189.146 66.9399 190.223 66.3599C191.802 65.5199 193.324 64.57 194.784 63.54C197.687 61.48 200.307 59.05 202.573 56.3C202.941 55.86 203.279 55.39 203.627 54.93C201.049 60.36 196.857 65.0399 191.068 67.0799C190.064 67.4299 189.028 67.6999 187.976 67.8699ZM212.915 78.9399C209.493 78.8499 206.121 77.7299 203.354 75.7099C201.223 74.1499 199.46 72.1 198.149 69.8C198.744 70.18 199.342 70.55 199.947 70.92C201.374 71.78 202.839 72.5799 204.325 73.3299C207.268 74.8299 210.313 76.1299 213.425 77.2299C214.662 77.6699 215.928 78.1199 217.205 78.4799C215.804 78.8199 214.353 78.9799 212.915 78.9399ZM218.715 77.7499C218.866 77.7899 219.015 77.69 219.094 77.56C219.111 77.62 219.117 77.6799 219.096 77.7399C219.059 77.8499 218.955 77.9299 218.828 77.9899C217.341 77.5299 215.826 77.16 214.343 76.67C212.786 76.17 211.246 75.6099 209.726 74.9899C206.744 73.7999 203.847 72.38 201.056 70.78C200.243 70.32 199.436 69.8499 198.64 69.3499C198.564 69.3099 198.488 69.2599 198.413 69.2099C198.79 69.2899 199.167 69.3599 199.517 69.4499C200.487 69.6899 201.453 69.9499 202.412 70.2399C204.363 70.8199 206.278 71.52 208.157 72.31C210.001 73.08 211.815 73.9299 213.585 74.8599C214.471 75.3199 215.346 75.81 216.208 76.31C216.61 76.55 217.01 76.79 217.408 77.04C217.829 77.3 218.233 77.6199 218.715 77.7499ZM216.345 75.3C216.54 75.44 216.722 75.5999 216.914 75.7399C216.811 75.6799 216.702 75.6199 216.604 75.5699C215.739 75.0599 214.862 74.5799 213.974 74.1199C212.165 73.1899 210.311 72.3499 208.413 71.6099C206.55 70.8899 204.652 70.2699 202.732 69.7099C201.772 69.4299 200.805 69.1699 199.831 68.9499C199.214 68.7999 198.518 68.5899 197.837 68.4899C204.465 69.1299 210.905 71.45 216.345 75.3ZM236.306 58.9999C237.365 59.1299 238.39 59.39 239.375 59.77C236.22 60.8 233.047 61.77 229.848 62.65C226.457 63.58 223.034 64.3799 219.619 65.2099C224.426 61.5699 230.059 58.2699 236.306 58.9999ZM229.944 63.4C233.197 62.54 236.422 61.5899 239.627 60.5699C239.185 60.8999 238.772 61.2899 238.331 61.6099C237.749 62.0299 237.148 62.43 236.53 62.79C235.222 63.57 233.844 64.2199 232.414 64.7399C229.628 65.7599 226.677 66.28 223.712 66.27C222.168 66.27 220.646 66.0799 219.121 65.8699C222.764 65.2199 226.367 64.33 229.944 63.4ZM223.975 67.81C223.002 67.64 222.06 67.3899 221.123 67.0699C220.722 66.9399 220.333 66.7799 219.943 66.6199C222.444 67.1499 225.136 67.0799 227.617 66.7199C230.644 66.2699 233.585 65.2999 236.27 63.8299C237.052 63.3999 237.81 62.93 238.541 62.42C239.12 62.02 239.804 61.58 240.312 61.05C236.673 66.21 230.238 68.91 223.975 67.81Z" fill="#4D4C51"/>
<path d="M221.271 47.9499C221.29 47.9399 221.313 47.93 221.331 47.91C221.561 47.73 221.488 47.2899 221.145 47.3299C220.453 47.3999 219.755 47.79 219.141 48.1C218.483 48.44 217.842 48.7999 217.222 49.1999C215.974 50.0099 214.809 50.95 213.745 51.98C211.6 54.07 209.868 56.57 208.715 59.34C208.072 60.89 207.632 62.51 207.406 64.17C207.391 64.28 207.454 64.35 207.531 64.39C207.505 64.57 207.65 64.76 207.896 64.71C210.685 64.17 213.318 62.3 215.339 60.38C217.452 58.36 219.141 55.87 220.204 53.15C220.807 51.61 221.221 50 221.418 48.35C221.437 48.19 221.373 48.0499 221.271 47.9499ZM217.129 50.28C217.78 49.83 218.456 49.41 219.154 49.04C219.469 48.87 219.816 48.7201 220.16 48.5601C215.891 53.2801 211.849 58.26 208.085 63.39C208.067 63.41 208.062 63.44 208.05 63.46C209.443 58.18 212.622 53.41 217.129 50.28ZM219.695 50.38C219.684 50.41 219.675 50.43 219.664 50.46C219.309 51.2 218.925 51.93 218.513 52.65C217.658 54.13 216.682 55.54 215.598 56.86C213.923 58.91 211.994 60.67 209.908 62.26C211.507 60.18 213.122 58.0999 214.793 56.0699C216.383 54.1399 218.035 52.26 219.695 50.38ZM212.02 61.9499C211.053 62.5799 210.032 63.0801 208.997 63.5601C211.703 61.8901 214.097 59.67 216.114 57.22C217.181 55.93 218.15 54.55 219.005 53.11C219.322 52.57 219.617 52.03 219.902 51.47C218.602 55.73 215.753 59.4999 212.02 61.9499Z" fill="#4D4C51"/>
</svg>
