<svg width="318" height="109" viewBox="0 0 318 109" fill="none" xmlns="http://www.w3.org/2000/svg">
<path d="M241.461 14.27C238.469 19.85 234.59 24.86 229.934 29.05C224.395 27.05 218.483 26.45 212.656 25.91C207.169 25.39 201.48 25 196.171 26.8C194.978 27.21 193.814 27.7099 192.722 28.3499C191.793 28.8799 190.544 29.55 190.164 30.63C189.282 33.13 193.329 34.0299 194.946 34.3599C197.643 34.9099 200.452 35.0299 203.198 35.0899C205.939 35.1499 208.684 35.05 211.415 34.8C216.457 34.34 221.488 33.4199 226.351 31.9799C224.482 33.3699 222.514 34.64 220.444 35.77C215.944 38.23 211.074 39.99 206.033 40.93C199.841 42.09 193.477 42.02 187.237 41.29C185.756 41.12 184.283 40.91 182.816 40.67C182.769 40.51 182.712 40.3499 182.663 40.1899C182.669 40.0999 182.658 40 182.605 39.91C182.587 39.88 182.566 39.8499 182.547 39.8199C181.127 35.3099 178.976 30.9599 176.512 26.9599C173.929 22.7599 170.935 18.37 166.841 15.5C165.87 14.82 164.829 14.25 163.729 13.81C162.703 13.4 161.421 12.92 160.34 13.4C158.019 14.43 158.796 17.55 159.462 19.37C161.092 23.84 164.55 27.29 167.865 30.56C171.299 33.95 174.822 37.3799 178.914 39.9599C168.967 37.9899 159.255 34.8699 149.351 32.6899C148.626 31.0799 147.506 29.62 146.383 28.28C145.161 26.82 143.765 25.5 142.289 24.3C139.303 21.88 135.892 20.01 132.241 18.8C130.437 18.2 128.578 17.78 126.694 17.53C125.968 17.43 125.101 17.41 124.495 17.89C123.851 18.41 123.83 19.26 124.249 19.93C124.737 20.7 125.646 21.23 126.37 21.76C127.269 22.41 128.18 23.05 129.102 23.68C130.978 24.95 132.901 26.14 134.866 27.27C137.612 28.84 140.448 30.25 143.342 31.52C136.271 30.36 129.136 29.9 121.996 30.26C121.063 28.45 119.768 26.76 118.522 25.17C117.14 23.4 115.645 21.73 114.054 20.15C112.435 18.55 110.731 17.0299 108.954 15.5999C107.198 14.1899 105.367 12.81 103.297 11.89C101.667 11.16 99.4099 10.4599 97.7909 11.5899C96.0979 12.7799 96.569 15.06 97.329 16.64C99.172 20.48 102.716 23.13 106.283 25.25C108.634 26.65 111.077 27.8999 113.6 28.9599C115.039 29.5699 116.514 30.15 118.03 30.54C116.432 30.69 114.833 30.8699 113.236 31.0999C110.137 31.5599 107.069 32.1799 104.036 32.9399C104.015 32.8899 103.977 32.8599 103.915 32.8399C101.806 32.2699 99.6269 31.88 97.4769 31.49C95.3099 31.1 93.114 30.8199 90.915 30.6899C86.913 30.4499 82.843 30.77 79.014 32.01C78.063 32.31 77.131 32.6799 76.229 33.1099C75.493 33.4599 74.67 33.8499 74.252 34.5899C73.911 35.1899 73.886 35.98 74.362 36.52C74.898 37.13 75.7969 37.1399 76.5419 37.2099C80.7459 37.5599 84.9919 37.4799 89.1789 36.9699C90.5779 36.7899 91.969 36.56 93.353 36.29C89.116 37.9 84.989 39.81 81.022 42.04C79.791 42.73 78.578 43.4399 77.379 44.1899C77.126 44.3499 77.345 44.7499 77.603 44.5999C83.911 40.8599 90.6809 37.88 97.6919 35.68C93.6649 37.69 89.9589 40.4299 86.9809 43.7199C85.9699 44.8299 85.062 46.1099 84.772 47.6099C84.605 48.4799 84.722 49.5599 85.321 50.1999C85.333 50.2399 85.357 50.27 85.389 50.29C85.62 50.51 85.913 50.6699 86.284 50.7299C87.918 51.0299 89.0889 49.45 90.0669 48.41C91.3489 47.04 92.608 45.66 93.851 44.26C96.701 41.04 99.554 37.83 102.337 34.56C102.402 34.49 102.442 34.4099 102.464 34.3299C104.989 33.6799 107.535 33.11 110.099 32.67C112.073 32.32 114.054 32.0699 116.038 31.8599C111.265 33.6499 107.053 37.15 104.218 41.28C103.73 41.99 103.28 42.73 102.871 43.49C102.483 44.21 102.043 44.98 101.809 45.76C101.641 46.33 101.654 47.0299 102.086 47.4699C102.068 47.5999 102.192 47.71 102.332 47.68C103.081 48.09 103.973 47.5399 104.657 47.2199C108.064 45.6299 111.256 43.5799 114.168 41.2099C117.466 38.5099 120.375 35.37 122.823 31.88C122.956 31.69 122.953 31.5099 122.883 31.3499C130.524 31.0899 138.179 31.73 145.717 33.26C149.923 34.11 154.082 35.17 158.229 36.27C157.287 36.25 156.351 36.27 155.402 36.37C154.111 36.51 152.826 36.7099 151.551 36.9499C148.99 37.4499 146.468 38.15 144.021 39.05C139.315 40.79 134.508 43.1899 130.868 46.7099C130.007 47.5399 129.216 48.4499 128.545 49.4399C127.937 50.3399 127.306 51.3599 127.144 52.4599C126.999 53.4299 127.364 54.4199 128.383 54.7199C129.568 55.0599 131.018 54.31 132.115 53.92C137.068 52.17 141.895 50.02 146.464 47.42C151.606 44.5 156.633 41.1099 160.995 37.0999C161.021 37.0799 161.032 37.05 161.051 37.03C168.795 39.12 176.527 41.25 184.477 42.43C185.753 42.62 187.033 42.77 188.316 42.91C184.884 43.27 181.474 43.86 178.125 44.65C172.65 45.94 166.977 47.59 162.279 50.78C160.31 52.11 157.764 54.0499 158.031 56.7299C158.088 57.3099 158.289 57.84 158.614 58.29C158.631 58.35 158.667 58.4 158.729 58.43C159.016 58.78 159.38 59.06 159.823 59.24C161.074 59.75 162.506 59.41 163.738 59.01C169.617 57.11 175.407 54.85 181.087 52.43C184.311 51.05 187.506 49.6 190.647 48.05C193.234 46.77 195.815 45.33 197.893 43.3C199.694 43.25 201.495 43.13 203.29 42.91C207.548 42.39 211.704 41.3099 215.679 39.7299C212.13 43.0099 209.338 46.9799 208.135 51.7299C207.538 54.0899 207.37 56.5499 207.725 58.9599C207.868 59.9299 208.006 61.27 208.701 62.03C209.467 62.87 210.413 62.37 211.146 61.79C214.908 58.81 217.864 54.88 220.116 50.67C222.917 45.42 224.698 39.73 226.246 34.02C232.165 29.88 237.28 24.51 240.871 18.3C241.497 17.22 242.046 16.0899 242.568 14.9499C242.911 14.2099 241.864 13.52 241.461 14.27ZM76.773 33.8399C77.581 33.4599 78.412 33.1299 79.259 32.8499C82.816 31.6699 86.613 31.35 90.34 31.5C92.586 31.58 94.8099 31.86 97.0329 32.18C97.7929 32.29 98.549 32.42 99.306 32.55C99.133 32.59 98.959 32.63 98.785 32.67C95.341 32.35 91.9019 32.28 88.4159 32.53C83.9249 32.86 79.488 33.6599 75.146 34.8399C75.538 34.3599 76.293 34.0599 76.773 33.8399ZM74.933 35.68C79.336 34.45 83.8539 33.64 88.4119 33.29C91.1959 33.07 94.024 33.0099 96.842 33.0999C93.748 33.7599 90.631 34.31 87.496 34.74C83.375 35.3 79.233 35.63 75.086 35.92C75.017 35.86 74.962 35.78 74.933 35.68ZM91.4979 35.67C87.6759 36.3 83.794 36.5799 79.922 36.4799C78.981 36.4599 78.0409 36.4099 77.1019 36.3399C76.8009 36.3199 76.269 36.33 75.803 36.24C83.843 36.19 91.931 35.01 99.764 33.25C100.114 33.28 100.466 33.2899 100.814 33.3199C97.752 34.2899 94.6889 35.15 91.4979 35.67ZM87.8779 43.9C89.8879 41.74 92.22 39.8399 94.677 38.2099C95.821 37.4499 97.013 36.7599 98.23 36.1099C97.944 36.3199 97.653 36.5199 97.37 36.7299C95.863 37.8499 94.393 39.01 92.976 40.24C90.339 42.53 87.8139 45 85.6619 47.76C85.6639 47.75 85.6639 47.7399 85.6659 47.7299C85.9079 46.2399 86.8799 44.98 87.8779 43.9ZM94.858 41.65C93.765 42.92 92.6549 44.18 91.5329 45.43C90.4049 46.68 89.303 48.04 88.049 49.17C87.577 49.59 86.839 50.09 86.187 49.74C86.156 49.73 86.133 49.7 86.105 49.68C87.261 48.51 88.3349 47.24 89.4859 46.06C90.8589 44.65 92.2369 43.25 93.6669 41.9C94.9239 40.72 96.2149 39.5699 97.5289 38.4499C96.6499 39.5199 95.764 40.6 94.858 41.65ZM93.221 41.51C91.85 42.83 90.496 44.1699 89.207 45.5699C88.068 46.7999 86.863 48.06 85.837 49.41C85.622 49.08 85.588 48.6199 85.613 48.1999C88.103 45.5599 90.616 42.9499 93.39 40.5999C94.739 39.4599 96.1299 38.3599 97.5669 37.3299C97.9769 37.0299 98.3999 36.7599 98.8169 36.4799C98.3909 36.8399 97.9619 37.19 97.5419 37.56C96.0699 38.84 94.63 40.16 93.221 41.51ZM102.935 12.76C104.9 13.63 106.632 14.95 108.303 16.28C109.906 17.56 111.451 18.9099 112.925 20.3399C113.27 20.6699 113.596 21.02 113.934 21.37C110.991 18.69 107.781 16.37 104.248 14.53C102.45 13.59 100.554 12.7399 98.5889 12.2099C99.8459 11.5499 101.814 12.27 102.935 12.76ZM98.264 12.4399C99.929 13.1999 101.62 13.8799 103.251 14.7099C105.004 15.6099 106.693 16.63 108.305 17.76C111.505 20 114.358 22.6699 116.795 25.7199C116.884 25.8299 116.969 25.94 117.057 26.06C115.583 24.84 114.092 23.65 112.574 22.49C109.533 20.16 106.439 17.91 103.268 15.76C102.367 15.15 101.46 14.5499 100.547 13.9499C99.797 13.4699 98.996 12.82 98.127 12.54C98.169 12.5 98.221 12.4799 98.264 12.4399ZM97.877 12.8499C97.897 12.8199 97.9219 12.8 97.9429 12.77C98.4979 13.39 99.335 13.82 100.018 14.28C100.796 14.8 101.572 15.3299 102.343 15.8599C103.916 16.9499 105.473 18.0599 107.011 19.1999C110.089 21.4799 113.083 23.8699 116.014 26.3299C116.739 26.9399 117.449 27.5699 118.158 28.1999C115.759 26.9599 113.396 25.6699 111.117 24.1899C107.982 22.1599 104.99 19.9 102.188 17.43C100.658 16.07 99.259 14.55 97.683 13.25C97.735 13.11 97.795 12.9799 97.877 12.8499ZM114.749 28.2299C112.702 27.4099 110.699 26.4899 108.756 25.4399C105.301 23.5999 101.75 21.4099 99.392 18.1999C98.588 17.1099 97.314 15.19 97.579 13.65C98.638 14.99 99.9619 16.1699 101.218 17.3199C102.634 18.6199 104.099 19.87 105.601 21.06C108.603 23.46 111.781 25.6299 115.096 27.5699C116.265 28.2599 117.455 28.92 118.668 29.54C117.324 29.23 116.016 28.7299 114.749 28.2299ZM102.916 46.63C102.88 46.59 102.882 46.5 102.894 46.41C104.848 43.97 106.892 41.63 109.253 39.56C111.826 37.31 114.653 35.3399 117.671 33.7299C118.325 33.3799 118.996 33.06 119.667 32.75C118.813 33.42 117.961 34.09 117.112 34.77C115.422 36.11 113.732 37.4599 112.056 38.8199C108.959 41.3499 105.822 43.88 102.916 46.63ZM106.771 44.74C106.114 45.11 105.446 45.46 104.773 45.79C107.359 43.7 109.882 41.52 112.467 39.43C114.116 38.09 115.772 36.7599 117.448 35.4599C118.318 34.7799 119.19 34.1099 120.065 33.4399C120.094 33.4199 120.124 33.4 120.153 33.38C116.481 37.99 111.919 41.87 106.771 44.74ZM120.332 31.55C119.505 31.91 118.69 32.2999 117.888 32.7199C116.34 33.5199 114.841 34.42 113.4 35.39C110.518 37.35 107.876 39.67 105.546 42.26C104.877 43.01 104.235 43.77 103.629 44.56C103.713 44.4 103.797 44.2499 103.875 44.0999C104.236 43.4199 104.629 42.7499 105.054 42.1099C106.747 39.5299 108.947 37.2699 111.456 35.4799C114.012 33.6499 116.842 32.4 119.829 31.52C120.045 31.5 120.261 31.4899 120.478 31.4799C120.429 31.4999 120.378 31.53 120.332 31.55ZM125.467 19.0799C125.471 19.0699 125.471 19.0699 125.482 19.0699C125.509 19.0699 125.537 19.06 125.563 19.05C125.603 19.04 125.643 19.03 125.683 19.02C126.775 19.14 127.869 19.19 128.953 19.41C130.01 19.62 131.05 19.92 132.061 20.29C134.142 21.06 136.097 22.15 137.909 23.43C140.469 25.23 142.713 27.4 144.856 29.67C143.995 29.03 143.114 28.41 142.251 27.8C140.419 26.52 138.529 25.2999 136.582 24.1999C133.072 22.1999 129.322 20.3399 125.456 19.0799C125.459 19.0799 125.463 19.0799 125.467 19.0799ZM127.285 21.1099C126.894 20.8299 126.505 20.54 126.119 20.25C125.795 20.01 125.39 19.74 125.165 19.38C126.879 20.11 128.601 20.83 130.283 21.64C132.299 22.62 134.271 23.6799 136.191 24.8299C138.113 25.9899 139.991 27.21 141.807 28.53C142.956 29.36 144.045 30.26 145.14 31.15C138.834 28.49 132.832 25.1199 127.285 21.1099ZM136.111 21.54C137.867 22.42 139.544 23.46 141.113 24.64C142.714 25.84 144.18 27.2099 145.525 28.6999C146.392 29.6599 147.154 30.6899 147.921 31.7099C144.364 27.9699 140.611 24.11 136.111 21.54ZM128.858 50.54C129.232 49.9 129.672 49.2899 130.139 48.7199C136.666 44.4799 143.616 41.03 151.154 39C149.349 39.64 147.555 40.3 145.781 41.01C141.473 42.75 137.1 44.6199 133.228 47.2099C132.204 47.8999 131.202 48.6299 130.281 49.4599C129.572 50.0899 128.858 50.7799 128.304 51.5699C128.482 51.1799 128.695 50.82 128.858 50.54ZM128.369 52.42C128.369 52.4 128.367 52.3799 128.367 52.3599C128.37 52.2699 128.372 52.1699 128.377 52.0799C129.078 51.4699 129.726 50.7999 130.431 50.1899C131.299 49.4499 132.195 48.7399 133.141 48.0899C134.957 46.8599 136.899 45.8099 138.878 44.8599C143.241 42.7599 147.765 40.95 152.359 39.43C152.891 39.26 153.43 39.1 153.964 38.93C153.782 39.01 153.598 39.08 153.416 39.15C151.21 40.07 149.024 41.04 146.861 42.06C142.566 44.08 138.361 46.28 134.265 48.68C132.28 49.84 130.216 51.02 128.369 52.42ZM128.715 53.4499C128.701 53.4399 128.686 53.42 128.671 53.4C128.659 53.38 128.644 53.3599 128.631 53.3399C128.58 53.2599 128.538 53.1699 128.498 53.0899C128.497 53.0799 128.495 53.0799 128.495 53.0799C128.487 53.0599 128.479 53.03 128.471 53.01C128.456 52.96 128.441 52.91 128.427 52.87C128.422 52.85 128.419 52.8399 128.415 52.8199C130.287 51.8399 132.075 50.67 133.907 49.63C135.953 48.46 138.01 47.3199 140.097 46.2299C144.272 44.0499 148.521 42.0199 152.859 40.1899C153.449 39.9399 154.044 39.6999 154.637 39.4599C154.224 39.6999 153.812 39.93 153.398 40.16C151.337 41.3 149.268 42.43 147.196 43.55C143.087 45.78 138.98 47.9999 134.857 50.1999C133.694 50.8199 132.531 51.44 131.366 52.05C130.487 52.52 129.589 52.9699 128.715 53.4499ZM148.359 45.0699C144.176 47.6199 139.791 49.8699 135.254 51.7199C134.076 52.1999 132.888 52.6499 131.69 53.0799C131.134 53.2799 129.924 53.87 129.036 53.88C129.028 53.85 129.034 53.82 129.018 53.79C129.742 53.43 130.459 53.0599 131.173 52.6899C132.205 52.1699 133.237 51.6399 134.268 51.1099C136.366 50.0399 138.475 48.99 140.563 47.89C144.702 45.72 148.821 43.5199 152.948 41.3299C153.992 40.7699 155.059 40.2399 156.119 39.6899C153.618 41.5999 151.059 43.4199 148.359 45.0699ZM157.223 37.05C149.462 38.38 141.947 41.08 135.133 45.03C133.657 45.89 132.253 46.8199 130.892 47.8299C130.932 47.7899 130.966 47.7399 131.007 47.6999C132.631 45.9899 134.577 44.62 136.594 43.42C138.686 42.17 140.875 41.08 143.134 40.17C148.143 38.14 153.429 37.1599 158.779 36.5899C158.258 36.7299 157.741 36.89 157.223 37.05ZM163.015 14.52C164.084 14.9 165.091 15.4399 166.034 16.0699C169.925 18.6699 172.77 22.79 175.249 26.68C176.631 28.85 177.877 31.1 179.035 33.4C178.906 33.17 178.786 32.9499 178.655 32.7299C177.621 30.9999 176.491 29.3199 175.302 27.6899C172.922 24.4399 170.277 21.3899 167.383 18.5799C166.55 17.7699 165.696 16.9799 164.827 16.2099C164.149 15.6099 163.441 14.89 162.652 14.4C162.774 14.44 162.896 14.48 163.015 14.52ZM176.016 35.49C174.398 34.23 172.814 32.9199 171.268 31.5699C168.275 28.9499 165.45 26.12 162.987 22.99C162.146 21.93 161.363 20.8199 160.599 19.6899C160.46 19.3599 160.314 19.0399 160.2 18.6999C159.88 17.7399 159.497 16.57 159.739 15.54C160.121 16.28 160.707 16.9499 161.193 17.6099C161.847 18.4899 162.515 19.3599 163.192 20.2199C164.57 21.9799 165.975 23.71 167.415 25.42C170.274 28.81 173.255 32.08 176.288 35.31C176.718 35.77 177.147 36.2299 177.577 36.6899C177.056 36.2899 176.533 35.9 176.016 35.49ZM164.197 20.67C163.426 19.74 162.674 18.7899 161.93 17.8399C161.267 16.9899 160.646 15.9499 159.836 15.2099C160.253 14.1499 161.137 14.05 162.045 14.24C162.043 14.27 162.049 14.2999 162.072 14.3299C162.653 15.0999 163.519 15.6999 164.233 16.3499C164.964 17.0199 165.681 17.7 166.382 18.4C167.785 19.8 169.129 21.26 170.412 22.77C173.006 25.82 175.314 29.0699 177.406 32.4799C177.569 32.7499 177.718 33.02 177.878 33.29C176.859 31.96 175.82 30.6399 174.752 29.3399C171.941 25.9299 168.991 22.63 165.884 19.49C164.201 17.78 162.503 15.93 160.54 14.55C160.417 14.46 160.298 14.64 160.383 14.74C161.763 16.43 163.444 17.8899 164.954 19.4599C166.447 21.0199 167.911 22.5999 169.337 24.2199C172.237 27.5099 174.957 30.95 177.532 34.49C178.071 35.24 178.585 36 179.1 36.76C173.974 31.54 168.868 26.31 164.197 20.67ZM159.481 54.54C160.143 53.42 161.213 52.53 162.227 51.74C164.334 50.1 166.83 48.96 169.317 48.02C171.895 47.06 174.548 46.2799 177.217 45.6099C181.435 44.5499 185.716 43.8699 190.03 43.4699C188.832 43.6999 187.635 43.92 186.44 44.17C183.837 44.69 181.243 45.2699 178.679 45.9699C173.953 47.2499 169.31 48.92 164.999 51.26C162.948 52.38 161.007 53.67 159.199 55.14C159.278 54.93 159.37 54.72 159.481 54.54ZM159.024 55.81C162.755 53.03 166.866 50.7899 171.196 49.0999C175.887 47.2799 180.782 46.04 185.706 45.03C186.627 44.84 187.551 44.66 188.475 44.49C186.138 45.11 183.822 45.8 181.525 46.56C176.487 48.21 171.549 50.2199 166.803 52.5799C164.154 53.8999 161.511 55.29 159.039 56.92C158.953 56.56 158.961 56.18 159.024 55.81ZM159.408 57.7099C159.333 57.6099 159.266 57.51 159.21 57.4C163.852 54.9 168.446 52.3899 173.311 50.3399C178.216 48.2699 183.263 46.56 188.422 45.24C189.388 45 190.358 44.7799 191.33 44.5799C191.039 44.6799 190.747 44.79 190.456 44.9C189.306 45.32 188.152 45.74 187.001 46.16C184.664 47.01 182.329 47.86 180.008 48.76C175.413 50.53 170.881 52.4599 166.379 54.4599C164.038 55.4999 161.682 56.5299 159.408 57.7099ZM189.283 46.16C189.197 46.2 189.112 46.25 189.025 46.29C186.664 47.41 184.285 48.49 181.886 49.53C177.109 51.59 172.284 53.52 167.381 55.26C165.425 55.96 163.456 56.61 161.492 57.29C162.899 56.65 164.302 56.01 165.712 55.38C167.986 54.37 170.276 53.3999 172.579 52.4599C177.189 50.5699 181.841 48.7699 186.532 47.0899C187.444 46.7699 188.364 46.47 189.283 46.16ZM191.267 46.5999C188.743 47.9099 186.155 49.09 183.56 50.25C178.222 52.63 172.782 54.7699 167.277 56.7299C165.926 57.2099 164.576 57.71 163.205 58.13C162.301 58.41 161.111 58.7 160.188 58.31C164.883 56.97 169.494 55.2299 174.041 53.4799C178.915 51.5899 183.743 49.6099 188.502 47.4499C190.527 46.5299 192.593 45.65 194.588 44.65C193.526 45.36 192.414 46.0099 191.267 46.5999ZM221.401 37.01C221.423 37 221.445 36.9899 221.467 36.9799C221.363 37.2199 221.27 37.4699 221.168 37.6999C220.943 38.2099 220.714 38.7199 220.487 39.2299C220.032 40.2499 219.583 41.26 219.092 42.27C218.131 44.23 217.154 46.18 216.16 48.13C214.367 51.64 212.499 55.0999 210.65 58.5799C211.464 56.0199 212.304 53.48 213.364 50.99C214.85 47.51 216.588 44.1299 218.647 40.9499C219.226 40.0599 219.819 39.18 220.428 38.3C220.731 37.87 221.072 37.45 221.401 37.01ZM218.558 45.87C216.943 49.3 215.089 52.6 213.041 55.78C212.437 56.72 211.791 57.63 211.15 58.55C213.073 55.18 214.892 51.74 216.67 48.3C217.69 46.33 218.695 44.3399 219.683 42.3499C220.177 41.3599 220.707 40.39 221.218 39.4C221.286 39.27 221.353 39.14 221.421 39.01C221.224 39.52 221.032 40.03 220.826 40.54C220.098 42.33 219.385 44.12 218.558 45.87ZM220.546 43.0899C220.056 44.4099 219.551 45.72 219.005 47.01C217.506 50.56 215.638 53.99 213.312 57.06C212.424 58.24 211.444 59.34 210.42 60.39C211.339 59.24 212.15 57.99 212.958 56.77C214.021 55.16 215.035 53.5199 215.997 51.8499C217.638 48.9999 219.153 46.0699 220.546 43.0899ZM208.933 58.52C208.901 58.91 208.884 59.3099 208.868 59.6999C208.851 59.6099 208.831 59.5199 208.814 59.4399C208.371 57.1899 208.452 54.85 208.937 52.62C209.916 48.12 212.5 44.19 215.754 41C216.712 40.06 217.718 39.2 218.76 38.38C218.814 38.36 218.866 38.33 218.919 38.3C216.472 40.35 214.479 42.9799 212.905 45.7299C211.144 48.8099 209.919 52.2199 209.297 55.7099C209.133 56.6399 209.01 57.58 208.933 58.52ZM209.605 60.3299C209.609 59.9099 209.587 59.4899 209.612 59.1099C209.672 58.1999 209.775 57.29 209.916 56.39C210.178 54.72 210.583 53.0599 211.117 51.4499C212.204 48.1799 213.839 45.06 215.925 42.31C217.012 40.87 218.251 39.55 219.517 38.27C219.164 38.78 218.809 39.2899 218.478 39.8199C217.466 41.4399 216.508 43.09 215.609 44.77C213.813 48.13 212.29 51.63 211.063 55.24C210.493 56.91 209.98 58.5999 209.605 60.3299ZM212.987 58.8299C212.195 59.6299 211.358 60.3899 210.47 61.0799C210.408 61.1299 210.346 61.1699 210.284 61.2199C215.655 56.2099 219.009 49.14 221.569 42.39C221.987 41.28 222.389 40.17 222.782 39.06C223.199 37.88 223.695 36.7 224.007 35.49C224.007 35.49 224.007 35.4899 224.007 35.4799C224.244 35.3399 224.485 35.2 224.72 35.04C222.413 43.65 219.381 52.3799 212.987 58.8299ZM196.038 27.92C199.665 26.61 203.505 26.39 207.33 26.52C204.121 26.59 200.921 26.96 197.809 27.77C195.819 28.29 193.919 29.02 192.09 29.93C193.33 28.97 195.409 28.15 196.038 27.92ZM191.381 30.62C199.365 26.88 208.376 26.77 216.962 27.9C217.17 27.93 217.376 27.96 217.584 27.99C216.514 27.97 215.443 27.9499 214.373 27.9599C209.333 27.9999 204.294 28.45 199.325 29.3C197.924 29.54 196.529 29.8099 195.141 30.1099C193.817 30.3999 192.43 30.68 191.144 31.13C191.176 30.96 191.261 30.79 191.381 30.62ZM191.19 31.5699C192.34 31.3699 193.479 31.04 194.62 30.8C195.865 30.53 197.112 30.28 198.365 30.06C200.881 29.62 203.416 29.29 205.96 29.06C210.992 28.61 216.056 28.58 221.092 28.99C221.25 29 221.406 29.02 221.564 29.04C220.545 29.23 219.528 29.4399 218.511 29.5999C216.33 29.9499 214.143 30.25 211.952 30.53C207.479 31.1 202.98 31.43 198.478 31.65C196.135 31.77 193.782 31.7699 191.442 31.9399C191.322 31.8199 191.239 31.6899 191.19 31.5699ZM214.236 33.4499C210.892 33.8899 207.513 34.08 204.138 34.05C204.802 34.04 205.467 34.04 206.131 34.01C210.489 33.83 214.816 33.3599 219.105 32.5799C217.492 32.9199 215.873 33.2299 214.236 33.4499ZM199.906 33.37C197.989 33.35 196.075 33.22 194.161 33.14C193.398 32.95 192.589 32.7 191.936 32.29C193.84 32.38 195.754 32.33 197.656 32.28C199.866 32.22 202.074 32.1099 204.279 31.9599C208.686 31.6599 213.09 31.25 217.47 30.68C218.741 30.52 220.01 30.33 221.278 30.15C222.537 29.96 223.833 29.83 225.065 29.5C225.133 29.48 225.191 29.45 225.24 29.41C225.617 29.46 225.993 29.5199 226.37 29.5699C217.804 32.1199 208.845 33.48 199.906 33.37Z" fill="#4D4C51"/>
</svg>
