<svg width="59" height="129" viewBox="0 0 59 129" fill="none" xmlns="http://www.w3.org/2000/svg">
<path d="M25.1848 86.9951C27.5148 86.3391 29.7746 85.4561 32.0146 84.5461C34.2946 83.6201 36.5446 82.6151 38.7546 81.5421C43.1546 79.4101 47.4146 77.003 51.5246 74.353C53.8446 72.86 56.1046 71.2821 58.3046 69.6281C58.5346 69.4561 58.4447 69.0031 58.1247 68.9971C53.0847 68.8941 48.0946 70.0681 43.5046 72.1201C38.9346 74.1601 34.7846 77.04 31.0346 80.325C29.9846 81.249 28.9548 82.2071 27.9548 83.1901C27.0048 84.1261 26.0348 85.065 25.1848 86.101C25.3448 84.282 25.4847 82.461 25.5947 80.639C26.3847 79.992 27.1146 79.282 27.8246 78.561C28.8046 77.57 29.7347 76.5401 30.6347 75.4731C32.4147 73.3401 34.0248 71.05 35.4348 68.655C38.2748 63.852 40.3647 58.614 41.5847 53.169C42.2747 50.105 42.6646 46.988 42.7746 43.85C42.7846 43.491 42.3547 43.2841 42.1147 43.5811C38.7447 47.6851 35.7846 52.096 33.2646 56.769C30.7546 61.441 28.6847 66.354 27.1147 71.422C26.6447 72.921 26.2247 74.436 25.8447 75.961C26.0747 70.53 26.0847 65.0941 25.8547 59.6651C25.9147 59.6711 25.9846 59.655 26.0346 59.598C29.1446 56.415 31.8346 52.8091 34.2746 49.0961C36.7046 45.4001 38.8746 41.526 40.7446 37.514C41.8046 35.233 42.7647 32.907 43.6247 30.545C43.7447 30.22 43.3747 29.94 43.0947 30.143C39.2947 32.876 35.9447 36.2231 33.1747 39.9971C30.4147 43.7561 28.2248 47.9431 26.7248 52.3591C26.3148 53.5691 25.9647 54.797 25.6547 56.037C25.5847 54.967 25.5147 53.897 25.4247 52.828C25.3647 52.101 25.2948 51.374 25.2248 50.647C25.3948 50.361 25.5646 50.075 25.7346 49.783C25.9846 49.322 26.2148 48.847 26.4548 48.376C26.9348 47.433 27.4047 46.4881 27.8747 45.5401C28.8047 43.6621 29.6946 41.766 30.5346 39.851C32.2346 36.01 33.7246 32.072 34.7946 28.007C35.3846 25.738 35.8447 23.436 36.1347 21.108C36.1647 20.792 35.7346 20.595 35.5446 20.868C33.2146 24.204 31.1946 27.744 29.5546 31.468C27.9146 35.172 26.6446 39.03 25.7346 42.975C25.3946 44.425 25.1247 45.888 24.8947 47.358C24.5847 44.496 24.2347 41.638 23.9047 38.78C25.7647 35.183 27.1747 31.315 28.3747 27.451C29.5747 23.598 30.5248 19.6661 31.2148 15.6891C31.6048 13.4321 31.8947 11.161 32.1247 8.88205C32.1547 8.51105 31.6446 8.38005 31.4946 8.71705C28.2646 15.7721 25.8547 23.207 24.3747 30.826C24.0547 32.474 23.7946 34.132 23.5546 35.794C23.2646 33.206 22.9846 30.615 22.7646 28.019C22.7446 27.683 22.7148 27.3481 22.6848 27.0121C22.7548 27.0011 22.8246 26.943 22.8246 26.858C22.8146 26.78 22.7946 26.7031 22.7946 26.6261C23.1946 25.4101 23.5146 24.16 23.8146 22.925C24.2446 21.118 24.5746 19.285 24.8246 17.444C25.3046 13.815 25.3646 10.134 25.0446 6.48805C24.8646 4.39505 24.5547 2.31505 24.1147 0.261045C24.0247 -0.143955 23.3748 -0.0509536 23.4748 0.356046C23.4948 0.455046 23.5146 0.555042 23.5346 0.655042C21.8946 7.83004 21.6047 15.199 21.8747 22.533C21.8747 22.522 21.8647 22.5101 21.8647 22.4991C21.4447 21.0511 20.9647 19.621 20.4247 18.212C19.3547 15.395 18.0346 12.669 16.5146 10.069C15.6646 8.61604 14.7446 7.20705 13.7746 5.82805C13.6246 5.61705 13.2946 5.77904 13.3246 6.02104C14.2246 12.158 16.2347 18.1401 19.1247 23.6241C19.9347 25.1581 20.7946 26.704 21.8146 28.11C21.8346 28.144 21.8647 28.164 21.9047 28.177C21.9447 28.294 22.1048 28.3451 22.1848 28.2381C22.4948 32.5741 22.9347 36.899 23.3847 41.224C23.2847 40.932 23.1847 40.641 23.0847 40.351C22.5847 38.955 22.0047 37.574 21.3947 36.225C20.1447 33.495 18.7247 30.853 17.1147 28.3221C16.1847 26.8701 15.2147 25.452 14.1647 24.082C13.9647 23.818 13.6047 24.0281 13.6247 24.3161C13.6247 24.3551 13.6247 24.394 13.6347 24.434C13.6247 24.449 13.6147 24.465 13.6147 24.485C13.6247 24.519 13.6347 24.553 13.6447 24.587C13.9547 30.359 16.2446 35.974 20.0346 40.333C21.1246 41.577 22.3247 42.724 23.6347 43.728C23.6447 43.732 23.6447 43.732 23.6447 43.735C23.8447 45.621 24.0348 47.508 24.2148 49.396C24.5348 52.846 24.7647 56.296 24.9247 59.748C24.9047 59.842 24.8847 59.936 24.8747 60.03C24.8547 60.144 24.8848 60.2341 24.9448 60.3011C25.0148 61.9651 25.0546 63.6291 25.0746 65.2941C24.7946 63.7111 24.4446 62.141 24.0346 60.589C23.3846 58.115 22.5847 55.679 21.6447 53.299C19.7547 48.507 17.2846 43.951 14.3146 39.744C12.6446 37.376 10.8046 35.125 8.82464 33.009C8.55464 32.718 8.09479 32.977 8.22479 33.363C9.84479 38.054 11.7046 42.664 13.7746 47.173C15.8446 51.682 18.1447 56.089 20.6447 60.371C21.9947 62.678 23.4147 64.946 24.8847 67.179C24.9547 67.54 25.0247 67.9011 25.0947 68.2621C25.0947 68.2721 25.0947 68.2791 25.1047 68.2881C25.0947 70.4081 25.0646 72.5301 24.9846 74.6541C24.9546 75.5811 24.9047 76.508 24.8647 77.435C24.7147 76.585 24.5547 75.7381 24.3547 74.8981C23.8647 72.7721 23.2248 70.68 22.4348 68.642C20.8748 64.562 18.7447 60.679 16.1247 57.184C14.8347 55.466 13.4147 53.853 11.8947 52.338C11.8847 52.329 11.8747 52.323 11.8747 52.315C11.6547 52.095 11.4348 51.87 11.2048 51.654C11.0248 51.483 10.6946 51.6901 10.7446 51.9261C11.7146 56.0771 12.9747 60.148 14.6147 64.084C16.2547 68.016 18.2446 71.8061 20.5346 75.3981C21.7646 77.3311 23.0846 79.206 24.4846 81.018C24.4646 81.04 24.4447 81.061 24.4247 81.083C24.2847 81.225 24.4747 81.412 24.6247 81.368C24.3547 85.396 23.9746 89.417 23.5246 93.429C23.5346 93.373 23.5146 93.315 23.4846 93.257C23.1346 91.528 22.6547 89.817 22.1647 88.131C21.4147 85.528 20.5146 82.968 19.4946 80.458C17.4746 75.478 14.9646 70.703 12.0046 66.216C10.3246 63.672 8.50463 61.2241 6.55463 58.8851C6.32463 58.6121 5.84472 58.7931 5.90472 59.1631C6.70472 64.1611 8.0946 69.071 10.0246 73.75C11.9546 78.431 14.4247 82.892 17.3747 87.01C19.0447 89.34 20.8646 91.5581 22.8246 93.6451C22.8646 93.6821 22.9048 93.706 22.9448 93.726C23.0648 94.237 23.1946 94.7451 23.3246 95.2541C23.1346 96.8531 22.9446 98.4511 22.7346 100.047C22.6946 100.349 22.6547 100.65 22.6047 100.952C22.4747 100.869 22.3548 100.782 22.2248 100.699C21.9448 100.242 21.6547 99.793 21.3547 99.341C20.6947 98.331 20.0247 97.3261 19.3447 96.3271C17.9747 94.3121 16.5647 92.3261 15.1247 90.3621C12.2347 86.4351 9.23466 82.595 6.09466 78.869C4.32466 76.771 2.52474 74.7 0.674742 72.674C0.374742 72.348 -0.115404 72.6441 0.0245956 73.0611C1.5346 77.6211 3.65463 81.972 6.31463 85.975C8.96463 89.98 12.1546 93.6231 15.7646 96.7961C17.7546 98.5391 19.8647 100.128 22.0847 101.554C22.2047 101.72 22.3348 101.883 22.4548 102.045C22.0748 104.858 21.6448 107.665 21.2148 110.47C19.3848 107.402 17.3048 104.487 14.9448 101.801C12.4348 98.9331 9.6447 96.3021 6.6347 93.9641C4.9247 92.6361 3.13462 91.419 1.29462 90.264C1.03462 90.099 0.664625 90.333 0.804625 90.652C2.34462 94.214 4.45477 97.5331 6.95477 100.5C9.45477 103.468 12.3747 106.099 15.5947 108.273C17.0847 109.279 18.6546 110.197 20.2846 110.972C20.4046 111.064 20.5247 111.161 20.6547 111.251C20.7347 111.308 20.8147 111.31 20.8847 111.285C20.9147 111.332 20.9448 111.379 20.9648 111.426C20.9848 111.465 21.0146 111.492 21.0446 111.518C20.3246 116.119 19.5747 120.716 18.8747 125.321C18.7147 126.363 18.5748 127.402 18.4648 128.45C18.4148 128.872 19.0147 128.927 19.1047 128.529C20.0547 124.381 20.6446 120.14 21.3146 115.94C21.8746 112.48 22.3947 109.015 22.8947 105.546C27.3547 104.233 31.6348 102.367 35.6948 100.114C39.8048 97.841 43.6746 95.171 47.2546 92.136C49.2646 90.423 51.1846 88.5941 53.0046 86.6681C53.3046 86.3501 52.8646 85.951 52.5246 86.063C48.0946 87.535 43.8048 89.4141 39.7048 91.6641C35.6048 93.9211 31.6946 96.5411 28.0546 99.4951C26.3646 100.874 24.7247 102.329 23.1447 103.842C23.1647 103.66 23.1948 103.479 23.2248 103.297C23.5948 100.609 23.9346 97.917 24.2546 95.222C28.4346 94.163 32.5148 92.6971 36.4748 90.9991C40.5748 89.2461 44.5347 87.192 48.3447 84.885C50.4847 83.587 52.5747 82.204 54.6147 80.742C54.9247 80.519 54.6747 80.08 54.3347 80.104C49.8147 80.44 45.3647 81.434 41.1247 83.044C36.8947 84.651 32.8846 86.862 29.2646 89.588C27.5646 90.872 25.9247 92.272 24.4147 93.787C24.6647 91.527 24.9047 89.265 25.1047 87.001C25.1347 87.002 25.1548 87.0021 25.1848 86.9951ZM55.1147 69.798C55.7447 69.746 56.3746 69.711 57.0046 69.7C53.3746 72.384 49.6048 74.878 45.6948 77.125C41.4948 79.536 37.1448 81.6751 32.6848 83.5681C30.7248 84.4021 28.7246 85.1491 26.7346 85.9221C29.9746 83.6031 33.2747 81.3681 36.6747 79.2801C40.4447 76.9571 44.3246 74.797 48.3146 72.858C50.5446 71.774 52.8047 70.764 55.0947 69.81C55.1047 69.806 55.1047 69.801 55.1147 69.798ZM28.1347 84.084C29.0047 83.218 29.8946 82.372 30.8146 81.55C32.6046 79.935 34.4748 78.412 36.4548 77.026C40.4948 74.189 44.9846 71.928 49.7846 70.701C50.8346 70.434 51.8948 70.224 52.9648 70.06C49.5648 71.641 46.2147 73.3331 42.9247 75.1331C39.0547 77.2531 35.2847 79.5461 31.6347 82.0171C29.9347 83.1631 28.2747 84.361 26.6447 85.593C27.1347 85.091 27.6347 84.584 28.1347 84.084ZM38.8246 59.977C36.9046 65.136 34.1746 69.991 30.7446 74.297C29.7746 75.51 28.7648 76.684 27.6948 77.807C27.3448 78.185 26.9747 78.554 26.6047 78.92C26.8247 78.494 27.0446 78.066 27.2746 77.649C27.8846 76.499 28.4947 75.3431 29.0947 74.1821C30.2947 71.8601 31.4547 69.5211 32.6047 67.1761C34.9047 62.4831 37.0347 57.715 39.1047 52.917C40.0547 50.72 40.9747 48.511 41.8747 46.292C41.4847 50.964 40.4546 55.586 38.8246 59.977ZM30.2248 65.119C32.2048 60.251 34.6346 55.571 37.5046 51.169C38.8046 49.161 40.2047 47.2161 41.6747 45.3311C39.8947 49.9401 38.0246 54.507 35.9946 59.014C33.8646 63.739 31.6346 68.419 29.2546 73.024C28.5846 74.334 27.8948 75.64 27.2048 76.944C26.8748 77.577 26.5348 78.2091 26.1948 78.8391C26.1048 79.0021 26.0248 79.166 25.9348 79.33C26.9448 74.475 28.3648 69.72 30.2248 65.119ZM37.5346 42.337C35.4246 46.224 33.0147 49.9521 30.3547 53.4841C29.1847 55.0371 27.9646 56.551 26.7346 58.059C30.7046 51.146 34.8146 44.307 39.0546 37.557C40.0046 36.051 40.9547 34.546 41.8947 33.041C40.6147 36.219 39.1646 39.328 37.5346 42.337ZM29.7346 47.006C31.7746 42.879 34.4547 39.07 37.6547 35.755C39.1647 34.182 40.8146 32.737 42.5546 31.414C42.5146 31.528 42.4647 31.64 42.4147 31.753C40.1147 35.184 37.8848 38.666 35.6848 42.172C33.3948 45.831 31.1648 49.522 28.9748 53.243C27.9348 55.012 26.9047 56.789 25.8847 58.569C26.6247 54.56 27.9246 50.662 29.7346 47.006ZM27.8146 38.134C29.0346 34.309 30.6146 30.5981 32.5246 27.0681C33.2946 25.6461 34.1246 24.255 34.9946 22.893C32.3746 29.811 29.7947 36.749 27.1747 43.671C26.6347 45.093 26.0646 46.511 25.5446 47.944C26.0346 44.62 26.7946 41.337 27.8146 38.134ZM25.3647 49.23C26.0247 47.686 26.5848 46.1 27.1848 44.535C27.8848 42.723 28.5746 40.911 29.2746 39.099C30.6546 35.473 32.0348 31.8441 33.4448 28.2321C33.9548 26.9461 34.4448 25.656 34.9448 24.367C34.3748 27.344 33.5546 30.27 32.5546 33.131C31.1646 37.074 29.4647 40.8951 27.6647 44.6611C27.1647 45.7051 26.6547 46.7481 26.1447 47.7881C25.8847 48.3151 25.6147 48.838 25.3647 49.371C25.3547 49.396 25.3447 49.422 25.3347 49.447C25.3447 49.374 25.3547 49.302 25.3647 49.23ZM29.5947 15.0011C30.1047 13.6441 30.6548 12.3031 31.2248 10.9711C30.3548 18.2591 28.6046 25.438 26.0546 32.319C25.4446 33.975 24.7647 35.607 24.0947 37.241C25.0547 29.647 26.9047 22.1661 29.5947 15.0011ZM19.9047 23.922C19.1747 22.563 18.4947 21.173 17.8747 19.757C16.6347 16.929 15.6247 13.999 14.8747 11.005C14.6047 9.95805 14.3848 8.90004 14.1848 7.83804C15.0848 10.203 16.0248 12.55 16.9548 14.903C18.0448 17.666 19.1346 20.428 20.2446 23.186C20.8046 24.603 21.3848 26.0181 21.9548 27.4321C21.2648 26.2661 20.5547 25.115 19.9047 23.922ZM15.7746 11.171C15.2146 9.81505 14.6346 8.46505 14.0446 7.12105C14.0446 7.11305 14.0446 7.10605 14.0446 7.09805C17.1846 11.6721 19.5848 16.7931 21.1948 22.0961C21.4948 23.0561 21.7346 24.0311 21.9846 25.0011C22.0146 25.4561 22.0446 25.911 22.0646 26.367C19.9946 21.29 17.8846 16.231 15.7746 11.171ZM22.5546 25.162C22.0646 17.848 22.0946 10.5211 23.2946 3.26205C23.4046 2.58905 23.5247 1.91805 23.6647 1.24905C25.0747 8.08005 25.0747 15.228 23.5847 22.046C23.3247 23.242 22.9947 24.412 22.6447 25.578C22.6147 25.439 22.5846 25.3 22.5546 25.162ZM22.4247 39.996C22.7747 40.892 23.1048 41.796 23.4348 42.7C22.8448 41.989 22.2448 41.2811 21.6848 40.5401C20.8048 39.3751 19.9748 38.168 19.2048 36.931C17.6548 34.466 16.3747 31.84 15.3447 29.121C14.9947 28.198 14.7047 27.2581 14.4047 26.3201C14.3647 25.9831 14.3246 25.645 14.2946 25.306C17.5846 29.852 20.3447 34.779 22.4247 39.996ZM14.8847 29.047C14.8347 28.812 14.7846 28.576 14.7346 28.339C14.7746 28.464 14.8247 28.591 14.8647 28.716C15.3747 30.089 15.9346 31.4381 16.5646 32.7581C17.8246 35.4151 19.2846 37.972 20.9946 40.364C21.0746 40.477 21.1646 40.59 21.2446 40.703C18.1646 37.458 15.9347 33.421 14.8847 29.047ZM18.0546 54.279C15.7546 49.926 13.6646 45.461 11.8046 40.903C10.9846 38.877 10.2148 36.829 9.47479 34.769C12.4648 38.15 15.0946 41.8431 17.3046 45.7731C19.8046 50.2191 21.8048 54.948 23.2148 59.85C23.7348 61.655 24.1446 63.483 24.5146 65.321C22.2146 61.733 20.0446 58.053 18.0546 54.279ZM14.4648 81.123C11.9648 76.777 9.95459 72.1431 8.51459 67.3421C7.85459 65.1591 7.33474 62.937 6.92474 60.695C7.60474 62.556 8.35469 64.3931 9.12469 66.2211C10.0647 68.4871 11.0446 70.7381 12.0646 72.9691C14.1046 77.4321 16.3546 81.8041 18.7446 86.0901C19.4146 87.2971 20.1046 88.4971 20.7946 89.6901C21.0946 90.2041 21.3948 90.723 21.6948 91.239C18.9648 88.109 16.5348 84.721 14.4648 81.123ZM21.4648 89.803C20.8548 88.754 20.2447 87.7 19.6447 86.64C18.4347 84.502 17.2747 82.343 16.1447 80.162C13.8847 75.802 11.7546 71.3751 9.79461 66.8721C8.97461 64.9651 8.19472 63.037 7.40472 61.114C10.2447 64.718 12.7848 68.556 14.9748 72.591C17.5148 77.291 19.6048 82.227 21.2148 87.325C21.6148 88.612 21.9846 89.91 22.3246 91.216C22.0346 90.746 21.7448 90.277 21.4648 89.803ZM11.8647 91.8741C8.67468 88.3461 5.94461 84.4001 3.78461 80.1581C2.87461 78.3521 2.06468 76.4961 1.36468 74.5961C4.15468 77.7411 6.88458 80.946 9.50458 84.235C12.5246 88.03 15.4148 91.93 18.2048 95.903C18.9848 97.026 19.7646 98.1561 20.5346 99.2931C20.6446 99.4561 20.7547 99.6191 20.8647 99.7831C17.5747 97.4971 14.5447 94.8441 11.8647 91.8741ZM12.0346 104.639C9.1546 102.131 6.61459 99.222 4.51459 96.023C3.79459 94.924 3.1346 93.793 2.5246 92.635C4.2646 95.087 6.19476 97.4211 8.19476 99.6631C10.6048 102.368 13.1847 104.934 15.8947 107.341C16.2547 107.661 16.6148 107.98 16.9748 108.297C15.2548 107.202 13.5946 105.994 12.0346 104.639ZM20.0146 110.075C18.9146 109.192 17.8048 108.314 16.7248 107.396C15.3648 106.241 14.0346 105.052 12.7546 103.817C10.1346 101.304 7.66468 98.635 5.36468 95.824C4.20468 94.397 3.09456 92.927 1.98456 91.455C4.80456 93.251 7.45472 95.334 9.90472 97.597C12.6847 100.169 15.2248 103.015 17.4748 106.069C18.4548 107.406 19.3746 108.785 20.2446 110.2C20.1646 110.159 20.0946 110.116 20.0146 110.075ZM33.3947 96.4951C37.2247 93.8501 41.2946 91.556 45.5446 89.644C46.9146 89.025 48.3148 88.4631 49.7248 87.9271C42.8948 92.1521 36.0746 96.3861 29.2546 100.62C27.7746 101.541 26.2946 102.469 24.8246 103.402C27.5146 100.899 30.3747 98.5841 33.3947 96.4951ZM24.0046 104.176C27.4646 102.129 30.9047 100.028 34.3447 97.9391C38.1247 95.6461 41.9047 93.3621 45.6747 91.0561C47.2347 90.1021 48.8047 89.1571 50.3647 88.2111C47.7347 90.7931 44.9047 93.1741 41.8947 95.3181C38.1147 98.0151 34.0747 100.337 29.8447 102.249C27.6847 103.225 25.4646 104.104 23.2346 104.901C23.4846 104.653 23.7446 104.42 24.0046 104.176ZM29.1447 90.644C30.8947 89.276 32.7447 88.028 34.6747 86.924C38.5347 84.716 42.7046 83.047 47.0246 81.994C49.0146 81.51 51.0346 81.162 53.0646 80.946C52.6446 81.238 52.2246 81.5171 51.7946 81.8021C49.9746 82.5261 48.1647 83.309 46.3547 84.067C44.5047 84.838 42.6747 85.6251 40.8447 86.4261C37.2147 88.0121 33.6246 89.673 30.0746 91.407C28.6146 92.115 27.1846 92.8501 25.7546 93.6021C26.8346 92.5651 27.9547 91.57 29.1447 90.644ZM25.2346 94.1121C28.4646 92.5481 31.6747 90.964 34.9247 89.462C38.5147 87.803 42.1346 86.213 45.8046 84.721C47.0646 84.205 48.3447 83.7161 49.6247 83.2331C47.4247 84.6341 45.1847 85.9561 42.8847 87.1681C38.9847 89.2181 34.9446 91.009 30.8146 92.515C28.8346 93.235 26.8346 93.8891 24.8246 94.5121C24.9646 94.3781 25.1046 94.2461 25.2346 94.1121ZM18.7446 62.324C20.8746 66.041 22.5046 70.049 23.5546 74.203C23.8146 75.222 24.0248 76.25 24.2148 77.284C21.0348 70.957 17.8247 64.638 14.6447 58.307C14.1547 57.321 13.6547 56.336 13.1547 55.352C12.8947 54.84 12.6447 54.3241 12.3747 53.8181C12.3247 53.7201 12.2648 53.621 12.2148 53.522C14.7148 56.193 16.9246 59.151 18.7446 62.324ZM18.2546 70.298C16.2546 66.6091 14.5746 62.745 13.2446 58.768C12.5846 56.811 12.0146 54.8231 11.5446 52.8141C11.5746 52.8391 11.5947 52.865 11.6147 52.891C11.8847 53.664 12.3147 54.408 12.6647 55.131C13.1047 56.021 13.5446 56.9121 13.9846 57.8011C14.8846 59.5991 15.7747 61.3961 16.6747 63.1931C18.4447 66.7481 20.1848 70.3181 21.9548 73.8741C22.7948 75.5751 23.6446 77.2761 24.4946 78.9771C24.5446 79.3371 24.5847 79.698 24.6447 80.057C22.2547 76.983 20.1046 73.723 18.2546 70.298Z" fill="#4D4C51"/>
</svg>
