<svg width="112" height="60" viewBox="0 0 112 60" fill="none" xmlns="http://www.w3.org/2000/svg">
<path d="M111.272 23.806C110.572 21.756 107.273 22.13 105.633 22.207C104.783 22.246 103.943 22.339 103.103 22.457C102.893 22.308 102.593 22.373 102.423 22.562C100.933 22.808 99.4725 23.162 98.0425 23.648C96.3425 24.226 94.7424 24.996 93.2224 25.906C98.2324 20.719 102.893 15.046 106.583 8.863C107.063 8.054 107.522 7.24001 107.942 6.39501C108.092 6.08701 107.623 5.82602 107.423 6.09802C105.123 9.23202 103.013 12.497 100.643 15.587C100.043 16.375 99.4325 17.154 98.8025 17.926C100.322 14.234 101.072 10.222 101.062 6.234C101.052 5.025 100.993 3.814 100.843 2.613C100.733 1.713 100.513 0.673995 99.6426 0.206995C98.9226 -0.179005 98.0126 -0.0370039 97.6226 0.732996C97.1826 1.611 97.2024 2.832 97.2324 3.79C97.3224 6.387 98.3026 8.70302 99.8726 10.736C99.9226 10.795 99.9725 10.831 100.032 10.855C99.8825 11.848 99.6924 12.834 99.4524 13.808C98.9724 15.773 98.2924 17.682 97.4724 19.532C96.0524 21.219 94.5925 22.869 93.0725 24.469C90.8725 26.797 88.5626 29.026 86.1626 31.159C87.6926 28.869 88.8625 26.342 89.6025 23.682C89.9225 22.517 90.1725 21.332 90.3325 20.134C90.4825 19.05 90.6224 17.803 90.0124 16.824C89.5524 16.081 88.6324 15.542 87.7524 15.792C86.8824 16.036 86.4825 16.865 86.3425 17.69C86.1325 18.98 86.3625 20.413 86.5425 21.694C86.6525 22.502 86.7924 23.305 86.9724 24.101C87.1324 24.83 87.2526 25.658 87.6326 26.313C87.6726 26.398 87.7425 26.451 87.8225 26.479C87.3325 27.644 86.7826 28.778 86.1326 29.859C85.4226 31.053 84.6024 32.194 83.7124 33.277C81.3524 35.253 78.9126 37.12 76.4126 38.897C77.7226 37.505 78.8926 35.973 79.8826 34.339C80.0226 34.097 80.1525 33.844 80.2925 33.597C80.5425 33.569 80.8026 33.331 80.6526 33.044C80.6426 33.027 80.6326 33.009 80.6326 32.992C81.5926 31.168 82.3625 29.235 82.8425 27.228C83.0725 26.257 83.4225 24.992 82.8025 24.082C82.1825 23.159 81.0725 23.525 80.5225 24.304C79.6525 25.529 79.2626 27.219 79.1626 28.696C79.0626 30.236 79.3625 31.662 79.8325 33.107C78.4625 35.672 76.6624 38.009 74.5124 39.977C74.1224 40.336 73.7125 40.675 73.3025 41.01C71.0625 42.482 68.7824 43.897 66.4524 45.205C68.5524 43.162 70.2426 40.655 71.3926 38.036C71.4526 37.977 71.4824 37.906 71.4924 37.824C71.5224 37.762 71.5425 37.7 71.5725 37.637C72.5925 35.188 73.1724 32.543 73.2124 29.888C73.2324 28.886 73.2125 27.572 72.3325 26.889C71.4125 26.172 70.4225 26.929 70.0825 27.853C69.5325 29.347 69.4825 31.133 69.5525 32.705C69.6425 34.428 70.0226 36.12 70.6326 37.729C69.6926 39.877 68.4225 41.88 66.8625 43.643C65.6425 45.029 64.2424 46.183 62.7324 47.203C59.9724 48.612 57.1525 49.907 54.2825 51.075C51.1425 52.35 47.9524 53.473 44.7124 54.451C47.1824 52.672 49.4225 50.557 51.3225 48.175C52.7925 46.726 54.3525 45.364 56.0425 44.148C56.8125 43.597 57.5926 43.071 58.3926 42.568C58.4526 42.645 58.5426 42.705 58.6726 42.722C59.8326 42.877 61.0126 42.878 62.1726 42.692C63.1926 42.528 64.3424 42.287 65.2424 41.755C65.9324 41.348 66.4525 40.593 66.0825 39.781C65.7025 38.947 64.7126 38.68 63.8726 38.845C62.8126 39.054 61.7725 39.701 60.8225 40.204C59.8825 40.708 58.9525 41.25 58.0425 41.826C56.3625 42.895 54.7725 44.114 53.2825 45.433C54.6225 43.328 55.8524 40.999 56.4724 38.573C56.7424 37.498 56.6726 36.152 55.6326 35.499C54.7226 34.929 53.7326 35.425 53.1626 36.211C52.3326 37.345 52.1325 38.899 52.0425 40.26C51.9425 41.823 52.0325 43.574 52.6025 45.056C51.1925 47.269 49.5226 49.314 47.6326 51.144C46.1926 52.528 44.6324 53.788 43.0124 54.945C40.1124 55.769 37.1824 56.465 34.2324 57.054C34.7724 56.539 35.2524 55.926 35.6924 55.377C36.4524 54.419 37.1525 53.411 37.7925 52.363C39.0525 50.292 40.0324 48.06 40.7224 45.736C41.0624 44.594 41.3325 43.431 41.5325 42.256C41.6825 41.338 41.7926 40.217 41.1826 39.432C40.5826 38.676 39.5124 38.61 38.6924 39.024C37.7624 39.496 37.2825 40.515 37.0425 41.479C36.4125 43.968 37.1325 46.689 38.8025 48.617C38.2525 49.851 37.6226 51.052 36.9126 52.199C36.3326 53.125 35.7025 54.018 35.0225 54.873C34.3925 55.669 33.5925 56.413 33.0625 57.289C31.7925 57.528 30.5224 57.75 29.2424 57.943C20.6724 59.241 12.0326 59.453 3.38256 58.949C2.30256 58.886 1.22258 58.806 0.152579 58.712C-0.0274213 58.697 -0.0574603 58.958 0.11254 58.983C8.74254 60.221 17.5026 60.199 26.1526 59.175C31.4526 58.548 36.7025 57.531 41.8625 56.159C41.9225 56.203 41.9925 56.227 42.0725 56.181C42.1425 56.138 42.2125 56.089 42.2925 56.045C44.4225 55.468 46.5426 54.836 48.6426 54.135C48.7026 54.118 48.7625 54.096 48.8225 54.079C48.8425 54.183 48.9225 54.285 49.0425 54.273C51.4425 54.041 53.8024 53.752 56.2124 53.85C57.3624 53.897 58.5126 54.01 59.6626 54.183C59.6726 54.214 59.6724 54.245 59.6924 54.277C60.7224 55.974 62.5525 57.329 64.2825 58.237C65.0925 58.662 66.0524 59.048 66.9624 58.727C67.7024 58.469 68.2426 57.801 68.1526 56.998C68.0526 56.096 67.3225 55.502 66.5525 55.147C65.5125 54.675 64.3825 54.364 63.2825 54.074C61.0825 53.49 58.8225 53.153 56.5325 53.075C54.6125 53.009 52.6224 53.075 50.7224 53.446C51.4724 53.17 52.2224 52.883 52.9824 52.622C54.6024 52.064 56.2426 51.56 57.8926 51.115C61.0426 50.269 64.2424 49.625 67.4724 49.189C68.6624 49.029 69.8725 48.87 71.0925 48.749C70.9325 48.911 70.8725 49.152 71.0525 49.375C72.9725 51.741 75.9024 53.254 78.9524 53.38C80.2224 53.432 81.8524 53.335 82.7124 52.245C83.6124 51.105 82.8725 49.737 81.8125 49.039C80.3925 48.104 78.5225 47.803 76.8525 47.706C75.0725 47.602 73.2825 47.731 71.5225 47.881C67.7325 48.202 63.9624 48.811 60.2624 49.696C59.9524 49.769 59.6525 49.857 59.3425 49.934C63.7225 47.942 67.9725 45.662 72.0425 43.11C77.2725 40.975 82.3926 38.598 87.9126 37.273C88.0926 37.228 88.2824 37.194 88.4724 37.152C88.7624 37.721 89.2725 38.035 89.8225 38.361C90.4425 38.731 91.0925 39.047 91.7725 39.291C93.0825 39.759 94.4625 39.979 95.8425 39.942C97.1125 39.908 98.5825 39.718 99.5625 38.825C100.352 38.104 100.503 36.912 99.6826 36.146C98.8026 35.325 97.4625 35.332 96.3425 35.346C94.6725 35.368 93.0025 35.518 91.3625 35.783C88.0925 36.31 84.9025 37.232 81.7925 38.36C79.5725 39.169 77.3724 40.078 75.2124 41.054C81.1024 37.081 86.6126 32.545 91.6426 27.519C94.9126 25.494 98.5926 24.082 102.383 23.437C102.413 23.432 102.452 23.428 102.482 23.423C103.312 25.193 105.052 26.567 107.002 26.826C108.042 26.963 109.233 26.883 110.143 26.344C111.003 25.839 111.612 24.809 111.272 23.806Z" fill="#4D4C51"/>
</svg>
