<svg width="97" height="137" viewBox="0 0 97 137" fill="none" xmlns="http://www.w3.org/2000/svg">
<path d="M96.2544 27.8088C91.3844 27.6188 86.5344 27.7538 81.6944 28.4298C76.8844 29.1028 72.1344 30.2488 67.5444 31.8498C65.4644 32.5728 63.4344 33.3908 61.4544 34.3238C65.8844 29.8718 70.5045 25.6108 75.3145 21.5738C75.9945 21.0048 76.6645 20.4288 77.3245 19.8498C77.3845 19.8788 77.4544 19.8828 77.5044 19.8238C81.1644 15.8458 83.0443 10.2778 83.1143 4.91781C83.1343 3.79281 83.0543 2.6738 82.8943 1.5628C82.9143 1.1688 82.9344 0.774827 82.9544 0.380827C82.9644 0.137827 82.7144 -0.0341991 82.5144 0.0668009C82.2444 -0.103199 81.7943 0.0597992 81.8643 0.458799C81.8943 0.570799 81.9043 0.682828 81.9243 0.794828C80.1443 3.19483 78.3442 5.58382 76.8342 8.16882C75.2342 10.8948 73.9144 13.7908 73.1944 16.8788C72.7944 18.5718 72.4543 20.4528 72.6543 22.1938C72.6643 22.2828 72.7144 22.3488 72.7644 22.3978C70.7644 24.1248 68.8143 25.9188 66.8943 27.7108C64.6343 29.8088 62.4344 31.9598 60.2744 34.1538C60.0744 33.3188 59.8844 32.4798 59.7244 31.6378C59.7444 31.6238 59.7544 31.6168 59.7644 31.5988C63.7144 25.7168 65.2444 18.3228 63.9644 11.3568C63.8144 10.5038 63.6143 9.65883 63.3843 8.82483C63.1943 8.18283 62.9945 7.34783 62.3245 7.04483C61.6645 6.74883 61.0443 7.16081 60.6943 7.70981C60.2243 8.43581 60.0542 9.34881 59.8342 10.1718C58.8042 14.0608 58.2944 18.0618 58.2844 22.0848C58.2844 25.1238 58.5843 28.1528 59.1843 31.1228C59.1743 31.1288 59.1743 31.1358 59.1643 31.1418C59.0243 31.3548 59.1244 31.5808 59.2944 31.6888C59.4944 32.6128 59.7344 33.5288 59.9944 34.4388C59.0344 35.4168 58.0743 36.4018 57.1343 37.3988C55.9343 38.6658 54.7643 39.9538 53.6043 41.2508C53.5443 41.1558 53.4245 41.1008 53.3245 41.1898C52.6345 41.7998 52.0243 42.5198 51.4043 43.2088C50.7743 43.9198 50.1444 44.6388 49.5144 45.3628C48.5544 46.4778 47.6244 47.6198 46.7044 48.7708C46.9044 44.3798 46.8644 39.9908 46.7044 35.5968C46.5344 30.7298 46.1743 25.8648 45.6243 21.0248C45.4843 19.8208 45.3343 18.6188 45.1743 17.4178C45.0943 16.8178 45.0143 16.2168 44.9343 15.6178C44.8743 15.2028 44.8043 14.7838 44.6443 14.3928C44.3543 13.6738 43.6543 13.1208 42.8543 13.4128C42.0743 13.6998 41.6743 14.5908 41.4343 15.3298C40.0543 19.6498 39.9844 24.3038 40.7844 28.7448C41.5944 33.2088 43.2444 37.4978 45.2444 41.5508C45.4944 42.0588 45.7544 42.5628 46.0144 43.0648C46.0844 43.2028 46.2045 43.2628 46.3245 43.2768C46.3545 45.2608 46.3542 47.2438 46.3442 49.2268C46.1942 49.4178 46.0443 49.6068 45.8943 49.7988C43.5243 52.8278 41.2943 55.9628 39.1343 59.1368C38.7543 59.6868 38.3844 60.2388 38.0144 60.7928C37.2144 61.9268 36.4143 63.0658 35.6343 64.2138C35.1843 61.8738 34.6343 59.5528 34.1843 57.2108C33.8943 55.6888 33.6343 54.1618 33.4043 52.6298C33.4543 52.6018 33.5044 52.5638 33.5344 52.5038C35.4844 48.7868 36.8244 44.7538 37.4844 40.6068C37.8144 38.5258 37.9744 36.4188 37.9644 34.3108C37.9444 32.5388 38.0943 30.1968 36.6443 28.8938C36.3943 28.6608 35.9643 28.3528 35.6043 28.3348C35.2843 28.3188 34.8944 28.8558 34.7044 29.0758C34.1344 29.7238 33.6745 30.4718 33.3145 31.2568C32.5745 32.8908 32.2542 34.6948 32.0942 36.4718C31.6942 40.8898 31.9544 45.3928 32.4744 49.7878C32.5144 50.1208 32.5643 50.4518 32.6143 50.7838C32.4843 50.5288 32.3343 50.2808 32.1543 50.0538C32.0643 49.9328 31.9643 49.8218 31.8543 49.7128C31.4143 48.6628 30.9544 47.6228 30.4744 46.5958C29.4044 44.2538 28.2144 41.9578 26.9644 39.7068C25.7044 37.4498 24.3743 35.2338 22.9443 33.0768C21.6043 31.0378 20.2143 28.9998 18.6443 27.1318C16.9743 25.1568 15.0243 23.3858 12.6543 22.3078C12.4043 22.1928 12.1444 22.4758 12.2444 22.7198C13.8944 26.6298 15.8442 30.4078 18.0942 34.0088C20.3542 37.6408 22.9044 41.0888 25.7244 44.3078C27.2944 46.1028 28.9543 47.8268 30.6743 49.4778C30.7343 49.5348 30.7943 49.5518 30.8543 49.5538C30.9343 49.6328 31.0142 49.7118 31.0942 49.7908C31.2442 49.9388 31.3744 50.0978 31.5044 50.2628C32.0144 51.4298 32.4944 52.6038 33.0444 53.7568C33.2444 54.9838 33.4543 56.2068 33.6943 57.4268C34.1643 59.8528 34.6545 62.2968 35.3245 64.6788C31.5845 70.2128 28.0943 75.9158 24.8743 81.7658C24.6143 82.2358 24.3643 82.7098 24.1143 83.1808C24.1743 82.0238 24.1743 80.8648 24.1743 79.7068C24.1643 78.0838 24.1245 76.4608 24.0545 74.8388C24.0545 74.7368 24.0444 74.6348 24.0344 74.5328C24.0844 74.5218 24.1343 74.4928 24.1643 74.4358C26.4843 69.8258 27.9543 64.7948 28.6143 59.6798C28.8043 58.2068 28.9344 56.7218 28.9844 55.2368C28.9944 54.9708 28.7044 54.7718 28.4744 54.9488C26.6244 56.3658 26.0844 58.8388 25.5344 60.9748C24.8244 63.6918 24.2743 66.4478 23.8843 69.2258C23.8343 69.5768 23.7944 69.9288 23.7544 70.2808C23.6044 68.4988 23.4043 66.7208 23.1543 64.9508C22.2743 58.9368 20.7344 52.9998 18.2144 47.4548C16.8444 44.4338 15.1944 41.5298 13.2344 38.8538C13.0744 38.6318 12.6443 38.7248 12.6343 39.0188C12.4743 43.8208 13.1844 48.5728 14.4944 53.1858C15.8144 57.8188 17.7044 62.2628 19.7844 66.5988C20.9444 69.0128 22.1543 71.4008 23.3643 73.7868C23.3543 73.8598 23.3542 73.9318 23.3442 74.0048C23.3342 74.1218 23.3743 74.2098 23.4443 74.2718C23.5343 75.8938 23.5843 77.5168 23.6143 79.1408C23.6343 80.7538 23.6143 82.3698 23.6843 83.9828C20.6143 89.7138 17.8044 95.5838 15.2644 101.568C15.0944 99.6218 14.8344 97.6818 14.5144 95.7528C14.5244 95.7148 14.5344 95.6728 14.5344 95.6228C14.5144 95.4078 14.4944 95.1928 14.4844 94.9778C15.6644 91.9088 16.4144 88.6468 16.9644 85.4118C17.5444 82.0118 17.8443 78.5628 17.8643 75.1138C17.8643 73.2078 17.7843 71.3048 17.6043 69.4068C17.5843 69.1838 17.3044 69.1978 17.2144 69.3588C13.8144 75.4888 13.3043 82.5668 13.6143 89.4368C13.6443 90.2188 13.6944 90.9998 13.7444 91.7808C13.4444 90.3928 13.1144 89.0118 12.7544 87.6418C11.3744 82.4208 9.5344 77.3268 7.2444 72.4388C6.0944 69.9968 4.83438 67.6058 3.47438 65.2758C3.14438 64.7178 2.82438 64.1548 2.47438 63.6108C2.21438 63.1958 1.85424 62.7748 1.33424 62.7188C0.84424 62.6658 0.404338 62.9868 0.184338 63.4018C-0.105662 63.9538 0.00427915 64.5978 0.124279 65.1808C1.17428 70.3328 2.77427 75.3798 4.86427 80.2008C6.96427 85.0318 9.58427 89.6078 12.6143 93.9178C12.9943 94.4578 13.3744 94.9928 13.7744 95.5228C13.8344 95.6128 13.9244 95.6358 14.0044 95.6338C14.0044 95.6568 14.0144 95.6798 14.0144 95.7018C14.0144 95.7808 14.0543 95.8358 14.1043 95.8708C14.4443 97.7978 14.7344 99.7338 14.9644 101.677C14.9744 101.834 15.0044 101.99 15.0244 102.146C14.3844 103.649 13.7643 105.157 13.1743 106.674C9.82433 115.174 6.99436 123.905 4.95436 132.812C4.70436 133.91 4.44436 135.007 4.20436 136.107C4.16436 136.282 4.43439 136.31 4.48439 136.141C6.69439 127.268 9.45437 118.487 12.7144 109.941C13.5144 107.829 14.3544 105.731 15.2244 103.646C15.2644 103.734 15.4143 103.703 15.4043 103.588C15.4043 103.476 15.3943 103.365 15.3843 103.254C16.3143 101.021 17.2944 98.8018 18.2944 96.6008C22.0444 93.2698 26.6043 90.9898 31.4443 89.6918C31.4543 89.6998 31.4644 89.7118 31.4844 89.7188C39.4144 93.0828 48.2845 94.2218 56.8145 93.0208C59.2045 92.6838 61.5643 92.1578 63.8743 91.4668C64.1643 91.3798 64.0245 91.0038 63.8045 90.9478C56.8645 89.2298 49.7943 87.7798 42.6243 87.7928C38.9743 87.7998 35.3044 88.2048 31.7644 89.1128C31.7544 89.1088 31.7444 89.1058 31.7344 89.1018C31.5744 89.0328 31.4343 89.1018 31.3543 89.2158C29.1643 89.8058 27.0144 90.5948 24.9644 91.6088C22.6744 92.7398 20.5443 94.1468 18.6443 95.8468C20.3343 92.1988 22.1144 88.5938 24.0044 85.0438C24.8644 83.4258 25.7443 81.8228 26.6543 80.2278C27.7843 79.3418 28.9242 78.4648 30.0842 77.6168C30.1342 77.6868 30.2142 77.7398 30.3342 77.7518C32.3242 77.9608 34.3245 78.0248 36.3245 77.9608C37.9645 78.7548 39.7143 79.3568 41.4343 79.9148C43.3543 80.5368 45.3044 81.0658 47.2844 81.4808C51.2144 82.3048 55.2544 82.6688 59.2644 82.3448C61.5344 82.1618 63.7744 81.7508 65.9544 81.1078C66.2144 81.0298 66.1544 80.6558 65.9444 80.5598C59.9744 77.8068 53.4142 76.3768 46.8442 76.3568C50.7642 75.2708 54.5444 73.6718 58.0344 71.5718C60.3644 70.1748 62.5445 68.5608 64.5745 66.7578C64.7545 66.5948 64.7143 66.1988 64.4243 66.1938C58.9443 66.0928 53.4443 66.8038 48.1643 68.2798C42.9443 69.7398 37.9342 71.9348 33.3342 74.8038C31.1742 76.1458 29.0543 77.6298 27.1543 79.3318C30.6043 73.3068 34.3342 67.4478 38.3442 61.7848C40.7442 58.4028 43.2345 55.0938 45.8245 51.8538C49.0245 49.8718 52.4444 48.2418 56.0144 47.0578C55.8144 48.9408 56.4545 50.7618 57.3045 52.4358C58.1645 54.1208 59.1844 55.7408 60.2544 57.2988C62.2744 60.2568 64.6643 63.0358 67.5943 65.1368C69.0343 66.1698 70.6044 67.0298 72.2744 67.6358C73.6444 68.1348 75.7444 68.4708 76.4844 66.8138C77.2344 65.1278 75.5843 63.2188 74.6543 61.9628C73.5143 60.4128 72.2744 58.9348 70.9444 57.5388C68.7344 55.2078 66.2843 53.1098 63.6443 51.2848C65.7543 51.8818 67.9343 52.2788 70.1043 52.5898C75.6943 53.3938 81.5743 53.3908 86.9143 51.3268C87.7943 50.9858 89.5243 50.3438 89.1343 49.0738C88.9443 48.4848 88.3442 48.2368 87.8342 47.9978C87.1742 47.6908 86.5142 47.4018 85.8342 47.1308C83.1742 46.0578 80.3945 45.2648 77.5645 44.7518C71.9545 43.7328 66.1542 43.8418 60.5842 45.0668C55.7142 46.1388 51.0244 48.0268 46.7844 50.6488C49.6144 47.1588 52.5442 43.7558 55.5842 40.4488C57.2642 38.6298 58.9644 36.8418 60.7044 35.0818C62.5844 34.2758 64.4943 33.5218 66.4243 32.8348C66.4343 33.0508 66.6045 33.1978 66.8145 33.2518C75.1545 35.3768 84.1443 34.8718 92.1843 31.7768C93.8343 31.1418 96.3845 30.2968 96.5645 28.1988C96.5745 28.0208 96.4544 27.8158 96.2544 27.8088Z" fill="#4D4C51"/>
</svg>
