<svg width="72" height="55" viewBox="0 0 72 55" fill="none" xmlns="http://www.w3.org/2000/svg">
<path d="M70.06 7.89102C67.63 8.48102 65.25 9.34403 63.05 10.521C62.23 10.957 61.4399 11.444 60.6799 11.959C61.2099 11.209 61.7098 10.44 62.1498 9.64502C62.3198 9.34002 61.8498 9.10502 61.6398 9.35202C59.3398 12.127 57.17 14.943 54.52 17.412C54.4 17.53 54.2598 17.639 54.1298 17.756C54.7598 16.611 55.2599 15.397 55.6599 14.237C56.0799 12.983 56.4 11.689 56.56 10.375C56.73 9.00903 56.6498 7.69603 56.6298 6.32803C56.6298 6.19503 56.4498 6.19005 56.3798 6.26505C56.2898 6.36205 56.2101 6.46603 56.1201 6.56503C56.0901 6.56703 56.06 6.55902 56.04 6.57602C55.8 6.74002 55.65 7.00704 55.53 7.28604C54.31 8.90404 53.4601 10.796 52.8701 12.73C52.2001 14.895 51.9599 17.181 52.1999 19.436C50.2199 21.065 48.1299 22.55 45.9199 23.85C45.5699 24.054 45.2201 24.234 44.8701 24.429C47.5601 20.845 49.15 16.503 49.51 12.023C49.59 11.147 49.6799 10 48.9899 9.32105C48.3899 8.73205 47.55 8.92903 47.01 9.48203C46.19 10.321 45.73 11.633 45.29 12.698C44.79 13.924 44.38 15.188 44.06 16.475C43.35 19.328 43.1699 22.292 43.4299 25.216C41.8999 26.004 40.3099 26.698 38.7099 27.316C38.7199 27.241 38.7299 27.168 38.7399 27.094C41.2999 23.284 42.4699 18.321 41.9699 13.821C41.9399 13.552 41.5599 13.463 41.4099 13.676C38.4199 17.717 36.88 22.564 37.29 27.601C37.3 27.69 37.3398 27.75 37.3898 27.791C35.9498 28.297 34.5 28.755 33.02 29.13C33.4 28.583 33.74 28.006 34.06 27.441C34.65 26.399 35.16 25.316 35.59 24.2C36.44 22.01 37.0099 19.678 37.1799 17.333C37.2399 16.56 37.3098 15.53 36.6298 14.979C35.9098 14.383 35.0299 14.854 34.4999 15.466C33.8099 16.275 33.3299 17.369 32.9199 18.348C32.4799 19.419 32.1398 20.533 31.8798 21.661C31.2698 24.273 31.0598 26.959 30.8798 29.628C28.5398 30.112 26.18 30.441 23.79 30.589C19.25 30.87 14.55 30.59 10.09 29.67C9.95003 29.641 9.93 29.854 10.06 29.887C14.1 30.907 18.15 31.446 22.32 31.381C25.46 31.332 28.5898 30.989 31.6498 30.345C31.6798 30.365 31.7099 30.372 31.7399 30.383C31.6699 30.372 31.62 30.395 31.58 30.439C31.41 30.433 31.24 30.573 31.34 30.762C31.39 30.853 31.4299 30.914 31.4799 30.998H31.4899C32.3399 32.421 33.72 33.65 35.03 34.621C36.5 35.708 38.1498 36.553 39.8898 37.099C40.5698 37.311 41.5499 37.735 42.2499 37.395C42.8699 37.089 42.9899 36.276 42.7499 35.684C42.4099 34.854 41.5899 34.163 40.9699 33.547C40.2099 32.81 39.4 32.122 38.52 31.546C37.26 30.721 35.66 29.99 34.07 29.755C34.28 29.702 34.4799 29.662 34.6799 29.606C35.0999 29.488 35.5199 29.345 35.9399 29.216C35.9499 29.262 35.97 29.307 36.02 29.344C37.54 30.433 39.4799 31.085 41.2499 31.641C43.1199 32.229 45.0299 32.669 46.9699 32.953C50.8299 33.52 54.8099 33.471 58.6599 32.779C59.5799 32.613 60.5099 32.426 61.4099 32.164C62.0599 31.976 62.7599 31.689 63.1899 31.138C64.1999 29.833 62.8999 28.587 61.7099 28.122C59.8899 27.415 57.8799 27.006 55.9699 26.697C53.9799 26.378 51.9799 26.222 49.9699 26.227C46.8999 26.236 43.8799 26.64 40.9299 27.372C44.4799 25.834 47.8499 23.884 50.9599 21.564C50.9699 21.635 51.0101 21.7 51.1101 21.711C55.9601 22.26 61.0699 22.591 65.7299 20.801C66.6399 20.45 67.9699 20.02 68.4999 19.124C69.0499 18.199 68.2199 17.584 67.4099 17.342C64.9399 16.602 62.27 16.724 59.78 17.325C57.41 17.899 55.1799 18.889 52.9899 19.961C53.3899 19.622 53.7999 19.281 54.1999 18.929C55.1099 18.119 56.0098 17.266 56.8898 16.379C62.0498 15.366 66.89 12.255 70.34 8.37802C70.52 8.18602 70.31 7.82802 70.06 7.89102ZM40.55 36.608C40.2 36.507 39.8399 36.394 39.4899 36.268C38.0399 35.746 36.6699 35.015 35.4199 34.11C34.7199 33.606 34.0599 33.05 33.4599 32.442C32.9799 31.968 32.5698 31.452 32.1298 30.947C33.9298 31.705 35.69 32.589 37.35 33.617C38.22 34.16 39.0798 34.74 39.8998 35.369C40.3098 35.684 40.71 36.008 41.1 36.342C41.28 36.496 41.4598 36.687 41.6498 36.847C41.2998 36.855 40.87 36.698 40.55 36.608ZM34.6298 30.708C35.4698 30.898 36.28 31.213 37.05 31.605C38.58 32.391 39.9398 33.51 41.1498 34.729C41.4298 35.012 41.7399 35.295 41.9599 35.627C42.0999 35.834 42.2199 36.169 42.1899 36.438C41.9699 36.221 41.6799 36.04 41.4599 35.87C41.0499 35.553 40.6399 35.245 40.2199 34.945C39.3299 34.31 38.4199 33.7 37.4899 33.135C35.6799 32.049 33.8 31.136 31.83 30.397C31.87 30.398 31.9099 30.399 31.9499 30.383C31.9999 30.434 32.0699 30.471 32.1699 30.476C32.9999 30.517 33.8098 30.521 34.6298 30.708ZM40.6498 21.374C40.2498 22.766 39.69 24.084 39.03 25.356C39.6 22.133 40.4398 18.988 41.3798 15.847C41.3598 17.711 41.1598 19.56 40.6498 21.374ZM37.8798 27.389C37.5498 22.983 38.7601 18.383 41.3701 14.789C41.3701 14.794 41.3701 14.799 41.3701 14.804C39.8101 18.635 38.8899 22.756 38.2099 26.834C38.0999 27.019 37.9998 27.207 37.8798 27.389ZM52.8701 18.701C52.8001 18.809 52.7299 18.924 52.6599 19.032C52.4499 16.891 52.5599 14.708 53.1699 12.635C53.5699 11.248 54.2099 9.97504 54.9599 8.76804C54.8999 8.93704 54.84 9.10503 54.8 9.27503C54.49 10.349 54.1698 11.42 53.8798 12.5C53.3598 14.503 52.9601 16.624 52.8701 18.701ZM53.4599 17.785C53.5799 16.033 53.7799 14.311 54.1899 12.581C54.4499 11.495 54.7699 10.469 55.2299 9.45303C55.4399 8.97903 55.64 8.49804 55.85 8.01904C56 7.65504 56.22 7.27802 56.26 6.88202C56.3 6.83402 56.3301 6.78402 56.3701 6.73602C56.4301 7.91902 56.27 9.15402 56.09 10.313C55.88 11.611 55.5798 12.893 55.1498 14.135C54.7398 15.3 54.2398 16.431 53.6298 17.506C53.5798 17.603 53.5099 17.69 53.4599 17.785ZM60.07 12.977C61.08 12.24 62.1399 11.574 63.2499 10.986C64.7499 10.189 66.3099 9.55604 67.9299 9.07404C67.4699 9.37604 67.02 9.68502 66.57 9.97202C65.58 10.59 64.59 11.196 63.6 11.805C61.7 12.975 59.7898 14.134 57.8998 15.326C58.5198 14.664 59.1099 13.986 59.6799 13.282C59.8099 13.182 59.93 13.075 60.07 12.977ZM58.7399 15.231C60.4499 14.344 62.13 13.408 63.79 12.421C64.79 11.827 65.77 11.211 66.76 10.592C67.14 10.348 67.5399 10.109 67.9499 9.86603C66.5699 11.105 65.0699 12.212 63.4699 13.129C61.9599 13.991 60.3699 14.663 58.7399 15.231Z" fill="#4D4C51"/>
<path d="M56.5701 31.749C55.1201 31.858 53.69 32.026 52.24 32.025C50.8 32.024 49.37 31.9371 47.95 31.7731C45.08 31.4411 42.28 30.718 39.52 29.866C39.36 29.815 39.2499 30.051 39.4199 30.119C42.1199 31.227 44.9999 31.8571 47.8999 32.2091C50.7499 32.5561 53.7999 32.706 56.6499 32.298C57.0099 32.247 56.9201 31.723 56.5701 31.749Z" fill="white"/>
<path d="M60.8601 31.04C60.5301 31.04 60.47 31.544 60.79 31.544C61.12 31.544 61.1801 31.04 60.8601 31.04Z" fill="white"/>
<path d="M64.9099 19.767C64.0799 19.889 63.2699 20.06 62.4399 20.23C61.5899 20.406 60.7301 20.543 59.8601 20.64C58.9801 20.738 58.11 20.798 57.23 20.796C56.81 20.795 56.39 20.799 55.97 20.793C55.56 20.788 55.13 20.729 54.73 20.802C54.49 20.845 54.3999 21.224 54.6699 21.304C55.4199 21.533 56.3499 21.456 57.1399 21.42C58.0399 21.378 58.9501 21.303 59.8401 21.189C61.5801 20.967 63.3599 20.655 64.9399 19.887C65.0099 19.857 64.9799 19.757 64.9099 19.767Z" fill="white"/>
<path d="M67.7499 18.417C67.4499 18.417 67.3798 18.89 67.6898 18.89C67.9898 18.89 68.0499 18.417 67.7499 18.417Z" fill="white"/>
<path d="M48.25 12.0751C48.19 11.9251 47.9799 11.949 47.9199 12.078C47.7199 12.516 47.7599 13.0601 47.7099 13.5361C47.6699 14.0101 47.6 14.482 47.53 14.953C47.37 16.005 47.1501 17.0471 46.8601 18.0711C46.5901 19.0531 46.2501 20.019 45.8701 20.965C45.6901 21.406 45.5 21.843 45.3 22.274C45.09 22.713 44.8099 23.14 44.7299 23.624C44.7199 23.747 44.8799 23.845 44.9699 23.759C45.3099 23.462 45.4799 23.0481 45.6799 22.6531C45.9199 22.1661 46.1501 21.6711 46.3601 21.1701C46.7901 20.1671 47.1399 19.135 47.4299 18.086C47.7099 17.079 47.93 16.055 48.09 15.022C48.17 14.484 48.23 13.943 48.28 13.401C48.32 12.96 48.4 12.4961 48.25 12.0751Z" fill="white"/>
<path d="M48.21 10.162C47.96 10.162 47.9099 10.55 48.1599 10.55C48.4099 10.55 48.46 10.162 48.21 10.162Z" fill="white"/>
<path d="M36.33 16.462C36.3 16.331 36.09 16.277 36.05 16.427C35.75 17.347 35.74 18.369 35.59 19.323C35.45 20.276 35.27 21.222 35.04 22.158C34.8 23.137 34.4998 24.101 34.1498 25.048C33.7998 26.004 33.5 27.034 33.07 27.952C33.04 28.017 33.1399 28.054 33.1699 27.994C33.4399 27.503 33.78 27.063 34.03 26.564C34.25 26.134 34.44 25.689 34.61 25.239C34.99 24.278 35.31 23.296 35.58 22.299C35.84 21.345 36.0599 20.375 36.1999 19.397C36.3399 18.451 36.53 17.407 36.33 16.462Z" fill="white"/>
<path d="M62.8898 7.59101C62.8898 7.58601 62.8898 7.58099 62.8898 7.57599C62.8898 7.56299 62.8898 7.551 62.8898 7.538C62.8698 7.473 62.85 7.40701 62.83 7.34201C62.8 7.28401 62.7599 7.22701 62.7299 7.16901C62.6699 7.08401 62.5899 7.01999 62.4999 6.97699C62.4399 6.93399 62.38 6.908 62.31 6.9C62.24 6.873 62.17 6.864 62.1 6.875C62.03 6.867 61.9598 6.876 61.8998 6.904C61.8598 6.912 61.83 6.941 61.79 6.957C61.78 6.961 61.7699 6.95801 61.7599 6.96201C61.7499 6.96701 61.7399 6.98 61.7299 6.986C61.6999 7.005 61.6598 7.01001 61.6298 7.03501C61.6198 7.04501 61.6 7.05601 61.59 7.06601C61.61 7.06301 61.6198 7.059 61.6298 7.056C61.5898 7.085 61.5399 7.104 61.5099 7.142C61.4299 7.212 61.37 7.297 61.33 7.4C61.31 7.471 61.29 7.541 61.27 7.612C61.26 7.723 61.27 7.83002 61.31 7.93302C61.33 8.03702 61.3699 8.13099 61.4399 8.21399C61.4999 8.30199 61.5799 8.369 61.6799 8.413C61.7699 8.476 61.8699 8.512 61.9799 8.521C62.0599 8.52 62.1299 8.51901 62.1999 8.51801C62.3099 8.50601 62.4099 8.46902 62.4999 8.40702C62.5899 8.36102 62.6699 8.29299 62.7299 8.20499C62.7699 8.14399 62.8 8.083 62.84 8.021C62.9 7.883 62.9098 7.73901 62.8898 7.59101Z" fill="#4D4C51"/>
<path d="M63.3401 5.21802C62.8601 5.21802 62.77 5.96204 63.25 5.96204C63.72 5.96204 63.8201 5.21802 63.3401 5.21802Z" fill="#4D4C51"/>
<path d="M64.3101 7.404C64.2901 7.359 64.26 7.32199 64.23 7.29099C64.2 7.25499 64.1601 7.22801 64.1101 7.21201C64.0501 7.18701 63.9899 7.179 63.9199 7.189C63.8699 7.194 63.83 7.21101 63.79 7.23801C63.75 7.25901 63.7099 7.28901 63.6899 7.32801C63.6499 7.38001 63.6201 7.439 63.6101 7.504C63.6101 7.569 63.6099 7.63199 63.6399 7.69199C63.6699 7.77899 63.7401 7.85399 63.8301 7.88199C63.8501 7.88799 63.8599 7.89201 63.8799 7.89701C63.9299 7.91401 63.98 7.91699 64.03 7.90799C64.09 7.89799 64.15 7.874 64.2 7.835C64.24 7.807 64.27 7.771 64.29 7.728C64.32 7.688 64.3301 7.64299 64.3401 7.59299C64.3401 7.52699 64.3301 7.464 64.3101 7.404Z" fill="#4D4C51"/>
<path d="M60.79 8.98404C60.77 8.87104 60.7299 8.76804 60.6599 8.67804L60.54 8.56103C60.45 8.49003 60.34 8.44704 60.22 8.43304C60.14 8.41904 60.05 8.42704 59.97 8.45804C59.89 8.47404 59.81 8.51004 59.74 8.56604C59.67 8.61704 59.6201 8.68102 59.5801 8.75802C59.5301 8.83002 59.51 8.91104 59.5 9.00104C59.5 9.05904 59.5 9.11802 59.5 9.17602C59.52 9.28902 59.5599 9.39102 59.6299 9.48202C59.6699 9.52102 59.71 9.56003 59.75 9.59903C59.84 9.67003 59.9501 9.71303 60.0701 9.72803C60.1601 9.74203 60.2401 9.73403 60.3201 9.70303C60.4101 9.68703 60.48 9.65103 60.55 9.59503C60.62 9.54403 60.67 9.48004 60.71 9.40304C60.76 9.33104 60.79 9.25003 60.79 9.16003C60.79 9.10003 60.79 9.04204 60.79 8.98404Z" fill="#4D4C51"/>
<path d="M8.76001 28.925C8.74001 28.762 8.67007 28.615 8.57007 28.484L8.3999 28.315C8.2699 28.213 8.11995 28.151 7.94995 28.13C7.81995 28.109 7.70008 28.121 7.58008 28.166C7.46008 28.189 7.35 28.241 7.25 28.322C7.15 28.395 7.08002 28.488 7.02002 28.598C6.95002 28.702 6.9099 28.819 6.8999 28.948C6.8999 29.032 6.8999 29.116 6.8999 29.2C6.9299 29.363 6.99009 29.51 7.09009 29.641C7.15009 29.697 7.21001 29.754 7.26001 29.81C7.40001 29.912 7.54997 29.974 7.71997 29.995C7.84997 30.016 7.97009 30.003 8.09009 29.959C8.21009 29.936 8.31991 29.883 8.40991 29.803C8.50991 29.73 8.58989 29.637 8.63989 29.526C8.70989 29.422 8.76002 29.306 8.77002 29.177C8.76002 29.093 8.76001 29.009 8.76001 28.925Z" fill="#4D4C51"/>
<path d="M6.16991 28.137C6.15991 28.108 6.14987 28.081 6.12987 28.058C6.11987 28.031 6.10007 28.009 6.08007 27.991C6.05007 27.958 6.01996 27.933 5.96996 27.917C5.95996 27.912 5.94993 27.907 5.93993 27.902C5.92993 27.9 5.92991 27.897 5.91991 27.895C5.91991 27.894 5.91991 27.894 5.91991 27.893C5.88991 27.885 5.86006 27.877 5.82006 27.868L5.72997 27.869C5.68997 27.873 5.65987 27.882 5.62987 27.896C5.60987 27.912 5.58004 27.927 5.55004 27.943C5.53004 27.965 5.50998 27.987 5.48998 28.008C5.46998 28.035 5.45993 28.062 5.43993 28.089C5.41993 28.135 5.40991 28.182 5.41991 28.231C5.40991 28.263 5.41992 28.294 5.42992 28.324C5.43992 28.355 5.44996 28.384 5.46996 28.409C5.47996 28.438 5.50001 28.462 5.52001 28.481C5.55001 28.517 5.58988 28.543 5.63988 28.56C5.64988 28.568 5.66993 28.573 5.68993 28.574C5.72993 28.591 5.78007 28.594 5.83007 28.585C5.86007 28.576 5.88991 28.568 5.91991 28.559C5.92991 28.556 5.93993 28.553 5.93993 28.55C5.94993 28.545 5.96997 28.54 5.97997 28.535C5.99997 28.52 6.03004 28.506 6.05004 28.491C6.07004 28.471 6.0901 28.45 6.1101 28.43C6.1301 28.405 6.1399 28.38 6.1599 28.355C6.1699 28.312 6.17992 28.268 6.17992 28.223C6.17992 28.194 6.17991 28.165 6.16991 28.137Z" fill="#4D4C51"/>
<path d="M4.18 26.955C3.85 26.955 3.79017 27.459 4.11017 27.459C4.44017 27.459 4.5 26.955 4.18 26.955Z" fill="#4D4C51"/>
</svg>
