<svg width="57" height="143" viewBox="0 0 57 143" fill="none" xmlns="http://www.w3.org/2000/svg">
<path d="M32.066 60.8189C32.296 59.8899 32.5362 58.9609 32.7562 58.0289C32.9562 58.0319 33.156 58.0339 33.346 57.9999C33.606 57.9539 33.8661 57.9089 34.1261 57.8489C34.6461 57.7289 35.1661 57.5939 35.6761 57.4359C36.6961 57.1229 37.6861 56.7449 38.6561 56.3019C40.5861 55.4139 42.406 54.2588 44.066 52.9248C47.386 50.2498 50.076 46.7869 51.786 42.8769C52.666 40.8729 53.316 38.7249 53.586 36.5519C53.876 34.2369 53.486 31.5009 51.306 30.1949C49.116 28.8879 46.5961 30.2139 44.9661 31.7849C43.1861 33.4929 41.8662 35.5929 40.7362 37.7679C39.4862 40.1629 38.3662 42.6319 37.2462 45.0869C36.1362 47.4949 35.0662 49.9179 34.0162 52.3509C35.5062 44.9939 36.386 37.4469 35.846 29.9569C35.866 29.9179 35.886 29.8719 35.856 29.8229C35.846 29.8129 35.846 29.8019 35.836 29.7919C35.816 29.5549 35.806 29.3189 35.786 29.0819C36.406 28.1339 36.9562 27.1229 37.5062 26.1369C38.1662 24.9699 38.8061 23.7979 39.4261 22.6119C40.0461 21.4119 40.6562 20.2018 41.2362 18.9768C41.7862 17.7918 42.3562 16.5958 42.7662 15.3518C43.1462 14.2118 43.4061 12.9759 43.1761 11.7779C42.9761 10.6939 42.3762 9.73787 41.4762 9.09587C40.1962 8.18287 38.6361 8.00485 37.2061 8.41285C37.1661 8.40885 37.126 8.42185 37.086 8.45085C36.506 8.63085 35.9461 8.90585 35.4361 9.27085C33.6861 10.5199 32.7662 12.5199 32.4862 14.5979C30.7262 10.0499 28.2361 5.79586 24.8961 2.25886C24.1761 1.49286 23.406 0.768873 22.616 0.0708733C22.396 -0.122127 22.1461 0.11586 22.1861 0.34486C22.1461 0.30486 22.116 0.262874 22.086 0.221874C22.086 0.217874 22.076 0.215872 22.076 0.212872C22.066 0.184872 22.056 0.157857 22.046 0.128857C22.026 0.0518567 21.9261 0.0558628 21.8761 0.103863C21.7761 0.0988628 21.6661 0.153848 21.6461 0.269848C21.4861 1.33585 21.506 2.44787 21.566 3.52287C21.626 4.61787 21.7461 5.70986 21.9461 6.78886C22.3261 8.93586 22.9562 11.0389 23.7562 13.0659C25.4062 17.2179 27.7861 21.0269 30.3961 24.6349C31.8761 26.6879 33.4362 28.6849 34.9962 30.6809C35.0562 30.7639 35.1462 30.7979 35.2262 30.7989C35.3662 33.1649 35.3662 35.5369 35.2462 37.9059C35.1862 37.6989 35.126 37.4929 35.056 37.2879C34.746 36.2939 34.3561 35.3239 33.9061 34.3829C33.0161 32.5259 31.886 30.7799 30.566 29.2039C29.216 27.6079 27.6661 26.1799 25.9561 24.9839C24.2361 23.7799 22.326 22.7419 20.316 22.1089C19.206 21.7589 18.016 21.5389 16.856 21.7469C15.876 21.9229 15.006 22.3939 14.316 23.1089C13.006 24.4659 12.496 26.5469 12.786 28.3839C13.136 30.6459 14.5761 32.5729 16.1861 34.1239C17.7661 35.6469 19.5861 36.9389 21.4761 38.0439C25.2161 40.2229 29.4262 41.6179 33.7262 42.0569C34.1362 42.0989 34.5361 42.1149 34.9361 42.1139C34.5761 45.6689 33.996 49.2058 33.286 52.6968C32.896 54.5968 32.4662 56.4848 32.0062 58.3688C32.0062 58.3528 31.9962 58.3349 31.9962 58.3189C31.9062 58.0689 31.8061 57.8209 31.7061 57.5749C31.5061 57.0669 31.296 56.5669 31.066 56.0709C30.616 55.0909 30.116 54.1399 29.566 53.2099C28.496 51.3789 27.246 49.6469 25.846 48.0509C24.426 46.4319 22.8461 44.9419 21.1461 43.6179C20.3161 42.9649 19.446 42.3529 18.546 41.7839C17.646 41.2129 16.7161 40.6159 15.7061 40.2539C14.7261 39.8999 13.6261 39.8069 12.6661 40.2849C11.7961 40.7189 11.1362 41.4889 10.7362 42.3669C9.76616 44.4979 10.5261 46.8628 11.4261 48.8778C13.2061 52.8788 15.506 56.8859 19.056 59.5699C22.236 61.9729 26.6362 63.1579 30.4962 61.8019C30.5362 61.7869 30.5761 61.7659 30.6261 61.7499C30.6661 61.7629 30.7162 61.7779 30.7662 61.7919C30.9062 61.8299 30.9862 61.7189 30.9862 61.6039C31.0662 61.5689 31.1461 61.5399 31.2261 61.5039C30.4061 64.7129 29.5261 67.9079 28.6561 71.1049C28.5361 71.3879 28.416 71.6739 28.296 71.9609C28.256 71.9369 28.2061 71.9149 28.1661 71.8909C27.3861 70.7149 26.4662 69.6219 25.5062 68.6029C24.2962 67.3269 22.986 66.1519 21.586 65.0999C18.776 62.9949 15.5962 61.3698 12.2362 60.3518C10.5862 59.8508 8.33603 59.1879 7.10603 60.8549C6.07603 62.2479 6.28619 64.2689 6.76619 65.8239C7.87619 69.4089 11.076 71.8789 14.566 72.9189C18.516 74.0939 22.6561 73.6829 26.6661 73.0619C27.1561 72.9869 27.6361 72.9078 28.1261 72.8298C28.1361 72.8508 28.1561 72.8729 28.1761 72.8939C27.3861 75.7919 26.6061 78.6919 25.8961 81.6079C25.3361 83.8809 24.8261 86.1698 24.3761 88.4678C24.3161 88.4838 24.2561 88.5159 24.2261 88.5709C24.2161 88.2389 24.1861 87.9059 24.1561 87.5779C24.0661 86.7449 23.8961 85.9279 23.6561 85.1239C23.1861 83.5139 22.4061 81.9809 21.4561 80.6029C19.5461 77.8529 16.786 75.6529 13.596 74.5919C11.886 74.0219 9.63617 73.6559 8.24617 75.1059C7.05617 76.3509 7.26611 78.3029 7.68611 79.8239C8.59611 83.1859 10.5861 86.2119 13.1661 88.5399C15.7361 90.8709 18.9561 92.5149 22.3861 93.1279C22.6361 93.1729 22.8961 93.2079 23.1461 93.2389C23.1961 93.3029 23.246 93.3659 23.286 93.4299C23.346 93.5029 23.4162 93.5159 23.4862 93.4929C23.1262 95.8109 22.8461 98.1389 22.6561 100.474C22.5761 100.194 22.4961 99.9149 22.4161 99.6429C21.9361 98.1979 21.236 96.8249 20.356 95.5889C18.596 93.1269 15.906 90.9439 12.866 90.4049C11.396 90.1459 9.89605 90.3469 8.62605 91.1499C7.51605 91.8569 6.62613 93.0209 6.45613 94.3509C6.24613 96.0359 7.21603 97.5319 8.35603 98.6739C9.50603 99.8289 10.8762 100.802 12.2662 101.655C14.9862 103.326 18.0261 104.542 21.1761 105.095C21.5761 105.164 21.926 105.202 22.336 105.187C22.366 105.185 22.4061 105.169 22.4261 105.147C22.3861 107.039 22.416 108.935 22.536 110.834C22.686 113.114 22.946 115.389 23.306 117.649C23.216 117.606 23.1262 117.56 23.0262 117.516C22.9862 117.444 22.9461 117.371 22.9061 117.3C22.3561 116.377 21.736 115.502 21.056 114.674C19.666 112.988 18.056 111.492 16.326 110.163C14.516 108.77 12.576 107.556 10.586 106.429C9.57601 105.855 8.5562 105.304 7.5262 104.762C6.5562 104.252 5.59596 103.708 4.53596 103.413C3.57596 103.145 2.53608 103.128 1.65608 103.644C0.846081 104.114 0.346052 104.943 0.126052 105.829C-0.423948 107.992 0.926159 110.051 2.23616 111.648C4.58616 114.517 7.69605 116.734 11.1261 118.111C14.5761 119.491 18.376 120.065 22.066 119.605C22.506 119.551 22.936 119.48 23.366 119.398C23.376 119.414 23.3861 119.43 23.3961 119.446C23.3961 119.563 23.3961 119.679 23.4161 119.796C23.3261 119.871 23.3561 119.972 23.4361 120.018C23.4561 120.113 23.546 120.133 23.616 120.096C23.646 120.126 23.6761 120.146 23.7261 120.124V120.12C23.7361 120.14 23.7462 120.159 23.7562 120.179C25.0962 126.943 27.4161 133.527 30.6361 139.605C31.1861 140.653 31.7761 141.687 32.3761 142.707C32.4361 142.81 32.626 142.707 32.556 142.601C28.596 135.665 25.8062 128.111 24.2762 120.288C24.2762 120.27 24.2762 120.254 24.2662 120.235C24.2662 120.23 24.2662 120.226 24.2662 120.221C24.2462 120.118 24.2161 120.016 24.1961 119.913C26.6961 119.094 29.066 117.855 31.336 116.533C33.616 115.203 35.786 113.697 37.836 112.035C39.866 110.384 41.786 108.58 43.556 106.645C44.436 105.677 45.286 104.676 46.086 103.643C46.886 102.627 47.6762 101.587 48.2662 100.44C48.8462 99.3379 49.2161 98.1209 49.1661 96.8689C49.1161 95.7679 48.7261 94.6329 47.9561 93.8249C46.2861 92.0649 43.7262 92.5619 41.7462 93.4509C40.5762 93.9739 39.4661 94.6369 38.3761 95.2939C37.2061 95.9909 36.0762 96.7299 34.9762 97.5229C32.7862 99.1079 30.7361 100.911 28.9761 102.97C26.0761 106.352 23.9561 110.554 23.4361 115.005C23.3861 114.549 23.326 114.093 23.286 113.635C22.966 110.572 22.8862 107.514 22.9862 104.466C26.7562 101.351 30.2861 97.9539 33.6261 94.3769C35.3261 92.5539 36.986 90.6849 38.566 88.7599C39.896 87.1489 41.1962 85.4009 41.7662 83.3649C42.2862 81.5389 42.2062 79.0839 40.5262 77.8549C38.6362 76.4739 36.3861 77.8759 34.9661 79.2549C33.4261 80.7609 32.046 82.4789 30.786 84.2209C29.496 85.9999 28.326 87.8709 27.286 89.8099C25.726 92.7129 24.466 95.7789 23.536 98.9389C23.806 96.8069 24.056 94.6729 24.306 92.5399C24.336 92.4029 24.3661 92.2659 24.3961 92.1299C24.4561 92.1019 24.5162 92.0539 24.5262 91.9769C24.5362 91.8239 24.5362 91.6729 24.5262 91.5219C24.5562 91.3559 24.5961 91.1898 24.6261 91.0238C24.6561 90.9188 24.6761 90.8129 24.6961 90.7079C25.7761 86.2899 26.7562 81.8499 27.7762 77.4159C28.1162 75.9079 28.486 74.4019 28.806 72.8869C28.806 72.8839 28.806 72.8799 28.816 72.8769C30.106 72.6139 31.3761 72.2489 32.6361 71.8929C34.0361 71.5019 35.416 71.0829 36.796 70.6299C39.416 69.7639 42.0061 68.7589 44.4661 67.4909C46.7061 66.3369 48.8562 64.9739 50.7762 63.3479C51.7362 62.5449 52.6361 61.6769 53.4661 60.7479C54.2861 59.8219 55.0861 58.8369 55.6561 57.7259C56.1761 56.6999 56.5262 55.4859 56.2262 54.3419C55.9762 53.3679 55.266 52.5859 54.336 52.2069C52.446 51.4379 50.2761 52.0909 48.4561 52.7349C44.1561 54.2589 40.166 56.6979 36.816 59.7889C34.136 62.2479 31.856 65.1199 30.076 68.2819C30.736 65.8709 31.3862 63.4588 32.0062 61.0368C32.0462 60.9738 32.066 60.8999 32.066 60.8189Z" fill="#4D4C51"/>
</svg>
