<svg width="88" height="66" viewBox="0 0 88 66" fill="none" xmlns="http://www.w3.org/2000/svg">
<path d="M0.289982 21.688C0.649982 23.346 2.32006 24.241 3.87006 24.513C5.64006 24.825 7.51999 24.792 9.29999 24.706C11.03 24.622 12.7599 24.407 14.4499 24.064C18.1599 23.316 21.8399 21.911 24.9699 19.77C28.8399 19.32 32.7 18.874 36.56 18.409C37.35 18.313 38.1499 18.221 38.9399 18.125C36.7799 19.067 34.6299 20.027 32.4899 21.012C30.2899 22.024 28.0999 23.058 25.9199 24.115C25.5999 24.274 25.2699 24.436 24.9499 24.595C24.4099 24.518 23.85 24.519 23.32 24.49C22.53 24.447 21.7399 24.418 20.9499 24.423C19.4699 24.432 17.99 24.563 16.56 24.901C14.13 25.473 11.35 26.754 10.1 29.046C9.51004 30.12 9.37988 31.434 10.1899 32.435C11.0099 33.449 12.3701 33.772 13.6201 33.638C14.9701 33.493 16.3 33.003 17.54 32.48C18.72 31.982 19.8599 31.39 20.9399 30.7C23.2899 29.2 25.4299 27.251 26.9199 24.885C28.4499 24.139 29.98 23.394 31.52 22.67C34.91 21.072 38.34 19.538 41.79 18.05C41.59 18.251 41.3899 18.452 41.1899 18.651C40.4399 19.401 39.6999 20.152 38.9599 20.902C38.2299 21.634 37.51 22.371 36.79 23.107C36.42 23.484 36.0499 23.868 35.6899 24.252C35.3399 24.623 34.9199 24.988 34.6699 25.438C34.5699 25.626 34.7799 25.825 34.9699 25.722C35.3899 25.48 35.73 25.079 36.08 24.741C36.46 24.372 36.8399 24.005 37.2099 23.629C37.9599 22.878 38.6999 22.129 39.4399 21.374C40.1599 20.638 40.8901 19.902 41.6101 19.166C42.1401 18.622 42.6999 18.075 43.1899 17.482C43.2899 17.465 43.3899 17.448 43.4899 17.428C43.5899 17.406 43.6398 17.328 43.6498 17.242C43.9698 17.107 44.3001 16.974 44.6201 16.838C44.4101 17.076 44.1999 17.315 43.9899 17.553C43.3999 18.23 42.83 18.916 42.26 19.611C41.1 21.031 39.9999 22.505 38.9499 24.004C37.2799 26.372 35.74 28.829 34.33 31.356C31.45 32.401 28.85 34.025 26.51 35.999C25.31 37.012 24.1899 38.119 23.1699 39.318C22.1399 40.528 21.23 41.91 21.04 43.519C20.87 44.971 21.3399 46.428 22.4899 47.365C23.5299 48.211 24.9199 48.609 26.2499 48.447C29.4699 48.057 31.5601 45.296 32.8701 42.58C34.4301 39.369 36 35.51 35.07 31.897C35.49 31.131 35.9298 30.371 36.3798 29.618C36.4698 29.469 36.5598 29.325 36.6498 29.177C36.5498 30.468 36.57 31.779 36.54 33.069C36.53 33.613 36.52 34.157 36.51 34.701C36.42 34.715 36.35 34.764 36.29 34.866C34.86 37.566 33.9299 40.581 33.4599 43.595C33.2199 45.108 33.09 46.64 33.07 48.172C33.05 49.624 33.0199 51.215 33.4799 52.61C33.8799 53.799 34.79 54.954 36.1 55.147C37.26 55.319 38.33 54.715 39.07 53.86C40.93 51.739 41.2098 48.467 40.8998 45.785C40.5098 42.329 39.05 39.146 37.6 36.021C37.56 35.931 37.4999 35.88 37.4399 35.843C37.4599 34.908 37.4699 33.974 37.4899 33.04C37.5099 31.789 37.57 30.52 37.53 29.264C37.55 29.193 37.56 29.12 37.57 29.065C37.61 28.886 37.6198 28.704 37.6498 28.523C37.6698 28.327 37.6899 28.132 37.7099 27.936C37.7199 27.763 37.73 27.583 37.78 27.414C37.78 27.402 37.78 27.39 37.78 27.378C39.26 25.065 40.83 22.819 42.52 20.647C42.53 20.632 42.54 20.618 42.55 20.603C42.61 21.281 42.69 21.958 42.77 22.631C42.72 22.743 42.6999 22.87 42.7399 22.992C42.6499 22.966 42.5499 22.984 42.4999 23.089C41.8199 24.331 41.41 25.761 41.1 27.132C40.8 28.438 40.6299 29.785 40.7199 31.125C40.8799 33.436 41.79 35.989 43.81 37.316C44.75 37.938 45.97 38.131 47.01 37.61C48.09 37.062 48.4498 35.801 48.6398 34.69C48.9998 32.504 48.7199 30.253 47.9199 28.193C47.0499 25.969 45.5899 24.031 43.6599 22.626C43.5899 21.623 43.5399 20.613 43.4199 19.617C43.4099 19.592 43.3998 19.575 43.3898 19.552C43.7198 19.141 44.0398 18.725 44.3798 18.32C44.9498 17.63 45.58 16.963 46.1 16.223C48.92 15.046 51.7601 13.914 54.6101 12.807C54.4201 13.224 54.25 13.662 54.08 14.08C53.81 14.734 53.54 15.389 53.28 16.045C53.02 16.701 52.7599 17.359 52.4999 18.017C52.3599 18.358 52.23 18.699 52.09 19.039C51.97 19.341 51.8501 19.622 51.8701 19.954C51.8801 20.178 52.14 20.273 52.3 20.123C52.56 19.884 52.66 19.565 52.79 19.247C52.92 18.906 53.0599 18.565 53.1899 18.224C53.4499 17.576 53.7099 16.928 53.9599 16.279C54.2099 15.63 54.4699 14.981 54.7099 14.331C54.9399 13.748 55.19 13.145 55.33 12.529C59.34 10.984 63.3699 9.501 67.4199 8.099C71.9999 6.518 76.5699 4.902 81.1799 3.423C81.3999 3.354 81.3 3.02999 81.08 3.08899C78.99 3.65899 76.88 4.199 74.79 4.819C72.71 5.439 70.64 6.08899 68.57 6.75799C65.04 7.89699 61.55 9.13801 58.08 10.424C56.82 10.552 55.57 10.684 54.32 10.852C53.98 10.898 53.63 10.936 53.29 10.981L53.28 10.98C52.11 10.157 50.89 9.49901 49.53 9.02701C48.21 8.56801 46.8299 8.253 45.4399 8.095C42.6399 7.777 39.7801 8.043 37.1101 8.94C36.0201 9.305 34.6298 9.88401 34.3998 11.157C34.1298 12.574 35.34 13.578 36.52 14.044C38.98 15.015 41.7501 15.297 44.3701 15.008C47.3401 14.68 50.2198 13.62 52.6498 11.87C52.6798 11.849 52.6999 11.822 52.7199 11.797C53.2799 11.715 53.8499 11.644 54.4199 11.556C54.8299 11.491 55.2398 11.409 55.6498 11.332C50.9898 13.092 46.37 14.958 41.79 16.912C39.65 16.131 37.4499 15.567 35.2199 15.096C34.1099 14.86 32.9901 14.644 31.8601 14.475C30.7801 14.311 29.66 14.107 28.56 14.198C28.41 14.21 28.39 14.413 28.53 14.458C29.61 14.8 30.7601 14.898 31.8701 15.086C32.9701 15.271 34.0598 15.467 35.1498 15.697C37.0998 16.108 39.0199 16.619 40.9499 17.131C39.6799 17.24 38.4199 17.382 37.1699 17.522C35.0799 17.753 32.9999 17.985 30.9199 18.224C29.0899 18.434 27.2599 18.644 25.4299 18.855C25.3899 18.797 25.33 18.751 25.26 18.72C25.24 18.637 25.18 18.561 25.08 18.521C21.33 17.082 17.31 16.046 13.3 15.721C11.43 15.569 9.53987 15.606 7.67987 15.907C5.93987 16.189 4.13003 16.67 2.59003 17.554C1.15003 18.377 -0.100018 19.929 0.289982 21.688ZM21.6899 29.296C19.7899 30.663 17.6799 31.743 15.4499 32.444C14.2399 32.821 12.8298 33.19 11.6298 32.605C10.4998 32.056 10.1101 30.899 10.6101 29.758C11.0901 28.651 12.08 27.831 13.09 27.212C14.12 26.576 15.2599 26.138 16.4399 25.849C17.8699 25.496 19.35 25.384 20.82 25.381C21.61 25.379 22.3999 25.412 23.1799 25.459C23.0299 25.534 22.8799 25.607 22.7299 25.682C21.6299 26.228 20.4599 26.713 19.4799 27.445C19.0799 27.743 19.3201 28.46 19.8601 28.289C20.8901 27.961 21.83 27.409 22.79 26.921C23.73 26.451 24.66 25.986 25.59 25.525C25.62 25.521 25.6399 25.522 25.6699 25.518C25.7799 25.498 25.8498 25.447 25.8898 25.38C25.9098 25.372 25.9299 25.364 25.9399 25.356C24.6599 26.804 23.2699 28.167 21.6899 29.296ZM32.6799 40.943C31.5499 43.5 30.0699 46.357 27.2499 47.336C26.0599 47.75 24.7598 47.715 23.6398 47.102C22.4798 46.467 21.8301 45.326 21.8701 44.003C21.9101 42.491 22.7699 41.153 23.7099 40.029C24.6299 38.925 25.6599 37.895 26.7399 36.943C28.8799 35.05 31.3301 33.508 33.8701 32.202C33.6701 32.575 33.46 32.944 33.26 33.32C32.31 35.138 31.33 36.996 30.81 38.988C30.74 39.249 31.0999 39.371 31.2299 39.155C32.1999 37.619 32.94 35.945 33.77 34.329C33.97 33.925 34.1899 33.527 34.4099 33.127C34.6799 35.822 33.7599 38.479 32.6799 40.943ZM36.3701 41.65C36.3601 42.391 36.3501 43.133 36.3601 43.875C36.3701 44.571 36.31 45.333 36.51 46.006C36.59 46.283 36.95 46.239 37.03 45.993C37.26 45.324 37.22 44.548 37.26 43.848C37.3 43.107 37.31 42.364 37.33 41.622C37.36 40.321 37.3799 39.02 37.4099 37.718C38.3899 39.857 39.31 42.035 39.81 44.343C40.36 46.909 40.3898 49.901 39.1398 52.279C38.6698 53.158 37.9001 54.105 36.8701 54.3C35.6701 54.525 34.72 53.533 34.34 52.497C33.88 51.232 33.9099 49.769 33.9099 48.44C33.9199 47.032 34.0099 45.624 34.2099 44.23C34.6099 41.423 35.4099 38.735 36.4799 36.123C36.4699 36.535 36.4599 36.947 36.4499 37.359C36.4199 38.789 36.4001 40.22 36.3701 41.65ZM43.29 26.544C43.64 28.805 44.0599 31.045 44.4999 33.289C44.5399 33.464 44.84 33.418 44.82 33.239C44.47 30.988 44.2199 28.714 43.9999 26.447C43.9199 25.594 43.84 24.74 43.77 23.886C46.51 26.125 48.0799 29.674 47.9499 33.215C47.9099 34.181 47.81 35.318 47.32 36.171C46.76 37.148 45.55 37.279 44.6 36.808C42.68 35.848 41.77 33.429 41.57 31.418C41.44 30.096 41.56 28.764 41.83 27.466C42.11 26.101 42.6001 24.785 42.8701 23.421C42.9901 24.464 43.13 25.504 43.29 26.544ZM52.1699 11.08C52.1499 11.095 52.1301 11.109 52.1101 11.124C51.4701 11.203 50.8299 11.289 50.1899 11.363C48.7999 11.521 47.42 11.661 46.04 11.793C45.37 11.857 44.7 11.916 44.04 11.972C43.36 12.029 42.6099 12.029 41.9699 12.283C41.7399 12.376 41.7099 12.732 41.9799 12.797C42.6599 12.957 43.38 12.85 44.06 12.793C44.73 12.737 45.4 12.678 46.06 12.614C47.47 12.479 48.88 12.317 50.29 12.139C50.37 12.128 50.46 12.113 50.55 12.102C46.91 14.108 42.5399 14.709 38.4899 13.692C37.4499 13.432 35.8698 13.106 35.3898 12.013C34.8498 10.782 36.41 10.143 37.31 9.836C39.71 9.013 42.28 8.72401 44.82 8.93301C47.38 9.14501 49.94 9.90501 52.27 11.036C52.24 11.052 52.2099 11.057 52.1699 11.08ZM2.68988 18.603C4.05988 17.681 5.78985 17.212 7.39985 16.909C9.08985 16.589 10.84 16.513 12.56 16.594C14.62 16.692 16.6699 17.042 18.6799 17.506C20.3599 17.892 22.0099 18.363 23.6799 18.77C23.6399 18.856 23.6399 18.958 23.6699 19.054C21.9599 19.251 20.24 19.448 18.52 19.645C16.2 19.911 13.84 20.062 11.56 20.535C11.15 20.618 11.2699 21.242 11.6699 21.232C13.7499 21.179 15.8399 20.833 17.9099 20.592L22.6298 20.042C20.5398 21.196 18.3299 22.098 15.9999 22.718C12.8299 23.557 9.53996 23.892 6.26996 23.772C4.71996 23.715 2.8199 23.685 1.7099 22.418C0.569904 21.121 1.44988 19.436 2.68988 18.603Z" fill="#4D4C51"/>
<path d="M33.3601 27.676C33.5101 27.875 33.71 28.035 33.96 28.085C34.1 28.115 34.2399 28.112 34.3799 28.078C34.4399 28.062 34.5101 28.031 34.5701 28.002C34.6001 27.988 34.6199 27.97 34.6499 27.951C34.6699 27.934 34.69 27.915 34.71 27.898C34.84 27.823 34.95 27.715 35.04 27.592C35.09 27.511 35.1299 27.415 35.1599 27.32C35.1699 27.273 35.1799 27.225 35.1799 27.176C35.1899 27.123 35.1899 27.072 35.1899 27.018C35.1699 26.878 35.1401 26.757 35.0701 26.634C35.0301 26.576 34.9899 26.524 34.9499 26.474C34.9199 26.448 34.8999 26.425 34.8799 26.404C34.7699 26.322 34.6901 26.268 34.5701 26.221C34.4501 26.174 34.34 26.155 34.21 26.148C34.17 26.146 34.1401 26.148 34.1101 26.153C34.0401 26.162 33.9599 26.17 33.8999 26.193C33.7599 26.243 33.65 26.312 33.53 26.409C33.45 26.478 33.3901 26.567 33.3301 26.657C33.3101 26.703 33.29 26.752 33.27 26.802C33.25 26.854 33.23 26.904 33.22 26.959C33.18 27.206 33.2101 27.469 33.3601 27.676Z" fill="#4D4C51"/>
<path d="M32.34 25.578C32.36 25.656 32.3899 25.724 32.4499 25.782C32.4899 25.848 32.55 25.9 32.62 25.937C32.7 25.981 32.77 26.004 32.86 26.005C32.94 26.021 33.02 26.015 33.1 25.988C33.17 25.968 33.24 25.93 33.3 25.876C33.31 25.868 33.31 25.854 33.33 25.846C33.33 25.842 33.34 25.842 33.34 25.837C33.38 25.812 33.4098 25.778 33.4398 25.736C33.4898 25.681 33.5199 25.616 33.5299 25.542C33.5399 25.493 33.54 25.444 33.55 25.396C33.54 25.349 33.5299 25.303 33.5299 25.256C33.5199 25.223 33.4899 25.2 33.4799 25.171C33.4699 25.143 33.4498 25.115 33.4398 25.086C33.3898 24.995 33.3099 24.922 33.2199 24.87C33.1699 24.85 33.12 24.83 33.07 24.81C32.96 24.784 32.8499 24.787 32.7499 24.818C32.6999 24.839 32.65 24.86 32.6 24.882C32.51 24.938 32.4398 25.013 32.3898 25.106C32.3398 25.179 32.32 25.257 32.32 25.34C32.3 25.42 32.31 25.5 32.34 25.578Z" fill="#4D4C51"/>
<path d="M31.4901 27.872C31.8101 27.909 32.12 27.775 32.2 27.44C32.27 27.161 32.0801 26.767 31.7701 26.73C31.4501 26.693 31.1402 26.8269 31.0602 27.1619C30.9902 27.4409 31.1801 27.835 31.4901 27.872Z" fill="#4D4C51"/>
<path d="M26 14.747C26.34 14.935 26.7901 14.943 27.1101 14.706C27.1501 14.671 27.2 14.628 27.24 14.587C27.28 14.558 27.3201 14.527 27.3601 14.494C27.5201 14.362 27.63 14.172 27.68 13.977C27.71 13.868 27.72 13.747 27.71 13.628C27.71 13.481 27.6902 13.336 27.6202 13.2C27.5502 13.058 27.4401 12.962 27.3101 12.887C27.2701 12.858 27.24 12.829 27.2 12.799C27.03 12.677 26.8302 12.627 26.6202 12.611C26.4102 12.595 26.2101 12.661 26.0301 12.752C25.6501 12.938 25.3999 13.347 25.3999 13.765C25.3899 14.169 25.65 14.555 26 14.747Z" fill="#4D4C51"/>
<path d="M26.4099 16.0669C26.4099 16.0849 26.3899 16.102 26.3899 16.121C26.3899 16.156 26.3899 16.19 26.3999 16.224C26.3999 16.238 26.4099 16.249 26.4099 16.262C26.4099 16.279 26.4099 16.2959 26.4199 16.3129C26.4199 16.3279 26.4399 16.337 26.4399 16.351C26.4499 16.38 26.46 16.4059 26.49 16.4549C26.51 16.4849 26.5401 16.515 26.5601 16.544C26.5701 16.56 26.5801 16.5829 26.5901 16.5979C26.6301 16.6309 26.67 16.6609 26.72 16.6879C26.73 16.6949 26.74 16.702 26.75 16.709C26.84 16.761 26.95 16.786 27.05 16.784C27.16 16.78 27.2601 16.752 27.3401 16.698C27.4301 16.644 27.5 16.571 27.55 16.48C27.6 16.409 27.6201 16.3339 27.6201 16.2529C27.6401 16.1759 27.6301 16.099 27.6001 16.022C27.5701 15.923 27.52 15.837 27.45 15.765C27.37 15.691 27.2799 15.641 27.1799 15.616C27.0699 15.591 26.9701 15.5939 26.8701 15.6239C26.8601 15.6279 26.8401 15.6319 26.8301 15.6359C26.7801 15.6519 26.7399 15.6719 26.6899 15.6969C26.6599 15.7189 26.6301 15.754 26.6001 15.785C26.6001 15.79 26.5901 15.791 26.5801 15.797V15.803C26.5701 15.808 26.5701 15.8089 26.5601 15.8129C26.5501 15.8209 26.55 15.83 26.54 15.838C26.53 15.854 26.51 15.8659 26.5 15.8859C26.49 15.8929 26.49 15.903 26.48 15.911C26.47 15.931 26.4499 15.951 26.4399 15.971C26.4199 16 26.4199 16.0319 26.4099 16.0629V16.0669Z" fill="#4D4C51"/>
<path d="M24.18 16C24.18 16.046 24.1901 16.09 24.2101 16.129C24.2401 16.194 24.2702 16.249 24.3302 16.296C24.3602 16.323 24.4 16.35 24.44 16.377C24.48 16.394 24.5202 16.411 24.5702 16.429C24.6402 16.449 24.7101 16.45 24.7801 16.433C24.8401 16.428 24.9101 16.406 24.9701 16.367C25.0001 16.339 25.0402 16.311 25.0702 16.283C25.1002 16.246 25.13 16.21 25.15 16.173C25.2 16.088 25.2201 15.997 25.2201 15.9C25.2201 15.893 25.2201 15.886 25.2201 15.88C25.2201 15.878 25.2201 15.877 25.2201 15.875V15.872C25.2201 15.853 25.2201 15.834 25.2101 15.815C25.2101 15.757 25.19 15.704 25.16 15.654C25.13 15.624 25.1102 15.595 25.0902 15.565V15.563L25.0802 15.56C25.0802 15.558 25.0802 15.555 25.0802 15.555C25.0702 15.552 25.0702 15.548 25.0702 15.545C25.0502 15.524 25.0301 15.517 25.0001 15.495C24.9501 15.448 24.8902 15.417 24.8202 15.403L24.68 15.388C24.6 15.388 24.5401 15.404 24.4801 15.437C24.4301 15.45 24.4002 15.474 24.3602 15.507C24.3102 15.545 24.2601 15.596 24.2301 15.659C24.2101 15.703 24.2 15.747 24.18 15.791C24.16 15.861 24.16 15.931 24.18 16Z" fill="#4D4C51"/>
<path d="M29.2199 13.29C29.6799 13.344 29.8598 12.634 29.3898 12.579C28.9298 12.524 28.7499 13.235 29.2199 13.29Z" fill="#4D4C51"/>
<path d="M50.68 23.147C50.79 23.257 50.9401 23.3409 51.0801 23.3779C51.2801 23.4259 51.46 23.388 51.64 23.303C51.67 23.289 51.69 23.2659 51.71 23.2489C51.86 23.2359 52.01 23.1929 52.15 23.1239C52.38 23.0019 52.5702 22.752 52.6102 22.488C52.6602 22.155 52.5601 21.8479 52.3401 21.5939C52.1501 21.3659 51.8601 21.246 51.5601 21.243C51.2601 21.24 50.9801 21.38 50.7601 21.578C50.3201 21.981 50.27 22.71 50.68 23.147Z" fill="#4D4C51"/>
<path d="M50.04 20.641C50.06 20.7 50.0998 20.745 50.1298 20.794C50.1298 20.791 50.13 20.789 50.12 20.786L50.1498 20.822V20.824C50.1698 20.843 50.1699 20.869 50.1899 20.887C50.1999 20.894 50.2099 20.902 50.2199 20.909C50.2199 20.915 50.2299 20.921 50.2299 20.927C50.2699 20.954 50.31 20.981 50.34 21.008L50.4699 21.059C50.5399 21.079 50.6098 21.08 50.6798 21.063C50.7298 21.061 50.77 21.049 50.81 21.025C50.85 21.012 50.8898 20.989 50.9198 20.956C50.9598 20.932 50.9899 20.8999 51.0099 20.8599C51.0299 20.8409 51.03 20.815 51.05 20.794C51.06 20.78 51.07 20.771 51.08 20.755C51.09 20.732 51.09 20.705 51.1 20.681C51.1 20.679 51.1 20.677 51.1 20.675C51.11 20.661 51.11 20.647 51.12 20.633C51.12 20.635 51.11 20.638 51.11 20.638C51.12 20.605 51.1398 20.574 51.1398 20.538C51.1598 20.464 51.1498 20.3899 51.1298 20.3169C51.1098 20.2729 51.09 20.229 51.07 20.184C51.03 20.118 50.9798 20.066 50.9198 20.027C50.8598 19.976 50.7899 19.943 50.7199 19.928C50.6399 19.907 50.5699 19.905 50.4899 19.924C50.4199 19.93 50.35 19.953 50.29 19.995C50.25 20.025 50.2098 20.055 50.1698 20.086C50.1198 20.139 50.08 20.203 50.06 20.275C50.03 20.344 50.0099 20.419 50.0199 20.497C50.0199 20.544 50.03 20.592 50.04 20.641Z" fill="#4D4C51"/>
<path d="M49.8999 17.828C49.9099 17.875 49.9199 17.922 49.9299 17.97L49.99 18.099C50.01 18.136 50.0401 18.173 50.0701 18.21C50.1301 18.264 50.19 18.302 50.26 18.323C50.3 18.347 50.3499 18.359 50.3999 18.358C50.4699 18.372 50.5401 18.367 50.6201 18.343C50.6501 18.335 50.68 18.327 50.71 18.32C50.77 18.304 50.8201 18.276 50.8601 18.234C50.9201 18.2 50.96 18.155 50.98 18.099C51 18.06 51.02 18.021 51.03 17.982C51.05 17.9 51.05 17.818 51.02 17.736C51.01 17.709 51 17.682 50.99 17.655L50.9299 17.526C50.8999 17.489 50.8701 17.452 50.8401 17.415C50.7901 17.361 50.7299 17.323 50.6599 17.303C50.6199 17.278 50.57 17.267 50.52 17.268C50.47 17.256 50.4201 17.258 50.3701 17.272C50.3201 17.274 50.28 17.287 50.24 17.312C50.19 17.326 50.1501 17.35 50.1201 17.385C50.0601 17.425 50.01 17.479 49.98 17.544C49.96 17.59 49.9399 17.636 49.9199 17.682C49.9199 17.729 49.9099 17.779 49.8999 17.828Z" fill="#4D4C51"/>
<path d="M54.8999 20.006C55.2799 20.05 55.4301 19.47 55.0401 19.425C54.6701 19.382 54.5199 19.962 54.8999 20.006Z" fill="#4D4C51"/>
</svg>
