<svg width="142" height="78" viewBox="0 0 142 78" fill="none" xmlns="http://www.w3.org/2000/svg">
<path d="M137.21 21.866V21.865H137.2L137.21 21.866Z" fill="#4D4C51"/>
<path d="M138.48 21.483C138.39 20.976 137.95 20.557 137.47 20.418C137.22 20.348 136.95 20.332 136.71 20.41C136.41 20.508 136.15 20.703 135.98 20.975C135.66 21.487 135.66 22.226 136.12 22.661C136.36 22.888 136.65 23.02 136.97 23.058C137.29 23.095 137.6 22.994 137.86 22.81C137.94 22.748 138.01 22.672 138.08 22.591C138.18 22.51 138.26 22.415 138.33 22.311C138.48 22.064 138.53 21.771 138.48 21.483Z" fill="#4D4C51"/>
<path d="M133.98 21.605C133.99 21.516 133.97 21.432 133.93 21.353C133.9 21.318 133.88 21.282 133.85 21.246C133.79 21.178 133.72 21.13 133.63 21.102C133.57 21.078 133.5 21.072 133.43 21.084C133.37 21.084 133.31 21.101 133.25 21.134C133.19 21.163 133.13 21.203 133.1 21.257C133.05 21.305 133.02 21.362 133 21.429C132.99 21.473 132.98 21.518 132.97 21.562C132.97 21.651 132.99 21.735 133.03 21.814L133.1 21.921C133.16 21.989 133.24 22.036 133.32 22.065C133.39 22.089 133.46 22.095 133.52 22.083C133.59 22.083 133.65 22.066 133.71 22.033C133.77 22.004 133.82 21.964 133.86 21.91C133.91 21.862 133.94 21.805 133.96 21.738L133.98 21.605Z" fill="#4D4C51"/>
<path d="M135.49 19.796C135.49 19.752 135.48 19.711 135.46 19.672C135.45 19.63 135.43 19.592 135.4 19.56C135.37 19.503 135.33 19.458 135.27 19.423C135.23 19.404 135.19 19.385 135.15 19.366C135.1 19.358 135.06 19.35 135.02 19.343C134.97 19.347 134.93 19.351 134.89 19.354L134.77 19.397C134.73 19.421 134.7 19.445 134.66 19.469C134.61 19.512 134.57 19.565 134.55 19.627C134.52 19.665 134.51 19.708 134.51 19.753C134.49 19.817 134.49 19.882 134.51 19.947V19.949C134.52 20.013 134.55 20.071 134.59 20.12C134.62 20.176 134.66 20.222 134.72 20.256C134.76 20.275 134.8 20.294 134.84 20.313C134.93 20.34 135.01 20.344 135.1 20.325C135.14 20.311 135.18 20.296 135.22 20.282C135.26 20.258 135.29 20.234 135.33 20.21C135.38 20.167 135.42 20.114 135.44 20.052C135.47 20.014 135.48 19.972 135.48 19.926C135.5 19.883 135.5 19.84 135.49 19.796Z" fill="#4D4C51"/>
<path d="M139.39 19.997C139.39 19.966 139.37 19.938 139.35 19.914C139.34 19.887 139.32 19.865 139.29 19.848C139.22 19.802 139.12 19.795 139.05 19.835L138.98 19.872C138.93 19.9 138.87 19.926 138.84 19.977C138.82 20 138.81 20.026 138.81 20.054C138.8 20.08 138.8 20.107 138.81 20.134C138.82 20.15 138.82 20.167 138.83 20.183C138.85 20.215 138.87 20.241 138.9 20.261C138.93 20.278 138.97 20.297 139.01 20.296C139.01 20.296 139.01 20.296 139.02 20.296L139.03 20.295C139.05 20.294 139.06 20.294 139.07 20.293C139.1 20.292 139.12 20.29 139.15 20.289C139.19 20.291 139.23 20.282 139.27 20.263C139.31 20.243 139.34 20.216 139.36 20.181C139.37 20.162 139.38 20.142 139.39 20.123C139.4 20.082 139.4 20.04 139.39 19.997Z" fill="#4D4C51"/>
</svg>
