<svg width="113" height="73" viewBox="0 0 113 73" fill="none" xmlns="http://www.w3.org/2000/svg">
<path d="M55.4301 72.8305C55.6101 72.7605 55.79 72.6805 55.96 72.6105C55.99 72.6005 56.02 72.5904 56.04 72.5704C56.32 72.4504 56.6 72.3203 56.87 72.1903C56.98 72.2103 57.0901 72.1905 57.1801 72.0905C57.2001 72.0605 57.22 72.0404 57.24 72.0204C59.63 70.8404 61.82 69.3104 63.75 67.4804C65.88 65.4504 67.67 63.0703 69.01 60.4603C70.4 57.7603 71.21 54.8305 71.76 51.8605C72.85 45.9805 73.09 39.9304 75.11 34.2604C75.19 34.1604 75.25 34.0603 75.33 33.9703C77.3 32.4503 79.41 31.1104 81.65 30.0204C84.33 28.7204 87.15 27.8404 90.05 27.2804C90.72 27.2404 91.3999 27.2103 92.0699 27.1803C95.2299 27.9603 98.36 28.8004 101.47 29.7504C103.27 30.2904 105.06 30.8603 106.84 31.4503C108.58 32.0303 110.3 32.6405 112.08 33.1105C112.45 33.2105 112.6 32.6504 112.28 32.4904C111.42 32.0704 110.56 31.7003 109.68 31.3803C102.65 28.7903 95.42 26.7505 88.13 25.1205C88 25.0905 87.88 25.0704 87.76 25.0404C86.49 24.1304 85.22 23.2404 83.97 22.3104C82.16 20.9604 80.37 19.5703 78.58 18.1903C78.39 18.0403 78.19 17.9004 78 17.7504C77.99 17.6904 77.96 17.6303 77.9 17.5903C77.77 17.5003 77.62 17.4303 77.48 17.3403C71.64 12.8503 65.75 8.39043 59.15 5.06043C55.94 3.45043 52.58 2.11033 49.11 1.20033C47.36 0.740325 45.58 0.390335 43.79 0.210335C42.04 0.0203349 40.21 -0.109621 38.46 0.130379C38.15 0.180379 38.0901 0.680325 38.4301 0.700325C38.5101 0.700325 38.58 0.710335 38.65 0.710335C40.19 1.48033 41.71 2.28035 43.15 3.23035C44.54 4.14035 45.88 5.1404 47.22 6.1504C49.61 7.9504 52.0201 9.80033 54.6801 11.2003C57.2401 12.5603 60 13.5103 62.78 14.3403C65.66 15.1903 68.58 15.8904 71.46 16.7604C72.88 17.1804 74.2901 17.6503 75.6801 18.2003C76.4101 18.4903 77.14 18.8004 77.85 19.1404C78.18 19.2904 78.4999 19.4704 78.8199 19.6304C79.0799 19.7504 79.34 19.8403 79.61 19.9403C81.22 21.1403 82.84 22.3304 84.49 23.4904C85.09 23.9104 85.69 24.3304 86.3 24.7404C85.21 24.5104 84.13 24.2803 83.04 24.0703L83.03 24.0604C83.02 24.0604 83.01 24.0604 83 24.0604C80.54 23.5804 78.07 23.1604 75.59 22.7804C73.91 22.0104 72.19 21.2903 70.5 20.5703C67.9 19.4603 65.27 18.4003 62.6 17.4703C57.86 15.8203 52.96 14.5304 47.96 14.0204C42.58 13.4804 37.23 13.9704 31.96 15.1404C26.41 16.3704 20.99 18.2103 15.63 20.1003C10.42 21.9503 5.21003 23.8903 0.160034 26.1603C0.110034 26.4103 0.06 26.6603 0 26.9103C0 26.9403 9.76585e-06 26.9704 0.0100098 27.0004C0.0100098 27.0304 0.0200293 27.0705 0.0300293 27.1005C0.0300293 27.1205 0.0300391 27.1203 0.0400391 27.1303C0.0600391 27.2003 0.0799854 27.2605 0.109985 27.3305C0.119985 27.3505 0.130015 27.3703 0.140015 27.3903L0.150024 27.4003C0.510024 27.5703 0.87999 27.7403 1.23999 27.9003C6.28999 30.1603 11.63 32.0604 17.14 32.8204C22.53 33.5604 28.04 33.2704 33.41 32.4804C38.87 31.6804 44.25 30.3804 49.6 29.0604C55.08 27.7004 60.56 26.3304 66.14 25.4804C68.9 25.0604 71.69 24.7704 74.48 24.6804C75.45 24.6404 76.42 24.6504 77.38 24.6604C77.4 24.6904 77.42 24.7204 77.45 24.7404C78.22 25.1804 79.16 25.3304 80.01 25.5304C80.92 25.7404 81.84 25.9205 82.76 26.0805C83.5 26.2105 84.25 26.3003 85 26.3903C84.96 26.3903 84.92 26.4003 84.88 26.4003C82.6 26.7303 80.32 27.1205 78.05 27.5805C77.36 27.6805 76.65 27.7705 75.96 27.8705C73.61 28.2305 71.2699 28.6703 68.9399 29.1603C68.8799 29.1403 68.81 29.1205 68.74 29.1205C63.77 29.1805 58.8 29.5305 53.9 30.3605C45.86 31.7105 37.99 34.3505 31.15 38.8605C28.09 40.8805 25.26 43.2503 22.78 45.9503C20.35 48.6203 18.15 51.6504 16.76 55.0004C16.66 55.2404 16.95 55.3904 17.11 55.2404C17.21 55.3004 17.33 55.3404 17.47 55.2904C17.5 55.2804 17.5399 55.2704 17.5699 55.2604C17.5799 55.2604 17.59 55.2504 17.6 55.2504C18.63 54.9204 19.61 54.4405 20.64 54.0805C21.69 53.7205 22.7499 53.4103 23.8199 53.1403C26.0199 52.5703 28.24 52.1403 30.46 51.6503C34.19 50.8403 37.84 49.7804 41.36 48.2804C44.8 46.8004 48.11 44.9804 51.17 42.8104C54.16 40.6804 56.79 38.1504 59.58 35.7804C60.92 34.6304 62.31 33.5205 63.8 32.5805C65.04 31.8005 66.35 31.2203 67.7 30.7103C67.73 30.7403 67.78 30.7604 67.83 30.7504C69.44 30.5504 71.03 30.0503 72.6 29.6703C72.87 29.6103 73.15 29.5504 73.42 29.4904C70.46 31.0604 67.61 32.8404 64.87 34.7704C60.92 37.5604 57.1799 40.6404 53.6899 43.9804C53.6599 43.9804 53.63 44.0004 53.61 44.0304C53.61 44.0404 53.61 44.0504 53.61 44.0604C53.5 44.1604 53.39 44.2703 53.28 44.3803C51.09 45.3003 48.98 46.5004 47 47.7904C43.13 50.3204 39.86 53.5804 37.89 57.8004C36.92 59.8604 36.23 62.0504 35.7 64.2604C35.43 65.3604 35.2 66.4605 34.98 67.5805C34.87 68.1605 34.77 68.7404 34.66 69.3204C34.6 69.6804 34.51 70.0503 34.48 70.4103C34.37 70.6803 34.25 70.9504 34.14 71.2304C34.07 71.4104 34.14 71.5503 34.26 71.6403C34.29 71.9603 34.6899 72.1605 34.9399 71.8705C35.3799 71.3705 35.7 70.7704 36.1 70.2504C36.48 69.7604 36.89 69.3005 37.33 68.8605C38.25 67.9305 39.26 67.0904 40.28 66.2604C42.05 64.8404 43.82 63.4304 45.39 61.7804C46.92 60.1804 48.27 58.4204 49.45 56.5404C50.63 54.6304 51.65 52.6004 52.4 50.4804C52.77 49.4504 53.09 48.4005 53.35 47.3305C53.54 46.5705 53.71 45.8004 53.79 45.0204C54.87 43.9304 55.98 42.8604 57.11 41.8204C62.5 36.8904 68.5199 32.8203 74.8199 29.1803C76.7399 28.7503 78.67 28.3604 80.6 28.0204C82.45 27.8104 84.3 27.6404 86.15 27.5104C84 28.1404 81.93 29.0004 79.97 30.0404C78.42 30.8504 76.95 31.7804 75.55 32.8004C75.48 32.7804 75.39 32.7704 75.3 32.8104C72.11 34.1804 69.14 36.0104 66.49 38.2604C61.73 42.3004 58.0599 47.5804 56.0699 53.5104C55.0399 56.5604 54.43 59.7403 54.27 62.9503C54.11 65.9703 54.25 69.1504 55.12 72.0704C54.66 72.2904 54.9401 73.0305 55.4301 72.8305ZM53.13 45.7404C52.44 46.5704 51.9001 47.5503 51.3101 48.4503C50.7101 49.3503 50.11 50.2503 49.5 51.1403C47.32 54.3303 44.9999 57.4203 42.5699 60.4203C41.3399 61.9303 40.07 63.4105 38.78 64.8605C38.48 65.1905 38.18 65.5205 37.88 65.8505C39.03 63.8205 40.21 61.8105 41.51 59.8605C44.92 54.7405 48.84 50.0203 53.15 45.6503C53.14 45.6803 53.13 45.7104 53.13 45.7404ZM37.49 67.1603C38.21 66.3603 38.93 65.5504 39.63 64.7304C42.19 61.7604 44.64 58.7004 46.96 55.5504C48.12 53.9804 49.2399 52.3904 50.3199 50.7704C50.8799 49.9504 51.43 49.1104 51.97 48.2704C52.26 47.8204 52.55 47.3803 52.83 46.9203C52.77 47.1403 52.72 47.3504 52.66 47.5604C52.3 48.7804 51.87 49.9803 51.38 51.1503C49.7 55.2403 47.17 58.9804 43.99 62.0604C42.36 63.6404 40.53 64.9703 38.79 66.4203C37.92 67.1503 37.07 67.9104 36.29 68.7304C36.28 68.7404 36.28 68.7404 36.27 68.7504C36.38 68.5604 36.48 68.3703 36.58 68.1803C36.89 67.8403 37.19 67.4903 37.49 67.1603ZM52.0699 45.5704C50.3499 47.3004 48.69 49.1003 47.1 50.9703C44.52 54.0203 42.1199 57.2405 39.9399 60.5905C38.8499 62.2805 37.7999 64.0104 36.8199 65.7704C36.5299 66.2904 36.25 66.8205 35.97 67.3505C36.19 66.1505 36.44 64.9504 36.73 63.7604C37.8 59.4004 39.58 55.2504 42.77 52.0104C44.37 50.3904 46.21 49.0204 48.12 47.8104C49.41 47.0104 50.7399 46.3004 52.0699 45.5704ZM3.41003 26.4703C6.60003 25.7803 9.79 25.0804 13 24.5104C16.69 23.8604 20.4 23.3104 24.13 22.8804C31.52 22.0304 38.96 21.6204 46.41 21.6104C53.54 21.6104 60.66 22.0203 67.75 22.8203C67.6 22.8203 67.4601 22.8303 67.3101 22.8303C64.9901 22.4903 62.61 22.5004 60.28 22.5504C57.94 22.5904 55.6 22.7503 53.27 22.9703C49.05 23.3703 44.86 23.9704 40.65 24.4904C36.31 25.0204 31.95 25.4204 27.58 25.7404C19.53 26.3304 11.48 26.4503 3.41003 26.4703ZM16.17 27.1803C24.87 26.8003 33.5401 26.0004 42.1801 24.8704C46.3501 24.3304 50.5099 23.7404 54.6899 23.3704C56.7799 23.1904 58.87 23.0604 60.96 23.0204C61.85 23.0004 62.74 23.0204 63.62 23.0404C61.89 23.1704 60.1599 23.3504 58.4399 23.5604C48.5399 24.8104 38.79 27.0803 28.88 28.2003C24.15 28.7403 19.38 29.0304 14.62 28.7704C11.41 28.6004 8.25001 28.1503 5.14001 27.4303C8.82001 27.4503 12.5 27.3403 16.17 27.1803ZM72.01 22.2704C69.98 22.0004 67.95 21.7504 65.91 21.5504C58.47 20.8004 50.97 20.4904 43.49 20.6304C35.99 20.7804 28.4901 21.3903 21.0601 22.4503C14.4401 23.4003 7.83 24.6503 1.37 26.4303C1.36 26.4303 1.33995 26.4203 1.31995 26.4203C6.78995 24.3403 12.23 22.2103 17.78 20.3203C23.06 18.5203 28.39 16.7603 33.89 15.7103C39.14 14.7003 44.45 14.4603 49.75 15.2103C54.66 15.9003 59.44 17.3004 64.08 19.0204C66.44 19.9004 68.78 20.8604 71.09 21.8604C71.4 21.9904 71.71 22.1304 72.01 22.2704ZM73.3199 23.6104C70.3199 23.7504 67.32 24.1003 64.35 24.6003C58.82 25.5403 53.39 26.9304 47.95 28.2904C42.62 29.6204 37.2699 30.8805 31.8199 31.6105C26.4099 32.3305 20.9 32.5005 15.5 31.6105C12.75 31.1505 10.0701 30.4004 7.43005 29.5004C5.51005 28.8404 3.62999 28.1003 1.73999 27.3803C2.27999 27.3903 2.83 27.4003 3.38 27.4003C7.47001 28.5603 11.76 29.0904 15.98 29.2404C25.65 29.6004 35.23 27.9504 44.72 26.2904C54.16 24.6504 63.7199 23.0904 73.3199 23.6104ZM68.85 11.9703C64.64 9.53034 60.26 7.39042 55.75 5.55042C50.88 3.56042 45.8401 1.89042 40.6801 0.800423C41.9401 0.860423 43.2 0.930369 44.46 1.12037C46.44 1.41037 48.38 1.83039 50.29 2.39039C57.02 4.39039 63.13 7.97034 68.85 11.9703ZM72.83 15.2904C71.91 14.8904 70.9899 14.5003 70.0699 14.0903C65.3299 12.0003 60.57 9.92033 55.83 7.83033C53.47 6.79033 51.11 5.75032 48.76 4.70033C47.57 4.16032 46.3799 3.63035 45.1899 3.10035C43.9999 2.56035 42.82 1.96041 41.59 1.54041C41.56 1.53041 41.54 1.54041 41.52 1.54041C41.31 1.43041 41.1 1.30033 40.89 1.20033C43.55 1.94033 46.2099 2.71035 48.8199 3.60035C53.9899 5.37035 59.02 7.4904 63.87 10.0304C66.26 11.2804 68.61 12.6204 70.9 14.0404C71.55 14.4404 72.19 14.8704 72.83 15.2904ZM74.87 16.9804C73.62 16.5304 72.36 16.1204 71.08 15.7504C65.31 14.0704 59.34 12.9004 54.05 9.91041C51.38 8.40041 48.95 6.51035 46.46 4.73035C45.72 4.20035 44.9601 3.6704 44.1801 3.1504C44.6201 3.3504 45.06 3.55037 45.5 3.75037C46.79 4.34037 48.07 4.9404 49.36 5.5304C54.07 7.7004 58.79 9.85035 63.53 11.9804C65.88 13.0304 68.24 14.0503 70.6 15.0903C71.79 15.6103 72.9901 16.1404 74.1801 16.6704C74.4101 16.7704 74.64 16.8804 74.87 16.9804ZM56.92 37.0704C55.72 37.9904 54.4701 38.8305 53.1801 39.6105C48.3701 42.5005 43.16 44.5803 37.87 46.4203C35.06 47.4003 32.23 48.3505 29.42 49.3505C28 49.8605 26.6 50.3903 25.2 50.9503C24.75 51.1303 24.29 51.3004 23.83 51.4904C25.99 50.0704 28.19 48.7303 30.52 47.6303C33.58 46.1903 36.76 45.0703 39.92 43.8803C43.11 42.6803 46.26 41.4003 49.35 39.9503C52.37 38.5203 55.32 36.9605 58.24 35.3305C58.92 34.9505 59.59 34.5603 60.27 34.1803C59.15 35.1503 58.1 36.1704 56.92 37.0704ZM28.46 51.1603C26.86 51.4903 25.2701 51.8103 23.6801 52.2003C23.7201 52.1903 23.76 52.1703 23.8 52.1503C24.59 51.8103 25.4 51.4903 26.2 51.1703C27.76 50.5603 29.34 49.9803 30.92 49.4203C36.42 47.4603 42 45.6803 47.3 43.2203C49.74 42.1003 52.1 40.8305 54.34 39.3405C54.41 39.3005 54.48 39.2403 54.55 39.1903C53.06 40.4303 51.53 41.6303 49.91 42.7203C46.71 44.8603 43.3 46.6604 39.72 48.0604C36.07 49.5004 32.3 50.3903 28.46 51.1603ZM44.63 37.1403C39.67 39.4003 34.86 41.9903 30.25 44.9103C27.95 46.3603 25.71 47.8904 23.53 49.5004C22.42 50.3204 21.33 51.1504 20.26 52.0004C19.71 52.4304 19.17 52.8805 18.65 53.3405C18.37 53.5905 18.1 53.8505 17.84 54.1205C17.81 54.1405 17.78 54.1603 17.75 54.1803C19.63 51.0403 21.75 48.1004 24.34 45.4904C29.62 40.1804 36.21 36.3703 43.26 33.9303C50.22 31.5203 57.55 30.4405 64.9 30.1005C63.24 30.5105 61.59 30.9503 59.96 31.4303C54.72 32.9803 49.59 34.8803 44.63 37.1403ZM62.02 32.8204C60.38 33.7604 58.7299 34.7005 57.0699 35.6105C54.0399 37.2705 50.9699 38.8504 47.8199 40.2704C44.7099 41.6804 41.52 42.8403 38.3 43.9603C35.1 45.0803 31.89 46.2805 28.88 47.8405C26.24 49.2105 23.7601 50.8504 21.3101 52.5204C24.9401 49.7404 28.6501 47.0803 32.5601 44.6803C37.1801 41.8603 42 39.3703 46.96 37.2003C51.94 35.0403 57.05 33.1803 62.28 31.6903C63.3 31.4003 64.32 31.1405 65.34 30.8705C64.23 31.5105 63.13 32.1804 62.02 32.8204ZM72.98 34.8305C68.78 38.4505 65.34 42.9305 62.72 47.8505C60.71 51.6305 59.1599 55.6303 57.9399 59.7203C57.3199 61.7803 56.79 63.8703 56.33 65.9703C55.99 67.5003 55.69 69.0304 55.48 70.5704C55.32 69.4104 55.16 68.2605 55.09 67.0905C54.98 65.3105 54.99 63.5304 55.15 61.7504C55.7 55.5704 57.92 49.5905 61.62 44.6105C64.63 40.5605 68.54 37.2005 72.98 34.8305ZM58.6899 70.2704C59.9599 68.6504 61.12 66.9503 62.22 65.2003C64.98 60.7903 67.21 56.0303 69.05 51.1703C70.47 47.4003 71.75 43.5703 72.89 39.7003C72.63 40.8503 72.42 42.0103 72.25 43.1703C71.35 49.1303 70.93 55.2803 67.98 60.6703C65.81 64.6303 62.5599 67.9604 58.6899 70.2704ZM71.05 44.0905C69.39 49.1905 67.53 54.2804 65.12 59.0704C63.14 63.0104 60.78 66.7005 57.99 70.0905C59.03 68.5105 59.86 66.7904 60.62 65.0504C63.02 59.5304 65.2999 53.9603 67.6899 48.4303C69.4199 44.4503 71.1 40.3803 73.42 36.7003C72.62 39.1603 71.85 41.6305 71.05 44.0905ZM55.98 71.6303C56.45 69.5803 56.8301 67.5103 57.3101 65.4603C57.8601 63.1303 58.47 60.8204 59.21 58.5404C61.76 50.6404 65.69 43.0503 71.66 37.1703C72.53 36.3103 73.45 35.4903 74.4 34.7103C74.29 34.8603 74.19 35.0203 74.08 35.1703C74.02 35.1303 73.93 35.1303 73.9 35.2103C73.86 35.3303 73.82 35.4605 73.78 35.5805C72.5 37.4005 71.4 39.3405 70.42 41.3405C69.2 43.8505 68.14 46.4404 67.03 49.0104C65.82 51.8104 64.59 54.6003 63.35 57.3903C62.15 60.0903 60.99 62.8104 59.75 65.4904C58.74 67.6804 57.59 69.8203 55.98 71.6303Z" fill="#4D4C51"/>
</svg>
