<svg width="170" height="102" viewBox="0 0 170 102" fill="none" xmlns="http://www.w3.org/2000/svg">
<path d="M0.999964 31.8101C0.959964 35.5901 3.57992 38.4001 6.20992 40.8001C11.1899 45.3701 17.0499 49.25 23.6099 51.09C30.0799 52.91 37.2899 52.6001 43.2299 49.2701C43.2599 49.3001 43.2999 49.33 43.3299 49.36C43.4199 49.43 43.5099 49.4201 43.5799 49.3801C49.5699 52.7301 55.9199 55.45 62.4499 57.58C60.4099 57.36 58.38 57.11 56.36 56.85C45.54 55.5 33.8199 54.27 23.8399 59.7C23.4399 59.92 23.3999 60.4601 23.8399 60.6801C26.9699 62.2401 30.41 63.06 33.89 63.34C40.35 63.85 46.7399 62.6301 53.0699 61.5101C56.5299 60.9001 60.01 60.35 63.52 60.09C65.26 59.96 67 59.9101 68.74 60.0001C70.03 60.0701 71.3199 60.2201 72.5999 60.3801C81.6999 62.4601 91.0099 63.4101 100.34 63.4201C99.9799 63.4801 99.61 63.54 99.25 63.61C93.24 64.84 87.4999 67.04 81.5999 68.69C78.6399 69.51 75.6299 70.2001 72.5699 70.5501C71.0399 70.7301 69.4899 70.8401 67.9499 70.8001C66.7099 70.7601 65.5199 70.5701 64.3299 70.2701C64.0899 70.1401 63.85 70.0101 63.61 69.8701C63.27 69.6801 62.99 70.2101 63.27 70.4301C66.01 72.6201 69.47 73.7701 72.91 74.2901C79.53 75.2901 86.17 73.87 92.38 71.59C95.71 70.37 98.94 68.91 102.16 67.44C105.35 65.99 108.6 64.59 111.71 62.97C119.95 62.33 128.13 61.03 136.19 59.21C136.94 59.04 137.69 58.8601 138.43 58.6801C134.08 60.5301 129.75 62.48 125.52 64.59C122.97 65.86 120.47 67.22 118.05 68.7C116.81 69.46 115.59 70.27 114.41 71.11C113.79 71.55 113.18 72 112.58 72.46C112.48 72.54 112.39 72.63 112.3 72.72C112 72.88 111.69 73.03 111.4 73.21C111.23 73.3 111.19 73.4701 111.21 73.6201C111.18 73.6401 111.14 73.6501 111.11 73.6601C110.45 73.8901 110.88 74.8001 111.51 74.6301C113.44 74.1101 115.36 73.6701 117.34 73.3901C119.28 73.1101 121.23 72.9301 123.18 72.7501C126.62 72.4401 130.07 72.11 133.42 71.24C136.28 70.49 138.99 69.29 141.48 67.7C143.88 66.16 146.06 64.2201 147.89 62.0401C148.81 60.9401 149.65 59.7701 150.4 58.5401C151.09 57.4001 151.77 56.1901 152.14 54.9101C152.45 54.8101 152.75 54.7201 153.06 54.6301C155.86 53.7401 158.65 52.8001 161.42 51.8001C164.2 50.8001 166.9 49.6801 169.62 48.5501C169.77 48.4801 169.67 48.2501 169.52 48.3101C168.18 48.7901 166.84 49.28 165.48 49.7C162.98 50.47 160.53 51.4 158.05 52.24C156.85 51.36 155.32 50.8401 153.91 50.4201C152.35 49.9601 150.75 49.6301 149.13 49.4001C142.88 48.5301 136.55 49.1701 130.27 48.7701C127.44 48.5901 124.62 48.19 121.91 47.36C119.46 46.6 117.23 45.4401 115.11 44.0201C115.05 43.9301 114.98 43.8501 114.91 43.7501C114.78 43.5701 114.59 43.54 114.43 43.61C114.08 43.53 113.8 44.0001 114.11 44.3001C114.21 44.3901 114.31 44.48 114.41 44.57C115.96 46.63 118.05 48.2001 120.31 49.4101C122.52 50.5801 124.88 51.45 127.26 52.23C129.89 53.09 132.58 53.7701 135.3 54.2701C138.05 54.7701 140.83 55.0701 143.62 55.1701C145.01 55.2301 146.41 55.25 147.81 55.2C147.27 55.35 146.74 55.4801 146.22 55.6501C145.31 55.9301 144.42 56.25 143.54 56.59C139.69 57.6 135.83 58.5201 131.93 59.3101C127.85 60.1301 123.73 60.7901 119.6 61.3101C119.52 61.2801 119.44 61.2601 119.36 61.2501C119.22 61.2301 119.09 61.23 118.96 61.22C118.7 61.19 118.44 61.1601 118.19 61.1301C117.76 61.0701 117.33 61.04 116.9 60.97C113.9 59.78 111.37 57.78 109.25 55.35C105.02 50.49 102.54 44.45 98.8299 39.22C97.1299 36.82 95.1199 34.5901 92.7099 32.8701C90.6499 31.4101 88.2499 30.17 85.7199 29.82C85.4999 29.71 85.29 29.6001 85.06 29.5101C84.81 29.4001 84.58 29.7201 84.74 29.9101C84.7 30.0401 84.75 30.18 84.92 30.21C85.02 30.23 85.1199 30.2501 85.2199 30.2701C86.4499 31.1201 87.6399 31.9901 88.7099 33.0401C89.8899 34.1901 90.93 35.49 91.87 36.84C95.46 42.02 97.54 48.1201 101.51 53.0501C103.36 55.3501 105.61 57.33 108.13 58.86C110.36 60.23 112.83 61.33 115.41 61.82C109.43 62.42 103.42 62.7001 97.42 62.5601C94.58 62.5001 91.74 62.33 88.91 62.07C88.91 61.97 88.85 61.86 88.74 61.83C88.62 61.8 88.49 61.77 88.37 61.73C88.36 61.69 88.3599 61.64 88.3299 61.59C87.2399 59.27 85.89 57.0601 84.3 55.0401C78.69 47.9101 70.37 42.9301 61.37 41.6801C60.94 41.6201 60.63 42.22 61.02 42.49C63.2 43.98 65.1899 45.7101 67.0799 47.5601C70.3499 50.7601 73.3799 54.22 76.9799 57.07C78.7099 58.44 80.5699 59.66 82.5699 60.61C83.4599 61.03 84.3999 61.41 85.3599 61.71C79.2799 60.99 73.2499 59.8201 67.3499 58.1501C63.9599 57.2001 60.6099 56.0701 57.3299 54.7901C57.3999 54.6801 57.4199 54.53 57.3199 54.36C55.8899 51.87 54.42 49.41 52.89 46.99C47.39 38.28 41.26 30.03 34.55 22.23C34.26 21.89 33.6399 22.08 33.7099 22.57C34.1199 25.55 34.96 28.46 36.12 31.22C38.24 36.23 41.37 40.7501 45.03 44.7501C46.93 46.8201 48.9599 48.76 51.0799 50.61C52.1299 51.54 53.21 52.4301 54.31 53.3101C54.53 53.4801 54.7499 53.66 54.9699 53.83C49.9399 51.74 45.0799 49.2701 40.4499 46.4001C38.3099 45.0701 36.2199 43.6601 34.1899 42.1601C33.3299 39.7001 32.28 37.3201 31.05 35.0201C26.67 26.8801 20.1299 19.87 12.2099 15.07C11.9099 14.89 11.3899 15.06 11.4799 15.48C12.0399 18.07 12.95 20.5801 14.25 22.8901C15.25 24.6801 16.44 26.4601 17.91 27.9301C18.64 28.9201 19.3899 29.8701 20.1999 30.7901C24.7899 36.0301 30.12 40.61 35.86 44.57C35.77 44.54 35.6799 44.5 35.5899 44.48C32.9199 43.64 30.1799 43.07 27.4499 42.46C24.4299 41.77 21.44 40.9201 18.52 39.8901C15.59 38.8501 12.7199 37.63 9.93991 36.24C7.10991 34.82 4.42996 33.1801 1.74996 31.5101C1.48996 31.3601 0.999964 31.4201 0.999964 31.8101ZM13.2099 18.2701C14.0399 19.5001 14.89 20.73 15.76 21.94C18.24 25.36 20.88 28.67 23.65 31.86C25.04 33.45 26.47 35.0101 27.93 36.5401C28.89 37.5501 29.8499 38.59 30.8599 39.57C30.1499 39.01 29.46 38.43 28.78 37.84C25.27 34.81 22.13 31.4401 19.03 28.0101C17.57 26.2501 16.14 24.5 15.04 22.48C14.3 21.13 13.6999 19.7201 13.2099 18.2701ZM32.4699 40.3901C31.7699 39.6001 31.01 38.86 30.28 38.1C29.46 37.23 28.6599 36.36 27.8499 35.48C22.5399 29.67 17.68 23.4 13.31 16.84C14.9 17.89 16.45 19.01 17.91 20.24C24.35 25.63 29.3799 32.6001 32.4699 40.3901ZM36.89 27.98C37.51 29.07 38.1699 30.15 38.8499 31.21C41.3899 35.17 44.15 38.97 47.01 42.7C49.55 46.02 52.1699 49.26 54.6999 52.59C54.6199 52.52 54.5399 52.4601 54.4599 52.3901C53.2899 51.4201 52.14 50.4301 51.01 49.4201C43.49 42.6501 36.9399 34.2101 34.9399 24.1401C34.9699 24.1701 35 24.21 35.03 24.24C35.02 24.3 35.03 24.3501 35.04 24.4101C35.26 25.0701 35.6299 25.6901 35.9599 26.3001C36.2599 26.8601 36.57 27.42 36.89 27.98ZM54.7299 51.96C53.6099 50.38 52.4699 48.8101 51.3199 47.2601C48.5399 43.4901 45.6699 39.79 42.9699 35.96C41.6299 34.05 40.34 32.11 39.14 30.11C38.53 29.1 37.94 28.0701 37.36 27.0301C37.35 27.0201 37.3399 27 37.3299 26.98C38.0099 27.8 38.6799 28.62 39.3399 29.45C44.9899 36.58 50.1299 44.11 54.7299 51.96ZM90.7299 34.0401C91.8699 35.0201 92.9599 36.0501 93.9699 37.1801C95.9999 39.4301 97.7199 41.9101 99.1999 44.5501C100.73 47.2601 102.09 50.0701 103.79 52.6801C105.16 54.7801 106.74 56.75 108.68 58.35C108.21 58.08 107.75 57.79 107.31 57.48C104.82 55.74 102.71 53.57 100.98 51.09C99.1199 48.43 97.68 45.5001 96.18 42.6401C94.8 40.0001 93.35 37.3701 91.52 35.0101C91.27 34.6901 90.9999 34.3601 90.7299 34.0401ZM114.52 60.94C113.68 60.7 112.86 60.4 112.07 59.99C110.71 59.3 109.47 58.37 108.35 57.33C103.93 53.24 101.82 47.4 98.74 42.36C97.23 39.89 95.4599 37.5901 93.4599 35.5101C91.9899 33.9901 90.39 32.5201 88.66 31.2601C88.97 31.3801 89.2799 31.5101 89.5799 31.6601C91.0399 32.3801 92.3599 33.3301 93.5899 34.4001C98.4599 38.6301 101.21 44.6001 104.5 50.0201C107.04 54.2101 110.22 58.43 114.52 60.94ZM156.94 52.61C155.67 52.6 154.39 52.7601 153.13 52.8101C151.61 52.8801 150.09 52.9101 148.58 52.8701C143.29 52.7201 138.01 52.1601 132.84 51.0401C130.83 50.6001 128.84 50.08 126.88 49.48C131.36 50.05 135.93 49.85 140.44 49.82C143.51 49.79 146.58 49.87 149.61 50.32C151.1 50.54 152.57 50.8401 154.01 51.2801C155.13 51.6301 156.22 52.1 157.33 52.49C157.3 52.5 157.28 52.5001 157.26 52.5101C157.15 52.5501 157.04 52.58 156.94 52.61ZM151 54.47C148.21 54.55 145.43 54.6101 142.64 54.4101C137.29 54.0201 131.96 53.0001 126.89 51.2501C124.19 50.3201 121.4 49.2 118.99 47.59C119.81 47.95 120.67 48.25 121.49 48.57C122.88 49.09 124.29 49.5801 125.71 50.0201C130.86 51.6101 136.16 52.69 141.53 53.2C144.16 53.46 146.81 53.53 149.46 53.49C150.82 53.47 152.19 53.42 153.55 53.33C154.02 53.3 154.5 53.28 154.98 53.24C153.65 53.66 152.33 54.07 151 54.47ZM116.49 71.7701C117.99 71.0901 119.51 70.44 121.04 69.82C126.46 67.63 131.99 65.7001 137.37 63.3801C139.99 62.2501 142.59 61.0401 145.07 59.6201C146.26 58.9401 147.42 58.23 148.56 57.47C149.61 56.77 150.66 56.0401 151.58 55.1701C150.87 56.3601 150.24 57.6001 149.46 58.7501C148.56 60.0601 147.56 61.2801 146.46 62.4301C142.36 66.7001 137.07 69.4901 131.28 70.6401C127.94 71.3001 124.54 71.54 121.16 71.86C118.93 72.08 116.65 72.3201 114.43 72.7701C115.11 72.4301 115.79 72.0901 116.49 71.7701ZM142.63 58.0401C143.99 57.4901 145.38 56.9801 146.78 56.5401C147.56 56.3001 148.34 56.0901 149.13 55.9001C149.45 55.8301 149.79 55.77 150.11 55.7C149.28 56.27 148.46 56.8401 147.61 57.3701C146.25 58.2201 144.84 58.99 143.42 59.72C138.38 62.34 133.04 64.3101 127.71 66.2601C124.95 67.2701 122.19 68.2901 119.48 69.4101C118.69 69.7401 117.89 70.0701 117.09 70.4101C117.85 69.9401 118.62 69.4801 119.39 69.0301C124.3 66.1501 129.47 63.76 134.67 61.46C137.31 60.3 139.95 59.1101 142.63 58.0401ZM72.0999 73.1401C70.8999 72.9101 69.7199 72.5701 68.5799 72.1601C70.6199 72.4401 72.7 72.46 74.74 72.34C80.74 71.99 86.5299 70.2501 92.1999 68.3801C95.0699 67.4401 97.9299 66.46 100.83 65.61C102.32 65.17 103.83 64.8 105.36 64.46C106.27 64.26 107.19 64.12 108.11 63.96C105.71 64.98 103.33 66.0701 100.95 67.1301C94.6699 69.9001 88.2099 72.6301 81.3299 73.4201C78.2599 73.7801 75.1399 73.7201 72.0999 73.1401ZM104.72 63.73C103.13 64.12 101.56 64.5901 100 65.0601C94.27 66.8201 88.6699 69.0201 82.8299 70.4001C79.9099 71.1001 76.93 71.59 73.93 71.72C72.01 71.81 70.0999 71.6801 68.2099 71.4301C69.8199 71.5001 71.43 71.38 73.02 71.19C79.19 70.44 85.11 68.38 91.03 66.6C94.08 65.69 97.15 64.8501 100.29 64.3001C101.75 64.0401 103.23 63.84 104.72 63.73ZM86.9599 61.19C86.2899 60.77 85.6199 60.3501 84.9799 59.8901C84.0099 59.2001 83.0799 58.4601 82.1899 57.6701C79.0299 54.9201 76.21 51.7801 73.14 48.9301C71.62 47.5301 70.04 46.21 68.3 45.08C67.48 44.54 66.63 44.04 65.75 43.59C65.66 43.55 65.5699 43.5 65.4799 43.46C66.4799 43.73 67.4699 44.0501 68.4499 44.4201C76.4299 47.4701 83.1999 53.51 86.9599 61.19ZM85.41 60.9101C85.31 60.8801 85.2099 60.8501 85.1099 60.8101C83.9899 60.4201 82.91 59.93 81.88 59.36C75.24 55.72 70.74 49.51 65.15 44.59C65.35 44.68 65.54 44.7701 65.74 44.8701C66.75 45.3901 67.73 45.9901 68.67 46.6401C72.05 48.9801 74.98 51.8401 77.93 54.6801C79.43 56.1201 80.9699 57.5201 82.5999 58.8101C83.4899 59.5201 84.43 60.2701 85.41 60.9101ZM53.39 57.49C49.57 57.35 45.74 57.3901 41.92 57.6301C36.72 57.9601 31.4799 58.6001 26.3599 59.6501C28.3499 58.7501 30.42 58.06 32.56 57.6C39.48 56.12 46.44 56.66 53.39 57.49ZM64.9399 59.0301C64.1699 59.0601 63.4 59.1001 62.65 59.1601C55.91 59.6701 49.34 61.4 42.62 62.1C37.03 62.68 31.2199 62.57 25.9699 60.46C28.7899 59.87 31.6099 59.34 34.4699 58.96C40.1299 58.22 45.84 57.8901 51.55 58.0001C54.38 58.0501 57.22 58.21 60.04 58.48C61.68 58.63 63.3099 58.8301 64.9399 59.0301ZM40.67 47.6601C39.28 47.6501 37.88 47.6801 36.49 47.6301C34.79 47.5701 33.08 47.4501 31.39 47.2601C25.5 46.6101 19.5599 45.2101 14.1899 42.6401C9.74991 40.5201 5.83992 37.4101 2.94992 33.4301C5.29992 34.9701 7.79991 36.34 10.3199 37.57C15.8699 40.27 21.73 42.2401 27.77 43.5401C31.5 44.3401 35.5299 45.07 39.0799 46.69C39.5999 47.03 40.14 47.3401 40.67 47.6601ZM2.14999 34.0001C3.64999 36.0301 5.43991 37.79 7.43991 39.34C12.0299 42.89 17.4999 45.11 23.1099 46.48C26.1699 47.23 29.29 47.73 32.43 47.99C35.31 48.23 38.3199 48.34 41.1999 47.98C41.5399 48.18 41.8699 48.4 42.2099 48.6C39.1999 50.16 35.88 50.9801 32.49 51.1501C25.94 51.4801 19.53 49.2901 14.06 45.8001C11.33 44.0701 8.80002 42.04 6.43002 39.84C4.76002 38.28 2.81999 36.3101 2.14999 34.0001Z" fill="#4D4C51"/>
<path d="M22.24 38.0999C22.37 37.7499 22.66 37.4699 22.99 37.3199C23.26 37.1999 23.59 37.17 23.88 37.24C24.22 37.33 24.5 37.49 24.74 37.76C24.97 38.03 25.0601 38.39 25.0301 38.74C25.0001 39.1 24.79 39.42 24.52 39.66C24.07 40.06 23.3601 40.09 22.9001 39.73C22.6701 39.63 22.47 39.48 22.35 39.28C22.24 39.11 22.16 38.9199 22.14 38.7099C22.13 38.4899 22.16 38.2999 22.24 38.0999Z" fill="#4D4C51"/>
<path d="M20.5099 35.38C20.5299 35.33 20.54 35.27 20.55 35.22C20.57 35.12 20.61 35.04 20.66 34.96C20.7 34.93 20.7299 34.9 20.7599 34.86C20.8399 34.8 20.93 34.77 21.03 34.76C21.1 34.74 21.1799 34.7501 21.2399 34.7801C21.3099 34.7901 21.38 34.82 21.43 34.87C21.49 34.91 21.5399 34.9601 21.5699 35.0301C21.6099 35.0901 21.63 35.16 21.64 35.23C21.65 35.33 21.6399 35.43 21.5999 35.52C21.5799 35.57 21.55 35.6201 21.53 35.6701C21.5 35.7101 21.4799 35.7501 21.4599 35.7901C21.4199 35.8501 21.36 35.8901 21.3 35.9201C21.26 35.9501 21.22 35.96 21.17 35.97C21.15 35.98 21.1299 35.99 21.1099 36C21.0599 36.02 21.0099 36.0301 20.9599 36.0301C20.9099 36.0301 20.8699 36.02 20.8199 36C20.7899 35.98 20.7699 35.97 20.7399 35.95C20.6899 35.91 20.6499 35.8601 20.6299 35.8001L20.6199 35.7801C20.6099 35.7601 20.5999 35.75 20.5999 35.73C20.5799 35.71 20.56 35.6901 20.55 35.6601C20.51 35.5701 20.4999 35.48 20.5099 35.38Z" fill="#4D4C51"/>
<path d="M19.15 37.42C19.18 37.36 19.22 37.31 19.27 37.26C19.33 37.22 19.4 37.1899 19.48 37.1899C19.49 37.1899 19.49 37.19 19.5 37.18H19.5501C19.6201 37.17 19.69 37.1799 19.75 37.2099C19.78 37.2299 19.81 37.24 19.84 37.26C19.89 37.3 19.93 37.36 19.96 37.42C19.98 37.47 19.99 37.5199 19.99 37.5699C19.99 37.6299 19.98 37.68 19.96 37.72C19.94 37.77 19.91 37.81 19.87 37.85C19.84 37.88 19.8 37.91 19.75 37.93C19.68 37.96 19.6101 37.9699 19.5401 37.9599C19.5301 37.9599 19.51 37.9499 19.49 37.9499C19.49 37.9499 19.48 37.9499 19.47 37.9499C19.4 37.9499 19.33 37.92 19.27 37.87C19.22 37.83 19.18 37.78 19.15 37.72C19.13 37.67 19.12 37.62 19.13 37.56C19.12 37.51 19.13 37.46 19.15 37.42Z" fill="#4D4C51"/>
<path d="M64.8699 54.5301C64.9999 54.2601 65.1899 54.07 65.4399 53.94C65.6099 53.85 65.7799 53.83 65.9599 53.83C66.2599 53.7 66.6 53.66 66.92 53.74C67.14 53.8 67.34 53.8801 67.52 54.0301C67.7 54.1801 67.84 54.36 67.93 54.57C68.1 54.96 68.08 55.4001 67.93 55.7901C67.78 56.1801 67.4599 56.5101 67.0799 56.6701C66.6699 56.8401 66.22 56.8201 65.81 56.6701C65.4 56.5201 65.0699 56.1901 64.8799 55.8001C64.6999 55.4201 64.6799 54.9101 64.8699 54.5301Z" fill="#4D4C51"/>
<path d="M63.98 51.85C63.99 51.84 64.0001 51.8201 64.0201 51.8101C64.0301 51.7901 64.0401 51.78 64.0501 51.77C64.0301 51.81 64 51.86 63.97 51.9C64.01 51.83 64.05 51.7499 64.1 51.6899C64.14 51.6499 64.19 51.6099 64.23 51.5699C64.28 51.5399 64.33 51.51 64.38 51.48C64.44 51.46 64.5001 51.4501 64.5601 51.4301C64.6201 51.4301 64.68 51.4301 64.75 51.4301L64.9201 51.48C64.9701 51.51 65.02 51.5399 65.07 51.5699C65.11 51.6099 65.15 51.65 65.19 51.7C65.25 51.77 65.2901 51.8499 65.3101 51.9399C65.3301 51.9999 65.34 52.06 65.33 52.12C65.34 52.18 65.3301 52.24 65.3001 52.3C65.2901 52.36 65.27 52.41 65.23 52.46C65.21 52.52 65.17 52.56 65.13 52.6C65.09 52.65 65.04 52.68 64.99 52.71C64.94 52.74 64.88 52.77 64.82 52.77C64.76 52.8 64.7 52.81 64.64 52.8C64.55 52.8 64.46 52.79 64.37 52.75C64.36 52.74 64.34 52.74 64.33 52.73C64.32 52.72 64.3001 52.71 64.2901 52.71C64.3101 52.71 64.33 52.72 64.36 52.73C64.3 52.71 64.24 52.7 64.19 52.67C64.11 52.64 64.04 52.58 63.98 52.51C63.93 52.45 63.9 52.3899 63.89 52.3199C63.87 52.2499 63.86 52.18 63.88 52.11C63.89 52.01 63.93 51.93 63.98 51.85Z" fill="#4D4C51"/>
<path d="M61.6 53.3101C61.61 53.2301 61.6399 53.15 61.6899 53.09C61.7199 53.06 61.75 53.03 61.78 53C61.84 52.95 61.92 52.92 62 52.91C62.07 52.9 62.1299 52.9101 62.1899 52.9301C62.2499 52.9401 62.3 52.97 62.35 53.01C62.4 53.04 62.44 53.09 62.46 53.15C62.5 53.2 62.52 53.26 62.53 53.32C62.52 53.36 62.52 53.4 62.52 53.45C62.51 53.53 62.4801 53.6001 62.4301 53.6701C62.4001 53.6901 62.37 53.72 62.34 53.75C62.28 53.8 62.2 53.83 62.12 53.84C62.05 53.85 61.9901 53.85 61.9301 53.82C61.8701 53.81 61.82 53.79 61.77 53.75C61.72 53.71 61.68 53.66 61.66 53.61C61.62 53.56 61.6 53.5001 61.6 53.4301C61.6 53.3901 61.6 53.3501 61.6 53.3101Z" fill="#4D4C51"/>
<path d="M74.5699 66.29C74.8199 66.47 75.1199 66.6 75.4399 66.62C75.8299 66.65 76.18 66.55 76.51 66.34C76.73 66.2 76.92 65.99 77.05 65.75C77.07 65.73 77.09 65.7 77.11 65.68C77.15 65.6 77.1599 65.5199 77.1899 65.4399C77.1999 65.4099 77.2099 65.39 77.2099 65.37C77.2399 65.25 77.26 65.13 77.26 65.01C77.26 64.97 77.27 64.93 77.26 64.89C77.25 64.53 77.13 64.18 76.89 63.92C76.81 63.84 76.72 63.7599 76.63 63.6999C76.55 63.6299 76.47 63.57 76.38 63.51C76.3 63.44 76.23 63.3699 76.13 63.3199C75.87 63.1799 75.53 63.1399 75.25 63.1899C74.55 63.3399 74.03 63.8799 73.87 64.5699C73.73 65.2099 74.0499 65.91 74.5699 66.29Z" fill="#4D4C51"/>
<path d="M71.9101 66.5401V66.5301C71.9201 66.5001 71.93 66.47 71.94 66.44C71.95 66.38 71.9701 66.3301 72.0101 66.2801C72.0301 66.2201 72.07 66.1701 72.12 66.1301C72.16 66.0801 72.2101 66.0501 72.2701 66.0201C72.3201 65.9801 72.37 65.96 72.44 65.95C72.53 65.92 72.62 65.9101 72.72 65.9301C72.78 65.9501 72.8401 65.96 72.9001 65.98C72.9501 66.01 73.0101 66.04 73.0601 66.07C73.1001 66.12 73.14 66.16 73.19 66.2C73.22 66.26 73.2501 66.3101 73.2801 66.3701C73.2901 66.4301 73.31 66.4901 73.33 66.5501C73.33 66.6101 73.33 66.68 73.32 66.74C73.31 66.8 73.2901 66.8601 73.2701 66.9201C73.2401 66.9701 73.2101 67.03 73.1801 67.08C73.1401 67.12 73.0901 67.16 73.0501 67.21C73.0001 67.24 72.9401 67.2701 72.8901 67.3001C72.8001 67.3401 72.71 67.36 72.61 67.35C72.54 67.35 72.4801 67.34 72.4201 67.32C72.3601 67.31 72.3101 67.2901 72.2601 67.2501C72.2001 67.2201 72.15 67.1901 72.11 67.1401C72.06 67.1001 72.0301 67.05 72.0001 66.99C71.9501 66.91 71.9201 66.82 71.9101 66.72C71.9001 66.66 71.9001 66.6001 71.9101 66.5401Z" fill="#4D4C51"/>
<path d="M70.39 64.79C70.4 64.75 70.41 64.72 70.43 64.7C70.45 64.66 70.47 64.64 70.49 64.62C70.52 64.59 70.5499 64.5701 70.5799 64.5601C70.5999 64.5401 70.61 64.53 70.62 64.52C70.66 64.49 70.7 64.47 70.73 64.45C70.79 64.43 70.85 64.42 70.92 64.42C70.96 64.42 71 64.4199 71.04 64.4399C71.1 64.4499 71.16 64.48 71.21 64.52C71.23 64.53 71.25 64.5401 71.27 64.5601C71.33 64.6001 71.37 64.66 71.4 64.73C71.42 64.79 71.43 64.84 71.43 64.9C71.43 64.96 71.42 65.0101 71.4 65.0601C71.37 65.1301 71.32 65.19 71.26 65.24C71.24 65.25 71.2199 65.26 71.1999 65.28C71.1699 65.3 71.13 65.32 71.1 65.34C71.03 65.36 70.97 65.38 70.91 65.37C70.86 65.37 70.82 65.37 70.78 65.35C70.72 65.34 70.67 65.31 70.62 65.27C70.61 65.27 70.6 65.26 70.59 65.25C70.57 65.23 70.55 65.22 70.53 65.21C70.5 65.18 70.48 65.16 70.46 65.14C70.44 65.11 70.42 65.08 70.4 65.05C70.38 65 70.37 64.94 70.38 64.89C70.37 64.86 70.38 64.82 70.39 64.79Z" fill="#4D4C51"/>
<path d="M99.54 58.81C99.63 59.05 99.78 59.25 99.97 59.43C100.16 59.6 100.4 59.7 100.65 59.76C101.1 59.87 101.63 59.7 101.98 59.41C102.38 59.07 102.64 58.56 102.56 58.03C102.5 57.69 102.33 57.4 102.09 57.17C101.81 56.77 101.31 56.5599 100.82 56.5999C100.28 56.6399 99.8 56.9799 99.56 57.4699C99.36 57.8799 99.37 58.39 99.54 58.81Z" fill="#4D4C51"/>
<path d="M97.17 57.5601C97.19 57.4501 97.23 57.3401 97.3 57.2501C97.34 57.2101 97.3901 57.1701 97.4301 57.1301C97.5201 57.0601 97.63 57.0201 97.75 57.0001C97.84 56.9901 97.93 56.9901 98.01 57.0301C98.1 57.0401 98.17 57.0801 98.24 57.1401C98.31 57.1901 98.37 57.25 98.4 57.33C98.45 57.41 98.48 57.49 98.49 57.58C98.49 57.64 98.49 57.7001 98.49 57.7601C98.47 57.8801 98.43 57.98 98.36 58.07C98.32 58.11 98.27 58.15 98.23 58.19C98.14 58.27 98.03 58.31 97.91 58.33C97.82 58.34 97.73 58.3301 97.65 58.3001C97.56 58.2801 97.49 58.25 97.42 58.19C97.35 58.14 97.29 58.07 97.26 57.99C97.21 57.92 97.18 57.84 97.17 57.74C97.17 57.68 97.17 57.6201 97.17 57.5601Z" fill="#4D4C51"/>
<path d="M97.3001 54.27C97.3201 54.23 97.33 54.2 97.34 54.16C97.36 54.13 97.37 54.1 97.39 54.07C97.41 54.05 97.44 54.03 97.46 54L97.5501 53.95C97.6001 53.93 97.65 53.9201 97.7 53.9301C97.74 53.9201 97.7701 53.93 97.8001 53.94C97.8401 53.95 97.87 53.96 97.9 53.98C97.93 53.99 97.95 54.0101 97.97 54.0401C98.01 54.0701 98.0401 54.11 98.0601 54.16C98.0701 54.2 98.08 54.24 98.1 54.28C98.13 54.35 98.14 54.43 98.13 54.5C98.11 54.58 98.0901 54.65 98.0401 54.71C97.9901 54.77 97.93 54.81 97.86 54.84C97.81 54.87 97.75 54.88 97.69 54.87C97.64 54.87 97.58 54.86 97.53 54.84C97.46 54.81 97.4 54.76 97.35 54.7C97.26 54.58 97.2401 54.41 97.3001 54.27Z" fill="#4D4C51"/>
<path d="M124.4 55.6301C124.44 55.5801 124.48 55.54 124.52 55.5C124.81 55.1 125.29 54.83 125.79 54.82C126.58 54.81 127.36 55.24 127.66 55.99C127.97 56.76 127.65 57.6701 127 58.1601C126.31 58.6701 125.34 58.6301 124.71 58.0401C124.38 57.7301 124.15 57.3401 124.08 56.8901C124 56.4501 124.13 55.9801 124.4 55.6301Z" fill="#4D4C51"/>
<path d="M128.93 56.71C128.93 56.7 128.94 56.6999 128.95 56.6899C128.96 56.6599 128.97 56.63 128.97 56.6C129.01 56.51 129.05 56.45 129.12 56.39C129.16 56.35 129.2 56.31 129.25 56.29C129.26 56.28 129.27 56.28 129.28 56.28L129.37 56.23C129.41 56.21 129.45 56.22 129.48 56.21C129.49 56.21 129.49 56.2 129.5 56.2H129.51C129.54 56.2 129.56 56.1899 129.59 56.1899C129.63 56.1899 129.68 56.19 129.72 56.21C129.74 56.21 129.76 56.23 129.78 56.23C129.8 56.24 129.82 56.25 129.84 56.25C129.92 56.28 129.99 56.33 130.04 56.4C130.09 56.43 130.12 56.48 130.14 56.53C130.17 56.58 130.18 56.6301 130.2 56.6801C130.21 56.6901 130.22 56.7 130.23 56.72C130.25 56.79 130.26 56.85 130.28 56.91C130.3 57.04 130.28 57.16 130.23 57.27C130.2 57.33 130.17 57.3801 130.14 57.4301C130.06 57.5301 129.96 57.6 129.85 57.65C129.76 57.69 129.67 57.7 129.57 57.7C129.48 57.7 129.39 57.69 129.3 57.64C129.21 57.61 129.14 57.56 129.08 57.49C129.01 57.43 128.96 57.35 128.93 57.26C128.88 57.17 128.87 57.08 128.88 56.99C128.87 56.89 128.89 56.8 128.93 56.71Z" fill="#4D4C51"/>
<path d="M124.83 53.3199C124.85 53.2699 124.9 53.2299 124.93 53.1899C124.95 53.1699 124.95 53.14 124.96 53.12C125 53.07 125.04 53.04 125.09 53.02C125.13 52.99 125.18 52.97 125.24 52.96C125.28 52.96 125.31 52.97 125.35 52.98C125.39 52.98 125.43 52.96 125.47 52.96C125.57 52.98 125.67 53.02 125.75 53.09C125.83 53.15 125.89 53.23 125.93 53.33C125.98 53.43 125.99 53.54 125.97 53.65C125.96 53.75 125.92 53.8501 125.85 53.9301C125.79 54.0101 125.71 54.07 125.61 54.11C125.51 54.15 125.4 54.17 125.3 54.15C125.19 54.14 125.1 54.1 125.02 54.03H125.01C124.93 53.96 124.87 53.88 124.83 53.79C124.79 53.71 124.78 53.63 124.79 53.55C124.78 53.47 124.8 53.3899 124.83 53.3199Z" fill="#4D4C51"/>
<path d="M121.49 55.09C121.51 55.02 121.54 54.95 121.59 54.88C121.63 54.82 121.7 54.77 121.77 54.74C121.87 54.71 121.87 54.71 121.95 54.71C121.99 54.71 122.03 54.71 122.06 54.73C122.08 54.73 122.1 54.74 122.12 54.75C122.19 54.78 122.25 54.82 122.3 54.89C122.35 54.95 122.38 55.02 122.39 55.11C122.39 55.14 122.4 55.1599 122.4 55.1899C122.41 55.2799 122.4 55.3601 122.37 55.4301C122.35 55.4701 122.33 55.5 122.31 55.54C122.26 55.6 122.19 55.6501 122.12 55.6801C122.06 55.7101 122 55.72 121.94 55.71C121.87 55.72 121.81 55.7001 121.76 55.6801C121.7 55.6501 121.65 55.6199 121.61 55.5699C121.57 55.5299 121.53 55.4901 121.51 55.4301C121.48 55.3501 121.47 55.2701 121.48 55.1801C121.49 55.1501 121.49 55.12 121.49 55.09Z" fill="#4D4C51"/>
</svg>
