<svg width="25" height="28" viewBox="0 0 25 28" fill="none" xmlns="http://www.w3.org/2000/svg">
<path d="M23.8339 15.3824C22.3539 15.7224 20.9239 16.2524 19.6039 17.0024C18.9739 17.3624 18.3639 17.7523 17.7839 18.1923C17.5239 18.3923 17.2339 18.6123 16.9639 18.8423C17.1039 18.4123 17.224 17.9724 17.324 17.5324C18.264 13.4324 17.364 9.13238 15.054 5.65238C13.774 3.71238 12.0939 2.04237 10.0039 1.02237C9.87392 0.962371 9.77391 1.05239 9.74391 1.16239C9.65391 1.13239 9.5539 1.14234 9.4839 1.24234C9.0939 1.89234 8.80395 2.57228 8.66395 3.30228C8.35395 2.38228 8.12392 1.44232 8.00392 0.472322C7.92392 -0.147678 7.16394 -0.117693 6.90394 0.332307C3.12394 6.97231 3.00398 15.2823 6.69398 21.9823C6.94398 22.4423 7.22392 22.8923 7.50392 23.3323C7.19392 23.1223 6.87397 22.9223 6.55397 22.7123C5.84397 22.2523 5.13396 21.7823 4.42396 21.3123C3.20396 20.5123 1.9739 19.6323 0.483898 19.4623C0.0738984 19.4123 -0.116014 19.8623 0.0739863 20.1823C1.16399 21.9323 2.55393 23.4923 4.14393 24.8023C4.94393 25.4623 5.79398 26.0523 6.69398 26.5723C7.11398 26.8123 7.5439 27.0323 7.9839 27.2323C8.3339 27.4023 8.75395 27.6324 9.16395 27.6424C9.20395 27.7424 9.32388 27.8224 9.46388 27.7824C9.64388 27.7224 9.82393 27.6623 10.0139 27.6023C10.1139 27.5923 10.2239 27.5724 10.3339 27.5024C10.3539 27.4924 10.3639 27.4823 10.3839 27.4723C13.0739 26.5123 15.584 24.9324 17.804 23.1524C20.304 21.1424 22.4739 18.7523 24.2439 16.0723C24.4339 15.7923 24.2339 15.2924 23.8339 15.3824ZM18.2439 18.9523C18.8139 18.5123 19.414 18.1124 20.044 17.7624C20.314 17.6024 20.6039 17.4723 20.8939 17.3423C20.7439 17.4923 20.584 17.6324 20.434 17.7824C19.584 18.5724 18.764 19.3824 17.914 20.1624C16.924 21.0724 15.9539 22.0024 14.9839 22.9124C15.5239 22.1024 16.0039 21.2523 16.3939 20.3523C16.4839 20.3623 16.574 20.3424 16.674 20.2824C17.244 19.9224 17.7139 19.3723 18.2439 18.9523ZM9.91395 1.49234C9.92395 1.48234 9.91395 1.48232 9.91395 1.47232C12.974 3.88232 15.3439 6.98231 16.2239 10.8323C16.7839 13.3023 16.664 15.8523 15.934 18.2323C15.964 18.0023 16.0039 17.7724 16.0239 17.5324C16.1539 15.5024 15.8139 13.4623 15.0139 11.5823C14.2139 9.69231 13.044 8.00238 11.934 6.28238C11.344 5.39238 10.7839 4.48239 10.2739 3.54239C10.2339 3.47239 9.90391 2.73233 9.62391 2.35233C9.70391 2.05233 9.79395 1.76234 9.91395 1.49234ZM9.44398 3.3223C9.60398 3.6523 9.80393 3.96238 9.89393 4.15238C10.3139 4.96238 10.804 5.75237 11.294 6.52237C12.344 8.17237 13.4739 9.78231 14.2439 11.5823C15.0439 13.4223 15.3839 15.4423 15.2439 17.4423C15.2139 17.8623 15.1639 18.2923 15.0939 18.7223C14.8839 14.5823 12.504 11.0223 10.564 7.47232C10.254 6.90232 9.95396 6.32233 9.67396 5.73233C9.63396 5.62233 9.59399 5.52239 9.57399 5.41239C9.47399 4.98239 9.41394 4.54233 9.40394 4.10233C9.40394 3.84233 9.42398 3.5823 9.44398 3.3223ZM6.00392 5.59232C6.13392 4.75232 6.48396 4.00231 6.79396 3.21231C6.80396 3.19231 6.79396 3.17238 6.79396 3.15238C6.81396 3.10238 6.82388 3.06236 6.84388 3.01236C6.70388 4.55236 7.04396 6.24232 7.42396 7.59232C8.06396 9.84232 9.11394 11.9423 10.0239 14.0823C11.5439 17.6323 12.6339 21.9523 10.4039 25.3123C9.45394 24.3123 8.63396 23.1723 7.92396 21.9623C9.40396 19.0723 8.39388 15.7823 7.34388 12.9223C6.75388 11.3123 6.14388 9.6723 5.96388 7.9523C5.88388 7.1723 5.88392 6.37232 6.00392 5.59232ZM7.49391 21.1923C6.38391 19.0723 5.62395 16.7523 5.28395 14.4623C4.96395 12.2723 5.01394 10.0323 5.40394 7.85233C5.53394 9.18233 5.90388 10.4623 6.34388 11.7223C7.38388 14.7023 8.78391 18.0923 7.49391 21.1923ZM4.26393 22.2524C4.90393 22.6724 5.54397 23.0824 6.18397 23.5024C6.84397 23.9324 7.48389 24.4223 8.22389 24.7223C8.33389 24.7623 8.41391 24.7523 8.49391 24.7223C8.86391 25.2023 9.24392 25.6824 9.63392 26.1524C9.52392 26.0824 9.41397 26.0123 9.30397 25.9323C8.88397 25.6623 8.48399 25.3823 8.07399 25.1123C7.27399 24.5723 6.48397 24.0424 5.68397 23.5124C4.89397 22.9724 4.09396 22.4524 3.29396 21.9124C2.73396 21.5424 2.17388 21.1424 1.59388 20.7924C1.54388 20.7324 1.49398 20.6723 1.44398 20.6123C2.46398 20.9823 3.37393 21.6724 4.26393 22.2524ZM8.41395 26.5424C7.96395 26.3124 7.52388 26.0723 7.09388 25.8123C6.24388 25.3123 5.43396 24.7323 4.67396 24.1023C3.91396 23.4723 3.22387 22.7724 2.58387 22.0324C2.77387 22.1624 2.96393 22.2923 3.14393 22.4223C3.91393 22.9423 4.67397 23.4723 5.43397 23.9923C6.20397 24.5123 6.96389 25.0323 7.72389 25.5623C8.13389 25.8323 8.54399 26.1124 8.95399 26.3924C9.09399 26.4924 9.24394 26.6123 9.40394 26.7223C9.34394 26.8223 9.31387 26.9224 9.33387 27.0224C9.06387 26.8124 8.70395 26.6924 8.41395 26.5424ZM11.6039 24.9723C13.0339 21.9923 12.3039 18.1623 11.1539 15.2123C10.2739 12.9523 9.12387 10.7924 8.33387 8.50235C7.93387 7.32235 7.62392 6.11235 7.50392 4.87235C7.45392 4.37235 7.4639 3.88237 7.4839 3.39237C8.4339 6.34237 10.1539 9.00232 11.6239 11.7223C13.4339 15.0523 15.034 18.9623 13.554 22.7123C13.484 22.8823 13.384 23.0423 13.314 23.2123C12.794 23.8523 12.2139 24.4323 11.6039 24.9723ZM17.294 22.5024C15.894 23.6524 14.3939 24.6123 12.8339 25.4923C12.9039 25.4323 12.9539 25.3623 13.0139 25.3023C13.0839 25.3223 13.1639 25.3124 13.2339 25.2524C14.9639 23.7724 16.6539 22.2523 18.3539 20.7323C19.1839 19.9823 20.0339 19.2524 20.8739 18.5124C21.3239 18.1224 21.8039 17.7223 22.2639 17.3023C20.8139 19.2223 19.164 20.9724 17.294 22.5024Z" fill="#4D4C51"/>
</svg>
