<svg width="184" height="84" viewBox="0 0 184 84" fill="none" xmlns="http://www.w3.org/2000/svg">
<path d="M172.95 29.5101C170.26 31.1801 167.58 32.82 164.75 34.24C161.97 35.63 159.11 36.8501 156.18 37.8901C153.25 38.9201 150.27 39.77 147.24 40.46C144.52 41.07 141.78 41.64 139.11 42.48C139.02 42.5 138.93 42.54 138.83 42.57C144.58 38.61 149.91 34.0301 154.5 28.7901C155.3 27.8701 156.06 26.9201 156.78 25.9301C158.25 24.4601 159.45 22.6801 160.45 20.8901C161.74 18.5801 162.66 16.07 163.21 13.48C163.3 13.06 162.78 12.89 162.48 13.07C154.57 17.87 148.03 24.8801 143.65 33.0201C142.41 35.3201 141.37 37.7001 140.5 40.1601C138.47 41.6601 136.39 43.0701 134.24 44.4001C129.62 47.2701 124.75 49.74 119.73 51.83C119.95 51.66 120.17 51.4801 120.39 51.3101C121.49 50.4301 122.56 49.54 123.62 48.61C125.73 46.76 127.76 44.8201 129.66 42.7501C133.32 38.7501 136.46 34.23 138.57 29.22C139.74 26.46 140.58 23.55 140.99 20.57C141.05 20.08 140.44 19.89 140.14 20.23C133.43 28.03 127.3 36.28 121.81 44.99C120.28 47.41 118.8 49.87 117.37 52.36C117.28 52.53 117.3 52.6801 117.37 52.7901C114.08 54.0701 110.74 55.2001 107.35 56.1501C101.44 57.8201 95.42 58.99 89.33 59.71C90.3 59.41 91.2401 59.03 92.1201 58.61C94.1201 57.67 95.9799 56.44 97.7099 55.07C101.31 52.22 104.35 48.7601 107.62 45.5601C109.51 43.7101 111.5 41.98 113.68 40.49C114.06 40.22 113.76 39.6201 113.33 39.6801C104.32 40.9301 95.9999 45.9101 90.3999 53.0401C88.8099 55.0601 87.4601 57.27 86.3601 59.59C86.3401 59.64 86.34 59.69 86.33 59.73C86.2 59.76 86.0799 59.8 85.9499 59.83C85.8399 59.86 85.78 59.97 85.79 60.07C82.96 60.33 80.12 60.5001 77.28 60.5601C71.27 60.7001 65.26 60.42 59.29 59.82C61.87 59.33 64.33 58.23 66.57 56.86C69.09 55.33 71.3299 53.3501 73.1799 51.0501C77.1599 46.1201 79.23 40.02 82.83 34.84C83.77 33.49 84.8099 32.1901 85.9799 31.0401C87.0599 29.9901 88.2499 29.1201 89.4699 28.2701C89.5699 28.2501 89.67 28.23 89.78 28.21C89.95 28.18 89.9899 28.0401 89.9599 27.9101C90.1099 27.7201 89.8899 27.4001 89.6299 27.5101C89.4099 27.6001 89.1999 27.71 88.9799 27.82C86.4499 28.17 84.04 29.4101 81.99 30.8701C79.57 32.5901 77.5601 34.82 75.8601 37.22C72.1601 42.45 69.6799 48.49 65.4499 53.35C63.3299 55.78 60.8 57.78 57.79 58.97C57.37 59.04 56.94 59.0701 56.51 59.1301C56.25 59.1601 56 59.19 55.74 59.22C55.61 59.23 55.4701 59.2301 55.3401 59.2501C55.2501 59.2601 55.1801 59.2801 55.1001 59.3101C50.9701 58.7901 46.85 58.1301 42.77 57.3101C38.87 56.5201 35 55.6 31.16 54.59C30.27 54.25 29.3799 53.9301 28.4799 53.6501C27.9499 53.4801 27.42 53.35 26.89 53.2C28.28 53.25 29.6799 53.2301 31.0699 53.1701C33.8699 53.0701 36.65 52.7701 39.4 52.2701C42.12 51.7701 44.8099 51.09 47.4399 50.23C49.8099 49.45 52.1798 48.5801 54.3798 47.4101C56.6498 46.2001 58.73 44.63 60.28 42.57C60.38 42.48 60.4901 42.4001 60.5901 42.3001C60.9001 42.0001 60.62 41.53 60.26 41.61C60.1 41.54 59.92 41.5701 59.78 41.7501C59.72 41.8401 59.65 41.9301 59.58 42.0201C57.47 43.4401 55.23 44.6 52.79 45.36C50.08 46.19 47.25 46.6001 44.43 46.7701C38.15 47.1701 31.82 46.5201 25.56 47.4001C23.95 47.6301 22.35 47.9601 20.78 48.4201C19.38 48.8401 17.85 49.36 16.65 50.24C14.17 49.4 11.7099 48.47 9.21994 47.7C7.85994 47.28 6.52002 46.7901 5.18002 46.3101C5.02002 46.2501 4.91992 46.4801 5.07992 46.5501C7.79992 47.6801 10.5 48.8001 13.27 49.8001C16.04 50.7901 18.83 51.7401 21.64 52.6301C21.94 52.7201 22.25 52.8101 22.55 52.9101C22.93 54.1901 23.61 55.4001 24.3 56.5401C25.04 57.7701 25.88 58.9401 26.81 60.0401C28.64 62.2201 30.8099 64.16 33.2099 65.7C35.6999 67.29 38.41 68.49 41.27 69.24C44.62 70.11 48.08 70.4401 51.51 70.7501C53.46 70.9301 55.4101 71.1101 57.3501 71.3901C59.3301 71.6701 61.2599 72.1101 63.1899 72.6301C63.8199 72.8001 64.2401 71.8901 63.5901 71.6601C63.5501 71.6501 63.5199 71.6401 63.4799 71.6201C63.5099 71.4701 63.46 71.3 63.29 71.21C63 71.03 62.6999 70.88 62.3999 70.72C62.2999 70.63 62.2101 70.54 62.1101 70.46C61.5101 70 60.91 69.55 60.29 69.11C59.1 68.27 57.8899 67.46 56.6499 66.7C54.2199 65.22 51.7199 63.86 49.1799 62.59C44.9499 60.48 40.62 58.5301 36.26 56.6801C37.01 56.8601 37.75 57.04 38.5 57.21C46.56 59.03 54.75 60.33 62.99 60.97C66.1 62.59 69.34 63.99 72.53 65.44C75.76 66.91 78.99 68.37 82.32 69.59C88.53 71.87 95.17 73.2901 101.79 72.2901C105.23 71.7701 108.68 70.6201 111.42 68.4301C111.7 68.2101 111.42 67.6801 111.09 67.8701C110.85 68.0101 110.61 68.1401 110.37 68.2701C109.18 68.5701 107.99 68.7601 106.75 68.8001C105.21 68.8401 103.66 68.7301 102.13 68.5501C99.0699 68.2001 96.0601 67.51 93.1001 66.69C87.2001 65.04 81.4599 62.84 75.4399 61.61C75.0799 61.54 74.7201 61.4801 74.3601 61.4201C83.6901 61.4101 93.0001 60.4601 102.1 58.3801C103.38 58.2201 104.66 58.0701 105.95 58.0001C107.69 57.9101 109.44 57.96 111.17 58.09C114.69 58.35 118.16 58.9001 121.63 59.5101C127.95 60.6301 134.35 61.85 140.8 61.34C144.28 61.06 147.73 60.2401 150.86 58.6801C151.29 58.4601 151.25 57.92 150.85 57.7C140.88 52.27 129.15 53.5 118.34 54.85C116.31 55.11 114.28 55.36 112.25 55.58C118.78 53.45 125.13 50.7301 131.11 47.3801C131.18 47.4201 131.28 47.43 131.37 47.36C131.4 47.33 131.44 47.3001 131.47 47.2701C137.41 50.6001 144.62 50.91 151.09 49.09C157.65 47.25 163.5 43.3701 168.49 38.8001C171.11 36.4001 173.74 33.5901 173.7 29.8101C173.69 29.4201 173.2 29.3601 172.95 29.5101ZM159.66 20.47C158.55 22.5 157.12 24.2501 155.67 26.0101C152.56 29.4401 149.42 32.81 145.92 35.84C145.23 36.43 144.54 37.01 143.83 37.57C144.84 36.59 145.8 35.5501 146.76 34.5401C148.22 33.0101 149.65 31.45 151.04 29.86C153.81 26.67 156.46 23.36 158.93 19.94C159.8 18.73 160.65 17.5001 161.49 16.2701C161 17.7201 160.39 19.13 159.66 20.47ZM156.78 18.24C158.25 17.01 159.79 15.89 161.39 14.84C157.02 21.4 152.16 27.67 146.84 33.49C146.04 34.36 145.23 35.24 144.41 36.1C143.68 36.86 142.92 37.6001 142.22 38.3901C145.32 30.6001 150.34 23.63 156.78 18.24ZM138.73 24.3001C139.06 23.6901 139.44 23.0701 139.65 22.4101C139.67 22.3501 139.67 22.3 139.66 22.24C139.69 22.21 139.72 22.1701 139.75 22.1401C137.75 32.2101 131.2 40.6501 123.68 47.4201C122.55 48.4301 121.4 49.4201 120.23 50.3901C120.15 50.4601 120.07 50.52 119.99 50.59C122.52 47.27 125.15 44.02 127.69 40.7C130.54 36.97 133.31 33.17 135.84 29.21C136.52 28.15 137.18 27.07 137.8 25.98C138.12 25.42 138.43 24.8601 138.73 24.3001ZM135.36 27.45C136.02 26.62 136.68 25.8 137.36 24.98C137.35 25 137.34 25.0201 137.33 25.0301C136.76 26.0701 136.16 27.1 135.55 28.11C134.35 30.11 133.06 32.06 131.72 33.96C129.03 37.79 126.15 41.4901 123.37 45.2601C122.22 46.8101 121.09 48.38 119.97 49.96C124.56 42.11 129.71 34.58 135.36 27.45ZM83.1699 33.0101C81.3399 35.3701 79.9 38.0001 78.51 40.6401C77.01 43.5001 75.5699 46.43 73.7199 49.09C71.9799 51.57 69.8698 53.74 67.3798 55.48C66.9398 55.79 66.48 56.08 66.02 56.35C67.95 54.75 69.5399 52.7701 70.8999 50.6801C72.5999 48.0701 73.96 45.2601 75.49 42.5501C76.98 39.9101 78.6899 37.4301 80.7199 35.1801C81.7399 34.0501 82.8299 33.0201 83.9599 32.0401C83.6899 32.3601 83.4199 32.6901 83.1699 33.0101ZM70.1899 48.0201C73.4899 42.6001 76.2401 36.6301 81.1101 32.4001C82.3401 31.3301 83.6501 30.3801 85.1201 29.6601C85.4201 29.5101 85.72 29.3801 86.03 29.2601C84.3 30.5201 82.7 31.9801 81.24 33.5101C79.23 35.5901 77.4599 37.89 75.9599 40.36C72.8799 45.4 70.7601 51.24 66.3401 55.33C65.2201 56.37 63.9801 57.29 62.6201 57.99C61.8401 58.39 61.0099 58.7 60.1699 58.94C64.4699 56.43 67.6499 52.2101 70.1899 48.0201ZM17.4399 50.5101C17.4099 50.5001 17.39 50.5 17.37 50.49C18.47 50.1 19.5599 49.6301 20.6899 49.2801C22.1199 48.8401 23.5999 48.54 25.0799 48.32C28.1099 47.86 31.19 47.7901 34.25 47.8101C38.76 47.8501 43.33 48.05 47.81 47.48C45.85 48.07 43.86 48.6001 41.86 49.0401C36.68 50.1601 31.41 50.7201 26.12 50.8701C24.6 50.9101 23.08 50.8801 21.56 50.8101C20.3 50.7601 19.02 50.6 17.76 50.61C17.65 50.58 17.5399 50.5501 17.4399 50.5101ZM19.7099 51.24C20.1899 51.28 20.67 51.3 21.14 51.33C22.5 51.42 23.87 51.47 25.24 51.49C27.88 51.53 30.53 51.46 33.17 51.2C38.53 50.69 43.84 49.6101 48.99 48.0201C50.41 47.5801 51.8099 47.09 53.1999 46.57C54.0199 46.25 54.8799 45.95 55.7099 45.59C53.2899 47.2 50.5 48.3201 47.81 49.2501C42.74 51.0001 37.4 52.0201 32.06 52.4101C29.27 52.6101 26.4799 52.55 23.6999 52.47C22.3599 52.07 21.0399 51.66 19.7099 51.24ZM60.26 70.7701C58.04 70.3201 55.76 70.07 53.54 69.86C50.15 69.53 46.75 69.3001 43.41 68.6401C37.63 67.4901 32.3299 64.6901 28.2299 60.4301C27.1399 59.2801 26.13 58.0501 25.24 56.7501C24.45 55.6001 23.82 54.3601 23.12 53.1701C24.04 54.0401 25.08 54.77 26.14 55.47C27.27 56.23 28.44 56.9401 29.62 57.6201C32.1 59.0401 34.7099 60.2501 37.3299 61.3801C42.6999 63.7001 48.2299 65.63 53.6599 67.82C55.1899 68.44 56.7099 69.0901 58.2099 69.7701C58.8999 70.0901 59.58 70.4301 60.26 70.7701ZM40.02 59.46C45.22 61.76 50.39 64.1501 55.31 67.0301C56.08 67.4801 56.8401 67.9401 57.6001 68.4101C56.8001 68.0701 55.9999 67.7401 55.2099 67.4101C52.4999 66.2901 49.7399 65.2701 46.9799 64.2601C41.6499 62.3101 36.31 60.34 31.27 57.72C29.85 56.99 28.4399 56.2201 27.0799 55.3701C26.2299 54.8401 25.4099 54.27 24.5799 53.7C24.9099 53.77 25.24 53.8301 25.56 53.9001C26.35 54.0901 27.13 54.3001 27.91 54.5401C29.31 54.9801 30.6999 55.4901 32.0699 56.0401C34.7499 57.1101 37.38 58.3 40.02 59.46ZM93.3601 71.4201C86.4801 70.6301 80.02 67.9001 73.75 65.1301C71.36 64.0701 68.98 62.98 66.58 61.96C67.5 62.12 68.42 62.26 69.33 62.46C70.86 62.79 72.3701 63.17 73.8701 63.61C76.7601 64.46 79.62 65.4401 82.49 66.3801C88.16 68.2501 93.9499 69.99 99.9499 70.34C101.99 70.46 104.08 70.4401 106.12 70.1601C104.97 70.5701 103.8 70.9101 102.59 71.1401C99.5501 71.7201 96.4301 71.7801 93.3601 71.4201ZM74.4099 62.3001C77.5399 62.8501 80.6099 63.69 83.6599 64.6C89.5799 66.38 95.4999 68.44 101.67 69.19C103.27 69.38 104.88 69.5001 106.48 69.4301C104.59 69.6801 102.69 69.81 100.76 69.72C97.76 69.59 94.7901 69.1001 91.8701 68.4001C86.0201 67.0201 80.4199 64.8201 74.6899 63.0601C73.1299 62.5901 71.5599 62.12 69.9799 61.73C71.4599 61.84 72.9399 62.0401 74.4099 62.3001ZM106.25 42.4201C107.22 42.0501 108.21 41.74 109.21 41.46C109.12 41.5 109.03 41.55 108.94 41.59C108.06 42.04 107.21 42.54 106.39 43.08C104.65 44.21 103.07 45.5301 101.56 46.9301C98.48 49.7801 95.67 52.9201 92.5 55.6801C91.61 56.4601 90.6799 57.2001 89.7099 57.8901C89.0699 58.3501 88.3999 58.77 87.7299 59.19C91.4999 51.51 98.26 45.4701 106.25 42.4201ZM92.1001 56.8101C93.7201 55.5201 95.27 54.1201 96.76 52.6801C99.71 49.8401 102.64 46.9801 106.03 44.6401C106.97 43.9901 107.94 43.3901 108.95 42.8701C109.15 42.7701 109.35 42.68 109.54 42.59C103.95 47.51 99.45 53.72 92.81 57.36C91.78 57.93 90.7001 58.4201 89.5901 58.8101C89.4901 58.8501 89.38 58.8801 89.28 58.9101C90.27 58.2701 91.2001 57.5201 92.1001 56.8101ZM142.14 55.6C144.27 56.06 146.34 56.7501 148.33 57.6501C143.21 56.6101 137.98 55.9601 132.77 55.6301C128.95 55.3901 125.12 55.35 121.3 55.49C128.25 54.66 135.22 54.12 142.14 55.6ZM114.65 56.48C117.47 56.21 120.31 56.0501 123.14 56.0001C128.85 55.8901 134.56 56.22 140.22 56.96C143.08 57.34 145.91 57.87 148.73 58.46C143.47 60.57 137.66 60.68 132.07 60.1C125.35 59.4 118.78 57.6701 112.04 57.1601C111.29 57.1001 110.52 57.0601 109.75 57.0301C111.38 56.8301 113.01 56.63 114.65 56.48ZM135.62 44.69C139.16 43.07 143.19 42.3401 146.93 41.5401C152.96 40.2401 158.82 38.27 164.38 35.57C166.9 34.34 169.39 32.9701 171.74 31.4301C168.86 35.4101 164.94 38.5201 160.5 40.6401C155.13 43.2101 149.2 44.6101 143.3 45.2601C141.61 45.4501 139.91 45.5701 138.2 45.6301C136.81 45.6801 135.42 45.6501 134.02 45.6601C134.55 45.3401 135.09 45.03 135.62 44.69ZM168.26 37.84C165.89 40.04 163.36 42.0701 160.63 43.8001C155.16 47.2901 148.75 49.4801 142.21 49.1501C138.82 48.9801 135.49 48.16 132.48 46.59C132.82 46.4 133.15 46.18 133.49 45.98C136.38 46.34 139.38 46.23 142.26 45.99C145.41 45.73 148.52 45.23 151.59 44.48C157.19 43.11 162.66 40.89 167.25 37.34C169.26 35.79 171.04 34.0301 172.54 32.0001C171.88 34.3101 169.93 36.28 168.26 37.84Z" fill="#4D4C51"/>
<path d="M152.45 36.0999C152.32 35.7499 152.04 35.4699 151.7 35.3199C151.44 35.1999 151.1 35.17 150.82 35.24C150.48 35.33 150.19 35.49 149.96 35.76C149.72 36.03 149.63 36.39 149.66 36.74C149.69 37.1 149.91 37.42 150.17 37.66C150.62 38.06 151.33 38.09 151.8 37.73C152.02 37.63 152.22 37.48 152.34 37.28C152.45 37.11 152.54 36.9199 152.55 36.7099C152.56 36.4899 152.53 36.2999 152.45 36.0999Z" fill="#4D4C51"/>
<path d="M154.18 33.38C154.17 33.33 154.15 33.27 154.14 33.22C154.12 33.12 154.09 33.04 154.03 32.96C154 32.93 153.96 32.9 153.93 32.86C153.85 32.8 153.76 32.77 153.66 32.76C153.59 32.74 153.52 32.7501 153.45 32.7801C153.38 32.7901 153.32 32.82 153.26 32.87C153.2 32.91 153.16 32.9601 153.13 33.0301C153.08 33.0901 153.06 33.16 153.05 33.23C153.04 33.33 153.05 33.43 153.09 33.52C153.12 33.57 153.14 33.6201 153.16 33.6701C153.19 33.7101 153.21 33.7501 153.23 33.7901C153.27 33.8501 153.33 33.8901 153.39 33.9201C153.43 33.9501 153.47 33.96 153.52 33.97C153.54 33.98 153.56 33.99 153.58 34C153.63 34.02 153.68 34.0301 153.73 34.0301C153.78 34.0301 153.82 34.02 153.87 34C153.9 33.98 153.92 33.97 153.95 33.95C154 33.91 154.04 33.8601 154.07 33.8001L154.08 33.7801C154.08 33.7601 154.09 33.75 154.09 33.73C154.11 33.71 154.13 33.6901 154.14 33.6601C154.18 33.5701 154.19 33.48 154.18 33.38Z" fill="#4D4C51"/>
<path d="M155.54 35.42C155.51 35.36 155.47 35.31 155.42 35.26C155.36 35.22 155.29 35.1899 155.21 35.1899C155.21 35.1899 155.2 35.19 155.19 35.18H155.14C155.07 35.17 155 35.1799 154.94 35.2099C154.91 35.2299 154.88 35.24 154.85 35.26C154.8 35.3 154.76 35.36 154.73 35.42C154.71 35.47 154.7 35.5199 154.71 35.5699C154.7 35.6299 154.71 35.68 154.73 35.72C154.75 35.77 154.78 35.81 154.82 35.85C154.85 35.88 154.89 35.91 154.94 35.93C155.01 35.96 155.08 35.9699 155.15 35.9599C155.16 35.9599 155.18 35.9499 155.2 35.9499C155.21 35.9499 155.21 35.9499 155.22 35.9499C155.29 35.9499 155.36 35.92 155.42 35.87C155.47 35.83 155.51 35.78 155.54 35.72C155.56 35.67 155.57 35.62 155.56 35.56C155.57 35.51 155.56 35.46 155.54 35.42Z" fill="#4D4C51"/>
<path d="M109.82 52.5301C109.69 52.2601 109.51 52.07 109.25 51.94C109.09 51.85 108.91 51.83 108.73 51.83C108.43 51.7 108.09 51.66 107.78 51.74C107.55 51.8 107.35 51.8801 107.17 52.0301C106.99 52.1801 106.86 52.36 106.76 52.57C106.6 52.96 106.62 53.4001 106.76 53.7901C106.91 54.1801 107.23 54.5101 107.61 54.6701C108.02 54.8401 108.48 54.8201 108.89 54.6701C109.3 54.5201 109.63 54.1901 109.81 53.8001C110 53.4201 110.02 52.9101 109.82 52.5301Z" fill="#4D4C51"/>
<path d="M110.71 49.85C110.7 49.84 110.69 49.8201 110.68 49.8101C110.66 49.7901 110.65 49.78 110.64 49.77C110.67 49.81 110.69 49.86 110.72 49.9C110.68 49.83 110.64 49.7499 110.59 49.6899C110.55 49.6499 110.51 49.6099 110.46 49.5699C110.41 49.5399 110.36 49.51 110.31 49.48C110.25 49.46 110.19 49.4501 110.13 49.4301C110.07 49.4301 110.01 49.4301 109.95 49.4301L109.77 49.48C109.72 49.51 109.67 49.5399 109.62 49.5699C109.58 49.6099 109.54 49.65 109.5 49.7C109.44 49.77 109.4 49.8499 109.39 49.9399C109.36 49.9999 109.36 50.06 109.36 50.12C109.36 50.18 109.37 50.24 109.39 50.3C109.4 50.36 109.42 50.41 109.46 50.46C109.48 50.52 109.52 50.56 109.57 50.6C109.6 50.65 109.65 50.68 109.71 50.71C109.76 50.74 109.81 50.77 109.87 50.77C109.93 50.8 109.99 50.81 110.06 50.8C110.15 50.8 110.23 50.79 110.32 50.75C110.33 50.74 110.35 50.74 110.36 50.73C110.38 50.72 110.39 50.71 110.41 50.71C110.38 50.71 110.36 50.72 110.34 50.73C110.39 50.71 110.45 50.7 110.5 50.67C110.59 50.64 110.66 50.58 110.71 50.51C110.76 50.45 110.79 50.3899 110.8 50.3199C110.83 50.2499 110.83 50.18 110.82 50.11C110.8 50.01 110.77 49.93 110.71 49.85Z" fill="#4D4C51"/>
<path d="M113.1 51.3101C113.08 51.2301 113.05 51.15 113 51.09C112.97 51.06 112.94 51.03 112.92 51C112.85 50.95 112.77 50.92 112.69 50.91C112.62 50.9 112.56 50.9101 112.51 50.9301C112.45 50.9401 112.39 50.97 112.34 51.01C112.29 51.04 112.26 51.09 112.23 51.15C112.19 51.2 112.17 51.26 112.17 51.32C112.17 51.36 112.17 51.4 112.17 51.45C112.18 51.53 112.21 51.6001 112.26 51.6701C112.29 51.6901 112.32 51.72 112.35 51.75C112.41 51.8 112.49 51.83 112.57 51.84C112.64 51.85 112.7 51.85 112.76 51.82C112.82 51.81 112.87 51.79 112.92 51.75C112.97 51.71 113.01 51.66 113.03 51.61C113.07 51.56 113.09 51.5001 113.1 51.4301C113.1 51.3901 113.1 51.3501 113.1 51.3101Z" fill="#4D4C51"/>
<path d="M100.82 62.5699C100.66 61.8799 100.14 61.3399 99.45 61.1899C99.16 61.1299 98.8201 61.1799 98.5601 61.3199C98.4601 61.3699 98.3901 61.44 98.3101 61.51C98.2201 61.57 98.1401 61.6199 98.0601 61.6999C97.9701 61.7599 97.88 61.84 97.8 61.92C97.56 62.18 97.4399 62.53 97.4299 62.89C97.4299 62.93 97.4299 62.9699 97.4299 62.9999C97.4299 63.1299 97.45 63.2499 97.48 63.3699C97.49 63.3899 97.5 63.41 97.5 63.43C97.53 63.51 97.5401 63.6 97.5801 63.67C97.6001 63.7 97.6199 63.7199 97.6399 63.7499C97.7799 63.9899 97.9599 64.1999 98.1799 64.3399C98.5099 64.5499 98.86 64.6499 99.26 64.6199C99.57 64.5999 99.8701 64.47 100.12 64.29C100.64 63.91 100.96 63.2099 100.82 62.5699Z" fill="#4D4C51"/>
<path d="M102.78 64.5401V64.5301C102.78 64.5001 102.77 64.47 102.76 64.44C102.75 64.38 102.72 64.3301 102.68 64.2801C102.66 64.2201 102.62 64.1701 102.57 64.1301C102.53 64.0801 102.48 64.0501 102.43 64.0201C102.38 63.9801 102.32 63.96 102.25 63.95C102.16 63.92 102.07 63.9101 101.97 63.9301C101.91 63.9501 101.85 63.96 101.79 63.98C101.74 64.01 101.69 64.04 101.63 64.07C101.59 64.12 101.55 64.16 101.51 64.2C101.47 64.26 101.44 64.3101 101.41 64.3701C101.4 64.4301 101.38 64.4901 101.36 64.5501C101.37 64.6101 101.37 64.68 101.37 64.74C101.38 64.8 101.4 64.8601 101.42 64.9201C101.45 64.9701 101.48 65.03 101.51 65.08C101.55 65.12 101.6 65.16 101.64 65.21C101.69 65.24 101.75 65.2701 101.8 65.3001C101.89 65.3401 101.99 65.36 102.08 65.35C102.15 65.35 102.21 65.34 102.27 65.32C102.33 65.31 102.39 65.2901 102.44 65.2501C102.49 65.2201 102.54 65.1901 102.58 65.1401C102.63 65.1001 102.66 65.05 102.69 64.99C102.74 64.91 102.77 64.82 102.78 64.72C102.79 64.66 102.79 64.6001 102.78 64.5401Z" fill="#4D4C51"/>
<path d="M104.3 62.79C104.3 62.75 104.28 62.72 104.26 62.7C104.25 62.66 104.23 62.64 104.2 62.62C104.17 62.59 104.14 62.5701 104.11 62.5601C104.1 62.5401 104.09 62.53 104.07 62.52C104.03 62.49 104 62.47 103.96 62.45C103.9 62.43 103.84 62.42 103.77 62.42C103.73 62.42 103.69 62.4199 103.65 62.4399C103.59 62.4499 103.53 62.48 103.48 62.52C103.46 62.53 103.45 62.5401 103.43 62.5601C103.37 62.6001 103.32 62.66 103.29 62.73C103.27 62.79 103.26 62.84 103.26 62.9C103.26 62.96 103.27 63.0101 103.3 63.0601C103.33 63.1301 103.37 63.19 103.43 63.24C103.45 63.25 103.47 63.26 103.49 63.28C103.52 63.3 103.56 63.32 103.6 63.34C103.66 63.36 103.72 63.38 103.78 63.37C103.83 63.37 103.87 63.37 103.91 63.35C103.97 63.34 104.02 63.31 104.07 63.27C104.08 63.27 104.09 63.26 104.1 63.25C104.12 63.23 104.14 63.22 104.16 63.21C104.19 63.18 104.21 63.16 104.24 63.14C104.25 63.11 104.27 63.08 104.29 63.05C104.31 63 104.32 62.94 104.31 62.89C104.32 62.86 104.31 62.82 104.3 62.79Z" fill="#4D4C51"/>
<path d="M75.13 55.4699C74.89 54.9799 74.4202 54.6399 73.8702 54.5999C73.3802 54.5599 72.8802 54.77 72.6002 55.17C72.3702 55.4 72.19 55.69 72.14 56.03C72.06 56.56 72.32 57.07 72.71 57.41C73.06 57.7 73.5901 57.87 74.0501 57.76C74.2901 57.7 74.53 57.6 74.72 57.43C74.91 57.25 75.06 57.05 75.15 56.81C75.32 56.39 75.33 55.8799 75.13 55.4699Z" fill="#4D4C51"/>
<path d="M77.52 55.5601C77.5 55.4501 77.4599 55.3401 77.3899 55.2501C77.3499 55.2101 77.31 55.1701 77.27 55.1301C77.17 55.0601 77.0599 55.0201 76.9399 55.0001C76.8499 54.9901 76.7699 54.9901 76.6799 55.0301C76.5999 55.0401 76.52 55.0801 76.45 55.1401C76.38 55.1901 76.33 55.25 76.29 55.33C76.24 55.41 76.21 55.49 76.2 55.58C76.2 55.64 76.2 55.7001 76.2 55.7601C76.22 55.8801 76.2701 55.98 76.3401 56.07C76.3801 56.11 76.42 56.15 76.46 56.19C76.55 56.27 76.66 56.31 76.78 56.33C76.87 56.34 76.96 56.3301 77.04 56.3001C77.13 56.2801 77.21 56.25 77.27 56.19C77.35 56.14 77.3999 56.07 77.4399 55.99C77.4899 55.92 77.52 55.84 77.52 55.74C77.52 55.68 77.52 55.6201 77.52 55.5601Z" fill="#4D4C51"/>
<path d="M77.39 52.27C77.38 52.23 77.3702 52.2 77.3602 52.16C77.3402 52.13 77.3201 52.1 77.3001 52.07C77.2801 52.05 77.2601 52.03 77.2301 52L77.15 51.95C77.1 51.93 77.0401 51.9201 76.9901 51.9301C76.9601 51.9201 76.92 51.93 76.89 51.94C76.86 51.95 76.8301 51.96 76.8001 51.98C76.7701 51.99 76.7401 52.0101 76.7201 52.0401C76.6801 52.0701 76.65 52.11 76.63 52.16C76.62 52.2 76.6102 52.24 76.6002 52.28C76.5702 52.35 76.5602 52.43 76.5702 52.5C76.5802 52.58 76.61 52.65 76.65 52.71C76.7 52.77 76.7602 52.81 76.8302 52.84C76.8902 52.87 76.9401 52.88 77.0001 52.87C77.0601 52.87 77.11 52.86 77.17 52.84C77.24 52.81 77.2902 52.76 77.3402 52.7C77.4302 52.58 77.46 52.41 77.39 52.27Z" fill="#4D4C51"/>
<path d="M50.2901 53.6301C50.2601 53.5801 50.2099 53.54 50.1699 53.5C49.8799 53.1 49.4099 52.83 48.8999 52.82C48.1199 52.81 47.33 53.24 47.03 53.99C46.72 54.76 47.04 55.6701 47.7 56.1601C48.38 56.6701 49.36 56.6301 49.98 56.0401C50.31 55.7301 50.5401 55.3401 50.6201 54.8901C50.6901 54.4501 50.5601 53.9801 50.2901 53.6301Z" fill="#4D4C51"/>
<path d="M45.76 54.71C45.76 54.7 45.7499 54.6999 45.7399 54.6899C45.7399 54.6599 45.7299 54.63 45.7199 54.6C45.6899 54.51 45.64 54.45 45.57 54.39C45.54 54.35 45.4899 54.31 45.4399 54.29C45.4299 54.28 45.4199 54.28 45.4099 54.28L45.32 54.23C45.28 54.21 45.2499 54.22 45.2099 54.21C45.2099 54.21 45.1999 54.2 45.1899 54.2H45.1799C45.1599 54.2 45.13 54.1899 45.11 54.1899C45.06 54.1899 45.0099 54.19 44.9699 54.21C44.9499 54.21 44.93 54.23 44.92 54.23C44.9 54.24 44.8799 54.25 44.8599 54.25C44.7699 54.28 44.71 54.33 44.65 54.4C44.61 54.43 44.57 54.48 44.55 54.53C44.52 54.58 44.5099 54.6301 44.4999 54.6801C44.4899 54.6901 44.4699 54.7 44.4599 54.72C44.4499 54.79 44.43 54.85 44.41 54.91C44.4 55.04 44.4199 55.16 44.4699 55.27C44.4999 55.33 44.53 55.3801 44.56 55.4301C44.63 55.5301 44.7299 55.6 44.8499 55.65C44.9399 55.69 45.0301 55.7 45.1201 55.7C45.2201 55.7 45.3098 55.69 45.3898 55.64C45.4798 55.61 45.55 55.56 45.61 55.49C45.68 55.43 45.74 55.35 45.77 55.26C45.81 55.17 45.82 55.08 45.82 54.99C45.82 54.89 45.81 54.8 45.76 54.71Z" fill="#4D4C51"/>
<path d="M49.86 51.3199C49.84 51.2699 49.7899 51.2299 49.7599 51.1899C49.7399 51.1699 49.7399 51.14 49.7299 51.12C49.6999 51.07 49.65 51.04 49.61 51.02C49.56 50.99 49.5098 50.97 49.4498 50.96C49.4098 50.96 49.38 50.97 49.34 50.98C49.3 50.98 49.2599 50.96 49.2199 50.96C49.1199 50.98 49.0198 51.02 48.9398 51.09C48.8598 51.15 48.7999 51.23 48.7599 51.33C48.7099 51.43 48.6999 51.54 48.7199 51.65C48.7299 51.75 48.77 51.8501 48.84 51.9301C48.9 52.0101 48.98 52.07 49.08 52.11C49.18 52.15 49.2898 52.17 49.3898 52.15C49.4998 52.14 49.5898 52.1 49.6698 52.03H49.6798C49.7598 51.96 49.82 51.88 49.86 51.79C49.9 51.71 49.9098 51.63 49.8998 51.55C49.9098 51.47 49.89 51.3899 49.86 51.3199Z" fill="#4D4C51"/>
<path d="M53.2 53.09C53.19 53.02 53.1602 52.95 53.1102 52.88C53.0602 52.82 53 52.77 52.92 52.74C52.82 52.71 52.8301 52.71 52.7401 52.71C52.7001 52.71 52.67 52.71 52.63 52.73C52.61 52.73 52.5902 52.74 52.5702 52.75C52.5002 52.78 52.44 52.82 52.39 52.89C52.34 52.95 52.3101 53.02 52.3001 53.11C52.3001 53.14 52.2901 53.1599 52.2901 53.1899C52.2801 53.2799 52.2902 53.3601 52.3202 53.4301C52.3402 53.4701 52.36 53.5 52.38 53.54C52.44 53.6 52.5002 53.6501 52.5702 53.6801C52.6302 53.7101 52.6901 53.72 52.7601 53.71C52.8201 53.72 52.88 53.7001 52.93 53.6801C52.99 53.6501 53.0402 53.6199 53.0802 53.5699C53.1202 53.5299 53.16 53.4901 53.18 53.4301C53.21 53.3501 53.22 53.2701 53.21 53.1801C53.21 53.1501 53.2 53.12 53.2 53.09Z" fill="#4D4C51"/>
</svg>
