<svg width="74" height="106" viewBox="0 0 74 106" fill="none" xmlns="http://www.w3.org/2000/svg">
<path d="M65.94 52.54C65.4 50.07 64.5901 47.6501 63.5401 45.3501C61.2401 40.3201 57.8001 35.83 53.4901 32.34C53.7801 31.68 53.95 30.9799 53.9 30.2399C53.78 28.2799 52.1002 27.1099 50.5702 26.1899C50.0902 25.8999 49.6002 25.6398 49.1102 25.3798C49.0402 25.2398 48.8901 25.1499 48.7301 25.1999C47.4601 24.5699 46.1401 24.0398 44.7901 23.6298C42.8301 23.0198 40.8001 22.73 38.9601 21.79C37.2601 20.92 35.96 19.1799 33.89 19.2299C33.11 19.2499 32.22 19.5798 31.63 20.1398C31.39 19.0898 30.5801 18.1699 29.5501 17.7099C27.7101 16.8799 25.38 16.9201 23.41 17.1201C22.32 17.2301 21.24 17.4299 20.19 17.7099C19.26 17.9699 18.17 18.24 17.39 18.82C15.74 20.07 16.9901 22.4199 17.4701 23.9399C20.2301 32.6999 21.7901 41.81 22.0301 51C22.1701 55.98 21.85 60.9298 21.39 65.8898C18.72 70.4798 17.0601 75.6801 16.0401 80.8701C15.0201 86.1201 14.7401 91.5999 15.2501 96.9099C15.5301 99.8299 15.9402 102.97 17.1102 105.69C17.2502 106.02 17.8201 105.98 17.7801 105.57C17.5601 102.96 17.0001 100.38 16.7501 97.77C16.5001 95.18 16.38 92.5799 16.45 89.9799C16.6 84.7399 17.4901 79.52 19.0001 74.5C19.7701 71.96 20.7301 69.47 21.7501 67.02C26.3201 64.22 31.4601 62.9299 36.8001 62.7199C42.6601 62.4899 48.4501 63.43 54.2601 64C55.7001 64.14 57.1302 64.26 58.5702 64.34C59.9402 64.42 61.3801 64.55 62.7501 64.34C63.9301 64.16 65 63.6399 65.7 62.6499C66.33 61.7699 66.58 60.6998 66.67 59.6398C66.87 57.2898 66.44 54.83 65.94 52.54ZM65.2 55.2399C64.37 55.0399 63.3902 55.08 62.5702 55.09C61.5802 55.09 60.5902 55.14 59.6102 55.25C57.6602 55.47 55.78 55.9 53.94 56.59C53.65 56.7 53.7902 57.1 54.0902 57.04C55.9502 56.63 57.8501 56.3299 59.7501 56.1899C60.6701 56.1199 61.5901 56.0901 62.5101 56.1001C62.9701 56.1101 63.43 56.1198 63.89 56.1398C64.35 56.1698 64.8502 56.2499 65.3202 56.2099C65.3902 56.9099 65.4501 57.62 65.4701 58.33C65.4801 58.6 65.4801 58.8799 65.4701 59.1499C64.6701 58.8299 63.8301 58.6099 62.9701 58.4899C61.9401 58.3499 60.7401 58.3099 59.7601 58.7099C59.5301 58.7999 59.5902 59.1198 59.8302 59.1298C60.8602 59.1898 61.89 59.0899 62.92 59.1799C63.77 59.2599 64.62 59.4599 65.44 59.7199C65.38 60.2699 65.2702 60.82 65.0602 61.32C64.5602 62.5 63.5301 63.0599 62.2801 63.1899C60.9301 63.3199 59.53 63.2098 58.17 63.1298C56.72 63.0498 55.2802 62.92 53.8402 62.78C49.0102 62.3 44.1601 61.6001 39.3001 61.6001C41.0701 61.3201 42.84 61.0699 44.63 60.9099C46.19 60.7699 47.7602 60.6798 49.3202 60.6398C50.1002 60.6098 50.89 60.6101 51.67 60.6101C52.4 60.6001 53.23 60.6699 53.94 60.4599C54.06 60.4199 54.1001 60.1999 53.9601 60.1499C53.3201 59.8999 52.5502 59.9098 51.8702 59.8898C51.0502 59.8598 50.23 59.8799 49.41 59.8999C47.76 59.9299 46.1201 60.0399 44.4801 60.1999C41.6001 60.4999 38.71 60.9699 35.9 61.7299C35.23 61.7799 34.56 61.8399 33.89 61.9299C36.05 61.2199 38.23 60.57 40.44 60.03C42.46 59.53 44.4901 59.11 46.5401 58.76C47.5401 58.6 48.5501 58.46 49.5501 58.31C50.4301 58.19 51.5302 58.2 52.3202 57.8C52.4902 57.72 52.4101 57.4699 52.2601 57.4299C51.3801 57.1899 50.1801 57.47 49.2901 57.59C48.2401 57.72 47.2 57.89 46.16 58.07C44.2 58.41 42.2602 58.81 40.3302 59.29C37.5502 59.98 34.81 60.82 32.13 61.82C34.04 60.82 35.9801 59.88 37.9701 59.07C39.5801 58.4 41.22 57.83 42.88 57.29C44.57 56.75 46.3201 56.3699 47.9701 55.7199C48.1701 55.6399 48.13 55.32 47.9 55.34C46.15 55.48 44.4401 56.04 42.7701 56.57C41.0401 57.12 39.34 57.7699 37.66 58.4699C34.7 59.6999 31.8202 61.1501 29.1102 62.8701C28.7102 62.9901 28.3 63.0899 27.9 63.2199C30.38 61.5899 32.9001 60.0201 35.5201 58.6101C37.4901 57.5501 39.4801 56.5401 41.5101 55.6201C42.5301 55.1501 43.5502 54.7 44.5802 54.26C45.5402 53.85 46.6801 53.5001 47.5201 52.8701C47.7901 52.6701 47.6901 52.1599 47.3001 52.1999C46.2601 52.2999 45.2001 52.8099 44.2401 53.2199C43.2101 53.6499 42.19 54.11 41.18 54.59C39.15 55.55 37.15 56.5799 35.19 57.6899C31.73 59.6599 28.35 61.84 25.2 64.3C24.93 64.42 24.66 64.5399 24.4 64.6799C24.41 64.6699 24.42 64.6599 24.43 64.6499C25.09 63.9899 25.75 63.3399 26.42 62.6899C27.8 61.3799 29.22 60.0998 30.68 58.8798C33.56 56.4698 36.6001 54.2399 39.7701 52.2199C40.6401 51.6599 41.53 51.12 42.42 50.58C43.26 50.08 44.3001 49.6399 44.9901 48.9499C45.1501 48.7999 44.9701 48.5898 44.7901 48.6298C43.9601 48.8098 43.15 49.38 42.42 49.8C41.58 50.28 40.75 50.78 39.94 51.29C38.33 52.3 36.7601 53.3699 35.2201 54.4799C32.1801 56.6799 29.2901 59.0799 26.5501 61.6499C25.8001 62.3599 25.0402 63.07 24.3202 63.82C23.7802 64.38 23.1 64.9899 22.69 65.6899C22.53 65.7899 22.3701 65.8799 22.2201 65.9899C22.3701 65.7599 22.52 65.53 22.67 65.3C23.23 64.82 23.7101 64.1799 24.2101 63.6499C24.8801 62.9399 25.5601 62.25 26.2501 61.57C27.5801 60.25 28.9502 58.98 30.3702 57.75C31.8202 56.5 33.3002 55.2898 34.8202 54.1398C35.5702 53.5698 36.3302 53.0199 37.0802 52.4599C37.8202 51.8999 38.7002 51.3799 39.3102 50.6699C39.4102 50.5599 39.3 50.3799 39.15 50.4299C38.27 50.7099 37.46 51.3401 36.69 51.8501C35.9 52.3701 35.16 52.93 34.42 53.5C32.91 54.66 31.4401 55.8698 30.0201 57.1398C28.5801 58.4398 27.1702 59.7799 25.8302 61.1799C25.3402 61.6999 24.86 62.23 24.38 62.76C24.8 62.12 25.23 61.4901 25.68 60.8701C26.39 59.8701 27.13 58.8899 27.89 57.9299C28.6 57.0099 29.6001 56.0799 30.0001 54.9699C30.0901 54.7299 29.7802 54.5899 29.6002 54.6899C29.0602 54.9899 28.6801 55.4799 28.3001 55.9499C27.8901 56.4499 27.4902 56.9499 27.1002 57.4699C26.5402 58.1999 26.0001 58.9599 25.4701 59.7099C26.0201 58.5599 26.5401 57.3999 27.0401 56.2299C28.6001 52.5999 29.9 48.86 30.95 45.04C31.53 42.92 32.1901 40.6699 32.2501 38.4499C32.2501 38.3099 32.0501 38.3199 32.0101 38.4299C31.3301 40.2799 30.9801 42.2699 30.4801 44.1799C29.9901 46.0599 29.4302 47.92 28.8102 49.76C27.5402 53.56 25.99 57.26 24.2 60.84C23.84 61.54 23.4702 62.2399 23.1002 62.9399C25.6202 56.2699 27.11 49.16 27.68 42.08C27.77 40.9 27.8302 39.71 27.8702 38.52C27.9002 37.31 27.9601 36.0601 27.7401 34.8501C27.6901 34.5901 27.2701 34.48 27.2201 34.81C26.9101 36.81 27.03 38.9099 26.9 40.9299C26.76 43.0099 26.5601 45.0899 26.2701 47.1599C25.6901 51.2599 24.83 55.32 23.65 59.3C23.29 60.5 22.8901 61.6901 22.4801 62.8701C23.9801 53.5601 24.4001 44.1499 23.9701 34.7399C23.9101 33.3399 23.81 31.95 23.69 30.56C23.58 29.24 23.4601 27.85 23.0401 26.57C22.9401 26.27 22.5501 26.3899 22.5201 26.6699C22.4201 27.8599 22.54 29.08 22.65 30.26C22.77 31.46 22.86 32.6501 22.95 33.8501C23.13 36.2801 23.2702 38.7199 23.3102 41.1599C23.3902 45.9499 23.26 50.77 22.92 55.54C22.87 56.26 22.8001 56.9799 22.7301 57.6999C22.9801 52.3999 22.75 47.0701 22.14 41.8501C21.66 37.7301 20.9501 33.6401 19.9901 29.6001C19.5001 27.5701 18.9402 25.55 18.3202 23.55C18.0402 22.66 17.6101 21.72 17.5201 20.78C17.4101 19.6 18.48 19.2799 19.41 18.9799C20.07 18.7699 20.75 18.6099 21.43 18.4699C21.4 18.6499 21.4501 18.83 21.4801 19.01C21.5301 19.27 21.5702 19.54 21.6202 19.81C21.7202 20.29 21.81 20.78 21.9 21.27C22.08 22.29 22.2601 23.3 22.4801 24.31C22.5301 24.56 22.93 24.4799 22.91 24.2299C22.83 23.1999 22.7102 22.1798 22.6002 21.1398C22.5502 20.6498 22.5 20.1499 22.45 19.6599C22.42 19.3899 22.3902 19.1201 22.3502 18.8601C22.3302 18.6701 22.3201 18.49 22.2501 18.34C23.5701 18.14 24.9201 18.0699 26.2601 18.1499C26.2701 18.1499 26.2801 18.1599 26.2901 18.1599C26.3101 18.4199 26.3402 18.6899 26.3602 18.9499C26.4102 19.4999 26.4501 20.0501 26.4801 20.6001C26.5401 21.6601 26.59 22.72 26.63 23.79C26.7 25.95 26.7 28.12 26.65 30.28C26.64 30.56 27.12 30.61 27.15 30.32C27.36 28.17 27.4901 26.0301 27.5101 23.8701C27.5201 22.7601 27.5101 21.66 27.4601 20.56C27.4401 20.01 27.41 19.4599 27.38 18.9099C27.37 18.6899 27.3602 18.48 27.3502 18.26C28.0602 18.36 28.7602 18.5298 29.3702 18.8798C30.2002 19.3698 30.89 20.4098 30.45 21.3798C30.28 21.7398 30.5001 22.0599 30.7901 22.1699C30.7801 22.3999 30.7601 22.62 30.7401 22.84C30.6601 23.8 30.5801 24.7599 30.5001 25.7199C30.3501 27.5599 30.0502 29.5 30.3102 31.34C30.3402 31.53 30.59 31.5601 30.65 31.3701C31.18 29.6201 31.1801 27.6998 31.3001 25.8898C31.3601 24.9698 31.4201 24.0498 31.4801 23.1298C31.5001 22.8098 31.5301 22.4899 31.5501 22.1699C31.6601 22.1099 31.7601 22.0199 31.7701 21.9099C31.9501 20.7799 32.9901 20.22 34.0401 20.27C33.9801 20.66 33.9302 21.0499 33.8702 21.4299C33.7802 21.9599 33.6702 22.48 33.5602 23.01C33.3402 24.09 33.0902 25.17 32.8302 26.25C32.7802 26.46 33.12 26.5998 33.2 26.3898C33.41 25.8698 33.6301 25.36 33.8001 24.83C33.9801 24.28 34.1301 23.7199 34.2701 23.1699C34.4201 22.6099 34.55 22.0499 34.67 21.4899C34.74 21.1499 34.83 20.7999 34.89 20.4499C35.33 20.6099 35.7302 20.82 36.1202 21.07C36.0702 21.37 36.0802 21.6899 36.0702 21.9899C36.0302 22.5599 35.98 23.1399 35.92 23.7099C35.8 24.7299 35.66 25.75 35.45 26.76C35 28.84 34.3302 30.8601 33.6202 32.8501C33.5302 33.0901 33.9101 33.22 34.0201 33C35.0001 31.08 35.68 29.0299 36.18 26.9299C36.43 25.8699 36.6702 24.7899 36.8202 23.7099C36.9002 23.1599 36.9701 22.62 37.0201 22.08C37.0301 21.97 37.0402 21.87 37.0602 21.77C37.6202 22.21 38.1901 22.66 38.8001 23C38.7601 23.12 38.73 23.2401 38.69 23.3601C38.62 23.5901 38.5601 23.83 38.4901 24.06C38.4201 24.3 38.3502 24.53 38.3102 24.77C38.2902 24.89 38.2601 25.0098 38.2301 25.1298C38.2201 25.2098 38.19 25.2901 38.19 25.3601C38.19 25.4301 38.2101 25.5 38.2301 25.56C38.2501 25.73 38.4602 25.8499 38.6002 25.6999C38.6402 25.6499 38.6801 25.6 38.7201 25.56C38.7701 25.48 38.7902 25.4 38.8202 25.32C38.8602 25.2 38.9 25.0899 38.94 24.9699C39.03 24.7299 39.1 24.49 39.16 24.25C39.25 23.93 39.34 23.62 39.41 23.3C40.68 23.87 42.05 24.18 43.39 24.54C43.18 25.06 42.9901 25.5901 42.7801 26.1001C42.4801 26.8101 42.1602 27.4999 41.8202 28.1899C41.1502 29.5299 40.41 30.8498 39.64 32.1398C39.49 32.3898 39.8902 32.6799 40.0702 32.4399C40.9902 31.2099 41.7901 29.91 42.5001 28.55C42.8601 27.87 43.1901 27.1899 43.5101 26.4899C43.7601 25.9399 44.0401 25.36 44.2501 24.78C44.7701 24.94 45.2901 25.11 45.8001 25.31C45.6801 25.53 45.5901 25.7699 45.4901 25.9899C45.2801 26.4299 45.0802 26.86 44.8702 27.29C44.4802 28.09 44.09 28.8799 43.68 29.6699C42.84 31.3099 41.9601 32.94 41.0401 34.54C39.2001 37.73 37.24 40.8599 35.2 43.9299C35.08 44.1099 35.3801 44.3098 35.5101 44.1398C37.8101 41.2198 39.9002 38.1399 41.8102 34.9399C42.7602 33.3599 43.6601 31.7501 44.5301 30.1201C44.9801 29.2701 45.4202 28.42 45.8502 27.56C46.1302 27 46.5701 26.3399 46.7801 25.6899C47.1701 25.8599 47.55 26.0299 47.93 26.2099C47.76 26.5899 47.59 26.96 47.41 27.34C47.04 28.13 46.6401 28.9099 46.2301 29.6799C45.4301 31.1999 44.6902 32.76 43.8202 34.25C43.6902 34.47 44.03 34.72 44.19 34.51C45.22 33.12 46.2602 31.7399 47.1002 30.2199C47.5102 29.4699 47.9001 28.7199 48.2801 27.9599C48.4701 27.5699 48.6602 27.17 48.8402 26.77C48.8502 26.75 48.8602 26.7199 48.8702 26.6999C48.9602 26.7399 49.05 26.79 49.14 26.84C49.56 27.07 50.0401 27.3301 50.5101 27.6201C50.4201 27.8501 50.3501 28.09 50.2501 28.29C50.0601 28.7 49.87 29.11 49.66 29.51C49.24 30.3 48.7801 31.08 48.2801 31.83C47.2701 33.34 46.1102 34.75 44.8302 36.04C44.6302 36.25 44.95 36.53 45.16 36.34C46.54 35.1 47.7502 33.7099 48.8102 32.1799C49.3302 31.4199 49.8101 30.63 50.2501 29.82C50.4801 29.41 50.69 28.98 50.89 28.56C50.96 28.4 51.06 28.23 51.14 28.06C51.39 28.24 51.6102 28.4399 51.8202 28.6599C51.6702 28.9299 51.5901 29.23 51.4801 29.53C51.3701 29.84 51.2402 30.1499 51.1102 30.4499C50.8402 31.0899 50.52 31.72 50.19 32.33C49.51 33.56 48.7002 34.72 47.8302 35.81C47.6402 36.03 47.95 36.3101 48.16 36.1101C49.21 35.1101 50.12 33.99 50.91 32.77C51.3 32.17 51.6601 31.5499 51.9801 30.9099C52.1401 30.5899 52.3 30.2699 52.44 29.9399C52.47 29.8899 52.4901 29.83 52.5201 29.78C52.5901 30 52.63 30.2299 52.63 30.4799C52.63 32.2399 51.1302 33.8398 50.1202 35.1398C47.7902 38.1098 45.2401 40.92 42.5401 43.55C39.4801 46.52 36.1902 49.2398 32.8502 51.8898C32.4602 52.1998 32.8401 52.84 33.2801 52.56C40.3201 48.06 46.3601 41.9398 51.4901 35.3898C51.9501 34.7998 52.45 34.1599 52.88 33.4899C53.75 34.2199 54.59 35 55.39 35.82C55.23 35.84 55.08 35.91 54.9 36.01C54.63 36.16 54.3702 36.3099 54.1102 36.4699C53.5602 36.8099 53.0301 37.17 52.5101 37.56C51.4901 38.31 50.5701 39.1601 49.7101 40.1001C49.4701 40.3501 49.8502 40.6799 50.1002 40.4599C51.0102 39.6499 51.9901 38.8999 53.0001 38.2099C53.5001 37.8699 54.0101 37.5399 54.5301 37.2299C54.8001 37.0799 55.0602 36.93 55.3302 36.79C55.5802 36.65 55.74 36.54 55.88 36.32C56.35 36.82 56.8101 37.3301 57.2601 37.8601C53.4401 39.9901 49.7002 42.26 46.3502 45.07C46.1302 45.25 46.3502 45.6299 46.6002 45.4599C50.2202 42.9399 53.91 40.4998 57.91 38.6298C58.41 39.2498 58.8902 39.89 59.3402 40.55C59.2102 40.62 59.08 40.69 58.94 40.76C58.51 40.98 58.08 41.1999 57.64 41.4299C56.75 41.8999 55.8601 42.3801 54.9801 42.8701C53.2501 43.8401 51.5702 44.8999 49.8702 45.9299C49.5802 46.0999 49.86 46.5401 50.16 46.3701C51.86 45.4101 53.6202 44.5399 55.3702 43.6599C56.2402 43.2199 57.1201 42.7901 58.0001 42.3601C58.4601 42.1401 58.92 41.9199 59.39 41.6999C59.58 41.6099 59.7701 41.5399 59.9601 41.4499C61.1601 43.2899 62.1901 45.24 63.0201 47.27C62.9601 47.28 62.9002 47.29 62.8402 47.29C62.2402 47.37 61.6401 47.46 61.0301 47.56C59.9001 47.76 58.78 48 57.68 48.32C55.42 48.99 53.24 49.8799 51.17 50.9899C50.89 51.1399 51.11 51.6199 51.4 51.4899C53.47 50.5399 55.6302 49.7799 57.8502 49.2399C58.9902 48.9699 60.1402 48.73 61.3102 48.57C61.8302 48.49 62.36 48.4298 62.89 48.3798C63.07 48.3598 63.25 48.35 63.42 48.33C63.86 49.5 64.2301 50.6898 64.5401 51.8898C62.9701 51.8998 61.4102 52.04 59.8602 52.29C58.2102 52.56 56.6802 53.01 55.1202 53.58C54.9002 53.67 55.0101 53.9999 55.2401 53.9399C58.3401 53.1599 61.5901 52.8499 64.7801 52.9799C64.9501 53.7299 65.09 54.4799 65.2 55.2399Z" fill="#4D4C51"/>
<path d="M43.1299 47.6499C42.9099 47.7099 42.7 47.83 42.5 47.96C42.3 48.09 42.0899 48.2399 41.8999 48.3899C41.5199 48.6899 41.14 48.9901 40.76 49.2901C40.6 49.4201 40.7499 49.6801 40.9399 49.5701C41.3499 49.3101 41.7699 49.0501 42.1799 48.7801C42.3799 48.6501 42.58 48.5101 42.77 48.3701C42.97 48.2201 43.16 48.0501 43.3 47.8501C43.37 47.7401 43.2399 47.6199 43.1299 47.6499Z" fill="#4D4C51"/>
<path d="M32.8201 37.1298C33.0101 36.6998 33.12 36.26 33.21 35.8L33.3501 35.1298C33.4001 34.8798 33.48 34.6101 33.43 34.3601C33.4 34.2301 33.2499 34.1398 33.1299 34.1298C32.9799 34.1198 32.8701 34.19 32.7901 34.31C32.6601 34.5 32.6602 34.79 32.6202 35.01C32.5802 35.23 32.54 35.4499 32.5 35.6599C32.42 36.1199 32.3502 36.57 32.3702 37.03C32.3902 37.26 32.7201 37.3498 32.8201 37.1298Z" fill="#4D4C51"/>
<path d="M27.7501 32.0901C27.6401 32.0801 27.5501 32.15 27.5201 32.25C27.5001 32.29 27.4901 32.3301 27.4801 32.3701C27.4601 32.4301 27.45 32.48 27.45 32.53C27.44 32.61 27.44 32.69 27.43 32.78C27.42 32.94 27.4 33.09 27.39 33.25C27.38 33.31 27.43 33.3899 27.47 33.4299C27.51 33.4599 27.5602 33.48 27.6102 33.49C27.7302 33.5 27.86 33.42 27.88 33.3C27.9 33.14 27.92 32.98 27.94 32.82L27.96 32.5901C27.97 32.5301 27.97 32.4799 27.97 32.4199C27.96 32.3799 27.96 32.34 27.95 32.29C27.94 32.18 27.8701 32.1001 27.7501 32.0901Z" fill="#4D4C51"/>
<path d="M30.3502 32.7299C30.2302 32.7299 30.12 32.8399 30.13 32.9699C30.17 33.3999 30.16 33.82 30.13 34.25C30.11 34.45 30.1102 34.6601 30.0802 34.8601C30.0702 34.9701 30.0501 35.0799 30.0301 35.1799C30.0101 35.2899 30.0301 35.4 30.0301 35.51C30.0401 35.69 30.2602 35.72 30.3502 35.58C30.4102 35.48 30.4701 35.39 30.5101 35.27C30.5301 35.16 30.5602 35.0499 30.5802 34.9299C30.6302 34.7099 30.67 34.5 30.68 34.27C30.71 33.83 30.6602 33.3799 30.5902 32.9499C30.5702 32.8199 30.4902 32.7199 30.3502 32.7299Z" fill="#4D4C51"/>
<path d="M36.6 46.8999C38.26 45.6199 39.7899 44.2 41.2299 42.69C41.9499 41.94 42.61 41.1499 43.31 40.3799C43.96 39.6699 44.83 38.8001 45.07 37.8401C45.13 37.5901 44.84 37.3901 44.62 37.5301C44.2 37.7901 43.9198 38.1801 43.6298 38.5801C43.3298 38.9801 43.0199 39.37 42.7399 39.77C42.1299 40.63 41.4199 41.43 40.7199 42.22C39.3499 43.76 37.8798 45.2199 36.3798 46.6299C36.2298 46.7699 36.44 47.0199 36.6 46.8999Z" fill="#4D4C51"/>
</svg>
