<svg width="86" height="127" viewBox="0 0 86 127" fill="none" xmlns="http://www.w3.org/2000/svg">
<path d="M85.2035 24.6872C85.2135 24.5282 85.0935 24.3502 84.9135 24.3522C80.5135 24.4132 76.1634 24.7662 71.8334 25.6062C67.5334 26.4412 63.3133 27.7002 59.2633 29.3602C57.4333 30.1102 55.6334 30.9432 53.8934 31.8782C57.6734 27.6592 61.6233 23.6032 65.7633 19.7392C66.5133 19.0442 67.2435 18.3482 67.9735 17.6352C68.1335 17.4842 68.1234 17.2982 68.0434 17.1552C70.7534 13.7822 71.4634 9.08024 71.6134 4.87924C71.6634 3.35224 71.6434 1.82424 71.6334 0.29724C71.6334 0.0352401 71.2834 -0.122755 71.1234 0.121245C69.5034 2.56925 67.8433 4.98825 66.4933 7.60025C65.1833 10.1302 64.1334 12.8002 63.6334 15.6142C63.3634 17.1572 63.1335 18.8672 63.4035 20.4242C63.4135 20.5042 63.4533 20.5612 63.5133 20.6032C61.7933 22.2532 60.1235 23.9612 58.4735 25.6662C56.5435 27.6622 54.6634 29.7032 52.8234 31.7812C52.6034 31.0392 52.4035 30.2932 52.2135 29.5422C52.2235 29.5292 52.2433 29.5212 52.2533 29.5052C55.5133 24.0222 56.5534 17.2932 55.0634 11.0842C54.8834 10.3242 54.6635 9.57225 54.4135 8.83325C54.2235 8.26425 54.0034 7.52225 53.3734 7.28125C52.7734 7.04625 52.2335 7.44625 51.9435 7.95825C51.5535 8.63425 51.4433 9.46424 51.2833 10.2152C50.5433 13.7652 50.2735 17.3913 50.4635 21.0123C50.6035 23.7483 51.0135 26.4602 51.6935 29.1052C51.6935 29.1112 51.6935 29.1172 51.6835 29.1232C51.6035 29.2672 51.6335 29.4082 51.7135 29.5112C51.7635 30.5452 51.9034 31.5682 52.1234 32.5802C51.4634 33.3332 50.8035 34.0882 50.1535 34.8522C47.3435 38.1692 44.6534 41.5923 42.0634 45.0963C41.9834 45.0993 41.9034 45.1332 41.8434 45.2152C41.6634 45.4502 41.4934 45.6902 41.3134 45.9292C41.3034 44.0972 41.2435 42.2692 41.1535 40.4412C41.2335 40.4052 41.2833 40.3322 41.2533 40.2352C41.2133 40.1052 41.1734 39.9762 41.1334 39.8472C41.0134 37.8062 40.8635 35.7672 40.6835 33.7292C40.2935 29.3562 39.7433 24.9942 39.0133 20.6642C38.8333 19.5872 38.6435 18.5122 38.4335 17.4382C38.3335 16.9012 38.2334 16.3652 38.1334 15.8292C38.0534 15.4582 37.9734 15.0842 37.8134 14.7402C37.5234 14.1072 36.8635 13.6423 36.1535 13.9433C35.4635 14.2393 35.1435 15.0603 34.9735 15.7363C33.9335 19.6913 34.0833 23.8842 35.0233 27.8432C35.9633 31.8232 37.6535 35.6052 39.6535 39.1582C39.9035 39.6032 40.1535 40.0452 40.4135 40.4852C40.4835 40.6052 40.5935 40.6542 40.7035 40.6602C40.8235 42.5492 40.9333 44.4392 41.0233 46.3282C40.3933 47.2072 39.7835 48.1042 39.1835 49.0022C39.0635 49.1002 38.9434 49.1972 38.8234 49.2952C38.7334 49.3722 38.7534 49.4762 38.8134 49.5412C38.6634 49.7712 38.5034 50.0012 38.3534 50.2302C37.6434 51.2782 36.9533 52.3372 36.2733 53.3992C35.9833 53.8322 35.6935 54.2613 35.4135 54.6973C34.2735 56.4523 33.1634 58.2253 32.0834 60.0163C31.5634 57.9313 30.9535 55.8682 30.4435 53.7822C30.1035 52.4262 29.8033 51.0642 29.5233 49.6962C29.5633 49.6682 29.6034 49.6322 29.6234 49.5762C31.2134 46.1372 32.2234 42.4432 32.6134 38.6782C32.8134 36.7892 32.8633 34.8843 32.7433 32.9883C32.6533 31.3943 32.6634 29.2782 31.3034 28.1742C31.0634 27.9772 30.6634 27.7203 30.3334 27.7213C30.0434 27.7223 29.7234 28.2242 29.5634 28.4312C29.0734 29.0422 28.7035 29.7372 28.4235 30.4612C27.8335 31.9672 27.6234 33.6072 27.5634 35.2142C27.4234 39.2102 27.8634 43.2512 28.5434 47.1832C28.6034 47.4812 28.6635 47.7762 28.7135 48.0732C28.5835 47.8502 28.4433 47.6342 28.2733 47.4372C28.1833 47.3322 28.0835 47.2372 27.9835 47.1452C27.5335 46.2212 27.0634 45.3072 26.5934 44.4052C25.5134 42.3482 24.3334 40.3382 23.1034 38.3722C21.8634 36.4012 20.5535 34.4692 19.1735 32.5952C17.8635 30.8242 16.5233 29.0552 15.0133 27.4492C13.4133 25.7512 11.5734 24.2502 9.39345 23.3932C9.15345 23.3022 8.94335 23.5692 9.04335 23.7832C10.7134 27.2242 12.6534 30.5322 14.8434 33.6662C17.0534 36.8272 19.5135 39.8102 22.2035 42.5732C23.4035 43.8012 24.6535 44.9732 25.9335 46.1142C26.1235 46.3582 26.3234 46.5912 26.5734 46.7782C26.6134 46.8072 26.6535 46.8062 26.6835 46.7952C26.7635 46.8592 26.8335 46.9282 26.9035 46.9922C26.9635 47.0412 27.0234 47.0532 27.0734 47.0522C27.1534 47.1192 27.2334 47.1862 27.3034 47.2542C27.4434 47.3802 27.5735 47.5172 27.6935 47.6592C28.2035 48.6852 28.7033 49.7192 29.2433 50.7312C29.4833 51.8262 29.7333 52.9172 30.0033 54.0042C30.5433 56.1662 31.1034 58.3422 31.8234 60.4542C28.7234 65.6142 25.8535 70.9143 23.2335 76.3333C23.0235 76.7683 22.8134 77.2072 22.6134 77.6432C22.6034 76.5992 22.5533 75.5552 22.4933 74.5132C22.4133 73.0522 22.3035 71.5933 22.1635 70.1373C22.1535 70.0453 22.1434 69.9543 22.1334 69.8633C22.1734 69.8513 22.2135 69.8232 22.2335 69.7702C24.1035 65.5102 25.1934 60.9112 25.5434 56.2742C25.6434 54.9392 25.6935 53.5962 25.6635 52.2572C25.6535 52.0172 25.3935 51.8512 25.1935 52.0222C23.5935 53.3862 23.2234 55.6382 22.8234 57.5872C22.3234 60.0662 21.9633 62.5732 21.7433 65.0932C21.7133 65.4112 21.6935 65.7302 21.6735 66.0492C21.4535 64.4522 21.1934 62.8612 20.8734 61.2802C19.7934 55.9092 18.1334 50.6373 15.6034 45.7663C14.2234 43.1123 12.6035 40.5772 10.7035 38.2612C10.5535 38.0692 10.1735 38.1732 10.1735 38.4382C10.2635 42.7682 11.1233 47.0122 12.5233 51.1022C13.9333 55.2092 15.8435 59.1202 17.9235 62.9242C19.0835 65.0422 20.2833 67.1333 21.4933 69.2233C21.4933 69.2893 21.4835 69.3542 21.4835 69.4202C21.4835 69.5262 21.5234 69.6032 21.5934 69.6552C21.7434 71.1112 21.8735 72.5692 21.9735 74.0302C22.0635 75.4812 22.1233 76.9372 22.2633 78.3852C19.7733 83.6912 17.5233 89.1082 15.5233 94.6162C15.2833 92.8722 14.9534 91.1383 14.5734 89.4173C14.5834 89.3823 14.5934 89.3432 14.5834 89.2992C14.5634 89.1072 14.5333 88.9143 14.5033 88.7213C15.4233 85.9013 15.9434 82.9292 16.2934 79.9912C16.6534 76.9032 16.7534 73.7842 16.6034 70.6792C16.5134 68.9632 16.3534 67.2542 16.1034 65.5542C16.0734 65.3552 15.8133 65.3813 15.7433 65.5293C12.9833 71.2093 12.8535 77.6052 13.4635 83.7742C13.5335 84.4762 13.6135 85.1773 13.6935 85.8783C13.3535 84.6433 12.9934 83.4162 12.6034 82.2002C11.1034 77.5662 9.21347 73.0683 6.91347 68.7773C5.76347 66.6343 4.52336 64.5412 3.18336 62.5092C2.86336 62.0222 2.54338 61.5312 2.20338 61.0582C1.94338 60.6972 1.60344 60.3352 1.13344 60.3092C0.693438 60.2852 0.313438 60.5952 0.133438 60.9782C-0.106562 61.4892 0.0234673 62.0633 0.163467 62.5833C1.35347 67.1713 3.03345 71.6382 5.14345 75.8772C7.26345 80.1252 9.84333 84.1192 12.7733 87.8552C13.1433 88.3232 13.5134 88.7862 13.8934 89.2442C13.9534 89.3212 14.0334 89.3392 14.1134 89.3322C14.1134 89.3522 14.1134 89.3732 14.1234 89.3932C14.1234 89.4642 14.1635 89.5112 14.2035 89.5412C14.6035 91.2592 14.9633 92.9882 15.2533 94.7272C15.2833 94.8672 15.3134 95.0072 15.3334 95.1462C14.8334 96.5292 14.3534 97.9162 13.8834 99.3102C11.2734 107.121 9.15354 115.115 7.73354 123.23C7.56354 124.23 7.38353 125.23 7.22353 126.232C7.19353 126.391 7.43352 126.403 7.46352 126.249C9.03352 118.156 11.1034 110.12 13.6234 102.272C14.1434 100.654 14.6933 99.0452 15.2533 97.4422C15.3833 97.1362 15.5134 96.8302 15.6334 96.5232C15.6934 96.5382 15.7633 96.5002 15.7533 96.4252C15.7433 96.3792 15.7435 96.3342 15.7335 96.2892C16.6835 94.0112 17.6334 91.7362 18.5934 89.4652C21.7134 86.5702 25.4733 84.4703 29.5233 83.1523C29.5333 83.1593 29.5434 83.1692 29.5634 83.1742C36.8634 85.8242 44.9033 86.4262 52.5133 84.9382C54.6533 84.5212 56.7534 83.9352 58.8034 83.2022C59.0634 83.1102 58.9135 82.7782 58.7135 82.7392C52.3835 81.5242 45.9533 80.5562 39.4933 80.9092C36.2133 81.0892 32.9233 81.6292 29.7833 82.6162C29.7733 82.6132 29.7633 82.6112 29.7633 82.6082C29.6033 82.5542 29.4835 82.6232 29.4235 82.7292C27.4735 83.3652 25.5833 84.1782 23.7833 85.1882C22.0133 86.1802 20.3735 87.3722 18.9035 88.7452C18.9935 88.5172 19.0935 88.2892 19.1835 88.0612C20.7235 84.4562 22.3334 80.8882 24.0434 77.3622C24.5134 76.3762 25.0033 75.3942 25.4933 74.4142C25.5433 74.3052 25.6035 74.1972 25.6535 74.0892C26.3335 73.5012 27.0235 72.9183 27.7235 72.3483C27.7735 72.4083 27.8435 72.4523 27.9535 72.4583C29.7535 72.5523 31.5634 72.5132 33.3534 72.3602C34.8734 72.9962 36.4734 73.4552 38.0534 73.8752C39.8034 74.3432 41.5934 74.7272 43.3934 75.0052C46.9634 75.5592 50.6235 75.6942 54.2135 75.2112C56.2435 74.9382 58.2435 74.4623 60.1735 73.7793C60.4035 73.6973 60.3334 73.3622 60.1434 73.2862L60.1334 73.2822C60.1034 73.1432 59.9834 73.0182 59.8034 73.0392C59.7134 73.0492 59.6334 73.0562 59.5434 73.0662C54.2034 71.0362 48.4533 70.1292 42.7433 70.4142C46.2233 69.2492 49.5534 67.6302 52.5934 65.5732C54.6234 64.2052 56.5133 62.6482 58.2533 60.9282C58.4133 60.7722 58.3534 60.4182 58.0834 60.4272C57.7934 60.4372 57.5035 60.4582 57.2135 60.4742C57.1535 60.4392 57.0733 60.4242 56.9933 60.4542C56.9633 60.4662 56.9334 60.4782 56.8934 60.4902C52.3634 60.7552 47.8534 61.6272 43.5534 63.0802C38.9134 64.6432 34.5133 66.8582 30.5033 69.6602C28.9933 70.7162 27.5134 71.8602 26.1434 73.1102C26.1934 73.0242 26.2333 72.9372 26.2733 72.8522C26.5233 72.3632 26.8135 71.8812 26.9835 71.3582C27.0235 71.2322 26.9734 71.1313 26.8834 71.0723C27.6534 69.6593 28.3434 68.2062 29.0934 66.7872C29.6034 65.8282 30.1234 64.8732 30.6434 63.9222C31.8534 61.8252 33.1035 59.7492 34.4035 57.7012C36.3935 54.5422 38.4835 51.4442 40.6535 48.4052C43.4235 46.4812 46.4134 44.8602 49.5434 43.6272C49.5234 43.6522 49.5133 43.6822 49.5333 43.7182C49.5533 43.7562 49.5834 43.7922 49.6034 43.8302C49.5734 45.4502 50.2133 46.9822 51.0233 48.3822C51.8733 49.8582 52.8635 51.2672 53.9035 52.6192C55.8635 55.1852 58.1534 57.5732 60.8934 59.3242C62.2334 60.1862 63.6835 60.8852 65.2135 61.3512C66.4735 61.7342 68.3835 61.9362 68.9735 60.4102C69.5635 58.8562 67.9834 57.2172 67.0934 56.1302C65.9934 54.7892 64.8034 53.5172 63.5434 52.3252C61.4334 50.3332 59.1335 48.5613 56.6635 47.0443C58.5935 47.4803 60.5834 47.7332 62.5434 47.9102C67.6134 48.3672 72.9134 48.0843 77.6134 45.9713C78.3934 45.6223 79.9233 44.9612 79.5033 43.8372C79.3133 43.3152 78.7634 43.1212 78.2934 42.9312C77.6834 42.6862 77.0635 42.4582 76.4435 42.2462C73.9935 41.4082 71.4534 40.8263 68.8834 40.4993C63.7834 39.8493 58.5734 40.2242 53.6234 41.5932C49.2934 42.7902 45.1535 44.7133 41.4635 47.2773C43.8435 44.0003 46.3235 40.7972 48.9035 37.6762C50.0935 36.2312 51.3134 34.8082 52.5534 33.3992C52.7434 33.4072 52.9434 33.2682 52.8734 33.0342C52.8734 33.0322 52.8734 33.0302 52.8734 33.0282C53.0034 32.8862 53.1233 32.7423 53.2433 32.6003C54.9033 31.7853 56.5833 31.0153 58.2833 30.3053C58.3133 30.4983 58.4735 30.6232 58.6635 30.6612C66.2735 32.1752 74.3435 31.2932 81.4335 28.1222C82.6535 27.5772 84.4333 26.8672 85.0133 25.5352C85.0933 25.4762 85.1234 25.3862 85.1234 25.2942C85.1634 25.2342 85.1835 25.1572 85.1535 25.0802C85.1835 24.9512 85.2035 24.8222 85.2035 24.6872ZM71.0133 1.96524C71.0333 1.86624 71.0534 1.76724 71.0734 1.66824C71.0734 1.65824 71.0834 1.64825 71.0834 1.63725C71.1134 6.11825 70.9335 10.6722 68.9735 14.7862C68.6135 15.5312 68.1935 16.2552 67.7235 16.9482C67.6435 16.9452 67.5535 16.9682 67.4635 17.0352C67.9735 16.2562 68.4033 15.4322 68.7733 14.6092C69.9133 12.0412 70.4235 9.24624 70.7035 6.46524C70.8535 4.96824 70.9133 3.46624 71.0133 1.96524ZM69.8034 10.0242C69.3134 12.5332 68.4335 14.9962 66.9835 17.1172C66.7535 17.4562 66.5033 17.7762 66.2433 18.0872C65.8233 18.4622 65.4035 18.8422 64.9835 19.2252C65.0435 19.0942 65.1135 18.9642 65.1735 18.8392C65.4835 18.2192 65.7934 17.5952 66.0634 16.9562C66.6034 15.6972 67.1735 14.4482 67.6835 13.1752C68.6835 10.6672 69.5335 8.09825 70.1935 5.47925C70.2835 5.14725 70.3535 4.81224 70.4335 4.47824C70.3435 6.34324 70.1634 8.20725 69.8034 10.0242ZM69.9335 4.88624C69.6335 6.20324 69.2834 7.50924 68.8934 8.80424C68.1334 11.3762 67.2134 13.8972 66.0934 16.3392C65.7834 17.0252 65.4334 17.6972 65.0934 18.3712C64.9034 18.7332 64.7234 19.0922 64.5434 19.4532C64.5234 19.4782 64.5133 19.5023 64.5033 19.5273C65.5533 14.4953 67.1734 9.58124 69.3834 4.93724C69.6834 4.29824 70.0034 3.66425 70.3334 3.03725C70.2034 3.65625 70.0835 4.27324 69.9335 4.88624ZM64.0233 18.2832C64.0533 17.5832 64.1135 16.8853 64.2135 16.1933C64.4235 14.8113 64.7735 13.4542 65.2335 12.1342C66.1635 9.43625 67.5233 6.92125 69.0033 4.49025C69.2033 4.16525 69.4134 3.84525 69.6134 3.52225C69.5034 3.75225 69.3833 3.97925 69.2733 4.21025C68.6733 5.46325 68.1134 6.73524 67.6034 8.02524C66.5834 10.5862 65.7234 13.2152 65.0534 15.8902C64.7134 17.2362 64.4335 18.5933 64.1935 19.9583C64.1435 20.0033 64.0934 20.0482 64.0434 20.0942C64.0334 19.4902 64.0033 18.8872 64.0233 18.2832ZM36.9135 15.7352C36.9235 15.3462 36.9534 14.9512 36.8834 14.5712C36.9934 14.6412 37.0935 14.7472 37.1635 14.8712C37.3335 15.1422 37.4035 15.4552 37.4635 15.7602C37.5835 16.2952 37.6833 16.8322 37.7833 17.3682C37.9733 18.3772 38.1534 19.3872 38.3234 20.3992C39.0134 24.4072 39.5833 28.4332 40.0233 32.4762C39.8033 31.4942 39.5634 30.5152 39.3134 29.5392C38.5034 26.3512 37.6435 23.1642 37.2035 19.8982C37.0735 18.9572 36.9835 18.0112 36.9435 17.0632C36.9235 16.6212 36.9135 16.1782 36.9135 15.7352ZM35.1434 18.0752C35.2734 17.1722 35.4133 16.1932 35.7633 15.3422C35.7733 15.3362 35.7733 15.3292 35.7733 15.3222C35.3633 18.3772 35.6034 21.5422 36.1034 24.5622C36.6734 28.0242 37.6734 31.3992 38.8034 34.7132C39.1234 35.6422 39.4534 36.5672 39.7934 37.4902C39.9334 37.8852 40.0735 38.2832 40.2135 38.6812C36.7135 32.4012 34.0634 25.3682 35.1434 18.0752ZM39.4835 35.3732C38.8835 33.7042 38.3134 32.0232 37.8134 30.3212C36.8234 26.9622 36.0935 23.5062 35.9235 20.0022C35.8335 18.2662 35.9134 16.5353 36.0734 14.8073C36.1434 14.7123 36.2334 14.6252 36.3334 14.5652C36.4734 14.4852 36.6035 14.4742 36.7235 14.5072C36.6235 14.8162 36.6034 15.1392 36.5934 15.4722C36.5834 15.9152 36.5834 16.3582 36.5934 16.8002C36.6134 17.5792 36.6733 18.3562 36.7533 19.1312C36.9233 20.7782 37.2234 22.4102 37.5634 24.0282C38.2734 27.2992 39.1834 30.5222 39.8634 33.8002C40.0534 34.7162 40.2134 35.6362 40.3534 36.5612C40.4134 36.9462 40.4533 37.3343 40.4933 37.7213C40.5033 37.8573 40.5133 37.9942 40.5233 38.1302C40.1833 37.2092 39.8135 36.2942 39.4835 35.3732ZM19.2235 38.4382C16.7735 35.5392 14.5534 32.4452 12.6034 29.1912C11.8734 27.9792 11.2034 26.7382 10.5534 25.4842C11.2634 26.5032 12.0133 27.4962 12.7433 28.4982C13.8433 30.0052 14.9434 31.5082 16.0534 33.0062C18.2634 35.9862 20.4935 38.9452 22.7335 41.8962C23.1135 42.4002 23.4934 42.9062 23.8834 43.4112C22.2534 41.8282 20.6935 40.1742 19.2235 38.4382ZM25.1434 44.3592C24.5834 43.6442 24.0135 42.9362 23.4535 42.2182C22.3235 40.7652 21.1934 39.3072 20.0834 37.8422C17.8334 34.8952 15.6034 31.9382 13.3934 28.9622C12.2834 27.4582 11.2134 25.9002 10.0434 24.4392C12.6034 26.9512 15.0634 29.5613 17.2934 32.3783C19.6334 35.3213 21.6834 38.4403 23.5734 41.6823C24.1134 42.6073 24.6435 43.5372 25.2235 44.4392C25.2535 44.4802 25.2734 44.5212 25.3034 44.5622C25.2534 44.4932 25.1934 44.4262 25.1434 44.3592ZM25.7135 44.3952C25.1735 43.5882 24.6635 42.7562 24.1635 41.9182C23.2035 40.2922 22.2435 38.6683 21.1935 37.0963C19.1435 34.0323 16.8634 31.1122 14.3434 28.4232C13.0134 27.0042 11.6335 25.6372 10.1635 24.3582C13.6135 26.0962 16.0734 29.4212 18.3334 32.4462C21.0734 36.1222 23.5733 39.9802 25.7733 44.0062C26.0833 44.5762 26.3835 45.1502 26.6835 45.7242C26.3535 45.2892 26.0235 44.8512 25.7135 44.3952ZM30.5834 28.3743C31.7434 28.8823 31.9834 30.3852 32.1034 31.5412C32.2534 33.0132 32.3033 34.4952 32.2533 35.9742C32.1633 38.9362 31.6934 41.8852 30.8534 44.7262C30.6334 45.4712 30.3834 46.2062 30.1134 46.9332C30.2034 46.2782 30.2634 45.6202 30.3434 44.9772C30.4934 43.6322 30.6235 42.2842 30.7035 40.9332C30.8835 38.2312 30.9134 35.5232 30.8434 32.8162C30.7934 31.3322 30.6934 29.8543 30.5834 28.3743ZM29.7135 45.3463C29.7035 44.1113 29.6835 42.8772 29.6535 41.6422C29.5935 39.1752 29.5235 36.7072 29.4035 34.2422C29.3435 32.8612 29.2635 31.4802 29.1835 30.1002C29.4535 29.5582 29.7635 29.0432 30.1635 28.5762C30.7235 33.8102 30.6134 39.1483 30.0534 44.3763C29.9734 45.1023 29.8834 45.8282 29.7934 46.5512C29.7734 46.6952 29.7435 46.8402 29.7235 46.9852C29.7235 46.4392 29.7235 45.8923 29.7135 45.3463ZM29.3434 48.8232C29.2234 48.2232 29.1133 47.6222 29.0133 47.0192C28.6233 44.7352 28.3235 42.4332 28.1735 40.1202C28.0335 38.0302 27.9635 35.8992 28.1935 33.8122C28.2935 32.8472 28.4934 31.8792 28.8134 30.9672C29.1634 35.6132 29.3635 40.2712 29.4335 44.9292C29.4335 45.6352 29.4435 46.3402 29.4435 47.0462C29.4535 47.5502 29.4335 48.0652 29.4535 48.5732C29.4135 48.6572 29.3834 48.7402 29.3434 48.8232ZM25.0834 53.3242C25.0134 57.5842 24.4235 61.8173 23.1935 65.9043C22.9335 66.7513 22.6534 67.5932 22.3634 68.4292C22.8434 65.9892 23.2535 63.5343 23.6835 61.0853C23.9135 59.7403 24.1534 58.3962 24.3934 57.0512C24.6134 55.8082 24.8734 54.5702 25.0834 53.3242ZM22.6134 62.2112C22.7734 60.9892 22.9635 59.7712 23.1935 58.5592C23.4035 57.4582 23.6035 56.3452 23.9235 55.2692C24.0935 54.6742 24.3234 54.0963 24.6334 53.5723C24.4234 54.7213 24.2634 55.8803 24.0634 57.0293C23.8234 58.3743 23.5934 59.7192 23.3534 61.0642C22.9334 63.4632 22.4934 65.8612 22.1134 68.2682C22.1734 66.2422 22.3534 64.2182 22.6134 62.2112ZM17.8434 52.5192C19.1234 56.0622 20.0435 59.7142 20.7035 63.4162C20.5735 62.8202 20.4434 62.2242 20.2934 61.6322C19.8334 59.6922 19.2935 57.7672 18.6735 55.8712C17.4435 52.1352 15.9234 48.5092 14.1334 45.0082C13.3734 43.5182 12.5635 42.0452 11.6935 40.6152C14.2835 44.2772 16.3134 48.2982 17.8434 52.5192ZM15.9933 49.8282C17.5033 53.4602 18.7635 57.2013 19.7235 61.0163C19.9935 62.1003 20.2435 63.1892 20.4735 64.2842C20.5035 64.4572 20.5434 64.6323 20.5734 64.8053C20.3634 64.2223 20.1435 63.6383 19.9235 63.0573C19.1835 61.0893 18.4435 59.1212 17.7035 57.1552C16.2135 53.2222 14.6734 49.3072 13.1434 45.3902C12.7134 44.2882 12.2834 43.1872 11.8534 42.0862C11.5734 41.3802 11.2933 40.6652 11.0033 39.9622C12.8533 43.1572 14.5733 46.4112 15.9933 49.8282ZM15.9735 57.7832C14.1035 53.9202 12.5234 49.8932 11.6134 45.6902C11.2234 43.9012 10.9734 42.0832 10.8634 40.2552C11.0434 40.7412 11.2435 41.2242 11.4335 41.7072C11.8135 42.6872 12.2034 43.6662 12.5834 44.6462C13.3434 46.6072 14.1034 48.5702 14.8434 50.5382C16.3234 54.4752 17.8133 58.4113 19.2633 62.3633C19.6733 63.4743 20.0735 64.5862 20.4835 65.6962C20.6335 66.0892 20.7735 66.4823 20.9235 66.8743C19.1835 63.8943 17.4735 60.8912 15.9735 57.7832ZM1.57338 61.0972C1.94338 61.4882 2.22345 61.9952 2.52345 62.4422C3.81345 64.3872 5.01344 66.3892 6.13344 68.4382C8.35344 72.5162 10.2533 76.7823 11.7833 81.1693C12.2233 82.4153 12.6233 83.6722 12.9933 84.9392C12.6833 84.2242 12.3834 83.5092 12.0734 82.7972C11.2734 80.9692 10.4534 79.1502 9.60341 77.3422C7.90341 73.6882 6.11342 70.0712 4.24342 66.4952C3.73342 65.5162 3.22337 64.5412 2.69337 63.5692C2.20337 62.6582 1.73336 61.7272 1.18336 60.8452C1.33336 60.8832 1.46338 60.9832 1.57338 61.0972ZM6.5934 77.5322C4.4234 73.5182 2.66341 69.2863 1.35341 64.9153C1.19341 64.3823 1.03345 63.8472 0.893448 63.3112C0.743448 62.7662 0.493453 62.1382 0.523453 61.5672C0.533453 61.4012 0.573467 61.2282 0.663467 61.0872C0.863467 61.8982 1.13346 62.6952 1.40346 63.4802C1.72346 64.4042 2.07337 65.3172 2.44337 66.2222C3.19337 68.0542 4.02345 69.8552 4.89345 71.6312C6.69345 75.2772 8.5835 78.8782 10.4435 82.4932C11.1735 83.9272 11.9135 85.3642 12.6535 86.7962C10.3735 83.8872 8.3534 80.7822 6.5934 77.5322ZM8.30336 77.4902C6.47336 73.9762 4.56342 70.4882 2.99342 66.8492C2.57342 65.8562 2.16347 64.8532 1.79347 63.8372C1.44347 62.8722 1.16338 61.8852 0.823379 60.9142C0.823379 60.9122 0.833389 60.9092 0.833389 60.9072C0.853389 60.8932 0.873448 60.8853 0.893448 60.8743C1.30345 61.7233 1.7834 62.5433 2.2234 63.3743C2.7034 64.2723 3.18346 65.1732 3.65346 66.0762C4.58346 67.8442 5.48342 69.6232 6.36342 71.4132C8.14342 75.0312 9.84351 78.6932 11.4535 82.3882C11.9035 83.3992 12.3333 84.4142 12.7633 85.4312C12.9833 85.9392 13.1935 86.4493 13.4035 86.9583C13.5335 87.2833 13.6634 87.6162 13.8134 87.9362C13.8334 88.0432 13.8634 88.1492 13.8934 88.2562C12.0734 84.6472 10.1634 81.0782 8.30336 77.4902ZM14.2335 86.6552C13.5335 81.2192 13.0835 75.6743 14.4035 70.3073C14.6535 69.2843 14.9734 68.2812 15.3634 67.3042C14.9634 69.7362 14.7735 72.2022 14.6735 74.6602C14.5635 77.5362 14.4034 80.4152 14.3534 83.2932C14.3334 84.1312 14.3033 84.9683 14.2733 85.8053C14.2633 86.0853 14.2435 86.3702 14.2335 86.6552ZM14.4135 88.0372C14.5235 87.4012 14.5134 86.7312 14.5434 86.0902C14.5734 85.3642 14.6034 84.6372 14.6434 83.9112C14.7334 82.4372 14.7934 80.9622 14.8534 79.4872C14.9834 76.6492 15.0834 73.8092 15.3534 70.9792C15.4834 69.6772 15.6634 68.3802 15.8934 67.0932C16.5034 72.6712 16.3534 78.3102 15.3434 83.8372C15.0834 85.2742 14.7535 86.6962 14.4235 88.1182C14.4235 88.0902 14.4135 88.0642 14.4135 88.0372ZM31.0033 83.0172C34.2033 82.8992 37.4034 82.7572 40.6034 82.7392C44.1334 82.7192 47.6735 82.7872 51.2035 82.9842C52.0035 83.0282 52.8034 83.0812 53.5934 83.1352C53.2134 83.1632 52.8335 83.1952 52.4535 83.2162C50.6235 83.3192 48.7935 83.3913 46.9635 83.4323C43.3035 83.5153 39.6335 83.4842 35.9735 83.3312C34.3535 83.2632 32.7434 83.1362 31.1234 83.0542C31.0834 83.0422 31.0433 83.0292 31.0033 83.0172ZM36.0133 84.3302C34.8733 84.1092 33.7434 83.8303 32.6334 83.5123C33.5234 83.5723 34.4134 83.6152 35.3034 83.6622C37.1234 83.7582 38.9534 83.8242 40.7934 83.8592C44.4734 83.9292 48.1534 83.8652 51.8334 83.6792C53.4034 83.6002 54.9934 83.5412 56.5634 83.3962C49.9234 85.3372 42.7933 85.6482 36.0133 84.3302ZM48.0734 81.6072C51.0234 81.8902 53.9534 82.3572 56.8634 82.8922C56.7534 82.9002 56.6333 82.9102 56.5233 82.9182C49.6233 82.4042 42.6933 82.2523 35.7833 82.4753C34.1833 82.5273 32.5735 82.5972 30.9735 82.7162C36.5335 81.1772 42.3634 81.0572 48.0734 81.6072ZM38.7533 73.5532C37.8033 73.3162 36.8535 73.0362 35.9135 72.7562C42.0135 73.8612 48.2435 74.2723 54.4235 74.0123C55.8035 73.9543 57.1834 73.8512 58.5534 73.7282C52.1134 75.6352 45.2133 75.1642 38.7533 73.5532ZM36.6535 72.6642C39.0735 72.7172 41.4935 72.7372 43.9035 72.7932C47.0935 72.8662 50.2835 72.9583 53.4735 73.1133C54.7135 73.1733 55.9535 73.2392 57.1935 73.3042C51.5935 73.8002 45.9434 73.7552 40.3534 73.1442C39.1134 73.0092 37.8835 72.8442 36.6535 72.6642ZM54.5233 72.0652C55.4333 72.2802 56.3235 72.5342 57.2135 72.8152C51.4035 72.5832 45.5933 72.4362 39.7733 72.3662C38.0533 72.3452 36.3434 72.3323 34.6234 72.3743C34.6034 72.3683 34.5734 72.3612 34.5534 72.3552C34.8734 72.2702 35.1833 72.1912 35.5033 72.1142C36.8433 71.9262 38.1833 71.6733 39.5033 71.3503C44.4933 70.6583 49.6133 70.8952 54.5233 72.0652ZM47.4135 67.7712C44.6535 69.1102 41.7335 70.1262 38.7335 70.8082C37.7235 70.9602 36.7135 71.1482 35.7135 71.3752C35.5535 71.4002 35.3835 71.4312 35.2135 71.4532C33.8335 71.6422 32.4333 71.7422 31.0333 71.7752C34.0433 71.0572 37.0135 70.1172 39.9235 69.1042C43.8635 67.7332 47.6935 66.1202 51.4535 64.3042C53.1935 63.4632 54.9234 62.6012 56.6034 61.6502C53.8434 64.1042 50.7435 66.1612 47.4135 67.7712ZM55.0534 61.1752C48.2134 63.7202 41.4034 66.3402 34.6434 69.0772C33.6034 69.5012 32.5533 69.9242 31.5133 70.3522C31.1133 70.5132 30.7234 70.6702 30.3234 70.8292C32.9534 69.2842 35.6335 67.8422 38.4235 66.5822C41.8935 65.0092 45.4834 63.6902 49.1434 62.6212C50.9934 62.0802 52.8633 61.6112 54.7433 61.2042C54.8433 61.1962 54.9534 61.1842 55.0534 61.1752ZM29.9135 70.6382C31.8835 69.2022 33.9634 67.9132 36.1134 66.7782C40.4334 64.5072 45.0734 62.8542 49.8634 61.9002C50.2534 61.8222 50.6434 61.7512 51.0434 61.6842C45.0734 63.2662 39.3034 65.5232 33.8534 68.4242C32.4234 69.1862 31.0134 69.9862 29.6434 70.8442C29.7334 70.7752 29.8135 70.7042 29.9135 70.6382ZM31.2533 70.8522C32.1733 70.4692 33.0933 70.0883 34.0133 69.7103C35.8833 68.9453 37.7634 68.1972 39.6334 67.4562C43.3534 65.9892 47.0834 64.5662 50.8334 63.1902C52.5234 62.5722 54.2034 61.9592 55.8934 61.3572C54.6134 62.0892 53.3233 62.8182 52.0033 63.5062C50.1733 64.4672 48.2834 65.3372 46.3934 66.1612C42.6034 67.8062 38.7233 69.2252 34.7633 70.3922C33.0433 70.8972 31.3134 71.3412 29.5834 71.7832C29.3834 71.7812 29.1933 71.7843 28.9933 71.7793C29.7533 71.4983 30.5033 71.1622 31.2533 70.8522ZM65.9235 60.7692C64.4935 60.4252 63.0934 59.7762 61.8234 59.0332C59.1934 57.4942 56.9734 55.3492 55.0434 53.0092C53.9334 51.6642 52.9135 50.2462 51.9635 48.7852C51.2935 47.7562 50.6834 46.6412 50.3234 45.4592C51.4734 47.9562 53.0534 50.2802 54.8434 52.3452C57.0034 54.8292 59.5334 57.0132 62.3534 58.7172C63.7534 59.5592 65.2135 60.2823 66.7235 60.8913C66.4535 60.8763 66.1735 60.8282 65.9235 60.7692ZM67.8334 60.6702C67.7534 60.7172 67.6734 60.7532 67.5834 60.7842C67.5634 60.7662 67.5433 60.7502 67.5133 60.7392C61.3333 58.4912 55.9534 54.1992 52.3734 48.6892C51.5334 47.3912 50.8034 46.0282 50.1434 44.6302C50.4034 44.9772 50.6635 45.3162 50.9335 45.6532C51.4435 46.3002 51.9633 46.9372 52.4933 47.5642C53.5633 48.8172 54.6934 50.0262 55.8534 51.1892C58.1534 53.4862 60.6333 55.6283 63.2633 57.5443C64.7633 58.6363 66.3034 59.6602 67.8934 60.6162V60.6182C67.8734 60.6352 67.8534 60.6552 67.8334 60.6702ZM61.6835 51.5872C62.9135 52.6532 64.0835 53.7963 65.1835 55.0013C65.7235 55.6013 66.2533 56.2183 66.7633 56.8503C66.9133 57.0353 67.0735 57.2212 67.2235 57.4092C62.6935 53.8802 58.2434 50.2462 53.8034 46.6012C53.4434 46.3102 53.0933 46.0122 52.7433 45.7132C53.0233 45.8552 53.3034 45.9923 53.6034 46.1133C53.6134 46.1193 53.6134 46.1282 53.6234 46.1342C56.5134 47.6322 59.2135 49.4642 61.6835 51.5872ZM78.8434 44.1172C78.8534 44.1562 78.8534 44.1962 78.8434 44.2432C78.7934 44.4662 78.5534 44.6512 78.3734 44.7732C77.9034 45.0932 77.3334 45.3042 76.8134 45.5222C76.2534 45.7562 75.6834 45.9662 75.1034 46.1492C73.9534 46.5122 72.7834 46.7823 71.6034 46.9733C69.1934 47.3623 66.7434 47.4233 64.3134 47.2812C61.9634 47.1443 59.6034 46.8553 57.2934 46.3913C55.2634 45.9833 53.2034 45.3503 51.5434 44.0723C51.5234 44.0633 51.5133 44.0533 51.5033 44.0443C58.5033 45.2833 65.6833 45.4832 72.7533 44.8652C74.7933 44.6862 76.8234 44.4322 78.8434 44.1172ZM76.7035 43.0772C70.0235 42.9002 63.3535 42.8032 56.6735 42.8862C55.3835 42.9022 54.0934 42.9262 52.8134 42.9632C53.7934 42.7702 54.7733 42.5702 55.7633 42.4142C57.3333 42.1662 58.9133 41.9833 60.4933 41.8633C63.6733 41.6203 66.8834 41.6512 70.0634 41.9122C71.7434 42.0502 73.4334 42.2642 75.1034 42.5462C75.6334 42.7112 76.1735 42.8872 76.7035 43.0772ZM51.6134 42.8672C56.2334 41.3362 61.1333 40.6652 65.9933 40.9282C67.7333 41.0222 69.4735 41.2392 71.1835 41.5692C66.2635 41.0872 61.2934 41.2202 56.3834 41.9612C54.6834 42.2182 52.9634 42.5062 51.3134 43.0102C51.2834 43.0122 51.2435 43.0123 51.2035 43.0143C51.3435 42.9643 51.4734 42.9132 51.6134 42.8672ZM61.3934 43.3212C65.0034 43.3312 68.6135 43.3773 72.2235 43.4603C74.2135 43.5063 76.2035 43.5712 78.1935 43.6472C78.2235 43.6592 78.2533 43.6722 78.2833 43.6832C71.1133 44.8122 63.7934 45.0232 56.5734 44.3412C54.7434 44.1682 52.9234 43.9522 51.1034 43.6992C50.9734 43.5752 50.8435 43.4462 50.7135 43.3152C54.2735 43.3762 57.8334 43.3122 61.3934 43.3212ZM53.0534 46.4262C54.2434 47.4162 55.4334 48.3962 56.6334 49.3752C59.0234 51.3342 61.4334 53.2802 63.8434 55.2132C65.2034 56.3032 66.5635 57.3942 67.9235 58.4892C67.9435 58.5042 67.9535 58.5112 67.9735 58.5182C68.0335 58.6162 68.0934 58.7112 68.1334 58.8132C68.3534 59.2862 68.4535 59.8702 68.2035 60.3032C68.1835 60.2842 68.1634 60.2663 68.1434 60.2513C62.5634 56.9043 57.5135 52.7183 53.1935 47.8463C52.6035 47.1733 52.0235 46.4883 51.4535 45.7903C50.9735 45.1953 50.5133 44.5752 50.0233 43.9902C50.0133 43.9412 50.0133 43.8912 50.0033 43.8422C50.9733 44.7532 52.0334 45.5772 53.0534 46.4262ZM53.7833 8.61725C54.0433 9.31825 54.2535 10.0432 54.4335 10.7692C55.1535 13.6512 55.3135 16.6742 54.9535 19.6202C54.6335 22.2082 53.8933 24.7352 52.7633 27.0822C52.7833 27.0342 52.7934 26.9862 52.8134 26.9382C53.0234 26.2582 53.2134 25.5722 53.3834 24.8802C53.7234 23.5212 53.9835 22.1422 54.1535 20.7532C54.5135 17.9462 54.5233 15.1102 54.2533 12.2952C54.1133 10.9332 53.9034 9.58124 53.6134 8.24324C53.6834 8.36824 53.7333 8.49725 53.7833 8.61725ZM53.2035 24.1892C53.0235 24.9602 52.8234 25.7262 52.5934 26.4832C52.4634 26.9092 52.3135 27.3312 52.1635 27.7562C52.5335 22.6432 52.8034 17.5232 53.1334 12.4082C53.2034 11.3192 53.2834 10.2302 53.3534 9.14125C54.3934 14.0982 54.3335 19.2432 53.2035 24.1892ZM51.3934 12.6132C51.5234 11.7892 51.6734 10.9682 51.8434 10.1532C51.9934 9.47024 52.0833 8.60525 52.5233 8.03525C52.6533 7.87725 52.8133 7.75724 52.9933 7.74524C52.7033 13.2502 52.3834 18.7542 52.0734 24.2592C52.0034 25.5092 51.9334 26.7592 51.8734 28.0092C50.8134 22.9542 50.6034 17.7432 51.3934 12.6132ZM59.4135 29.9492C62.6435 29.1832 65.8534 28.3372 69.1134 27.6772C72.4534 27.0012 75.8235 26.4482 79.2035 26.0102C80.2735 25.8702 81.3535 25.7492 82.4335 25.6342C79.9335 26.2792 77.4234 26.8902 74.8934 27.4132C71.5634 28.1002 68.2234 28.7042 64.8634 29.2002C63.9434 29.3362 63.0234 29.4652 62.1034 29.5882C61.2134 29.7062 60.3135 29.7812 59.4435 29.9542C59.4335 29.9522 59.4235 29.9512 59.4135 29.9492ZM81.2335 27.4342C79.5235 28.1732 77.7635 28.7842 75.9635 29.2632C72.3735 30.2182 68.6535 30.6562 64.9435 30.5432C63.5035 30.4992 62.0634 30.3622 60.6334 30.1492C60.9934 30.1052 61.3635 30.0552 61.7235 30.0102C62.5635 29.9062 63.4035 29.7962 64.2335 29.6792C65.9235 29.4412 67.6134 29.1762 69.3034 28.8922C72.6534 28.3272 75.9734 27.6552 79.2934 26.9232C80.8934 26.5702 82.4934 26.1952 84.0734 25.7892C83.3734 26.5962 82.0935 27.0612 81.2335 27.4342ZM64.7335 28.1942C63.8235 28.4082 62.9233 28.6262 62.0133 28.8602C62.9233 28.5382 63.8333 28.2342 64.7633 27.9522C68.9133 26.6862 73.1833 25.8083 77.4933 25.3463C79.6733 25.1123 81.8734 24.9752 84.0734 24.9802C77.5634 25.6172 71.0935 26.6912 64.7335 28.1942Z" fill="#4D4C51"/>
</svg>
