<svg width="67" height="197" viewBox="0 0 67 197" fill="none" xmlns="http://www.w3.org/2000/svg">
<path d="M66.3312 85.0401C61.5612 84.4921 56.621 84.5501 51.921 85.5451C47.371 86.5071 43.0912 88.4831 39.6512 91.6501C36.4412 94.6191 34.0711 98.3971 32.2811 102.37C30.3611 106.652 29.0012 111.222 28.0712 115.818C27.0512 120.877 26.6711 126.133 27.6611 131.229C27.7911 131.869 27.9311 132.504 28.1011 133.134C28.1211 133.186 28.1411 133.225 28.1711 133.257C27.8811 134.781 27.6411 136.316 27.5011 137.863C26.7811 135.297 26.1211 132.717 25.5211 130.124C23.6511 122.066 22.3311 113.894 21.5011 105.671C21.5111 105.66 21.5311 105.655 21.5411 105.64C23.0711 104.002 24.5711 102.343 26.0311 100.648C26.0811 100.631 26.1211 100.604 26.1511 100.555C26.1611 100.527 26.1711 100.5 26.1811 100.472C27.0911 99.4141 27.9811 98.3451 28.8511 97.2481C28.9511 97.1211 28.7311 96.9461 28.6311 97.0711C27.8411 98.0161 27.0411 98.9501 26.2211 99.8761C26.2211 99.7761 26.2211 99.6761 26.2311 99.5761C26.2411 99.2541 26.2411 98.9321 26.2711 98.6101C26.3211 97.9461 26.3911 97.2831 26.4911 96.6251C26.5211 96.4571 26.2711 96.3721 26.2311 96.5481C26.0711 97.2021 25.9312 97.8631 25.8412 98.5321C25.8012 98.8641 25.7511 99.1981 25.7311 99.5321C25.7011 99.8071 25.6312 100.173 25.7112 100.452C24.3312 102.011 22.9111 103.537 21.4211 104.997C21.1011 101.766 20.8511 98.5281 20.6811 95.2851C20.6811 95.2811 20.6911 95.2831 20.6911 95.2781C21.6411 94.3051 22.5411 93.2711 23.4111 92.2161C23.4111 92.2161 23.4111 92.2181 23.4111 92.2171C23.4511 92.2111 23.4811 92.2021 23.5211 92.1961C23.5211 92.2231 23.5111 92.2491 23.5111 92.2761C23.5011 92.4281 23.7511 92.4691 23.7811 92.3171C23.7911 92.2581 23.8011 92.1981 23.8111 92.1391C27.0111 91.5291 30.1111 90.4501 33.0511 89.0641C35.9311 87.7091 38.781 86.0771 41.191 83.9841C42.321 82.9991 43.3512 81.8751 44.1312 80.5911C44.9712 79.2231 45.4811 77.6921 45.7911 76.1271C46.1211 74.4951 46.271 72.8291 46.421 71.1731C46.581 69.3761 46.7011 67.5761 46.7611 65.7731C46.9011 62.0841 46.8412 58.3911 46.6212 54.7071C46.6312 54.6951 46.651 54.6861 46.661 54.6651C46.751 54.4911 46.7811 54.3281 46.7711 54.1331C46.7611 53.9561 46.7411 53.7781 46.7211 53.6031C46.6911 53.4361 46.6412 53.2711 46.5912 53.1101C46.5612 53.0111 46.5211 52.9161 46.4711 52.8271C46.5211 52.5531 46.2611 52.2511 45.9811 52.4491C40.8411 55.9791 35.6412 59.7061 31.6512 64.5431C29.8412 66.7261 28.2911 69.1161 27.1711 71.7221C25.9311 74.6041 25.4511 77.6931 25.0211 80.7791C24.5411 84.2591 24.0011 87.7431 23.6311 91.2381C22.6311 92.4801 21.6211 93.7051 20.6611 94.9721C20.6111 94.0041 20.5611 93.0361 20.5211 92.0671C20.1311 82.0261 20.3911 71.9671 21.1611 61.9481C22.8111 59.6181 24.4211 57.2661 26.1011 54.9581C26.1211 54.9281 26.1411 54.8991 26.1611 54.8691C26.2811 54.8811 26.3911 54.8391 26.4411 54.7411C30.4711 52.9971 34.6411 50.9881 37.5111 47.5571C40.4811 43.9891 41.5811 39.3351 41.7911 34.7851C41.9211 31.9011 41.7011 29.0211 41.4911 26.1461V26.1431C41.4611 26.1401 41.4312 26.1381 41.4012 26.1371C41.3612 26.1351 41.3211 26.1381 41.2811 26.1401C41.1911 26.1491 41.0911 26.1591 41.0011 26.1761C40.9411 26.1871 40.8812 26.1911 40.8212 26.1951C40.8212 26.2051 40.8212 26.2141 40.8212 26.2241C40.2912 26.9811 39.771 27.7461 39.201 28.4761C38.531 29.3311 37.8112 30.1511 37.0912 30.9591C35.6412 32.5741 34.121 34.1271 32.691 35.7621C31.841 36.7331 31.0311 37.7411 30.2811 38.7921C30.2211 38.7281 30.1012 38.7241 30.0812 38.8301C30.0612 38.9311 30.0511 39.0351 30.0411 39.1371C29.6311 39.7321 29.2311 40.3371 28.8811 40.9681C27.7911 42.8931 26.9812 44.9751 26.4612 47.1241C25.8812 49.5401 25.6711 52.0421 25.8711 54.5201C24.2611 56.7291 22.6412 58.9481 21.2112 61.2751C21.4712 57.9291 21.7911 54.5881 22.1611 51.2531C22.9211 44.4711 23.9111 37.7281 25.0511 31.0111C25.0811 31.0061 25.1111 30.9951 25.1311 30.9681C27.3511 28.4081 29.5511 25.6921 30.5311 22.3881C31.5611 18.8921 30.8112 15.2751 30.3312 11.7561C30.0512 9.71012 29.8711 7.61512 30.2611 5.57112C30.2611 5.53212 30.2611 5.49712 30.2611 5.46312C30.3211 5.40112 30.3912 5.33412 30.4512 5.27312C30.7612 5.00512 30.3211 4.55611 30.0211 4.82411C24.4511 9.80911 21.7011 17.4181 22.7411 24.8111C22.9011 25.9121 23.1412 26.9991 23.4612 28.0631C23.6212 28.6151 23.8111 29.1601 24.0211 29.6971C24.1511 30.0421 24.2811 30.4101 24.4911 30.7201C23.6011 35.7891 22.8111 40.8751 22.1411 45.9751C21.8411 48.2531 21.5712 50.5361 21.3212 52.8201C20.3312 51.8591 19.3811 50.8521 18.4711 49.8221C18.5811 48.2511 18.4812 46.6531 18.3212 45.0911C18.1412 43.4471 17.8711 41.8101 17.5311 40.1931C16.8311 36.8961 15.7811 33.6761 14.6311 30.5131C12.3211 24.1891 9.46116 18.0681 7.70116 11.5521C6.71116 7.89011 6.0911 4.12612 6.1411 0.325121C6.1411 0.00212136 5.77116 -0.0808808 5.58116 0.0791192C5.51116 0.0121192 5.39117 -0.00687327 5.34117 0.0931267C4.42117 1.87813 3.6911 3.76912 3.0211 5.66112C2.3511 7.58012 1.77113 9.53412 1.30113 11.5151C0.381133 15.4031 -0.0789055 19.4151 0.0110945 23.4111C0.181095 31.1341 2.50116 38.8861 7.20116 45.0771C8.47116 46.7471 9.92107 48.3371 11.7411 49.4121C13.5811 50.4931 15.7911 50.9971 17.8811 50.4421C17.9411 50.4261 17.9811 50.3991 18.0211 50.3661C19.0511 51.5131 20.1111 52.6181 21.2311 53.6781C20.5711 59.8501 20.0912 66.0411 19.8312 72.2411C19.7212 71.9601 19.5911 71.6841 19.5011 71.4181C19.2811 70.8411 19.0711 70.2651 18.8511 69.6891C18.4411 68.5801 18.0012 67.4781 17.5812 66.3711C17.4812 66.1071 17.3811 65.8411 17.2811 65.5771C17.3211 65.5361 17.3511 65.4731 17.3511 65.3891C17.2211 63.9681 17.2012 62.5331 17.3212 61.1111C17.3412 60.9661 17.0912 60.9271 17.0712 61.0721C16.8712 62.1211 16.7711 63.1791 16.7811 64.2421C16.2111 62.7251 15.6411 61.2101 15.0011 59.7181C14.9611 59.6241 14.8112 59.6881 14.8412 59.7841C15.5312 62.0901 16.3811 64.3401 17.1611 66.6191C17.5511 67.7361 17.9211 68.8551 18.3111 69.9691C18.5111 70.5271 18.7111 71.0831 18.9111 71.6391C19.1111 72.1981 19.2612 72.8601 19.5812 73.3651C19.6312 73.4491 19.7011 73.4881 19.7711 73.4981C19.6011 78.1001 19.5411 82.7071 19.6211 87.3141C19.7411 94.5061 20.2011 101.694 21.0211 108.838C20.8611 108.617 20.7011 108.392 20.5411 108.17C20.5511 108.139 20.5611 108.105 20.5511 108.065C19.8811 101.123 18.7411 94.2471 17.0311 87.4841C15.4911 81.4141 13.5411 75.1811 9.48106 70.2781C7.63106 68.0441 5.37108 66.1161 2.75108 64.8541C2.75108 64.8571 2.74108 64.8601 2.74108 64.8631C2.73108 64.8541 2.72117 64.8421 2.71117 64.8361C2.67117 64.8151 2.62116 64.7951 2.58116 64.7871C2.55116 64.7821 2.51107 64.7741 2.48107 64.7741C2.45107 64.7741 2.41109 64.7791 2.38109 64.7851C2.37109 64.7871 2.35117 64.7911 2.34117 64.7951C2.31117 64.8071 2.28108 64.8171 2.25108 64.8351C2.20108 64.8721 2.15108 64.9131 2.12108 64.9711C2.07108 65.0691 2.05116 65.1801 2.08116 65.2901C2.08116 65.3231 2.10107 65.3561 2.11107 65.3861C2.12107 65.4161 2.14113 65.4441 2.17113 65.4671C2.19113 65.4911 2.21108 65.5111 2.24108 65.5291C2.26108 65.5411 2.28113 65.5481 2.30113 65.5561C2.39113 68.9031 2.70115 72.2531 2.94115 75.5911C3.20115 79.1241 3.42116 82.6591 3.70116 86.1911C3.94116 89.4181 4.30108 92.7001 5.50108 95.7321C6.64108 98.5971 8.56111 101.019 10.9011 103.007C12.2511 104.161 13.7211 105.18 15.2411 106.098C16.7111 106.983 18.2211 107.821 19.7711 108.571C20.1311 109.06 20.5111 109.544 20.8911 110.013C20.9711 110.107 21.0711 110.138 21.1711 110.132C21.8311 115.497 22.6911 120.836 23.7811 126.132C23.8211 126.311 23.8611 126.489 23.8911 126.667C23.8311 126.595 23.7712 126.524 23.7112 126.451C23.3112 125.985 22.9111 125.517 22.5111 125.051C21.6811 124.07 20.8511 123.077 20.0311 122.083C19.9411 121.977 19.8611 121.869 19.7711 121.762C19.8111 121.708 19.8211 121.641 19.8011 121.56C19.3811 119.768 18.9811 117.965 18.4811 116.193C18.4311 116.032 18.2011 116.096 18.2311 116.257C18.4811 117.84 18.8111 119.408 19.1311 120.978C17.8211 119.364 16.5311 117.736 15.2311 116.112C15.1711 116.039 15.0412 116.133 15.0912 116.211C16.5212 118.301 18.0511 120.319 19.6011 122.318C20.3711 123.322 21.1811 124.305 21.9911 125.286C22.3911 125.776 22.8012 126.261 23.2112 126.743C23.5212 127.1 23.8211 127.468 24.1411 127.82C26.2611 137.633 29.161 147.285 32.921 156.597C32.411 155.717 31.9112 154.84 31.3812 153.971C29.7312 151.215 27.9611 148.517 26.1311 145.871C23.5311 142.112 20.7712 138.467 17.8412 134.957C17.8312 134.928 17.8111 134.905 17.7811 134.886C16.6211 133.49 15.4312 132.114 14.2112 130.764C13.0012 129.419 11.7611 128.099 10.5011 126.803C9.24108 125.51 7.98107 124.191 6.61107 123.015C6.53107 122.948 6.44108 122.954 6.37108 122.995C6.32108 122.906 6.19117 122.966 6.21117 123.063C6.43117 124.109 6.81113 125.108 7.17113 126.116C7.51113 127.103 7.86116 128.091 8.20116 129.078C8.90116 131.075 9.61116 133.068 10.3312 135.06C11.6112 138.635 12.8011 142.261 14.3011 145.753C15.6711 148.953 17.4011 152.064 19.9011 154.526C22.2211 156.816 25.0912 158.437 27.9512 159.952C29.5912 160.821 31.2512 161.663 32.8612 162.6C34.1812 163.371 35.4112 164.24 36.6412 165.128C37.7112 167.395 38.8411 169.64 40.0111 171.859C40.0211 171.877 40.0211 171.896 40.0311 171.915C40.0511 171.97 40.0812 172.023 40.1112 172.078C40.1212 172.121 40.1312 172.161 40.1512 172.213C40.2212 172.537 40.3311 172.848 40.5311 173.062C40.5511 173.085 40.5712 173.099 40.6012 173.111C40.8812 173.69 41.1711 174.265 41.4811 174.837C41.9311 175.69 42.381 176.567 42.931 177.368C40.531 176.124 38.1812 174.78 35.8712 173.378C35.7512 173.307 35.6511 173.478 35.7611 173.557C38.3311 175.443 41.0512 177.109 43.8512 178.624C46.9212 183.724 50.3112 188.626 54.0712 193.211C55.0512 194.398 56.0512 195.558 57.0712 196.699C57.3412 196.992 57.7511 196.578 57.5111 196.28C55.0411 193.211 52.681 190.072 50.431 186.862C50.451 186.44 50.3611 186.016 50.3011 185.599C50.2311 185.105 50.1512 184.611 50.0812 184.116C49.9612 183.288 49.8511 182.457 49.7511 181.627C49.8211 181.533 49.881 181.427 49.941 181.336C50.031 181.214 50.121 181.094 50.211 180.974C50.401 180.718 50.5911 180.463 50.7811 180.207C51.1611 179.703 51.5212 179.189 51.8912 178.68C51.9812 178.544 51.7612 178.364 51.6512 178.495C51.2512 178.977 50.851 179.454 50.451 179.943C50.261 180.184 50.0612 180.426 49.8712 180.667C49.8012 180.757 49.7312 180.847 49.6512 180.937C49.3912 178.818 49.2111 176.687 49.0111 174.56C49.0011 174.426 48.8011 174.416 48.8011 174.556C48.8111 176.69 48.9512 178.816 49.1312 180.942C49.2212 181.964 49.321 182.984 49.451 184.002C49.511 184.544 49.581 185.085 49.661 185.625C49.671 185.675 49.671 185.726 49.681 185.777C46.541 181.223 43.6311 176.526 40.9911 171.656C40.9511 171.483 40.9112 171.316 40.8912 171.167C40.7912 170.575 40.7012 169.979 40.6412 169.382C40.5712 168.782 40.5111 168.181 40.4711 167.578C40.4411 167.12 40.4911 166.52 40.2911 166.083C40.8011 165.369 41.2912 164.638 41.8212 163.933C42.4812 163.044 43.1712 162.176 43.8912 161.331C45.2912 159.694 46.7711 158.14 48.2811 156.606C51.2211 153.616 54.2311 150.691 56.8111 147.382C57.5811 146.393 58.3011 145.365 58.9711 144.304C58.9811 144.295 59.0011 144.286 59.0111 144.276C59.0711 144.232 59.0912 144.17 59.0912 144.108C60.5512 141.749 61.7011 139.214 62.3111 136.482C62.6211 135.121 62.7912 133.746 62.8712 132.364C63.0412 132.288 63.0112 132.104 62.9012 132.008C63.0412 129.163 62.8211 126.294 62.4911 123.466C61.9811 119.054 61.2411 114.644 61.2711 110.19C61.2811 109.987 61.2811 109.785 61.2811 109.582C61.4011 109.203 61.581 108.756 61.421 108.385C61.371 108.273 61.1912 108.218 61.0812 108.282C60.9312 108.239 60.741 108.324 60.711 108.534C60.691 108.715 60.681 108.898 60.661 109.08C60.641 109.201 60.6112 109.321 60.5812 109.432C60.4812 109.827 60.3811 110.221 60.2811 110.617C59.0011 112.024 57.6912 113.404 56.3212 114.72C54.7812 116.193 53.2012 117.614 51.6212 119.042C48.6312 121.744 45.671 124.501 43.201 127.704C40.791 130.841 38.921 134.397 38.181 138.311C37.771 140.453 37.6612 142.64 37.6412 144.816C37.6212 147.094 37.6811 149.374 37.7511 151.651C37.8911 156.264 38.1811 160.909 39.2511 165.414C39.3311 165.743 39.4211 166.068 39.5011 166.395C39.4511 166.711 39.4212 167.035 39.4012 167.347C39.3812 167.781 39.3812 168.218 39.4012 168.653C38.8512 167.58 38.3011 166.502 37.7811 165.412C37.7711 165.393 37.7611 165.376 37.7511 165.358C37.7211 165.291 37.691 165.226 37.661 165.159C33.601 156.675 30.3211 147.83 27.7611 138.786C27.9711 136.964 28.2412 135.15 28.5912 133.35C28.6012 133.348 28.6111 133.349 28.6211 133.346C30.3611 132.632 31.9412 131.649 33.3812 130.428C34.8212 129.207 36.1011 127.805 37.2411 126.305C39.1811 123.752 40.6711 120.91 41.9911 117.989C42.0011 117.975 42.0111 117.963 42.0311 117.949C42.0711 117.904 42.0812 117.853 42.0712 117.806C42.4212 117.002 42.7712 116.194 43.1112 115.383C44.7412 111.459 46.1812 107.45 48.1212 103.664C49.9812 100.034 52.311 96.6931 55.411 94.0161C58.511 91.3381 62.0811 89.2711 65.2811 86.7131C65.6811 86.3941 66.071 86.0661 66.451 85.7301C66.581 85.6181 66.5811 85.4761 66.5111 85.3651C66.5711 85.2471 66.5112 85.0611 66.3312 85.0401ZM45.451 74.4931C45.221 76.0901 44.881 77.7011 44.191 79.1711C44.111 79.3631 44.0012 79.5441 43.9012 79.7291C40.0612 82.3411 35.8312 84.3061 31.3712 85.6001C30.1912 85.9431 28.9911 86.1991 27.8011 86.5161C29.4111 84.3491 30.9911 82.1531 32.4911 79.9111C33.5311 78.3721 34.5211 76.8071 35.4911 75.2231C35.8911 75.1681 36.281 75.0221 36.661 74.9031C37.151 74.7471 37.6312 74.5861 38.1212 74.4151C39.0712 74.0821 40.011 73.7081 40.931 73.3171C41.881 72.9171 42.8211 72.4891 43.7411 72.0361C44.1911 71.8191 44.6311 71.5951 45.0611 71.3651C45.3011 71.2421 45.5812 71.1221 45.8412 70.9741C45.7312 72.1521 45.611 73.3271 45.451 74.4931ZM46.211 64.1591C46.171 66.2281 46.0612 68.3051 45.8912 70.3751C45.5412 70.4901 45.1912 70.7421 44.8812 70.9071C44.4412 71.1371 44.0011 71.3621 43.5611 71.5801C42.6611 72.0271 41.7412 72.4481 40.8212 72.8441C39.8912 73.2401 38.9511 73.6041 38.0011 73.9531C37.5211 74.1311 37.0311 74.3051 36.5411 74.4701C36.3011 74.5521 36.0511 74.6231 35.8011 74.7081C38.1011 70.9151 40.2112 67.0091 42.1512 63.0321C42.9412 61.4171 43.701 59.7891 44.431 58.1481C44.971 56.9271 45.5111 55.6981 45.9711 54.4421C46.2111 57.6761 46.291 60.9191 46.211 64.1591ZM36.431 60.5971C36.881 60.1961 37.3311 59.8011 37.7911 59.4151C40.3911 57.2421 43.161 55.3221 45.921 53.3621C45.911 53.3961 45.901 53.4341 45.911 53.4781C45.911 53.5311 45.911 53.5851 45.921 53.6381C45.301 54.8891 44.751 56.1711 44.181 57.4441C43.531 58.9011 42.851 60.3481 42.161 61.7831C40.831 64.4991 39.431 67.1751 37.961 69.8131C37.771 69.1461 37.5612 68.4861 37.4012 67.8121C37.2012 66.9821 37.0312 66.1441 36.9012 65.3021C36.6512 63.7391 36.561 62.1701 36.431 60.5971ZM28.9111 72.8771C28.8711 72.3481 28.8512 71.8191 28.8312 71.2901C28.8212 70.7741 28.7612 70.2041 28.8212 69.6851C30.6812 66.3901 33.2211 63.5161 36.0211 60.9611C35.9911 62.4111 36.1612 63.8781 36.3712 65.3031C36.5112 66.1681 36.6812 67.0281 36.8812 67.8791C37.0812 68.7351 37.2812 69.6281 37.6012 70.4481C35.4012 74.3591 33.0311 78.1911 30.5011 81.9121C30.3211 81.0361 30.0312 80.1721 29.8312 79.3031C29.5912 78.2491 29.4011 77.1831 29.2411 76.1131C29.0911 75.0381 28.9811 73.9591 28.9111 72.8771ZM25.2411 82.3591C25.6911 79.2021 26.1011 76.0181 27.2511 73.0231C27.5811 72.1511 27.9611 71.3071 28.3911 70.4881C28.3911 70.7771 28.3811 71.0671 28.3911 71.3481C28.4111 71.8781 28.4411 72.4071 28.4711 72.9351C28.5511 74.0111 28.6712 75.0831 28.8312 76.1501C28.9912 77.2421 29.2011 78.3261 29.4411 79.4041C29.6511 80.3691 29.8411 81.3911 30.2411 82.3031C29.2611 83.7411 28.2511 85.1651 27.2211 86.5641C26.1911 87.9641 25.1311 89.3461 24.0511 90.7101C24.5011 87.9361 24.8511 85.1421 25.2411 82.3591ZM23.9011 91.6161C24.9011 90.3781 25.8612 89.1131 26.8212 87.8541C27.0612 87.5311 27.2911 87.2001 27.5411 86.8761C27.5511 86.8801 27.5612 86.8931 27.5812 86.8911C29.8912 86.6501 32.1912 85.9221 34.3712 85.1371C36.5712 84.3401 38.7211 83.3691 40.7711 82.2311C41.6411 81.7471 42.4912 81.2221 43.3312 80.6781C42.8212 81.4351 42.2312 82.1411 41.5812 82.7821C39.3612 84.9641 36.5812 86.6191 33.8312 88.0331C30.6612 89.6621 27.3011 90.8601 23.8711 91.7991C23.8811 91.7371 23.8911 91.6771 23.9011 91.6161ZM37.5511 46.5831C36.2411 48.3271 34.5411 49.7461 32.7311 50.9261C30.7811 52.1891 28.6911 53.2161 26.6111 54.2541C28.1411 52.1601 29.6811 50.0711 31.1811 47.9601C31.8011 47.0941 32.4011 46.2151 32.9911 45.3291C35.4511 44.7001 37.7912 43.5951 39.8812 42.1511C39.3212 43.7311 38.5611 45.2371 37.5511 46.5831ZM40.3712 40.5991C40.2912 40.8981 40.2012 41.1951 40.1012 41.4911C38.0412 43.0111 35.7311 44.1281 33.2911 44.8791C34.2511 43.4121 35.1811 41.9201 36.0511 40.3931C36.0811 40.3651 36.1012 40.3271 36.1112 40.2811C36.5612 39.4931 36.9812 38.6941 37.3912 37.8881C38.1912 37.3431 38.8912 36.6831 39.5712 36.0031C40.1412 35.4301 40.691 34.8311 41.211 34.2181C41.161 36.3681 40.9312 38.5061 40.3712 40.5991ZM41.2211 33.4821C40.5911 34.2161 39.9411 34.9351 39.2611 35.6261C38.7811 36.1201 38.2811 36.6001 37.8011 37.0911C38.2911 36.0851 38.761 35.0651 39.191 34.0271C39.741 32.6831 40.2312 31.3131 40.6412 29.9181C40.7812 29.4591 40.9011 28.9971 41.0211 28.5321C41.1511 30.1781 41.2311 31.8321 41.2211 33.4821ZM37.1312 31.7291C37.9312 30.8481 38.711 29.9491 39.451 29.0161C39.881 28.4721 40.311 27.9131 40.701 27.3331C40.691 27.3791 40.681 27.4241 40.671 27.4701C40.521 28.0791 40.361 28.6881 40.191 29.2921C39.831 30.5391 39.421 31.7671 38.951 32.9761C38.111 35.1681 37.091 37.2881 35.961 39.3491C35.911 39.1121 35.8611 38.8751 35.8111 38.6371C35.7111 38.0981 35.6111 37.5571 35.5311 37.0141C35.3811 35.9641 35.281 34.9071 35.171 33.8521C35.821 33.1451 36.4812 32.4411 37.1312 31.7291ZM30.3811 43.3661C30.3011 42.1381 30.3312 40.9161 30.3312 39.6901C31.6512 37.7321 33.2212 35.9601 34.8312 34.2201C34.8512 35.1511 34.9411 36.0781 35.0611 37.0001C35.1411 37.5661 35.2312 38.1301 35.3412 38.6921C35.4112 39.1051 35.4612 39.5971 35.6012 40.0201C35.5912 40.0331 35.5812 40.0471 35.5712 40.0601C34.1612 42.5751 32.6012 44.9971 30.9612 47.3741C30.8712 46.8101 30.7211 46.2441 30.6411 45.6831C30.5211 44.9151 30.4411 44.1421 30.3811 43.3661ZM29.0812 41.7651C29.3412 41.2731 29.6211 40.7981 29.9211 40.3301C29.8611 41.3411 29.9011 42.3671 29.9811 43.3591C30.0411 44.0811 30.1211 44.8011 30.2311 45.5171C30.2911 45.9101 30.3611 46.3011 30.4311 46.6911C30.5011 47.0521 30.5511 47.4421 30.6711 47.7911C29.2911 49.7931 27.8611 51.7661 26.4411 53.7341C26.2411 49.5971 27.1312 45.4291 29.0812 41.7651ZM30.1511 21.4541C29.7711 23.1201 29.0411 24.6611 28.1511 26.1121C27.2511 27.5981 26.2111 29.0001 25.1611 30.3931C25.6211 27.7211 26.1111 25.0541 26.6211 22.3891C26.9811 22.2871 27.3511 22.0511 27.6611 21.8701C28.0611 21.6441 28.4311 21.3901 28.8011 21.1201C29.3611 20.7071 29.9011 20.2541 30.3911 19.7571C30.3511 20.3271 30.2711 20.8941 30.1511 21.4541ZM30.4311 19.0631C29.8311 19.6781 29.2111 20.2611 28.5111 20.7681C28.1711 21.0201 27.8111 21.2541 27.4411 21.4781C27.2111 21.6171 26.9612 21.7371 26.7112 21.8751C27.4412 18.0901 28.1911 14.3101 28.9811 10.5361C29.1211 9.87112 29.2711 9.20812 29.4111 8.54412C29.4711 11.0751 30.0211 13.5971 30.2911 16.1171C30.4011 17.0911 30.4611 18.0801 30.4311 19.0631ZM26.6611 9.66011C27.4911 8.39311 28.4611 7.22111 29.5311 6.15111C29.5111 6.29911 29.4911 6.44812 29.4811 6.59612C28.6611 10.0301 27.8911 13.4751 27.1611 16.9291C27.1511 16.9131 27.1511 16.8971 27.1411 16.8811C27.0211 16.6611 26.9011 16.4391 26.7911 16.2141C26.5611 15.7341 26.3411 15.2451 26.1511 14.7471C25.8111 13.8851 25.5411 12.9961 25.2711 12.1091C25.6811 11.2661 26.1411 10.4461 26.6611 9.66011ZM23.1611 19.5741C23.3811 17.1301 24.0512 14.7491 25.0812 12.5301C25.2412 13.3571 25.4711 14.1611 25.7711 14.9551C25.9511 15.4241 26.1411 15.8861 26.3511 16.3411C26.4611 16.5681 26.5711 16.7931 26.6811 17.0161C26.7811 17.2141 26.8711 17.4201 27.0311 17.5711C26.4811 20.1711 25.9711 22.7781 25.4711 25.3891C25.3911 25.2771 25.3011 25.1691 25.2211 25.0581C25.0911 24.8771 24.9612 24.6931 24.8412 24.5071C24.5812 24.1081 24.3411 23.6991 24.1111 23.2791C23.7211 22.5551 23.3812 21.7991 23.0712 21.0331C23.0812 20.5451 23.1111 20.0581 23.1611 19.5741ZM24.0712 28.2851C23.7912 27.3611 23.5611 26.4181 23.4011 25.4661C23.1911 24.2971 23.0912 23.1111 23.0812 21.9241C23.2712 22.4361 23.4911 22.9361 23.7511 23.4261C23.9811 23.8621 24.2211 24.2891 24.4911 24.7041C24.6211 24.9181 24.7711 25.1291 24.9111 25.3371C25.0511 25.5261 25.1811 25.7541 25.3511 25.9021C25.3611 25.9071 25.3711 25.9051 25.3711 25.9101C25.1311 27.2341 24.8711 28.5571 24.6411 29.8831C24.6111 29.8171 24.5811 29.7511 24.5611 29.6851C24.3811 29.2231 24.2212 28.7561 24.0712 28.2851ZM9.79112 19.9201C10.2111 21.0271 10.6412 22.1291 11.0912 23.2311C11.0812 23.2441 11.0712 23.2521 11.0712 23.2661C11.0312 23.6151 11.0911 23.9761 11.1011 24.3261C11.1111 24.6351 11.1211 24.9451 11.1211 25.2541C11.1211 25.8731 11.1211 26.4911 11.1111 27.1101C11.0911 28.3911 11.0412 29.6721 10.9612 30.9521C10.8312 33.2581 10.6311 35.5691 10.3011 37.8581C9.95113 37.1691 9.61112 36.4741 9.29112 35.7691C7.36112 31.5281 5.99114 27.0501 5.18114 22.4701C5.19114 22.4641 5.19116 22.4641 5.20116 22.4571C5.41116 22.1251 5.53113 21.7371 5.67113 21.3681C5.81113 20.9681 5.96117 20.5651 6.09117 20.1621C6.37117 19.3341 6.63107 18.4991 6.86107 17.6561C7.09107 16.8341 7.30107 16.0071 7.48107 15.1751C7.57107 14.7871 7.65107 14.3971 7.73107 14.0071C8.34107 16.0041 9.05112 17.9761 9.79112 19.9201ZM5.47106 1.09511C5.52106 5.21511 6.32107 9.25111 7.48107 13.1901C7.44107 13.4201 7.41108 13.6521 7.37108 13.8781C7.29108 14.2971 7.20107 14.7141 7.11107 15.1311C6.93107 15.9431 6.73109 16.7511 6.51109 17.5531C6.29109 18.3551 6.06113 19.1521 5.80113 19.9431C5.67113 20.3491 5.5311 20.7521 5.3911 21.1541C5.2911 21.4251 5.18117 21.6971 5.09117 21.9741C4.63117 19.1981 4.37116 16.3861 4.33116 13.5671C4.26116 9.37613 4.68106 5.20811 5.47106 1.09511ZM1.58116 12.7381C2.02116 10.5851 2.59111 8.45911 3.28111 6.37111C3.78111 4.82511 4.38107 3.31711 4.98107 1.81011C3.37107 9.04011 3.42117 16.6801 4.84117 23.9261C5.07117 25.0881 5.3411 26.2411 5.6411 27.3851C5.3211 26.9191 4.98114 26.4591 4.68114 25.9851C4.15114 25.1611 3.64112 24.3191 3.16112 23.4671C2.68112 22.6331 2.23113 21.7841 1.80113 20.9271C1.59113 20.4991 1.38114 20.0671 1.18114 19.6331C1.03114 19.3241 0.901085 19.0031 0.751085 18.6981C0.901085 16.6981 1.18116 14.7061 1.58116 12.7381ZM2.78111 35.3551C0.991114 30.2331 0.371148 24.8191 0.691148 19.4411C0.731148 19.5261 0.771143 19.6121 0.811143 19.6971C1.01114 20.1571 1.21114 20.6131 1.43114 21.0661C1.85114 21.9531 2.30111 22.8231 2.78111 23.6801C3.25111 24.5371 3.76112 25.3761 4.29112 26.1991C4.82112 27.0051 5.33107 27.8871 5.98107 28.5971C7.29107 33.1121 9.18114 37.4541 11.5611 41.5031C11.4811 41.4771 11.4012 41.4531 11.3312 41.4261C10.9012 41.2801 10.4711 41.1191 10.0511 40.9461C9.18113 40.5881 8.33109 40.1741 7.51109 39.7121C6.02109 38.8751 4.62113 37.8621 3.30113 36.7631C3.12113 36.2971 2.94111 35.8281 2.78111 35.3551ZM8.20116 45.2351C6.29116 42.8761 4.76116 40.2211 3.58116 37.4241C4.71116 38.4441 5.95111 39.3281 7.28111 40.0861C8.09111 40.5441 8.9211 40.9531 9.7711 41.3161C10.2211 41.5081 10.6811 41.6861 11.1411 41.8501C11.3711 41.9321 11.6712 42.0781 11.9512 42.1541C12.4012 42.8991 12.8711 43.6371 13.3611 44.3601C14.6311 46.2561 16.0311 48.0691 17.5311 49.7951C13.7611 50.6621 10.4312 47.9931 8.20116 45.2351ZM18.1511 49.4711C15.1711 46.0591 12.6011 42.2891 10.5111 38.2601C10.8711 35.8341 11.1812 33.4071 11.3312 30.9581C11.4112 29.6791 11.4611 28.3981 11.4811 27.1161C11.4911 26.4531 11.4911 25.7901 11.4911 25.1271C11.4911 24.8531 11.5011 24.5701 11.5111 24.2871C13.4411 29.0711 15.4111 33.8441 16.7311 38.8381C17.2011 40.6551 17.6011 42.4921 17.8511 44.3551C18.0711 46.0601 18.1311 47.7591 18.1511 49.4711ZM13.2411 77.3831C14.5611 80.3571 15.5011 83.4861 16.3011 86.6331C16.3811 86.9161 16.4411 87.2001 16.5111 87.4831C16.5011 87.4901 16.4811 87.4951 16.4711 87.5061C16.1711 87.7621 16.1111 88.3381 15.9911 88.6961C15.8411 89.1531 15.6911 89.6131 15.5511 90.0761C15.2811 90.9811 15.0412 91.8971 14.8312 92.8191C14.5112 94.2541 14.2811 95.7031 14.1211 97.1631C13.5511 95.9311 13.0011 94.6881 12.4811 93.4331C10.4611 88.5691 8.78108 83.5731 7.12108 78.5751C7.30108 77.1821 7.4611 75.7931 7.7711 74.4191C8.0711 73.0541 8.48106 71.7161 8.98106 70.4101C10.7211 72.4981 12.1311 74.8821 13.2411 77.3831ZM2.72106 65.3601C2.76106 65.3491 2.79115 65.3301 2.82115 65.3051C2.83115 65.2931 2.84106 65.2771 2.85106 65.2631C5.12106 66.5141 7.07106 68.1791 8.73106 70.1141C8.73106 70.1231 8.72106 70.1291 8.72106 70.1391C8.16106 71.5351 7.7211 72.9711 7.3911 74.4371C7.1411 75.5241 6.94106 76.6411 6.85106 77.7601C6.61106 77.0531 6.3811 76.3461 6.1411 75.6401C5.5311 73.7781 4.9011 71.9201 4.2711 70.0611C3.7411 68.4931 3.24111 66.9111 2.65111 65.3621C2.68111 65.3651 2.70106 65.3671 2.72106 65.3601ZM3.48107 76.5531C3.24107 73.3451 3.06107 70.1151 2.73107 66.9111C3.02107 67.8551 3.32107 68.7951 3.61107 69.7361C4.14107 71.4101 4.65115 73.0871 5.19115 74.7591C6.17115 77.8631 7.15113 80.9701 8.17113 84.0611C8.70113 85.6431 9.24114 87.2211 9.81114 88.7911C9.78114 88.7691 9.76106 88.7461 9.73106 88.7241C9.49106 88.5031 9.24106 88.2871 8.98106 88.0771C8.47106 87.6541 7.9411 87.2531 7.3911 86.8761C6.8511 86.5011 6.29106 86.1471 5.72106 85.8221C5.43106 85.6591 5.13117 85.5081 4.84117 85.3621C4.63117 85.2591 4.39111 85.1191 4.15111 85.0801C3.91111 82.2391 3.70107 79.3951 3.48107 76.5531ZM6.0211 95.3861C4.9611 92.6861 4.56113 89.7561 4.30113 86.8821C4.25113 86.4091 4.22114 85.9351 4.18114 85.4611C4.31114 85.5441 4.46117 85.6121 4.59117 85.6821C4.88117 85.8391 5.16116 86.0041 5.45116 86.1701C6.00116 86.4951 6.55116 86.8361 7.08116 87.2041C7.62116 87.5791 8.15111 87.9761 8.65111 88.3961C8.91111 88.6071 9.16111 88.8231 9.40111 89.0441C9.62111 89.2431 9.85108 89.5361 10.1211 89.6591C10.1211 89.6611 10.1311 89.6591 10.1311 89.6611C11.5611 93.5321 13.1712 97.3391 15.0912 100.991C15.0812 100.98 15.0611 100.969 15.0511 100.959C14.6411 100.662 14.2311 100.369 13.8111 100.08C12.9811 99.5021 12.1511 98.9411 11.2911 98.3971C9.60112 97.3141 7.87112 96.2261 6.04112 95.3871C6.03112 95.3841 6.0311 95.3881 6.0211 95.3861ZM16.2511 105.91C14.8511 105.091 13.4812 104.217 12.2012 103.228C9.79116 101.372 7.69111 99.0731 6.40111 96.2941C6.32111 96.1151 6.25113 95.9311 6.17113 95.7501C7.81113 96.7521 9.48117 97.6821 11.0912 98.7291C11.9412 99.2801 12.7811 99.8481 13.6011 100.434C13.9911 100.714 14.3811 100.999 14.7711 101.287C15.0411 101.483 15.3012 101.714 15.5812 101.903C16.6012 103.778 17.7011 105.634 18.9211 107.396C18.0311 106.907 17.1311 106.425 16.2511 105.91ZM19.9011 107.267C18.6711 105.503 17.5111 103.697 16.4711 101.804C15.7111 100.437 15.0112 99.0451 14.3412 97.6351C14.5312 96.0061 14.8011 94.3851 15.1811 92.7891C15.3911 91.8901 15.6411 90.9981 15.9111 90.1161C16.0511 89.6751 16.1911 89.2361 16.3511 88.8001C16.4311 88.5741 16.5711 88.3241 16.6611 88.0741C17.3511 90.8871 17.9512 93.7211 18.4512 96.5731C19.0812 100.115 19.5811 103.684 19.9011 107.267ZM57.1312 145.989C54.7112 149.406 51.7512 152.383 48.8212 155.358C45.8412 158.384 42.8511 161.454 40.5211 165.024C40.3411 165.307 40.1711 165.59 40.0211 165.879C40.1911 162.75 40.7411 159.665 41.5311 156.637C42.1111 156.304 42.641 155.89 43.181 155.507C43.751 155.101 44.3312 154.694 44.9012 154.288C46.0312 153.488 47.1611 152.682 48.2911 151.878C50.5611 150.258 52.8412 148.644 55.1212 147.031C55.9612 146.44 56.7912 145.848 57.6312 145.256C57.4612 145.502 57.3012 145.748 57.1312 145.989ZM61.9911 134.768C61.4511 138.246 60.061 141.444 58.201 144.39C53.821 147.512 49.4411 150.622 45.0611 153.74C44.4311 154.188 43.801 154.637 43.171 155.086C42.671 155.447 42.1412 155.792 41.6512 156.179C42.2112 154.094 42.891 152.037 43.661 150.015C43.741 149.996 43.8011 149.936 43.7911 149.829C43.7811 149.793 43.7811 149.757 43.7711 149.72C44.1911 148.631 44.6412 147.552 45.1012 146.484C45.7912 144.891 46.5311 143.318 47.2911 141.756C47.7011 141.498 48.0811 141.19 48.4711 140.885C48.9611 140.504 49.451 140.13 49.951 139.764C50.931 139.047 51.921 138.357 52.941 137.694C54.951 136.378 57.041 135.174 59.181 134.09C60.181 133.585 61.2011 133.114 62.2211 132.662C62.1711 133.365 62.1011 134.068 61.9911 134.768ZM60.6412 111.807C60.6412 111.816 60.6412 111.824 60.6412 111.833C60.6812 112.937 60.7612 114.038 60.8612 115.138C61.0612 117.336 61.3612 119.524 61.6412 121.714C62.0812 125.16 62.4611 128.669 62.2511 132.148C57.9611 134.027 53.8712 136.362 50.0812 139.131C49.5512 139.518 49.0311 139.913 48.5111 140.316C48.2211 140.54 47.931 140.76 47.661 140.995C49.201 137.842 50.841 134.731 52.431 131.6C52.451 131.582 52.4711 131.563 52.4811 131.532C52.4811 131.519 52.4811 131.503 52.4911 131.49C53.5611 129.39 54.6112 127.282 55.6012 125.143C56.5112 123.163 57.3812 121.159 58.1512 119.118C58.8212 117.359 59.441 115.565 59.911 113.736C59.971 113.722 60.0311 113.679 60.0611 113.593C60.2811 113.004 60.4612 112.407 60.6412 111.807ZM52.3312 119.102C55.0212 116.674 57.7512 114.258 60.0812 111.481C60.0812 111.478 60.0812 111.475 60.0812 111.472C59.9912 111.877 59.8911 112.28 59.8011 112.687C59.2011 114.562 58.621 116.443 57.921 118.289C57.221 120.175 56.4412 122.034 55.6112 123.87C54.6412 126.015 53.6011 128.127 52.5311 130.228C52.5311 130.173 52.5311 130.116 52.5311 130.063C52.5211 129.542 52.5011 129.021 52.4911 128.5C52.4611 127.458 52.4212 126.416 52.4012 125.374C52.3812 124.332 52.3712 123.291 52.3612 122.249C52.3412 121.211 52.3912 120.161 52.3412 119.124C52.3412 119.114 52.3312 119.109 52.3312 119.102ZM42.9012 129.026C45.2212 125.773 48.0911 122.977 51.0211 120.29C51.3111 120.028 51.6012 119.768 51.8812 119.507C51.8912 120.417 51.9511 121.332 51.9711 122.241C51.9911 123.283 52.0111 124.325 52.0311 125.367C52.0411 126.409 52.0411 127.45 52.0511 128.492C52.0511 128.99 52.0511 129.489 52.0611 129.987C52.0711 130.344 52.0312 130.752 52.0712 131.128C51.4912 132.266 50.9112 133.403 50.3212 134.539C47.9312 139.171 45.5612 143.845 43.6512 148.695C43.3512 146.371 42.9512 144.068 42.3812 141.792C42.0512 140.47 41.6711 139.159 41.2511 137.863C41.0411 137.215 40.8112 136.571 40.5812 135.93C40.3912 135.41 40.211 134.855 39.951 134.355C40.711 132.482 41.7112 130.704 42.9012 129.026ZM38.421 153.336C38.331 151.054 38.2811 148.769 38.2411 146.486C38.1911 144.308 38.2011 142.123 38.4811 139.959C38.7011 138.196 39.1411 136.506 39.7511 134.883C39.9011 135.312 40.0811 135.735 40.2311 136.155C40.4611 136.776 40.6712 137.4 40.8712 138.028C41.2712 139.284 41.631 140.553 41.951 141.834C42.581 144.352 43.0512 146.921 43.3312 149.501C42.4912 151.716 41.7412 153.969 41.1412 156.274C40.4012 159.068 39.9111 161.916 39.7311 164.789C38.9111 161.029 38.581 157.181 38.421 153.336ZM18.1011 139.277C18.0511 138.583 18.0012 137.889 17.9612 137.195C17.9412 136.753 17.9411 136.305 17.9211 135.859C18.3611 136.393 18.8111 136.929 19.2411 137.469C22.5911 141.627 25.7312 145.965 28.5912 150.476C28.6612 152.388 28.7911 154.356 29.1911 156.238C27.0711 153.967 25.0411 151.622 23.1011 149.204C21.4911 147.206 19.9512 145.164 18.4612 143.082C18.3212 141.816 18.2011 140.547 18.1011 139.277ZM9.72106 126.726C10.8411 127.881 11.9411 129.056 13.0211 130.243C14.5411 131.897 16.0212 133.584 17.4612 135.303C17.4612 135.929 17.5312 136.567 17.5712 137.188C17.6212 137.905 17.6711 138.622 17.7411 139.338C17.8311 140.418 17.9611 141.495 18.1011 142.57C15.9011 139.465 13.8311 136.269 11.9111 132.976C10.2211 130.082 8.6311 127.128 7.1411 124.128C7.9911 125.002 8.87106 125.851 9.72106 126.726ZM16.0511 148.126C15.7811 147.602 15.5111 147.072 15.2611 146.535C13.7011 143.15 12.5311 139.587 11.2711 136.086C10.4811 133.901 9.70111 131.715 8.90111 129.536C8.49111 128.424 8.08113 127.313 7.67113 126.202C7.52113 125.786 7.37117 125.367 7.21117 124.951C9.73117 130.443 12.7011 135.716 16.0411 140.757C19.0011 145.235 22.2511 149.514 25.7611 153.574C25.6511 153.526 25.5511 153.479 25.4411 153.429C24.9911 153.21 24.5312 152.986 24.0812 152.757C23.1612 152.29 22.2412 151.804 21.3412 151.3C19.5512 150.301 17.8512 149.153 16.0812 148.137C16.0712 148.13 16.0611 148.13 16.0511 148.126ZM33.8412 162.42C32.4412 161.567 30.9811 160.812 29.5211 160.055C26.6611 158.567 23.7411 157.077 21.2811 154.966C19.2311 153.212 17.6411 151.047 16.3611 148.704C17.8711 149.83 19.5411 150.785 21.1711 151.702C22.0511 152.198 22.9511 152.675 23.8511 153.133C24.3011 153.362 24.7612 153.586 25.2112 153.805C25.6212 153.998 26.0211 154.214 26.4411 154.366C27.0111 155.014 27.5911 155.656 28.1711 156.292C29.4211 157.658 30.7111 158.997 32.0211 160.307C32.6611 160.948 33.311 161.582 33.961 162.209C34.241 162.476 34.5211 162.748 34.8011 163.015C34.4811 162.812 34.1612 162.614 33.8412 162.42ZM35.0211 161.573C35.1511 161.882 35.291 162.189 35.431 162.497C35.191 162.272 34.941 162.049 34.701 161.821C34.101 161.25 33.511 160.674 32.921 160.092C31.801 158.981 30.6911 157.848 29.6111 156.696C29.4711 155.663 29.2911 154.635 29.1811 153.598C29.0911 152.772 29.0311 151.943 28.9911 151.112C29.4411 151.825 29.8811 152.543 30.3111 153.265C31.2311 154.802 32.1411 156.343 33.0211 157.902C33.6911 159.096 34.3211 160.32 34.9911 161.515C35.0011 161.534 35.0111 161.554 35.0211 161.573ZM55.8812 85.5081C58.7612 85.2141 61.6812 85.2201 64.5712 85.3731C64.6412 85.3771 64.7211 85.3821 64.7911 85.3861C62.8611 85.8641 60.9511 86.4511 59.0611 87.0911C56.8711 87.8321 54.7112 88.6701 52.6412 89.6961C52.4612 89.7891 52.2812 89.8931 52.0912 89.9891C52.2512 89.7141 52.4112 89.4311 52.5812 89.1641C52.8912 88.6831 53.2212 88.2151 53.5912 87.7721C53.9312 87.3441 54.311 86.9351 54.701 86.5481C54.901 86.3541 55.1011 86.1681 55.3111 85.9861C55.4911 85.8251 55.7012 85.6761 55.8812 85.5081ZM50.421 86.4791C51.951 86.0741 53.5011 85.7981 55.0611 85.6061C54.8411 85.8051 54.631 86.0181 54.431 86.2131C54.021 86.6171 53.6311 87.0441 53.2611 87.4921C52.9011 87.9341 52.5611 88.3941 52.2511 88.8731C51.9611 89.3181 51.6411 89.7961 51.4811 90.3091C47.9311 92.2561 44.8211 94.8351 42.2611 97.9991C40.4811 100.188 38.981 102.563 37.681 105.048C37.771 104.614 37.8611 104.18 37.9711 103.749C38.2311 102.654 38.5111 101.564 38.8011 100.477C39.4011 98.2841 40.0711 96.1101 40.7811 93.9531C41.1611 92.8181 41.5312 91.6861 41.8912 90.5461C44.4312 88.6641 47.321 87.3031 50.421 86.4791ZM32.1112 104.183C33.7312 100.187 35.8912 96.3331 38.8712 93.1911C39.7012 92.3241 40.5811 91.5361 41.5211 90.8171C40.7311 92.7301 40.0711 94.6991 39.4711 96.6791C38.8111 98.8531 38.201 101.046 37.661 103.252C37.511 103.882 37.351 104.513 37.201 105.144C37.131 105.438 37.0611 105.733 36.9911 106.028C36.9411 106.241 36.8812 106.445 36.8712 106.656C36.3812 107.664 35.9311 108.686 35.4911 109.72C33.6011 114.251 32.1011 118.947 30.6611 123.638C30.4411 124.337 30.2311 125.038 30.0311 125.742C29.7311 121.575 29.4911 117.404 29.2211 113.235C29.9611 110.148 30.9212 107.107 32.1112 104.183ZM28.4311 131.963C27.3811 127.294 27.5111 122.443 28.3011 117.735C28.5011 116.508 28.7511 115.283 29.0211 114.063C29.2411 118.187 29.4911 122.31 29.6611 126.436C29.6711 126.524 29.7211 126.58 29.7811 126.61C29.2811 128.381 28.8111 130.164 28.4311 131.963ZM37.7711 124.514C35.6411 127.689 32.9711 130.401 29.6711 132.348C29.3511 132.541 29.0211 132.724 28.6811 132.899C28.7011 132.787 28.7211 132.675 28.7511 132.563C28.9911 131.408 29.2712 130.261 29.5712 129.119C29.9412 128.877 30.2711 128.577 30.6111 128.306C31.0311 127.966 31.4512 127.625 31.8612 127.281C32.7312 126.566 33.581 125.834 34.431 125.095C36.081 123.646 37.7211 122.166 39.3011 120.631C39.7611 120.179 40.241 119.731 40.701 119.278C39.841 121.083 38.8811 122.845 37.7711 124.514ZM43.3612 113.102C42.6512 114.875 41.9212 116.648 41.1212 118.387C40.5712 118.94 40.011 119.497 39.441 120.036C38.641 120.793 37.8411 121.546 37.0311 122.291C35.4111 123.781 33.7511 125.231 32.0611 126.65C31.6011 127.039 31.1411 127.429 30.6711 127.814C30.3711 128.067 30.0311 128.312 29.7211 128.573C30.0011 127.563 30.2812 126.558 30.5812 125.556C31.3812 122.906 32.2212 120.258 33.1212 117.633C33.9812 117.027 34.7712 116.32 35.5812 115.655C36.4712 114.915 37.3711 114.175 38.2711 113.434C40.0611 111.952 41.8512 110.471 43.6512 108.991C44.3512 108.411 45.0511 107.829 45.7511 107.248C44.9211 109.182 44.1412 111.147 43.3612 113.102ZM56.191 92.5501C54.591 93.8121 53.1111 95.1991 51.8111 96.7691C50.5411 98.3001 49.441 99.9591 48.461 101.689C47.621 103.18 46.871 104.718 46.181 106.279C42.701 109.166 39.2211 112.059 35.7611 114.957C34.9611 115.618 34.1312 116.256 33.3612 116.949C33.9712 115.212 34.5911 113.483 35.2711 111.777C36.9511 107.547 39.0111 103.423 41.7211 99.7571C43.4211 97.4731 45.3812 95.4251 47.5912 93.6781C48.3112 93.4881 49.0111 93.2061 49.7211 93.0061C50.5811 92.7671 51.4412 92.5591 52.3212 92.3951C53.8512 92.1081 55.4111 91.9681 56.9711 91.9481C56.7111 92.1491 56.451 92.3461 56.191 92.5501ZM57.6512 91.4411C57.6412 91.4401 57.6412 91.4361 57.6312 91.4361C55.8312 91.4191 54.0311 91.5811 52.2611 91.9151C51.3811 92.0801 50.521 92.2861 49.671 92.5441C49.341 92.6421 49.011 92.7441 48.671 92.8531C49.571 92.2081 50.5111 91.6111 51.4811 91.0681C53.4811 89.9551 55.5911 89.0481 57.7411 88.2641C59.8911 87.4761 62.1011 86.8601 64.2811 86.1441C64.6611 86.0171 65.051 85.8851 65.431 85.7541C62.961 87.8111 60.2412 89.5361 57.6512 91.4411Z" fill="#4D4C51"/>
</svg>
