<svg width="60" height="155" viewBox="0 0 60 155" fill="none" xmlns="http://www.w3.org/2000/svg">
<path d="M33.1401 65.5419C33.3701 64.5279 33.5901 63.5129 33.8001 62.4969C34.0101 62.4929 34.2301 62.4889 34.4401 62.4449C34.7201 62.3859 35.0001 62.3279 35.2801 62.2549C35.8401 62.1069 36.3901 61.9429 36.9401 61.7549C38.0301 61.3809 39.0902 60.9369 40.1202 60.4239C42.1802 59.3949 44.1202 58.0809 45.8702 56.5789C49.3702 53.5669 52.1701 49.7239 53.8901 45.4289C54.7701 43.2289 55.3902 40.8789 55.6102 38.5159C55.8502 35.9989 55.3401 33.0489 52.9201 31.7089C50.5101 30.3679 47.8302 31.8919 46.1102 33.6489C44.2402 35.5599 42.8902 37.8809 41.7402 40.2749C40.4602 42.9119 39.3402 45.6249 38.2102 48.3229C37.1002 50.9699 36.0202 53.6299 34.9702 56.3019C35.5802 52.7069 36.0501 49.0739 36.3101 45.4309C36.3201 45.4299 36.3202 45.4309 36.3302 45.4289C36.5602 45.3349 36.7301 45.0939 36.9001 44.9039C37.0901 44.6759 37.2702 44.4359 37.4502 44.1929C37.8102 43.6959 38.1701 43.1959 38.5201 42.6859C38.8601 42.1899 39.1902 41.6909 39.5002 41.1819C39.8002 40.7069 40.1501 40.1819 40.2801 39.6319C40.3101 39.5179 40.1502 39.4469 40.0702 39.5159C39.6402 39.8809 39.3301 40.4249 39.0201 40.8899C38.7401 41.3049 38.4701 41.7209 38.1901 42.1339C38.1801 41.6879 38.1101 41.2499 38.0301 40.8099C37.9501 40.3329 37.8702 39.8529 37.7102 39.3929C37.6802 39.3069 37.5301 39.3279 37.5301 39.4209C37.5301 39.9059 37.6101 40.3849 37.6801 40.8639C37.7601 41.3289 37.8402 41.7889 37.9902 42.2369C37.9902 42.2439 37.9902 42.2509 37.9902 42.2579V42.2599C38.0002 42.2679 38.0002 42.2769 38.0002 42.2849C38.0002 42.2849 38.0002 42.2829 38.0102 42.2809C38.0202 42.3029 38.0401 42.3189 38.0601 42.3279C38.0501 42.3469 38.0301 42.3669 38.0201 42.3859C37.6901 42.8679 37.3601 43.3489 37.0301 43.8249C36.8601 44.0699 36.6801 44.3129 36.5201 44.5659C36.5101 44.5839 36.4902 44.6039 36.4802 44.6229C36.4402 44.5659 36.4102 44.5059 36.3802 44.4509C36.5602 41.4599 36.6001 38.4639 36.4401 35.4769C36.6001 35.0819 36.7102 34.6719 36.8702 34.2799C37.0502 33.8389 37.2602 33.4099 37.4802 32.9879C37.9402 32.1219 38.4702 31.3169 39.0802 30.5499C39.1802 30.4159 38.9702 30.2719 38.8602 30.3959C38.2002 31.1389 37.6102 31.9599 37.1002 32.8179C36.8602 33.2359 36.6401 33.6689 36.4401 34.1069C36.4201 34.1509 36.4002 34.1959 36.3702 34.2409C36.3002 33.1719 36.2002 32.1039 36.0802 31.0379C36.7202 29.9899 37.2802 28.8759 37.8402 27.7889C38.5102 26.5029 39.1701 25.2109 39.8001 23.9049C40.4301 22.5839 41.0502 21.2519 41.6302 19.9059C42.1902 18.6039 42.7701 17.2889 43.1701 15.9259C43.5401 14.6789 43.7702 13.3309 43.4902 12.0409C43.2302 10.8739 42.5501 9.85885 41.5501 9.19485C41.2701 9.00385 40.9701 8.84887 40.6601 8.72287C40.6201 8.68187 40.5602 8.65986 40.5002 8.66086C38.6702 7.97386 36.6002 8.37987 35.0102 9.59387C33.1702 11.0069 32.2402 13.2049 32.0102 15.4649C31.9202 15.2599 31.8302 15.0589 31.7402 14.8549C31.6802 14.5619 31.6202 14.2689 31.5702 13.9749C31.5302 13.7539 31.4902 13.5329 31.4602 13.3109C31.4802 13.2959 31.4902 13.2789 31.5102 13.2549C32.1402 12.1489 32.7302 11.0269 33.3802 9.93185C34.0302 8.83785 34.7002 7.75286 35.3802 6.67886C35.4802 6.51386 35.2402 6.33386 35.1302 6.49786C33.7702 8.45786 32.4702 10.4939 31.3402 12.5999C31.2802 12.1579 31.2201 11.7149 31.1701 11.2689C30.9701 9.45886 30.8901 7.63886 30.8101 5.82086C30.8001 5.69486 30.5902 5.69986 30.5902 5.82486C30.5102 7.66086 30.6202 9.49688 30.8202 11.3229C30.9002 12.0299 30.9902 12.7359 31.0902 13.4409C29.1202 9.34886 26.5702 5.55588 23.3602 2.36188C22.5502 1.55688 21.6902 0.798862 20.8202 0.0708621C20.5102 -0.183138 20.1602 0.307881 20.4502 0.564881C22.1502 2.05588 23.6902 3.68887 25.0902 5.42587C25.0402 5.81487 25.1101 6.24487 25.1401 6.62787C25.1601 7.10687 25.1902 7.58587 25.2302 8.06387C25.2602 8.58487 25.3002 9.10585 25.3402 9.62585C24.9202 8.82985 24.5002 8.03388 24.0802 7.24088C23.4702 6.09788 22.8502 4.95788 22.2202 3.82288C21.9002 3.23588 21.5702 2.65185 21.2402 2.06985C20.9302 1.51585 20.6402 0.925859 20.2302 0.436859C20.2302 0.430859 20.2202 0.431857 20.2202 0.427857C20.2102 0.388857 20.2102 0.350859 20.2102 0.311859C20.2002 0.0568594 19.8001 0.079855 19.7701 0.319855C19.6301 1.47985 19.7001 2.68386 19.7901 3.84586C19.8901 5.02986 20.0702 6.20888 20.3202 7.37088C20.8102 9.68288 21.5602 11.9389 22.5002 14.1069C24.4202 18.5469 27.1402 22.5909 30.0802 26.4089C31.7602 28.5819 33.5201 30.6909 35.2801 32.7989C35.3501 32.8869 35.4401 32.9199 35.5301 32.9189C35.7601 35.4769 35.8401 38.0459 35.8001 40.6159C35.7301 40.3939 35.6502 40.1729 35.5702 39.9529C35.2002 38.8879 34.7402 37.8499 34.2202 36.8469C33.2002 34.8659 31.9201 33.0139 30.4201 31.3529C29.8801 30.7449 29.2901 30.1709 28.6901 29.6149C28.6601 29.4809 28.6302 29.3469 28.5802 29.2169C28.5302 29.0489 28.3302 29.0939 28.2602 29.2179C27.3202 28.3899 26.3301 27.6229 25.2901 26.9399C23.3801 25.6949 21.2802 24.6369 19.0802 24.0209C17.8702 23.6799 16.5702 23.4819 15.3202 23.7479C14.2602 23.9719 13.3402 24.5119 12.6102 25.3109C11.2402 26.8259 10.7601 29.0979 11.1401 31.0769C11.6001 33.5149 13.2201 35.5529 15.0201 37.1769C16.7901 38.7719 18.8001 40.1079 20.8901 41.2399C25.0101 43.4709 29.6201 44.8379 34.2901 45.1639C34.7301 45.1949 35.1702 45.1989 35.6102 45.1839C35.3802 48.4679 34.9802 51.7419 34.4602 54.9889C34.3102 54.7179 34.1701 54.4469 34.0301 54.1699C33.7201 53.5379 33.4301 52.8909 33.1701 52.2369C32.6301 50.9049 32.1601 49.5359 31.7901 48.1469C31.7501 47.9959 31.5101 48.0259 31.5401 48.1849C31.8401 49.6069 32.2302 50.9989 32.7502 52.3569C33.0002 53.0369 33.2902 53.7059 33.5902 54.3679C33.7402 54.6979 33.8901 55.0289 34.0601 55.3539C34.1401 55.5119 34.2202 55.6869 34.3202 55.8439C34.2802 56.1299 34.2401 56.4179 34.1901 56.7039C33.8301 58.7749 33.4202 60.8349 33.0002 62.8909C32.9902 62.8729 32.9902 62.8539 32.9802 62.8369C32.8802 62.5689 32.7601 62.3039 32.6501 62.0409C32.4101 61.4979 32.1601 60.9639 31.9001 60.4339C31.3801 59.3879 30.8001 58.3749 30.1801 57.3869C29.7401 56.6899 29.2701 56.0129 28.7801 55.3459C28.7801 55.3389 28.7701 55.3309 28.7701 55.3239C28.7701 55.3169 28.7602 55.3169 28.7502 55.3109C27.8902 54.1299 26.9602 52.9949 25.9702 51.9269C24.3702 50.2229 22.6202 48.6629 20.7302 47.2869C19.8002 46.6089 18.8402 45.9749 17.8502 45.3899C16.8502 44.8019 15.8202 44.1879 14.7202 43.8299C13.6402 43.4809 12.4501 43.4169 11.4301 43.9679C10.5001 44.4679 9.81012 45.3249 9.41012 46.2899C8.43012 48.6319 9.3302 51.1669 10.3702 53.3189C12.4402 57.5909 15.0801 61.8509 19.0201 64.6369C22.5401 67.1299 27.3502 68.2619 31.4802 66.6609C31.7402 66.5569 32.0102 66.4389 32.2602 66.3109C31.4802 69.8149 30.6401 73.3059 29.8101 76.7979C29.6701 77.1369 29.5401 77.4789 29.4201 77.8209C28.5101 76.5129 27.4401 75.3119 26.3101 74.1959C24.9601 72.8559 23.5001 71.6279 21.9401 70.5359C21.7201 70.3849 21.5001 70.2429 21.2801 70.0969C21.2301 69.9699 21.1602 69.8459 21.0702 69.7469C20.9802 69.6529 20.8401 69.6699 20.7701 69.7529C17.9601 67.9559 14.8801 66.5809 11.6501 65.7159C9.85011 65.2309 7.39019 64.5889 6.11019 66.4369C5.05019 67.9809 5.34013 70.1629 5.92013 71.8309C7.24013 75.6749 10.7902 78.2409 14.6102 79.2469C18.9302 80.3829 23.4002 79.7959 27.7202 78.9849C28.2402 78.8869 28.7701 78.7849 29.2901 78.6829C29.3101 78.7059 29.3302 78.7279 29.3402 78.7509C28.5902 81.9169 27.8501 85.0849 27.1801 88.2679C26.6001 91.0009 26.0801 93.7499 25.6401 96.5109C25.6401 95.9369 25.5802 95.3599 25.5002 94.7949C25.3702 93.8959 25.1602 93.0169 24.8702 92.1549C24.3002 90.4279 23.4102 88.7939 22.3302 87.3339C20.1802 84.4209 17.1002 82.1339 13.6202 81.0939C11.7402 80.5359 9.30017 80.2169 7.84017 81.8349C6.59017 83.2239 6.8901 85.3309 7.3901 86.9649C8.5001 90.5739 10.7602 93.7849 13.6302 96.2169C16.5002 98.6529 20.0401 100.323 23.7801 100.868C24.1801 100.927 24.5902 100.967 25.0002 100.997C24.6802 103.596 24.4502 106.204 24.3202 108.817C24.2302 108.516 24.1301 108.218 24.0301 107.926C23.5401 106.565 22.8402 105.276 22.0102 104.095C22.0002 104.019 21.9601 103.968 21.9001 103.939C21.8201 103.829 21.7401 103.714 21.6601 103.607C19.6701 101.001 16.6802 98.7289 13.3702 98.2499C11.7702 98.0199 10.1501 98.2889 8.81014 99.2029C7.63014 100.007 6.70014 101.299 6.56014 102.745C6.39014 104.578 7.4901 106.165 8.7701 107.362C10.0601 108.574 11.5702 109.58 13.1002 110.456C16.1102 112.172 19.4502 113.385 22.8802 113.875C22.9502 113.886 23.0202 113.889 23.1002 113.898C23.3102 114.146 23.5101 114.399 23.7701 114.601C23.8101 114.633 23.8601 114.646 23.9001 114.65C23.9201 114.7 23.9302 114.75 23.9502 114.8C23.9702 114.9 24.0402 114.989 24.1202 115.041C24.1602 115.196 24.1801 115.379 24.2701 115.519C24.3201 117.027 24.4101 118.536 24.5501 120.045C24.7901 122.554 25.1601 125.055 25.6501 127.534C25.6501 127.626 25.6501 127.718 25.6601 127.81C25.6601 127.825 25.6701 127.836 25.6701 127.85C25.5101 127.575 25.3401 127.303 25.1701 127.035C24.5501 126.054 23.8402 125.128 23.0802 124.254C21.5202 122.476 19.7201 120.911 17.8001 119.531C15.7901 118.085 13.6502 116.837 11.4502 115.684C10.3402 115.097 9.21016 114.536 8.08016 113.984C7.01016 113.465 5.95012 112.909 4.79012 112.626C3.74012 112.369 2.62014 112.386 1.68014 112.975C0.830139 113.512 0.310183 114.427 0.100183 115.394C-0.409817 117.756 1.12017 119.94 2.59017 121.624C5.23017 124.65 8.68015 126.945 12.4401 128.318C16.2201 129.694 20.3602 130.185 24.3402 129.559C24.8102 129.485 25.2802 129.394 25.7402 129.29C25.9002 129.564 26.0502 129.842 26.2002 130.124C27.8802 137.405 30.6101 144.456 34.3101 150.928C34.9501 152.044 35.6201 153.143 36.3101 154.228C36.3801 154.338 36.5702 154.219 36.5002 154.107C31.9702 146.731 28.6802 138.645 26.7602 130.225C26.7602 130.206 26.7602 130.188 26.7502 130.168C26.7502 130.163 26.7402 130.158 26.7402 130.153C26.7202 130.042 26.6901 129.932 26.6601 129.821C29.3401 128.848 31.8701 127.424 34.2701 125.914C36.7001 124.395 39.0001 122.689 41.1601 120.818C43.3101 118.96 45.3201 116.94 47.1701 114.783C48.0901 113.704 48.9701 112.591 49.8101 111.444C50.6401 110.316 51.4501 109.162 52.0601 107.899C52.6501 106.686 53.0101 105.355 52.9101 104C52.8201 102.809 52.3602 101.593 51.5002 100.744C51.2702 100.52 51.0301 100.334 50.7801 100.179C50.7701 99.9499 50.4702 99.7699 50.2202 99.8969C48.5002 99.1789 46.4302 99.7369 44.7502 100.553C43.5102 101.159 42.3301 101.916 41.1601 102.665C39.9301 103.46 38.7302 104.3 37.5702 105.196C35.2402 106.988 33.0902 109.011 31.2502 111.302C28.2302 115.065 26.0801 119.689 25.6701 124.529C25.5901 124.037 25.5202 123.545 25.4502 123.051C25.0102 119.745 24.8101 116.435 24.8101 113.13C28.7901 109.626 32.5002 105.825 35.9902 101.836C37.7702 99.8029 39.5001 97.7219 41.1601 95.5819C42.5401 93.7919 43.8801 91.8539 44.4301 89.6289C44.9301 87.6339 44.7601 84.9769 42.8901 83.7039C40.8001 82.2739 38.4101 83.8689 36.9301 85.4119C35.3101 87.0959 33.8802 89.0049 32.5702 90.9349C31.2302 92.9069 30.0202 94.9739 28.9702 97.1089C27.2102 100.641 25.8602 104.373 24.9502 108.209C25.0902 105.614 25.3501 103.024 25.6901 100.442C25.7001 100.397 25.7102 100.348 25.7002 100.294C26.1402 97.0229 26.7002 93.7629 27.3602 90.5239C28.1702 86.5689 29.0901 82.6389 30.0401 78.7139C31.4301 78.3849 32.7901 77.9459 34.1501 77.5159C35.6501 77.0449 37.1302 76.5419 38.6002 76.0049C41.4202 74.9769 44.1901 73.7989 46.8101 72.3409C49.2001 71.0139 51.4702 69.4639 53.5102 67.6359C54.5102 66.7329 55.4502 65.7619 56.3202 64.7269C57.1802 63.6959 58.0202 62.6009 58.5902 61.3789C59.1202 60.2499 59.4602 58.9229 59.0902 57.6939C58.7902 56.6469 57.9902 55.8249 56.9702 55.4469C54.9002 54.6789 52.5702 55.4609 50.6202 56.2209C47.4402 57.4619 44.4502 59.1789 41.7402 61.2559C41.6902 61.2539 41.6402 61.2629 41.5902 61.2979C41.5202 61.3469 41.4701 61.4149 41.4301 61.4889C40.3201 62.3559 39.2602 63.2779 38.2502 64.2629C35.4402 67.0179 33.0702 70.2079 31.2502 73.6939C31.8802 71.0599 32.5002 68.4239 33.0902 65.7799C33.1302 65.7109 33.1501 65.6299 33.1401 65.5419ZM40.9201 9.63986C41.8601 10.1939 42.5401 11.0769 42.7801 12.1509C43.0501 13.3689 42.8202 14.6419 42.4602 15.8159C42.2502 16.5059 42.0002 17.1839 41.7202 17.8559C41.5402 17.9329 41.3802 18.0709 41.2202 18.1819C41.0102 18.3199 40.8102 18.4599 40.6202 18.6029C40.2502 18.8679 39.8801 19.1399 39.5201 19.4199C38.9501 19.8649 38.4002 20.3349 37.8602 20.8249C38.3902 18.3869 38.9501 15.9549 39.5601 13.5359C39.7601 12.7539 39.9601 11.9729 40.1701 11.1919C40.3101 10.6399 40.5201 10.0679 40.6401 9.49588C40.7301 9.53988 40.8301 9.58586 40.9201 9.63986ZM34.8901 10.6489C36.2801 9.30886 38.2902 8.65088 40.1102 9.26788C39.9302 9.78588 39.8201 10.3469 39.6901 10.8639C39.5101 11.5409 39.3301 12.2189 39.1601 12.8979C38.8101 14.2579 38.4801 15.6219 38.1601 16.9889C38.1501 17.0379 38.1402 17.0879 38.1302 17.1369C37.8002 16.7119 37.5202 16.2329 37.2402 15.7899C36.8902 15.2559 36.5502 14.7179 36.2102 14.1829C35.8802 13.6659 35.5402 13.1489 35.2102 12.6329C34.9202 12.1859 34.6502 11.7089 34.3302 11.2819C34.5002 11.0599 34.6901 10.8489 34.8901 10.6489ZM34.1002 11.6019C34.3202 11.9819 34.5701 12.3449 34.8001 12.7099C35.1401 13.2479 35.4802 13.7859 35.8202 14.3239C36.1502 14.8419 36.4801 15.3609 36.8101 15.8789C37.1601 16.4259 37.5602 16.9859 37.8402 17.5719C37.8802 17.6489 37.9402 17.6889 38.0002 17.7039C37.6402 19.2719 37.3002 20.8449 36.9702 22.4209C36.7102 22.0079 36.3902 21.6089 36.1202 21.2159C35.7302 20.6479 35.3201 20.0859 34.9101 19.5309C34.2001 18.5879 33.4801 17.6449 32.6801 16.7749C32.6801 14.9599 33.0702 13.0939 34.1002 11.6019ZM35.6002 27.7249C34.9802 24.2409 34.0501 20.7479 32.7801 17.3839C33.3901 18.1529 34.0102 18.9139 34.5902 19.7049C34.9902 20.2459 35.3802 20.7939 35.7602 21.3509C35.9402 21.6299 36.1301 21.9099 36.3101 22.1919C36.4901 22.4729 36.6502 22.7809 36.8402 23.0509C36.6902 23.8119 36.5301 24.5719 36.3901 25.3349C36.1601 26.5309 35.9701 27.7259 35.7901 28.9269C35.7301 28.5259 35.6702 28.1249 35.6002 27.7249ZM37.6501 21.7759C37.6801 21.6229 37.7202 21.4699 37.7502 21.3169C38.4102 20.7709 39.0702 20.2229 39.7502 19.7019C40.1102 19.4249 40.4802 19.1529 40.8502 18.8889C41.0402 18.7569 41.2201 18.6259 41.4101 18.4979C41.4301 18.4819 41.4602 18.4669 41.4802 18.4509C41.3402 18.7999 41.1901 19.1489 41.0401 19.4949C40.5101 20.7419 39.9502 21.9759 39.3702 23.1999C38.7202 24.5759 38.0502 25.9419 37.3702 27.3039C36.9002 28.2339 36.4102 29.1609 35.9602 30.1069C35.9602 30.0869 35.9502 30.0669 35.9502 30.0459C36.5602 27.2989 37.0601 24.5289 37.6501 21.7759ZM25.6801 7.99387C25.6501 7.53287 25.6202 7.07288 25.5802 6.61188C25.5702 6.41088 25.5601 6.19986 25.5501 5.98886C28.3301 9.56586 30.5102 13.5849 32.1302 17.8329C32.0202 18.3689 31.9302 18.9109 31.8202 19.4419C31.7402 19.8729 31.6502 20.3039 31.5702 20.7349C31.5002 21.0769 31.3902 21.4539 31.3802 21.8129C31.0602 21.1179 30.7301 20.4219 30.4001 19.7299C28.9401 16.6629 27.4202 13.6219 25.8502 10.6049C25.8002 9.73386 25.7401 8.86387 25.6801 7.99387ZM21.1102 8.12186C20.8002 6.86286 20.5601 5.58386 20.4101 4.29486C20.2901 3.22086 20.2702 2.14986 20.2402 1.07486C20.4102 1.43186 20.6201 1.77587 20.8101 2.12387C21.0901 2.63487 21.3701 3.14687 21.6501 3.65787C22.2101 4.67987 22.7601 5.70586 23.3101 6.73486C24.0301 8.07086 24.7301 9.41588 25.4201 10.7629C25.4201 10.8019 25.4201 10.8409 25.4301 10.8799C25.4301 10.9809 25.4902 11.0349 25.5702 11.0539C25.8802 11.6659 26.1902 12.2759 26.5002 12.8899C26.7602 13.4079 27.0201 13.9299 27.2701 14.4489C27.0201 14.2649 26.7602 14.0759 26.5002 13.8949C25.9902 13.5389 25.4701 13.1959 24.9401 12.8669C24.0101 12.2859 23.0501 11.7359 22.0601 11.2669C21.6901 10.2359 21.3702 9.18786 21.1102 8.12186ZM27.0201 20.9769C25.1001 18.0729 23.4302 14.9779 22.2202 11.7099C23.0802 12.1819 23.9401 12.6579 24.7701 13.1849C25.2601 13.4909 25.7302 13.8089 26.2002 14.1379C26.7102 14.4909 27.2301 14.8449 27.6701 15.2769C27.6701 15.2839 27.6801 15.2849 27.6901 15.2909C29.1701 18.3269 30.5802 21.3959 31.9602 24.4779C31.7302 24.3399 31.5001 24.1879 31.2701 24.0409C30.8101 23.7459 30.3501 23.4509 29.8901 23.1559C29.0901 22.6469 28.2902 22.1419 27.4802 21.6549C27.3202 21.4299 27.1701 21.2049 27.0201 20.9769ZM27.8502 22.2109C28.4802 22.6279 29.1002 23.0389 29.7302 23.4459C30.1902 23.7429 30.6602 24.0409 31.1202 24.3379C31.3502 24.4859 31.5801 24.6269 31.8101 24.7859C31.9501 24.8919 32.0902 25.0289 32.2502 25.1149C32.3102 25.2429 32.3701 25.3709 32.4201 25.4989C32.9601 26.7019 33.4902 27.9089 34.0102 29.1199C34.2602 29.7149 34.5201 30.3119 34.7701 30.9089C34.8301 31.0489 34.8801 31.1899 34.9401 31.3309C32.4801 28.3689 30.0402 25.3809 27.8502 22.2109ZM33.3302 26.0849C32.7402 24.7539 32.1401 23.4299 31.5201 22.1109C31.5501 22.1059 31.5702 22.0949 31.5802 22.0699C31.7802 21.7169 31.8301 21.2589 31.9101 20.8669C32.0001 20.4369 32.0901 20.0059 32.1801 19.5759C32.2501 19.2329 32.3201 18.8899 32.3901 18.5469C33.2301 20.8549 33.9101 23.2249 34.4301 25.6259C34.7801 27.2599 35.0502 28.9039 35.2602 30.5529C35.0902 30.1329 34.9102 29.7129 34.7302 29.2939C34.2702 28.2209 33.8002 27.1509 33.3302 26.0849ZM29.0601 31.4469C29.0201 31.2539 28.9802 31.0569 28.9502 30.8599C28.9602 30.8719 28.9802 30.8829 28.9902 30.8959C32.0202 33.9369 34.3302 37.7189 35.5102 41.8599C35.5902 42.1339 35.6602 42.4059 35.7402 42.6769C35.7302 42.9809 35.7102 43.2839 35.7002 43.5879C35.3902 43.2139 35.0802 42.8419 34.7602 42.4749C34.1002 41.7119 33.4202 40.9659 32.7302 40.2369C31.9402 39.4149 31.1301 38.6199 30.3001 37.8399C30.0801 36.4519 29.7902 35.0749 29.5102 33.6959C29.3602 32.9469 29.2101 32.1969 29.0601 31.4469ZM24.1102 28.2689C24.0102 27.8309 23.9502 27.3759 23.8602 26.9319C23.8802 26.9459 23.9101 26.9569 23.9301 26.9709C25.5401 27.9219 27.0401 29.0629 28.4001 30.3449C28.4901 30.7579 28.5901 31.1689 28.6701 31.5739C28.8301 32.3239 28.9802 33.0729 29.1302 33.8229C29.3702 35.0409 29.6201 36.2589 29.9001 37.4689C29.4101 37.0159 28.9201 36.5599 28.4201 36.1229C27.5601 35.3779 26.6801 34.6669 25.7801 33.9719C25.6601 33.3819 25.3902 32.7989 25.2002 32.2329C24.9802 31.5709 24.7802 30.9029 24.5902 30.2299C24.4202 29.5799 24.2602 28.9259 24.1102 28.2689ZM21.0301 25.5159C21.8301 25.8509 22.6002 26.2409 23.3602 26.6619C23.4202 27.2629 23.5902 27.8799 23.7202 28.4609C23.8702 29.1389 24.0402 29.8129 24.2302 30.4819C24.4102 31.1269 24.6102 31.7669 24.8202 32.4019C24.9502 32.7699 25.0702 33.1669 25.2202 33.5429C23.7002 32.3989 22.1401 31.3149 20.5301 30.3099C20.3801 29.8839 20.1201 29.4649 19.9401 29.0589C19.7101 28.5419 19.4801 28.0209 19.2701 27.4969C18.8701 26.5309 18.5101 25.5509 18.1401 24.5729C19.1301 24.7789 20.1001 25.1259 21.0301 25.5159ZM14.3202 24.9109C15.3602 24.3569 16.5501 24.3019 17.6901 24.4829C17.7301 24.4889 17.7701 24.4999 17.8101 24.5069C18.1101 25.5589 18.4702 26.5869 18.8802 27.6049C19.0802 28.1129 19.2902 28.6169 19.5002 29.1179C19.6202 29.3759 19.7302 29.6319 19.8502 29.8879C19.4402 29.6419 19.0302 29.3989 18.6202 29.1619C16.7502 28.0809 14.8302 27.0729 12.8202 26.2809C13.2102 25.7189 13.7202 25.2339 14.3202 24.9109ZM12.5201 32.7899C11.6401 30.9369 11.5201 28.8039 12.4401 26.9359C12.5001 26.8059 12.5701 26.6789 12.6501 26.5539C14.3701 27.4189 16.1001 28.2679 17.7701 29.2169C18.3201 29.5299 18.8601 29.8659 19.4001 30.1959C18.2501 30.6569 17.1402 31.2049 16.0902 31.8519C15.5402 32.1909 15.0002 32.5509 14.4802 32.9409C14.2202 33.1359 13.9602 33.3349 13.7202 33.5439C13.5502 33.6829 13.3702 33.8299 13.2202 33.9949C12.9602 33.6079 12.7201 33.2109 12.5201 32.7899ZM13.4001 34.2649C13.5601 34.1589 13.7102 34.0319 13.8602 33.9169C14.1202 33.7199 14.3801 33.5199 14.6401 33.3289C15.2001 32.9219 15.7802 32.5359 16.3702 32.1799C17.4902 31.5099 18.6602 30.9459 19.8802 30.4819C20.8602 31.0939 21.8301 31.7249 22.7801 32.3929C23.2701 32.7349 23.7502 33.0869 24.2202 33.4439C23.9802 33.5339 23.7402 33.6469 23.5002 33.7409C23.1202 33.8929 22.7302 34.0429 22.3402 34.1879C21.5402 34.4849 20.7401 34.7659 19.9301 35.0329C18.4001 35.5349 16.8501 35.9679 15.3101 36.3969C14.6001 35.7439 13.9501 35.0399 13.4001 34.2649ZM23.0002 41.4089C20.9702 40.4759 19.0402 39.3349 17.2502 37.9999C16.6702 37.5659 16.1001 37.1039 15.5501 36.6129C17.0101 36.2899 18.4601 35.8869 19.9001 35.4429C20.6901 35.1979 21.4801 34.9379 22.2701 34.6639C22.6801 34.5199 23.0902 34.3729 23.5102 34.2219C23.8802 34.0839 24.3101 33.9689 24.6601 33.7709C26.8801 35.4699 28.9802 37.3339 30.9502 39.3169C30.9502 39.3169 30.9501 39.3139 30.9401 39.3139C30.6301 39.3059 30.3501 39.4429 30.0601 39.5389C29.7201 39.6489 29.3901 39.7599 29.0501 39.8659C28.4001 40.0709 27.7502 40.2749 27.1002 40.4799C26.4502 40.6849 25.8001 40.8919 25.1501 41.0989C24.6201 41.2679 24.0701 41.4249 23.5601 41.6479C23.3701 41.5679 23.1802 41.4929 23.0002 41.4089ZM32.6501 44.1699C31.5501 44.0289 30.4502 43.8349 29.3602 43.5859C27.5502 43.1719 25.7902 42.5889 24.0802 41.8729C24.4602 41.7749 24.8302 41.6559 25.2002 41.5429C25.8602 41.3439 26.5101 41.1459 27.1601 40.9449C27.8201 40.7439 28.4702 40.5429 29.1202 40.3419C29.4802 40.2319 29.8402 40.1259 30.2002 40.0209C30.4902 39.9359 30.8101 39.8879 31.0601 39.7079C31.1301 39.6589 31.1402 39.5749 31.1302 39.4969C31.3502 39.7179 31.5701 39.9339 31.7901 40.1579C32.5401 40.9529 33.2802 41.7679 34.0002 42.6019C34.3702 43.0329 34.7302 43.4699 35.0902 43.9109C35.2302 44.0829 35.3602 44.2599 35.5002 44.4349C34.5502 44.3439 33.6001 44.2909 32.6501 44.1699ZM48.7302 52.4599C48.4402 52.4549 48.1202 52.5309 47.8502 52.5649C47.4802 52.6099 47.1102 52.6559 46.7302 52.7049C45.9502 52.8089 45.1602 52.9149 44.3802 53.0219C43.6202 53.1259 42.8602 53.2299 42.0902 53.3339C41.5002 53.4149 40.8801 53.4629 40.2901 53.5779C40.8801 52.7589 41.4601 51.9329 42.0301 51.0969C42.5601 50.3169 43.0602 49.5229 43.5702 48.7299C44.3202 48.7079 45.0701 48.5129 45.8001 48.3759C46.6201 48.2219 47.4402 48.0639 48.2602 47.9049C49.0602 47.7499 49.8601 47.5959 50.6601 47.4409L51.9001 47.2029C51.9901 47.1839 52.0902 47.1669 52.2002 47.1509C51.2502 49.0429 50.0802 50.8259 48.7302 52.4599ZM53.7801 33.5629C54.5501 34.5839 54.8302 35.8679 54.8502 37.1239C54.8502 37.3559 54.8402 37.5879 54.8302 37.8209C52.5902 38.8419 50.3401 39.8389 48.1401 40.9399C48.4601 40.3419 48.7902 39.7459 49.0902 39.1419C49.6902 37.9739 50.2602 36.7949 50.8202 35.6069C51.0902 35.0299 51.3502 34.4509 51.6102 33.8699C51.8402 33.3579 52.1002 32.8479 52.2502 32.3079C52.8602 32.5759 53.3801 33.0159 53.7801 33.5629ZM45.9401 43.2069C45.8801 42.9059 45.8301 42.6049 45.7701 42.3049C45.6401 41.6619 45.5002 41.0209 45.3502 40.3829C45.2002 39.7449 45.0302 39.1099 44.8502 38.4789C44.7802 38.2099 44.7002 37.9409 44.6202 37.6739C44.5602 37.4829 44.5101 37.2779 44.4301 37.0889C44.6501 36.7609 44.8602 36.4359 45.1002 36.1189C45.8402 35.1119 46.6601 34.1459 47.6501 33.3699C48.5901 32.6269 49.7602 31.9859 51.0002 32.0169C51.2702 32.0239 51.5201 32.0649 51.7701 32.1329C51.5401 32.5319 51.3801 32.9689 51.1901 33.3929C50.9601 33.9219 50.7202 34.4489 50.4802 34.9739C49.9902 36.0239 49.4902 37.0669 48.9702 38.1019C48.0402 39.9709 47.0502 41.8109 46.0102 43.6259C45.9902 43.4849 45.9701 43.3429 45.9401 43.2069ZM47.8802 41.4449C47.9202 41.4699 47.9801 41.4759 48.0501 41.4479C50.3301 40.4909 52.5601 39.4119 54.7901 38.3609C54.7201 39.2009 54.5801 40.0379 54.4101 40.8569C54.1801 41.9339 53.8801 42.9939 53.5201 44.0319C53.2101 44.9029 52.8502 45.7539 52.4602 46.5889C52.2702 46.6239 52.0701 46.6689 51.8901 46.7049C51.4701 46.7839 51.0601 46.8629 50.6501 46.9419C49.8301 47.0999 49.0101 47.2579 48.1901 47.4159C47.3901 47.5699 46.5901 47.7239 45.7901 47.8819C45.1601 48.0069 44.4902 48.0939 43.8702 48.2739C44.6402 47.0509 45.4002 45.8169 46.1302 44.5659C46.1602 44.5349 46.1801 44.4969 46.1901 44.4489C46.7701 43.4579 47.3302 42.4539 47.8802 41.4449ZM41.5201 45.0679C41.4301 44.7889 41.3402 44.5089 41.2402 44.2319C41.1902 44.0679 41.1401 43.9049 41.0601 43.7659C41.1801 43.4829 41.3001 43.1979 41.4301 42.9149C42.2401 41.0659 43.1001 39.2199 44.1701 37.5019C44.2001 37.5969 44.2302 37.6909 44.2502 37.7829C44.3402 38.0769 44.4202 38.3719 44.5002 38.6669C44.6602 39.2789 44.8202 39.8929 44.9702 40.5099C45.1102 41.1269 45.2502 41.7459 45.3702 42.3679C45.4302 42.6679 45.4901 42.9679 45.5501 43.2699C45.6001 43.5729 45.6801 43.8999 45.6901 44.2149C44.6701 45.9649 43.6102 47.6839 42.5002 49.3769C42.3902 48.4509 42.2102 47.5359 41.9802 46.6319C41.8402 46.1049 41.6901 45.5839 41.5201 45.0679ZM38.2502 51.8299C38.2302 51.5819 38.2101 51.3339 38.1901 51.0859C38.1801 50.9249 38.1801 50.7579 38.1501 50.5979C39.0101 48.5189 39.8901 46.4469 40.7901 44.3849C40.7901 44.3989 40.8001 44.4129 40.8101 44.4279C40.9001 44.6609 40.9902 44.8939 41.0802 45.1309C41.2702 45.6849 41.4402 46.2489 41.5902 46.8169C41.8502 47.8119 42.0402 48.8229 42.2102 49.8379C41.0102 51.6559 39.7502 53.4369 38.4502 55.1829C38.4302 54.5259 38.3902 53.8699 38.3502 53.2139C38.3102 52.7519 38.2802 52.2909 38.2502 51.8299ZM34.3901 59.5139C34.5101 59.4959 34.6301 59.4269 34.6901 59.2749C35.6801 56.6909 36.7002 54.1179 37.7602 51.5559C37.7602 51.6359 37.7701 51.7159 37.7701 51.7959C37.8101 52.2559 37.8501 52.7159 37.8901 53.1769C37.9501 53.9939 38.0202 54.8099 38.1302 55.6229C38.1202 55.6389 38.1102 55.6559 38.1002 55.6719C37.3202 56.7029 36.5302 57.7239 35.7202 58.7289C35.2202 59.3469 34.6801 59.9529 34.1801 60.5779C34.2501 60.2229 34.3201 59.8689 34.3901 59.5139ZM34.0002 61.4949C34.6202 60.8619 35.1902 60.1479 35.7502 59.4689C36.5002 58.5629 37.2402 57.6479 37.9602 56.7169C38.1002 56.5269 38.2401 56.3309 38.3901 56.1389C38.4401 56.1229 38.4802 56.0909 38.4802 56.0279C38.4802 56.0259 38.4802 56.0239 38.4802 56.0219C38.9802 55.3559 39.4802 54.6819 39.9702 54.0059C40.6602 53.9899 41.3501 53.8609 42.0301 53.7719C42.8101 53.6689 43.6002 53.5669 44.3802 53.4639C45.1502 53.3639 45.9101 53.2639 46.6701 53.1609C47.0601 53.1079 47.4602 53.0529 47.8502 52.9959C48.0002 52.9749 48.1602 52.9609 48.3202 52.9429C47.7002 53.6599 47.0502 54.3499 46.3702 55.0019C43.1702 58.0399 39.2402 60.3549 35.0002 61.5939C34.7502 61.6669 34.5002 61.7489 34.2502 61.8199C34.1302 61.8529 34.0201 61.8999 33.9101 61.9489C33.9401 61.7979 33.9602 61.6459 34.0002 61.4949ZM16.3901 71.1049C16.3001 70.6709 16.2102 70.2359 16.1102 69.8019C15.9802 69.1789 15.8402 68.5559 15.7102 67.9339C17.4502 68.6799 19.1202 69.5739 20.7002 70.6059C20.8502 70.6999 20.9902 70.8009 21.1302 70.8979C21.1602 70.9649 21.1902 71.0319 21.2202 71.0989C21.3902 71.5139 21.5401 71.9339 21.6801 72.3609C21.9501 73.1899 22.1402 74.0439 22.3502 74.8909C20.4202 74.0119 18.5002 73.1339 16.5702 72.2539C16.6202 71.8839 16.4701 71.4549 16.3901 71.1049ZM15.2002 67.7229C15.3602 68.4559 15.5201 69.1889 15.6801 69.9199C15.7801 70.3539 15.8802 70.7869 15.9702 71.2209C16.0302 71.4809 16.0701 71.7919 16.1701 72.0669C14.9101 71.4929 13.6601 70.9209 12.4001 70.3469C12.3001 69.6259 12.0802 68.9209 11.8302 68.2379C11.7002 67.8659 11.5501 67.4979 11.4001 67.1349C11.3201 66.9469 11.2301 66.7599 11.1501 66.5739C11.1101 66.4939 11.0801 66.4139 11.0401 66.3379C12.4601 66.7009 13.8502 67.1689 15.2002 67.7229ZM7.92013 66.0449C8.77013 65.8199 9.68011 66.0049 10.5301 66.2119C10.5301 66.2279 10.5201 66.2399 10.5201 66.2579C10.5201 66.4629 10.6102 66.5949 10.7002 66.7749C10.8002 66.9579 10.8802 67.1429 10.9702 67.3289C11.1302 67.6739 11.2801 68.0239 11.4201 68.3779C11.6601 68.9799 11.8602 69.5949 12.0802 70.2009C11.7802 70.0629 11.4701 69.9249 11.1701 69.7859C9.58013 69.0559 7.98019 68.3239 6.36019 67.6589C6.61019 66.8989 7.11013 66.2569 7.92013 66.0449ZM6.28011 67.9629C8.32011 69.0189 10.4002 69.9859 12.4802 70.9509C12.4102 70.9759 12.3302 71.0019 12.2602 71.0239C11.9802 71.1069 11.7001 71.1929 11.4301 71.2799C10.9201 71.4419 10.4101 71.6089 9.90011 71.7839C9.40011 71.9579 8.8901 72.1349 8.3901 72.3249C8.0101 72.4689 7.54013 72.5989 7.17013 72.8199C6.42013 71.3729 5.92011 69.5809 6.28011 67.9629ZM7.35018 73.1489C7.73018 73.0599 8.10016 72.8769 8.45016 72.7539C8.95016 72.5739 9.46017 72.3919 9.96017 72.2189C10.4702 72.0459 10.9802 71.8789 11.4902 71.7189C11.7702 71.6329 12.0502 71.5479 12.3202 71.4649C12.5602 71.3939 12.8301 71.3579 13.0201 71.2009C13.6201 71.4789 14.2202 71.7569 14.8202 72.0379C16.4202 72.7869 18.0202 73.5359 19.6102 74.2849C19.3902 74.4149 19.1702 74.6099 18.9702 74.7519C18.6502 74.9699 18.3202 75.1779 17.9902 75.3759C17.3402 75.7599 16.6802 76.1059 15.9902 76.4129C14.8302 76.9319 13.6301 77.2859 12.4201 77.6439C10.3401 76.6739 8.52018 75.1969 7.35018 73.1489ZM16.5501 78.8859C15.3401 78.6949 14.1302 78.3659 13.0002 77.8969C14.1102 77.6589 15.2002 77.2459 16.2302 76.7869C16.9102 76.4809 17.5802 76.1359 18.2202 75.7529C18.5402 75.5669 18.8501 75.3739 19.1501 75.1719C19.4401 74.9769 19.8301 74.7759 20.0401 74.4859C21.2501 75.0549 22.4701 75.6239 23.6801 76.1929C23.8501 76.2729 24.0201 76.3539 24.1901 76.4349C24.1101 76.5069 24.0502 76.5949 23.9702 76.6729C23.8102 76.8389 23.6402 77.0009 23.4702 77.1589C23.1502 77.4549 22.8202 77.7389 22.4702 78.0069C21.9502 78.4129 21.3801 78.7749 20.8101 79.1149C19.3901 79.1669 17.9701 79.1099 16.5501 78.8859ZM21.6501 79.0619C22.0101 78.8439 22.3602 78.6109 22.7002 78.3559C23.0702 78.0779 23.4301 77.7819 23.7701 77.4649C23.9501 77.3069 24.1101 77.1439 24.2701 76.9779C24.3801 76.8669 24.5202 76.7589 24.5902 76.6199C25.6902 77.1399 26.8001 77.6599 27.9001 78.1809C25.8301 78.5739 23.7401 78.9219 21.6501 79.0619ZM22.6501 75.0269C22.6501 75.0059 22.6701 74.9889 22.6701 74.9619C22.6101 74.0419 22.3902 73.1549 22.1202 72.2759C22.0202 71.9629 21.9101 71.6559 21.7901 71.3479C24.3101 73.1369 26.5702 75.2799 28.4902 77.6969C26.5402 76.8099 24.5901 75.9179 22.6501 75.0269ZM16.1501 119.328C16.7301 119.71 17.2902 120.113 17.8502 120.526C17.8702 120.577 17.9202 120.612 17.9802 120.624C18.0202 120.657 18.0602 120.69 18.1102 120.722C18.1302 120.763 18.1601 120.805 18.1901 120.846C18.2601 120.944 18.3201 121.041 18.3901 121.14C18.5501 121.385 18.7102 121.632 18.8602 121.882C19.1302 122.317 19.3802 122.758 19.6302 123.204C20.0902 124.035 20.5101 124.891 20.9101 125.75C18.2301 123.956 15.4701 122.288 12.6501 120.724C12.4301 119.786 12.0501 118.875 11.6801 117.989C11.4901 117.536 11.3002 117.086 11.1002 116.639C11.0402 116.524 10.9901 116.41 10.9401 116.296C12.7201 117.229 14.4701 118.219 16.1501 119.328ZM6.78011 114.22C7.85011 114.733 8.91018 115.256 9.97018 115.793C10.0702 115.846 10.1801 115.902 10.2801 115.955C10.3101 116.013 10.3402 116.071 10.3702 116.132C10.4802 116.362 10.5801 116.593 10.6901 116.824C10.8801 117.254 11.0702 117.687 11.2502 118.123C11.5802 118.903 11.8602 119.706 12.2002 120.481C10.3902 119.489 8.56017 118.538 6.71017 117.642C6.71017 117.63 6.71017 117.621 6.71017 117.608C6.31017 116.79 5.93022 115.972 5.51022 115.165C5.31022 114.77 5.11011 114.373 4.90011 113.98C4.80011 113.787 4.70018 113.58 4.60018 113.378C5.36018 113.558 6.08011 113.886 6.78011 114.22ZM1.29012 114.465C1.82012 113.621 2.71017 113.192 3.71017 113.244C3.80017 113.249 3.89019 113.26 3.98019 113.271C4.13019 113.596 4.34021 113.91 4.50021 114.217C4.71021 114.61 4.9301 114.999 5.1401 115.389C5.5301 116.091 5.94018 116.775 6.35018 117.463C6.32018 117.447 6.28021 117.43 6.25021 117.415C4.52021 116.592 2.77018 115.8 0.970178 115.141C1.05018 114.905 1.15012 114.678 1.29012 114.465ZM3.16012 121.087C2.95012 120.847 2.74012 120.609 2.54012 120.36C1.80012 119.419 1.1102 118.367 0.870203 117.175C0.750203 116.608 0.750212 116.005 0.880212 115.437C3.48021 116.682 6.10012 117.875 8.66012 119.177C8.39012 119.247 8.1302 119.336 7.8702 119.406C7.3602 119.548 6.85017 119.7 6.34017 119.862C5.34017 120.181 4.37013 120.551 3.42013 120.995C3.41013 120.987 3.41011 120.98 3.40011 120.972C3.32011 120.848 3.13012 120.957 3.16012 121.087ZM4.50021 122.521C4.11021 122.138 3.73019 121.738 3.36019 121.327C3.38019 121.328 3.40014 121.334 3.43014 121.326C4.42014 120.981 5.41012 120.637 6.41012 120.319C6.92012 120.157 7.43015 120.007 7.94015 119.867C8.38015 119.749 8.89014 119.684 9.31014 119.509C9.64014 119.681 9.98014 119.846 10.3101 120.022C12.3901 121.134 14.4301 122.322 16.4301 123.566C16.3301 123.628 16.2202 123.692 16.1202 123.744C15.8002 123.914 15.4801 124.081 15.1501 124.243C14.5201 124.557 13.8902 124.865 13.2402 125.142C12.6102 125.409 11.9702 125.647 11.3302 125.848C10.8002 126.012 10.2602 126.122 9.72018 126.26C7.82018 125.259 6.05021 124.012 4.50021 122.521ZM14.3802 128.143C12.9502 127.734 11.5702 127.192 10.2302 126.531C10.6002 126.466 10.9602 126.372 11.3202 126.27C12.0102 126.072 12.6802 125.821 13.3402 125.54C14.0102 125.255 14.6701 124.941 15.3101 124.605C15.6401 124.437 15.9601 124.266 16.2801 124.095C16.4501 124.002 16.6502 123.919 16.8302 123.81C17.8002 124.417 18.7602 125.034 19.7102 125.67C21.2202 126.681 22.7101 127.729 24.1701 128.805C20.9101 129.283 17.5502 129.056 14.3802 128.143ZM25.0601 128.657C23.8501 127.766 22.6102 126.905 21.3702 126.063C21.4002 126.019 21.4101 125.963 21.3901 125.898C20.9201 124.643 20.3301 123.448 19.6601 122.291C19.5301 122.072 19.4001 121.856 19.2701 121.641C21.6601 123.619 23.7602 125.916 25.3502 128.608C25.2502 128.628 25.1501 128.639 25.0601 128.657ZM28.2402 128.439C27.6702 128.723 27.1101 129.003 26.5401 129.29C26.5401 129.258 26.5301 129.227 26.5301 129.195C27.2801 128.337 27.9401 127.386 28.6401 126.482C28.8501 126.218 29.0502 125.953 29.2502 125.688C29.9102 125.89 30.5802 126.045 31.2602 126.146C31.5802 126.193 31.9002 126.229 32.2202 126.258C30.9202 127.029 29.5902 127.759 28.2402 128.439ZM32.8802 125.867C32.8602 125.867 32.8502 125.868 32.8302 125.868C32.6702 125.862 32.5002 125.854 32.3402 125.842C31.9902 125.817 31.6501 125.783 31.3101 125.738C30.6901 125.657 30.0702 125.546 29.4602 125.418C29.9402 124.791 30.4201 124.163 30.9001 123.538C30.9501 123.472 31.0101 123.406 31.0601 123.34C31.0901 123.321 31.1202 123.294 31.1302 123.253C31.8902 122.28 32.6501 121.312 33.4201 120.348C34.0501 120.464 34.7202 120.479 35.3602 120.493C36.1302 120.51 36.9101 120.492 37.6801 120.448C38.4501 120.404 39.2102 120.321 39.9802 120.234C40.2502 120.203 40.5201 120.158 40.7901 120.114C38.3201 122.262 35.6702 124.17 32.8802 125.867ZM49.9201 109.974C49.1301 111.098 48.3101 112.191 47.4401 113.253C45.7101 115.38 43.8301 117.376 41.8001 119.225C41.7601 119.261 41.7201 119.295 41.6801 119.332C41.4701 119.348 41.2601 119.415 41.0601 119.454C40.6901 119.527 40.3202 119.589 39.9502 119.655C39.2002 119.789 38.4301 119.869 37.6601 119.927C36.8901 119.985 36.1202 120.009 35.3502 120.009C34.8102 120.009 34.2602 119.969 33.7202 119.969C34.3102 119.236 34.8902 118.502 35.4802 117.774C36.8902 116.045 38.3201 114.335 39.7701 112.638C40.6901 112.595 41.6401 112.291 42.5201 112.053C43.5201 111.784 44.5002 111.486 45.4802 111.156C47.1802 110.581 48.8402 109.907 50.4702 109.152C50.2902 109.43 50.1101 109.704 49.9201 109.974ZM51.9301 102.899C52.3101 104.075 52.2102 105.339 51.8202 106.495C51.5902 107.164 51.2801 107.796 50.9201 108.405C49.1301 109.271 47.2901 110.035 45.4101 110.682C44.4301 111.017 43.4502 111.325 42.4502 111.599C41.9502 111.736 41.4502 111.86 40.9602 111.991C40.6902 112.061 40.4101 112.124 40.1401 112.199C41.7701 110.292 43.4302 108.404 45.1002 106.532C46.8202 104.598 48.5702 102.688 50.3402 100.791C51.1102 101.262 51.6501 102.021 51.9301 102.899ZM43.3502 102.182C44.3402 101.591 45.3501 101.028 46.4401 100.655C47.4601 100.306 48.6201 100.121 49.6601 100.471C47.4101 102.875 45.2001 105.32 43.0301 107.805C43.0801 106.816 43.0602 105.824 43.1102 104.834C43.1402 104.296 43.1802 103.759 43.2402 103.223C43.2702 102.882 43.3402 102.53 43.3502 102.182ZM42.8502 102.489C42.8202 102.697 42.8001 102.906 42.7801 103.111C42.7201 103.666 42.6801 104.222 42.6501 104.779C42.5801 105.884 42.5301 107.022 42.6901 108.12C42.6901 108.14 42.7102 108.149 42.7102 108.164C41.9002 109.107 41.0801 110.055 40.2801 111.01C38.9401 112.613 37.6001 114.228 36.2801 115.852C36.1501 113.371 35.7202 110.892 35.2302 108.462C35.2102 108.373 35.1602 108.314 35.0902 108.28C37.4502 106.075 40.1002 104.168 42.8502 102.489ZM30.9301 121.184C30.8101 120.453 30.6701 119.725 30.5201 118.999C30.3801 118.295 30.2201 117.593 30.0501 116.894C29.9701 116.555 29.8901 116.217 29.8001 115.879C29.7301 115.617 29.6902 115.326 29.5702 115.076C29.9102 114.501 30.2601 113.939 30.6401 113.393C31.8301 111.667 33.2102 110.09 34.7102 108.641C35.2302 111.191 35.5401 113.761 35.8901 116.337C34.2801 118.324 32.6902 120.329 31.1302 122.354C31.0802 121.956 30.9901 121.555 30.9301 121.184ZM29.2202 115.688C29.2502 115.778 29.2801 115.868 29.3001 115.956C29.4001 116.315 29.4902 116.674 29.5702 117.034C29.7402 117.733 29.9001 118.435 30.0401 119.139C30.1901 119.822 30.3101 120.508 30.4301 121.195C30.5201 121.734 30.5702 122.337 30.7202 122.88C29.9802 123.84 29.2501 124.801 28.5201 125.772C27.8101 126.724 27.0601 127.677 26.4201 128.684C26.3801 128.459 26.3301 128.233 26.2801 128.008C26.3601 127.935 26.4201 127.832 26.4101 127.696C26.0701 123.511 27.2202 119.347 29.2202 115.688ZM20.5102 103.246C20.8702 103.664 21.2101 104.107 21.5201 104.561C21.5101 105.586 21.5001 106.608 21.4401 107.633C21.3801 108.691 21.2701 109.748 21.1501 110.801C20.3301 109.952 19.5001 109.119 18.6401 108.306C18.6301 108.264 18.5901 108.233 18.5501 108.217C17.8401 107.541 17.1002 106.884 16.3702 106.236C16.3702 106.233 16.3702 106.232 16.3702 106.229C16.4702 105.08 16.4002 103.915 16.3502 102.765C16.3002 101.773 16.2102 100.782 16.1202 99.7939C17.8102 100.62 19.3202 101.885 20.5102 103.246ZM11.7801 100.967C11.6201 100.296 11.4801 99.6149 11.2901 98.9509C11.2901 98.9329 11.2801 98.9209 11.2801 98.9059C11.6301 98.8459 11.9902 98.8179 12.3602 98.8249C13.4602 98.8469 14.5401 99.1119 15.5601 99.5409C15.6601 100.62 15.7502 101.7 15.8202 102.782C15.8902 103.827 15.9002 104.878 16.0002 105.92C14.7802 104.864 13.5302 103.841 12.2502 102.868C12.2202 102.844 12.1801 102.82 12.1501 102.795C12.0501 102.181 11.9301 101.574 11.7801 100.967ZM10.8302 99.0029C10.8302 99.0099 10.8302 99.0149 10.8302 99.0219C10.9902 99.7099 11.1902 100.39 11.3702 101.072C11.5002 101.564 11.6401 102.048 11.8001 102.53C10.7401 101.73 9.67021 100.927 8.50021 100.294C9.17021 99.6569 9.97016 99.2259 10.8302 99.0029ZM7.3702 104.235C6.9502 102.901 7.38013 101.517 8.30013 100.508C9.33013 101.378 10.4501 102.135 11.5201 102.958C12.0401 103.361 12.5602 103.77 13.0702 104.185C13.0102 104.197 12.9601 104.211 12.9101 104.222C12.6601 104.278 12.4001 104.335 12.1501 104.392C11.6701 104.498 11.2002 104.601 10.7302 104.702C10.2502 104.803 9.78014 104.901 9.31014 105.006C8.85014 105.108 8.35012 105.178 7.91012 105.375C7.69012 105.021 7.5002 104.642 7.3702 104.235ZM13.1002 109.689C12.2702 109.195 11.4601 108.662 10.6801 108.083C9.76014 107.399 8.80019 106.616 8.11019 105.661C8.54019 105.654 8.97021 105.553 9.38021 105.478C9.87021 105.388 10.3702 105.285 10.8602 105.181C11.3502 105.077 11.8402 104.971 12.3302 104.862C12.5902 104.806 12.8402 104.748 13.0902 104.688C13.2502 104.652 13.3902 104.626 13.5002 104.547C13.9002 104.877 14.3102 105.207 14.7002 105.544C15.7802 106.469 16.8302 107.422 17.8602 108.402C17.6602 108.49 17.4502 108.577 17.2402 108.658C16.8102 108.829 16.3601 108.981 15.9101 109.108C15.0001 109.363 14.0602 109.559 13.1302 109.676C13.1202 109.679 13.1102 109.687 13.1002 109.689ZM21.8101 113.064C21.0001 112.899 20.2101 112.697 19.4201 112.459C17.8501 111.987 16.3302 111.379 14.8602 110.652C14.4102 110.426 13.9601 110.183 13.5201 109.931C14.3901 109.882 15.2402 109.756 16.0802 109.523C16.5402 109.396 16.9901 109.249 17.4301 109.079C17.6601 108.992 17.8902 108.899 18.1102 108.797C18.1502 108.781 18.1802 108.766 18.2202 108.751C19.0502 109.556 19.8701 110.375 20.6701 111.217C21.1801 111.763 21.7002 112.316 22.2002 112.876C22.2902 112.979 22.3802 113.084 22.4702 113.188C22.2502 113.15 22.0301 113.109 21.8101 113.064ZM24.2102 111.677C24.2202 111.724 24.2202 111.772 24.2302 111.819C24.2302 111.846 24.2202 111.873 24.2202 111.901C24.2102 112.01 24.1901 112.118 24.1701 112.228C24.1601 112.326 24.1802 112.403 24.2202 112.466C24.2202 112.585 24.2202 112.704 24.2202 112.823C24.1802 112.863 24.1402 112.905 24.1002 112.945C23.9402 113.098 23.9902 113.309 24.1202 113.421C24.1102 113.46 24.0902 113.499 24.0802 113.538C23.9102 113.488 23.7402 113.442 23.5702 113.403C23.3402 113.142 23.0902 112.892 22.8702 112.642C22.4202 112.141 21.9602 111.645 21.5002 111.157L21.4902 111.154C21.8402 109.257 22.0401 107.286 22.0401 105.342C23.2101 107.262 23.9802 109.431 24.2102 111.677ZM25.5201 111.563C25.4001 111.678 25.2801 111.795 25.1601 111.911C25.7601 110.43 26.3701 108.95 27.0401 107.495C27.7201 106.027 28.4502 104.586 29.2102 103.159C30.1202 103.27 31.0302 103.313 31.9502 103.283C32.5302 103.264 33.1202 103.234 33.7102 103.172C31.0802 106.068 28.3401 108.851 25.5201 111.563ZM41.0702 94.3219C39.5802 96.3429 37.9602 98.2809 36.3302 100.19C35.6202 101.027 34.8901 101.848 34.1501 102.665C33.4401 102.755 32.7202 102.851 32.0002 102.882C31.1202 102.92 30.2402 102.91 29.3602 102.875C29.6302 102.375 29.8901 101.869 30.1601 101.375C31.4801 99.0369 32.9202 96.7689 34.4502 94.5639C35.0402 94.6519 35.6402 94.6249 36.2302 94.6009C36.8702 94.5749 37.5001 94.5309 38.1401 94.4729C38.7701 94.4149 39.4001 94.3339 40.0301 94.2339C40.3701 94.1809 40.7001 94.1219 41.0301 94.0599C41.1101 94.0439 41.2001 94.0299 41.2801 94.0159C41.2101 94.1189 41.1402 94.2219 41.0702 94.3219ZM43.8001 88.4899C43.5901 90.2989 42.7201 91.9389 41.6901 93.4339C41.1601 93.4769 40.6102 93.6379 40.0802 93.7239C39.4302 93.8299 38.7802 93.9189 38.1302 93.9969C37.5002 94.0719 36.8702 94.1289 36.2302 94.1679C35.7102 94.1999 35.1801 94.2049 34.6701 94.2679C35.6801 92.8249 36.7202 91.4039 37.8202 90.0279C38.0102 89.7859 38.2101 89.5489 38.4101 89.3089C38.8001 89.3589 39.2402 89.2269 39.6102 89.1619C40.1002 89.0759 40.5902 88.9869 41.0802 88.8969C41.5602 88.8059 42.0501 88.7159 42.5401 88.6249C42.9401 88.5499 43.4001 88.5119 43.8101 88.3919C43.8101 88.4239 43.8101 88.4589 43.8001 88.4899ZM43.8402 87.8809C43.3802 87.8989 42.9002 88.0449 42.4602 88.1289C41.9702 88.2219 41.4902 88.3149 41.0002 88.4089C40.5102 88.5019 40.0301 88.5969 39.5401 88.6949C39.3201 88.7399 39.0601 88.7679 38.8001 88.8249C39.2801 88.2479 39.7702 87.6749 40.2602 87.1109C40.6902 86.6199 41.1302 86.1329 41.5702 85.6549C41.9202 85.2839 42.3002 84.9299 42.6302 84.5429C43.5102 85.2979 43.8502 86.6779 43.8402 87.8809ZM36.3402 88.0989C36.3502 87.9449 36.3602 87.7899 36.3802 87.6369C36.3902 87.4969 36.4201 87.3649 36.4201 87.2269C37.0001 86.5349 37.6001 85.8559 38.2801 85.2729C39.0601 84.6089 40.0502 83.9549 41.1202 83.9759C41.5002 83.9839 41.8402 84.0719 42.1302 84.2139C41.8602 84.4879 41.6102 84.7879 41.3502 85.0759C40.9602 85.5049 40.5801 85.9359 40.1901 86.3699C39.4301 87.2379 38.6802 88.1209 37.9602 89.0189C37.4902 89.5889 37.0502 90.1749 36.6102 90.7559C36.5802 90.4889 36.4902 90.2189 36.4502 89.9579C36.4002 89.6529 36.3602 89.3449 36.3402 89.0369C36.3202 88.7259 36.3202 88.4119 36.3402 88.0989ZM31.5902 97.3599C31.5102 97.0119 31.4501 96.6619 31.3901 96.3119C31.3001 95.7909 31.2301 95.2669 31.1601 94.7419C32.5601 92.3059 34.1601 89.9849 35.9401 87.8129C35.9401 87.8949 35.9301 87.9759 35.9301 88.0529C35.9201 88.3909 35.9202 88.7299 35.9502 89.0669C35.9702 89.3979 36.0202 89.7249 36.0802 90.0499C36.1502 90.3539 36.2102 90.7109 36.3802 90.9749C36.3902 90.9889 36.4001 90.9939 36.4201 91.0019C35.5201 92.1749 34.6501 93.3619 33.8101 94.5789C33.0801 95.6499 32.3701 96.7409 31.6901 97.8449C31.6601 97.6819 31.6202 97.5199 31.5902 97.3599ZM27.5601 102.465C27.9501 101.402 28.3702 100.349 28.8402 99.3099C29.4302 97.9909 30.0801 96.7009 30.7801 95.4369C30.8301 95.8029 30.8902 96.1689 30.9602 96.5319C31.0202 96.9069 31.1001 97.2829 31.1901 97.6529C31.2301 97.8069 31.2502 98.0089 31.3402 98.1449C31.3602 98.1809 31.4002 98.2199 31.4502 98.2459C30.2102 100.257 29.0602 102.315 27.9902 104.418C27.8602 103.764 27.7201 103.113 27.5601 102.465ZM27.3202 103.128C27.4602 103.708 27.6101 104.287 27.7701 104.861C27.5101 105.391 27.2402 105.921 26.9902 106.457C26.4302 107.637 25.8802 108.832 25.3802 110.044C25.8902 107.698 26.5302 105.389 27.3202 103.128ZM17.6901 83.8149C18.9701 84.6789 20.1402 85.7129 21.1302 86.8679C21.1902 86.9279 21.2301 86.9939 21.2801 87.0539C21.2301 87.2579 21.2701 87.4929 21.2701 87.7069C21.2701 88.0109 21.2701 88.3149 21.2701 88.6179C21.2601 89.2469 21.2502 89.8759 21.2302 90.5049C21.2002 91.6379 21.1802 92.7699 21.1302 93.9019C20.1402 92.6989 19.1101 91.5329 18.0201 90.4119C18.0501 90.3899 18.0702 90.3609 18.0702 90.3229C18.2002 89.1519 18.1501 87.9399 18.0601 86.7679C17.9901 85.7829 17.8701 84.7909 17.6901 83.8149ZM12.1501 83.4299C12.0701 83.0759 11.9901 82.7229 11.9101 82.3689C11.8301 82.0519 11.7701 81.7239 11.6801 81.4129C11.9401 81.4459 12.2102 81.4909 12.4702 81.5439C14.1602 81.8969 15.7702 82.5839 17.2402 83.5069C17.4102 84.5909 17.5701 85.6739 17.6401 86.7699C17.7301 87.8939 17.7202 89.0159 17.7602 90.1409C16.1302 88.4719 14.3901 86.9029 12.5601 85.4469C12.5001 84.7669 12.3101 84.0919 12.1501 83.4299ZM9.4902 81.5879C10.0502 81.3859 10.6502 81.3389 11.2502 81.3749C11.2402 81.4009 11.2402 81.4279 11.2402 81.4579C11.2902 81.8139 11.4102 82.1689 11.4902 82.5179C11.5802 82.8709 11.6602 83.2239 11.7502 83.5769C11.8702 84.0849 11.9801 84.6109 12.1401 85.1139C10.9101 84.1549 9.65014 83.2199 8.31014 82.4249C8.62014 82.0509 9.0102 81.7619 9.4902 81.5879ZM7.81014 83.4249C7.88014 83.1619 7.9902 82.9209 8.1202 82.7009C9.3202 83.5839 10.5402 84.4329 11.7102 85.3579C12.8602 86.2639 13.9601 87.2189 15.0401 88.2089C14.0101 88.4289 12.9102 88.4889 11.8602 88.4859C11.3102 88.4849 10.7602 88.4589 10.2102 88.4089C9.69017 88.3609 9.16021 88.2709 8.63021 88.2459C8.01021 86.7759 7.39014 85.0109 7.81014 83.4249ZM8.7701 88.5679C9.7601 88.8429 10.8702 88.8739 11.8802 88.8769C13.0302 88.8799 14.1401 88.7299 15.2801 88.5889C15.3301 88.5829 15.3601 88.5589 15.3901 88.5289C15.4001 88.5349 15.4101 88.5409 15.4101 88.5469C17.6901 90.6869 19.8002 93.0109 21.7102 95.4899C21.4702 95.4949 21.2402 95.5149 21.0102 95.5269C20.6702 95.5439 20.3402 95.5579 20.0002 95.5699C19.2602 95.5939 18.5301 95.6029 17.7901 95.5979C17.1001 95.5929 16.4002 95.5759 15.7102 95.5549C15.3802 95.5449 15.0402 95.5279 14.7102 95.5179C14.5602 95.5139 14.2202 95.5489 13.9602 95.5199C11.7502 93.6159 9.9401 91.2459 8.7701 88.5679ZM15.3502 96.6229C14.9902 96.3679 14.6501 96.1019 14.3101 95.8249C14.5901 95.8589 14.8801 95.8839 15.1701 95.9039C15.9401 95.9589 16.7102 95.9929 17.4902 96.0039C18.2202 96.0139 18.9501 96.0089 19.6901 95.9909C20.0601 95.9819 20.4402 95.9679 20.8202 95.9509C21.2002 95.9329 21.6202 95.9519 22.0002 95.8649C23.0602 97.2729 24.0502 98.7369 24.9702 100.242C21.5002 99.9319 18.1702 98.6589 15.3502 96.6229ZM25.2701 96.2139C25.3201 96.6419 25.3702 97.0559 25.4502 97.4799C25.4502 97.5019 25.4602 97.5129 25.4802 97.5199C25.3802 98.1669 25.2902 98.8149 25.2002 99.4629C24.0302 97.6499 22.7601 95.9039 21.4001 94.2289C21.5101 92.9839 21.6201 91.7399 21.6701 90.4909C21.7001 89.8409 21.7202 89.1919 21.7402 88.5419C21.7502 88.2439 21.7502 87.9449 21.7602 87.6469C23.6502 90.1229 24.9201 93.1129 25.2701 96.2139ZM31.5802 77.6309C31.1102 77.7799 30.6501 77.9399 30.1901 78.1069C30.1901 78.0769 30.2002 78.0479 30.2102 78.0179C32.4702 75.7099 34.7801 73.4429 37.1801 71.2829C37.4601 71.6529 37.8602 71.9539 38.2102 72.2499C38.5802 72.5599 38.9602 72.8569 39.3602 73.1369C39.7402 73.4099 40.1401 73.6679 40.5401 73.9109C40.7301 74.0289 40.9302 74.1429 41.1302 74.2549C38.0202 75.5499 34.7902 76.6119 31.5802 77.6309ZM47.7402 70.9719C45.7802 72.1559 43.7302 73.1579 41.6302 74.0499C41.5702 74.0159 41.5001 73.9829 41.4301 73.9479C41.2201 73.8289 41.0001 73.7049 40.7801 73.5759C40.3801 73.3339 39.9902 73.0769 39.6002 72.8059C39.2302 72.5429 38.8602 72.2679 38.5002 71.9789C38.1402 71.6849 37.8101 71.3379 37.4201 71.0729C38.1801 70.3989 38.9402 69.7339 39.7202 69.0839C40.5602 68.3749 41.4301 67.6829 42.2901 67.0019C42.6801 67.3589 43.1101 67.6719 43.5301 67.9839C44.0501 68.3749 44.5901 68.7509 45.1401 69.1149C46.0501 69.7259 47.0002 70.2879 47.9502 70.8349C47.8802 70.8789 47.8102 70.9279 47.7402 70.9719ZM53.9502 66.1989C52.2802 67.8399 50.4101 69.2709 48.4401 70.5229C47.3901 69.9939 46.3701 69.4059 45.3901 68.7709C44.8601 68.4359 44.3502 68.0879 43.8402 67.7309C43.4102 67.4259 42.9901 67.0999 42.5501 66.8039C44.7101 65.1219 46.9302 63.5179 49.2102 62.0039C50.1002 62.6289 51.0102 63.2139 51.9702 63.7319C52.5302 64.0309 53.0901 64.3049 53.6601 64.5649C53.9501 64.6949 54.2401 64.8189 54.5301 64.9429C54.6701 65.0019 54.8102 65.0829 54.9602 65.1339C54.6302 65.4979 54.2902 65.8549 53.9502 66.1989ZM57.7701 56.8859C58.5001 57.6819 58.5902 58.8049 58.3402 59.8289C58.0302 61.0869 57.3101 62.1929 56.5401 63.2189C56.1601 63.7289 55.7602 64.2239 55.3502 64.7049C55.1902 64.5789 54.9601 64.5339 54.7701 64.4609C54.4701 64.3469 54.1901 64.2249 53.9001 64.0999C53.3401 63.8559 52.7802 63.5919 52.2402 63.3169C51.3102 62.8499 50.4101 62.3369 49.5301 61.7919C50.0201 61.4699 50.5002 61.1399 50.9902 60.8259C53.2002 59.4259 55.4601 58.1139 57.7701 56.8859ZM53.2801 56.6359C53.3101 56.4669 53.3601 56.3019 53.4001 56.1359C53.9401 56.0149 54.4901 55.9349 55.0401 55.9249C55.8001 55.9119 56.6102 56.0419 57.2602 56.4519C55.8502 57.2049 54.4702 57.9939 53.1002 58.8139C53.1002 58.6029 53.0902 58.3909 53.1002 58.1799C53.1002 57.9209 53.1201 57.6619 53.1501 57.4039C53.1801 57.1479 53.2301 56.8899 53.2801 56.6359ZM48.0201 58.4229C48.0301 58.3629 48.0301 58.3009 48.0401 58.2379C48.2901 58.1099 48.5501 57.9749 48.8101 57.8539C49.8801 57.3489 50.9802 56.8959 52.1002 56.5059C52.3202 56.4289 52.5501 56.3579 52.7801 56.2929C52.7601 56.3689 52.7402 56.4459 52.7302 56.5209C52.6702 56.7929 52.6402 57.0669 52.6202 57.3439C52.5802 57.8829 52.5702 58.4869 52.7102 59.0109C52.7202 59.0219 52.7202 59.0299 52.7302 59.0399C51.4502 59.8149 50.1801 60.6139 48.9401 61.4409C48.8301 61.3969 48.7202 61.4879 48.7202 61.5889C48.3202 61.8519 47.9201 62.1089 47.5301 62.3769C47.6601 61.7339 47.7502 61.0859 47.8302 60.4319C47.8902 59.9809 47.9302 59.5299 47.9702 59.0779C47.9902 58.8599 48.0101 58.6419 48.0201 58.4229ZM41.7901 62.2069C43.5901 60.7899 45.5201 59.5359 47.5501 58.4809C47.5401 58.6619 47.5202 58.8429 47.5102 59.0239C47.4702 59.4599 47.4302 59.8959 47.3802 60.3319C47.2902 61.1129 47.1902 61.8909 47.1102 62.6729C46.6102 63.0179 46.1102 63.3549 45.6202 63.7099C44.0102 64.8739 42.4401 66.0949 40.9101 67.3509C40.9401 66.3909 41.0402 65.4329 41.2102 64.4879C41.3102 63.9559 41.4302 63.4289 41.5802 62.9079C41.6402 62.6729 41.7201 62.4399 41.7901 62.2069ZM35.8702 69.9389C35.8402 69.6199 35.8101 69.3009 35.8001 68.9799C35.7901 68.8029 35.7801 68.6269 35.7801 68.4499C35.7701 68.3629 35.7801 68.2769 35.7701 68.1919C36.2801 67.5509 36.8102 66.9219 37.3602 66.3159C38.5002 65.0619 39.7401 63.8909 41.0501 62.8059C40.9201 63.3269 40.8102 63.8529 40.7302 64.3829C40.5702 65.4589 40.5201 66.5449 40.5601 67.6319C39.0301 68.8919 37.5302 70.1939 36.0802 71.5399C36.0502 71.3239 36.0302 71.1089 36.0002 70.8919C35.9502 70.5749 35.9102 70.2569 35.8702 69.9389ZM35.3402 68.7429C35.3402 68.8199 35.3402 68.8979 35.3502 68.9749C35.3702 69.3189 35.4002 69.6629 35.4502 70.0049C35.4902 70.3479 35.5502 70.6879 35.6202 71.0259C35.6702 71.2839 35.7502 71.5219 35.8402 71.7629C35.4902 72.0869 35.1401 72.4109 34.8001 72.7409C33.3101 74.1689 31.8802 75.6469 30.5102 77.1909C31.7402 74.1709 33.3602 71.3299 35.3402 68.7429ZM24.8602 53.5069C24.7202 52.9109 24.5801 52.3169 24.4301 51.7259C24.4001 51.6149 24.3702 51.5039 24.3402 51.3929C24.3902 51.4389 24.4402 51.4829 24.4902 51.5289C25.9802 53.0189 27.3401 54.6359 28.5601 56.3509C28.5801 56.5239 28.6002 56.6969 28.6202 56.8709C28.6802 57.3609 28.7202 57.8519 28.7502 58.3429C28.8002 59.1309 28.8102 59.9189 28.8302 60.7069C27.7602 59.5429 26.6502 58.4179 25.5102 57.3309C25.6302 57.1959 25.5302 56.9669 25.3702 56.9339C25.3702 56.9289 25.3702 56.9259 25.3802 56.9199C25.5402 56.4469 25.3102 55.7799 25.2202 55.2999C25.1102 54.6999 24.9902 54.1019 24.8602 53.5069ZM15.9602 45.2389C16.1902 45.3589 16.4102 45.4829 16.6302 45.6049C17.5802 46.1329 18.5001 46.7069 19.4001 47.3199C20.9401 48.3739 22.4002 49.5539 23.7602 50.8339C23.7802 50.8999 23.8001 50.9659 23.8101 51.0309C23.8901 51.3259 23.9601 51.6219 24.0401 51.9179C24.1801 52.4899 24.3101 53.0619 24.4301 53.6369C24.5601 54.2119 24.6801 54.7879 24.7901 55.3659C24.8401 55.6649 24.8902 55.9669 24.9502 56.2659C25.0002 56.5039 25.0301 56.7549 25.1901 56.9489C25.1901 56.9549 25.2002 56.9559 25.2002 56.9609C25.1802 56.9679 25.1701 56.9749 25.1501 56.9829C25.1501 56.9769 25.1402 56.9709 25.1302 56.9649C22.5202 54.4969 19.7301 52.2179 16.8001 50.1379C16.7401 49.2359 16.6402 48.3399 16.4702 47.4509C16.3302 46.7059 16.1402 45.9729 15.9602 45.2389ZM13.5401 44.3779C14.1901 44.4539 14.8101 44.6809 15.4101 44.9629C15.9301 46.5399 16.2301 48.2299 16.4401 49.8809C16.2701 49.7579 16.1001 49.6279 15.9201 49.5069C14.1401 48.2839 12.3201 47.1039 10.4301 46.0649C11.0701 44.9789 12.1601 44.2169 13.5401 44.3779ZM9.80013 48.0309C9.84013 47.5639 9.95021 47.0979 10.1302 46.6609C11.7202 47.6139 13.3102 48.5679 14.8502 49.6069C14.6502 49.6739 14.4402 49.7419 14.2402 49.8089C13.7502 49.9679 13.2601 50.1239 12.7801 50.2879C11.9701 50.5619 11.1102 50.9579 10.2302 50.9229C9.92019 49.9929 9.71013 49.0119 9.80013 48.0309ZM12.0201 54.7939C11.4701 53.7519 10.9202 52.6949 10.4802 51.5979C10.4502 51.5189 10.4201 51.4379 10.3901 51.3569C11.1901 51.3869 11.9702 51.0919 12.7302 50.8589C13.2302 50.7029 13.7402 50.5359 14.2402 50.3719C14.5002 50.2899 14.7502 50.2079 15.0002 50.1259C15.1402 50.0819 15.2801 50.0489 15.4101 49.9959C16.8601 50.9879 18.2701 52.0209 19.6501 53.1059C20.2101 53.5489 20.7501 54.0109 21.3001 54.4709C18.4101 54.9499 15.5002 55.3229 12.6302 55.8909C12.4202 55.5259 12.2201 55.1599 12.0201 54.7939ZM12.7502 56.1069C15.7402 55.7639 18.7101 55.2149 21.6901 54.7939C22.6401 55.6009 23.5802 56.4239 24.4902 57.2739C23.0502 57.8949 21.5601 58.3879 20.0501 58.7599C18.4001 59.1639 16.7201 59.3899 15.0401 59.6019C14.2001 58.4889 13.4402 57.3079 12.7502 56.1069ZM15.2502 59.8769C18.5502 59.8139 21.8202 58.8779 24.8602 57.6279C26.0402 58.7439 27.2001 59.8869 28.3101 61.0719C28.8301 61.6249 29.3302 62.1899 29.8402 62.7559C29.8002 62.7469 29.7602 62.7449 29.7102 62.7609C26.1902 63.9259 22.4501 64.1029 18.8101 63.4889C17.4701 62.4499 16.3002 61.2199 15.2502 59.8769ZM20.8101 64.8279C20.3001 64.5459 19.8202 64.2329 19.3502 63.8999C22.8502 64.5789 26.5201 64.2879 29.9101 63.2029C30.0201 63.1659 30.0601 63.0749 30.0501 62.9839C30.7701 63.7959 31.4902 64.6139 32.2002 65.4319C28.6502 67.3139 24.2501 66.7459 20.8101 64.8279ZM29.1701 61.0679C29.2601 60.1429 29.2401 59.2039 29.1801 58.2769C29.1601 57.8859 29.1202 57.4969 29.0802 57.1069C30.1902 58.7629 31.1901 60.5029 32.0301 62.3189C32.1401 62.5509 32.2402 62.7839 32.3502 63.0179C32.4602 63.2829 32.6201 63.5239 32.7701 63.7729C32.7801 63.7899 32.7901 63.8019 32.8101 63.8149C32.7101 64.2709 32.6102 64.7279 32.5102 65.1839C31.4802 63.7519 30.3501 62.3829 29.1701 61.0679Z" fill="#4D4C51"/>
</svg>
