<svg width="53" height="99" viewBox="0 0 53 99" fill="none" xmlns="http://www.w3.org/2000/svg">
<path d="M19.1367 1.53716C19.1167 1.49716 19.0966 1.45716 19.0666 1.41716C19.0066 1.34116 18.9366 1.28516 18.8466 1.24816C18.7766 1.21716 18.7067 1.20414 18.6367 1.21214C18.5567 1.20614 18.4865 1.22015 18.4265 1.25215C18.3565 1.27815 18.2965 1.31916 18.2565 1.37316C18.1965 1.42016 18.1567 1.47716 18.1367 1.54616C18.0967 1.63916 18.0866 1.73516 18.0966 1.83516C18.0966 1.85616 18.1066 1.87816 18.1066 1.89916C18.1166 1.96416 18.1264 2.02915 18.1564 2.08815C18.1764 2.12615 18.2065 2.16514 18.2265 2.20314C18.2565 2.23414 18.2866 2.26614 18.3166 2.29714C18.3566 2.32014 18.3965 2.34216 18.4365 2.36516C18.5065 2.39516 18.5767 2.40713 18.6467 2.40013C18.6967 2.40613 18.7366 2.39915 18.7766 2.38115C18.8266 2.37415 18.8664 2.35614 18.9064 2.32814C18.9464 2.31014 18.9765 2.28214 19.0065 2.24614C19.0565 2.20114 19.0966 2.14616 19.1266 2.08016C19.1266 2.07516 19.1266 2.07014 19.1266 2.06514C19.1366 2.06314 19.1367 2.06015 19.1367 2.05715L19.1664 1.91814C19.1664 1.90714 19.1765 1.89615 19.1765 1.88515C19.1765 1.86415 19.1765 1.84215 19.1865 1.82115C19.1965 1.72215 19.1767 1.62816 19.1367 1.53716Z" fill="#4D4C51"/>
<path d="M17.8467 0.836182C17.8967 0.772182 17.9265 0.704197 17.9365 0.627197C17.9465 0.590197 17.9565 0.555205 17.9565 0.516205C17.9565 0.470205 17.9565 0.425202 17.9365 0.382202C17.9265 0.337202 17.9067 0.2972 17.8867 0.2612C17.8667 0.2202 17.8366 0.185203 17.8066 0.158203C17.7766 0.122203 17.7365 0.096186 17.6965 0.078186C17.6365 0.039186 17.5766 0.0161929 17.5066 0.0101929C17.4566 0.0111929 17.4167 0.0111765 17.3667 0.0121765C17.3267 0.0241765 17.2766 0.0361943 17.2366 0.0491943C17.1966 0.0711943 17.1667 0.0941804 17.1267 0.11618C17.0967 0.14718 17.0666 0.179205 17.0266 0.210205C17.0066 0.249205 16.9866 0.287202 16.9666 0.326202C16.9366 0.391202 16.9265 0.459205 16.9265 0.529205C16.9265 0.575205 16.9265 0.620177 16.9465 0.663177C16.9665 0.729177 16.9866 0.788187 17.0366 0.841187C17.0366 0.843187 17.0366 0.845206 17.0366 0.848206C17.0766 0.879206 17.1067 0.910186 17.1367 0.940186V0.941193C17.1367 0.942193 17.1367 0.943183 17.1367 0.944183C17.1367 0.945183 17.1367 0.946198 17.1367 0.946198C17.1467 0.951198 17.2466 1.0062 17.2566 1.0112C17.2566 1.0122 17.2566 1.0142 17.2666 1.0152C17.3466 1.0492 17.4366 1.05918 17.5266 1.04718C17.5866 1.04018 17.6465 1.01819 17.6965 0.980194C17.7265 0.966194 17.7466 0.940197 17.7666 0.920197C17.7666 0.924197 17.7566 0.927183 17.7566 0.931183C17.7566 0.928183 17.7666 0.923197 17.7666 0.920197C17.7966 0.900197 17.8167 0.886199 17.8367 0.860199C17.8467 0.855199 17.8467 0.848194 17.8467 0.842194C17.8467 0.841194 17.8467 0.839196 17.8467 0.838196C17.8467 0.837196 17.8467 0.837182 17.8467 0.836182C17.8767 0.797182 17.8965 0.759184 17.9165 0.720184C17.9265 0.691184 17.9265 0.660188 17.9365 0.630188C17.9265 0.666188 17.9165 0.703197 17.9065 0.739197C17.8865 0.771197 17.8667 0.804182 17.8467 0.836182Z" fill="#4D4C51"/>
<path d="M19.8066 0.338229C19.8166 0.291229 19.8066 0.246219 19.7866 0.203219C19.7766 0.182219 19.7766 0.161224 19.7666 0.139224C19.7566 0.122224 19.7466 0.105229 19.7366 0.0882291C19.7166 0.0742291 19.7065 0.060237 19.6865 0.046237C19.6765 0.036237 19.6567 0.0262382 19.6367 0.0162382C19.6067 0.00323819 19.5766 -0.00277646 19.5466 0.00122354C19.5266 -0.000776463 19.5066 0.00122622 19.4866 0.0102262C19.4666 0.0132262 19.4465 0.0212365 19.4365 0.0332365C19.4165 0.0412365 19.3967 0.0532167 19.3867 0.0692167C19.3667 0.0892167 19.3467 0.113215 19.3367 0.142215C19.3267 0.163215 19.3166 0.18421 19.3066 0.20621C19.2966 0.23921 19.2866 0.273237 19.2866 0.309237C19.2866 0.344237 19.2966 0.377213 19.3066 0.409213C19.3166 0.421213 19.3267 0.433224 19.3267 0.445224C19.3367 0.455224 19.3367 0.464215 19.3367 0.474215C19.3467 0.491215 19.3567 0.508234 19.3667 0.524234C19.3867 0.538234 19.3965 0.551219 19.4065 0.565219L19.4565 0.595218C19.4865 0.608218 19.5166 0.613232 19.5466 0.610232C19.5666 0.612232 19.5867 0.610237 19.6067 0.602237C19.6267 0.599237 19.6465 0.591226 19.6665 0.579226C19.6765 0.571226 19.6965 0.559216 19.7065 0.543216C19.7365 0.523216 19.7466 0.500225 19.7566 0.471225C19.7666 0.461225 19.7666 0.450219 19.7666 0.440219C19.7666 0.438219 19.7666 0.437214 19.7766 0.435214C19.7966 0.407214 19.8066 0.374229 19.8066 0.338229Z" fill="#4D4C51"/>
<path d="M20.6966 1.91416C20.6966 1.90316 20.6866 1.89217 20.6866 1.88117C20.6766 1.87517 20.6766 1.87017 20.6766 1.86417V1.86017V1.85816C20.6666 1.84716 20.6565 1.83717 20.6565 1.82617L20.6268 1.80017C20.6168 1.79417 20.6067 1.78716 20.5967 1.78116C20.5667 1.77016 20.5567 1.77115 20.5367 1.77115C20.5267 1.76915 20.5166 1.77116 20.4966 1.77616C20.4966 1.77616 20.4866 1.77916 20.4866 1.78116C20.4766 1.78316 20.4666 1.78617 20.4666 1.79117C20.4566 1.79617 20.4466 1.80415 20.4366 1.81415C20.4266 1.82215 20.4166 1.83215 20.4166 1.84415C20.4066 1.84915 20.4065 1.85518 20.4065 1.86118V1.86518C20.3965 1.87118 20.3968 1.87617 20.3968 1.88217C20.3868 1.89317 20.3868 1.90517 20.3768 1.91617C20.3568 1.97217 20.3665 2.04017 20.4065 2.08817C20.4265 2.11217 20.4466 2.13018 20.4766 2.14118C20.4966 2.15118 20.5167 2.15516 20.5367 2.15216C20.5667 2.15416 20.5867 2.15016 20.6067 2.13916C20.6367 2.12716 20.6566 2.10918 20.6766 2.08518C20.7166 2.03818 20.7266 1.97016 20.6966 1.91416Z" fill="#4D4C51"/>
<path d="M14.5367 2.04116C14.5267 2.00216 14.4966 1.96916 14.4666 1.94216C14.4366 1.92116 14.4068 1.90715 14.3768 1.90215C14.3468 1.89115 14.3067 1.88815 14.2767 1.89415C14.2467 1.89815 14.2166 1.90915 14.1866 1.92815C14.1566 1.94215 14.1367 1.96215 14.1167 1.98915C14.0867 2.02515 14.0767 2.06415 14.0667 2.10915C14.0667 2.12515 14.0567 2.14015 14.0567 2.15615C14.0467 2.18515 14.0567 2.22914 14.0567 2.26314C14.0567 2.27714 14.0567 2.29214 14.0567 2.30614C14.0567 2.31314 14.0567 2.32014 14.0567 2.32814C14.0567 2.35214 14.0667 2.37016 14.0767 2.39516C14.0867 2.42516 14.1068 2.45115 14.1368 2.47115C14.1568 2.48715 14.1766 2.49815 14.1966 2.50215C14.2266 2.51115 14.2467 2.51314 14.2767 2.50814C14.3067 2.50314 14.3367 2.49014 14.3667 2.47014C14.3767 2.46514 14.3768 2.45915 14.3868 2.45015C14.3868 2.44315 14.3965 2.43716 14.4065 2.42916C14.4065 2.42616 14.4066 2.42315 14.4166 2.41915C14.4166 2.41415 14.4166 2.40816 14.4266 2.40316L14.4566 2.36614C14.4666 2.36014 14.4666 2.35416 14.4766 2.34816C14.4966 2.32716 14.5067 2.30716 14.5167 2.27916C14.5267 2.26416 14.5367 2.24813 14.5367 2.23213C14.5567 2.19013 14.5567 2.14716 14.5567 2.10216C14.5567 2.08216 14.5467 2.06216 14.5367 2.04116Z" fill="#4D4C51"/>
<path d="M52.4666 20.2522C52.1566 18.7932 50.7266 17.5842 49.2266 18.0802C49.2366 17.7062 49.2366 17.3312 49.2066 16.9582C49.1466 16.0182 49.0067 14.9902 48.2367 14.3512C47.5067 13.7522 46.5968 13.9052 45.8968 14.4502C45.0568 15.1052 44.4267 16.1062 44.0067 17.0732C43.9267 17.2642 43.8467 17.4662 43.7767 17.6732C43.6667 16.9212 43.3668 16.1762 42.5868 15.9002C41.7268 15.5942 41.0566 16.2292 40.6866 16.9442C40.4166 17.4822 40.2067 18.0722 40.0467 18.6692C39.7067 17.9352 38.8267 17.5552 38.0067 17.6582C36.9067 17.7982 36.0967 18.7972 35.7967 19.8162C35.3967 21.2042 35.7768 22.7092 36.1468 24.0612C36.5168 25.3892 36.9968 26.6902 37.5868 27.9342C38.2268 29.2712 38.9968 30.5412 39.8768 31.7302C39.5968 33.0032 39.3667 34.2892 39.0667 35.5572C38.6767 37.2122 38.2367 38.8562 37.7367 40.4822C37.0767 42.6462 36.3166 44.7762 35.4666 46.8732C35.6466 45.2562 35.7567 43.6282 35.7767 42.0082C35.8067 39.4252 35.5567 36.8372 34.7667 34.3692C34.4967 33.5412 34.1466 32.1862 33.1566 31.9422C32.1966 31.7062 31.6967 32.6692 31.5467 33.4492C31.4367 34.0152 31.4366 34.6122 31.4166 35.1872C31.3966 35.8292 31.4066 36.4722 31.4266 37.1142C31.4666 38.4262 31.5967 39.7352 31.8167 41.0292C32.2867 43.8772 33.1966 46.6342 34.4566 49.2292C34.3366 49.5002 34.2268 49.7732 34.1068 50.0432C33.5568 51.2332 32.9668 52.4032 32.3668 53.5642C32.3468 53.5852 32.3167 53.6082 32.2967 53.6282C32.2167 53.7032 32.1866 53.7962 32.1966 53.8842C30.4666 57.1712 28.4867 60.3312 26.2967 63.3342C26.3567 63.1362 26.4267 62.9382 26.4867 62.7442C26.7867 61.7592 27.0467 60.7582 27.2467 59.7482C27.4567 58.7142 27.6166 57.6692 27.7066 56.6182C27.7966 55.6322 27.9167 54.5822 27.7967 53.5942C27.6867 52.7912 27.2967 51.9982 26.5067 51.6852C25.8167 51.4122 25.0967 51.6822 24.7367 52.3192C24.3067 53.0442 24.3167 53.9652 24.2667 54.7762C24.2167 55.8222 24.2167 56.8712 24.2667 57.9172C24.3867 60.1252 24.7768 62.3032 25.3568 64.4322C25.3268 64.5332 25.2867 64.6332 25.2567 64.7342C24.6067 65.5772 23.9467 66.4102 23.2667 67.2252C21.1267 69.7972 18.7868 72.1922 16.3968 74.5412C16.3768 74.5582 16.3467 74.5752 16.3167 74.5922C16.9067 73.2452 17.4867 71.8882 18.0067 70.5122C19.9767 65.3562 21.4468 60.0052 22.3768 54.5662C23.3168 49.1282 23.7067 43.6022 23.5567 38.0862C23.5367 37.3092 23.5066 36.5312 23.4666 35.7522C24.6366 33.9672 25.5367 31.9862 26.2467 29.9762C27.0067 27.7952 27.5267 25.5272 27.7667 23.2292C27.8267 22.6432 27.8868 22.0542 27.8968 21.4652C27.8968 21.0552 27.9067 20.6242 27.7467 20.2392C27.4767 19.6122 26.7967 19.2692 26.2567 19.8242C25.9467 20.1402 25.8166 20.5802 25.6966 20.9902C25.5066 21.6082 25.3266 22.2282 25.1566 22.8522C24.8366 24.0532 24.5467 25.2612 24.2867 26.4772C23.9767 27.9082 23.7066 29.3462 23.4766 30.7902C23.3866 31.3182 23.2966 31.8492 23.2066 32.3812C22.8666 28.7812 22.2868 25.1972 21.3568 21.7222C21.2568 21.3562 21.1367 20.9982 21.0167 20.6422C22.9367 18.9852 24.3768 16.7672 25.3368 14.4272C25.8368 13.1882 26.2166 11.8862 26.4266 10.5652C26.6366 9.30519 26.6468 7.89919 25.8868 6.80619C25.2668 5.90319 24.0967 5.34119 23.0267 5.64219C22.7967 4.83219 22.4167 4.0802 21.7467 3.5232C20.8467 2.7822 19.3667 2.6632 18.5167 3.4972C18.1167 2.6002 17.4067 1.68121 16.3067 1.92121C15.2067 2.16121 15.0768 3.44721 15.1368 4.36921C15.1468 4.47321 15.1566 4.57621 15.1666 4.68021C15.1366 4.65221 15.0867 4.63718 15.0267 4.65018C13.9067 4.88518 13.0966 5.89221 12.6866 6.90421C12.3166 7.80221 12.2666 8.76519 12.4066 9.70719C11.6166 10.1692 11.2268 11.1852 11.1468 12.0582C11.0468 13.0982 11.3368 14.1172 11.8568 15.0132C12.4068 15.9662 13.1767 16.7702 13.9867 17.5032C14.8567 18.2802 15.7967 18.9822 16.7967 19.5782C17.9367 20.2562 19.1368 20.8062 20.3868 21.2192C20.4068 21.2242 20.4166 21.2212 20.4266 21.2242C20.8566 23.4922 21.3867 25.7392 21.7467 28.0202C22.1667 30.7032 22.4568 33.4082 22.5968 36.1202C22.6868 37.7872 22.7166 39.4562 22.7066 41.1252C22.6966 41.0762 22.6866 41.0252 22.6766 40.9762C22.4666 39.8512 22.1768 38.7382 21.8468 37.6452C21.5068 36.5492 21.1068 35.4732 20.6468 34.4222C20.2468 33.5202 19.8568 32.4252 19.1268 31.7322C18.5468 31.1762 17.5366 30.9492 16.9266 31.6082C16.3366 32.2602 16.5168 33.2962 16.6368 34.0842C16.9468 36.0812 17.5666 38.0282 18.4666 39.8342C19.4966 41.8782 20.8767 43.7232 22.5467 45.2862C22.5567 45.2902 22.5567 45.2912 22.5667 45.2952C22.4167 47.6882 22.1768 50.0752 21.8368 52.4472C21.0468 57.8532 19.7266 63.1802 17.9066 68.3322C16.9866 70.9372 15.9367 73.4992 14.7667 76.0032C15.0367 74.9722 15.2867 73.9362 15.4867 72.8882C16.0367 70.0622 16.3266 67.1752 16.4166 64.3002C16.4766 62.4512 16.4367 60.6002 16.3167 58.7562C18.3867 55.2472 19.5066 51.2222 19.6666 47.1502C19.6966 46.3322 19.7468 45.4292 19.3468 44.6812C18.9768 43.9802 18.1966 43.6772 17.4566 44.0102C16.5366 44.4292 16.2367 45.4542 16.0067 46.3562C15.7167 47.4632 15.4968 48.5872 15.3468 49.7222C15.3068 50.0572 15.2767 50.3942 15.2467 50.7332C14.9967 49.5642 14.7366 48.4002 14.4166 47.2462C13.9966 45.6902 13.4966 44.1542 12.9366 42.6422C12.5866 41.6802 12.1967 40.7132 11.7467 39.7842C11.7667 39.7492 11.7767 39.7122 11.7867 39.6682C11.8867 39.2222 12.0467 38.7672 12.2467 38.3392C12.3467 38.1302 12.4567 37.9252 12.5667 37.7382C12.6967 37.5302 12.8768 37.2972 12.8968 37.0482C12.9068 37.0342 12.9166 37.0212 12.9266 37.0072C13.6266 36.1412 14.2066 35.1772 14.6666 34.1622C15.1466 33.1022 15.5168 31.9432 15.6468 30.7852C15.7668 29.7142 15.5767 28.5502 14.7567 27.7832C14.0867 27.1562 12.9566 26.9852 12.2166 27.5392C11.9066 27.0452 11.4866 26.6342 10.9266 26.3682C9.9966 25.9322 8.86671 26.1872 8.29671 27.0192C8.26671 26.9732 8.24664 26.9242 8.21664 26.8782C7.79664 26.1962 7.12666 25.4582 6.24667 25.5662C5.36667 25.6732 4.87674 26.5462 4.82674 27.3552C4.75674 28.3272 5.02671 29.3642 5.29671 30.2892C5.58671 31.2592 5.96659 32.1962 6.41659 33.0992C7.43659 35.1342 8.75676 36.9932 10.0968 38.8282C7.69676 38.1432 5.47666 36.7112 3.98666 34.7092C3.22666 33.6872 2.63675 32.4112 2.83675 31.1082C2.92675 30.5542 3.14667 30.0172 3.49667 29.5772C3.66667 29.3582 3.87676 29.1822 4.09676 29.0212C4.30676 28.8732 4.55666 28.7692 4.73666 28.5912C4.82666 28.5092 4.7866 28.3802 4.6766 28.3552C3.8066 28.1692 2.97681 29.2412 2.64681 29.8992C2.17681 30.8112 2.12681 31.8552 2.39681 32.8342C2.45681 33.0482 2.53678 33.2552 2.61678 33.4602C2.60678 33.4682 2.58674 33.4722 2.57674 33.4842C2.38674 33.6932 2.32667 34.0032 2.24667 34.2722C2.16667 34.5562 2.09672 34.8482 2.05672 35.1412C1.95672 35.7052 1.9367 36.2902 2.0367 36.8532C2.2367 37.8612 2.81667 38.6572 3.74667 39.1142C4.75667 39.6152 5.96673 39.7922 7.06673 39.9702C7.73673 40.0772 8.39673 40.1642 9.06673 40.2232C9.71673 40.2822 10.3767 40.2782 11.0367 40.3322C11.3167 41.0682 11.6068 41.8012 11.8768 42.5382C12.3668 43.8502 12.7866 45.1812 13.1866 46.5242C13.9666 49.2282 14.5466 51.9952 14.9266 54.7862C15.1566 56.4462 15.3068 58.1152 15.3868 59.7872C15.1268 58.2422 14.6667 56.7252 14.0667 55.2872C13.0867 52.9572 11.6866 50.8032 9.93661 48.9842C9.20661 48.2202 8.05663 47.2752 6.95663 47.9632C6.05663 48.5212 6.12678 49.7012 6.36678 50.5902C6.99678 52.9082 8.13666 55.1362 9.49667 57.1112C10.9767 59.2652 12.8166 61.1632 14.9166 62.7192C15.0266 62.9552 15.1467 63.1912 15.2667 63.4232C15.3067 63.5092 15.3866 63.5402 15.4566 63.5322C15.4266 66.2432 15.2067 68.9522 14.7967 71.6342C14.5567 73.2042 14.2666 74.7682 13.9166 76.3202C13.7266 77.2172 13.5167 78.1162 13.2867 79.0082C13.2267 79.1262 13.1568 79.2412 13.0968 79.3582C13.1368 79.0402 13.1766 78.7232 13.2066 78.4062C13.3166 77.3472 13.3467 76.2822 13.3067 75.2192C13.2267 73.0422 12.8666 70.8822 12.2066 68.8062C12.0566 68.3402 11.8966 67.8772 11.7066 67.4232C11.5466 67.0182 11.3366 66.5702 10.9166 66.3802C10.5866 66.2312 10.1966 66.2512 9.93661 66.5232C9.63661 66.8392 9.64679 67.3412 9.62679 67.7472C9.47679 69.9232 9.58662 72.1152 9.94662 74.2662C10.3566 76.6942 11.1067 79.0112 12.0667 81.2722C11.7167 81.9032 11.3567 82.5312 10.9867 83.1522C9.59666 85.4852 8.09665 87.7532 6.47665 89.9372C4.85665 92.1232 3.10675 94.1962 1.33675 96.2562C0.886753 96.7712 0.446704 97.2812 0.0367043 97.8172C-0.0832957 97.9642 0.116685 98.1682 0.266685 98.0472C1.33668 97.1692 2.27663 96.1532 3.20663 95.1272C4.11663 94.1182 4.99675 93.0792 5.83675 92.0132C7.54675 89.8532 9.14679 87.6032 10.6268 85.2772C11.4568 83.9632 12.2467 82.6212 13.0067 81.2592C13.0467 81.2402 13.0868 81.2062 13.1068 81.1502C13.1268 81.0832 13.1566 81.0172 13.1766 80.9502C14.1266 79.2182 15.0168 77.4512 15.8468 75.6552C16.0368 75.5022 16.2166 75.3362 16.4066 75.1802C16.8366 75.2952 17.2666 75.1982 17.7066 75.1092C18.2466 75.0002 18.7867 74.8672 19.3167 74.7222C20.3667 74.4352 21.3868 74.0812 22.3968 73.6632C24.4168 72.8212 26.3368 71.7352 28.1068 70.4392C29.1268 69.6882 30.0967 68.8652 30.9967 67.9782C31.1867 67.7992 31.0767 67.4592 30.7967 67.4982C27.1867 67.9872 23.6968 69.3242 20.6168 71.2642C21.4368 70.4202 22.2367 69.5612 23.0067 68.6782C24.0267 67.5082 25.0066 66.2992 25.9566 65.0642C25.9766 65.0442 25.9967 65.0232 26.0067 64.9972C27.1367 63.5292 28.2066 62.0222 29.2166 60.4782C30.6766 58.2562 32.0167 55.9562 33.2367 53.5962C33.2467 53.5942 33.2567 53.5992 33.2667 53.5942C33.3067 53.5722 33.3566 53.5442 33.4066 53.5192C33.3666 53.5552 33.3267 53.5842 33.2967 53.6242C33.2867 53.6292 33.2967 53.6392 33.2967 53.6392C33.8867 53.6522 34.3866 53.3632 34.9066 53.1012C35.4566 52.8202 36.0067 52.5242 36.5467 52.2142C37.6267 51.5932 38.6666 50.9052 39.6666 50.1712C41.6966 48.6882 43.5667 46.9912 45.2467 45.1192C45.9067 44.3772 47.0568 43.3492 46.6368 42.2312C46.1768 40.9822 44.6868 41.7012 43.8568 42.1032C41.6668 43.1662 39.8767 44.8962 38.3067 46.7312C36.8867 48.3832 35.6066 50.1512 34.1566 51.7662C34.4166 51.2272 34.6566 50.6822 34.9066 50.1372C34.9566 50.1222 34.9967 50.0922 35.0067 50.0272C35.0167 49.9732 35.0267 49.9192 35.0367 49.8652C36.2067 47.2582 37.2468 44.5902 38.1268 41.8672C38.7068 40.0482 39.2266 38.2082 39.6566 36.3482C39.9866 34.9332 40.3167 33.4832 40.5167 32.0282C40.6267 31.9542 40.6966 31.8302 40.6866 31.6952C41.2366 31.6022 41.7767 31.4472 42.2967 31.2792C43.0267 31.0462 43.7366 30.7622 44.4266 30.4302C45.7566 29.7892 47.0068 28.9772 48.1268 28.0192C49.2868 27.0372 50.3068 25.8952 51.1468 24.6382C52.0068 23.3622 52.7966 21.8372 52.4666 20.2522ZM23.8768 31.6382C24.0368 30.4992 24.2266 29.3642 24.4466 28.2332C24.8666 25.9722 25.3866 23.7322 25.9266 21.4972C26.0366 21.0292 26.1168 20.4752 26.3968 20.0732C26.4768 19.9742 26.5666 19.8932 26.6666 19.8392C26.6666 19.8422 26.6666 19.8442 26.6666 19.8462C26.5466 20.4952 26.5066 21.1612 26.4166 21.8142C26.3266 22.4692 26.2168 23.1212 26.1068 23.7732C25.8768 25.0522 25.6167 26.3252 25.3267 27.5912C24.8267 29.7602 24.2167 31.8902 23.5767 34.0182C23.6667 33.2252 23.7568 32.4292 23.8768 31.6382ZM25.6068 27.7692C25.9168 26.4812 26.1866 25.1862 26.4166 23.8852C26.5366 23.2342 26.6567 22.5822 26.7567 21.9302C26.8767 21.2602 27.0267 20.5762 27.0767 19.8992C27.0767 19.8672 27.0767 19.8392 27.0667 19.8132C27.0767 19.8142 27.0767 19.8132 27.0767 19.8152C27.3467 19.9242 27.4266 20.2092 27.4766 20.4612C27.5566 20.8692 27.5166 21.2682 27.4766 21.6802C27.4366 22.2462 27.3967 22.8112 27.3267 23.3752C27.0767 25.4802 26.6166 27.5612 25.9366 29.5702C25.2966 31.4752 24.4366 33.2652 23.4766 35.0212C24.3566 32.6632 25.0368 30.2152 25.6068 27.7692ZM23.3368 7.42218C23.3068 7.04718 23.2566 6.6662 23.1866 6.2902C24.0666 6.0052 25.0367 6.52818 25.5267 7.28818C26.1967 8.34618 26.0167 9.76419 25.7967 10.9272C25.3467 13.2582 24.4068 15.4912 23.1068 17.4702C22.6868 18.1072 22.2166 18.7162 21.7266 19.3062C22.1866 18.3882 22.5067 17.3702 22.7567 16.4132C23.1367 14.9552 23.3466 13.4572 23.4266 11.9532C23.5066 10.4432 23.4668 8.92618 23.3368 7.42218ZM12.9666 7.92618C13.2066 6.61818 13.9768 5.64518 15.1268 5.02118C15.1568 5.00618 15.1766 4.98421 15.1966 4.96021C15.3966 7.41221 15.8668 9.84319 16.5868 12.1942C17.2868 14.4592 18.2268 16.6402 19.3668 18.7112C17.9568 17.6652 16.6668 16.4812 15.5968 15.0552C14.8468 14.0522 14.1766 12.9732 13.6566 11.8292C13.1066 10.6182 12.7266 9.25918 12.9666 7.92618ZM20.1566 20.3702C17.7966 19.5732 15.5967 18.2872 13.8067 16.5372C12.8767 15.6362 12.0067 14.5342 11.7467 13.2402C11.6267 12.6542 11.6367 12.0342 11.8067 11.4572C11.9467 10.9592 12.1967 10.5762 12.4967 10.1822C12.5367 10.3862 12.5868 10.5882 12.6468 10.7872C13.0468 12.1212 13.7467 13.3692 14.5067 14.5262C15.2467 15.6322 16.0867 16.6702 17.0167 17.6162C17.9667 18.5812 19.0166 19.4762 20.1666 20.1972C20.1666 20.2542 20.1666 20.3122 20.1566 20.3702ZM20.2266 18.8642C17.9966 14.9912 16.5266 10.6782 15.9666 6.23819C15.8966 5.65119 15.8367 5.0622 15.7967 4.4722C15.7667 4.0002 15.7266 3.4592 15.9366 3.0192C16.1866 2.4992 16.7566 2.45919 17.2066 2.76819C17.6666 3.09219 17.8767 3.68118 18.0667 4.19318C18.9467 6.61018 19.5566 9.13419 19.9066 11.6822C20.2366 14.0572 20.3166 16.4672 20.2266 18.8642ZM20.6766 19.6222C20.6666 19.5972 20.6468 19.5732 20.6368 19.5492C21.2268 14.3992 20.5267 9.0842 18.7867 4.2092C19.5067 3.2312 20.8668 3.46921 21.6268 4.28321C22.0968 4.78021 22.3467 5.3922 22.5067 6.0412C22.5067 6.1102 22.5167 6.17719 22.5467 6.23719C22.6767 6.85319 22.7267 7.4952 22.7667 8.1012C22.9567 10.7562 22.8667 13.4602 22.2367 16.0552C22.0567 16.7682 21.8367 17.4712 21.5767 18.1552C21.3567 18.6972 21.1068 19.2212 20.8768 19.7522C20.8068 19.7082 20.7466 19.6652 20.6766 19.6222ZM17.3868 35.4262C17.1968 34.6092 16.9867 33.7182 17.0067 32.8742C17.0167 32.4992 17.0866 32.0552 17.4266 31.8292C17.4766 31.7972 17.5267 31.7742 17.5767 31.7542C17.9967 34.0852 18.7568 36.3892 19.5868 38.6002C20.0068 39.7072 20.4766 40.7982 20.9566 41.8792C21.1966 42.4202 21.4366 42.9582 21.6966 43.4892C21.7566 43.6102 21.8168 43.7352 21.8768 43.8592C19.6968 41.4912 18.1168 38.5642 17.3868 35.4262ZM22.1566 43.2922C21.8766 42.7682 21.6068 42.2412 21.3468 41.7082C20.8468 40.6632 20.3866 39.5932 19.9766 38.5102C19.1066 36.2852 18.4767 34.0072 17.8267 31.7142C17.8267 31.7072 17.8267 31.7052 17.8167 31.6982C18.1967 31.6742 18.5868 31.8882 18.8368 32.1472C19.1468 32.4692 19.3467 32.8832 19.5467 33.2792C19.7667 33.7212 19.9766 34.1692 20.1766 34.6222C20.5966 35.5682 20.9667 36.5362 21.2867 37.5192C21.6367 38.6122 21.9266 39.7232 22.1666 40.8482C22.2866 41.4212 22.3866 41.9962 22.4766 42.5742C22.5366 42.9642 22.5768 43.3582 22.6468 43.7472C22.6368 43.8732 22.6268 43.9992 22.6268 44.1252C22.4668 43.8472 22.3066 43.5712 22.1566 43.2922ZM18.2867 47.9532C18.3367 47.3362 18.3668 46.7192 18.3968 46.1012C18.4268 45.5572 18.4766 44.9862 18.4566 44.4402C18.6666 44.5292 18.8567 44.6962 18.9867 44.9832C19.3267 45.7272 19.2366 46.6312 19.2066 47.4242C19.1166 49.4222 18.7766 51.4132 18.2066 53.3322C17.7766 54.7852 17.2167 56.2052 16.5467 57.5742C17.1167 55.6032 17.5568 53.5982 17.8668 51.5692C18.0468 50.3692 18.1867 49.1632 18.2867 47.9532ZM15.7166 51.1782C15.7866 50.1522 15.9168 49.1302 16.0968 48.1182C16.1968 47.6132 16.3066 47.1102 16.4266 46.6112C16.5566 46.1052 16.6766 45.5722 16.9366 45.1172C17.1766 44.7142 17.5666 44.4352 17.9566 44.3742C17.9066 44.9702 17.9466 45.5852 17.9166 46.1842C17.8866 46.7542 17.8567 47.3252 17.8167 47.8942C17.7267 49.0802 17.5966 50.2642 17.4266 51.4412C17.1366 53.4942 16.7166 55.5302 16.2166 57.5432C16.0866 56.0252 15.9066 54.5112 15.6666 53.0072C15.6566 52.3992 15.6766 51.7892 15.7166 51.1782ZM10.0367 39.6922C9.2067 39.6742 8.36673 39.5762 7.56673 39.4672C6.50673 39.3212 5.38679 39.1542 4.37679 38.7842C3.38679 38.4222 2.72671 37.7152 2.54671 36.6582C2.46671 36.1512 2.48674 35.6402 2.57674 35.1352C2.61674 34.8642 2.67665 34.5972 2.72665 34.3282C2.75665 34.1932 2.79673 34.0562 2.81673 33.9192C3.64673 35.5972 5.1666 36.9852 6.6766 37.9812C7.7166 38.6652 8.85671 39.1862 10.0467 39.5402C10.0367 39.5742 10.0167 39.6042 10.0167 39.6412C10.0167 39.6582 10.0267 39.6742 10.0367 39.6922ZM10.4466 38.2502C8.36662 35.4142 6.24673 32.4102 5.56673 28.9002C5.41673 28.1092 5.15659 26.9112 5.91659 26.3372C6.69659 25.7432 7.4567 26.7672 7.7867 27.3762C8.6967 29.0382 9.3467 30.8742 9.7867 32.7132C10.0367 33.7542 10.2167 34.8132 10.3267 35.8772C10.4067 36.6572 10.4266 37.4412 10.4666 38.2242C10.4566 38.2332 10.4566 38.2422 10.4466 38.2502ZM11.0267 37.5402C11.0567 35.9092 10.7866 34.2362 10.4166 32.6882C10.0166 30.9682 9.45678 29.1812 8.61678 27.5952C8.64678 27.5692 8.67662 27.5372 8.69662 27.4962C8.95662 26.9672 9.5668 26.7132 10.1368 26.7792C10.7268 26.8472 11.2267 27.2402 11.5667 27.7042C12.3467 28.7662 12.4166 30.3162 12.4166 31.5842C12.4166 32.8852 12.2268 34.1922 11.8468 35.4382C11.6668 36.0412 11.4466 36.6422 11.1966 37.2172C11.1466 37.3262 11.0867 37.4312 11.0267 37.5402ZM11.5467 37.6162C11.8167 37.0882 12.0567 36.5422 12.2467 36.0092C12.6367 34.8912 12.8866 33.7222 12.9766 32.5412C13.0866 31.2242 13.0967 29.4612 12.5067 28.1002C12.9067 27.7782 13.4566 27.6982 13.9366 27.9132C14.5266 28.1742 14.8967 28.7762 15.0467 29.3822C15.3467 30.6732 14.8766 32.1492 14.4166 33.3492C13.9666 34.5142 13.3368 35.6012 12.5868 36.5952C12.5268 36.6682 12.4666 36.7342 12.4066 36.8062C12.2166 36.9242 12.0666 37.1442 11.9566 37.3292C11.9466 37.3462 11.9366 37.3652 11.9266 37.3822C11.8666 37.4552 11.7966 37.5262 11.7266 37.5982C11.6666 37.5852 11.6067 37.5942 11.5467 37.6162ZM7.44662 52.0832C7.10662 51.2032 6.57671 50.0822 6.79671 49.1142C6.84671 48.8762 6.96679 48.6932 7.12679 48.5652C8.61679 50.9672 10.1066 53.3612 11.4666 55.8392C12.1366 57.0572 12.7866 58.2882 13.4066 59.5342C13.7266 60.1932 14.0368 60.8622 14.3468 61.5292C11.2868 59.0362 8.87662 55.7682 7.44662 52.0832ZM15.1566 62.1642C14.7366 61.2172 14.2567 60.2922 13.7867 59.3672C13.1367 58.0842 12.4767 56.8112 11.7767 55.5542C10.4267 53.1142 8.9968 50.6982 7.3868 48.4172C7.5668 48.3572 7.75664 48.3432 7.96664 48.3822C8.55664 48.4932 9.02659 48.9702 9.41659 49.3872C11.0166 51.0572 12.3167 52.9942 13.3067 55.0802C14.3867 57.3652 14.9667 59.7922 15.3067 62.2832C15.2567 62.2462 15.2066 62.2032 15.1566 62.1642ZM12.3968 80.6592C10.8268 77.2092 10.0567 73.3312 10.0167 69.5552C10.0167 69.0822 10.0267 68.6102 10.0467 68.1372C10.0567 67.8872 10.0066 67.2852 10.1666 66.9482C10.7166 69.2372 11.2068 71.5442 11.6168 73.8632C11.8168 75.0032 11.9868 76.1482 12.1368 77.2952C12.2168 77.8682 12.2867 78.4452 12.3267 79.0222C12.3667 79.5002 12.3566 80.0522 12.4666 80.5382C12.4366 80.5782 12.4168 80.6182 12.3968 80.6592ZM12.8167 78.2222C12.7967 78.3522 12.7767 78.4812 12.7667 78.6112C12.6967 78.1762 12.6267 77.7392 12.5667 77.3032C12.4067 76.1332 12.2167 74.9662 12.0067 73.8032C11.5967 71.4732 11.0866 69.1662 10.4666 66.8832C10.4366 66.8062 10.3767 66.7762 10.3167 66.7722C10.3567 66.7432 10.3966 66.7192 10.4466 66.7112C10.9866 66.6272 11.2268 67.3292 11.3768 67.7112C11.5568 68.1872 11.7268 68.6712 11.8868 69.1592C12.4768 71.0282 12.8266 72.9842 12.9066 74.9422C12.9566 76.0362 12.9267 77.1332 12.8167 78.2222ZM19.6468 74.0992C19.0468 74.2902 18.4367 74.4582 17.8167 74.6042C17.5167 74.6752 17.2066 74.7302 16.9066 74.8232C17.0066 74.7212 17.1166 74.6252 17.2266 74.5262C18.1066 74.1532 18.9567 73.7102 19.8067 73.3062C21.0167 72.7352 22.2166 72.1642 23.4266 71.5932C24.6266 71.0222 25.8367 70.4472 27.0467 69.8862C27.6267 69.6162 28.2067 69.3462 28.7867 69.0762C28.8967 69.0262 29.0068 68.9772 29.1168 68.9292C26.3368 71.2572 23.1268 73.0012 19.6468 74.0992ZM27.4566 68.7092C28.0566 68.5422 28.6567 68.4142 29.2667 68.2992C28.9967 68.4362 28.7366 68.5772 28.4666 68.7052L26.7367 69.5492C25.5367 70.1332 24.3268 70.7012 23.1268 71.2752C21.9168 71.8492 20.7167 72.4232 19.5167 72.9972C19.1167 73.1882 18.7067 73.3742 18.3067 73.5622C20.9667 71.3192 24.0966 69.6512 27.4566 68.7092ZM25.6766 63.5522C25.3066 62.1362 25.0468 60.6932 24.8868 59.2372C24.6968 57.3862 24.6268 55.4622 24.8468 53.6102C24.9068 53.0882 25.0968 52.3682 25.5968 52.1432C25.2768 54.1102 25.1967 56.1092 25.2467 58.0992C25.2667 59.1162 25.3266 60.1312 25.4266 61.1432C25.4766 61.6492 25.5368 62.1552 25.5968 62.6592C25.6268 62.9052 25.6366 63.2202 25.6966 63.4932C25.6966 63.5122 25.6866 63.5332 25.6766 63.5522ZM25.8968 61.0742C25.7968 60.0872 25.7266 59.0962 25.7066 58.1042C25.6466 56.0902 25.7766 54.0812 25.9466 52.0752C25.9766 52.0752 26.0067 52.0672 26.0467 52.0712C26.9767 52.1792 27.2867 53.2002 27.3267 53.9892C27.3767 54.9072 27.2866 55.8502 27.1966 56.7632C27.1066 57.6992 26.9667 58.6302 26.7867 59.5532C26.5967 60.5152 26.3567 61.4672 26.0667 62.4052C26.0067 61.9622 25.9468 61.5192 25.8968 61.0742ZM42.3368 43.5402C42.8068 43.2022 43.3067 42.8942 43.8267 42.6282C44.3267 42.3732 44.9367 42.0312 45.4967 41.9762C46.3067 41.8972 46.3367 42.7972 46.0467 43.3162C45.7667 43.8322 45.3166 44.2792 44.9266 44.7182C43.3666 46.4742 41.6367 48.0722 39.7667 49.4852C38.7367 50.2612 37.6767 50.9812 36.5667 51.6432C35.9767 51.9962 35.3867 52.3362 34.7767 52.6572C34.6867 52.7052 34.5967 52.7512 34.5067 52.7972C34.5267 52.7822 34.5467 52.7652 34.5667 52.7502C35.0167 52.4322 35.4666 52.1082 35.9066 51.7772C36.7866 51.1172 37.6467 50.4322 38.4867 49.7252C40.1667 48.3122 41.7867 46.8212 43.3167 45.2432C44.1967 44.3422 45.0368 43.4132 45.8568 42.4602C46.0968 42.1732 45.6268 41.8132 45.3868 42.1042C43.6068 44.2532 41.6868 46.3092 39.6268 48.1832C38.6068 49.0992 37.5667 49.9812 36.4967 50.8272C35.9467 51.2632 35.3867 51.6902 34.8167 52.1072C34.6067 52.2662 34.3766 52.4182 34.1566 52.5732C36.8666 49.5382 38.9768 45.9272 42.3368 43.5402ZM31.8468 35.2412C31.8668 34.4662 31.7367 32.8892 32.5567 32.4262C32.5967 32.4052 32.6266 32.3952 32.6666 32.3812C32.6666 32.6572 32.7367 32.9372 32.7867 33.2062C32.8467 33.5422 32.8966 33.8782 32.9566 34.2152C33.0766 34.9362 33.1867 35.6592 33.2967 36.3822C33.5067 37.8052 33.6968 39.2302 33.8568 40.6602C34.0168 42.0902 34.1467 43.5232 34.2467 44.9582C34.2967 45.6882 34.3368 46.4192 34.3768 47.1502C34.3868 47.3872 34.3966 47.6252 34.4066 47.8632C32.6466 43.9172 31.7368 39.5522 31.8468 35.2412ZM34.9266 47.3882C34.9266 47.3312 34.9166 47.2732 34.9166 47.2162C34.8666 46.4872 34.8167 45.7582 34.7567 45.0302C34.6267 43.5742 34.4767 42.1182 34.3067 40.6672C34.1367 39.2152 33.9366 37.7652 33.7066 36.3212C33.5966 35.5992 33.4668 34.8782 33.3368 34.1582C33.2768 33.8222 33.2166 33.4862 33.1566 33.1512C33.1066 32.8842 33.0666 32.5952 32.9666 32.3362C33.7266 32.4342 34.1467 34.0572 34.3067 34.5682C35.0367 36.8782 35.2867 39.3302 35.2867 41.7452C35.2867 43.6362 35.1066 45.5112 34.9266 47.3882ZM43.7967 20.3552C43.8167 20.3292 43.8468 20.3072 43.8468 20.2692C43.9768 19.3562 44.0268 18.4872 44.3568 17.6102C44.6768 16.7622 45.1467 15.9642 45.7567 15.2922C46.3667 14.6122 47.3167 14.0852 48.0567 14.9152C48.6767 15.6002 48.6666 16.6902 48.6866 17.5572C48.7366 21.2862 47.3167 24.9412 44.7467 27.6382C44.0867 28.3282 43.3467 28.9472 42.5667 29.4972C42.1867 29.7692 41.7868 30.0142 41.3768 30.2522C41.1568 30.3862 40.9166 30.5022 40.6866 30.6402C40.6866 30.6212 40.6966 30.6032 40.6966 30.5842C40.6966 30.5392 40.6966 30.5002 40.6766 30.4652C41.2666 29.6622 41.7068 28.7462 42.0868 27.8362C42.5068 26.8392 42.8468 25.8062 43.1168 24.7582C43.4868 23.3162 43.7167 21.8402 43.7967 20.3552ZM39.7266 20.0042C39.5066 21.0932 39.3868 22.2012 39.3568 23.3112C39.2668 25.6822 39.5167 28.0462 39.7967 30.3982C38.7167 28.8442 37.8166 27.1562 37.1866 25.3732C36.7766 24.2192 36.4167 23.0062 36.2667 21.7862C36.1267 20.6782 36.2766 19.4122 37.1866 18.6482C38.0166 17.9432 39.3868 18.1362 39.8568 19.1892C39.8668 19.2092 39.8868 19.2152 39.8968 19.2292C39.8368 19.4892 39.7766 19.7492 39.7266 20.0042ZM40.3868 30.1362C39.9068 26.3782 39.5067 22.4682 40.5767 18.7862C40.7067 18.3272 40.8667 17.8692 41.0567 17.4292C41.2067 17.0582 41.4368 16.5922 41.8368 16.4312C42.2668 16.2582 42.6966 16.5462 42.9066 16.9102C43.1666 17.3422 43.1866 17.8832 43.1966 18.3732C43.2666 20.3462 43.0468 22.3392 42.5968 24.2602C42.3468 25.3372 42.0068 26.3952 41.5968 27.4232C41.2368 28.3462 40.7868 29.2292 40.3868 30.1362ZM50.3267 24.8032C48.7467 26.9712 46.6166 28.7412 44.2066 29.9212C43.5566 30.2402 42.8866 30.5202 42.1966 30.7532C41.6866 30.9282 41.1568 31.0562 40.6268 31.1982C40.6368 31.1852 40.6368 31.1722 40.6368 31.1592C40.9168 31.0962 41.1766 30.9632 41.4466 30.8262C41.8866 30.6062 42.3166 30.3462 42.7266 30.0732C43.5366 29.5302 44.2967 28.9002 44.9867 28.2032C46.3967 26.7762 47.5067 25.0692 48.2367 23.1962C48.7867 21.7662 49.1166 20.2512 49.2066 18.7222C49.2266 18.7182 49.2367 18.7192 49.2467 18.7132C49.8567 18.4362 50.5567 18.5692 51.0767 18.9742C51.6367 19.4062 51.8966 20.1062 51.9466 20.7932C52.0566 22.2722 51.1567 23.6592 50.3267 24.8032Z" fill="#4D4C51"/>
<path d="M14.0867 3.73419C14.0867 3.72619 14.0767 3.72319 14.0667 3.71619C14.0867 3.73119 14.0967 3.7462 14.1167 3.7612C14.1067 3.7532 14.0967 3.74419 14.0867 3.73419Z" fill="#4D4C51"/>
<path d="M13.2167 4.29719C13.2167 4.29919 13.2167 4.30121 13.2167 4.30421C13.2467 4.34421 13.2667 4.38621 13.2967 4.42521C13.3467 4.49821 13.4267 4.5522 13.5067 4.5882C13.5567 4.6002 13.5968 4.61221 13.6468 4.62421C13.7368 4.63521 13.8266 4.62221 13.9166 4.58521C13.9866 4.55921 14.0368 4.52021 14.0868 4.46821C14.1368 4.42321 14.1766 4.36719 14.1966 4.30119C14.2266 4.23419 14.2367 4.16521 14.2367 4.09321C14.2367 4.02321 14.2266 3.95521 14.1966 3.89121C14.1666 3.81621 14.1067 3.75721 14.0467 3.70521C14.0467 3.69921 14.0367 3.6972 14.0267 3.6912C14.0267 3.6872 14.0267 3.68119 14.0267 3.67719C14.0267 3.68019 14.0367 3.6842 14.0367 3.6872C14.0367 3.6852 14.0367 3.68221 14.0267 3.68021C14.0267 3.67621 14.0167 3.67219 14.0167 3.66819C14.0167 3.67019 14.0167 3.6722 14.0267 3.6742C13.9767 3.6142 13.9168 3.56919 13.8468 3.53919C13.7668 3.50919 13.6968 3.4992 13.6168 3.5102C13.5368 3.5222 13.4666 3.55119 13.4066 3.59919C13.3666 3.62919 13.3368 3.6632 13.3068 3.7002C13.3068 3.7022 13.3068 3.70521 13.3068 3.70521C13.3068 3.70521 13.2967 3.70721 13.2967 3.70921C13.2967 3.72121 13.2867 3.73221 13.2767 3.74421C13.2667 3.76321 13.2467 3.7772 13.2367 3.7992C13.2067 3.8362 13.1866 3.87821 13.1866 3.92521C13.1566 3.99221 13.1566 4.06021 13.1666 4.13221C13.1766 4.18421 13.1967 4.23721 13.2167 4.28721C13.2167 4.28921 13.2167 4.29319 13.2167 4.29719Z" fill="#4D4C51"/>
<path d="M14.0667 3.71619C14.0567 3.70619 14.0466 3.69518 14.0366 3.68518C14.0366 3.69018 14.0466 3.69819 14.0466 3.70319C14.0566 3.70819 14.0567 3.71119 14.0667 3.71619Z" fill="#4D4C51"/>
<path d="M12.4566 5.95721C12.6766 5.95721 12.7167 5.61523 12.4967 5.61523C12.2767 5.61523 12.2366 5.95721 12.4566 5.95721Z" fill="#4D4C51"/>
<path d="M43.5165 15.1872C43.8365 15.1872 44.1264 15.0202 44.1664 14.6822C44.1964 14.4012 43.9764 14.0362 43.6564 14.0362C43.3464 14.0362 43.0565 14.2032 43.0165 14.5412C42.9765 14.8222 43.2065 15.1872 43.5165 15.1872Z" fill="#4D4C51"/>
<path d="M43.6966 13.0192C44.1866 13.0192 44.2866 12.2472 43.7866 12.2472C43.2966 12.2472 43.1966 13.0192 43.6966 13.0192Z" fill="#4D4C51"/>
<path d="M45.0066 13.6122C45.0966 13.7312 45.2867 13.7272 45.3767 13.6102C45.3767 13.6002 45.3867 13.5902 45.3967 13.5802C45.5167 13.4102 45.3965 13.1652 45.1865 13.1672C44.9765 13.1702 44.8566 13.4142 44.9866 13.5822C44.9966 13.5922 44.9966 13.6022 45.0066 13.6122Z" fill="#4D4C51"/>
<path d="M40.7866 14.8352C40.7966 14.8562 40.8267 14.8712 40.8467 14.8812C40.8867 14.8952 40.9265 14.9002 40.9565 14.8952C40.9765 14.8952 40.9966 14.8942 41.0166 14.8942C41.0266 14.8942 41.0366 14.8942 41.0466 14.8932H41.0566C41.0666 14.8932 41.0666 14.8932 41.0666 14.8932C41.0766 14.8932 41.0867 14.8912 41.0967 14.8862C41.1067 14.8842 41.1167 14.8812 41.1267 14.8782C41.1367 14.8692 41.1565 14.8602 41.1665 14.8512C41.1765 14.8392 41.1965 14.8262 41.2065 14.8132C41.2165 14.7982 41.2266 14.7822 41.2366 14.7672C41.2466 14.7412 41.2466 14.7142 41.2466 14.6862C41.2466 14.6682 41.2466 14.6502 41.2366 14.6332C41.2366 14.6152 41.2265 14.5992 41.2165 14.5852C41.2065 14.5682 41.1965 14.5552 41.1865 14.5442C41.1665 14.5232 41.1467 14.5092 41.1167 14.4992C41.1167 14.4952 41.1067 14.4922 41.0867 14.4912C41.0867 14.4862 41.0766 14.4842 41.0666 14.4842C41.0566 14.4842 41.0566 14.4842 41.0566 14.4842C41.0466 14.4842 41.0466 14.4842 41.0366 14.4842C41.0366 14.4842 41.0266 14.4842 41.0166 14.4832C40.9966 14.4832 40.9765 14.4822 40.9565 14.4822C40.9165 14.4782 40.8767 14.4832 40.8467 14.4982C40.8367 14.5072 40.8166 14.5162 40.7966 14.5252C40.7766 14.5482 40.7466 14.5762 40.7366 14.6102C40.7266 14.6362 40.7166 14.6642 40.7266 14.6922C40.7166 14.7202 40.7266 14.7472 40.7366 14.7722C40.7466 14.7962 40.7666 14.8182 40.7866 14.8352Z" fill="#4D4C51"/>
<path d="M7.78662 25.2202C7.81662 25.2532 7.84672 25.2862 7.88672 25.3192C7.95672 25.3792 8.04673 25.4152 8.14673 25.4272C8.22673 25.4392 8.2967 25.4322 8.3667 25.4062C8.4367 25.3922 8.49664 25.3622 8.55664 25.3152C8.61664 25.2722 8.65652 25.2182 8.68652 25.1532C8.72652 25.0922 8.75659 25.0242 8.75659 24.9492C8.75659 24.9002 8.75659 24.8512 8.75659 24.8022C8.74659 24.7062 8.70673 24.6202 8.64673 24.5442C8.61673 24.5112 8.57663 24.4782 8.54663 24.4452C8.46663 24.3852 8.37661 24.3492 8.27661 24.3372C8.20661 24.3252 8.13665 24.3322 8.06665 24.3582C7.99665 24.3722 7.93671 24.4022 7.87671 24.4492C7.81671 24.4922 7.77658 24.5462 7.74658 24.6112C7.69658 24.6722 7.6765 24.7402 7.6665 24.8152C7.6665 24.8642 7.6665 24.9132 7.6665 24.9622C7.6865 25.0582 7.72662 25.1442 7.78662 25.2202Z" fill="#4D4C51"/>
<path d="M9.48657 24.7142C9.45657 24.7392 9.43651 24.7701 9.42651 24.8061C9.40651 24.8431 9.40649 24.8822 9.40649 24.9212C9.40649 24.9602 9.40651 24.9972 9.42651 25.0332C9.43651 25.0692 9.46658 25.0992 9.49658 25.1242C9.51658 25.1532 9.54667 25.1752 9.58667 25.1882C9.61667 25.2042 9.65653 25.2091 9.69653 25.2061C9.69653 25.2061 9.69654 25.2082 9.70654 25.2092C9.74654 25.2142 9.79667 25.2081 9.83667 25.1901C9.86667 25.1781 9.8965 25.1591 9.9165 25.1341C9.9365 25.1121 9.95655 25.0862 9.96655 25.0542C9.97655 25.0302 9.97656 25.0052 9.97656 24.9812C9.97656 24.9722 9.98657 24.9632 9.98657 24.9542C9.98657 24.9492 9.98657 24.9451 9.98657 24.9401C9.98657 24.9341 9.98657 24.9282 9.98657 24.9212C9.98657 24.9112 9.98656 24.9011 9.97656 24.8921C9.97656 24.8941 9.97656 24.8972 9.97656 24.8992C9.97656 24.8672 9.97655 24.8342 9.96655 24.8032L9.92651 24.7392C9.89651 24.6992 9.85664 24.6682 9.80664 24.6492C9.77664 24.6422 9.75656 24.6361 9.72656 24.6291C9.67656 24.6231 9.62666 24.6301 9.57666 24.6511C9.54666 24.6641 9.51657 24.6852 9.48657 24.7142Z" fill="#4D4C51"/>
<path d="M9.1067 23.6132C9.1167 23.6482 9.14652 23.6762 9.16652 23.7002C9.18652 23.7192 9.20658 23.7342 9.22658 23.7432C9.25658 23.7642 9.29667 23.7772 9.32667 23.7802C9.33667 23.7812 9.3467 23.7822 9.3567 23.7832C9.4067 23.7902 9.46661 23.7822 9.51661 23.7602C9.56661 23.7382 9.60673 23.7062 9.63673 23.6642C9.64673 23.6522 9.64651 23.6402 9.65651 23.6272C9.66651 23.6112 9.66653 23.5912 9.67653 23.5732C9.67653 23.5782 9.67653 23.5822 9.67653 23.5872C9.68653 23.5732 9.68654 23.5582 9.68654 23.5442L9.70656 23.4712C9.70656 23.4462 9.70656 23.4212 9.70656 23.3952C9.70656 23.3722 9.69654 23.3482 9.68654 23.3252C9.67654 23.2902 9.65672 23.2612 9.62672 23.2382C9.61672 23.2182 9.59666 23.2042 9.56666 23.1952C9.54666 23.1802 9.52661 23.1702 9.50661 23.1672C9.47661 23.1572 9.45653 23.1542 9.42653 23.1582C9.40653 23.1562 9.3767 23.1652 9.3567 23.1712L9.34669 23.1702C9.33669 23.1732 9.32666 23.1752 9.31666 23.1782C9.30666 23.1822 9.28661 23.1872 9.26661 23.1922C9.24661 23.2062 9.22655 23.2192 9.19655 23.2332C9.15655 23.2672 9.1267 23.3082 9.1067 23.3582C9.0867 23.4112 9.07668 23.4652 9.08668 23.5212C9.08668 23.5282 9.08668 23.5362 9.08668 23.5432C9.09668 23.5672 9.0967 23.5902 9.1067 23.6132Z" fill="#4D4C51"/>
<path d="M3.36679 27.9382C3.61679 27.9382 3.85681 27.8022 3.88681 27.5272C3.92681 27.2982 3.73665 27.0002 3.47665 27.0002C3.22665 27.0002 2.98663 27.1362 2.95663 27.4112C2.92663 27.6402 3.10679 27.9382 3.36679 27.9382Z" fill="#4D4C51"/>
<path d="M3.77664 25.4102C4.05664 25.4102 4.11669 24.9622 3.82669 24.9622C3.54669 24.9622 3.48664 25.4102 3.77664 25.4102Z" fill="#4D4C51"/>
<path d="M5.14676 24.4102C5.41676 24.4102 5.47656 23.9852 5.19656 23.9852C4.92656 23.9852 4.86676 24.4102 5.14676 24.4102Z" fill="#4D4C51"/>
</svg>
