<svg width="87" height="99" viewBox="0 0 87 99" fill="none" xmlns="http://www.w3.org/2000/svg">
<path d="M46.0479 34.1845C50.6779 37.8465 56.3978 40.1125 62.1878 41.0685C68.2578 42.0695 74.5679 41.5975 80.3779 39.5635C82.8779 38.6855 86.4079 37.2895 86.6379 34.1885C86.8479 31.4925 84.2378 29.6725 82.0778 28.6915C79.4078 27.4825 76.4778 26.7435 73.5878 26.3225C70.6778 25.8985 67.7279 25.8475 64.7979 26.1335C60.4079 26.5635 56.0979 27.7905 52.1579 29.7615C58.0579 25.7425 64.3179 22.2634 70.7379 19.1434C71.5379 18.7544 72.3379 18.3525 73.1379 17.9655C73.4279 17.8265 73.2079 17.4185 72.9179 17.5295C66.0879 20.1615 59.6379 23.7405 53.5179 27.7485C50.8779 29.4765 48.3079 31.3045 45.7979 33.2175C45.5679 33.0875 45.3479 33.3114 45.3779 33.5354C44.5479 34.1724 43.7279 34.8175 42.9179 35.4725C43.3179 33.5425 43.5879 31.5825 43.9279 29.6405C44.3079 27.4155 44.7179 25.1965 45.1479 22.9805C45.1579 22.9235 45.1679 22.8665 45.1779 22.8105C48.9779 21.3335 52.7179 19.5855 56.1479 17.3795C57.9479 16.2245 59.6578 14.9285 61.1878 13.4345C62.7778 11.8815 64.3278 10.0975 65.2078 8.03246C66.0278 6.10146 66.0979 3.72447 64.7679 1.99547C64.2079 1.26047 63.4379 0.750469 62.5979 0.426469C62.5479 0.269469 62.3379 0.141449 62.1579 0.268449C62.1579 0.270449 62.1479 0.273468 62.1479 0.275468C61.2879 0.0224677 60.3679 -0.0555318 59.4879 0.0384682C57.3779 0.266468 55.4878 1.50846 53.9378 2.89046C52.2578 4.38346 50.7679 6.11345 49.4879 7.95445C48.8779 8.82045 48.3278 9.72046 47.8178 10.6445C47.8878 10.3405 47.9579 10.0345 48.0379 9.73045C48.6279 7.27145 49.3779 4.81646 49.7479 2.30846C49.7879 2.04246 49.3979 1.99947 49.3079 2.22447C48.4579 4.32247 47.9679 6.56846 47.4279 8.76146C46.9879 10.5455 46.5679 12.3355 46.1679 14.1275C45.8279 14.9745 45.5279 15.8395 45.2679 16.7135C45.1379 15.1715 44.8079 13.6435 44.2379 12.2045C42.9179 8.87245 40.2779 5.60047 36.7979 4.41847C34.9279 3.78647 32.9379 3.97546 31.3679 5.20146C29.9079 6.33746 28.9879 8.11346 28.6279 9.90346C27.8779 13.5915 29.2578 17.4725 31.5878 20.3385C34.2078 23.5785 37.9379 25.6864 41.5979 27.5484C42.0579 27.7814 42.5179 28.0124 42.9779 28.2424C43.0979 28.3044 43.2379 28.3165 43.3579 28.2775C43.3379 28.3905 43.3079 28.5044 43.2979 28.6174C42.8779 31.0624 42.4179 33.5325 42.2479 36.0105C40.2379 37.6585 38.2679 39.3625 36.3479 41.1255C33.0579 44.1465 29.9278 47.3335 26.9578 50.6655C28.4078 47.5115 29.2979 44.1075 29.6079 40.6415C29.8179 38.3805 29.7779 36.0965 29.4879 33.8445C29.3479 32.7265 29.1479 31.6155 28.8879 30.5195C28.6379 29.4845 28.3579 28.4335 27.9179 27.4585C27.5179 26.5595 26.9279 25.6885 26.0579 25.1885C25.1979 24.6925 24.1678 24.5995 23.2078 24.8365C21.0578 25.3665 19.7479 27.2445 19.0479 29.2305C17.7179 32.9805 17.7579 37.2185 18.8079 41.0285C19.8579 44.8135 21.9178 48.3445 24.8478 50.9815C25.1378 51.2485 25.4479 51.4995 25.7579 51.7495C25.6479 51.9795 25.5279 52.2054 25.4179 52.4324C24.0779 53.9834 22.7779 55.5615 21.5179 57.1715C18.8379 60.5865 16.3279 64.1335 13.9979 67.7925C14.7679 65.6595 15.3878 63.4715 15.8378 61.2505C16.4078 58.4575 16.7279 55.6184 16.7679 52.7684C16.8179 50.2274 16.6678 47.5054 15.3478 45.2594C14.1878 43.2844 11.9679 41.7685 9.60786 41.9935C7.36786 42.2065 5.84784 44.0225 4.96784 45.9435C3.98784 48.1065 3.59783 50.5744 3.32783 52.9194C3.03783 55.5004 3.01786 58.1065 3.23786 60.6925C3.69786 65.8415 5.17786 70.9144 7.60786 75.4754C7.91786 76.0404 8.22793 76.5965 8.55793 77.1445C5.47793 82.9815 2.79782 89.0745 0.81782 95.3685C0.54782 96.2425 0.267884 97.1155 0.00788356 97.9935C-0.0521164 98.1935 0.24782 98.2955 0.31782 98.0965C2.66782 91.2355 5.58784 84.5334 8.95784 78.1134C8.98784 78.0604 9.01792 78.0085 9.04792 77.9555C13.1779 79.0345 17.5678 79.3145 21.8178 79.1485C25.7078 78.9975 29.9279 78.6145 33.3079 76.5195C34.7679 75.6135 36.4679 74.1155 35.8079 72.1965C35.1579 70.3065 33.0879 69.6995 31.2879 69.5895C29.1479 69.4585 26.9778 69.4755 24.8478 69.5995C22.7378 69.7225 20.6378 69.9985 18.5978 70.5695C15.5678 71.4185 12.6679 72.9615 10.5079 75.2675C10.6279 75.0655 10.7378 74.8624 10.8478 74.6604C10.9878 74.4174 11.1279 74.1725 11.2679 73.9255C14.0779 69.0195 17.2079 64.2935 20.6179 59.7845C21.1379 59.0975 21.6678 58.4175 22.1978 57.7405C23.5378 57.5285 24.8579 57.0945 26.1579 56.7325C27.5479 56.3475 28.9378 55.9695 30.3278 55.5925C33.0878 54.8435 35.8579 54.1195 38.6279 53.4085C40.5379 52.9195 42.4479 52.4425 44.3579 51.9715C47.7479 55.8515 52.2379 58.7865 57.0079 60.7015C61.9879 62.7045 67.4279 63.6025 72.7879 63.1945C74.1879 63.0885 75.6179 62.9155 76.8879 62.2715C78.0679 61.6695 79.0979 60.5965 79.3679 59.2665C79.8979 56.6865 77.5479 54.7365 75.6779 53.4315C71.5079 50.5245 66.5479 48.8055 61.4979 48.3175C61.1579 48.2845 60.8078 48.2705 60.4578 48.2495C61.9178 47.9455 63.3978 47.6815 64.8278 47.2975C65.3278 47.1645 65.1779 46.4385 64.6679 46.5145C63.2479 46.7255 61.8378 47.0805 60.4378 47.3825C59.1078 47.6685 57.7778 47.9605 56.4478 48.2565C53.2378 48.4735 50.0578 49.1935 47.0878 50.4285C46.1578 50.6515 45.2378 50.8775 44.3178 51.1055C44.1778 51.0245 44.0178 51.0825 43.9378 51.1975C39.6478 52.2615 35.3678 53.3785 31.0978 54.5545C29.5478 54.9835 27.9878 55.4225 26.4378 55.8685C25.2478 56.2115 24.0078 56.5145 22.8378 56.9435C26.6078 52.2285 30.6879 47.7614 35.0479 43.5914C38.5379 40.2604 42.2179 37.1215 46.0479 34.1845ZM81.5079 38.3065C76.0279 40.5035 69.9779 41.2055 64.1179 40.5415C58.2579 39.8775 52.5479 37.8094 47.6479 34.5224C49.7079 35.2834 51.8378 35.8695 53.9678 36.3645C56.4778 36.9465 59.0178 37.3775 61.5778 37.6805C66.7178 38.2905 71.9278 38.2725 77.0678 37.6975C79.6378 37.4095 82.1978 36.9715 84.7178 36.3985C83.8378 37.2775 82.6479 37.8505 81.5079 38.3065ZM62.5479 27.1975C68.1379 26.2665 73.9679 26.6545 79.3579 28.4545C80.0879 28.6995 80.8179 28.9665 81.5379 29.2785C81.0879 29.1675 80.6478 29.0555 80.1978 28.9605C79.0278 28.7105 77.8379 28.5025 76.6479 28.3385C74.2179 28.0045 71.7579 27.8345 69.3079 27.8465C64.4179 27.8715 59.5279 28.6025 54.8479 30.0325C53.2379 30.5255 51.6579 31.1165 50.1179 31.7905C53.9179 29.4855 58.1579 27.9275 62.5479 27.1975ZM48.5179 32.8225C52.5679 31.0345 56.8079 29.6875 61.1779 28.9515C65.9379 28.1495 70.8479 28.0164 75.6379 28.6434C76.9879 28.8204 78.3279 29.0535 79.6679 29.3445C80.9879 29.6325 82.3178 29.9505 83.5978 30.4035C84.4078 30.9685 85.1578 31.6715 85.5778 32.5735C85.6078 32.6195 85.6179 32.6675 85.6379 32.7145C80.7679 31.5025 75.7479 30.8535 70.7379 30.6685C65.5579 30.4775 60.3679 30.8105 55.2579 31.6945C52.6379 32.1485 50.0479 32.7455 47.5079 33.5285C47.8379 33.2835 48.1779 33.0565 48.5179 32.8225ZM61.8979 31.2645C67.0479 30.8525 72.2378 30.9835 77.3478 31.6895C80.2078 32.0845 83.0378 32.6735 85.8278 33.3885C85.9478 34.1465 85.7779 34.9125 85.3779 35.5815C80.4579 36.8365 75.3978 37.5105 70.3278 37.5885C65.1778 37.6685 60.0279 37.1815 54.9879 36.1025C52.3279 35.5305 49.7179 34.7475 47.1179 33.9545C51.9679 32.6395 56.8879 31.6665 61.8979 31.2645ZM64.7078 6.86647C64.0978 8.94147 62.6179 10.7245 61.1479 12.2525C59.7379 13.7105 58.1479 14.9894 56.4779 16.1344C53.0679 18.4664 49.2978 20.1645 45.5678 21.9205C45.4878 21.9585 45.4078 21.9985 45.3278 22.0375C45.3278 22.0335 45.3378 22.0295 45.3378 22.0255C45.9978 21.5795 46.6279 21.0894 47.2579 20.6044C48.0079 20.0344 48.7479 19.4614 49.4779 18.8764C50.9579 17.6954 52.4079 16.4715 53.7979 15.1885C56.4079 12.7855 58.8579 10.1335 60.8079 7.16347C61.8779 5.52647 62.8079 3.79145 63.5379 1.97545C64.9179 3.16745 65.2078 5.15347 64.7078 6.86647ZM46.9279 14.4555C47.5279 12.9645 48.2378 11.5215 49.0678 10.1445C50.1878 8.29246 51.4979 6.55347 52.9879 4.99147C54.3979 3.51947 55.9679 2.09046 57.8879 1.32546C58.9379 0.906455 60.1279 0.745457 61.2479 0.933457C55.7079 5.07446 51.4078 10.6635 47.8378 16.5415C47.1278 17.7045 46.4379 18.8775 45.7379 20.0465C46.1179 18.1795 46.5079 16.3145 46.9279 14.4555ZM45.5279 21.0645C49.1379 15.1545 52.8779 9.20047 57.9179 4.40147C59.1779 3.20847 60.4979 2.09247 61.9079 1.09047C62.3379 1.22047 62.7479 1.40745 63.1279 1.65645C63.1079 1.68145 63.0778 1.71347 63.0678 1.75447C60.4078 8.45247 55.2279 13.6495 49.7379 18.1295C48.9279 18.7885 48.1179 19.4405 47.3079 20.0855C46.6779 20.5765 46.0379 21.0475 45.4279 21.5555C45.4579 21.3915 45.4979 21.2285 45.5279 21.0645ZM40.1179 7.55647C41.3179 8.70947 42.2979 10.0725 43.0179 11.5665C44.3779 14.3455 44.7879 17.3975 44.3879 20.4295C44.3779 20.4495 44.3779 20.4684 44.3679 20.4884C44.3679 20.5434 44.3579 20.5975 44.3479 20.6525C44.3479 20.7095 44.3378 20.7665 44.3278 20.8235C44.1478 19.7795 43.9179 18.7455 43.6379 17.7245C42.7679 14.5075 41.9679 11.2205 40.1279 8.38747C39.5779 7.54147 38.9479 6.76145 38.2379 6.07045C38.9179 6.50045 39.5579 7.01247 40.1179 7.55647ZM33.5678 21.2575C31.0378 18.7885 29.2079 15.4035 29.2679 11.7955C29.2879 10.4715 29.5978 9.14745 30.2078 7.97545C29.9978 8.67445 29.9579 9.42748 30.0179 10.1645C30.1479 11.6675 30.6078 13.1655 31.0678 14.5975C31.8978 17.1905 33.0578 19.7185 34.7178 21.8915C35.0378 22.3165 35.3879 22.7195 35.7579 23.1095C34.9879 22.5375 34.2578 21.9275 33.5678 21.2575ZM38.3479 24.8244C38.3479 24.7744 38.3379 24.7225 38.2979 24.6835C37.8379 24.2275 37.3179 23.8445 36.8479 23.4125C36.3679 22.9805 35.9079 22.5155 35.4879 22.0305C34.6379 21.0675 33.9079 20.0045 33.2979 18.8795C32.0179 16.5305 31.0779 13.9295 30.5179 11.3135C30.1579 9.64646 30.1379 7.72645 31.3679 6.38945C31.3779 6.37845 31.3779 6.36645 31.3779 6.35445C31.5779 6.15345 31.7979 5.97046 32.0279 5.80946C32.0579 9.11246 32.9079 12.4255 34.1579 15.4675C35.4379 18.6005 37.2278 21.5305 39.4378 24.0965C40.0478 24.8095 40.7079 25.4845 41.3879 26.1285C41.6779 26.4015 41.9779 26.6875 42.2879 26.9645C40.9579 26.2915 39.6279 25.5914 38.3479 24.8244ZM42.1079 25.8945C41.4979 25.3255 40.9078 24.7285 40.3378 24.1105C39.2178 22.8965 38.1979 21.6094 37.2779 20.2384C35.4379 17.4904 34.0779 14.3955 33.2479 11.1955C32.7679 9.37345 32.4879 7.51746 32.2679 5.64946C32.9179 5.24346 33.6578 4.99247 34.4378 4.94347C36.1978 7.56147 37.8379 10.2505 39.1179 13.1385C40.4579 16.1635 41.5579 19.2825 42.3079 22.5085C42.6379 23.9045 42.8578 25.3115 43.0778 26.7205C42.7578 26.4485 42.4279 26.1815 42.1079 25.8945ZM43.0778 22.9115C42.6978 21.2795 42.2478 19.6655 41.7078 18.0795C40.6378 14.9155 39.2279 11.8745 37.5379 8.99345C36.7179 7.59045 35.8278 6.22547 34.8378 4.93147C35.0178 4.93547 35.1879 4.94147 35.3679 4.96547C35.9479 5.04347 36.5079 5.21447 37.0379 5.44347C39.2279 7.23247 40.6679 9.76946 41.6179 12.4085C42.1879 13.9835 42.6079 15.6085 43.0079 17.2315C43.3979 18.8085 43.7179 20.4304 43.8779 22.0484C43.9679 22.9804 44.0078 23.9255 43.9578 24.8615C43.9478 24.9195 43.9478 24.9765 43.9378 25.0345C43.8678 25.4265 43.7979 25.8185 43.7279 26.2105C43.5579 25.1015 43.3278 23.9965 43.0778 22.9115ZM4.34785 62.8615C3.98785 60.4195 3.85785 57.9454 3.97785 55.4794C4.08785 53.0814 4.39791 50.6455 5.03791 48.3255C5.41791 46.9255 5.9979 45.3715 7.0279 44.2645C6.3079 45.9395 5.9079 47.7915 5.6479 49.5625C5.3179 51.8665 5.27786 54.2015 5.35786 56.5245C5.44786 58.8095 5.64785 61.0904 5.84785 63.3674C6.02785 65.5094 6.25788 67.6504 6.62788 69.7684C6.81788 70.8464 7.05784 71.9145 7.33784 72.9695C5.87784 69.7615 4.86785 66.3545 4.34785 62.8615ZM9.47785 75.4285C9.32785 75.7035 9.1779 75.9824 9.0279 76.2594C9.0179 76.2334 9.00786 76.2055 8.98786 76.1785C7.43786 72.3565 6.82792 68.2315 6.41792 64.1495C5.97792 59.6895 5.47791 55.1365 5.90791 50.6575C6.02791 49.3655 6.23792 48.0844 6.54792 46.8244C6.81792 45.7704 7.17782 44.7645 7.56782 43.7565C7.75782 43.6035 7.95792 43.4645 8.16792 43.3425C8.20792 43.3235 8.2379 43.3095 8.2779 43.2915C8.1779 44.1105 8.12782 44.9375 8.06782 45.7585C7.98782 46.8665 7.92789 47.9755 7.88789 49.0855C7.79789 51.2625 7.76791 53.4425 7.78791 55.6215C7.82791 59.9835 8.05791 64.3345 8.53791 68.6705C8.78791 70.9305 9.10785 73.1825 9.47785 75.4265V75.4285ZM33.4779 75.6965C30.3879 77.8445 26.4079 78.3115 22.7479 78.5215C20.4079 78.6555 18.0679 78.6365 15.7379 78.4605C14.1579 78.3415 12.5879 78.1385 11.0179 77.9075C11.3179 77.8735 11.6079 77.8364 11.8979 77.8074C12.7579 77.7194 13.6078 77.6105 14.4678 77.5045C16.1778 77.2915 17.8878 77.0645 19.5978 76.8225C22.9678 76.3445 26.3279 75.8205 29.6779 75.2265C31.4479 74.9125 33.2179 74.5605 34.9879 74.2335C34.6179 74.8315 34.0379 75.3055 33.4779 75.6965ZM35.3278 72.8915C35.3578 73.1415 35.3279 73.3975 35.2479 73.6545C31.8979 74.3725 28.4979 74.9285 25.1179 75.4935C21.7579 76.0535 18.3879 76.5524 15.0179 76.9884C14.0779 77.1094 13.1378 77.2205 12.1978 77.3405C11.3978 77.4415 10.5379 77.4925 9.75788 77.7095C16.1779 75.5675 22.7479 73.9865 29.4879 73.2655C31.4279 73.0585 33.3778 72.9665 35.3278 72.8915ZM17.3779 71.6264C21.1079 70.2734 25.1578 70.1034 29.0878 70.1604C30.5378 70.1814 32.3378 70.0675 33.7078 70.7565C32.0578 70.9685 30.3879 71.0535 28.7379 71.2245C26.9079 71.4145 25.0879 71.6415 23.2679 71.9465C19.9779 72.4985 16.7179 73.3135 13.6179 74.5755C12.6779 74.9585 11.7579 75.3995 10.8679 75.8825C12.6079 73.9305 14.9079 72.5204 17.3779 71.6264ZM10.3879 76.4275C15.8379 73.5235 22.0279 72.3165 28.1179 71.6635C30.1579 71.4455 32.2179 71.1864 34.2679 71.1564C34.2879 71.1564 34.2979 71.1495 34.3079 71.1465C34.4179 71.2335 34.5279 71.3255 34.6279 71.4285C34.8979 71.7135 35.1079 72.0465 35.2279 72.4035C33.5479 72.4745 31.8678 72.6335 30.1878 72.7995C28.4678 72.9695 26.7479 73.1895 25.0379 73.4615C21.5779 74.0125 18.1579 74.7695 14.7879 75.7405C13.0679 76.2375 11.3678 76.7864 9.68782 77.4104C9.90782 77.0704 10.1379 76.7425 10.3879 76.4275ZM10.9979 72.7365C10.6279 73.3765 10.2679 74.0205 9.90791 74.6655C9.28791 70.7755 8.83792 66.8625 8.54792 62.9335C8.23792 58.5835 8.1379 54.2215 8.2779 49.8625C8.3079 48.6475 8.36782 47.4335 8.43782 46.2195C8.48782 45.1905 8.58788 44.1595 8.62788 43.1285C9.34788 42.8325 10.1078 42.7865 10.8478 42.9245C10.9278 43.9055 11.0979 44.8815 11.2279 45.8565C11.3579 46.8555 11.4778 47.8565 11.5878 48.8585C11.8078 50.8855 11.9578 52.9175 12.0678 54.9525C12.2778 58.9775 12.2679 63.0155 12.0179 67.0385C11.8879 68.9785 11.6679 70.9165 10.9979 72.7365ZM13.2479 67.5345C12.9279 68.4265 12.5778 69.3015 12.2078 70.1665C12.3178 69.4715 12.3978 68.7685 12.4478 68.0685C12.6078 66.0205 12.6578 63.9595 12.6878 61.9055C12.7278 57.8115 12.5379 53.7175 12.1179 49.6445C11.9979 48.5175 11.8678 47.3914 11.7178 46.2684C11.5678 45.1774 11.4279 44.0705 11.1679 42.9975C12.1979 43.2695 13.1579 43.8974 13.8779 44.7124C15.4979 46.5354 15.8479 49.1284 15.8979 51.4754C15.9579 54.1724 15.7479 56.8845 15.3079 59.5455C14.8679 62.2625 14.1679 64.9395 13.2479 67.5345ZM77.6379 60.7185C76.6579 61.6905 75.3079 62.0675 73.9779 62.2505C71.4179 62.6015 68.7678 62.5365 66.2078 62.2345C63.6578 61.9325 61.1378 61.3405 58.7178 60.4895C55.2978 59.2915 52.1279 57.5674 49.2479 55.4234C51.6479 56.7834 54.2979 57.7564 56.9079 58.5184C61.3979 59.8264 66.0779 60.6945 70.7579 60.8345C73.1579 60.9065 75.5678 60.7555 77.9478 60.3715C77.8478 60.4915 77.7479 60.6085 77.6379 60.7185ZM55.3779 49.3665C55.7779 49.2755 56.1878 49.1885 56.5878 49.0985C57.4978 49.0395 58.4178 49.0074 59.3278 49.0314C61.9078 49.0994 64.4778 49.5054 66.9678 50.2254C61.7378 49.4694 56.3979 49.4715 51.1779 50.3305C52.5779 50.0035 53.9779 49.6815 55.3779 49.3665ZM46.2379 51.7505C46.3979 51.7165 46.5679 51.6745 46.7379 51.6335C47.1579 51.5295 47.5879 51.4325 48.0179 51.3355C48.8379 51.1515 49.6579 50.9875 50.4779 50.8445C52.1679 50.5515 53.8778 50.3445 55.5878 50.2235C58.9278 49.9875 62.2979 50.0765 65.6179 50.5375C67.1879 50.7555 68.7479 51.0435 70.2879 51.4125C71.2879 51.8375 72.2578 52.3114 73.1978 52.8504C74.2278 53.4444 75.2379 54.1015 76.1779 54.8355C77.0179 55.4845 77.8279 56.2645 78.2879 57.2315C74.9979 54.9625 71.0279 53.7765 67.1379 53.0345C62.5779 52.1675 57.9179 51.7675 53.2879 51.6785C50.8379 51.6315 48.3878 51.6815 45.9478 51.8795C46.0478 51.8345 46.1379 51.7945 46.2379 51.7505ZM77.3579 57.3575C73.3779 56.9805 69.4078 56.5125 65.4578 55.9395C61.0378 55.3015 56.6479 54.5474 52.2679 53.6734C50.3379 53.2864 48.3779 52.8714 46.5179 52.1994C50.8079 52.0624 55.0779 52.0865 59.3579 52.4725C63.7179 52.8665 68.1978 53.4305 72.3478 54.9015C74.1078 55.5265 75.7979 56.3395 77.3579 57.3575ZM51.1978 54.1055C53.3678 54.5685 55.5479 54.9845 57.7279 55.3785C62.1679 56.1815 66.6279 56.8464 71.1079 57.3934C73.5779 57.6944 76.0579 57.9555 78.5379 58.1815C78.5479 58.1925 78.5678 58.2035 78.5778 58.2155C78.6378 58.7285 78.5478 59.2365 78.3378 59.7045C73.8378 60.4975 69.2278 60.3825 64.7178 59.7045C60.2678 59.0365 55.7679 57.9535 51.6479 56.1275C49.8679 55.3415 48.1879 54.3755 46.6079 53.2575C46.3279 53.0075 46.0479 52.7625 45.7779 52.5035C45.7179 52.4545 45.6679 52.4045 45.6179 52.3555C47.3979 53.1735 49.2778 53.6955 51.1978 54.1055ZM20.0579 42.3645C18.7979 38.8915 18.4579 35.0225 19.2579 31.4025C19.5879 29.8755 20.1178 28.1785 21.1878 26.9765C21.0678 27.4475 20.9879 27.9285 20.8979 28.3945C20.7479 29.2475 20.6279 30.1075 20.5579 30.9715C20.3979 32.6935 20.3879 34.4455 20.5179 36.1705C20.7679 39.6235 21.5979 43.0255 22.9879 46.1975C23.3679 47.0725 23.7979 47.9285 24.2679 48.7615C24.4879 49.1525 24.7178 49.5365 24.9478 49.9165C22.7678 47.8145 21.0979 45.2125 20.0579 42.3645ZM24.9478 48.6595C24.5178 47.9255 24.1279 47.1735 23.7579 46.4055C23.0279 44.8565 22.4479 43.2504 21.9779 41.6044C21.0479 38.3544 20.6679 34.9484 20.8879 31.5744C20.9479 30.6214 21.0578 29.6714 21.2178 28.7294C21.3378 27.9934 21.5179 27.2625 21.6479 26.5265C21.7779 26.4115 21.9079 26.2945 22.0579 26.1945C22.1279 26.1485 22.2079 26.1135 22.2779 26.0715C22.5179 29.2255 22.8979 32.3705 23.2679 35.5115C23.6579 38.8685 24.1478 42.2155 24.6878 45.5515C24.8378 46.4655 24.9979 47.3785 25.1479 48.2905C25.2079 48.6235 25.2678 48.9555 25.3278 49.2885C25.1978 49.0785 25.0678 48.8725 24.9478 48.6595ZM25.7779 48.4884C25.6279 47.6844 25.4878 46.8804 25.3378 46.0744C25.0478 44.4214 24.7679 42.7665 24.5079 41.1085C23.9879 37.7935 23.5079 34.4715 23.1179 31.1375C22.9179 29.3975 22.7379 27.6555 22.5479 25.9155C23.1279 25.6305 23.7679 25.4724 24.4079 25.5054C24.4079 25.5094 24.4079 25.5125 24.4079 25.5165C26.3179 31.9825 27.0479 38.7605 26.4879 45.4825C26.3779 46.8735 26.2079 48.2624 25.9979 49.6434C25.9279 49.2584 25.8579 48.8734 25.7779 48.4884ZM26.1579 50.6165C26.1579 50.6145 26.1579 50.6115 26.1579 50.6095C27.4379 44.1775 27.4279 37.4835 26.2979 31.0295C25.9779 29.1975 25.5379 27.3885 25.0179 25.6025C25.8079 25.8215 26.4278 26.3975 26.8478 27.0925C27.3578 27.9445 27.6379 28.9105 27.8979 29.8625C28.1779 30.8775 28.3978 31.9075 28.5678 32.9465C28.9078 35.0655 29.0279 37.2185 28.9279 39.3625C28.7379 43.2845 27.7878 47.1385 26.2178 50.7305C26.1978 50.6925 26.1779 50.6545 26.1579 50.6165Z" fill="#4D4C51"/>
</svg>
