<svg width="81" height="164" viewBox="0 0 81 164" fill="none" xmlns="http://www.w3.org/2000/svg">
<path d="M49.1372 71.2083C49.6672 70.2293 50.1871 69.2493 50.6971 68.2633C50.9171 68.3223 51.1472 68.3813 51.3772 68.3963C51.6772 68.4173 51.9872 68.4403 52.2972 68.4453C52.9172 68.4563 53.5372 68.4502 54.1572 68.4162C55.3872 68.3482 56.6071 68.2013 57.8171 67.9733C60.2471 67.5163 62.6171 66.7273 64.8571 65.6903C69.3471 63.6113 73.3471 60.4703 76.3671 56.5483C77.9171 54.5393 79.2472 52.3023 80.1672 49.9333C81.1372 47.4103 81.4672 44.2223 79.3772 42.1393C77.2872 40.0553 74.0772 40.8413 71.7972 42.1503C69.3172 43.5733 67.2471 45.5673 65.3571 47.6973C63.2771 50.0413 61.3372 52.5082 59.3772 54.9552C57.4572 57.3562 55.5771 59.7813 53.7171 62.2263C57.4471 54.3633 60.5572 46.1173 62.0472 37.5353C62.0872 37.4983 62.1171 37.4492 62.0971 37.3862C62.0971 37.3732 62.0871 37.3593 62.0871 37.3463C62.1271 37.0753 62.1771 36.8043 62.2271 36.5323C63.1971 35.6413 64.0871 34.6562 64.9871 33.7012C66.0571 32.5722 67.1072 31.4333 68.1372 30.2723C69.1772 29.0973 70.1971 27.9052 71.1871 26.6882C72.1471 25.5112 73.1271 24.3243 73.9371 23.0393C74.6771 21.8623 75.3172 20.5433 75.3972 19.1313C75.4772 17.8543 75.0671 16.6102 74.2371 15.6362C73.0571 14.2502 71.3472 13.6133 69.6272 13.6703C69.5772 13.6543 69.5271 13.6562 69.4771 13.6792C68.7671 13.7182 68.0672 13.8703 67.3872 14.1383C65.0772 15.0553 63.4771 17.0472 62.5771 19.3092C61.8671 13.6943 60.2571 8.20926 57.4971 3.29326C56.8971 2.22926 56.2372 1.19727 55.5472 0.19127C55.3572 -0.0867301 55.0071 0.110275 54.9771 0.377275C54.9471 0.322275 54.9272 0.266259 54.8972 0.211259C54.8972 0.205259 54.8972 0.202251 54.8872 0.197251C54.8872 0.163251 54.8872 0.129254 54.8872 0.0942545C54.8772 0.000254489 54.7671 -0.0207272 54.7071 0.0192728C54.5871 -0.0157272 54.4472 0.0162586 54.3972 0.142259C53.9072 1.29526 53.6272 2.55425 53.3872 3.77925C53.1472 5.02725 52.9872 6.29226 52.8972 7.56126C52.7372 10.0863 52.8471 12.6283 53.1871 15.1353C53.8671 20.2693 55.4872 25.2243 57.4072 30.0163C58.4972 32.7433 59.6972 35.4273 60.8872 38.1113C60.9372 38.2233 61.0271 38.2843 61.1171 38.3083C60.6071 41.0103 59.9372 43.6793 59.1472 46.3143C59.1372 46.0643 59.1271 45.8143 59.1071 45.5653C59.0371 44.3583 58.8672 43.1572 58.6272 41.9722C58.1472 39.6322 57.3671 37.3513 56.3171 35.2063C55.2571 33.0323 53.9071 30.9913 52.3171 29.1643C50.7171 27.3263 48.8572 25.6222 46.7772 24.3472C45.6272 23.6422 44.3371 23.0592 42.9771 22.9682C41.8271 22.8912 40.7171 23.1773 39.7371 23.7893C37.8771 24.9493 36.7272 27.1493 36.5372 29.2973C36.2972 31.9423 37.3772 34.5143 38.7572 36.7103C40.1072 38.8683 41.7971 40.8323 43.6171 42.6073C47.2071 46.1063 51.5572 48.8583 56.2672 50.5583C56.7172 50.7193 57.1671 50.8493 57.6171 50.9623C56.2171 54.8623 54.5772 58.6823 52.7972 62.4103C51.8272 64.4393 50.8072 66.4422 49.7672 68.4342C49.7672 68.4142 49.7672 68.3932 49.7672 68.3732C49.7372 68.0672 49.6972 67.7613 49.6472 67.4563C49.5672 66.8293 49.4671 66.2053 49.3471 65.5833C49.1171 64.3543 48.8171 63.1433 48.4671 61.9443C47.7671 59.5823 46.8471 57.2822 45.7171 55.0932C44.5771 52.8722 43.2272 50.7553 41.6772 48.7883C40.9172 47.8193 40.1172 46.8862 39.2672 45.9942C38.4172 45.0982 37.5271 44.1653 36.4971 43.4753C35.4871 42.8013 34.2871 42.3883 33.0671 42.6573C31.9671 42.9013 31.0071 43.5843 30.3171 44.4593C28.6171 46.5843 28.8072 49.4593 29.2572 51.9793C30.1372 56.9823 31.6071 62.1383 34.8571 66.1553C37.7571 69.7513 42.3771 72.3182 47.0971 71.8732C47.1471 71.8682 47.2072 71.8563 47.2572 71.8503C47.3072 71.8793 47.3572 71.9092 47.4072 71.9382C47.5572 72.0202 47.6771 71.9163 47.7071 71.7863C47.8071 71.7703 47.9072 71.7613 48.0072 71.7423C46.1872 75.1233 44.2972 78.4732 42.4272 81.8262C42.2072 82.1092 41.9872 82.3992 41.7772 82.6882C41.7372 82.6492 41.6872 82.6113 41.6472 82.5723C41.1072 81.0313 40.3771 79.5433 39.5771 78.1263C38.5771 76.3523 37.4272 74.6623 36.1472 73.0833C33.5772 69.9263 30.4571 67.2072 26.9571 65.1192C25.2371 64.0922 22.8972 62.7143 21.0372 64.2453C19.4972 65.5243 19.1572 67.8573 19.2672 69.7433C19.5072 74.0893 22.4172 77.7652 26.0572 79.9162C30.1672 82.3452 34.9472 83.0473 39.6372 83.4713C40.1972 83.5223 40.7671 83.5703 41.3371 83.6183C41.3471 83.6473 41.3572 83.6753 41.3772 83.7043C39.6772 86.7443 37.9871 89.7922 36.3671 92.8732C35.1071 95.2752 33.8871 97.7072 32.7271 100.166C32.6571 100.167 32.5872 100.188 32.5372 100.241C32.6172 99.8633 32.6771 99.4833 32.7371 99.1043C32.8671 98.1413 32.8971 97.1733 32.8571 96.2033C32.7771 94.2583 32.3372 92.3162 31.6472 90.4982C30.2772 86.8692 27.7771 83.6173 24.4971 81.5303C22.7271 80.4093 20.2971 79.3673 18.3271 80.6093C16.6371 81.6753 16.3271 83.9322 16.3671 85.7612C16.4571 89.8012 17.8471 93.7653 20.0971 97.1073C22.3371 100.453 25.5071 103.207 29.1871 104.858C29.4571 104.98 29.7372 105.09 30.0172 105.196C30.0472 105.281 30.0871 105.366 30.1171 105.451C30.1571 105.549 30.2371 105.584 30.3171 105.577C29.2671 108.086 28.2971 110.626 27.4371 113.202C27.4271 112.865 27.4172 112.529 27.3872 112.198C27.2672 110.44 26.8671 108.698 26.2171 107.059C24.9171 103.794 22.5071 100.583 19.2371 99.1223C17.6571 98.4213 15.9072 98.2233 14.2572 98.7733C12.8072 99.2563 11.4872 100.317 10.9172 101.767C10.2072 103.603 10.8771 105.559 11.8371 107.164C12.8171 108.788 14.0772 110.267 15.4072 111.616C17.9972 114.26 21.0771 116.482 24.4671 117.988C24.8971 118.177 25.2871 118.32 25.7471 118.416C25.7871 118.425 25.8271 118.416 25.8671 118.397C25.2871 120.517 24.7972 122.659 24.3972 124.83C23.9172 127.436 23.5771 130.07 23.3571 132.716C23.2571 132.641 23.1671 132.563 23.0771 132.488C23.0471 132.396 23.0271 132.302 22.9971 132.21C22.6371 131.018 22.1872 129.859 21.6472 128.735C20.5572 126.449 19.1671 124.314 17.5971 122.333C15.9471 120.257 14.0972 118.346 12.1772 116.52C11.2072 115.591 10.2071 114.683 9.1971 113.784C8.2571 112.939 7.31711 112.056 6.20711 111.426C5.20711 110.856 4.04718 110.545 2.90718 110.879C1.86718 111.183 1.0771 111.975 0.577103 112.91C-0.642897 115.192 0.297093 117.887 1.31709 120.051C3.14709 123.938 6.03717 127.306 9.51717 129.82C12.9972 132.338 17.1272 134.053 21.4072 134.569C21.9072 134.63 22.4172 134.672 22.9272 134.7C22.9272 134.72 22.9371 134.741 22.9371 134.761C22.9071 134.892 22.8871 135.026 22.8671 135.161C22.7471 135.222 22.7571 135.345 22.8271 135.418C22.8271 135.531 22.9272 135.579 23.0072 135.557C23.0372 135.599 23.0672 135.632 23.1272 135.619C23.1272 135.619 23.1272 135.617 23.1372 135.617C23.1372 135.642 23.1472 135.667 23.1472 135.692C22.7672 143.681 23.5171 151.739 25.4371 159.482C25.7671 160.818 26.1372 162.144 26.5272 163.462C26.5672 163.595 26.8072 163.53 26.7672 163.395C24.2472 154.477 23.2271 145.192 23.6971 135.959C23.7071 135.939 23.7071 135.92 23.7071 135.897C23.7071 135.891 23.7071 135.886 23.7071 135.88C23.7071 135.759 23.7171 135.637 23.7171 135.516C26.7571 135.295 29.7771 134.565 32.6971 133.713C35.6371 132.855 38.5072 131.77 41.2772 130.474C44.0272 129.187 46.6871 127.693 49.2171 126.012C50.4871 125.171 51.7172 124.282 52.9172 123.346C54.0972 122.425 55.2772 121.475 56.2772 120.353C57.2272 119.274 57.9972 118.01 58.2772 116.585C58.5372 115.332 58.4172 113.946 57.7772 112.821C56.3872 110.37 53.3672 110.211 50.8872 110.656C49.4272 110.917 47.9871 111.352 46.5771 111.785C45.0771 112.244 43.5872 112.758 42.1272 113.342C39.2172 114.51 36.4071 115.964 33.8471 117.787C29.6371 120.781 26.0771 124.916 24.2371 129.78C24.3071 129.251 24.3671 128.722 24.4471 128.194C24.9571 124.66 25.7172 121.195 26.6772 117.79C31.8072 115.343 36.7271 112.509 41.4871 109.421C43.9171 107.847 46.3072 106.208 48.6272 104.487C50.5772 103.047 52.5271 101.442 53.7471 99.3132C54.8371 97.4032 55.4372 94.6173 53.8872 92.7623C52.1472 90.6783 49.2171 91.6243 47.2371 92.7803C45.0871 94.0423 43.0572 95.5903 41.1372 97.1963C39.1872 98.8363 37.3472 100.614 35.6372 102.504C33.0672 105.335 30.7971 108.433 28.8571 111.728C29.7571 109.403 30.6372 107.071 31.5172 104.742C31.5872 104.596 31.6571 104.45 31.7271 104.305C31.8071 104.291 31.8872 104.253 31.9172 104.168C31.9772 104 32.0172 103.829 32.0472 103.656C32.1372 103.479 32.2272 103.303 32.3072 103.125C32.3572 103.013 32.4171 102.899 32.4671 102.786C34.9171 98.1163 37.2772 93.3963 39.6672 88.6913C40.4772 87.0903 41.3071 85.4993 42.0971 83.8843C42.0971 83.8803 42.0971 83.8772 42.1071 83.8732C43.6271 83.9392 45.1571 83.8842 46.6871 83.8392C48.3671 83.7902 50.0371 83.7063 51.7171 83.5823C54.9171 83.3453 58.1071 82.9403 61.2371 82.2033C64.0771 81.5323 66.8771 80.6003 69.4971 79.3103C70.7971 78.6733 72.0571 77.9492 73.2471 77.1362C74.4371 76.3262 75.6172 75.4413 76.5572 74.3503C77.4372 73.3423 78.1672 72.0743 78.1572 70.7023C78.1472 69.5353 77.5672 68.4553 76.6272 67.7693C74.7172 66.3743 72.0871 66.5002 69.8671 66.7142C64.5871 67.2222 59.4272 68.8503 54.7772 71.3873C51.0872 73.4053 47.7071 75.9973 44.8171 79.0563C46.2371 76.5283 47.6472 73.9963 49.0172 71.4443C49.0772 71.3803 49.1272 71.3023 49.1372 71.2083ZM74.6372 19.0383C74.5572 20.3713 73.9471 21.6142 73.2371 22.7182C72.4771 23.8982 71.5871 24.9993 70.7071 26.0923C69.7971 27.2213 68.8572 28.3292 67.8972 29.4212C66.8272 30.6482 65.7372 31.8592 64.6372 33.0632C64.1772 33.5682 63.7171 34.0732 63.2471 34.5802C63.4771 34.2932 63.6972 33.9943 63.9272 33.7093C64.3672 33.1443 64.7971 32.5743 65.2271 32.0013C66.0971 30.8383 66.9372 29.6533 67.7672 28.4583C69.4172 26.0663 70.9771 23.6142 72.4371 21.1062C73.1171 19.9422 73.8071 18.7712 74.4471 17.5802C74.5871 18.0442 74.6672 18.5333 74.6372 19.0383ZM73.9771 16.5723C74.0871 16.7403 74.1772 16.9153 74.2572 17.0953C73.6472 18.2483 73.0472 19.4073 72.3872 20.5433C71.6672 21.8093 70.8972 23.0463 70.1372 24.2863C68.6272 26.7233 66.9872 29.0793 65.2772 31.3803C64.7872 32.0333 64.2972 32.6803 63.7972 33.3233C63.5772 33.6123 63.3371 33.8993 63.0971 34.1913C63.1271 34.1193 63.1472 34.0463 63.1672 33.9743C64.0172 31.8933 64.9472 29.8463 66.0272 27.8673C67.4572 25.2323 69.0872 22.7093 70.9172 20.3283C71.8972 19.0443 72.9471 17.8153 73.9771 16.5723ZM73.4471 15.9082C73.5671 16.0262 73.6672 16.1493 73.7672 16.2773C71.6872 18.4213 69.9172 20.8933 68.2872 23.3903C66.7272 25.7823 65.3572 28.2883 64.1472 30.8773C64.5872 29.5713 65.0471 28.2742 65.5671 26.9982C66.6871 24.2352 68.0071 21.5503 69.4371 18.9303C70.1871 17.5353 70.9771 16.1552 71.8371 14.8172C72.4271 15.0572 72.9771 15.4132 73.4471 15.9082ZM69.4971 14.4503C70.1871 14.4033 70.8772 14.4833 71.5272 14.6973C70.0172 17.1303 68.5871 19.6013 67.3671 22.1933C66.0671 24.9353 64.9271 27.7743 63.9471 30.6433C63.6971 31.3813 63.4471 32.1263 63.2271 32.8753C63.6471 30.8143 64.0472 28.7473 64.5572 26.7033C65.2672 23.8573 66.1271 21.0343 67.3471 18.3623C67.9671 17.0103 68.6871 15.7013 69.4971 14.4503ZM62.6971 32.9803C63.0871 29.1103 63.1472 25.1313 62.7872 21.1913C62.7872 21.1893 62.7872 21.1883 62.7872 21.1863C63.3972 18.7763 64.6871 16.4023 66.9471 15.1903C67.5771 14.8573 68.2471 14.6293 68.9371 14.5173C66.0971 19.3703 64.5472 24.8432 63.4072 30.3172C63.1272 31.6762 62.8772 33.0393 62.6572 34.4093C62.5872 34.5783 62.5171 34.7433 62.4571 34.9133C62.5471 34.2713 62.6271 33.6273 62.6971 32.9803ZM62.1071 30.4783C62.0371 31.6533 61.9172 32.8213 61.7772 33.9843C61.7672 33.9643 61.7571 33.9443 61.7471 33.9233C61.8371 32.8273 61.7872 31.7223 61.7572 30.6243C61.7372 29.4663 61.6771 28.3073 61.6071 27.1513C61.4671 24.8593 61.3272 22.5713 61.0372 20.2923C60.4772 15.8123 59.3172 11.4863 57.7672 7.25227C57.3272 6.07227 56.8672 4.90125 56.3972 3.73625C56.0172 2.79525 55.6371 1.84827 55.2271 0.920274C60.7871 9.69027 62.7571 20.2063 62.1071 30.4783ZM57.0671 6.57527C57.8571 8.66327 58.5872 10.7783 59.1772 12.9323C60.3672 17.2953 60.8972 21.7943 61.1272 26.3023C61.1672 27.1563 61.1871 28.0123 61.2071 28.8683C60.9471 26.8253 60.6472 24.7873 60.2872 22.7603C59.4272 17.8653 58.2871 13.0113 56.8671 8.24626C56.1871 5.97026 55.3472 3.73825 55.0172 1.39125C55.6672 3.13025 56.4171 4.83827 57.0671 6.57527ZM61.0572 31.8513C60.7372 30.8813 60.4171 29.9093 60.1171 28.9303C59.4371 26.6733 58.8071 24.3983 58.2471 22.1073C57.1271 17.5693 56.2371 12.9783 55.5971 8.34825C55.4171 7.04325 55.2571 5.73527 55.1171 4.42427C55.0771 4.07227 55.0472 3.71827 55.0172 3.36327C55.0372 3.45527 55.0571 3.54925 55.0871 3.64125C55.3871 4.81425 55.7772 5.96526 56.1272 7.12526C56.8672 9.55726 57.5372 12.0112 58.1272 14.4812C59.3072 19.3552 60.1772 24.3083 60.7772 29.2843C60.8872 30.1393 60.9772 30.9953 61.0572 31.8513ZM54.2972 4.80126C54.3672 3.70426 54.4872 2.60825 54.5572 1.51125C54.5972 2.32025 54.6872 3.13227 54.7772 3.93227C54.8872 5.10427 55.0272 6.27525 55.1772 7.44325C55.4772 9.78025 55.8372 12.1073 56.2572 14.4273C57.0772 19.0643 58.1571 23.6502 59.4671 28.1752C60.0171 30.0622 60.5871 31.9543 61.2371 33.8153C61.2671 34.2543 61.3071 34.6932 61.3471 35.1322C61.1871 34.6952 61.0272 34.2583 60.8772 33.8213C60.4572 32.6363 60.0472 31.4513 59.6272 30.2673C58.7972 27.8973 57.9672 25.5283 57.1372 23.1593C56.3372 20.8663 55.5071 18.5732 54.9471 16.2052C54.3771 13.8082 54.1472 11.3533 54.1472 8.89226C54.1372 7.52726 54.1972 6.16226 54.2972 4.80126ZM55.8271 23.5283C54.2971 18.7043 53.3171 13.6463 53.4871 8.56627C53.5371 7.17927 53.6672 5.79226 53.8872 4.42226C53.9572 4.00126 54.0472 3.58527 54.1372 3.17027C54.1072 3.55927 54.0772 3.94927 54.0472 4.33827C53.9472 5.57727 53.8771 6.81927 53.8571 8.06227C53.8171 10.4883 53.9472 12.9233 54.4272 15.3063C54.9072 17.6723 55.6771 19.9643 56.4671 22.2393C57.2971 24.6243 58.1371 27.0083 58.9671 29.3933C59.4371 30.7363 59.9072 32.0803 60.3772 33.4233C60.7272 34.4293 61.0572 35.4503 61.4272 36.4533C61.4072 36.5523 61.3972 36.6523 61.3772 36.7513C61.3772 36.7553 61.3771 36.7593 61.3671 36.7633C61.3271 36.8243 61.3271 36.8922 61.3471 36.9512C61.3371 37.0522 61.3172 37.1533 61.2972 37.2543C59.2972 32.7513 57.3171 28.2313 55.8271 23.5283ZM41.6071 23.8773C42.8371 23.6083 44.0771 23.9003 45.2071 24.4193C46.3371 24.9423 47.3671 25.6813 48.3371 26.4563C49.2471 27.1783 50.0972 27.9612 50.8972 28.8002C52.4772 30.4572 53.8471 32.3182 54.9671 34.3172C57.1971 38.3332 58.4771 42.9033 58.4771 47.5103C58.4771 47.8153 58.4871 48.1182 58.4871 48.4212C58.4371 48.5682 58.3871 48.7153 58.3371 48.8623C57.3271 45.0773 55.8872 41.4083 53.9172 38.0143C51.8072 34.3843 49.0872 31.0363 46.0372 28.1653C45.1772 27.3603 44.2871 26.5872 43.3571 25.8602C42.5771 25.2482 41.7772 24.6103 40.9172 24.0963C41.1372 24.0043 41.3671 23.9293 41.6071 23.8773ZM39.8371 24.7173C40.3271 25.5343 40.9572 26.2913 41.5272 27.0523C42.1672 27.9103 42.8071 28.7693 43.4471 29.6273C44.7471 31.3613 46.0371 33.0993 47.3271 34.8333C49.7771 38.1123 52.2972 41.3603 54.5372 44.7893C55.2272 45.8393 55.8771 46.9163 56.4971 48.0163C55.7271 47.0933 54.9372 46.1863 54.1572 45.2823C52.7472 43.6553 51.3172 42.0423 49.9272 40.4023C47.2872 37.2993 44.7272 34.1053 42.6272 30.6043C41.5072 28.7373 40.5971 26.7923 39.7371 24.8023C39.7671 24.7753 39.7971 24.7443 39.8371 24.7173ZM38.6071 25.9973C38.8171 27.8433 39.4972 29.6753 40.2772 31.3293C41.1872 33.2353 42.3471 35.0023 43.5671 36.7233C46.0271 40.2033 48.9471 43.3773 52.1171 46.2203C52.8071 46.8403 53.5171 47.4433 54.2371 48.0313C51.7371 46.4943 49.3272 44.8123 47.1472 42.8643C43.9672 40.0353 41.2972 36.6282 39.7872 32.6192C38.9872 30.5102 38.5972 28.3213 38.5572 26.0783C38.5772 26.0513 38.5871 26.0233 38.6071 25.9973ZM54.8671 49.0573C53.7671 48.5893 52.6872 48.0682 51.6472 47.4942C49.5372 46.3392 47.5571 44.9573 45.7271 43.3973C43.9171 41.8463 42.2572 40.1073 40.8072 38.2113C39.2872 36.2203 37.8871 33.9763 37.4571 31.4663C37.1571 29.7383 37.4272 27.9733 38.2972 26.4873C38.2972 30.3803 39.8371 34.2433 41.9471 37.4533C44.3871 41.1683 47.7371 44.1583 51.3671 46.6813C52.6571 47.5813 53.9871 48.4233 55.3371 49.2413C55.1771 49.1793 55.0171 49.1233 54.8671 49.0573ZM48.5072 42.0883C47.0772 40.5533 45.7271 38.9493 44.4571 37.2773C43.1771 35.5883 41.9671 33.8553 40.9771 31.9743C40.4371 30.9333 39.9671 29.8553 39.5971 28.7393C39.2571 27.7263 39.0572 26.6962 38.8872 25.6492C38.9472 25.5712 39.0071 25.4882 39.0771 25.4122C39.2071 25.2652 39.3471 25.1273 39.4971 24.9953C40.1271 26.7333 40.9872 28.4022 41.9072 29.9982C42.8972 31.7362 44.0072 33.4112 45.1772 35.0332C47.6772 38.4832 50.4871 41.6883 53.2371 44.9273C54.6071 46.5393 55.9472 48.1803 57.2872 49.8193C54.1272 47.5173 51.1772 44.9493 48.5072 42.0883ZM55.3972 45.3602C54.3172 43.6702 53.1471 42.0373 51.9571 40.4263C49.4271 37.0143 46.8572 33.6383 44.3072 30.2383C43.5772 29.2633 42.8471 28.2873 42.1171 27.3123C41.7571 26.8243 41.3872 26.3382 41.0172 25.8522C40.6972 25.4262 40.3872 24.9843 40.0272 24.5853C40.2172 24.4563 40.4071 24.3353 40.6171 24.2343C41.3471 24.8033 42.1171 25.3143 42.8471 25.8843C43.6771 26.5293 44.4771 27.2013 45.2471 27.9033C46.7971 29.2983 48.2372 30.7983 49.5472 32.4103C52.1772 35.6373 54.3671 39.3113 55.9771 43.1483C56.8671 45.2583 57.5772 47.4513 58.0572 49.6893C58.0372 49.7573 58.0171 49.8253 57.9871 49.8933C57.9171 49.7953 57.8372 49.6973 57.7672 49.6003C57.0472 48.1453 56.2672 46.7302 55.3972 45.3602ZM78.2371 51.9913C77.6871 53.0353 77.0672 54.0393 76.3972 55.0013C73.6772 58.8573 69.9971 62.0223 65.8271 64.2113C61.8271 66.3093 57.3471 67.5223 52.8271 67.6593C57.0871 66.8433 61.2171 65.1883 64.9571 63.0253C67.1371 61.7643 69.1071 60.2083 71.0871 58.6573C73.0471 57.1173 74.7772 55.2383 76.3772 53.3293C77.2872 52.2323 78.1371 51.1033 78.9371 49.9143C79.1671 49.5683 79.3871 49.2133 79.5971 48.8513C79.2471 49.9373 78.7571 50.9853 78.2371 51.9913ZM79.6272 44.0833C79.6572 44.1543 79.6971 44.2232 79.7171 44.2962C79.9871 44.9982 80.0772 45.7402 80.0572 46.4812C79.8672 47.6342 79.2371 48.6983 78.6071 49.6653C77.9371 50.7003 77.1971 51.6792 76.4571 52.6662C74.9971 54.6272 73.2071 56.3903 71.3671 57.9963C70.4471 58.8003 69.5372 59.5813 68.5272 60.2803C67.5172 60.9843 66.4772 61.6363 65.4172 62.2673C63.2872 63.5343 61.0571 64.6263 58.7471 65.5063C56.5171 66.3523 54.2272 66.9843 51.8972 67.4783C53.8872 66.5463 55.8072 65.4402 57.6772 64.3092C59.8672 62.9822 62.0071 61.5683 64.0971 60.0793C66.1871 58.5893 68.2072 57.0123 70.1772 55.3623C72.0072 53.8223 73.8072 52.2263 75.4272 50.4573C77.1572 48.5703 78.6472 46.4553 79.6272 44.0833ZM64.2672 50.3233C66.0272 48.2013 67.8472 46.0972 70.0272 44.3952C71.0772 43.5742 72.2171 42.8203 73.4571 42.3083C73.5071 42.2863 73.5671 42.2663 73.6171 42.2453C70.8071 44.8993 68.0872 47.6573 65.3972 50.4323C62.2972 53.6403 59.2571 56.9242 56.3171 60.2832C56.2871 60.3212 56.2471 60.3593 56.2171 60.3983C58.8471 56.9963 61.5272 53.6333 64.2672 50.3233ZM51.8271 66.0412C53.2471 64.4632 54.5971 62.8273 55.9971 61.2293C57.4671 59.5473 58.9571 57.8803 60.4671 56.2363C63.4771 52.9613 66.5671 49.7632 69.7471 46.6492C71.3971 45.0332 73.0872 43.4633 74.7772 41.8813C75.6072 41.6853 76.4872 41.6393 77.2972 41.8933C77.5472 41.9683 77.7671 42.0693 77.9771 42.1893C74.6971 45.5963 71.3271 48.9163 67.8571 52.1423C64.3371 55.4233 60.7471 58.6293 57.0771 61.7453C56.0471 62.6173 55.0171 63.4823 53.9771 64.3453C53.2571 64.9503 52.4972 65.5333 51.7772 66.1543C51.7972 66.1153 51.8071 66.0782 51.8271 66.0412ZM51.3271 67.0393C52.2371 66.4163 53.0871 65.6713 53.9471 64.9713C54.8771 64.2063 55.8071 63.4343 56.7271 62.6543C58.5771 61.0933 60.4071 59.5103 62.2071 57.9053C65.8371 54.6813 69.3771 51.3582 72.8571 47.9722C74.7271 46.1572 76.5672 44.3163 78.3872 42.4573C78.7772 42.7563 79.0971 43.1293 79.3571 43.5563C79.3271 43.5793 79.3072 43.6093 79.2872 43.6523C77.6072 48.1213 74.0371 51.5263 70.4971 54.5813C66.6871 57.8723 62.5972 60.8493 58.2972 63.4633C55.9472 64.8933 53.4971 66.1483 51.0971 67.4893C51.1671 67.3393 51.2471 67.1883 51.3271 67.0393ZM23.0172 64.3683C24.0772 64.3873 25.0671 64.9643 25.9671 65.4763C29.3071 67.3873 32.3171 69.8913 34.8471 72.7943C36.9471 75.1993 38.7071 77.8903 40.0771 80.7683C39.9671 80.6383 39.8572 80.5083 39.7572 80.3783C39.1972 79.7073 38.6272 79.0453 38.0572 78.3933C36.8872 77.0743 35.6672 75.8083 34.4172 74.5703C31.8872 72.0693 29.1971 69.7383 26.3471 67.6013C25.5671 67.0123 24.7771 66.4383 23.9671 65.8783C23.3271 65.4333 22.6872 64.9863 22.0172 64.5873C22.3172 64.4423 22.6472 64.3613 23.0172 64.3683ZM20.8271 65.7612C21.0671 65.3462 21.3772 64.9873 21.7672 64.7363C23.0372 65.6903 24.3872 66.5543 25.6672 67.5123C27.0772 68.5683 28.4472 69.6723 29.7772 70.8213C32.4372 73.1093 34.9171 75.5753 37.2371 78.2023C37.8171 78.8593 38.3871 79.5283 38.9471 80.2043C34.6271 76.4133 30.1472 72.8003 25.5072 69.3973C23.9272 68.2363 22.3371 67.1023 20.6871 66.0283C20.7371 65.9393 20.7771 65.8462 20.8271 65.7612ZM28.1572 80.1093C24.4772 78.4133 21.2671 75.4303 20.3171 71.3713C20.1271 70.5193 20.0172 69.5853 20.0572 68.6633C20.3372 69.8233 20.9672 70.9323 21.6772 71.8243C22.8372 73.2693 24.3371 74.3982 25.8271 75.4722C28.8871 77.6712 32.1872 79.5472 35.6272 81.0762C36.6072 81.5082 37.5871 81.9123 38.5771 82.2883C38.8971 82.4083 39.2172 82.5292 39.5372 82.6492C35.6472 82.2912 31.7272 81.7603 28.1572 80.1093ZM39.0771 81.9633C38.2371 81.6553 37.4071 81.3263 36.5771 80.9783C34.8971 80.2663 33.2472 79.4723 31.6372 78.6013C30.0172 77.7213 28.4372 76.7582 26.9072 75.7222C25.4072 74.7042 23.8671 73.6523 22.5971 72.3493C21.8971 71.6343 21.2871 70.8353 20.8471 69.9363C20.4771 69.1873 20.2772 68.4163 20.1772 67.6093C20.1972 67.5233 20.2271 67.4412 20.2371 67.3562C20.8571 68.5452 21.7171 69.6213 22.6171 70.5963C23.7371 71.8073 24.9872 72.8893 26.3072 73.8723C29.1972 76.0273 32.4172 77.6873 35.5272 79.4873C37.0272 80.3513 38.5272 81.2432 39.9272 82.2572C39.6372 82.1612 39.3571 82.0663 39.0771 81.9633ZM36.4771 79.5553C34.8771 78.6203 33.2372 77.7383 31.6272 76.8203C28.6572 75.1273 25.7172 73.2723 23.3072 70.8213C22.1572 69.6523 21.2171 68.3473 20.3271 66.9873C20.4071 66.7183 20.4971 66.4543 20.6071 66.2023C23.4171 68.2793 26.2371 70.3262 28.9871 72.4772C31.7371 74.6242 34.4072 76.8552 37.0472 79.1322C38.1272 80.0602 39.1771 81.0073 40.2371 81.9583C39.0171 81.1103 37.7671 80.3063 36.4771 79.5553ZM4.90718 111.745C6.00718 112.119 6.92719 112.888 7.78719 113.646C8.73719 114.486 9.68714 115.335 10.6171 116.197C12.4771 117.923 14.2971 119.713 15.9471 121.641C18.2071 124.261 20.1371 127.153 21.4771 130.314C21.2171 129.933 20.9372 129.561 20.6672 129.191C20.1372 128.463 19.5972 127.744 19.0472 127.036C17.9372 125.619 16.7771 124.24 15.5671 122.903C13.1671 120.23 10.5672 117.727 7.7972 115.424C7.0272 114.779 6.23709 114.15 5.43709 113.539C4.62709 112.923 3.81709 112.276 2.93709 111.766C3.55709 111.526 4.23718 111.517 4.90718 111.745ZM2.73714 111.847C2.73714 111.88 2.74718 111.914 2.77718 111.944C3.46718 112.529 4.2072 113.038 4.9272 113.586C5.6372 114.135 6.33719 114.696 7.03719 115.268C8.39719 116.39 9.71715 117.56 10.9971 118.775C13.5971 121.243 16.0171 123.897 18.2271 126.718C18.8471 127.512 19.4472 128.318 20.0372 129.136C20.5072 129.787 20.9472 130.474 21.4272 131.122C19.0972 129.178 16.8372 127.163 14.6372 125.075C11.8072 122.377 9.07711 119.57 6.45711 116.656C5.72711 115.843 5.0072 115.021 4.2972 114.192C3.6772 113.468 3.0771 112.727 2.4471 112.012C2.5371 111.95 2.63714 111.895 2.73714 111.847ZM1.64717 112.766C2.71717 114.349 3.86717 115.881 5.01717 117.407C6.28717 119.106 7.58712 120.781 8.96712 122.401C11.5271 125.429 14.3271 128.266 17.4671 130.689C18.9671 131.837 20.5371 132.871 22.1871 133.783C21.7071 133.629 21.2171 133.485 20.7371 133.337C17.8271 132.022 15.1771 130.185 12.7471 128.112C11.1671 126.76 9.66713 125.307 8.22713 123.807C6.82713 122.347 5.40716 120.868 4.13716 119.292C2.68716 117.501 1.52712 115.51 1.46712 113.155C1.46712 113.122 1.4472 113.1 1.4272 113.085C1.4872 112.974 1.56717 112.87 1.64717 112.766ZM1.25716 113.4C1.24716 115.297 2.15715 117.083 3.24715 118.589C4.46715 120.287 5.94715 121.816 7.37715 123.338C10.2172 126.37 13.2571 129.282 16.7471 131.565C17.1871 131.854 17.6471 132.127 18.0971 132.391C17.6271 132.196 17.1571 131.991 16.6871 131.774C14.8971 130.939 13.1971 129.936 11.5771 128.8C8.3471 126.529 5.5171 123.649 3.3271 120.362C2.6771 119.395 2.06721 118.393 1.55721 117.347C1.25721 116.73 0.997103 116.087 0.827103 115.42C0.827103 115.268 0.827113 115.115 0.837113 114.962C0.877113 114.428 1.01716 113.89 1.25716 113.4ZM3.02718 121.531C2.49718 120.63 2.02716 119.696 1.63716 118.733C1.39716 118.176 1.1972 117.597 1.0472 117.005C1.4372 117.919 1.93711 118.791 2.45711 119.638C3.52711 121.379 4.76716 123.018 6.13716 124.529C8.85716 127.523 12.1171 130.021 15.7171 131.853C16.7371 132.37 17.7871 132.836 18.8571 133.238C18.8771 133.248 18.9071 133.258 18.9371 133.269C16.3371 132.649 13.8272 131.618 11.5472 130.202C8.0872 128.043 5.08718 125.069 3.02718 121.531ZM13.7872 127.078C10.7972 124.245 8.16709 121.065 5.68709 117.791C4.37709 116.064 3.1471 114.271 1.8271 112.552C1.8971 112.465 1.97709 112.376 2.06709 112.298C2.11709 112.249 2.17714 112.208 2.23714 112.164C3.31714 113.617 4.55715 114.981 5.74715 116.341C7.03715 117.809 8.35711 119.251 9.70711 120.667C12.3971 123.496 15.2072 126.216 18.1272 128.82C19.4772 130.033 20.8672 131.214 22.2672 132.379C22.3872 132.763 22.5071 133.154 22.6171 133.546C19.3771 131.826 16.4372 129.596 13.7872 127.078ZM56.4172 118.828C55.6072 120 54.5471 120.959 53.4471 121.857C52.3171 122.786 51.1471 123.671 49.9471 124.512C47.5471 126.197 45.0172 127.702 42.3972 129.015C38.0672 131.18 33.5171 132.764 28.8271 133.878C29.4571 133.649 30.0771 133.412 30.7071 133.172C33.1671 132.217 35.5871 131.139 37.9471 129.946C42.6771 127.553 47.1771 124.687 51.3571 121.424C53.5171 119.741 55.5772 117.943 57.5472 116.04C57.4072 117.042 56.9972 117.994 56.4172 118.828ZM57.5871 115.159C57.5971 115.267 57.5871 115.374 57.5871 115.481C53.8871 119.063 49.8772 122.347 45.5472 125.146C41.0872 128.032 36.3771 130.51 31.4471 132.49C29.4871 133.275 27.5072 133.944 25.5072 134.594C25.4472 134.605 25.3971 134.615 25.3371 134.626C25.7971 134.441 26.2671 134.253 26.7171 134.068C27.9471 133.571 29.1571 133.045 30.3671 132.5C32.7771 131.412 35.1471 130.238 37.4771 128.982C42.1171 126.477 46.5771 123.648 50.8271 120.525C53.1571 118.815 55.4071 117.012 57.5871 115.117C57.5871 115.131 57.5871 115.145 57.5871 115.159ZM57.5372 114.599C57.5272 114.601 57.5272 114.601 57.5272 114.603C53.5472 118.033 49.3471 121.212 44.9371 124.067C40.4971 126.941 35.8472 129.5 31.0472 131.718C29.7172 132.334 28.3672 132.924 27.0072 133.487C26.0172 133.898 25.0072 134.274 24.0172 134.675C24.2472 134.46 24.4871 134.253 24.7171 134.04C28.6071 131.429 32.4771 128.786 36.4371 126.278C40.9071 123.45 45.4272 120.717 50.0172 118.087C52.4572 116.688 54.9272 115.341 57.3972 114.002C57.4572 114.196 57.4972 114.396 57.5372 114.599ZM32.5971 119.754C37.2371 115.916 42.9371 113.569 48.6971 111.987C49.9771 111.637 51.2671 111.316 52.5871 111.246C53.3471 111.206 54.1472 111.258 54.8772 111.485C49.7872 112.644 44.8671 114.634 40.3471 117.23C35.5971 119.957 31.2371 123.386 27.4871 127.383C26.5771 128.35 25.6871 129.348 24.8671 130.393C26.3671 126.224 29.1971 122.57 32.5971 119.754ZM24.3671 131.991C24.5371 131.739 24.7072 131.493 24.8772 131.259C25.6872 130.175 26.5771 129.144 27.4871 128.142C29.2871 126.168 31.2172 124.331 33.2872 122.649C37.4472 119.262 42.1171 116.491 47.0871 114.456C49.8371 113.329 52.6771 112.449 55.5671 111.763C55.7171 111.838 55.8571 111.92 55.9871 112.015C56.0571 112.057 56.1072 112.105 56.1672 112.15C50.9272 113.697 45.8672 115.981 41.1372 118.714C36.4172 121.445 32.0172 124.713 28.0072 128.415C26.9072 129.434 25.7972 130.472 24.7972 131.593C24.6372 131.772 24.4871 131.958 24.3371 132.148C24.3471 132.096 24.3571 132.043 24.3671 131.991ZM24.9371 131.958C25.8271 130.941 26.8172 130.008 27.7972 129.087C29.7572 127.253 31.8171 125.531 33.9671 123.928C38.2771 120.712 42.9471 117.955 47.8471 115.738C50.6171 114.486 53.4571 113.435 56.3471 112.494C56.4071 112.476 56.4371 112.443 56.4571 112.405C56.7971 112.747 57.0471 113.153 57.2371 113.592C52.7471 116.033 48.3072 118.593 43.9272 121.225C39.3772 123.954 34.8971 126.793 30.4771 129.726C29.1771 130.593 27.8671 131.463 26.5771 132.349C29.3471 129.898 32.2271 127.565 35.2271 125.396C39.5071 122.29 43.9772 119.476 48.6772 117.038C51.3172 115.668 54.0372 114.438 56.7772 113.289C57.0072 113.195 56.8572 112.847 56.6272 112.941C51.7572 114.965 47.0472 117.397 42.5372 120.121C37.9872 122.866 33.6472 125.887 29.5472 129.274C27.8172 130.708 26.1472 132.217 24.5272 133.779C24.2872 133.954 24.0372 134.131 23.7972 134.308C23.8172 134.05 23.8371 133.792 23.8571 133.533C23.9571 133.482 24.0471 133.391 24.0771 133.248C24.0871 133.168 24.1172 133.09 24.1272 133.01C24.3772 132.646 24.6471 132.295 24.9371 131.958ZM12.9771 100.229C14.0371 101.119 15.1572 101.942 16.1772 102.887C17.2372 103.869 18.2472 104.917 19.1772 106.02C21.0572 108.226 22.6571 110.654 23.9471 113.248C24.5371 114.45 25.0471 115.685 25.4871 116.949C23.6071 115.082 21.7372 113.209 20.0072 111.195C18.1672 109.06 16.4371 106.83 14.8271 104.515C14.3871 103.883 13.9572 103.244 13.5372 102.601C13.1472 102.007 12.7871 101.367 12.3571 100.797C12.5471 100.592 12.7471 100.4 12.9771 100.229ZM25.9371 118.088C25.9271 118.071 25.9172 118.055 25.8972 118.042C25.1672 117.571 24.3671 117.238 23.6071 116.84C22.8271 116.435 22.0571 115.994 21.3171 115.52C19.8471 114.577 18.4472 113.506 17.1572 112.33C15.8572 111.151 14.6671 109.854 13.5971 108.464C12.4971 107.046 11.3671 105.392 11.3171 103.537C11.2871 102.594 11.6172 101.733 12.1672 101.029C12.4272 101.529 12.7571 102 13.0671 102.471C13.4471 103.071 13.8471 103.666 14.2471 104.255C15.0571 105.433 15.8872 106.591 16.7572 107.726C18.4872 109.996 20.3272 112.186 22.2672 114.278C23.3472 115.444 24.4472 116.61 25.6272 117.687C25.6672 117.729 25.7172 117.742 25.7572 117.74C25.7772 117.795 25.8171 117.829 25.8571 117.852C25.8771 117.904 25.9171 117.949 25.9671 117.98C25.9571 118.015 25.9471 118.052 25.9371 118.088ZM26.2772 116.667C26.2372 116.764 26.2372 116.85 26.2672 116.927C26.2272 117.049 26.1972 117.172 26.1572 117.294C26.1472 117.3 26.1372 117.306 26.1272 117.311C24.1772 111.91 21.0171 106.963 16.8371 103.012C15.7271 101.958 14.5271 100.877 13.2271 100.052C13.3271 99.9843 13.4272 99.9143 13.5372 99.8543C13.6472 99.7903 13.7672 99.7373 13.8872 99.6823C14.4972 99.9063 15.1171 100.098 15.7171 100.349C16.3671 100.62 16.9971 100.931 17.6171 101.276C18.8771 101.991 20.0571 102.868 21.1171 103.87C23.3371 105.979 24.9472 108.678 25.7972 111.617C26.0372 112.461 26.2071 113.322 26.3171 114.194C26.4071 114.926 26.4172 115.646 26.4172 116.375C26.3672 116.474 26.3272 116.569 26.2772 116.667ZM26.4371 112.164C26.0371 110.594 25.4272 109.079 24.6272 107.671C23.1072 105.031 20.9371 102.809 18.3271 101.241C17.6271 100.818 16.8972 100.442 16.1372 100.119C15.5772 99.8772 14.9872 99.6422 14.3872 99.4772C15.5572 99.0652 16.8172 99.0533 18.0272 99.4203C21.2672 100.408 23.7272 103.379 25.1272 106.35C26.1572 108.523 26.6871 110.917 26.7071 113.316C26.6271 112.926 26.5371 112.541 26.4371 112.164ZM53.4172 97.9503C52.5272 100.115 50.7172 101.751 48.8972 103.157C46.7772 104.803 44.5471 106.328 42.3171 107.819C38.7271 110.211 35.0372 112.421 31.2772 114.513C31.6872 114.236 32.1072 113.958 32.5172 113.681C34.4072 112.413 36.2771 111.106 38.1171 109.765C41.7971 107.085 45.3472 104.215 48.7872 101.226C50.4872 99.7463 52.1472 98.2253 53.7872 96.6773C53.7072 97.1303 53.5772 97.5663 53.4172 97.9503ZM53.8271 94.7593C53.9071 95.2003 53.9071 95.6673 53.8671 96.1293C50.7071 99.1333 47.4372 102.02 44.0372 104.751C40.4972 107.592 36.8571 110.308 33.1071 112.861C32.0471 113.583 30.9872 114.301 29.8972 114.979C29.2472 115.385 28.5771 115.786 27.9371 116.211C27.9471 116.19 27.9571 116.169 27.9771 116.149C30.8171 113.503 33.6671 110.884 36.6171 108.353C40.1471 105.311 43.7771 102.37 47.4671 99.5163C49.5571 97.9023 51.6772 96.3373 53.8072 94.7823C53.8172 94.7743 53.8171 94.7663 53.8271 94.7593ZM53.7471 94.3833C53.6771 94.3533 53.5972 94.3512 53.5172 94.4082C49.7372 97.1472 46.0571 100.018 42.4371 102.964C38.8171 105.911 35.3271 109.002 31.8471 112.117C30.7971 113.061 29.7571 114.028 28.7371 115.002C29.5171 113.834 30.3072 112.678 31.1572 111.554C32.5472 109.704 34.0171 107.917 35.5771 106.213C38.7171 102.793 42.2071 99.6993 45.9771 96.9923C48.1071 95.4673 50.3171 94.0813 52.6071 92.8023C53.1971 93.1683 53.5571 93.7333 53.7471 94.3833ZM34.8571 104.727C37.9771 101.003 41.5771 97.6912 45.5671 94.9212C46.5571 94.2312 47.5672 93.5303 48.6772 93.0263C49.6672 92.5703 50.8771 92.1853 51.9771 92.5183C52.0171 92.5303 52.0471 92.5473 52.0871 92.5613C48.1171 94.7653 44.3771 97.4133 40.9371 100.385C37.4071 103.444 34.1571 106.864 31.3371 110.592C30.0271 112.326 28.7871 114.124 27.6871 116.001C27.5771 116.108 27.4571 116.213 27.3471 116.32C29.4371 112.192 31.8771 108.284 34.8571 104.727ZM21.7471 98.0242C19.3771 95.0412 17.7872 91.4393 17.2972 87.6553C17.0972 86.0653 16.9472 84.1713 17.6272 82.6523C17.6072 84.0803 17.8972 85.5083 18.3072 86.8763C18.8372 88.6333 19.5471 90.3433 20.3371 91.9963C21.8571 95.1663 23.7672 98.1393 26.0372 100.827C26.8672 101.81 27.7372 102.771 28.6472 103.683C25.9772 102.321 23.6171 100.385 21.7471 98.0242ZM26.7772 101.046C25.6372 99.7652 24.5972 98.3963 23.6372 96.9793C21.6872 94.1003 20.0772 90.9912 18.9272 87.7052C18.2972 85.8912 17.8771 84.0023 17.9471 82.0843C18.1271 81.8093 18.3471 81.5683 18.6071 81.3793C18.9571 82.1113 19.3872 82.8153 19.7672 83.5303C20.1872 84.3053 20.6072 85.0782 21.0172 85.8562C21.8372 87.3942 22.6372 88.9423 23.4072 90.5003C24.9772 93.6343 26.4571 96.8093 27.8571 100.019C28.3871 101.253 28.9072 102.497 29.4172 103.742C28.4972 102.878 27.6172 101.991 26.7772 101.046ZM30.7171 104.608C30.5271 104.534 30.3372 104.447 30.1372 104.367C28.9472 101.407 27.6472 98.4822 26.3072 95.5892C24.8272 92.4122 23.2772 89.2733 21.6372 86.1773C21.1772 85.3103 20.7171 84.4443 20.2471 83.5863C19.8071 82.7893 19.3872 81.9623 18.8872 81.1983C19.0672 81.0943 19.2671 81.0103 19.4771 80.9483C21.8771 83.3093 24.0571 85.8303 25.8171 88.7163C27.6371 91.7023 28.9771 94.9803 29.8371 98.3683C30.3271 100.276 30.6472 102.223 30.8072 104.185C30.8072 104.238 30.8271 104.277 30.8471 104.311C30.8071 104.411 30.7671 104.509 30.7171 104.608ZM31.6171 100.943C31.6071 101.469 31.5772 101.994 31.5372 102.518C31.5272 102.625 31.5172 102.732 31.5072 102.84C31.4172 103.029 31.3372 103.217 31.2572 103.406C30.8872 100.129 30.0672 96.8933 28.8072 93.8483C27.4472 90.5723 25.6472 87.4733 23.4272 84.6993C22.3372 83.3253 21.1372 82.0253 19.8072 80.8723C19.8972 80.8553 19.9971 80.8413 20.0971 80.8343C20.4871 80.8063 20.8772 80.8433 21.2572 80.9243C21.7072 81.2393 22.1471 81.5492 22.5771 81.8862C23.2371 82.4072 23.8771 82.9653 24.4771 83.5513C25.7071 84.7363 26.8072 86.0573 27.7572 87.4743C29.7972 90.5243 31.1071 94.1013 31.4771 97.7563C31.5771 98.8163 31.6371 99.8773 31.6171 100.943ZM32.1772 99.7052C32.1572 99.2712 32.1271 98.8373 32.0871 98.4053C31.8871 96.5043 31.4471 94.6093 30.8171 92.8073C29.6371 89.4313 27.6971 86.3162 25.1971 83.7612C24.5271 83.0752 23.8171 82.4283 23.0671 81.8283C22.8271 81.6413 22.5971 81.4542 22.3471 81.2702C22.6371 81.3872 22.9172 81.5183 23.1772 81.6563C26.4472 83.3643 29.0072 86.3492 30.5472 89.6662C31.9872 92.7702 32.5872 96.2982 32.1772 99.7052ZM42.9471 83.1152C47.1171 80.8872 51.3172 78.7192 55.6772 76.8652C60.1672 74.9502 64.7871 73.3143 69.4871 71.9713C70.2371 71.7563 70.9971 71.5612 71.7471 71.3652C70.8771 71.7392 70.0072 72.1293 69.1372 72.4913C67.0172 73.3663 64.8972 74.2323 62.7772 75.1033C58.5172 76.8523 54.2672 78.6243 50.0072 80.3763C47.9272 81.2323 45.8472 82.0942 43.7772 82.9722C43.4972 83.0192 43.2271 83.0682 42.9471 83.1152ZM55.6871 78.4143C59.9471 76.6823 64.2071 74.9262 68.4671 73.1792C69.6571 72.6922 70.8672 72.2543 72.0572 71.7723C73.0472 71.3683 74.0472 70.9623 75.0372 70.5573C75.3072 70.4973 75.5671 70.4293 75.8271 70.3703C72.1471 72.8583 68.2771 75.0432 64.2271 76.8692C59.7571 78.8852 55.0971 80.4772 50.3371 81.6492C48.5471 82.0902 46.7471 82.4413 44.9371 82.7663C48.5271 81.3333 52.0971 79.8683 55.6871 78.4143ZM76.7471 72.6752C76.0671 73.8802 74.9972 74.8103 73.9172 75.6433C72.7972 76.5023 71.6071 77.2733 70.3671 77.9523C67.9171 79.2993 65.2771 80.3173 62.5871 81.0563C59.8871 81.7943 57.1472 82.2603 54.3772 82.5683C55.5472 82.3123 56.6971 82.0162 57.8371 81.6842C62.5071 80.3272 66.9771 78.3693 71.0971 75.7973C72.2571 75.0743 73.3871 74.3063 74.4871 73.4933C75.4271 72.7923 76.3872 72.0683 77.2572 71.2763C77.1772 71.7623 76.9971 72.2392 76.7471 72.6752ZM77.3072 70.6313C76.4072 71.3543 75.5371 72.1132 74.6171 72.8132C73.6571 73.5452 72.6772 74.2423 71.6672 74.9043C69.6472 76.2273 67.5271 77.4063 65.3471 78.4403C60.9871 80.5083 56.3571 81.9562 51.5971 82.7312C51.1571 82.8032 50.7072 82.8623 50.2672 82.9243C48.5072 83.0373 46.7471 83.1103 44.9871 83.1683C46.5371 82.9243 48.0771 82.6172 49.5971 82.2742C51.9971 81.7332 54.3771 81.0733 56.7171 80.3023C61.3871 78.7623 65.9171 76.7893 70.2271 74.4113C72.6471 73.0813 74.9871 71.6513 77.2471 70.0793C77.2871 70.2613 77.3072 70.4463 77.3072 70.6313ZM76.9272 69.2793C76.9772 69.3683 77.0172 69.4603 77.0572 69.5513C77.0272 69.5593 76.9971 69.5693 76.9671 69.5903C76.9671 69.5943 76.9571 69.5983 76.9571 69.6013C76.5571 69.6893 76.1572 69.7893 75.7572 69.8813C75.6872 69.8063 75.5871 69.7663 75.4671 69.8153C75.2171 69.9173 74.9671 70.0203 74.7271 70.1223C70.8671 71.0423 67.0372 72.1342 63.2872 73.4292C58.6172 75.0432 54.0471 76.9513 49.6171 79.1393C47.1971 80.3303 44.8471 81.6123 42.5671 83.0433C42.5771 83.0243 42.5871 83.0063 42.5971 82.9873C42.7971 82.7193 43.0071 82.4623 43.2171 82.2003C46.4771 79.6513 49.9671 77.3603 53.5971 75.3783C57.8471 73.0563 62.3171 71.1553 66.9471 69.7243C69.5071 68.9323 72.1071 68.3273 74.7171 67.7603C75.5871 68.0253 76.4372 68.4873 76.9272 69.2793ZM53.2572 73.2352C57.5972 70.5432 62.4672 68.6883 67.5072 67.8593C68.7672 67.6533 70.0272 67.5073 71.2972 67.4323C71.9272 67.3953 72.5671 67.4053 73.2071 67.4703C71.3471 67.8623 69.5071 68.3642 67.6971 68.9162C65.3671 69.6302 63.0572 70.4713 60.7972 71.4053C56.2972 73.2703 51.9772 75.5893 47.9272 78.3063C46.6272 79.1733 45.3772 80.0983 44.1572 81.0603C46.7672 78.0073 49.8272 75.3612 53.2572 73.2352ZM35.1272 43.6963C36.2272 44.1523 37.1171 45.0323 37.9471 45.8613C38.7671 46.6823 39.5572 47.5423 40.2972 48.4363C41.8072 50.2473 43.1572 52.1973 44.3072 54.2543C46.6272 58.3813 48.1872 62.8953 48.9272 67.5653C48.9772 67.8353 49.0172 68.1063 49.0572 68.3773C49.0972 68.6833 49.1872 68.9793 49.2672 69.2783C49.2772 69.2983 49.2872 69.3153 49.2972 69.3323C49.2172 69.4723 49.1471 69.6123 49.0771 69.7523C48.0371 65.8753 46.5272 62.1163 44.6472 58.5713C42.7172 54.9243 40.3771 51.4943 37.6971 48.3513C36.2671 46.6613 34.7271 45.0403 33.0671 43.5653C33.7171 43.3863 34.4172 43.4023 35.1272 43.6963ZM32.8271 43.6452C35.7371 46.4662 38.4271 49.4763 40.7171 52.8283C43.0171 56.1923 44.9471 59.8172 46.4771 63.5932C47.2771 65.5692 47.9472 67.5893 48.5172 69.6403C48.0472 69.0873 47.5571 68.5453 47.0971 67.9913C46.4371 67.2093 45.7872 66.4172 45.1472 65.6152C43.8672 63.9972 42.6371 62.3412 41.4471 60.6492C39.0971 57.2762 36.9271 53.7683 34.9971 50.1373C33.9271 48.1443 32.9671 46.1043 31.9871 44.0723C32.2471 43.8933 32.5371 43.7512 32.8271 43.6452ZM31.0072 44.9902C32.1072 48.8932 33.6871 52.6503 35.6971 56.1733C37.7571 59.7923 40.2171 63.1483 43.0871 66.1643C41.7071 64.9163 40.3772 63.6013 39.1372 62.2073C36.3272 59.0453 33.9471 55.4813 32.3671 51.5483C31.9171 50.4363 31.5371 49.2993 31.2171 48.1413C30.9871 47.2673 30.8072 46.3852 30.6472 45.4982C30.7572 45.3202 30.8772 45.1522 31.0072 44.9902ZM36.6472 66.8753C33.2272 63.4643 31.5472 58.6933 30.5372 54.0723C31.0672 55.6903 31.7772 57.2452 32.6272 58.7222C34.7572 62.4482 37.8372 65.5143 41.2772 68.0533C42.7372 69.1383 44.2771 70.1222 45.8471 71.0462C42.4171 70.9882 39.0672 69.2993 36.6472 66.8753ZM46.7071 71.0242C43.3471 69.1302 40.1472 66.8993 37.4072 64.1833C34.4172 61.2223 31.9871 57.6733 30.7271 53.6333C30.3771 52.4903 30.1171 51.3163 29.9671 50.1283C29.8771 49.3883 29.8571 48.6513 29.8471 47.9133C29.9071 47.3853 30.0171 46.8642 30.2071 46.3652C30.2571 46.2312 30.3172 46.1033 30.3872 45.9743C30.6572 47.6263 31.1571 49.2643 31.7271 50.8183C32.4571 52.8103 33.3871 54.7273 34.4771 56.5493C36.6971 60.2693 39.5672 63.5493 42.7772 66.4443C44.3172 67.8333 45.9371 69.1232 47.5971 70.3652C47.7871 70.5202 47.9772 70.6753 48.1672 70.8273C47.6772 70.9293 47.1971 70.9932 46.7071 71.0242ZM48.6572 70.5443C45.3872 68.0253 42.4572 65.1283 39.9272 61.8753C37.3472 58.5783 35.1771 55.0183 33.4871 51.1863C32.5771 49.1063 31.8071 46.9623 31.1871 44.7783C31.3571 44.5793 31.5472 44.3953 31.7572 44.2343C32.5272 46.0523 33.4271 47.8223 34.3371 49.5703C35.2871 51.3773 36.2871 53.1572 37.3371 54.9082C39.4671 58.4692 41.8071 61.9003 44.3471 65.1833C45.0471 66.0963 45.7671 66.9962 46.4971 67.8862C47.2171 68.7492 47.9171 69.6483 48.7071 70.4463C48.6871 70.4803 48.6672 70.5123 48.6572 70.5443Z" fill="#4D4C51"/>
</svg>
