<svg width="51" height="59" viewBox="0 0 51 59" fill="none" xmlns="http://www.w3.org/2000/svg">
<path d="M50.6525 57.2183C48.4725 56.0343 46.1426 55.1213 43.9526 53.9583C41.7526 52.7913 39.6125 51.5023 37.5525 50.1073C37.2725 49.9213 37.0126 49.7213 36.7326 49.5313C36.7426 49.5233 36.7526 49.5223 36.7526 49.5143C37.1126 48.3203 37.0826 46.9963 37.0626 45.7603C37.0326 44.4063 36.9126 43.0543 36.7226 41.7143C36.3426 39.0743 35.6325 36.4783 34.6325 34.0063C34.3425 33.2923 33.9226 31.7893 32.8726 31.9503C31.9026 32.0983 31.8826 33.3503 31.8226 34.0933C31.6426 36.6503 31.8326 39.2333 32.3626 41.7403C32.6526 43.1203 33.0525 44.4813 33.5525 45.8013C33.7925 46.4383 34.0426 47.1233 34.3326 47.7863C31.9426 45.9713 29.6626 44.0183 27.5026 41.9353C27.7926 40.3063 27.8326 38.5933 27.8326 36.9603C27.8326 34.9983 27.6925 33.0353 27.4225 31.0923C26.8825 27.2013 25.8325 23.3893 24.2925 19.7743C24.1125 19.3563 23.5326 19.4823 23.4526 19.8943C22.7526 23.6303 22.5926 27.4623 22.9926 31.2433C23.2826 33.9073 23.8725 36.5053 24.6625 39.0483C23.1025 37.3683 21.6426 35.5963 20.2326 33.7823C20.2026 31.8003 19.9125 29.8023 19.6525 27.8463C19.3625 25.7003 19.0125 23.5613 18.5425 21.4463C17.6125 17.2733 16.1925 13.1433 13.9125 9.50832C13.6925 9.15532 13.1226 9.36333 13.0826 9.73833C12.3926 15.8373 13.3326 22.0043 15.8326 27.5523C13.5526 23.9473 11.5626 20.1593 9.94256 16.2173C7.82256 11.0653 6.29261 5.65131 5.37261 0.157306C5.33261 -0.085694 4.96261 -0.0316942 4.99261 0.213306C5.59261 4.96631 6.74258 9.62431 8.34258 14.1273C8.31258 14.0753 8.28262 14.0233 8.25262 13.9713C6.58262 11.0713 4.75251 8.25932 2.77251 5.56032C2.39251 5.04432 1.99256 4.36533 1.32256 4.20333C0.752562 4.06633 0.242552 4.38033 0.0625521 4.92733C-0.0974479 5.44933 0.0825961 6.00533 0.232596 6.50533C0.462596 7.23633 0.712596 7.95933 0.982596 8.67333C2.0626 11.4383 3.50261 14.0633 5.24261 16.4613C6.22261 17.8073 7.30259 19.0763 8.47259 20.2603C9.06259 20.8543 9.66253 21.4333 10.2925 21.9813C10.7925 22.4183 11.3025 22.8793 11.8825 23.2143C11.9725 23.3503 12.1325 23.4213 12.2925 23.4283V23.4303C12.3325 23.4473 12.3625 23.4373 12.4025 23.4363C13.2425 25.0533 14.1226 26.6513 15.0726 28.2053C15.5526 28.9923 16.0726 29.7553 16.5926 30.5223C15.3526 29.8053 14.0626 29.1863 12.7326 28.6643C11.5926 28.2123 10.4126 27.8283 9.22259 27.5103C8.13259 27.2193 6.92252 26.8253 5.78252 26.8203C5.03252 26.8173 4.12254 27.1783 4.17254 28.0773C4.20254 28.5223 4.50254 28.8493 4.80254 29.1443C5.24254 29.5673 5.70255 29.9673 6.18255 30.3473C7.97255 31.7693 9.99261 32.9133 12.1226 33.7233C13.3126 34.1733 14.5325 34.5233 15.7825 34.7703C16.4425 34.9023 17.1125 35.0023 17.7925 35.0703C18.4325 35.1343 19.1226 35.2423 19.7526 35.0913C19.7826 35.0823 19.8126 35.0653 19.8526 35.0483C21.4626 37.1073 23.1826 39.0863 25.0026 40.9723C19.9826 40.0803 14.6025 40.6933 9.77251 42.1463C9.29251 42.2903 9.37252 43.0113 9.78252 43.1813C12.3325 44.2283 15.1126 44.5183 17.8526 44.3413C19.2326 44.2523 20.6126 44.0503 21.9726 43.8023C22.6826 43.6743 23.3826 43.5333 24.0826 43.3873C24.7226 43.2543 25.4326 43.1993 25.9726 42.8193C26.0726 42.7503 26.1026 42.6523 26.0926 42.5553C26.2226 42.5903 26.3626 42.5703 26.4826 42.5113C26.6126 42.6333 26.7326 42.7613 26.8526 42.8823C26.8826 42.9543 26.9326 43.0033 27.0026 43.0223C29.6626 45.5773 32.5026 47.9403 35.5026 50.0703C37.7926 51.6923 40.1725 53.1803 42.6325 54.5293C45.0625 55.8643 47.6425 57.2753 50.3325 58.0023C50.8525 58.1393 51.1325 57.4803 50.6525 57.2183Z" fill="#4D4C51"/>
</svg>
