<svg width="117" height="62" viewBox="0 0 117 62" fill="none" xmlns="http://www.w3.org/2000/svg">
<path d="M0.352122 47.7672C0.422122 48.2642 1.02215 48.2912 1.25215 47.9082C3.93215 43.4762 5.58211 38.4411 6.09211 33.2901C7.26211 35.8961 9.0521 38.2532 11.0821 40.2222C12.1621 41.2732 13.3421 42.2122 14.5721 43.0632C14.1021 45.5642 14.3221 48.2351 14.8721 50.6991C15.4621 53.3521 16.5021 55.8942 17.9621 58.1872C18.3321 58.7682 18.7221 59.3331 19.1521 59.8761C19.5321 60.3691 19.9521 60.9412 20.5721 61.1432C21.9921 61.6052 22.2821 59.8862 22.3721 58.9042C22.6221 56.2762 22.3021 53.6111 21.4821 51.1051C20.7921 49.0071 19.7521 47.0452 18.4021 45.3082C20.672 46.4352 23.0721 47.3161 25.5321 47.9621C27.0721 48.3681 28.6321 48.6702 30.2221 48.8852C30.2721 48.9012 30.332 48.9072 30.392 48.9052C34.642 49.4632 38.9821 49.3401 43.1821 48.4961C43.1921 48.4931 43.2021 48.4901 43.2121 48.4881C43.1821 48.5271 43.152 48.5712 43.142 48.6272C43.142 48.6412 43.142 48.6562 43.142 48.6702C43.112 48.6752 43.0821 48.6832 43.0421 48.6892C42.9821 48.5922 42.8221 48.5462 42.7221 48.6592C42.6721 48.7072 42.6321 48.7582 42.5921 48.8062C41.8021 49.0532 41.0321 49.5002 40.3421 49.8992C39.4021 50.4452 38.5221 51.0872 37.7021 51.8092C36.8921 52.5332 36.1321 53.3312 35.4721 54.2012C34.9221 54.9302 34.4621 55.9802 35.3321 56.6752C36.0421 57.2482 36.8822 57.0712 37.6322 56.7192C37.3722 57.3952 37.1321 58.0791 36.9321 58.7771C36.7221 59.5341 36.6721 60.5461 37.4821 60.9801C38.2321 61.3861 38.9821 60.7912 39.4421 60.2212C40.6721 58.6962 41.6421 56.8992 42.3621 55.0842C42.7621 54.0572 43.0921 52.9972 43.3421 51.9202C43.5821 50.8722 43.8421 49.7192 43.7821 48.6402C43.7721 48.5152 43.7021 48.4372 43.6221 48.3982C47.7221 47.5202 51.6121 45.9472 55.2521 43.8982C53.3021 46.8002 52.3121 50.2452 52.3521 53.7412C52.3721 55.8392 52.7822 57.9371 53.5422 59.8941C53.6522 60.1951 54.0722 60.2591 54.2722 60.0091C58.3822 54.9271 61.3922 48.9612 63.0322 42.6292C63.4322 41.0692 63.7721 39.4642 63.9221 37.8542C66.1921 35.9852 68.3321 33.9832 70.4321 31.9222C70.3721 32.1292 70.3222 32.3411 70.2822 32.5531C68.8222 34.7581 67.8821 37.2602 67.4821 39.8782C67.3721 40.6042 67.3122 41.3362 67.2922 42.0702C67.2722 42.7302 67.2021 43.4712 67.4421 44.1012C67.6121 44.5812 68.0322 45.0062 68.5622 45.0582C69.1522 45.1162 69.6221 44.6851 69.9721 44.2591C70.5421 43.5621 70.9022 42.7292 71.0422 41.8572C71.1322 42.0952 71.2421 42.3372 71.4321 42.5082C71.8621 42.8952 72.4321 42.7172 72.7021 42.2472C73.0421 41.6332 72.9821 40.7932 72.9921 40.1142C73.0121 39.2682 72.972 38.4212 72.872 37.5802C72.652 35.6712 72.142 33.8012 71.362 32.0452C71.302 31.9102 71.1822 31.8562 71.0722 31.8572C71.1122 31.6332 71.1521 31.4072 71.1921 31.1822C75.1121 27.2722 78.8521 23.1562 82.7521 19.2422C84.1621 17.8172 85.622 16.4052 87.122 15.0312C85.562 17.1912 84.2721 19.5532 83.2121 21.9762C81.5321 25.8162 80.4322 29.9252 80.0122 34.0972C79.9022 35.1372 79.8422 36.1801 79.8222 37.2251C79.7922 38.2291 79.7921 39.3492 80.4521 40.1762C80.5521 40.2962 80.6622 40.4032 80.7722 40.5022C80.7822 40.5672 80.7822 40.6332 80.7922 40.6972C80.8222 40.9282 81.1121 40.9692 81.2321 40.8092C81.7121 41.0482 82.2722 41.1002 82.7922 40.8562C83.6322 40.4672 84.0922 39.5931 84.5422 38.8371C86.7622 35.1211 88.4121 31.0872 89.4321 26.8832C90.5821 22.1562 90.9221 17.2372 90.4421 12.3962C90.4321 12.3122 90.412 12.2412 90.372 12.1822C91.632 11.1352 92.9221 10.1292 94.2421 9.17119C94.3121 9.19219 94.3821 9.20618 94.4521 9.22618C94.4721 9.29018 94.522 9.34315 94.612 9.34715C94.712 9.35115 94.8121 9.34715 94.9121 9.34715C96.1521 9.65415 97.4321 9.81617 98.6721 9.96617C100.332 10.1672 102.002 10.2991 103.672 10.3501C105.332 10.4001 106.982 10.3882 108.642 10.3052C110.292 10.2222 111.972 10.1192 113.602 9.84416C114.612 9.67416 115.912 9.2322 116.192 8.1162C116.482 6.9492 115.512 6.15214 114.502 5.84514C113.922 5.66714 113.332 5.6222 112.722 5.5902C111.912 5.5482 111.102 5.52618 110.292 5.52318C108.652 5.51718 107.012 5.59614 105.372 5.75914C102.472 6.04714 99.6022 6.60717 96.8022 7.40917C100.992 4.68317 105.512 2.52517 110.442 1.35417C111.722 1.04917 113.022 0.792149 114.322 0.579149C114.702 0.518149 114.632 -0.0108309 114.262 0.000169143C108.932 0.145169 103.762 2.11014 99.142 4.67314C94.352 7.33714 90.0321 10.7702 86.0021 14.4782C83.4521 16.8292 81.012 19.3042 78.612 21.8062C79.592 19.7942 80.3421 17.6611 80.9321 15.5221C81.4021 13.8181 81.7521 12.0821 81.9821 10.3291C82.2021 8.59815 82.3922 6.7882 82.2622 5.0432C82.1522 3.5042 81.552 1.89718 80.122 1.13518C78.672 0.365179 76.9521 1.03316 75.9121 2.16716C74.7821 3.40416 74.232 5.17815 73.872 6.78215C73.492 8.52415 73.4022 10.3301 73.5122 12.1081C73.7722 16.2191 75.1422 20.1482 76.5122 23.9992C73.5722 27.0692 70.6422 30.1361 67.5522 33.0351C69.1222 29.4121 69.622 25.2792 69.102 21.3942C68.972 20.3512 68.862 19.1142 68.342 18.1792C67.942 17.4592 67.032 16.8642 66.342 17.6252C66.092 17.9062 65.9821 18.2842 65.9221 18.6532C65.8421 18.5712 65.752 18.5002 65.652 18.4422C65.192 18.1782 64.6421 18.2752 64.2321 18.5832C63.1721 19.3702 63.3821 20.9362 63.4221 22.0842C63.5321 24.8062 63.8922 27.5221 64.8222 30.0921C65.0822 30.7921 65.3921 31.4742 65.7421 32.1332C65.9421 32.5222 66.1621 33.0052 66.4421 33.4182C66.4721 33.4962 66.4822 33.5792 66.5122 33.6562C66.5522 33.7472 66.6021 33.8062 66.6721 33.8472C65.3521 35.0542 64.012 36.2301 62.622 37.3581C62.272 37.6421 61.9122 37.9182 61.5522 38.1952C60.5622 38.7112 59.6222 39.3601 58.7722 40.0481C58.4322 40.3271 58.1022 40.6222 57.7722 40.9252C55.0122 42.7572 52.0821 44.3392 48.9821 45.5322C44.7821 47.1442 40.3121 47.9702 35.8221 48.0082C36.5521 47.7542 37.2721 47.4662 37.9821 47.1452C39.5221 46.4412 40.992 45.5792 42.392 44.6232C45.192 42.7002 47.6921 40.3102 49.7121 37.5772C50.8521 36.0402 51.8421 34.3952 52.6621 32.6712C52.7821 32.4292 52.6221 32.0362 52.3221 32.0282C44.4821 31.8372 37.6922 36.6442 33.2622 42.7822C32.1422 44.3292 31.1521 45.9652 30.2521 47.6482C25.2421 46.9622 20.2321 45.3272 16.0021 42.5722C12.4721 40.2802 9.27209 37.1092 7.44209 33.2782C7.47209 33.2982 7.51207 33.3142 7.55207 33.3332C7.59207 33.3852 7.65213 33.4182 7.73213 33.4242C8.78213 33.9572 9.95207 34.3212 11.0521 34.5832C12.6221 34.9582 14.2321 35.1332 15.8521 35.1352C19.0721 35.1392 22.3321 34.3812 25.2121 32.9422C26.8421 32.1282 28.3621 31.1052 29.7021 29.8722C29.9921 29.6072 29.9021 29.2192 29.5621 29.0832C29.5321 28.9942 29.4521 28.9171 29.3521 28.9231C29.2621 28.9271 29.1721 28.9392 29.0821 28.9472C23.3721 27.4262 17.2221 27.7342 11.6821 29.7572C10.1221 30.3242 8.45213 30.9842 7.11213 31.9612C7.02213 32.0242 6.98211 32.1092 6.96211 32.1982C6.80211 31.7922 6.65204 31.3811 6.52204 30.9621C6.43204 30.6621 6.35204 30.3612 6.27204 30.0602C6.28204 29.3472 6.28215 28.6272 6.13215 27.9302C6.11215 27.8132 6.0421 27.7251 5.9521 27.6651C5.8021 24.1361 7.10207 20.6982 9.55207 17.9842C12.7121 14.4712 17.1821 12.2412 21.4821 10.4432C22.5621 9.99216 23.6321 9.48916 24.7321 9.10216C25.1921 8.94316 24.9221 8.24717 24.4621 8.40617C23.3021 8.81217 22.1221 9.13819 20.9721 9.57219C19.8121 10.0122 18.652 10.4902 17.522 11.0102C15.302 12.0302 13.1521 13.2432 11.2321 14.7602C8.05213 17.2672 5.63206 20.6412 4.91206 24.5812C3.23206 27.1142 2.11208 30.0401 1.31208 32.9541C0.472083 36.0231 0.0321469 39.1952 0.00214687 42.3772C-0.0178531 44.1772 0.102122 45.9802 0.352122 47.7672ZM36.2821 56.4472C35.6621 56.3722 35.2622 55.8711 35.5122 55.2591C35.7322 54.7221 36.1721 54.2482 36.5521 53.8142C36.9121 53.3952 37.2921 52.9942 37.6921 52.6142C38.5121 51.8462 39.4021 51.1641 40.3521 50.5691C40.7921 50.2961 41.2321 50.0472 41.6921 49.8172C40.1821 51.6422 38.9121 53.6852 37.9721 55.8652C37.4721 56.1682 36.8921 56.5212 36.2821 56.4472ZM42.7921 51.2392C42.6321 52.0992 42.412 52.9492 42.142 53.7812C41.602 55.4282 40.8721 57.0171 39.9421 58.4801C39.7221 58.8311 39.4821 59.1752 39.2421 59.5112C39.0021 59.8372 38.7422 60.2112 38.3822 60.4112C37.8822 60.6912 37.4521 60.3622 37.3721 59.8312C37.2921 59.3502 37.502 58.8242 37.642 58.3752C37.872 57.6552 38.1421 56.9481 38.4321 56.2511C38.4621 56.2141 38.4821 56.1751 38.4821 56.1341C38.8321 55.3091 39.2221 54.5022 39.6621 53.7192C40.5121 52.1792 41.5221 50.7222 42.6521 49.3722C42.7921 49.3082 42.9221 49.2321 43.0621 49.1601C42.9621 49.8501 42.9221 50.5512 42.7921 51.2392ZM113.342 8.97917C110.342 9.41717 107.262 9.54716 104.222 9.47716C102.502 9.43716 100.772 9.33118 99.0522 9.15318C98.9122 9.13818 98.762 9.11515 98.622 9.09715L99.892 9.00914C101.662 8.88714 103.422 8.76517 105.192 8.64317C108.572 8.40917 111.962 8.20617 115.342 7.89317C115.182 8.59717 113.922 8.89617 113.342 8.97917ZM112.592 6.46617C113.382 6.50717 114.942 6.51715 115.302 7.43315C115.302 7.44215 115.302 7.44918 115.312 7.45818C111.942 7.61418 108.572 7.87918 105.212 8.11418C103.482 8.23518 101.742 8.3572 100.002 8.4782C99.1021 8.5412 98.2122 8.60318 97.3122 8.66618C96.8722 8.69718 96.4221 8.71019 95.9721 8.73619C95.8621 8.72119 95.762 8.70419 95.652 8.68919C101.102 6.94519 106.872 6.16817 112.592 6.46617ZM81.132 34.3402C81.002 35.3812 80.912 36.4262 80.842 37.4732C80.822 37.8482 80.7922 38.2322 80.7722 38.6192C80.7122 38.2232 80.7121 37.8102 80.7121 37.4552C80.7221 36.4732 80.782 35.4922 80.872 34.5152C81.242 30.6292 82.1921 26.8042 83.6721 23.1932C84.0221 22.3502 84.3922 21.5271 84.8022 20.7171C82.9522 25.0551 81.712 29.6482 81.132 34.3402ZM89.4721 13.2381C90.1521 21.0931 88.5821 29.1092 85.0021 36.1362C84.5621 37.0122 84.0822 37.8742 83.5722 38.7142C83.3222 39.1302 82.9621 39.7382 82.4821 39.9892C82.7721 39.1822 82.8722 38.2852 83.0522 37.4512C83.2422 36.5622 83.432 35.6742 83.632 34.7882C84.032 32.9882 84.462 31.1921 84.902 29.4021C85.782 25.8751 86.7221 22.3662 87.7521 18.8792C88.2921 17.0352 88.862 15.2012 89.392 13.3542C89.422 13.3152 89.4421 13.2761 89.4721 13.2381ZM88.4921 14.6001C87.5221 17.4451 86.692 20.3442 85.882 23.2322C84.892 26.7322 83.982 30.2552 83.152 33.7952C82.912 34.8142 82.6821 35.8342 82.4521 36.8562C82.3421 37.3402 82.232 37.8242 82.132 38.3092C82.012 38.8432 81.852 39.3862 81.832 39.9332C81.832 39.9842 81.842 40.0301 81.862 40.0741C81.802 40.0601 81.7421 40.0552 81.6721 40.0262C81.5521 39.9702 81.442 39.8992 81.352 39.8182C81.372 39.1652 81.352 38.5072 81.382 37.8592C81.432 36.9362 81.502 36.0142 81.592 35.0942C81.792 33.2562 82.0721 31.4272 82.4621 29.6192C83.2421 25.9512 84.4622 22.3772 86.0122 18.9652C86.4122 18.0892 86.8422 17.2271 87.2922 16.3761C87.6822 15.7771 88.0821 15.1841 88.4921 14.6001ZM80.6621 5.07115C80.7221 4.68315 80.782 4.29515 80.842 3.90715C80.862 3.79615 80.882 3.68117 80.902 3.56517C81.092 4.03417 81.2021 4.54018 81.2521 5.00218C81.4121 6.60718 81.2422 8.28018 81.0622 9.87718C80.8822 11.4822 80.6021 13.0752 80.2121 14.6442C79.7521 16.5572 79.092 18.3911 78.342 20.1861C78.742 17.6161 79.1021 15.0392 79.5021 12.4692C79.7621 10.8352 80.0122 9.20017 80.2722 7.56517C80.4022 6.73217 80.5321 5.90215 80.6621 5.07115ZM78.832 1.87419C78.892 1.87719 78.9421 1.86715 78.9921 1.87315C79.6021 1.94615 80.062 2.2672 80.402 2.7022C80.262 3.0422 80.2521 3.44815 80.2121 3.80815C80.1521 4.19715 80.1022 4.58718 80.0522 4.97618C79.9422 5.81018 79.8421 6.64515 79.7321 7.48015C79.5121 9.12115 79.302 10.7622 79.092 12.4032C78.712 15.3372 78.2721 18.2602 77.9121 21.1952C77.8521 21.3272 77.7921 21.4611 77.7321 21.5921C77.6121 20.6931 77.472 19.7952 77.382 18.8912C77.242 17.5052 77.162 16.1122 77.142 14.7192C77.112 11.8832 77.3122 9.02514 77.8222 6.23314C77.9622 5.46914 78.1222 4.70718 78.3022 3.95018C78.4622 3.25518 78.672 2.56819 78.832 1.87419ZM74.8022 13.9682C74.3322 10.7812 74.4322 7.35118 75.7722 4.37218C76.2222 3.38918 76.9922 2.30715 78.0622 1.97215C77.7122 3.14615 77.5122 4.39018 77.3122 5.58318C77.0722 7.01118 76.8822 8.44617 76.7622 9.88817C76.5322 12.7162 76.5422 15.5662 76.8222 18.3902C76.9422 19.7032 77.102 21.0362 77.402 22.3272C77.352 22.4502 77.2921 22.5752 77.2421 22.6982C76.2221 19.8492 75.2522 16.9672 74.8022 13.9682ZM69.152 44.2322C68.862 44.4722 68.5321 44.5362 68.2421 44.2582C67.9321 43.9662 67.902 43.4992 67.882 43.1032C67.842 42.3492 67.8721 41.5881 67.9421 40.8371C68.1721 38.3551 68.9222 35.9362 70.0722 33.7272C70.0022 34.3652 69.9621 35.0071 69.9521 35.6311C69.9321 37.1131 70.1221 38.5892 70.4821 40.0252C70.4421 40.0802 70.4121 40.1512 70.4321 40.2422C70.6721 41.5982 70.262 43.3242 69.152 44.2322ZM72.352 40.7802C72.332 41.0072 72.2021 42.5901 71.7521 41.8681C71.5921 41.6061 71.5121 41.2492 71.4121 40.9582C71.3021 40.6252 71.202 40.2882 71.112 39.9482C70.752 38.5682 70.582 37.1332 70.592 35.7082C70.602 34.6712 70.7521 33.6662 70.9321 32.6612C72.0021 35.2142 72.522 38.0122 72.352 40.7802ZM65.622 29.9281C65.102 28.6221 64.7421 27.2681 64.4821 25.8891C64.2221 24.5151 64.0722 23.1252 64.0122 21.7282C63.9822 21.0122 63.8721 20.1602 64.2021 19.4972C64.3521 19.1952 64.6221 18.8901 64.9721 18.8291C65.3721 18.7571 65.8222 19.0862 65.7722 19.5212C65.7622 19.5632 65.7722 19.5972 65.7822 19.6292C65.7322 20.0182 65.6921 20.4072 65.6621 20.7972C65.5421 22.1022 65.4921 23.4152 65.4821 24.7262C65.4821 26.2232 65.5621 27.7222 65.7221 29.2092C65.7721 29.6332 65.812 30.0682 65.862 30.5052C65.782 30.3132 65.692 30.1221 65.622 29.9281ZM66.612 29.8342C66.422 28.6752 66.2921 27.5032 66.2121 26.3312C66.0621 23.9572 66.1521 21.5802 66.4721 19.2222C66.5121 18.8502 66.532 18.2081 66.882 17.9701C67.312 17.6761 67.692 18.2392 67.862 18.5772C68.082 19.0252 68.1722 19.5422 68.2722 20.0262C68.3922 20.5712 68.4922 21.1201 68.5622 21.6731C68.8522 23.8371 68.8121 26.0382 68.4521 28.1902C68.1921 29.7332 67.7621 31.2332 67.1921 32.6842C67.0221 31.7312 66.772 30.7852 66.612 29.8342ZM62.7321 38.8062C62.8121 38.7482 62.8821 38.6942 62.9621 38.6362C63.0021 38.6152 63.042 38.5932 63.082 38.5722C62.862 39.6482 62.652 40.7242 62.382 41.7912C61.982 43.3562 61.5021 44.8991 60.9521 46.4151C59.8521 49.4361 58.4421 52.3511 56.7321 55.0741C56.0921 56.0841 55.4021 57.0562 54.6921 58.0122C54.6921 58.0102 54.6921 58.0082 54.6921 58.0052C54.7721 57.6142 54.8521 57.2242 54.9421 56.8342C55.1021 56.1292 55.2821 55.4262 55.4621 54.7282C55.8521 53.2852 56.3122 51.8592 56.8122 50.4522C57.7922 47.7022 59.0221 45.0442 60.4521 42.4992C60.8721 41.7562 61.3022 41.0222 61.7622 40.3012C62.0722 39.8032 62.4321 39.3172 62.7321 38.8062ZM61.602 39.6762C61.562 39.7442 61.5221 39.8122 61.4721 39.8792C61.0821 40.4832 60.702 41.0952 60.342 41.7142C59.582 43.0032 58.8721 44.3262 58.2321 45.6752C56.9421 48.3532 55.8622 51.1302 55.0422 53.9842C54.8022 54.7992 54.592 55.6202 54.392 56.4452C54.302 56.8332 54.212 57.2231 54.132 57.6131C54.072 57.8811 54.0021 58.1562 53.9721 58.4322C53.8521 58.0582 53.7521 57.6802 53.6621 57.3002C53.7221 57.2632 53.7622 57.2072 53.7722 57.1272C53.8922 55.8012 54.0122 54.4922 54.2822 53.1852C54.5622 51.8412 54.9421 50.5212 55.4221 49.2372C56.3721 46.7082 57.692 44.3212 59.342 42.1842C59.972 41.3712 60.652 40.5932 61.372 39.8512C61.442 39.7922 61.522 39.7352 61.602 39.6762ZM58.4921 41.9142C58.8421 41.6802 59.1822 41.4341 59.5322 41.1911C56.8122 44.4231 54.8721 48.3352 53.9021 52.4342C53.6621 53.4232 53.472 54.4402 53.352 55.4602C53.112 53.3372 53.272 51.1742 53.852 49.0992C54.552 46.6272 55.892 44.3342 57.642 42.4522C57.932 42.2722 58.2121 42.0992 58.4921 41.9142ZM38.2421 46.0762C37.4121 46.4962 36.5621 46.8832 35.6921 47.2402C35.2621 47.4182 34.8222 47.5871 34.3822 47.7511C34.2022 47.8191 34.0221 47.8952 33.8421 47.9722C33.5921 47.9612 33.3521 47.9411 33.1021 47.9231C33.4621 47.7291 33.8121 47.5262 34.1621 47.3362C34.8721 46.9472 35.5921 46.5502 36.2921 46.1292C37.7321 45.2592 39.1321 44.3172 40.5021 43.3312C43.1921 41.3932 45.782 39.2782 48.142 36.9532C49.102 36.0162 50.0121 35.0402 50.9021 34.0432C47.992 39.1802 43.5221 43.4302 38.2421 46.0762ZM51.3721 32.9541C47.0221 37.7301 42.1121 41.9512 36.5921 45.3272C35.8121 45.8042 35.0321 46.2792 34.2421 46.7352C33.8421 46.9662 33.4222 47.1762 33.0122 47.3902C36.8922 42.6092 41.6521 38.5232 46.8721 35.2792C48.1921 34.4612 49.5521 33.7002 50.9221 32.9792C51.0721 32.9722 51.2221 32.9621 51.3721 32.9541ZM46.1721 33.8642C47.3721 33.4652 48.6121 33.2002 49.8721 33.0602C44.4321 35.8232 39.5021 39.5581 35.2821 43.9701C34.1021 45.2081 32.9921 46.5122 31.9221 47.8462C31.7021 47.8252 31.4721 47.7902 31.2521 47.7652C34.5721 41.6582 39.4021 36.1132 46.1721 33.8642ZM19.2622 56.5611C18.7222 55.2291 18.2321 53.8752 17.7921 52.5052C17.1021 50.3592 16.5522 48.1722 16.1322 45.9592C16.1522 46.0052 16.1721 46.0512 16.1921 46.0972C16.5021 46.7642 16.7821 47.4432 17.0621 48.1222C17.5921 49.4322 18.0821 50.7591 18.5321 52.1001C19.3821 54.6431 20.1021 57.2331 20.6921 59.8501C20.2221 58.7511 19.7222 57.6681 19.2622 56.5611ZM16.2622 44.1492C16.2822 44.1862 16.3021 44.2242 16.3321 44.2572C19.6921 47.6522 21.5821 52.3902 21.5821 57.1542C21.5821 57.7602 21.5521 58.3662 21.4921 58.9682C21.4521 59.2612 21.4621 59.9441 21.2021 60.2201C20.6221 57.4411 19.8921 54.6972 19.0021 52.0002C18.5421 50.6082 18.0422 49.2261 17.5122 47.8581C17.2522 47.1731 16.9721 46.4962 16.7021 45.8152C16.4421 45.1722 16.1921 44.4842 15.8421 43.8822C15.9821 43.9722 16.1222 44.0642 16.2622 44.1492ZM15.4821 43.6521C15.3421 43.6641 15.2221 43.7622 15.2521 43.9322C15.6921 46.8772 16.3721 49.7862 17.2821 52.6222C17.7321 54.0412 18.2521 55.4422 18.8221 56.8202C19.2321 57.8272 19.6621 58.8432 20.1821 59.8102C19.9821 59.5792 19.8121 59.3332 19.7221 59.2052C19.3521 58.7332 19.0021 58.2452 18.6821 57.7442C17.3321 55.6682 16.3321 53.3492 15.7421 50.9432C15.1321 48.4622 15.0521 45.9761 15.1621 43.4491C15.2621 43.5181 15.3721 43.5831 15.4821 43.6521ZM13.3521 34.1112C13.4421 34.1072 13.5422 34.1101 13.6322 34.1051C14.9722 34.0381 16.3021 33.8871 17.6221 33.6601C20.2621 33.2071 22.8421 32.4702 25.3121 31.4422C26.1621 31.0872 26.9921 30.6812 27.8121 30.2532C23.7221 33.3462 18.4421 34.7022 13.3521 34.1112ZM28.1322 29.6372C28.1522 29.6432 28.1821 29.6492 28.2021 29.6542C23.8121 31.8892 19.0121 33.2132 14.0921 33.4942C13.3721 33.5352 12.6521 33.5532 11.9321 33.5492C11.3421 33.5462 10.742 33.4912 10.152 33.4792C9.89205 33.4062 9.63214 33.3392 9.37214 33.2552C9.29214 33.2302 9.22204 33.2012 9.14204 33.1762C14.352 32.2112 19.5521 31.2321 24.7521 30.2591C25.5321 30.1141 26.3021 29.9692 27.0821 29.8252C27.4221 29.7602 27.7822 29.7022 28.1322 29.6372ZM11.4721 30.7882C12.8521 30.2552 14.2721 29.8282 15.7121 29.5192C18.5921 28.9042 21.5621 28.7252 24.4921 29.0172C25.2321 29.0922 25.9821 29.2011 26.7121 29.3371C26.1821 29.4341 25.6421 29.5302 25.1021 29.6272C23.7221 29.8772 22.3421 30.1262 20.9521 30.3752C18.1621 30.8782 15.3621 31.3812 12.5621 31.8822C11.0121 32.1602 9.47207 32.4452 7.92207 32.7272C7.81207 32.6862 7.70211 32.6442 7.59211 32.6042C8.89211 32.0082 10.1321 31.3082 11.4721 30.7882ZM4.71211 26.3822C4.70211 26.5342 4.69208 26.6862 4.68208 26.8412C4.67208 28.2652 4.88216 29.6542 5.26216 30.9952C5.26216 31.2832 5.25213 31.5711 5.23213 31.8581C5.15213 33.2021 4.99216 34.5421 4.76216 35.8681C4.30216 38.4791 3.53213 41.0302 2.48213 43.4652C2.25213 43.9952 2.00214 44.5142 1.74214 45.0282C1.80214 44.5892 1.87208 44.1501 1.93208 43.7121C2.15208 42.3181 2.37212 40.9271 2.60212 39.5351C3.05212 36.7231 3.5121 33.9121 3.9521 31.1001C4.2121 29.5261 4.46211 27.9542 4.71211 26.3822ZM3.41206 29.3212C3.59206 28.8372 3.79215 28.3602 4.00215 27.8862C3.17215 32.9102 2.36215 37.9392 1.50215 42.9582C1.36215 43.7362 1.22211 44.5142 1.09211 45.2912C1.08211 45.3332 1.07208 45.3742 1.06208 45.4162C0.642083 39.9542 1.46206 34.4542 3.41206 29.3212Z" fill="#4D4C51"/>
</svg>
