<svg width="140" height="53" viewBox="0 0 140 53" fill="none" xmlns="http://www.w3.org/2000/svg">
<path d="M139.336 25.4379C136.516 22.0759 132.916 19.4099 129.106 17.2689C128.186 16.7479 127.236 16.2589 126.276 15.7979C127.406 16.0599 128.545 16.2509 129.695 16.3469C132.165 16.5539 134.676 16.3969 137.096 15.8669C137.956 15.6779 139.276 15.5019 139.736 14.6099C140.266 13.5689 139.126 12.8919 138.286 12.6539C135.896 11.9739 133.326 11.8529 130.856 12.1029C129.426 12.2479 128.015 12.5349 126.645 12.9669C125.495 13.3299 124.266 13.7559 123.226 14.4049C123.106 14.3719 122.986 14.3359 122.856 14.3059C120.906 13.5349 118.906 12.8759 116.876 12.3359C115.806 12.0519 114.735 11.7999 113.655 11.5759C115.105 10.9489 116.506 10.1719 117.856 9.42692C119.986 8.25192 122.166 7.00791 124.106 5.53391C124.796 5.01191 125.376 4.0329 124.766 3.2219C124.196 2.4689 123.175 2.7209 122.415 2.9589C120.185 3.6559 118.036 4.62293 116.036 5.83793C113.766 7.21693 111.725 8.89989 109.895 10.8239C109.865 10.8519 109.856 10.8849 109.836 10.9169C106.376 10.4239 102.876 10.2329 99.3757 10.3099C103.286 8.72891 106.895 6.3309 109.905 3.3859C110.505 2.8039 111.116 2.05591 110.826 1.16691C110.546 0.295908 109.675 0.191918 108.945 0.551918C107.925 1.04692 106.976 1.72592 106.036 2.35892C105.046 3.03492 104.085 3.75689 103.155 4.52189C101.095 6.23189 99.2156 8.15789 97.5356 10.2509C97.5056 10.2919 97.4855 10.3339 97.4755 10.3749C95.2955 10.4859 93.1155 10.6969 90.9555 11.0199C92.1255 10.2629 93.2356 9.41093 94.2956 8.50993C95.3156 7.63793 96.2855 6.7069 97.2055 5.7219C98.0455 4.8159 98.9857 3.85492 99.6157 2.78092C100.116 1.91792 100.166 0.586898 99.0856 0.130898C98.1356 -0.269102 97.0555 0.335917 96.2255 0.762917C94.1555 1.83492 92.2955 3.30689 90.7455 5.05289C89.0155 6.99489 87.6957 9.2729 86.8857 11.7429C81.0757 12.9449 75.4255 14.8039 69.9555 17.1129C73.2855 13.9199 75.7654 9.82591 77.3954 5.54191C77.5754 5.07891 77.0155 4.79892 76.6655 5.04392C74.3655 6.66392 72.3255 8.65089 70.6655 10.9279C69.8455 12.0649 69.1255 13.2699 68.4955 14.5279C68.1755 15.1609 67.8957 15.8059 67.6357 16.4649C67.3957 17.0779 67.1056 17.7289 67.0556 18.3899C64.6756 19.4759 62.3356 20.6349 60.0356 21.8659C59.9056 21.9329 59.7855 22.0049 59.6655 22.0719C62.6155 19.1009 65.1755 15.6069 66.9055 11.8109C67.1955 11.1619 67.3255 10.1399 66.4055 9.95292C65.5755 9.78592 64.8456 10.5429 64.3156 11.0449C62.7256 12.5419 61.3456 14.2649 60.2856 16.1779C59.1056 18.3029 58.2954 20.6119 57.8954 23.0109C57.8954 23.0249 57.8954 23.0339 57.8954 23.0469C56.6554 23.7429 55.4155 24.4499 54.1955 25.1779C56.7855 21.4509 58.7857 17.2839 59.8857 12.8709C60.0057 12.3849 60.0856 11.8319 59.8456 11.3689C59.5956 10.8929 59.0456 10.7209 58.5456 10.8809C58.0656 11.0389 57.6956 11.4439 57.3456 11.7969C56.9056 12.2359 56.4856 12.6959 56.0956 13.1709C54.5956 14.9569 53.4056 17.0059 52.5656 19.1779C52.0956 20.3929 51.7456 21.6519 51.5056 22.9309C51.2556 24.2189 51.0355 25.6539 51.2055 26.9619C51.2055 26.9729 51.2155 26.9789 51.2155 26.9889C49.5355 28.0329 47.8655 29.0949 46.2155 30.1879C44.8355 31.1059 43.4556 32.0459 42.0956 32.9899C43.7556 30.9679 44.9556 28.4929 45.7556 26.0219C46.6356 23.3229 46.9955 20.5599 46.9155 17.7299C46.9055 17.4549 46.6055 17.3519 46.4255 17.5589C42.6055 21.9959 40.4857 27.7809 40.6357 33.6449C40.6357 33.7629 40.6956 33.8469 40.7656 33.9029C39.8956 34.5039 39.0355 35.1069 38.1555 35.7039C38.0955 35.7239 38.0355 35.7479 37.9655 35.7679C38.5455 34.3369 38.8255 32.7619 38.9855 31.2509C39.0855 30.2479 39.1156 29.2399 39.0656 28.2329C39.0256 27.2589 38.9755 26.2259 38.7155 25.2809C38.4855 24.4209 37.8557 23.6369 36.8657 23.8239C35.8657 24.0149 35.4156 24.9869 35.0956 25.8519C34.4156 27.7429 33.9756 29.7309 33.7956 31.7339C33.5856 33.9549 33.7057 36.2029 34.1157 38.3939C33.3957 38.8609 32.6655 39.3259 31.9255 39.7759C28.2655 42.0179 24.2556 44.0479 20.0656 45.4089C21.1056 44.2299 22.0056 42.9119 22.7756 41.5859C24.0156 39.4279 24.9255 37.0749 25.4555 34.6409C25.6355 33.7609 26.1656 32.1659 25.2956 31.4729C24.2956 30.6669 23.2454 32.0359 22.6454 32.6969C20.9654 34.5799 19.5355 36.6719 18.4055 38.9349C17.7655 40.2209 17.2256 41.5539 16.7856 42.9219C16.5756 43.5799 16.3755 44.2469 16.2255 44.9199C16.0955 45.4349 15.9755 45.9639 15.9555 46.4939C11.8955 47.3249 7.73566 47.4299 3.61566 46.3939C2.53566 46.1209 1.46547 45.8019 0.425473 45.3969C0.0154734 45.2389 -0.174497 45.8459 0.205503 46.0239C5.1255 48.3359 10.5556 48.5869 15.8256 47.6259C20.8056 50.2049 26.2156 51.7159 31.8156 52.0799C32.7756 52.1429 34.4156 52.4359 35.0056 51.4039C35.7256 50.1579 33.6656 49.3329 32.8556 48.9139C30.5856 47.7439 28.1457 46.9419 25.6257 46.5259C24.1857 46.2879 22.7156 46.1839 21.2556 46.2119C23.3356 45.5139 25.3556 44.6689 27.2656 43.7209C27.4156 43.6459 27.5655 43.5629 27.7155 43.4869C27.7455 43.4859 27.7756 43.4869 27.8056 43.4859C31.0356 44.7989 34.3155 46.0529 37.7355 46.7339C39.4055 47.0639 41.0956 47.2609 42.7856 47.2249C44.4656 47.1899 46.0555 46.9229 47.6855 46.5519C47.9455 46.4939 47.9455 46.1799 47.7255 46.0749C42.7555 43.6799 37.1056 42.5709 31.6056 42.4859C30.9656 42.4759 30.2957 42.4669 29.6257 42.4779C32.4257 40.9379 35.1056 39.2129 37.7556 37.4249C43.3656 39.7539 49.4456 40.9499 55.5056 41.0279C56.1156 41.0359 56.8855 41.1429 57.4155 40.7879C57.9055 40.4619 57.9256 39.8479 57.5256 39.4319C57.0956 38.9769 56.4354 38.6539 55.8954 38.3419C55.3154 38.0029 54.7157 37.6919 54.1157 37.3969C51.7057 36.2269 49.1055 35.4829 46.4555 35.1719C44.9455 34.9949 43.4255 34.9719 41.9055 35.0889C41.6355 35.1099 41.3456 35.1369 41.0656 35.1649C41.3356 34.9779 41.6057 34.7919 41.8757 34.6049C43.6657 33.3679 45.4756 32.1519 47.2956 30.9539C49.5056 32.4459 51.9756 33.4969 54.5156 34.3049C57.1756 35.1529 59.9555 35.6859 62.7455 35.8869C63.6455 35.9519 65.2555 36.1479 65.6555 35.0529C66.1155 33.8099 64.3356 33.1179 63.5056 32.7019C61.1556 31.5179 58.6556 30.6959 56.0656 30.2229C53.7156 29.7949 51.3255 29.6879 48.9455 29.8679C51.1455 28.4499 53.3657 27.0699 55.6257 25.7509C56.3557 25.3209 57.0956 24.8999 57.8456 24.4819C62.2956 28.4839 67.8756 31.3029 73.5856 33.0219C75.2656 33.5279 76.9755 33.9249 78.7055 34.2339C79.1855 34.3199 79.3557 33.7169 79.1257 33.3959C75.5057 28.3139 69.9955 24.8049 63.9355 23.3979C62.8855 23.1519 61.8055 22.9949 60.7255 22.9019C64.5155 20.8859 68.3957 19.0489 72.3857 17.4619C72.4457 17.4839 72.5056 17.4959 72.5756 17.4869C72.5956 17.4839 72.6157 17.4849 72.6357 17.4819C74.6457 19.3589 76.9356 20.9519 79.3056 22.3339C80.5956 23.0849 81.9156 23.7729 83.2756 24.3959C83.9456 24.7079 84.6356 25.0019 85.3256 25.2789C86.0056 25.5469 86.6955 25.8549 87.4055 25.9969C88.4255 26.2019 89.7655 25.7879 89.4955 24.4879C89.3855 23.9169 88.9957 23.4409 88.6257 23.0149C88.2057 22.5389 87.7556 22.0859 87.2956 21.6559C85.4456 19.9439 83.2557 18.6199 80.8857 17.7589C78.8757 17.0259 76.7457 16.6379 74.6057 16.6149C78.0357 15.3459 81.5256 14.2609 85.0856 13.4299C85.5656 13.3189 86.0456 13.2279 86.5256 13.1259C87.3456 14.3749 88.4556 15.4569 89.5256 16.4759C90.6656 17.5509 91.8754 18.5449 93.1454 19.4609C95.7054 21.3059 98.4955 22.8369 101.435 23.9819C102.455 24.3789 104.375 25.2999 105.175 24.0419C105.895 22.9099 104.506 21.5889 103.826 20.8189C101.886 18.6269 99.5455 16.7749 96.9755 15.3749C94.5055 14.0289 91.8356 13.0989 89.0656 12.6329C91.0956 12.2769 93.1355 12.0179 95.1755 11.8379C99.3055 15.6879 104.136 18.8639 109.256 21.2199C110.176 21.6439 111.546 21.9759 112.136 20.8479C112.686 19.7759 111.276 18.6459 110.626 17.9769C108.796 16.1229 106.676 14.5739 104.356 13.4019C102.796 12.6139 101.146 12.0209 99.4555 11.5909C102.856 11.5099 106.265 11.6899 109.645 12.1619C109.645 12.1689 109.645 12.1749 109.655 12.1819C113.695 17.3399 118.556 21.7769 124.006 25.4139C124.826 25.9579 126.576 27.3089 127.336 25.9469C127.616 25.4479 127.455 24.8499 127.195 24.3809C126.855 23.7719 126.416 23.2019 125.996 22.6459C124.216 20.2629 122.065 18.1589 119.675 16.4029C117.675 14.9389 115.465 13.6979 113.165 12.7559C121.685 14.4739 129.616 18.1689 136.326 23.7239C137.166 24.4259 137.996 25.1539 138.826 25.8849C139.136 26.1629 139.626 25.7829 139.336 25.4379ZM66.4455 10.6749C66.7355 11.0419 66.1255 11.9199 65.9655 12.2279C64.9955 14.1059 63.9055 15.9189 62.6655 17.6339C61.8755 18.7379 61.0056 19.7999 60.1056 20.8229C60.9156 19.3389 61.7457 17.8699 62.6357 16.4269C63.2457 15.4219 63.8756 14.4249 64.5256 13.4369C65.1356 12.5029 65.8257 11.5949 66.3857 10.6269C66.4057 10.6419 66.4255 10.6539 66.4455 10.6749ZM63.4955 12.7429C64.0955 12.0769 64.7455 11.3469 65.4855 10.8399C65.5755 10.7779 65.7157 10.6949 65.8657 10.6339C65.2757 11.3909 64.7555 12.2219 64.2355 13.0149C63.5655 14.0219 62.9056 15.0399 62.2656 16.0679C61.0756 17.9899 59.9456 19.9489 58.8256 21.9179C59.5756 18.5249 61.1755 15.3309 63.4955 12.7429ZM46.3657 18.4629C46.3657 18.6669 46.3456 18.8719 46.3356 19.0759C45.3656 21.3739 44.5057 23.7119 43.6157 26.0399C43.1557 27.2539 42.6855 28.4669 42.2055 29.6749C41.9155 30.4119 41.5956 31.1509 41.2956 31.8969C41.5056 27.0239 43.2757 22.2519 46.3657 18.4629ZM42.6855 29.9459C43.1355 28.6939 43.6056 27.4469 44.0656 26.1999C44.8156 24.2019 45.5656 22.2049 46.2756 20.1919C46.1156 22.1019 45.7355 24.0049 45.1555 25.8099C44.3555 28.2879 43.1355 30.5109 41.7355 32.6829C42.0755 31.7809 42.3555 30.8439 42.6855 29.9459ZM37.7856 46.1399C34.8356 45.5469 31.9955 44.5209 29.1755 43.4569C34.6455 44.5139 40.1357 45.5069 45.6157 46.5129C43.0357 46.9139 40.2756 46.6389 37.7856 46.1399ZM35.0756 43.5129C37.8056 43.7619 40.5057 44.2899 43.1357 45.0379C44.2157 45.3449 45.2756 45.7129 46.3256 46.0959C41.2056 45.1689 36.0855 44.2349 30.9655 43.3419C30.9955 43.3419 31.0256 43.3399 31.0556 43.3389C32.3956 43.3329 33.7356 43.3909 35.0756 43.5129ZM61.2956 32.5129C62.3856 32.9459 63.5656 33.4109 64.5356 34.0719C64.6356 34.1399 64.7556 34.2289 64.8456 34.3289C59.5256 32.8199 54.1255 31.5779 48.6755 30.6539C52.9655 30.2799 57.2856 30.9209 61.2956 32.5129ZM64.8857 34.9529C64.7357 35.1039 64.4656 35.1619 64.2656 35.1949C63.6656 35.2959 63.0054 35.1869 62.3954 35.1319C59.8854 34.9059 57.4055 34.4189 54.9955 33.6829C52.6555 32.9709 50.4255 31.9829 48.2255 30.9349C53.8155 32.1229 59.3757 33.4389 64.8857 34.9529ZM87.1357 25.2519C84.6257 24.4469 82.1757 23.2469 79.8757 21.9419C77.7757 20.7409 75.8057 19.3459 73.8857 17.8809C76.2257 18.7879 78.5055 19.8249 80.7455 20.9789C82.0455 21.6539 83.3356 22.3749 84.5956 23.1299C85.2256 23.5079 85.8555 23.8949 86.4755 24.2939C87.0455 24.6599 87.5955 25.0939 88.1955 25.4129C87.8255 25.4389 87.4057 25.3359 87.1357 25.2519ZM85.5356 21.0109C86.4856 21.7249 87.3654 22.5319 88.1454 23.4309C88.4654 23.7979 88.9454 24.2999 88.8954 24.8269C88.8754 25.0069 88.7955 25.1279 88.6955 25.2199C88.7055 25.1479 88.6857 25.0769 88.6257 25.0219C88.0957 24.5369 87.4256 24.1699 86.8156 23.7819C86.1756 23.3699 85.5257 22.9679 84.8657 22.5779C83.5857 21.8219 82.2755 21.1169 80.9455 20.4509C78.6355 19.2889 76.2156 18.2969 73.7756 17.4199C77.9556 17.2069 82.1756 18.4989 85.5356 21.0109ZM107.395 2.23692C107.805 1.96992 108.225 1.71091 108.655 1.46091C108.995 1.26091 109.626 0.788924 110.026 1.08292C109.616 1.34892 109.236 1.6619 108.856 1.9459C108.306 2.3559 107.745 2.76588 107.195 3.17588C106.115 3.97688 105.036 4.77691 103.956 5.58091C102.666 6.54391 101.376 7.50889 100.086 8.46989C102.246 6.09489 104.705 3.97392 107.395 2.23692ZM104.226 6.0369C105.276 5.2509 106.316 4.46191 107.366 3.67191C107.916 3.25791 108.466 2.84293 109.016 2.42893C109.426 2.11893 109.876 1.81891 110.276 1.48191C110.416 2.21591 109.286 3.10393 108.876 3.48893C107.316 4.94793 105.616 6.26493 103.806 7.40293C102.286 8.35893 100.686 9.1949 99.0456 9.9329C100.766 8.6229 102.496 7.3319 104.226 6.0369ZM110.935 20.9279C110.295 21.0549 109.556 20.5949 109.006 20.3329C106.586 19.1869 104.246 17.8669 102.006 16.3959C99.9956 15.0749 98.0755 13.6209 96.2155 12.0949C98.7955 13.1429 101.326 14.3049 103.736 15.6929C105.056 16.4559 106.346 17.2919 107.606 18.1629C108.226 18.5909 108.825 19.0319 109.425 19.4849C110.005 19.9209 110.576 20.4859 111.216 20.8219C111.126 20.8709 111.025 20.9089 110.935 20.9279ZM108.766 17.1539C109.636 17.9089 110.466 18.7339 111.206 19.6249C111.326 19.7769 111.466 19.9579 111.526 20.1509C111.066 19.6439 110.406 19.2409 109.866 18.8459C109.256 18.4029 108.636 17.9719 108.016 17.5549C106.696 16.6699 105.325 15.8629 103.935 15.0939C101.585 13.7999 99.1457 12.6729 96.6157 11.7759C101.076 12.3289 105.366 14.2049 108.766 17.1539ZM124.346 14.7319C124.986 14.4379 125.616 14.1339 126.276 13.8979C127.346 13.5179 128.446 13.2299 129.566 13.0239C131.786 12.6139 134.056 12.5589 136.296 12.8699C137.006 12.9689 139.556 13.1009 139.386 14.2159C139.336 14.1439 139.265 14.0909 139.145 14.0859C134.265 13.8749 129.346 14.0069 124.516 14.7809C124.456 14.7639 124.406 14.7489 124.346 14.7319ZM125.366 15.0369C129.916 14.5089 134.496 14.3149 139.076 14.7219C138.496 15.2309 137.276 15.3659 136.706 15.4779C134.516 15.9089 132.276 16.0329 130.046 15.8549C128.826 15.7569 127.595 15.5739 126.395 15.3039C126.045 15.2249 125.706 15.1339 125.366 15.0369Z" fill="#4D4C51"/>
</svg>
