<svg width="60" height="119" viewBox="0 0 60 119" fill="none" xmlns="http://www.w3.org/2000/svg">
<path d="M58.9597 48.7932C55.3497 47.7532 51.5397 47.5231 47.8297 48.0931C45.9897 48.3831 44.1897 48.8632 42.4497 49.5332C41.5797 49.8632 40.7198 50.2432 39.8998 50.6732C39.1998 51.0332 38.2497 51.4332 37.6897 52.0232C37.5297 52.0332 37.3697 52.0432 37.2097 52.0532C39.7897 49.3532 42.0998 46.3732 43.7998 43.0332C44.7998 41.0532 45.5498 39.0132 46.0198 36.8532C46.1398 36.3132 45.6198 35.9532 45.1598 36.2632C42.6498 37.9732 40.4798 40.1932 38.8898 42.7832C38.1198 44.0432 37.4697 45.3932 36.9697 46.7932C36.4697 48.1932 35.9397 49.8132 35.9597 51.3132C35.9597 51.4332 35.9998 51.5332 36.0598 51.6232C34.8298 52.9032 33.5497 54.1332 32.2497 55.3032C30.9397 56.4932 29.6197 57.6732 28.3297 58.8832C28.2497 55.4932 28.1097 52.1132 27.8497 48.7432C27.7397 47.1732 27.5997 45.6032 27.4397 44.0432C29.0597 43.1232 30.5697 41.9231 31.9597 40.7031C33.5897 39.2731 35.1298 37.7331 36.5598 36.0931C39.4598 32.7731 41.8798 29.0631 43.7898 25.0831C44.8798 22.8231 45.7198 20.5031 46.4198 18.0931C46.5598 17.6031 46.0197 17.2432 45.6197 17.5432C42.6097 19.7832 40.0397 22.5332 38.1297 25.7532C37.1997 27.3332 36.4098 28.9931 35.7998 30.7131C35.1798 32.4531 34.5998 34.3932 34.5398 36.2532C34.5398 36.4032 34.5997 36.5332 34.6897 36.6432C33.8197 37.5732 32.9297 38.4832 31.9797 39.3532C30.4997 40.7032 28.8897 41.9032 27.3397 43.1632C26.8597 38.6432 26.2298 34.1432 25.4198 29.6632C25.5198 29.6332 25.5998 29.5732 25.6698 29.4832C26.9698 28.6032 28.0897 27.2832 29.1197 26.1332C30.3497 24.7632 31.5097 23.3332 32.5997 21.8532C34.7397 18.9432 36.6197 15.8431 38.2197 12.5931C38.4697 12.1031 37.8298 11.7032 37.4098 11.8732C30.8098 14.5432 26.9897 20.8032 24.9897 27.3632C24.8697 26.7332 24.7698 26.1032 24.6398 25.4832C24.3798 24.2032 24.0998 22.9232 23.8098 21.6432C23.9898 21.5132 24.1297 21.3532 24.2497 21.1632C24.5797 21.0132 24.6797 20.6732 24.6097 20.3732C24.7897 19.7032 24.8297 18.9532 24.8697 18.3832C25.0497 15.2032 24.5198 12.0132 23.4198 9.03321C22.8098 7.36321 21.9998 5.78322 21.0198 4.29322C20.0498 2.81322 18.8598 1.19323 17.3998 0.173227C17.2898 0.0932267 17.1797 0.0732414 17.0797 0.0632414C16.9497 -0.0467586 16.7597 -0.00681233 16.6897 0.133188C16.6297 0.173188 16.5798 0.223202 16.5298 0.273202C16.4498 0.163202 16.2697 0.133193 16.1897 0.263193C15.7797 0.913193 15.7198 1.68324 15.6498 2.43324C15.5598 3.25324 15.5198 4.0732 15.5198 4.8932C15.5298 6.5532 15.6998 8.22315 16.0298 9.84315C16.6698 12.9331 17.8698 15.8832 19.5598 18.5432C18.6198 18.1332 17.6797 17.7232 16.7297 17.3632C14.7297 16.5932 12.6997 15.8731 10.6297 15.3231C7.27975 14.4331 3.42972 13.9631 0.34972 15.9431C-0.0202801 16.1831 -0.170236 16.7532 0.269764 17.0332C6.67976 21.2032 14.5397 22.8432 22.0697 21.6232C22.1197 21.6632 22.1597 21.7032 22.2197 21.7332C22.2997 22.1232 22.3997 22.5032 22.4797 22.8932C22.7097 24.0132 22.9197 25.1432 23.1297 26.2732C22.9297 26.2032 22.7198 26.1431 22.5098 26.0831C21.8998 25.9131 21.2798 25.7932 20.6698 25.6732C19.5198 25.4732 18.3597 25.3532 17.1997 25.3032C14.8297 25.2032 12.4297 25.4032 10.1097 25.8932C9.19973 26.0832 7.85972 26.2832 7.46972 27.2932C7.04972 28.3732 8.12973 28.9132 8.98973 29.1432C11.3497 29.7632 13.7797 30.1532 16.2197 30.3032C16.7197 30.3332 17.2197 30.3432 17.7197 30.3532C17.2197 30.5632 16.7097 30.8032 16.2297 31.0632C13.6697 32.4932 11.5097 34.5832 10.0797 37.1532C9.8297 37.5932 10.1397 38.3232 10.7297 38.1532C15.5797 36.8032 20.0998 34.4932 24.0198 31.3532C24.6298 35.0532 25.1498 38.7632 25.5498 42.4832C25.1298 42.1832 24.5897 42.0432 24.0897 41.8732C23.2297 41.5732 22.3497 41.3132 21.4597 41.1032C19.6597 40.6732 17.8197 40.4132 15.9697 40.3132C12.2897 40.1132 8.58978 40.5232 5.03978 41.5332C4.41978 41.7132 4.36971 42.4932 4.95971 42.7632C11.3797 45.6032 18.7298 46.2232 25.5498 44.5032C25.6198 44.4932 25.6797 44.4932 25.7497 44.4832C25.7897 44.9932 25.8498 45.5032 25.8998 46.0232C26.2498 50.0732 26.4598 54.1532 26.5598 58.2232C24.7398 55.2432 21.5498 53.0931 18.1698 52.3331C16.8198 52.0231 13.0697 51.2831 12.9997 53.5931C12.9697 54.7431 14.2298 55.4032 15.0498 55.9232C16.1698 56.6532 17.3298 57.3032 18.5298 57.8932C18.9398 58.0932 19.3698 58.2731 19.7898 58.4631C19.3398 58.5331 18.8997 58.6131 18.4597 58.7131C15.6497 59.3631 13.0197 60.6932 10.8297 62.5632C10.4997 62.8332 10.5498 63.5132 11.0198 63.6132C14.2398 64.2732 17.4498 63.9731 20.6598 63.4431C22.0598 63.2131 23.4997 63.0132 24.8597 62.5632C25.4297 62.3832 26.0397 62.1332 26.5897 61.8132C26.5997 64.3332 26.5897 66.8532 26.4997 69.3732C26.4097 72.1332 26.2298 74.8932 26.0198 77.6432C24.7898 75.4632 23.1397 73.5232 21.2397 71.8932C19.7997 70.6732 18.2098 69.6332 16.5098 68.8032C14.9198 68.0232 13.0497 67.4632 11.3697 68.2932C10.9897 68.4732 10.9198 68.9432 11.1698 69.2732C13.2198 71.9332 15.5698 74.3632 18.1698 76.4932C19.4698 77.5532 20.8197 78.5432 22.2297 79.4332C22.9297 79.8832 23.6497 80.3131 24.3797 80.7131C24.8097 80.9531 25.2497 81.2132 25.6997 81.4132C25.3397 85.1732 24.8598 88.9132 24.2698 92.6432C24.1398 93.5032 23.9897 94.3631 23.8397 95.2131C23.0797 93.2131 21.6997 91.4031 20.2197 89.9631C17.6097 87.4431 14.3597 85.7931 10.9597 84.5931C8.82971 83.8331 6.6397 83.2432 4.4497 82.6632C3.8097 82.4932 3.2497 83.2032 3.6997 83.7532C8.0497 89.0632 13.5497 93.3531 19.7197 96.3331C17.2897 96.1731 14.7798 96.5232 12.5198 97.1032C8.76976 98.0732 5.26978 99.9232 2.40978 102.533C1.95978 102.943 2.22978 103.613 2.78978 103.693C9.92978 104.793 17.3398 102.953 23.1698 98.7432C22.0698 104.323 20.7298 109.843 19.3098 115.363C19.0698 116.323 18.9397 117.313 18.6997 118.283C18.5397 118.943 19.4797 119.303 19.7197 118.633C20.0697 117.713 20.5098 116.813 20.8098 115.883C21.1198 114.943 21.4197 114.003 21.6897 113.053C22.2297 111.153 22.7198 109.243 23.1798 107.323C23.2798 106.923 23.3597 106.533 23.4497 106.133C24.6197 106.923 25.9897 107.443 27.3397 107.833C28.9397 108.293 30.6098 108.543 32.2798 108.603C35.5998 108.723 38.9297 108.103 41.9697 106.753C43.6897 105.993 45.2897 104.983 46.7197 103.773C47.1297 103.433 46.8697 102.813 46.3797 102.753C42.5297 102.243 38.6397 102.043 34.7497 102.193C33.7197 102.223 32.6898 102.293 31.6598 102.373C32.3898 102.003 33.1098 101.603 33.8098 101.183C36.8398 99.3532 39.5897 97.1232 41.9697 94.5132C43.3397 93.0132 44.5498 91.4031 45.6698 89.7031C45.9498 89.2731 45.5798 88.6732 45.0598 88.7832C41.5598 89.4732 38.1398 90.5932 34.9098 92.1232C31.7198 93.6332 28.5098 95.5232 25.8998 97.9132C25.5798 98.2032 25.2797 98.5031 24.9897 98.8231C25.1897 97.8131 25.3897 96.8032 25.5697 95.7932C25.8397 94.2532 26.0798 92.7132 26.3098 91.1732C29.8498 89.8232 33.1197 87.6232 35.9797 85.1632C39.0797 82.5032 41.8198 79.3832 44.0198 75.9232C44.5598 75.0632 45.0798 74.1832 45.5598 73.2832C45.9698 72.5232 46.6797 71.5332 46.6897 70.6432C46.7097 69.7332 45.8298 69.3932 45.0498 69.6132C44.0898 69.8832 43.1598 70.5232 42.3098 71.0132C38.7398 73.0732 35.4997 75.6532 32.7097 78.6832C30.4597 81.1232 28.5098 83.8131 26.9098 86.7031C27.1298 84.8631 27.3398 83.0132 27.5198 81.1632V81.1532C27.6298 79.9232 27.7497 78.7032 27.8397 77.4732C28.5697 77.2632 29.1497 76.6632 29.7097 76.1632C30.3297 75.6032 30.9197 75.0032 31.4697 74.3832C32.6397 73.0732 33.6997 71.6732 34.6197 70.1732C36.4497 67.2032 37.8198 63.9432 38.5598 60.5332C38.6698 60.0532 38.1197 59.5132 37.6897 59.9332C35.3197 62.2332 33.1697 64.7532 31.3797 67.5232C30.4997 68.8732 29.7198 70.2832 29.0098 71.7232C28.6798 72.4032 28.3697 73.0832 28.0797 73.7732C28.0997 73.3032 28.1398 72.8232 28.1698 72.3532C28.3698 68.1632 28.4297 63.9832 28.3497 59.7932C31.2397 57.6932 33.9697 55.3432 36.4797 52.8032C36.8497 52.8532 37.2297 52.8932 37.6097 52.9132C37.7397 53.0532 37.9297 53.1332 38.1197 53.1032C38.2597 53.0732 38.3797 53.0231 38.4997 52.9631C41.5097 53.0931 44.5898 52.7632 47.5298 52.3832C51.3698 51.8932 55.1697 51.0631 58.8797 49.9631C59.3997 49.7931 59.5797 48.9732 58.9597 48.7932Z" fill="#4D4C51"/>
</svg>
