<svg width="50" height="105" viewBox="0 0 50 105" fill="none" xmlns="http://www.w3.org/2000/svg">
<path d="M44.5195 103.121C38.7295 99.2407 33.5795 94.4306 29.4995 88.7606C28.3895 87.2106 27.3595 85.6005 26.3995 83.9505C27.5895 83.8705 28.8195 83.4406 29.8895 83.0306C31.3095 82.4806 32.6794 81.7706 33.9494 80.9206C36.4894 79.2306 38.6794 76.9606 40.2194 74.3106C40.8894 73.1606 41.4895 71.6805 41.0095 70.3405C40.5195 68.9505 39.0094 68.2706 37.5994 68.3806C36.0094 68.5006 34.5195 69.4006 33.2495 70.3106C31.9595 71.2306 30.7995 72.3306 29.7995 73.5606C27.6795 76.1806 26.2894 79.3406 25.6894 82.6506C25.0794 81.5206 24.4894 80.3705 23.9594 79.2005C24.5194 78.7005 25.0295 78.1305 25.5395 77.5805C26.1995 76.8805 26.8194 76.1406 27.4394 75.4106C28.7094 73.9106 29.9594 72.3906 31.1994 70.8706C32.3894 69.4206 33.6195 67.9605 34.5595 66.3305C35.3295 65.0105 36.1094 63.3606 35.8494 61.7906C35.5994 60.3506 34.3794 59.4105 32.9694 59.2305C31.4694 59.0405 30.0395 59.7406 28.8895 60.6406C26.4695 62.5306 24.6494 65.1406 23.5794 68.0006C22.6494 70.4806 22.2895 73.1205 22.5195 75.7305C21.7895 73.8005 21.1595 71.8305 20.6595 69.8305C20.3595 68.6305 20.1195 67.4305 19.9095 66.2205C21.2295 65.6605 22.4794 64.7905 23.6194 63.9705C24.9894 62.9805 26.2795 61.8905 27.4995 60.7305C28.7595 59.5305 29.9395 58.2506 31.0295 56.8906C32.0695 55.5906 33.1495 54.2005 33.9095 52.7105C34.6295 51.3205 34.6594 49.7506 33.4694 48.6106C32.3594 47.5606 30.7794 47.3306 29.3394 47.6306C27.6994 47.9806 26.3194 49.0006 25.1194 50.1206C23.7794 51.3706 22.5195 52.7405 21.4295 54.2205C20.4895 55.5005 19.6894 56.8805 19.1094 58.3505C19.0294 55.1205 19.2295 51.8905 19.7595 48.6905C23.0995 48.6005 26.4095 47.5506 29.5195 46.3906C32.5595 45.2506 35.9195 43.9506 37.9195 41.2506C38.6795 40.2106 39.3095 38.8306 38.8995 37.5306C38.4095 35.9406 36.6694 35.6406 35.2094 35.6606C31.9994 35.7206 28.8195 36.8106 26.1795 38.6206C23.9695 40.1306 22.0695 42.1206 20.6495 44.4106C21.8495 39.5606 23.7095 34.8806 26.1395 30.5106C26.8295 31.4706 27.8894 32.0706 28.9894 32.4906C30.4794 33.0506 32.0594 33.4006 33.6194 33.6606C35.2994 33.9406 36.9994 34.0906 38.6994 34.1306C40.2494 34.1606 41.8394 34.1406 43.3494 33.7906C44.6594 33.4806 46.0494 32.7806 46.7094 31.5406C47.3494 30.3106 46.8795 29.0406 45.7995 28.2706C44.6795 27.4706 43.2095 27.1405 41.8795 26.8505C40.3995 26.5405 38.8895 26.3805 37.3795 26.3505C34.1095 26.2805 30.5894 26.7805 27.5694 28.1005C27.6294 27.9905 27.6895 27.8906 27.7495 27.7806C28.9195 25.9306 30.2094 24.1505 31.5894 22.4505C31.5994 22.4405 31.6195 22.4406 31.6395 22.4206C31.6995 22.3506 31.7495 22.2606 31.8095 22.1806C32.1495 21.7706 32.4894 21.3505 32.8494 20.9505C37.0294 23.7905 43.1594 24.0205 47.5894 21.5805C48.7094 20.9605 49.8294 19.9106 49.7194 18.5206C49.6294 17.4006 48.7794 16.5606 47.8694 16.0206C45.5194 14.6506 42.3795 14.4705 39.7895 15.0805C39.2295 15.2205 38.6895 15.4006 38.1595 15.6106C39.7395 14.2306 41.3794 12.9205 43.1094 11.7305C43.8594 11.2105 44.6194 10.7006 45.3594 10.1706C45.6694 9.95061 45.3895 9.51062 45.0595 9.68062C43.7895 10.3306 42.5494 11.0906 41.3594 11.9206C42.0494 10.9806 42.6495 9.97055 43.1595 8.98055C44.2395 6.84055 45.5595 3.86058 44.3895 1.51058C43.8995 0.520577 42.9195 -0.179393 41.7795 0.0406067C40.6295 0.250607 39.7194 1.1806 38.9794 2.0306C37.4194 3.8006 36.3395 5.97059 35.8095 8.27059C35.1995 10.8806 35.2995 13.6406 36.1695 16.1806C36.0795 16.2706 35.9895 16.3506 35.8995 16.4306C35.0295 17.2406 34.1995 18.0905 33.3895 18.9505C33.7395 17.7805 33.9395 16.5506 34.0095 15.3906C34.1595 12.9306 33.7594 10.0506 32.4494 7.9106C31.8394 6.8906 30.7595 6.03054 29.5095 6.10054C28.4195 6.16054 27.6094 6.9506 27.1894 7.9106C26.2894 9.9706 26.5594 12.5906 27.2394 14.6706C28.0394 17.1406 29.6194 19.3006 31.7294 20.8006C30.5794 22.1406 29.4894 23.5405 28.4594 24.9805C26.7594 27.3805 25.2395 29.9206 23.9195 32.5606C24.0095 31.4506 23.9994 30.3305 23.8394 29.2305C23.4394 26.2905 22.1494 23.2906 20.0794 21.1306C19.0594 20.0606 17.6494 19.8206 16.4694 20.7906C15.3194 21.7306 14.9295 23.4006 14.6595 24.8006C14.1295 27.5406 14.3094 30.4406 15.0994 33.1206C16.0094 36.1506 17.7194 38.9306 20.1094 41.0106C20.2294 41.1206 20.3494 41.1506 20.4794 41.1506C20.1494 42.1906 19.8594 43.2506 19.5994 44.3106C19.3394 43.0806 18.7795 42.0005 18.0095 40.9405C16.9795 39.5305 15.7894 38.2305 14.5894 36.9705C13.2894 35.6005 11.8894 34.3106 10.3394 33.2406C8.98942 32.3006 7.42949 31.3905 5.78949 31.0705C4.44949 30.8105 2.94941 31.0605 2.20941 32.3405C1.31941 33.8705 2.00949 35.6906 2.65949 37.1706C4.00949 40.2006 6.02946 42.9406 8.75946 44.8606C11.7095 46.9306 15.4394 47.8306 18.9894 47.1106C18.4594 49.8606 18.1694 52.6306 18.0794 55.4106C17.2894 54.0406 16.1995 52.8006 15.0095 51.7606C12.4595 49.5506 9.20943 48.0306 5.84943 47.6706C4.43943 47.5206 2.8695 47.5806 1.6695 48.4206C1.0795 48.8406 0.649448 49.4106 0.369448 50.0406C0.369448 50.0506 0.359438 50.0605 0.359438 50.0705C0.0694379 50.7505 -0.0505279 51.5206 0.0194721 52.2806C0.309472 55.7306 3.77942 58.0506 6.46942 59.6806C9.92942 61.7906 13.9795 63.0206 18.0295 62.2406C18.1095 62.2206 18.1694 62.2006 18.2194 62.1606C18.1594 63.1306 18.3194 64.0105 18.5794 64.9405C18.5894 64.9705 18.5994 65.0006 18.6194 65.0206C18.7494 65.8706 18.8895 66.7106 19.0595 67.5606C19.1995 68.2506 19.3595 68.9506 19.5295 69.6406C18.2695 68.1406 16.3094 67.3106 14.4694 66.7406C12.1194 66.0006 9.29944 65.2806 6.98944 66.5006C4.87944 67.6306 3.93944 70.1405 5.35944 72.2005C6.11944 73.2905 7.2694 73.9906 8.4494 74.5606C9.6694 75.1406 10.9394 75.6105 12.2394 75.9805C15.2894 76.8205 18.4594 77.0005 21.5894 76.6005C21.6094 76.6005 21.6295 76.5905 21.6595 76.5805C22.4795 78.7705 23.4495 80.9005 24.5195 82.9705C23.6095 82.5205 22.6394 82.1505 21.6894 81.8405C20.0794 81.3205 18.4295 80.9506 16.7495 80.7406C15.0595 80.5306 13.3595 80.4705 11.6595 80.5905C10.0995 80.6905 8.41939 80.8606 6.93939 81.4106C5.65939 81.8906 4.43947 82.8206 4.26947 84.2706C4.11947 85.6206 4.84949 86.9606 5.90949 87.7506C7.30949 88.8006 9.1294 88.9706 10.8194 88.9906C12.4694 89.0206 14.1195 88.9205 15.7495 88.6905C19.2695 88.1905 22.7194 87.1005 25.8294 85.3605C26.1994 86.0105 26.5794 86.6606 26.9794 87.3006C30.8194 93.3506 35.7795 98.7506 41.6795 102.831C42.4095 103.331 43.1695 103.781 43.9295 104.231C44.6295 104.641 45.1695 103.561 44.5195 103.121ZM48.6094 18.0705C48.6894 18.2405 48.7294 18.4005 48.7394 18.5705C48.3494 18.6005 47.9594 18.7505 47.5794 18.8405C46.9394 19.0005 46.2995 19.1506 45.6495 19.2706C44.3595 19.5306 43.0494 19.7006 41.7294 19.8006C40.4794 19.8906 39.2294 19.9106 37.9794 19.8806C37.2094 19.8606 36.4494 19.8006 35.6894 19.7406C36.0594 19.6406 36.4394 19.5306 36.8194 19.4306C38.1494 19.1006 39.4994 18.8306 40.8494 18.6206C42.1394 18.4206 43.4294 18.2606 44.7294 18.1706C45.3894 18.1206 46.0594 18.0905 46.7194 18.0705C47.3394 18.0505 47.9794 18.0906 48.5994 18.0506C48.5994 18.0506 48.6094 18.0605 48.6094 18.0705ZM38.8795 16.4206C40.7095 15.7306 42.7195 15.5806 44.6395 15.9306C44.3595 15.9506 44.0695 15.9505 43.7895 15.9705C42.6295 16.0705 41.4794 16.2606 40.3494 16.5606C39.1794 16.8706 38.0694 17.2806 36.9594 17.7506C36.5894 17.9106 36.1695 18.0806 35.7495 18.2806C35.7895 18.2506 35.8194 18.2205 35.8494 18.1905C36.7494 17.4405 37.7895 16.8306 38.8795 16.4206ZM43.5095 1.45052C44.9695 3.42052 43.5895 6.48057 42.6595 8.38057C42.0295 9.67057 41.2695 10.8806 40.3995 12.0106C39.8495 12.7306 39.2495 13.3806 38.6295 14.0206C38.4995 14.1306 38.3694 14.2405 38.2394 14.3505C40.7194 10.3605 42.3795 5.93053 43.4195 1.34053C43.4495 1.38053 43.4795 1.40052 43.5095 1.45052ZM41.2294 4.07051C41.7294 2.99051 42.3395 1.93051 42.7495 0.820514C42.7895 0.830514 42.8294 0.840553 42.8694 0.860553C41.9994 5.88055 40.0294 10.6205 37.4394 14.9805C37.7594 13.8805 37.9994 12.7506 38.3194 11.6606C38.7194 10.3206 39.1795 8.99051 39.6795 7.69051C40.1495 6.46051 40.6694 5.26051 41.2294 4.07051ZM38.4794 3.87056C39.1094 2.92056 40.6095 0.930548 42.0095 0.730548C41.1195 1.48055 40.3794 2.4806 39.7394 3.4106C38.8594 4.6806 38.1394 6.07059 37.5994 7.52059C37.0794 8.91059 36.7095 10.3505 36.5095 11.8305C36.4295 12.4105 36.3894 12.9905 36.3694 13.5705C35.8594 10.2205 36.5894 6.72056 38.4794 3.87056ZM37.8694 11.3405C37.6094 12.1305 37.3194 12.9406 37.0794 13.7506C37.0894 13.1606 37.1294 12.5705 37.1994 11.9805C37.3794 10.5705 37.7194 9.17052 38.1994 7.83052C38.6894 6.50052 39.3294 5.21058 40.0994 4.01058C40.5094 3.37058 40.9594 2.76061 41.4394 2.17061C41.5294 2.07061 41.6194 1.97056 41.6994 1.87056C41.3694 2.52056 41.0795 3.19052 40.7895 3.83052C40.2195 5.09052 39.6894 6.38061 39.1894 7.67061C38.7194 8.88061 38.2894 10.1105 37.8694 11.3405ZM34.6194 19.3906C34.6394 19.3606 34.6694 19.3406 34.6894 19.3106C34.9894 19.1806 35.2695 19.0306 35.5495 18.8906C36.0895 18.6406 36.6294 18.4006 37.1894 18.1806C38.2394 17.7606 39.3494 17.4405 40.4494 17.1905C41.5594 16.9505 42.6894 16.7606 43.8194 16.6606C44.3994 16.6106 44.9794 16.5805 45.5694 16.5805C45.9794 16.5705 46.4494 16.6405 46.8694 16.6005C47.3494 16.8105 47.8195 17.0805 48.1695 17.4405C47.0595 17.3805 45.8895 17.5005 44.7995 17.5805C43.4095 17.6805 42.0195 17.8405 40.6395 18.0705C39.2995 18.3005 37.9795 18.5905 36.6695 18.9405C36.0195 19.1105 35.3795 19.2906 34.7495 19.4906C34.6595 19.5206 34.5594 19.5505 34.4694 19.5705C34.5194 19.5105 34.5694 19.4506 34.6194 19.3906ZM34.5495 20.0805C35.6095 20.3305 36.7195 20.4105 37.8095 20.4705C39.1595 20.5405 40.5094 20.5206 41.8494 20.4206C43.1294 20.3306 44.3995 20.1606 45.6595 19.9306C46.2995 19.8106 46.9494 19.6706 47.5894 19.5206C47.9294 19.4306 48.2995 19.3605 48.6395 19.2305C48.5095 19.5605 48.2694 19.8505 47.9894 20.1005C47.5094 20.1505 47.0095 20.3706 46.5595 20.4906C45.9395 20.6506 45.3294 20.8106 44.6994 20.9306C43.4194 21.1806 42.1095 21.3006 40.8095 21.3006C39.5295 21.3106 38.2494 21.2005 36.9894 20.9705C36.3694 20.8605 35.7395 20.7206 35.1295 20.5606C34.7695 20.4606 34.3995 20.3306 34.0295 20.2406C34.1995 20.1906 34.3795 20.1305 34.5495 20.0805ZM33.6194 20.5606C34.0194 20.7906 34.4895 20.9206 34.9295 21.0506C35.5695 21.2406 36.2194 21.4006 36.8694 21.5206C38.1794 21.7706 39.4994 21.9006 40.8294 21.9006C42.1294 21.9106 43.4294 21.8005 44.7094 21.5705C45.0294 21.5105 45.3595 21.4506 45.6795 21.3806C43.9995 22.0106 42.1395 22.2706 40.3795 22.2506C38.0195 22.2306 35.6695 21.6306 33.5095 20.6806C33.5495 20.6406 33.5794 20.6006 33.6194 20.5606ZM27.6495 9.52059C27.7695 8.74059 28.0494 7.80062 28.7194 7.30062C28.6494 9.54062 28.9594 11.8105 29.4894 13.9705C29.7794 15.1305 30.1394 16.2806 30.5794 17.3906C30.7994 17.9506 31.0395 18.4906 31.2895 19.0306C31.3495 19.1606 31.3994 19.3006 31.4594 19.4306C28.6494 17.0606 27.0595 13.1806 27.6495 9.52059ZM31.8895 18.7706C31.6295 18.2306 31.3795 17.6806 31.1495 17.1206C30.7095 16.0406 30.3295 14.9306 30.0195 13.8106C29.4095 11.6206 29.1394 9.40058 28.9894 7.14058C28.9894 7.14058 28.9995 7.14057 28.9995 7.13057C29.1595 7.52057 29.4094 7.89058 29.5894 8.26058C29.8694 8.83058 30.1294 9.41057 30.3694 10.0006C30.8094 11.0806 31.1694 12.1805 31.4494 13.3205C31.7494 14.4805 31.9594 15.6605 32.0794 16.8505C32.1494 17.4505 32.1894 18.0406 32.2194 18.6406C32.2194 18.8806 32.2194 19.1206 32.2294 19.3606C32.1194 19.1506 31.9795 18.9506 31.8895 18.7706ZM32.7394 16.6506C32.5694 15.4706 32.3295 14.3006 31.9995 13.1506C31.6695 11.9706 31.2695 10.8106 30.7895 9.68062C30.5695 9.17062 30.3394 8.6606 30.0794 8.1606C29.8994 7.8006 29.7194 7.36057 29.4694 7.00057C30.4094 6.89057 31.2895 7.67051 31.7495 8.44051C32.8695 10.3105 33.2294 12.7606 33.2094 14.9006C33.1994 15.9006 33.0794 16.9006 32.8694 17.8806C32.8294 17.4706 32.7994 17.0506 32.7394 16.6506ZM43.2895 32.7606C41.9995 33.1106 40.5995 33.1306 39.2695 33.1206C37.7895 33.1206 36.3194 33.0006 34.8494 32.7806C33.2394 32.5406 31.6394 32.1706 30.0894 31.6706C29.0094 31.3206 27.9294 30.8106 27.2394 29.9106C27.6794 30.2206 28.1994 30.4606 28.6194 30.6706C29.3794 31.0406 30.1494 31.3506 30.9394 31.6206C32.6094 32.2006 34.3494 32.5906 36.0994 32.7706C37.8194 32.9406 39.5695 32.9406 41.2995 32.7606C42.1295 32.6606 42.9695 32.5406 43.7895 32.3706C44.0795 32.3206 44.3695 32.2605 44.6595 32.1905C44.1995 32.4505 43.6995 32.6506 43.2895 32.7606ZM35.4794 27.3405C38.1994 27.2105 40.9295 27.5005 43.5295 28.3305C43.9595 28.4605 44.5094 28.6506 44.9794 28.9306C44.5194 28.8206 43.9994 28.7905 43.6194 28.7205C42.8394 28.5905 42.0595 28.4706 41.2795 28.3606C39.6995 28.1506 38.0995 28.0105 36.4995 27.9505C34.0995 27.8605 31.7194 27.9405 29.3494 28.2005C31.3794 27.8005 33.3894 27.4305 35.4794 27.3405ZM36.3294 28.5606C37.9294 28.6506 39.5395 28.8106 41.1295 29.0406C41.9095 29.1506 42.6894 29.2806 43.4594 29.4306C43.8794 29.5206 44.2894 29.6005 44.7094 29.7005C45.0694 29.7705 45.3694 29.8806 45.7294 29.7606C45.7594 29.7506 45.7795 29.7305 45.7995 29.7105C45.8495 29.8105 45.8995 29.9006 45.9295 30.0106C45.8795 30.0006 45.8395 29.9906 45.7795 30.0006C42.5995 30.5606 39.3394 30.7005 36.1194 30.4405C34.4994 30.3205 32.8994 30.0706 31.3194 29.7506C29.9294 29.4706 28.5694 29.0906 27.1894 28.7806C30.2194 28.4806 33.2894 28.3906 36.3294 28.5606ZM26.9394 29.1406C29.7394 30.4506 32.9995 30.9505 36.0495 31.2105C39.3595 31.4905 42.6794 31.3306 45.9494 30.7606C45.9294 30.8206 45.8995 30.8706 45.8795 30.9306C45.1495 31.0406 44.4294 31.3306 43.7194 31.5306C42.9094 31.7606 42.0995 31.9406 41.2695 32.0506C39.5395 32.2906 37.7994 32.3106 36.0694 32.1206C34.3994 31.9406 32.7495 31.5806 31.1695 31.0306C30.3395 30.7506 29.5395 30.4206 28.7495 30.0506C28.1695 29.7806 27.5395 29.3605 26.8795 29.2305C26.8995 29.2005 26.9194 29.1706 26.9394 29.1406ZM17.1295 21.4405C17.6095 24.4805 18.3995 27.5006 18.9995 30.5206C19.3195 32.1506 19.6094 33.7806 19.8594 35.4206C19.9894 36.2506 20.1195 37.0706 20.2495 37.9006C20.0795 37.6006 19.8995 37.3106 19.7695 37.0406C19.4095 36.3106 19.0895 35.5606 18.8095 34.8006C18.2695 33.3806 17.8495 31.9206 17.5495 30.4306C17.2495 28.9106 17.0595 27.3705 16.9995 25.8205C16.9795 25.0605 16.9795 24.3006 17.0095 23.5506C17.0195 23.1406 17.0494 22.7305 17.0794 22.3305C17.0994 22.0405 17.1594 21.7305 17.1194 21.4505C17.1194 21.4405 17.1295 21.4405 17.1295 21.4405ZM15.2895 26.8305C15.3695 25.5905 15.5995 24.3406 15.9995 23.1606C16.1395 22.7606 16.3595 22.3405 16.6295 21.9805C16.5695 22.4005 16.5795 22.8705 16.5495 23.2205C16.4895 24.0305 16.4594 24.8506 16.4694 25.6706C16.4894 27.2706 16.6395 28.8705 16.9195 30.4505C17.1995 32.0605 17.6095 33.6505 18.1395 35.1905C18.3995 35.9705 18.6995 36.7305 19.0295 37.4705C19.2795 38.0605 19.5495 38.8505 19.9995 39.3405C16.7595 36.0705 14.9895 31.4405 15.2895 26.8305ZM21.2194 38.9206C21.1494 38.5406 21.0895 38.1606 21.0195 37.7806C20.8595 36.9906 20.6995 36.2006 20.5395 35.4106C20.1995 33.8006 19.8595 32.1905 19.5295 30.5805C18.9195 27.5805 18.3694 24.5105 17.4594 21.5805C19.0194 23.9305 20.2595 26.4006 20.9195 29.1706C21.2695 30.6306 21.4695 32.1206 21.4995 33.6206C21.5195 34.3406 21.4894 35.0606 21.4494 35.7806C21.3994 36.5306 21.1494 37.3405 21.2394 38.0905C21.2494 38.2105 21.3394 38.3005 21.4394 38.3405C21.3694 38.5405 21.2894 38.7306 21.2194 38.9206ZM22.1695 36.4306C22.1795 36.2806 22.1894 36.1406 22.1994 36.0006C22.2594 35.1906 22.2694 34.3905 22.2394 33.5905C22.1694 32.0605 21.9395 30.5406 21.5595 29.0606C20.8395 26.2206 19.5595 23.3806 17.6595 21.1406C18.1295 20.9606 18.6494 21.0306 19.1994 21.5106C20.2194 22.3906 20.9894 23.7006 21.5994 24.8906C22.1994 26.0906 22.6495 27.3706 22.9295 28.6806C23.2695 30.3106 23.3394 32.0006 23.1194 33.6506C23.0694 33.9906 22.9995 34.3106 22.9295 34.6306C22.6595 35.2206 22.4095 35.8306 22.1695 36.4306ZM3.67951 32.2105C3.68951 32.2105 3.69941 32.2105 3.70941 32.2005C5.16941 32.8305 6.62946 33.4506 8.00946 34.2506C9.54946 35.1506 10.9795 36.2106 12.2795 37.4306C13.5195 38.5906 14.6594 39.8705 15.7194 41.2005C16.2594 41.8805 16.7895 42.5706 17.3095 43.2706C17.3895 43.3806 17.4795 43.5106 17.5595 43.6206C17.0495 43.0906 16.5295 42.5606 15.9995 42.0406C14.6895 40.7506 13.3295 39.5106 11.9295 38.3106C10.5295 37.1106 9.07943 35.9606 7.59943 34.8706C6.87943 34.3306 6.14949 33.8106 5.40949 33.3006C5.01949 33.0406 4.63944 32.7706 4.23944 32.5206C4.03944 32.4006 3.84947 32.2506 3.63947 32.2406C3.64947 32.2306 3.65951 32.2205 3.67951 32.2105ZM3.38947 32.4306C3.43947 32.6906 3.67948 32.8306 3.89948 32.9906C4.24948 33.2406 4.60941 33.4805 4.95941 33.7305C5.69941 34.2505 6.42949 34.7905 7.15949 35.3305C8.63949 36.4405 10.0694 37.5906 11.4694 38.8006C12.8394 39.9806 14.1694 41.2105 15.4494 42.4805C16.0894 43.1205 16.7294 43.7706 17.3494 44.4306C17.6294 44.7306 17.9094 45.0405 18.1894 45.3405C17.7494 45.2205 17.2995 45.1105 16.8895 44.9605C16.0095 44.6405 15.1594 44.2706 14.3294 43.8606C12.6594 43.0306 11.0895 42.0305 9.63947 40.8505C8.18947 39.6805 6.8594 38.3506 5.6994 36.9006C5.1394 36.2006 4.60946 35.4605 4.12946 34.7005C3.85946 34.2805 3.58948 33.8506 3.39948 33.3806C3.30948 33.1406 3.2494 32.9006 3.1994 32.6606C3.2594 32.5806 3.31947 32.4906 3.38947 32.4306ZM10.5095 44.7506C7.88946 43.3106 5.82946 41.0106 4.37946 38.4206C3.67946 37.1606 2.80947 35.6106 2.76947 34.1406C2.75947 33.9406 2.7794 33.7506 2.8194 33.5606C3.1194 34.3906 3.74943 35.2406 4.09943 35.7806C4.93943 37.0606 5.89942 38.2606 6.96942 39.3606C9.13942 41.5906 11.7295 43.4506 14.5595 44.7706C15.3195 45.1206 16.0995 45.4405 16.8995 45.7205C17.3595 45.8805 17.8494 46.0705 18.3494 46.2005C15.6694 46.6305 12.8895 46.0606 10.5095 44.7506ZM17.6595 42.7005C17.1195 41.9805 16.5594 41.2605 15.9894 40.5705C14.9294 39.2605 13.7895 37.9906 12.5395 36.8606C10.1895 34.7406 7.27951 32.8706 4.17951 32.0306C4.60951 31.9306 5.06945 31.9506 5.49945 32.0306C6.94945 32.3006 8.31948 33.1106 9.52948 33.9206C10.9195 34.8406 12.1794 35.9305 13.3594 37.1005C14.6194 38.3405 15.8194 39.6606 16.9394 41.0206C17.8294 42.1006 18.6695 43.3705 19.1295 44.7205C18.6995 44.0205 18.1495 43.3605 17.6595 42.7005ZM25.3294 40.2906C27.5994 38.3906 30.4294 37.0906 33.3494 36.6706C34.2094 36.5506 35.4995 36.3505 36.5295 36.6005C33.5595 37.4105 30.6895 38.5306 27.9995 40.0206C25.6095 41.3406 23.4595 42.9705 21.5095 44.8405C22.5395 43.1505 23.7794 41.5906 25.3294 40.2906ZM21.0694 45.6005C25.7294 41.7105 31.2695 38.6705 37.1795 37.2205C36.5695 37.4505 35.9595 37.7105 35.3795 37.9605C34.5695 38.3005 33.7794 38.6506 32.9894 39.0206C31.3194 39.8106 29.6794 40.6706 28.0994 41.6206C26.5194 42.5606 24.9594 43.5606 23.4394 44.6106C22.4594 45.3006 21.4194 45.9806 20.4694 46.7506C20.6594 46.3606 20.8594 45.9805 21.0694 45.6005ZM37.2995 38.2906C37.2295 38.3606 37.1594 38.4206 37.0894 38.4906C36.7794 38.7606 36.4595 39.0306 36.1395 39.3006C35.4395 39.8806 34.7194 40.4506 33.9694 40.9906C32.5394 42.0306 31.0494 43.0306 29.4794 43.8706C27.8794 44.7306 26.2195 45.4806 24.5195 46.1106C23.6795 46.4206 22.8394 46.7005 21.9894 46.9705C21.5494 47.1005 21.0995 47.2105 20.6595 47.3305C20.9895 47.0905 21.3195 46.8506 21.6495 46.6106C22.3995 46.0706 23.1694 45.5606 23.9394 45.0606C25.4394 44.0906 26.9695 43.1805 28.5495 42.3405C30.1295 41.5005 31.7194 40.7105 33.3494 39.9705C34.1794 39.5905 35.0094 39.2206 35.8494 38.8706C36.3294 38.6706 36.8195 38.4806 37.2995 38.2906ZM19.8795 48.0206C20.6395 47.9006 21.4095 47.6505 22.1395 47.4405C22.9895 47.1905 23.8295 46.9005 24.6695 46.5905C26.3595 45.9705 27.9994 45.2306 29.5994 44.3906C31.2294 43.5306 32.8194 42.6305 34.3394 41.5805C35.0694 41.0705 35.7794 40.5405 36.4794 39.9805C36.8294 39.7005 37.1695 39.4206 37.5095 39.1306C37.6895 38.9806 37.8795 38.8306 38.0495 38.6706C37.9395 39.4206 37.5094 40.1905 37.0994 40.7105C35.2394 43.1205 32.2695 44.3306 29.5195 45.4106C26.3895 46.6406 23.1994 47.5406 19.8694 48.0406C19.8694 48.0306 19.8695 48.0306 19.8795 48.0206ZM5.27948 48.6206C8.19948 48.8006 11.1394 50.0306 13.4694 51.7806C14.7894 52.7606 15.9994 53.9606 16.9594 55.3106C17.4294 55.9806 17.7895 56.6706 18.0495 57.3906C18.0595 57.7406 18.0694 58.0906 18.0794 58.4306C17.8394 57.9506 17.4894 57.4705 17.2294 57.0705C16.7494 56.3605 16.2195 55.6806 15.6495 55.0406C14.4595 53.7106 13.0595 52.5606 11.5295 51.6606C8.74948 50.0106 5.38947 49.1005 2.13947 49.3305C3.00947 48.6705 4.20948 48.5606 5.27948 48.6206ZM1.22943 50.5506C7.10943 52.6206 12.4994 55.7806 16.8294 60.2706C15.4794 60.0606 14.1594 59.8006 12.8494 59.3606C11.2494 58.8106 9.70946 58.0905 8.25946 57.2005C5.45946 55.5005 3.13943 53.2106 1.22943 50.5606V50.5506ZM8.40949 59.6005C6.91949 58.8405 5.5094 57.9106 4.1994 56.8806C3.0594 55.9806 1.90942 54.9306 1.33942 53.5506C1.03942 52.8206 0.929409 51.9606 1.07941 51.1606C2.71941 53.8906 5.1195 56.1806 7.7995 57.8906C10.6395 59.7106 14.0794 61.0606 17.4794 61.2806C14.3694 61.8106 11.1895 61.0305 8.40949 59.6005ZM1.4195 50.1406C1.4995 50.0006 1.59941 49.8605 1.70941 49.7205H1.71942C5.06942 49.7505 8.32946 50.4106 11.2595 52.1506C12.6995 53.0006 14.0095 54.0806 15.1395 55.3106C15.7295 55.9606 16.2695 56.6406 16.7495 57.3706C16.9795 57.7206 17.1995 58.0705 17.3995 58.4405C17.5895 58.7605 17.7194 59.1306 17.9894 59.3906C18.0294 59.4206 18.0694 59.4405 18.1094 59.4405C18.1294 59.7705 18.1395 60.1006 18.1595 60.4306C13.5895 55.7006 7.7995 51.8906 1.4195 50.1406ZM32.7194 50.8606C32.8894 50.5606 33.1094 50.2705 33.2094 49.9405C33.2794 50.0805 33.3495 50.2306 33.3795 50.3906C33.5695 51.2206 33.1494 52.0405 32.7294 52.7305C31.1694 55.3405 29.1594 57.7406 26.9894 59.8606C25.7694 61.0406 24.4794 62.1406 23.1194 63.1606C23.0994 63.1706 23.0894 63.1805 23.0694 63.2005C23.2994 62.9705 23.5295 62.7506 23.7495 62.5206C25.0095 61.2506 26.2394 59.9605 27.3694 58.5705C28.4794 57.2305 29.5195 55.8206 30.4995 54.3806C31.0195 53.6106 31.5195 52.8306 31.9995 52.0506C32.2395 51.6506 32.4794 51.2606 32.7194 50.8606ZM19.2795 61.5406C19.6095 59.5606 20.3694 57.6505 21.4594 55.9505C22.3394 54.5605 23.4095 53.3106 24.5495 52.1206C25.6495 50.9706 26.8195 49.7805 28.2695 49.0705C28.9595 48.7405 29.7395 48.5306 30.5195 48.5306C29.3095 48.9606 28.1395 49.6405 27.1295 50.3305C25.6195 51.3605 24.2695 52.6305 23.1495 54.0705C21.0595 56.7805 19.6995 60.2505 19.5295 63.7105C19.4395 62.9905 19.3495 62.2706 19.2795 61.5406ZM21.1495 61.4505C20.8295 62.0605 20.5194 62.6806 20.2294 63.3006C20.5394 60.0506 21.6095 56.9505 23.6595 54.3205C24.7295 52.9605 25.9895 51.7706 27.4095 50.7906C28.1295 50.3006 28.8795 49.8505 29.6595 49.4605C30.2595 49.1705 30.8895 48.9206 31.4995 48.6606C31.6395 48.7006 31.7895 48.7506 31.9195 48.8106C31.2695 49.2706 30.6495 49.8205 30.0395 50.3405C29.3195 50.9705 28.6095 51.6206 27.9295 52.3006C26.5695 53.6606 25.3095 55.1106 24.1695 56.6606C23.0495 58.1706 22.0395 59.7805 21.1495 61.4505ZM20.5395 64.3806C20.9295 63.5106 21.3595 62.6406 21.8095 61.8006C22.6995 60.1306 23.7094 58.5406 24.8194 57.0106C25.9094 55.5106 27.1095 54.0705 28.3895 52.7305C29.0495 52.0405 29.7394 51.3705 30.4494 50.7205C31.0794 50.1505 31.7595 49.6305 32.3895 49.0705C32.5795 49.1905 32.7495 49.3506 32.9095 49.5206C32.6195 49.7606 32.4795 50.0906 32.2995 50.4106C32.0695 50.8106 31.8394 51.2106 31.5994 51.6106C31.1594 52.3506 30.6894 53.0706 30.2194 53.7806C29.1994 55.3006 28.1094 56.7606 26.9594 58.1806C25.8394 59.5706 24.6794 60.9305 23.4394 62.2205C22.5794 63.1105 21.6795 63.9506 20.7695 64.7906C20.5895 64.9106 20.4094 65.0306 20.2294 65.1606C20.3294 64.8906 20.4295 64.6306 20.5395 64.3806ZM13.5195 67.4106C15.6795 68.0106 17.8194 68.8806 19.3394 70.5506C18.9394 70.2006 18.5294 69.8606 18.0994 69.5606C16.9094 68.7306 15.5994 68.0806 14.2194 67.6606C11.8894 66.9406 9.45946 66.9306 7.12946 67.5106C9.02946 66.2806 11.4795 66.8506 13.5195 67.4106ZM6.4195 68.1005C8.8795 67.5305 11.5494 67.6306 13.9594 68.4006C15.2394 68.8006 16.4595 69.4006 17.5595 70.1706C18.1495 70.5806 18.6994 71.0406 19.2194 71.5306C19.4894 71.7906 19.7395 72.1106 19.9995 72.4006C19.3895 71.9806 18.7494 71.5906 18.0894 71.2406C16.8094 70.5506 15.4694 69.9806 14.0894 69.5506C11.4694 68.7406 8.69943 68.3805 5.97943 68.6905C6.09943 68.4805 6.2495 68.2805 6.4195 68.1005ZM5.60944 69.6506C5.62944 69.4906 5.67943 69.3505 5.72943 69.2005C8.43943 69.1705 11.1494 69.4506 13.7394 70.2506C15.0794 70.6706 16.3895 71.2206 17.6395 71.8806C18.2495 72.2006 18.8395 72.5605 19.4195 72.9405C19.7295 73.1505 20.0394 73.3605 20.3394 73.5805C20.4794 73.6905 20.5994 73.7906 20.7294 73.8806C20.7994 74.0906 20.8595 74.2906 20.9295 74.5006C20.5495 74.4406 20.1695 74.4206 19.7895 74.3806C19.0495 74.2906 18.3094 74.1806 17.5794 74.0406C16.1494 73.7806 14.7394 73.4306 13.3594 73.0006C11.9394 72.5606 10.5494 72.0206 9.1994 71.4006C7.9894 70.8406 6.80944 70.2206 5.60944 69.6506ZM14.2194 75.4805C11.9294 75.0405 9.5195 74.2806 7.5495 73.0006C6.5895 72.3806 5.69941 71.4306 5.57941 70.2406V70.2305C7.77941 71.8205 10.4395 72.8705 12.9995 73.6905C14.4395 74.1505 15.9195 74.5306 17.4095 74.8106C18.1395 74.9406 18.8794 75.0606 19.6194 75.1506C20.1294 75.2106 20.6695 75.3006 21.1795 75.2706C21.2295 75.4006 21.2694 75.5406 21.3194 75.6806C18.9594 76.0006 16.5594 75.9205 14.2194 75.4805ZM34.9195 61.9505C35.1695 63.3605 34.3395 64.9105 33.6595 66.0805C32.7695 67.5805 31.6495 68.9206 30.5595 70.2706C29.3495 71.7806 28.1395 73.2806 26.9095 74.7606C26.2695 75.5306 25.6094 76.2806 24.9794 77.0606C24.9794 77.0606 24.9794 77.0605 24.9794 77.0705C25.5094 76.1305 26.0095 75.1705 26.5495 74.2305C27.3695 72.8105 28.2094 71.4106 29.0994 70.0306C30.8894 67.2406 32.8295 64.5605 34.9095 61.9805C34.9095 61.9705 34.9195 61.9605 34.9195 61.9505ZM28.1495 62.5406C29.1395 61.5506 30.3294 60.5205 31.7394 60.2105C32.1194 60.1205 32.5394 60.1206 32.9394 60.1806C31.8994 60.4206 30.8995 61.2605 30.2495 61.9605C28.9495 63.3805 27.8294 65.0006 26.8694 66.6806C25.2294 69.5806 24.0495 72.8306 23.5095 76.1406C22.8995 71.2206 24.6295 66.0606 28.1495 62.5406ZM24.2094 76.9505C24.6194 73.7105 25.5294 70.5906 27.0694 67.6806C27.9194 66.0606 28.9194 64.5306 30.0794 63.1306C30.6194 62.4606 31.1995 61.7806 31.9195 61.3006C32.6495 60.8206 33.3395 60.7305 34.1795 60.7005C34.3895 60.8705 34.5594 61.0606 34.6994 61.3006C34.5694 61.2606 34.4294 61.2806 34.3194 61.4206C32.2494 64.0006 30.3095 66.7005 28.5095 69.4805C27.6095 70.8905 26.7295 72.3206 25.9095 73.7706C25.3195 74.8106 24.7194 75.8705 24.2094 76.9505ZM7.30951 82.3006C8.65951 81.8106 10.1694 81.6606 11.6094 81.5606C13.1194 81.4506 14.6495 81.4706 16.1695 81.6306C17.8495 81.8106 19.5095 82.1506 21.1295 82.6506C21.6795 82.8206 22.2195 83.0105 22.7595 83.2205C22.4995 83.2005 22.2495 83.1806 22.0095 83.1606C21.1995 83.0706 20.3795 83.0005 19.5595 82.9405C17.8595 82.8305 16.1594 82.8005 14.4494 82.8505C11.3994 82.9405 8.36947 83.2806 5.38947 83.8906C5.70947 83.1406 6.46951 82.6006 7.30951 82.3006ZM5.24945 84.4106C8.26945 83.9506 11.3295 83.6505 14.3895 83.6105C16.0295 83.5905 17.6695 83.6305 19.2995 83.7305C19.5095 83.7405 19.7195 83.7706 19.9195 83.7806C18.1795 83.7706 16.4394 83.8206 14.7194 83.8906C11.5394 84.0206 8.37943 84.3106 5.22943 84.7906C5.21943 84.6606 5.22945 84.5406 5.24945 84.4106ZM17.3494 87.4306C15.9294 87.7206 14.4795 87.9005 13.0295 87.9805C11.4995 88.0705 9.88947 88.1306 8.38947 87.8006C7.24947 87.5406 6.1394 86.9406 5.5694 85.9206C8.5994 86.8906 11.9695 87.1106 15.1295 87.0306C16.7595 87.0006 18.3895 86.8605 19.9995 86.6105C20.3395 86.5505 20.6695 86.4806 21.0095 86.4206C19.8195 86.8406 18.5994 87.1806 17.3494 87.4306ZM24.2495 85.0506C23.5695 85.1006 22.8594 85.3806 22.1994 85.5206C21.4294 85.6906 20.6595 85.8305 19.8795 85.9505C18.2995 86.1905 16.6994 86.3305 15.0994 86.3605C13.4994 86.4005 11.8895 86.3306 10.2995 86.1706C8.7095 86.0006 7.1295 85.6905 5.5495 85.4405C5.4795 85.4305 5.41946 85.4505 5.37946 85.4805C5.33946 85.3905 5.29948 85.3005 5.27948 85.1905C5.27948 85.1905 5.27948 85.1906 5.27948 85.1806C8.38948 84.8506 11.5195 84.6206 14.6395 84.5506C16.3295 84.5106 18.0194 84.5106 19.7094 84.5606C21.3794 84.6106 23.0494 84.7605 24.7294 84.8205C24.5694 84.9105 24.4095 84.9706 24.2495 85.0506ZM40.1994 70.5805C40.5994 71.6205 40.0595 72.8806 39.5495 73.7906C38.2095 76.1706 36.2695 78.2405 34.0595 79.8405C32.7895 80.7605 31.4094 81.5306 29.9594 82.1306C29.3194 82.3906 28.6494 82.6105 27.9894 82.8205C28.9894 82.2705 29.9494 81.6105 30.8494 80.9705C32.3294 79.9205 33.7195 78.7405 35.0295 77.4705C36.3695 76.1805 37.6094 74.8005 38.7294 73.3205C39.2194 72.6705 40.0494 71.5805 40.1994 70.5805ZM38.9995 69.4206C39.1195 69.4706 39.2394 69.5205 39.3494 69.5905C39.3594 69.9605 39.4695 70.3006 39.4095 70.6806C39.3495 71.0806 39.1694 71.4606 38.9794 71.8006C38.5794 72.4906 38.0594 73.1206 37.5694 73.7406C36.5294 75.0506 35.3995 76.2906 34.1795 77.4306C32.9395 78.5906 31.6094 79.6706 30.2094 80.6506C29.6794 81.0206 29.1294 81.3605 28.5794 81.6905C28.5994 81.6605 28.6195 81.6205 28.6395 81.5905C29.0495 80.9105 29.4795 80.2505 29.9195 79.6005C30.8095 78.3005 31.7695 77.0405 32.7795 75.8305C34.6995 73.5305 36.8195 71.4606 38.9995 69.4206ZM26.5195 82.9705C27.4595 77.5405 30.7195 72.2106 35.7895 69.7706C36.5995 69.3806 37.6794 69.1106 38.5994 69.3106C36.2394 71.0606 34.0894 73.1706 32.1894 75.4106C31.1894 76.5906 30.2494 77.8105 29.3594 79.0805C28.8994 79.7205 28.4695 80.3806 28.0395 81.0506C27.7495 81.5106 27.2794 82.0605 27.0694 82.6105C26.8894 82.7305 26.6995 82.8505 26.5195 82.9705Z" fill="#4D4C51"/>
</svg>
