<svg width="38" height="118" viewBox="0 0 38 118" fill="none" xmlns="http://www.w3.org/2000/svg">
<path d="M18.984 1.32298C18.044 3.50298 17.364 5.79304 17.004 8.14304C16.814 9.31304 16.6941 10.513 16.6441 11.733C16.1541 9.27301 15.534 6.84307 14.574 4.54307C14.234 3.71307 13.8241 2.91302 13.3841 2.12302C13.1441 1.69302 12.5141 1.92299 12.4241 2.33299C11.3641 7.39299 12.764 12.8431 16.234 16.6831C16.264 16.7231 16.304 16.743 16.344 16.773C16.504 17.773 16.6441 18.7831 16.7741 19.7931C16.4441 19.2431 16.0441 18.723 15.6341 18.233C14.9441 17.413 14.184 16.663 13.364 15.983C12.574 15.323 11.724 14.753 10.844 14.243C9.95401 13.743 8.964 13.193 7.954 13.023C7.014 12.863 6.07403 13.2131 5.73403 14.1631C5.39403 15.1131 5.80399 16.073 6.32399 16.873C7.43399 18.563 9.04402 19.923 10.854 20.823C12.764 21.773 14.9341 22.193 17.0641 22.013C17.1041 22.343 17.1341 22.673 17.1741 23.003C17.1641 23.383 17.164 23.763 17.194 24.143C17.204 24.293 17.264 24.393 17.354 24.473C17.364 24.583 17.3741 24.6831 17.3841 24.7931C17.4541 25.4131 17.5041 26.0431 17.5641 26.6731C16.2141 25.1831 14.3341 24.093 12.5241 23.363C10.2441 22.453 7.68403 21.9931 5.23403 22.2831C4.19403 22.4131 3.00399 22.803 2.57399 23.853C2.07399 25.043 2.7841 26.2931 3.5641 27.1831C5.2741 29.0931 7.524 30.5231 9.954 31.3131C12.404 32.1131 15.6341 32.603 17.9241 31.113C17.9341 31.163 17.9341 31.203 17.9341 31.253C17.9341 31.253 17.9341 31.263 17.9241 31.263C17.8141 31.473 17.864 31.6531 17.964 31.7931C18.084 33.5331 18.174 35.273 18.254 37.023C15.134 33.453 9.86403 31.523 5.23403 32.643C4.15403 32.903 3.01404 33.443 2.49404 34.483C1.89404 35.693 2.45405 37.013 3.26405 37.963C4.97405 39.973 7.53406 41.363 10.0141 42.143C12.6641 42.983 15.744 43.253 18.464 42.513C18.524 44.423 18.574 46.333 18.604 48.243C18.604 48.373 18.604 48.503 18.614 48.633C16.614 46.643 13.954 45.193 11.354 44.233C9.91402 43.693 8.42408 43.2931 6.91408 43.0431C5.51408 42.8131 3.95408 42.593 2.54408 42.833C1.22408 43.063 0.0840451 43.8731 0.00404506 45.3031C-0.0759549 46.8631 1.04409 48.063 2.17409 48.983C4.35409 50.753 7.054 51.853 9.834 52.203C12.854 52.583 15.9241 52.103 18.6441 50.753C18.6641 52.123 18.684 53.503 18.694 54.873C18.664 54.943 18.664 55.013 18.694 55.083C18.704 55.923 18.714 56.763 18.724 57.603C18.364 57.203 17.894 56.913 17.444 56.613C16.884 56.253 16.304 55.923 15.704 55.623C14.524 55.043 13.284 54.6031 12.004 54.3031C10.704 53.9931 9.37407 53.843 8.03407 53.833C6.84407 53.833 5.56399 53.903 4.44399 54.343C3.38399 54.763 2.53408 55.6331 2.41408 56.8031C2.29408 57.9731 2.80407 59.1531 3.53407 60.0431C5.10407 61.9631 7.58405 62.983 10.004 63.233C12.964 63.543 16.0441 62.813 18.7741 61.623C18.7941 63.373 18.824 65.113 18.854 66.863C16.424 66.073 13.764 65.9131 11.244 66.2931C9.87404 66.4931 8.52404 66.853 7.24404 67.383C6.03404 67.873 4.71406 68.4831 3.77406 69.4131C2.86406 70.3031 2.65407 71.603 3.15407 72.763C3.68407 74.003 4.79409 74.763 6.05409 75.123C8.52409 75.843 11.414 75.323 13.734 74.333C15.684 73.503 17.534 72.193 18.874 70.513C18.894 70.503 18.914 70.493 18.944 70.483C18.954 70.783 18.954 71.083 18.964 71.373C19.004 72.873 19.064 74.383 19.124 75.883C17.784 75.723 16.3641 75.903 15.0441 76.133C13.6841 76.383 12.3441 76.7631 11.0641 77.2831C9.7841 77.8031 8.55408 78.463 7.41408 79.243C6.29408 80.003 5.14399 80.8731 4.44399 82.0631C3.81399 83.1231 3.7741 84.463 4.6841 85.373C5.4741 86.163 6.67404 86.363 7.74404 86.363C10.164 86.343 12.6541 85.403 14.6841 84.113C16.5341 82.943 18.2041 81.293 19.2941 79.353C19.4541 82.003 19.6541 84.6531 19.9041 87.3031C17.2241 86.9831 14.494 87.303 11.954 88.223C10.674 88.693 9.4441 89.313 8.3141 90.073C7.1741 90.833 6.03399 91.7231 5.32399 92.9231C4.64399 94.0631 4.64405 95.483 5.51405 96.523C6.42405 97.633 7.81399 98.0131 9.19399 98.0331C11.714 98.0631 14.2541 97.1331 16.2941 95.6831C17.4041 94.9031 18.404 93.923 19.214 92.833C19.624 92.273 20.0141 91.6831 20.3041 91.0431H20.3141C20.4141 91.9131 20.5141 92.773 20.6341 93.643C21.6341 100.963 23.1541 108.273 25.6741 115.223C25.9841 116.083 26.3141 116.923 26.6841 117.763C26.7741 117.973 27.0841 117.853 27.0141 117.643C25.9041 114.063 24.7841 110.503 23.9241 106.853C23.0641 103.243 22.394 99.5831 21.864 95.9131C22.474 97.0331 23.254 98.083 24.094 98.993C24.894 99.853 25.774 100.613 26.754 101.263C27.824 101.963 29.0041 102.623 30.2941 102.823C31.4241 102.993 32.6541 102.763 33.5341 101.993C34.4541 101.193 34.734 99.9631 34.464 98.7931C34.174 97.5531 33.3341 96.563 32.4341 95.703C31.5141 94.833 30.5041 94.0731 29.4241 93.4131C26.9941 91.9131 24.214 90.993 21.364 90.753C21.314 90.743 21.264 90.753 21.214 90.763C20.954 88.423 20.744 86.073 20.574 83.723C21.254 84.853 22.1241 85.893 23.0441 86.763C24.8041 88.423 27.274 89.933 29.744 90.023C32.084 90.113 34.574 88.413 34.204 85.833C33.824 83.223 31.1241 81.633 28.9241 80.643C26.2741 79.453 23.1941 78.873 20.2941 79.223C20.1941 77.313 20.1141 75.403 20.0541 73.493C20.0541 73.443 20.0541 73.393 20.0441 73.353C20.7341 74.413 21.7041 75.3331 22.6541 76.0531C23.5641 76.7431 24.5441 77.353 25.5441 77.893C26.6141 78.463 27.774 78.9331 29.004 78.9131C30.054 78.9031 31.1241 78.513 31.8041 77.693C32.4641 76.893 32.6841 75.7931 32.5341 74.7931C32.1741 72.4731 30.104 71.013 28.114 70.113C25.574 68.963 22.744 68.533 19.984 68.823C19.984 68.813 19.994 68.8031 20.004 68.7931C20.074 68.6531 20.0141 68.5231 19.9241 68.4331C19.8941 66.7731 19.864 65.123 19.854 63.463C20.894 65.103 22.4441 66.3931 24.1841 67.2831C26.2241 68.3231 28.794 68.8831 31.074 68.4131C32.124 68.2031 33.194 67.753 33.884 66.893C34.664 65.913 34.774 64.603 34.364 63.443C33.514 61.033 30.764 59.633 28.474 58.963C25.654 58.123 22.544 58.303 19.844 59.483C19.834 59.483 19.8241 59.493 19.8141 59.493C19.8141 58.313 19.8041 57.123 19.7941 55.943C20.8141 56.573 21.994 57.003 23.104 57.343C24.664 57.823 26.2841 58.0531 27.9141 58.0631C30.9041 58.0731 34.7541 57.393 36.5341 54.723C37.3541 53.503 37.684 51.9231 37.104 50.5431C36.574 49.3031 35.4741 48.443 34.2641 47.943C31.6441 46.853 28.5241 47.133 25.9241 48.113C23.5141 49.023 21.2941 50.643 19.7741 52.753C19.7741 51.953 19.7641 51.153 19.7641 50.353C19.7441 49.133 19.734 47.9031 19.714 46.6831C20.714 47.0931 21.944 47.183 22.974 47.223C24.274 47.283 25.584 47.163 26.854 46.883C29.334 46.333 31.9241 45.2031 33.6641 43.2931C34.4941 42.3731 35.1141 41.1931 35.0441 39.9131C34.9841 38.7231 34.2741 37.653 33.3141 36.983C30.9741 35.363 27.994 36.163 25.614 37.253C23.364 38.283 21.294 39.7231 19.594 41.5331C19.534 39.3231 19.454 37.1231 19.344 34.9131C20.624 35.4131 22.134 35.553 23.484 35.593C24.904 35.643 26.344 35.513 27.714 35.093C29.984 34.403 32.144 32.833 33.114 30.603C33.574 29.533 33.734 28.263 33.374 27.133C32.994 25.943 32.004 25.173 30.824 24.843C28.544 24.203 25.844 24.8331 23.754 25.8131C21.894 26.6831 20.254 27.973 19.004 29.593C18.934 28.683 18.8641 27.773 18.7841 26.873C18.7541 26.533 18.7141 26.203 18.6841 25.863C19.8441 26.003 21.0841 25.6931 22.1641 25.3031C23.3541 24.8731 24.4741 24.183 25.4241 23.343C27.3141 21.663 28.6341 19.303 28.9341 16.773C29.0941 15.523 28.934 14.1731 28.094 13.1831C27.274 12.2131 26.084 11.913 24.874 12.213C23.684 12.513 22.5741 13.243 21.6441 14.023C20.7441 14.773 19.9341 15.653 19.2841 16.623C18.7241 17.453 18.2641 18.3631 17.9141 19.3031C17.7741 18.3431 17.634 17.393 17.484 16.443C17.564 16.383 17.614 16.283 17.604 16.143C17.604 16.113 17.604 16.0731 17.594 16.0431C18.644 14.0831 19.434 11.963 20.104 9.87302C20.844 7.53303 21.374 5.14308 21.464 2.68308C21.494 1.92308 21.684 0.573025 20.844 0.123025C19.954 -0.346975 19.294 0.632976 18.984 1.32298ZM30.7741 101.903C29.6141 101.823 28.5241 101.253 27.5541 100.643C26.6641 100.083 25.834 99.4131 25.084 98.6731C24.274 97.8831 23.564 96.9931 22.964 96.0431C22.384 95.1331 21.944 94.1531 21.494 93.1831C21.504 93.1931 21.5241 93.213 21.5341 93.223C21.7741 93.463 22.014 93.7031 22.254 93.9331C22.704 94.3631 23.1641 94.793 23.6341 95.203C24.6041 96.063 25.6241 96.883 26.6741 97.643C27.7041 98.383 28.7341 99.1131 29.8041 99.7931C30.7241 100.373 31.6741 100.963 32.6641 101.433C32.1241 101.803 31.4241 101.953 30.7741 101.903ZM27.6341 93.5331C28.6241 94.0331 29.5541 94.6131 30.4341 95.2831C31.3041 95.9631 32.184 96.703 32.834 97.603C33.344 98.313 33.7241 99.253 33.5441 100.123C33.0141 99.103 32.014 98.2231 31.194 97.4331C30.274 96.5631 29.3041 95.763 28.2841 95.003C27.2941 94.263 26.2541 93.553 25.1741 92.943C24.6441 92.643 24.0941 92.363 23.5441 92.103C24.9541 92.413 26.3341 92.8831 27.6341 93.5331ZM21.444 91.763C21.434 91.863 21.4641 91.9831 21.5441 92.0631C21.7441 92.2631 22.0241 92.333 22.2841 92.443C22.5841 92.563 22.8841 92.6831 23.1741 92.8131C23.7241 93.0631 24.2541 93.323 24.7841 93.593C25.8941 94.163 26.964 94.763 27.984 95.473C28.964 96.153 29.8841 96.913 30.7641 97.713C31.2041 98.123 31.6241 98.533 32.0341 98.963C32.4841 99.433 32.8841 99.943 33.3941 100.333C33.4241 100.353 33.464 100.353 33.504 100.343C33.464 100.483 33.404 100.613 33.334 100.733C33.234 100.903 33.124 101.043 32.984 101.173C32.024 100.583 31.0141 100.053 30.0541 99.453C28.9541 98.753 27.874 98.013 26.854 97.193C25.874 96.413 24.9341 95.603 24.0141 94.753C23.5641 94.323 23.1141 93.893 22.6741 93.443C22.4341 93.203 22.204 92.963 21.974 92.713C21.764 92.493 21.6041 92.373 21.3841 92.233C21.3641 92.063 21.344 91.903 21.324 91.743C21.364 91.743 21.404 91.753 21.444 91.763ZM18.954 91.693C18.344 92.603 17.6041 93.433 16.7741 94.143C15.1141 95.563 13.104 96.593 10.944 96.963C9.69399 97.173 8.27403 97.2631 7.11403 96.6731C6.65403 96.4431 6.28408 96.103 6.04408 95.703C8.62408 95.623 11.254 94.793 13.604 93.763C15.924 92.743 18.0941 91.373 20.0241 89.723C19.6841 90.383 19.374 91.073 18.954 91.693ZM13.3841 93.1731C12.2241 93.7031 11.0241 94.143 9.80409 94.503C8.52409 94.873 7.21408 95.103 5.91408 95.373C5.90408 95.373 5.89404 95.393 5.87404 95.393C5.79404 95.183 5.74402 94.953 5.72402 94.723C6.92402 94.203 8.07405 93.5931 9.25405 93.0431C10.484 92.4731 11.734 91.9331 12.994 91.4231C14.254 90.9131 15.5241 90.433 16.8041 89.993C17.4341 89.773 18.074 89.563 18.704 89.363C18.974 89.283 19.304 89.213 19.624 89.123C17.754 90.763 15.6541 92.1431 13.3841 93.1731ZM19.854 88.203C19.724 88.233 19.604 88.273 19.464 88.323C19.124 88.433 18.784 88.5431 18.444 88.6531C17.814 88.8731 17.1841 89.0931 16.5541 89.3131C15.2541 89.7831 13.9641 90.293 12.6841 90.833C11.4041 91.373 10.1441 91.9431 8.89406 92.5431C7.82406 93.0631 6.75404 93.583 5.74404 94.203C5.77404 94.043 5.81405 93.893 5.88405 93.733C6.36405 92.543 7.48405 91.693 8.50405 90.983C9.52405 90.273 10.6241 89.683 11.7841 89.223C14.3441 88.213 17.124 87.853 19.854 88.203ZM30.1341 89.073C27.9241 89.173 25.6741 87.8131 24.0441 86.4331C23.1641 85.6931 22.374 84.8631 21.704 83.9331C21.344 83.4331 21.034 82.903 20.734 82.363C20.954 82.513 21.174 82.6431 21.374 82.7831C21.864 83.1231 22.364 83.443 22.854 83.763C23.894 84.443 24.9541 85.0831 26.0341 85.6731C27.1141 86.2731 28.224 86.833 29.354 87.353C30.214 87.753 31.1041 88.163 32.0141 88.473C31.4541 88.833 30.8041 89.043 30.1341 89.073ZM32.8041 87.763C32.7141 87.893 32.584 87.993 32.464 88.113C31.514 87.673 30.534 87.303 29.584 86.863C28.484 86.353 27.404 85.803 26.344 85.223C25.274 84.633 24.234 84.003 23.214 83.343C22.724 83.013 22.2441 82.673 21.7641 82.333C21.3341 82.023 20.8941 81.603 20.4141 81.353C20.4041 81.263 20.4041 81.173 20.3941 81.083C21.5141 81.473 22.634 81.793 23.734 82.223C24.884 82.683 26.024 83.183 27.124 83.743C28.234 84.293 29.314 84.9031 30.374 85.5531C30.934 85.8931 31.4941 86.263 32.0341 86.633C32.3641 86.863 32.6941 87.133 33.0441 87.353C32.9841 87.493 32.9041 87.633 32.8041 87.763ZM27.1441 80.973C28.2441 81.353 29.2941 81.843 30.2841 82.443C31.2541 83.033 32.254 83.753 32.824 84.763C32.834 84.773 32.834 84.7931 32.844 84.8031C32.754 84.7331 32.654 84.663 32.584 84.603C32.074 84.183 31.554 83.7931 31.004 83.4231C29.974 82.7131 28.884 82.0831 27.744 81.5431C26.804 81.0931 25.824 80.713 24.834 80.373C25.614 80.513 26.3841 80.703 27.1441 80.973ZM22.1541 80.253C22.7741 80.373 23.384 80.5131 23.994 80.6831C25.204 81.0231 26.3841 81.463 27.5241 82.013C28.6641 82.553 29.7641 83.183 30.8041 83.893C31.3041 84.243 31.7841 84.603 32.2641 84.973C32.5641 85.213 32.864 85.5531 33.204 85.7931C33.274 86.1531 33.274 86.523 33.204 86.873C32.914 86.633 32.5841 86.423 32.2941 86.213C31.7841 85.853 31.274 85.5131 30.754 85.1831C29.684 84.4831 28.574 83.843 27.444 83.263C26.314 82.683 25.164 82.1531 23.994 81.6831C22.814 81.2131 21.594 80.7231 20.354 80.4231C20.354 80.3431 20.344 80.2531 20.344 80.1631C20.714 80.1331 21.074 80.123 21.444 80.123C21.684 80.163 21.9141 80.203 22.1541 80.253ZM5.04408 82.743C5.56408 81.613 6.66407 80.803 7.65407 80.103C8.69407 79.383 9.794 78.763 10.954 78.263C12.224 77.713 13.5541 77.2931 14.9141 77.0331C15.3341 76.9531 15.7541 76.903 16.1741 76.863C15.8641 76.963 15.554 77.073 15.254 77.193C13.974 77.673 12.7141 78.2531 11.5141 78.9131C10.2841 79.5831 9.10404 80.353 7.99404 81.213C7.44404 81.633 6.91406 82.0831 6.39406 82.5531C5.88406 83.0231 5.33409 83.5031 4.92409 84.0531C4.80409 83.6631 4.82408 83.213 5.04408 82.743ZM15.194 82.6831C13.424 84.0131 11.3541 84.963 9.16408 85.333C8.17408 85.493 7.10405 85.593 6.13405 85.253C5.90405 85.173 5.70406 85.0531 5.52406 84.9131C5.94406 84.9631 6.36406 84.973 6.77406 84.963C7.45406 84.953 8.14399 84.9031 8.82399 84.8031C10.234 84.6131 11.6141 84.233 12.9341 83.693C13.8941 83.303 14.8141 82.823 15.6841 82.263C15.5141 82.403 15.364 82.5531 15.194 82.6831ZM19.224 77.983C19.144 78.113 19.054 78.243 18.974 78.383C17.304 80.433 15.144 82.053 12.704 83.093C11.464 83.623 10.164 84.003 8.834 84.223C8.184 84.333 7.52402 84.4031 6.85402 84.4331C6.40402 84.4531 5.94403 84.4231 5.48403 84.4331C6.59403 84.0731 7.68405 83.593 8.75405 83.123C9.98405 82.573 11.2041 81.993 12.4141 81.383C13.5941 80.793 14.7641 80.173 15.9241 79.523C17.0241 78.913 18.154 78.293 19.204 77.593C19.214 77.723 19.214 77.853 19.224 77.983ZM15.6741 78.883C14.4941 79.593 13.2841 80.2631 12.0641 80.9031C10.8841 81.5131 9.69404 82.1031 8.49404 82.6531C7.54404 83.0831 6.58406 83.4931 5.64406 83.9331C5.98406 83.6031 6.32409 83.273 6.67409 82.963C7.19409 82.503 7.74408 82.063 8.29408 81.633C9.37408 80.823 10.514 80.0831 11.704 79.4331C12.914 78.7731 14.174 78.223 15.474 77.773C16.114 77.543 16.7641 77.3531 17.4141 77.1731C17.8841 77.0531 18.464 77.003 18.954 76.823C17.844 77.493 16.7841 78.223 15.6741 78.883ZM14.5341 72.963C12.5441 74.043 10.254 74.6431 7.98403 74.5431C6.76403 74.4831 5.42407 74.2131 4.53407 73.3131C4.47407 73.2431 4.41402 73.173 4.35402 73.103C6.88402 73.683 9.51407 73.453 12.0241 72.863C13.4441 72.533 14.834 72.083 16.204 71.573C16.444 71.473 16.6841 71.3731 16.9241 71.2831C16.2041 71.9231 15.4041 72.483 14.5341 72.963ZM30.1741 77.713C29.8641 77.853 29.5241 77.933 29.1841 77.953C28.0941 78.033 27.044 77.603 26.094 77.113C25.244 76.673 24.4141 76.183 23.6341 75.633C22.7741 75.033 21.944 74.3531 21.254 73.5531C20.764 72.9831 20.364 72.3431 20.004 71.6831C19.994 71.5731 19.994 71.453 19.994 71.343C20.024 71.373 20.064 71.4031 20.104 71.4331C20.284 71.7031 20.5041 71.9531 20.6841 72.1831C21.0341 72.6331 21.414 73.073 21.824 73.483C22.674 74.353 23.6341 75.103 24.6741 75.743C26.3241 76.753 28.2341 77.503 30.1741 77.713ZM30.214 75.983C30.634 76.053 31.0841 76.1531 31.5241 76.1731C31.4841 76.3131 31.434 76.453 31.374 76.583C31.224 76.913 31.004 77.183 30.744 77.383C28.724 77.023 26.7941 76.3931 25.0341 75.2931C24.0541 74.6731 23.134 73.933 22.324 73.093C22.224 72.993 22.1241 72.873 22.0241 72.763C22.1441 72.833 22.2641 72.913 22.3841 72.983C23.3641 73.573 24.394 74.1031 25.454 74.5431C26.464 74.9731 27.5041 75.333 28.5641 75.613C29.1141 75.753 29.664 75.873 30.214 75.983ZM31.574 74.873C31.614 75.143 31.624 75.423 31.604 75.693C31.224 75.603 30.834 75.563 30.454 75.493C29.924 75.393 29.4041 75.263 28.8841 75.133C27.7941 74.843 26.724 74.4831 25.694 74.0431C24.704 73.6231 23.744 73.133 22.824 72.573C22.314 72.273 21.824 71.953 21.354 71.603C21.184 71.483 21.014 71.353 20.854 71.223C20.704 70.973 20.534 70.7331 20.344 70.5431C20.564 70.5631 20.7941 70.583 21.0241 70.603C21.5841 70.663 22.134 70.753 22.694 70.853C23.844 71.063 24.984 71.3731 26.084 71.7831C27.134 72.1731 28.1641 72.653 29.1341 73.213C29.6441 73.503 30.144 73.8131 30.624 74.1531C30.924 74.3631 31.234 74.673 31.574 74.873ZM26.4341 70.473C28.1541 71.073 30.2341 72.033 31.1541 73.723C31.0941 73.693 31.034 73.653 30.984 73.613C30.514 73.283 30.0441 72.983 29.5541 72.693C28.5141 72.083 27.4241 71.5731 26.2941 71.1531C25.2141 70.7531 24.094 70.433 22.954 70.223C22.354 70.103 21.7441 70.023 21.1341 69.973C20.8441 69.943 20.544 69.9131 20.254 69.9131C20.294 69.8631 20.334 69.813 20.354 69.743C22.404 69.563 24.4841 69.793 26.4341 70.473ZM18.9141 69.1831C18.6641 69.4831 18.4141 69.7731 18.1541 70.0631C18.0741 70.0931 18.0041 70.1331 17.9241 70.1631C17.2741 70.4231 16.624 70.6831 15.964 70.9331C14.684 71.4131 13.3841 71.863 12.0541 72.203C9.43409 72.873 6.70408 73.073 4.04408 72.623C6.62408 72.343 9.1841 71.7131 11.6841 71.0431C14.1341 70.3831 16.5341 69.5831 18.8941 68.6531C18.9041 68.8331 18.9041 69.0031 18.9141 69.1831ZM18.874 67.7831C18.874 67.8331 18.8841 67.893 18.8841 67.953C16.5041 68.883 14.0841 69.7131 11.6341 70.4131C9.06405 71.1531 6.46403 71.653 3.86403 72.243C3.82403 72.103 3.78405 71.9531 3.76405 71.8131C6.17405 70.8231 8.58402 69.883 11.104 69.213C12.384 68.873 13.674 68.593 14.974 68.373C15.614 68.263 16.2541 68.173 16.8941 68.103C17.2441 68.063 17.594 68.023 17.944 67.993C18.264 67.963 18.5341 67.9731 18.8141 67.8031C18.8241 67.7931 18.824 67.783 18.834 67.773C18.854 67.773 18.864 67.7731 18.874 67.7831ZM17.0541 67.3131C16.9741 67.3331 16.894 67.343 16.824 67.353C16.184 67.443 15.5441 67.5531 14.9041 67.6731C13.5741 67.9131 12.264 68.223 10.964 68.583C8.46401 69.283 6.00403 70.193 3.73403 71.443C3.73403 71.003 3.86408 70.573 4.16408 70.193C4.91408 69.283 6.19405 68.723 7.26405 68.263C8.40405 67.783 9.5941 67.423 10.8141 67.203C12.9041 66.843 15.0041 66.9031 17.0541 67.3131ZM11.374 62.4331C9.17404 62.4431 6.88408 61.8331 5.16408 60.4231C4.44408 59.8431 3.81404 59.103 3.49404 58.223C5.87404 59.333 8.42407 60.063 11.0341 60.363C12.3741 60.523 13.724 60.573 15.074 60.513C16.284 60.453 17.604 60.383 18.754 59.943C18.754 60.253 18.7641 60.573 18.7641 60.883C16.3341 61.613 13.944 62.4131 11.374 62.4331ZM31.1541 67.393C29.2041 67.903 26.9641 67.4631 25.1441 66.6831C23.0041 65.7531 21.234 64.233 19.834 62.393C19.834 62.323 19.834 62.263 19.834 62.193C23.104 65.613 28.2741 67.083 32.9241 66.473C32.4441 66.943 31.7941 67.223 31.1541 67.393ZM33.5441 65.333C33.5141 65.463 33.4741 65.593 33.4241 65.713C31.0541 66.173 28.6041 66.043 26.2841 65.383C23.8741 64.683 21.744 63.383 19.844 61.773C19.834 61.773 19.834 61.773 19.834 61.773C19.834 61.673 19.834 61.583 19.834 61.493C20.664 62.133 21.6141 62.633 22.5441 63.083C23.7241 63.643 24.954 64.103 26.214 64.463C28.594 65.153 31.0741 65.443 33.5441 65.333ZM33.574 64.4031C33.584 64.4931 33.594 64.5731 33.594 64.6631C31.174 64.7831 28.7341 64.533 26.3941 63.893C25.1541 63.563 23.9541 63.113 22.7941 62.573C21.7641 62.093 20.814 61.503 19.824 60.973C19.824 60.953 19.824 60.9231 19.824 60.9031C20.264 60.9931 20.7541 60.9831 21.1741 61.0431C21.7841 61.1231 22.4041 61.223 23.0141 61.323C24.2641 61.543 25.504 61.823 26.734 62.143C27.964 62.473 29.1841 62.833 30.3941 63.243C30.9841 63.443 31.5641 63.653 32.1441 63.873C32.6041 64.043 33.084 64.2931 33.574 64.4031ZM26.954 59.623C29.084 59.993 31.544 60.983 32.884 62.773C33.114 63.093 33.314 63.453 33.444 63.833C33.084 63.663 32.704 63.5431 32.364 63.4131C31.764 63.1831 31.1541 62.963 30.5341 62.753C29.3641 62.353 28.184 61.9931 26.984 61.6831C25.754 61.3531 24.5241 61.073 23.2741 60.823C22.6641 60.703 22.054 60.593 21.444 60.493C21.104 60.433 20.774 60.383 20.444 60.333C20.434 60.323 20.4241 60.323 20.4241 60.323C22.4841 59.483 24.754 59.233 26.954 59.623ZM16.6741 58.863C17.3041 58.953 17.974 59.133 18.624 59.123C18.664 59.123 18.704 59.113 18.744 59.103C18.744 59.253 18.744 59.4031 18.744 59.5531C17.504 59.5831 16.2641 59.833 15.0141 59.883C13.6941 59.943 12.3741 59.883 11.0641 59.723C8.4341 59.393 5.89406 58.623 3.52406 57.453C3.44406 57.413 3.37409 57.4131 3.30409 57.4231C3.28409 57.2031 3.294 56.9931 3.334 56.7931C5.794 57.3331 8.33399 57.603 10.824 57.963C12.124 58.163 13.424 58.3731 14.724 58.5631C15.374 58.6631 16.0241 58.763 16.6741 58.863ZM16.694 58.1831C16.044 58.0931 15.394 58.0031 14.744 57.9131C13.444 57.7331 12.134 57.573 10.834 57.383C8.384 57.043 5.924 56.5931 3.454 56.4031C3.634 55.9331 3.99406 55.5331 4.52406 55.2831C5.49406 54.8131 6.68404 54.773 7.75405 54.763C8.95405 54.763 10.154 54.8931 11.324 55.1531C12.594 55.4331 13.834 55.8531 15.004 56.4131C15.584 56.6931 16.154 57.003 16.704 57.343C17.234 57.683 17.7241 58.103 18.2841 58.393C17.7641 58.283 17.214 58.2531 16.694 58.1831ZM35.984 53.623C34.724 56.263 31.204 56.9231 28.574 57.0631C26.934 57.1431 25.284 56.9631 23.694 56.5631C22.904 56.3631 22.124 56.1031 21.374 55.8031C20.834 55.5831 20.3141 55.323 19.7841 55.073C19.7841 55.043 19.7841 55.023 19.7841 54.993C19.8141 54.983 19.834 54.973 19.864 54.973C19.874 54.973 19.8741 54.983 19.8841 54.983C25.3441 56.423 31.3541 55.3631 36.2841 52.6631C36.2241 52.9931 36.134 53.313 35.984 53.623ZM36.324 51.833C31.524 54.593 25.9741 55.413 20.5241 54.703C20.9341 54.513 21.334 54.283 21.714 54.113C22.344 53.833 22.984 53.573 23.624 53.323C24.984 52.813 26.3741 52.3931 27.7941 52.0631C29.2041 51.7231 30.634 51.483 32.074 51.333C32.784 51.263 33.504 51.2131 34.214 51.1831C34.584 51.1631 34.954 51.1531 35.324 51.1531C35.604 51.1531 35.904 51.1731 36.194 51.1531C36.264 51.3731 36.304 51.603 36.324 51.833ZM25.1341 49.613C27.3841 48.503 30.024 47.993 32.504 48.493C33.394 48.673 34.3241 49.013 35.0641 49.593C34.5141 49.333 33.934 49.1531 33.374 49.0531C31.864 48.7531 30.304 48.9331 28.824 49.2931C27.164 49.6931 25.5841 50.373 24.0641 51.133C23.0841 51.623 22.134 52.173 21.204 52.743C22.284 51.453 23.6041 50.373 25.1341 49.613ZM28.444 49.9031C29.914 49.3931 31.4741 49.183 33.0141 49.463C33.6741 49.583 34.3241 49.783 34.9341 50.073C35.1341 50.173 35.324 50.2831 35.504 50.4031C35.064 50.4131 34.614 50.443 34.224 50.463C33.454 50.503 32.6941 50.5631 31.9341 50.6531C30.4841 50.8231 29.0541 51.0831 27.6441 51.4331C26.2041 51.7931 24.7941 52.2431 23.4241 52.7831C22.7341 53.0531 22.0541 53.3531 21.3841 53.6631C21.1741 53.7631 20.954 53.863 20.724 53.973C23.104 52.293 25.694 50.8531 28.444 49.9031ZM2.5641 43.693C3.8241 43.453 5.20401 43.653 6.46401 43.833C7.86401 44.043 9.2341 44.383 10.5641 44.843C12.0241 45.353 13.4341 46.0031 14.7641 46.7831C15.6241 47.2831 16.414 47.853 17.204 48.443C14.974 47.373 12.6441 46.533 10.2941 45.823C7.45408 44.963 4.53399 44.373 1.57399 44.093C1.86399 43.893 2.2141 43.763 2.5641 43.693ZM0.89406 45.083C0.91406 45.093 0.914099 45.113 0.934099 45.123C3.5941 46.833 6.644 48.063 9.704 48.853C11.244 49.263 12.8241 49.5331 14.4141 49.6831C14.5241 49.6931 14.644 49.703 14.754 49.713C14.114 49.773 13.484 49.833 12.844 49.873C11.184 49.963 9.50403 49.943 7.86403 49.633C6.49403 49.373 5.15408 48.923 3.91408 48.263C2.75408 47.643 1.79407 46.813 0.904069 45.863C0.854069 45.603 0.84406 45.343 0.89406 45.083ZM4.02406 49.233C3.10406 48.653 2.02405 47.913 1.38405 46.963C3.01405 48.583 5.34405 49.553 7.51405 50.013C9.15405 50.353 10.8641 50.4531 12.5441 50.4031C13.4841 50.3831 14.414 50.313 15.344 50.223C15.804 50.173 16.274 50.123 16.734 50.073C17.164 50.023 17.584 50.003 17.984 49.833C18.154 49.833 18.314 49.8231 18.484 49.7931C14.014 52.1731 8.31406 51.893 4.02406 49.233ZM16.7841 49.273C15.9741 49.253 15.164 49.203 14.354 49.123C12.814 48.963 11.2941 48.6931 9.80409 48.2931C6.99409 47.5631 4.41401 46.383 1.96401 44.883C4.68401 45.153 7.39408 45.6031 10.0441 46.3031C12.7741 47.0231 15.374 48.073 17.944 49.243C17.554 49.253 17.1541 49.273 16.7841 49.273ZM33.114 42.453C31.654 44.213 29.3041 45.293 27.1441 45.873C25.8741 46.213 24.554 46.373 23.234 46.363C22.594 46.363 21.964 46.323 21.324 46.243C20.784 46.173 20.244 46.043 19.704 45.973C19.694 45.853 19.694 45.723 19.694 45.593C22.304 45.913 25.0441 45.463 27.5241 44.623C29.7941 43.853 32.0541 42.673 33.9041 41.103C33.7341 41.593 33.444 42.053 33.114 42.453ZM34.084 40.0331C32.034 41.7531 29.8441 43.1431 27.3041 44.0331C24.8241 44.8931 22.2841 45.163 19.6841 45.193C19.6841 45.103 19.6841 45.023 19.6741 44.943C20.9341 44.973 22.244 44.663 23.444 44.383C24.804 44.073 26.134 43.683 27.444 43.203C28.744 42.723 30.014 42.163 31.254 41.523C31.874 41.203 32.484 40.863 33.084 40.503C33.394 40.313 33.694 40.1231 34.004 39.9331C34.024 39.9131 34.054 39.893 34.084 39.883C34.084 39.933 34.084 39.9831 34.084 40.0331ZM33.8941 39.133C33.7941 39.193 33.694 39.263 33.584 39.333C33.304 39.513 33.014 39.693 32.734 39.873C32.124 40.243 31.494 40.5931 30.864 40.9231C29.674 41.5431 28.454 42.0831 27.204 42.5531C25.944 43.0231 24.674 43.433 23.374 43.753C22.154 44.063 20.8841 44.2031 19.6741 44.5331C19.6641 44.4931 19.6641 44.4431 19.6641 44.4031C19.7141 44.4631 19.8141 44.493 19.9041 44.443C20.9641 43.853 21.9041 43.043 22.9341 42.393C24.0041 41.703 25.1241 41.0831 26.2741 40.5331C28.4641 39.4831 30.7741 38.673 33.1441 38.093C33.4541 38.383 33.7241 38.733 33.8941 39.133ZM24.7641 38.7931C26.7541 37.6431 29.574 36.4031 31.874 37.2931C32.044 37.3631 32.224 37.4531 32.384 37.5531C30.124 38.1531 27.934 38.9831 25.844 40.0531C24.734 40.6231 23.654 41.2431 22.614 41.9231C21.594 42.5931 20.4841 43.273 19.6741 44.193C19.6641 44.203 19.6641 44.203 19.6641 44.213C19.6541 43.853 19.6441 43.493 19.6441 43.133C21.1041 41.403 22.8041 39.9231 24.7641 38.7931ZM18.444 41.8031C16.164 42.1631 13.9341 42.253 11.6541 41.743C9.29407 41.223 7.05409 40.163 5.17409 38.633C4.43409 38.023 3.524 37.223 3.204 36.253C3.824 36.893 4.59409 37.4331 5.30409 37.9131C6.26409 38.5631 7.28401 39.123 8.34401 39.583C10.514 40.543 12.844 41.123 15.214 41.243C15.864 41.273 16.5041 41.273 17.1441 41.243C17.5241 41.223 17.9941 41.2331 18.4141 41.1531C18.4241 41.3731 18.434 41.5831 18.444 41.8031ZM18.3941 40.523C18.2141 40.543 18.044 40.573 17.864 40.593C17.534 40.623 17.204 40.6431 16.874 40.6631C16.144 40.6931 15.4141 40.673 14.6841 40.613C13.2441 40.503 11.8141 40.2331 10.4341 39.8031C9.0541 39.3831 7.72402 38.7931 6.47402 38.0631C5.83402 37.6931 5.22405 37.283 4.63405 36.843C4.10405 36.453 3.62402 36.003 3.10402 35.623C5.85402 35.973 8.60405 36.523 11.254 37.383C12.554 37.813 13.834 38.293 15.094 38.833C15.714 39.103 16.344 39.3831 16.954 39.6831C17.424 39.9031 17.9041 40.163 18.3941 40.353C18.3941 40.413 18.3941 40.463 18.3941 40.523ZM18.374 39.823C17.984 39.593 17.5741 39.393 17.1841 39.193C16.5541 38.873 15.904 38.5831 15.254 38.2931C13.974 37.7431 12.664 37.2431 11.344 36.8131C8.83401 35.9931 6.27408 35.343 3.66408 34.953C4.23408 35.003 4.884 34.853 5.454 34.833C6.134 34.803 6.82405 34.813 7.50405 34.873C8.87405 34.983 10.2341 35.2631 11.5541 35.6831C12.8141 36.1031 14.044 36.653 15.194 37.323C16.324 37.993 17.314 38.823 18.364 39.603C18.364 39.683 18.364 39.753 18.374 39.823ZM18.114 38.443C18.174 38.523 18.254 38.563 18.324 38.593C18.334 38.723 18.334 38.853 18.334 38.983C17.554 38.163 16.594 37.4931 15.624 36.9031C14.404 36.1631 13.094 35.563 11.734 35.123C10.404 34.683 9.01403 34.383 7.61403 34.243C6.92403 34.173 6.22406 34.1431 5.52406 34.1531C4.98406 34.1631 4.30404 34.123 3.74404 34.273C4.11404 33.953 4.59409 33.733 5.05409 33.583C6.13409 33.243 7.34401 33.2131 8.46401 33.2931C9.61401 33.3731 10.764 33.593 11.854 33.963C14.344 34.823 16.504 36.363 18.114 38.443ZM27.824 34.0531C26.494 34.5631 25.0741 34.753 23.6541 34.743C22.1941 34.743 20.7641 34.423 19.3141 34.383C19.3041 34.193 19.2841 34.013 19.2741 33.823C20.3441 34.083 21.554 34.043 22.614 33.983C23.924 33.903 25.244 33.6631 26.504 33.2831C27.754 32.9031 28.954 32.383 30.084 31.733C30.654 31.403 31.204 31.0431 31.734 30.6531C31.844 30.5731 31.964 30.483 32.084 30.393C31.264 32.133 29.584 33.3831 27.824 34.0531ZM32.504 29.013C32.074 29.283 31.6841 29.713 31.2841 30.013C30.7841 30.403 30.254 30.763 29.714 31.083C28.644 31.723 27.514 32.233 26.334 32.613C25.144 32.993 23.934 33.253 22.694 33.363C22.084 33.423 21.474 33.4431 20.864 33.4331C20.324 33.4231 19.784 33.373 19.244 33.363C19.234 33.183 19.224 33.003 19.214 32.833C19.634 32.803 20.074 32.693 20.464 32.613C21.074 32.493 21.6741 32.3431 22.2641 32.1831C23.4741 31.8631 24.664 31.463 25.824 30.993C28.144 30.043 30.334 28.813 32.364 27.333C32.564 27.863 32.584 28.443 32.504 29.013ZM31.9341 26.623C31.9241 26.633 31.9141 26.633 31.9041 26.643C29.9141 28.103 27.764 29.3431 25.484 30.3031C24.354 30.7831 23.2041 31.1931 22.0241 31.5331C21.4541 31.7031 20.8741 31.853 20.2941 31.993C20.1941 32.013 20.084 32.0331 19.984 32.0531C20.504 31.5131 20.9941 30.953 21.5441 30.453C22.3541 29.713 23.214 29.0431 24.124 28.4331C25.944 27.2231 27.9241 26.303 30.0141 25.693C30.7441 25.813 31.4541 26.073 31.9341 26.623ZM27.994 25.6631C26.514 26.2531 25.084 27.0031 23.754 27.9031C22.824 28.5231 21.9441 29.233 21.1341 29.993C20.4441 30.643 19.7041 31.343 19.1741 32.143C19.1641 31.893 19.144 31.633 19.124 31.373C20.974 28.223 24.354 25.9831 27.994 25.6631ZM17.854 30.103C17.814 30.123 17.764 30.1331 17.724 30.1631C15.914 31.5531 13.284 31.273 11.204 30.753C8.974 30.203 6.8941 29.0931 5.1841 27.5631C5.1441 27.5231 5.09408 27.483 5.04408 27.443C6.32408 28.383 7.74406 29.113 9.26406 29.593C10.7041 30.033 12.214 30.233 13.724 30.193C14.464 30.173 15.214 30.093 15.944 29.973C16.284 29.913 16.624 29.843 16.954 29.763C17.244 29.693 17.5741 29.663 17.8041 29.483C17.8241 29.693 17.844 29.893 17.854 30.103ZM15.8941 29.4131C15.2141 29.5631 14.524 29.6431 13.834 29.6731C12.394 29.7331 10.9441 29.5631 9.5641 29.1831C7.3141 28.5631 5.24399 27.353 3.57399 25.723C3.42399 25.443 3.31407 25.143 3.28407 24.823C3.46407 24.993 3.69405 25.113 3.88405 25.243C4.16405 25.433 4.45403 25.6131 4.73403 25.7831C5.31403 26.1231 5.89404 26.433 6.49404 26.723C7.70404 27.293 8.934 27.803 10.204 28.193C12.194 28.813 14.3941 29.253 16.5341 29.253C16.3241 29.303 16.1141 29.3731 15.8941 29.4131ZM17.734 28.5631C17.734 28.6331 17.744 28.7131 17.754 28.7931C16.594 28.7331 15.4341 28.683 14.2741 28.523C12.9841 28.353 11.704 28.0631 10.454 27.6831C9.184 27.3031 7.92404 26.813 6.74404 26.193C6.15404 25.893 5.57405 25.553 5.01405 25.203C4.73405 25.033 4.45409 24.8531 4.17409 24.6731C3.92409 24.4931 3.69405 24.283 3.38405 24.213H3.37404C3.43404 24.063 3.53406 23.933 3.64406 23.823C4.86406 24.043 6.10399 24.1431 7.32399 24.4031C8.63399 24.6831 9.9241 25.053 11.1841 25.493C12.4041 25.923 13.584 26.403 14.744 26.963C15.324 27.233 15.894 27.523 16.464 27.833C16.884 28.053 17.294 28.3431 17.734 28.5631ZM17.6641 27.743C17.6741 27.783 17.6741 27.823 17.6741 27.873C17.3741 27.693 17.0641 27.533 16.7641 27.363C16.2041 27.053 15.6341 26.763 15.0641 26.483C13.8541 25.903 12.614 25.393 11.354 24.953C10.114 24.533 8.854 24.173 7.584 23.873C6.634 23.653 5.63406 23.4131 4.64406 23.2831C4.89406 23.2131 5.14404 23.163 5.37404 23.143C7.56404 22.893 9.84406 23.263 11.8941 24.023C13.0441 24.463 14.1541 25.023 15.1641 25.723C16.0541 26.333 16.8541 27.043 17.6641 27.743ZM7.96401 13.733C8.84401 13.913 9.70403 14.403 10.484 14.833C11.304 15.293 12.0741 15.8231 12.8141 16.4131C13.6341 17.0731 14.404 17.803 15.104 18.603C15.644 19.233 16.1141 19.9131 16.6341 20.5531C15.9941 19.8531 15.224 19.2731 14.484 18.6831C13.694 18.0531 12.8841 17.433 12.0641 16.843C11.2641 16.263 10.4541 15.7131 9.63405 15.1631C8.87405 14.6531 8.04408 14.223 7.29408 13.693C7.51408 13.663 7.74401 13.683 7.96401 13.733ZM6.65407 14.363C6.58407 14.303 6.51399 14.2831 6.44399 14.2831C6.48399 14.2031 6.534 14.143 6.584 14.083C6.594 14.083 6.60403 14.093 6.61403 14.103C7.51403 14.463 8.35409 15.073 9.17409 15.573C10.0441 16.103 10.894 16.663 11.724 17.243C12.514 17.793 13.2841 18.363 14.0441 18.943C14.4341 19.253 14.814 19.573 15.204 19.893C14.944 19.763 14.6741 19.643 14.4141 19.513C13.4841 19.043 12.5741 18.543 11.6841 18.013C9.9041 16.943 8.21407 15.733 6.65407 14.363ZM7.85402 17.643C7.24402 16.983 6.53402 16.153 6.35402 15.253C6.34402 15.183 6.344 15.1131 6.334 15.0431C7.934 16.3131 9.59401 17.4931 11.344 18.5431C13.024 19.5431 14.824 20.563 16.714 21.123C13.434 21.373 10.104 20.063 7.85402 17.643ZM25.324 22.273C24.444 23.193 23.384 23.923 22.224 24.443C21.064 24.963 19.8741 25.1631 18.6341 25.4331C18.6141 25.2431 18.594 25.063 18.574 24.873C21.124 24.553 23.5341 23.243 25.2941 21.383C26.2541 20.383 27.064 19.1831 27.604 17.9031C27.754 17.5631 27.874 17.213 27.994 16.863C27.724 18.873 26.704 20.823 25.324 22.273ZM27.714 14.333C27.534 14.723 27.554 15.3131 27.484 15.6731C27.354 16.3231 27.1641 16.963 26.9241 17.583C26.4341 18.813 25.764 19.9531 24.874 20.9331C23.194 22.7831 20.9441 23.923 18.5341 24.453C18.5141 24.273 18.494 24.0931 18.474 23.9131C20.504 22.8431 22.2641 21.313 23.8041 19.603C25.2741 17.983 26.704 16.1031 27.584 14.0631C27.634 14.1431 27.674 14.243 27.714 14.333ZM26.844 13.2831C26.904 13.3231 26.954 13.3631 27.004 13.4131C26.504 14.3831 26.034 15.3531 25.454 16.2931C24.834 17.2931 24.134 18.253 23.364 19.143C21.954 20.773 20.2841 22.123 18.5641 23.393C19.3341 21.303 20.2941 19.283 21.6541 17.503C22.9841 15.743 24.584 14.353 26.374 13.073C26.534 13.123 26.694 13.1831 26.844 13.2831ZM23.624 13.723C24.014 13.493 24.4641 13.273 24.9241 13.133C23.4441 14.233 22.134 15.643 21.074 17.103C19.864 18.793 18.874 20.6631 18.334 22.6631C18.324 22.5331 18.3041 22.403 18.2941 22.273C18.6541 18.803 20.614 15.533 23.624 13.723ZM17.5241 9.723C17.7441 7.593 18.2241 5.48299 18.9341 3.46299C19.1141 2.97299 19.294 2.49304 19.494 2.01304C19.644 1.66304 19.834 1.033 20.214 0.842995C19.684 1.803 19.464 2.99306 19.194 4.03306C18.864 5.30306 18.5541 6.57301 18.2641 7.86301C17.9841 9.11301 17.734 10.373 17.494 11.633C17.464 11.813 17.4341 12.003 17.4041 12.193C17.4041 11.373 17.4341 10.553 17.5241 9.723ZM13.204 4.16306C14.484 7.03306 15.164 10.163 15.744 13.233C15.834 13.743 15.924 14.253 16.004 14.773C13.824 11.713 12.804 7.90306 13.204 4.16306ZM20.6541 3.32298C20.4941 5.49298 20.004 7.643 19.354 9.723C18.944 11.023 18.444 12.293 17.964 13.573C18.064 13.003 18.154 12.423 18.254 11.853C18.484 10.593 18.734 9.33298 19.004 8.07298C19.274 6.82298 19.5641 5.57299 19.8841 4.33299C20.0341 3.73299 20.194 3.14308 20.344 2.55308C20.464 2.10308 20.5941 1.61303 20.6541 1.13303C20.6841 1.29303 20.694 1.47299 20.694 1.58299C20.714 2.16299 20.6941 2.74298 20.6541 3.32298Z" fill="#4D4C51"/>
</svg>
