<svg width="42" height="111" viewBox="0 0 42 111" fill="none" xmlns="http://www.w3.org/2000/svg">
<path d="M41.1611 11.8298C36.0911 13.4798 31.4711 16.3198 27.6511 19.9998C29.7211 13.9998 30.2011 7.32976 29.3811 1.06976C29.3311 0.65976 28.701 0.44977 28.461 0.82977C26.351 4.15977 24.981 7.91976 24.471 11.8198C24.221 13.7498 24.171 15.7098 24.331 17.6498C24.461 19.2498 24.7311 20.9598 25.2811 22.4998C23.8411 24.1798 22.541 25.9898 21.441 27.9098C20.671 29.2498 20.001 30.6299 19.441 32.0599C19.141 29.8499 18.781 27.6498 18.351 25.4698C18.371 25.3298 18.3511 25.1798 18.2711 25.0698C18.2511 24.9698 18.241 24.8598 18.211 24.7598C18.251 24.1398 18.191 23.4998 18.201 22.9598C18.221 21.8698 18.221 20.7799 18.201 19.6799C18.151 17.5099 17.991 15.3298 17.571 13.1998C16.891 9.69976 15.5111 6.27985 13.1711 3.53985C12.5511 2.81985 11.841 2.14987 11.091 1.55987C10.561 1.14987 9.98103 0.729784 9.35103 0.469784C9.31103 0.389784 9.26103 0.309794 9.22103 0.229794C9.13103 0.089794 8.94106 0.159843 8.88106 0.279843C8.88106 0.269843 8.88106 0.259823 8.88106 0.259823C8.81106 -0.0301767 8.4111 -0.110245 8.2911 0.189755C7.9911 0.909755 8.02106 1.79976 8.00106 2.56976C7.98106 3.41976 8.01101 4.27982 8.08101 5.12982C8.21101 6.83982 8.49109 8.53976 8.91109 10.1998C9.76109 13.4898 11.1411 16.6398 13.0111 19.4798C13.5311 20.2598 14.0811 21.0198 14.6811 21.7498C15.2711 22.4598 15.921 23.4098 16.721 23.8898C16.731 23.8998 16.7411 23.8998 16.7511 23.8998C16.7611 23.9598 16.7711 24.0298 16.7811 24.0898C16.6911 23.9998 16.6011 23.9098 16.5111 23.8298C15.9011 23.2398 15.261 22.6898 14.581 22.1898C13.261 21.1898 11.8111 20.3398 10.3111 19.6498C7.26112 18.2398 3.921 17.4998 0.571003 17.4798C0.201003 17.4798 -0.208949 17.9298 0.121051 18.2698C4.50105 22.7498 10.491 25.5098 16.741 25.8998C16.741 25.8998 16.7411 25.8998 16.7511 25.8998C16.8311 25.9398 16.9211 25.9499 17.0011 25.9299C17.0111 25.9799 17.0211 26.0199 17.0411 26.0599C17.0711 26.1299 17.1211 26.1698 17.1711 26.2198C17.4711 27.9198 17.751 29.6198 17.971 31.3198C18.261 33.4898 18.4611 35.6698 18.6411 37.8398C18.5411 37.6698 18.441 37.4898 18.341 37.3298C17.791 36.3798 17.1411 35.4998 16.4011 34.6898C14.8811 33.0098 13.031 31.6598 10.961 30.7298C9.93102 30.2598 8.84104 29.9099 7.73104 29.6799C6.94104 29.5099 5.5211 29.2398 5.2911 30.3698C5.1711 30.9198 5.54107 31.3598 5.89107 31.7398C6.40107 32.3198 6.921 32.8798 7.441 33.4398C8.401 34.4598 9.39103 35.4498 10.471 36.3498C12.781 38.2898 15.5211 39.7898 18.5511 40.1298C18.6511 40.1398 18.7411 40.1198 18.8111 40.0898C18.8111 40.0998 18.821 40.0998 18.821 40.0998C19.071 44.0198 19.1711 47.9498 19.1511 51.8698C18.8411 51.2598 18.491 50.6698 18.111 50.1298C16.811 48.2598 15.021 46.7598 12.971 45.7698C11.951 45.2698 10.8811 44.9198 9.77108 44.6998C9.21108 44.5798 8.641 44.5098 8.071 44.4698C7.611 44.4398 6.94102 44.3498 6.71102 44.8698C6.57102 45.1698 6.68104 45.4499 6.86104 45.6799C7.42104 48.0599 9.27111 50.2699 11.1811 51.6699C12.3411 52.5099 13.6511 53.1499 15.0311 53.5399C16.2511 53.8899 17.681 54.1398 18.981 53.9998C19.021 54.1298 19.0811 54.2498 19.1211 54.3798C19.0511 58.1998 18.8811 62.0198 18.6411 65.8298C18.4311 69.1198 18.1711 72.4098 17.8811 75.6998C17.7311 77.3798 17.5811 79.0598 17.4211 80.7498C17.3511 81.5498 17.281 82.3498 17.211 83.1498C17.211 83.1698 17.211 83.1998 17.211 83.2198C17.061 84.2598 16.9111 85.2998 16.7511 86.3398C15.9811 91.3598 15.011 96.3699 13.821 101.31C13.141 104.14 12.441 106.98 11.701 109.79C11.601 110.15 12.1111 110.39 12.2511 110.02C15.7311 100.38 17.971 90.2299 19.231 80.0599C19.411 78.6299 19.571 77.1998 19.701 75.7698C19.831 74.3498 20.0011 72.8399 19.7711 71.4199C19.7711 71.4099 19.7611 71.4098 19.7611 71.3998C19.8311 70.4898 19.921 69.5699 19.981 68.6599C20.421 68.3799 20.841 68.0498 21.221 67.7798C21.771 67.3798 22.301 66.9498 22.831 66.5198C23.751 67.2598 25.1911 67.4598 26.3111 67.6198C27.6211 67.7998 28.9611 67.7898 30.2711 67.6498C32.9111 67.3498 35.4411 66.4099 37.6311 64.9099C37.9511 64.6899 37.8611 64.1598 37.5111 64.0298C33.5811 62.5598 29.281 62.6398 25.481 64.2498C26.391 63.3998 27.2811 62.5298 28.1211 61.5998C28.7111 60.9498 29.271 60.2798 29.821 59.5898C29.891 59.6698 29.9911 59.7199 30.1211 59.6799C35.8911 57.8899 38.9411 51.3598 37.7611 45.6498C37.7211 45.4398 37.5911 45.3298 37.4311 45.2698C37.4411 45.2298 37.451 45.1898 37.451 45.1498C37.501 44.8098 37.0511 44.7398 36.9111 45.0098C36.8811 45.0598 36.861 45.1098 36.831 45.1598C35.611 45.7698 34.511 46.8199 33.591 47.8099C32.601 48.8799 31.7411 50.0499 31.0211 51.3099C29.5611 53.8399 28.661 56.6798 28.461 59.5998C28.461 59.6398 28.471 59.6698 28.481 59.6998C27.591 60.7498 26.6511 61.7498 25.6811 62.7298C27.1511 59.4898 27.6911 55.9298 27.3111 52.3598C27.2711 51.9798 26.7311 51.8398 26.5011 52.1498C24.0611 55.5598 23.0311 59.7498 23.8011 63.8898C23.8311 64.0498 23.9211 64.1898 24.0511 64.2798C23.9311 64.3798 23.821 64.4998 23.701 64.6098C22.871 65.3398 22.0111 66.0498 21.1211 66.7198C20.8011 66.9598 20.431 67.1899 20.071 67.4299C20.461 61.6999 20.7111 55.9498 20.6711 50.1998C21.8411 49.5698 22.9611 48.8098 24.0211 47.9898C24.0411 47.9898 24.051 48.0098 24.071 48.0098C24.811 48.1098 25.651 47.8598 26.351 47.6498C27.151 47.4198 27.9111 47.0998 28.6411 46.7098C30.0611 45.9398 31.3511 44.9398 32.4111 43.7298C34.5511 41.2798 35.661 38.0898 35.691 34.8598C35.961 34.4398 36.241 34.0298 36.491 33.6098C36.751 33.1798 36.381 32.5498 35.841 32.7798C30.071 35.3298 25.3011 40.5098 23.5611 46.6198C23.5111 46.7798 23.541 46.9199 23.601 47.0399C22.621 47.8799 21.6311 48.7099 20.6711 49.5599C20.6111 44.2099 20.3011 38.8599 19.6411 33.5599C21.1111 30.0999 22.9711 26.8698 25.3711 23.9598C25.5011 23.8098 25.6311 23.6598 25.7611 23.5198C25.9511 23.6098 26.231 23.4898 26.191 23.2198C26.181 23.1698 26.1711 23.1099 26.1611 23.0499C26.1911 23.0199 26.2211 22.9798 26.2511 22.9498C27.7311 23.0798 29.361 22.6198 30.741 22.1898C32.351 21.6798 33.891 20.9298 35.321 20.0098C38.151 18.1798 40.4511 15.5899 41.9011 12.5499C42.1311 12.0799 41.5911 11.6898 41.1611 11.8298ZM15.9111 21.2698C15.3911 20.6598 14.8911 20.0198 14.4111 19.3698C13.4511 18.0498 12.6111 16.6499 11.8811 15.1799C10.4311 12.2299 9.50105 9.02982 9.12105 5.75982C9.02105 4.85982 8.95111 3.95986 8.93111 3.04986C8.92111 2.48986 8.97102 1.86984 8.96102 1.27984C9.10102 1.38984 9.24106 1.48978 9.38106 1.58978C11.4211 6.10978 13.2711 10.6998 14.6811 15.4498C15.2811 17.4998 15.7911 19.5698 16.2611 21.6498C16.1411 21.5198 16.0211 21.3998 15.9111 21.2698ZM16.2811 16.8798C14.8311 11.9198 13.0111 7.01979 10.5211 2.47979C11.0311 2.91979 11.521 3.38985 11.971 3.90985C13.071 5.17985 13.991 6.5798 14.701 8.1098C16.321 11.5698 16.8311 15.3999 16.9311 19.1799C16.9411 19.2399 16.941 19.2998 16.941 19.3498C16.721 18.5298 16.5111 17.6998 16.2811 16.8798ZM13.9211 22.7398C14.5511 23.1898 15.1711 23.6599 15.7611 24.1699C15.8311 24.2299 15.901 24.2898 15.961 24.3498C15.761 24.2498 15.551 24.1499 15.351 24.0399C14.701 23.6799 14.0411 23.3298 13.3711 22.9898C12.0811 22.3298 10.771 21.6898 9.45101 21.0798C8.13101 20.4698 6.791 19.8898 5.441 19.3398C4.891 19.1198 4.34109 18.8998 3.78109 18.6998C5.84109 18.9898 7.87109 19.5698 9.78109 20.3998C11.2411 21.0398 12.6211 21.8198 13.9211 22.7398ZM14.601 24.6098C9.87103 23.8698 5.38101 21.7799 1.83101 18.5599C2.92101 19.0799 4.07111 19.4898 5.18111 19.9598C6.53111 20.5198 7.8611 21.1098 9.1711 21.7398C10.4611 22.3498 11.721 22.9998 12.971 23.6898C13.511 23.9798 14.061 24.2898 14.601 24.6098ZM7.37105 31.7598C7.83105 32.0598 8.29106 32.3498 8.75106 32.6398C9.79106 33.3098 10.811 33.9898 11.821 34.6898C12.811 35.3598 13.771 36.0598 14.731 36.7798C15.581 37.4098 16.3911 38.1298 17.2511 38.7598C13.2411 37.7798 10.1211 34.7398 7.37105 31.7598ZM15.471 36.1699C14.451 35.4099 13.4211 34.6698 12.3811 33.9598C11.3611 33.2598 10.3311 32.5998 9.28109 31.9498C8.76109 31.6298 8.231 31.3098 7.691 31.0098C7.481 30.8898 7.26109 30.7498 7.03109 30.6398C7.42109 30.6898 7.82101 30.7798 8.20101 30.8798C9.12101 31.1098 10.0211 31.4398 10.8811 31.8498C12.6511 32.6798 14.2911 33.8698 15.6411 35.2798C16.3611 36.0398 17.011 36.8698 17.571 37.7598C16.891 37.1998 16.161 36.6899 15.471 36.1699ZM15.491 52.6298C14.151 52.2898 12.8711 51.7098 11.7511 50.9098C10.7411 50.1998 9.86106 49.3298 9.13106 48.3298C8.75106 47.8198 8.44109 47.2698 8.16109 46.7098C8.37109 46.8598 8.5811 47.0098 8.7911 47.1598C9.9011 47.9798 11.0211 48.8098 12.1311 49.6398C13.7911 50.8698 15.581 52.2798 17.601 52.8998C16.901 52.8698 16.201 52.8098 15.491 52.6298ZM13.5111 49.3598C12.5311 48.6298 11.551 47.9099 10.571 47.1799C10.061 46.7999 9.5511 46.4299 9.0411 46.0499C8.8211 45.8799 8.60105 45.7199 8.37105 45.5499C8.44105 45.5699 8.5111 45.5798 8.5411 45.5798C8.9111 45.6298 9.28107 45.6898 9.64107 45.7598C10.3911 45.9098 11.121 46.1399 11.821 46.4299C13.221 46.9899 14.5111 47.7998 15.6211 48.8198C16.5811 49.6998 17.3911 50.7598 18.0311 51.9098C16.3711 51.3898 14.9411 50.4098 13.5111 49.3598ZM36.971 47.1298C37.261 49.5098 36.8311 51.9199 35.6211 54.0399C34.4011 56.1699 32.511 57.7698 30.361 58.9098C32.141 56.6098 33.7111 54.1499 35.0211 51.5499C35.7211 50.1599 36.471 48.6598 36.971 47.1298ZM31.711 51.8598C32.391 50.6498 33.2111 49.5098 34.1511 48.4798C34.7711 47.7898 35.4611 47.1998 36.1511 46.5998C35.6111 47.8698 35.1311 49.1799 34.5311 50.4199C33.6411 52.2399 32.6411 53.9998 31.5111 55.6898C30.8811 56.6398 30.191 57.5598 29.491 58.4698C29.801 56.1498 30.551 53.9098 31.711 51.8598ZM36.0411 64.6498C35.9211 64.7098 35.8011 64.7598 35.6811 64.8198C35.6111 64.7398 35.5311 64.6799 35.4211 64.6599C34.9411 64.5599 34.4111 64.6698 33.9211 64.7098C33.4611 64.7398 33.0011 64.7799 32.5411 64.8099C31.5411 64.8899 30.5411 64.9598 29.5411 65.0298C28.3311 65.1198 27.1211 65.2298 25.9211 65.3498C29.0811 63.9598 32.7311 63.6598 36.0411 64.6498ZM26.5111 53.8298C26.6411 56.9798 26.0211 60.1299 24.7911 63.0399C24.3511 59.8999 24.9311 56.5898 26.5111 53.8298ZM24.4211 66.1098C26.1411 66.0798 27.8411 66.0099 29.5611 65.9099C30.5611 65.8499 31.5611 65.7898 32.5611 65.7298C32.9111 65.7098 33.301 65.7098 33.691 65.6998C32.501 66.1398 31.2711 66.4498 30.0111 66.5898C28.7911 66.7298 27.561 66.7198 26.341 66.5798C25.651 66.5098 24.9611 66.3298 24.2611 66.1898C24.3211 66.1598 24.3711 66.1398 24.4211 66.1098ZM31.5611 43.0898C30.5711 44.1998 29.3711 45.1398 28.0511 45.8398C27.4411 46.1598 26.7911 46.4399 26.1311 46.6699C25.8911 46.7599 25.6311 46.8298 25.3711 46.8898C26.8111 45.6498 28.171 44.2899 29.451 42.9199C31.311 40.9399 33.0111 38.8198 34.5511 36.5898C34.2111 38.9798 33.1711 41.2698 31.5611 43.0898ZM34.5611 34.6498C32.8511 37.2798 30.951 39.7698 28.831 42.0698C27.611 43.3898 26.321 44.6398 24.991 45.8398C26.811 41.1098 30.1411 37.1198 34.5611 34.6498ZM25.961 21.6198C25.961 21.6498 25.981 21.6798 25.981 21.7098C25.971 21.7298 25.9511 21.7498 25.9311 21.7698C25.6911 20.4198 25.4211 19.0898 25.3111 17.7098C25.1611 15.8198 25.221 13.9199 25.471 12.0499C25.751 9.97986 26.2911 7.94982 27.0411 6.00982C25.9211 11.1098 25.671 16.4398 25.961 21.6198ZM28.5211 2.76983C28.7811 5.50983 28.7911 8.25982 28.5111 11.0098C28.2211 13.7698 27.621 16.4298 26.841 19.0798C26.721 13.5798 27.4511 8.16983 28.5211 2.76983ZM28.2911 20.8798C30.3311 18.9298 32.5811 17.1899 35.0211 15.7899C36.2211 15.0999 37.461 14.4898 38.721 13.9498C38.491 14.1498 38.2611 14.3599 38.0311 14.5499C37.5111 14.9799 36.971 15.3999 36.441 15.8099C35.331 16.6499 34.1911 17.4398 33.0211 18.1898C31.8511 18.9298 30.651 19.6098 29.441 20.2798C29.061 20.4898 28.6811 20.6798 28.2911 20.8798ZM34.701 19.0798C33.381 19.9398 31.951 20.6098 30.461 21.0898C30.141 21.1898 29.8211 21.2698 29.5111 21.3498C29.6111 21.2998 29.721 21.2398 29.831 21.1898C31.081 20.5598 32.281 19.8498 33.461 19.1098C34.641 18.3698 35.7911 17.5798 36.9011 16.7498C37.4711 16.3298 38.031 15.8898 38.591 15.4398C38.721 15.3298 38.8711 15.2198 39.0211 15.0998C37.8211 16.6598 36.351 17.9998 34.701 19.0798Z" fill="#4D4C51"/>
</svg>
