<svg width="67" height="104" viewBox="0 0 67 104" fill="none" xmlns="http://www.w3.org/2000/svg">
<path d="M65.9196 67.0703C55.8596 66.3503 45.9796 71.1704 40.6596 79.8104C39.6896 81.4004 38.9195 83.0905 38.3195 84.8405C38.1995 82.7405 38.0395 80.6603 37.8395 78.5803C37.7495 77.6703 37.6496 76.7604 37.5496 75.8504C38.1496 73.2104 38.5396 70.4004 39.5296 67.8804C39.6496 68.0304 39.8296 68.1304 40.0596 68.1004C46.7396 67.2104 53.1195 64.6604 58.6195 60.7704C60.1995 59.6604 61.6995 58.4404 63.0995 57.1204C63.4295 56.8204 63.2596 56.1903 62.7796 56.1903C57.9296 56.1903 53.2696 57.6204 48.7496 59.2304C46.5796 60.0104 44.3996 60.8004 42.5496 62.2304C40.7096 63.6504 39.4495 65.6104 38.6095 67.7604C37.9495 69.4404 37.4895 71.2504 37.1995 73.0604C36.8595 70.5504 36.4696 68.0404 36.0096 65.5404C36.5396 63.5904 37.1096 61.6604 37.7696 59.7604C37.8696 59.7504 37.9696 59.7204 38.0596 59.6504C41.1796 57.2604 43.9496 54.4404 46.2996 51.3004C47.4696 49.7304 48.5395 48.0904 49.4895 46.3804C50.4195 44.6904 51.3395 42.9104 51.9695 41.0904C52.1995 40.4604 52.2595 39.7004 51.7095 39.2104C51.1695 38.7304 50.3995 38.8703 49.8195 39.1903C49.0395 39.6203 48.4495 40.3704 47.8495 41.0104C47.1895 41.7304 46.5496 42.4604 45.9296 43.2204C43.3796 46.3504 41.2095 49.7904 39.4595 53.4304C37.8495 56.7604 36.4895 60.3203 35.7095 63.9604C35.1095 60.8404 34.4396 57.7204 33.6596 54.6404C33.4196 53.6704 33.1396 52.7104 32.8796 51.7504C34.0796 50.2104 35.1396 48.5504 36.0496 46.8004C37.8396 46.4604 39.5995 45.4904 41.1095 44.5204C42.6395 43.5304 44.0796 42.4004 45.3896 41.1304C48.0696 38.5404 50.1995 35.4304 51.5695 31.9704C51.7295 31.5604 51.2596 31.2804 50.9196 31.4104C45.0596 33.6704 40.4396 38.6104 38.7596 44.6804C38.7496 44.7004 38.7596 44.7204 38.7496 44.7404C37.9796 45.1504 37.1995 45.5604 36.4395 45.9904C36.6195 45.6304 36.7995 45.2604 36.9695 44.8904C37.0695 44.8104 37.1295 44.6904 37.1095 44.5404C39.4495 39.1304 40.4496 33.0904 40.0596 27.3104C40.0296 26.8704 39.5195 26.6704 39.2395 27.0504C35.4995 32.0004 34.3496 38.7104 36.1796 44.6404C36.1896 44.6604 36.1995 44.6703 36.2095 44.6903C35.2295 46.9003 34.0296 49.0104 32.6796 51.0304C31.9296 48.3004 31.1496 45.5804 30.2796 42.8904C29.8596 41.6004 29.4295 40.3204 28.9895 39.0404C29.0695 38.7204 29.1195 38.3904 29.1895 38.0604C29.3295 37.3304 29.4695 36.6104 29.6095 35.8904C29.6595 35.6804 29.6996 35.4804 29.7496 35.2704C29.8296 35.2604 29.9095 35.2204 29.9895 35.1504C32.2495 33.0204 34.2195 30.5904 35.8295 27.9304C36.6195 26.6204 37.3196 25.2604 37.9296 23.8604C38.2396 23.1404 38.5296 22.4104 38.7896 21.6704C38.9696 21.1304 39.1795 20.5704 39.1895 20.0004C39.1995 18.9104 38.3896 18.1003 37.2896 18.1903C35.9396 18.3003 35.1096 19.5904 34.4196 20.6004C32.5996 23.2604 31.3396 26.2603 30.4096 29.3203C29.8796 31.0703 29.4495 32.8404 29.0895 34.6304C28.8995 35.5404 28.7296 36.4604 28.5596 37.3804C28.5496 37.4704 28.5296 37.5704 28.5096 37.6704C27.7696 35.5904 26.9695 33.5404 26.0895 31.5204C26.1895 31.4404 26.2596 31.3004 26.2496 31.1204C26.2396 31.1104 26.2395 31.0903 26.2395 31.0703C27.0195 30.1803 27.5796 29.1104 28.1196 28.0604C28.7296 26.8604 29.2695 25.6204 29.7395 24.3504C30.7095 21.7704 31.3496 19.1204 31.6396 16.3804C31.6696 16.0204 31.1996 15.9404 31.0096 16.1804C29.1596 18.5404 27.3596 20.8504 26.2496 23.6704C25.7796 24.8504 25.4496 26.0804 25.2796 27.3404C25.1796 28.0404 25.1296 28.7804 25.1596 29.5204C24.3796 27.9404 23.5195 26.4004 22.5995 24.9004C22.6095 24.8404 22.6095 24.7703 22.5995 24.7003C22.5895 24.6903 22.5895 24.6804 22.5895 24.6704C24.7495 22.1604 26.0995 18.8304 26.6895 15.6104C27.3495 12.0704 27.1395 8.38036 25.9595 4.97036C25.8495 4.64036 25.3596 4.44033 25.1496 4.82033C23.4696 7.84033 22.2895 11.1204 21.6895 14.5204C21.1795 17.3804 21.1596 20.2004 21.4096 23.0504C20.8796 22.2804 20.3296 21.5104 19.7496 20.7704C18.9196 19.6904 18.0396 18.6304 17.1796 17.5604C17.2296 17.5104 17.2696 17.4404 17.2596 17.3604C16.9396 12.6004 16.5496 7.82034 16.0096 3.08034C15.8596 1.73034 15.0296 -0.499636 13.2496 0.100364C11.6896 0.630364 11.2495 3.00042 11.0795 4.41042C10.6295 8.26042 12.2196 12.0603 14.2896 15.2103C14.4496 15.4603 14.6296 15.7103 14.7996 15.9603C13.0496 14.8403 11.0296 14.0503 9.12956 13.4603C6.98956 12.8103 4.47959 12.1604 2.28959 12.9304C1.37959 13.2404 0.359501 13.8804 0.0695013 14.8604C-0.270499 15.9804 0.69955 16.6604 1.61955 16.9904C4.18955 17.9204 6.97961 18.1704 9.67961 18.3904C11.2096 18.5104 12.7496 18.6204 14.2696 18.8104C15.0796 18.9104 15.8996 19.0504 16.6596 19.3804C17.4096 19.7104 17.8495 20.2804 18.4395 20.8104C18.4495 20.8204 18.4595 20.8203 18.4695 20.8303C19.7095 22.4203 20.9095 24.0204 21.9495 25.7504C22.5295 26.7004 23.0595 27.6704 23.5695 28.6604C22.8395 28.0004 22.0496 27.3904 21.2696 26.8104C19.8696 25.7904 18.3895 24.9004 16.8495 24.1304C13.7895 22.5904 10.5096 21.5304 7.12956 20.9904C5.65956 20.7504 3.92952 20.3804 2.45952 20.7704C1.32952 21.0604 0.369614 22.0404 0.809614 23.2704C1.20961 24.3904 2.46956 24.9504 3.50956 25.3004C5.16956 25.8504 6.8595 26.2804 8.5695 26.6204C12.3995 27.3804 16.3195 27.6203 20.2095 27.3203C20.3095 27.3103 20.3895 27.2704 20.4495 27.2304C20.5495 27.2904 20.6496 27.3504 20.7496 27.4104C21.9696 28.2404 23.0996 29.1804 24.2596 30.0904C25.3996 32.4904 26.3996 34.9503 27.2896 37.4503C27.4896 38.0003 27.6595 38.5604 27.8495 39.1204C27.4395 38.5304 26.9995 37.9704 26.5695 37.4604C25.1695 35.8304 23.4996 34.4204 21.6396 33.3404C17.9996 31.2404 13.7395 30.4504 9.58952 31.0004C7.24952 31.3204 4.97959 32.0603 2.90959 33.2003C2.53959 33.4003 2.55954 33.9704 2.97954 34.1004C6.25954 35.1004 9.60957 35.7804 13.0196 36.1404C15.1196 36.3704 17.2895 36.5104 19.4495 36.4904C17.3495 37.2404 15.4696 38.4904 13.9196 40.1104C13.1196 40.9604 12.3896 41.9004 11.7796 42.9004C11.1896 43.8804 10.5796 44.9904 10.3096 46.1104C10.1496 46.7504 10.2895 47.3603 10.7095 47.6903C10.7395 47.7603 10.7996 47.8004 10.8796 47.8004C11.0896 47.9104 11.3396 47.9603 11.6396 47.9403C12.6696 47.8703 13.7795 47.3603 14.7095 46.9403C16.8295 45.9803 18.7595 44.5604 20.3395 42.8504C22.0595 40.9804 23.3695 38.7404 24.2095 36.3504C24.5895 36.6804 24.9695 37.0204 25.3195 37.3904C26.0895 38.1804 26.7896 39.0403 27.4196 39.9403C27.9896 40.7603 28.4495 41.6404 28.9595 42.4804C29.3895 43.8304 29.7995 45.1804 30.1995 46.5304C29.6695 46.2504 29.0996 46.0203 28.5596 45.8303C27.5396 45.4603 26.4796 45.2004 25.3996 45.0604C23.2496 44.7804 21.0495 44.9604 18.9695 45.6004C18.6795 45.6904 18.5095 46.1404 18.8395 46.3104C22.4695 48.2204 26.6996 48.8704 30.7596 48.4904C30.8696 48.8704 30.9895 49.2504 31.0895 49.6304C31.7395 52.0304 32.3296 54.4404 32.8896 56.8604C30.7296 54.4504 27.5695 52.8504 24.5695 51.9104C20.2195 50.5504 15.5296 50.2704 11.0396 50.9904C8.47959 51.4004 5.98955 52.1604 3.61955 53.2104C3.19955 53.4004 3.27951 54.0504 3.69951 54.1804C11.2895 56.6004 19.5395 56.7403 27.2095 54.5803C27.4095 54.5203 27.5295 54.3804 27.5795 54.2204C28.1495 54.5104 28.7096 54.8204 29.2596 55.1504C30.8396 56.1304 32.1896 57.3504 33.3096 58.7904C34.0596 62.2304 34.6996 65.6904 35.2596 69.1704C35.2296 69.1104 35.1996 69.0504 35.1696 68.9904C34.1796 66.9404 32.8495 65.0204 31.0995 63.5404C27.4095 60.4204 22.1995 59.8404 17.5995 60.8504C15.2295 61.3604 12.9596 62.2804 10.7996 63.3804C9.6896 63.9404 8.60959 64.5604 7.53959 65.2104C6.62959 65.7704 5.62951 66.2904 4.94951 67.1304C4.40951 67.8104 4.1395 68.7304 4.6895 69.4904C5.3695 70.4204 6.68953 70.3804 7.71953 70.4004C9.91953 70.4404 12.1296 70.2004 14.2696 69.7104C19.0996 68.5804 23.5996 66.1503 27.1496 62.6903C27.2096 62.6203 27.2596 62.5504 27.2896 62.4804C28.1196 62.8104 28.9296 63.2304 29.6796 63.7404C31.6596 65.1004 33.0895 67.0504 34.1995 69.1504C34.8295 70.3504 35.2996 71.6204 35.7996 72.8804C35.8696 73.4204 35.9496 73.9604 36.0196 74.5104C36.2496 76.3204 36.4295 78.1404 36.5895 79.9704C36.5495 79.8604 36.5195 79.7604 36.4795 79.6504C35.6795 77.5204 34.6096 75.4103 33.2596 73.5703C31.8696 71.6903 29.9795 70.4303 27.6095 70.3203C25.4195 70.2103 23.2095 70.8704 21.1995 71.6804C17.1495 73.3004 13.5695 76.0904 10.9895 79.6104C10.4395 80.3604 9.76955 81.1903 9.61955 82.1303C9.47955 83.0003 9.94952 83.8004 10.8395 83.9704C11.8695 84.1704 12.9796 83.5403 13.8896 83.1603C14.9796 82.7003 16.0495 82.2003 17.0895 81.6703C21.7495 79.2903 26.0695 76.1504 29.6895 72.3704C29.7795 72.2704 29.8195 72.1704 29.8295 72.0604C30.5695 72.4104 31.2395 72.9103 31.8395 73.5803C33.3595 75.2903 34.4095 77.4504 35.3295 79.5304C35.9595 80.9304 36.4396 82.3905 36.8896 83.8705C36.8996 84.1205 36.9096 84.3803 36.9196 84.6403C34.8196 80.1803 29.1096 78.0703 24.3996 79.3303C24.0796 79.4203 23.8596 79.8604 24.1396 80.1204C27.7996 83.5204 32.2096 85.9703 37.0496 87.2003C37.2096 91.3703 37.1996 95.5504 36.9996 99.7204C36.9396 100.76 36.8795 101.8 36.8195 102.84C36.7695 103.71 38.0896 103.77 38.1696 102.9C38.3196 101.01 38.4195 99.1003 38.4795 97.2003C43.3695 93.7003 47.2495 88.6103 50.0995 83.3803C50.3195 82.9803 50.7396 82.4404 50.6696 81.9604C50.5896 81.3504 49.9496 81.3104 49.4996 81.4804C48.3396 81.9004 47.2195 82.5203 46.1895 83.2003C44.0795 84.5803 42.2296 86.3403 40.7796 88.4103C39.9696 89.5703 39.2795 90.8303 38.7395 92.1403C38.6695 92.3003 38.6096 92.4703 38.5396 92.6303C38.5396 90.6603 38.4996 88.7004 38.4096 86.7304C39.2096 84.2804 40.3396 81.9304 41.7596 79.7804C41.8896 79.9004 42.0596 79.9604 42.2696 79.9004C49.0496 78.1204 55.5395 75.2904 61.4395 71.5004C63.1095 70.4304 64.7196 69.2904 66.2696 68.0604C66.6896 67.7504 66.3996 67.1003 65.9196 67.0703ZM45.2996 65.8604C44.0296 66.2104 42.7495 66.4703 41.4495 66.7003C44.3095 65.1603 47.1495 63.6204 50.1195 62.3004C51.9795 61.4704 53.8496 60.6803 55.7496 59.9503C56.7296 59.5803 57.7195 59.2204 58.7095 58.8804C59.0695 58.7604 59.4396 58.6404 59.7996 58.5204C55.5096 61.8904 50.5696 64.4004 45.2996 65.8604ZM42.5895 63.3604C44.2595 61.8904 46.4496 61.1304 48.5196 60.4004C50.6796 59.6404 52.8496 58.9003 55.0596 58.3303C56.6296 57.9203 58.2195 57.6103 59.8195 57.4403C59.3995 57.5903 58.9895 57.7604 58.5995 57.9004C57.6395 58.2404 56.6895 58.5904 55.7395 58.9604C53.7395 59.7304 51.7695 60.5704 49.8295 61.4804C46.4395 63.0904 43.0595 64.8303 39.9395 66.9403C40.5695 65.6203 41.4095 64.4004 42.5895 63.3604ZM48.9395 33.7804C49.3195 33.4704 49.7496 33.1904 50.1396 32.8604C48.7596 35.6804 46.9196 38.2703 44.6596 40.4503C43.4196 41.6503 42.0695 42.7304 40.6195 43.6604C41.8095 41.6404 43.1495 39.7203 44.6995 37.9503C45.5695 36.9503 46.4895 36.0004 47.4495 35.0904C47.9295 34.6404 48.4295 34.2004 48.9395 33.7804ZM47.6095 34.1204C47.4495 34.2604 47.2795 34.4004 47.1195 34.5504C46.0895 35.4904 45.1096 36.4904 44.1796 37.5304C42.8996 38.9804 41.7296 40.5104 40.6596 42.1204C42.1696 38.8704 44.5995 36.0704 47.6095 34.1204ZM38.6596 29.6604C38.6396 29.7604 38.6195 29.8704 38.5995 29.9704C38.4495 30.6604 38.3195 31.3504 38.1895 32.0404C37.9495 33.3504 37.7296 34.6504 37.5296 35.9604C37.3296 37.2804 37.1295 38.5904 36.9495 39.9204C36.8595 40.6204 36.7695 41.3204 36.6895 42.0204C36.6795 42.1504 36.6496 42.2903 36.6296 42.4403C35.7996 38.0903 36.5296 33.5404 38.6596 29.6604ZM37.6895 40.1903C37.8295 38.8203 37.9796 37.4604 38.1796 36.1004C38.3896 34.7404 38.6095 33.3704 38.8595 32.0104C38.9795 31.3504 39.0995 30.7004 39.2295 30.0404C39.2395 29.9804 39.2496 29.9104 39.2696 29.8404C39.2996 33.3304 38.8395 36.8304 37.8595 40.1804C37.7795 40.4404 37.6995 40.7004 37.6095 40.9604C37.6395 40.7004 37.6595 40.4403 37.6895 40.1903ZM32.2195 30.7604C32.9195 29.4504 33.6096 28.1304 34.2896 26.8104C35.5796 24.2904 36.8296 21.7404 38.0496 19.1804C38.2796 19.3604 38.4196 19.6604 38.4096 20.0404C38.3996 20.5604 38.1896 21.0604 38.0096 21.5404C37.7596 22.2104 37.4895 22.8604 37.1895 23.5104C36.6095 24.8004 35.9295 26.0504 35.1895 27.2504C34.1195 28.9804 32.8896 30.5904 31.5196 32.0904C31.7496 31.6404 31.9795 31.2004 32.2195 30.7604ZM31.7496 30.6004C31.2396 31.5404 30.6696 32.4604 30.1596 33.4104C30.2796 32.8704 30.4096 32.3304 30.5396 31.8004C31.2496 29.0504 32.1395 26.3204 33.4495 23.7904C34.0795 22.5704 34.7995 21.3904 35.6195 20.2904C35.9995 19.7904 36.4595 19.2004 37.0995 19.0304C36.0595 21.6804 34.9295 24.2904 33.6895 26.8504C33.0695 28.1104 32.4196 29.3604 31.7496 30.6004ZM12.8395 10.6204C12.1795 8.90038 11.7795 7.03044 11.8695 5.18044C11.9095 4.42044 12.3795 1.06034 13.5895 0.830344C13.5095 1.25034 13.4995 1.71038 13.4795 2.12038C13.4295 2.85038 13.4096 3.58045 13.4196 4.31045C13.4196 5.77045 13.5395 7.22043 13.7195 8.67043C13.8995 10.1204 14.1795 11.5604 14.5695 12.9804C14.7395 13.5704 14.9195 14.1804 15.1195 14.7804C14.2195 13.4704 13.4195 12.1104 12.8395 10.6204ZM15.3495 12.7103C14.9295 11.3803 14.5995 10.0104 14.3495 8.6404C14.0895 7.2504 13.9696 5.84033 13.9296 4.44033C13.9096 3.74033 13.9095 3.04035 13.9395 2.34035C13.9595 1.88035 14.0396 1.3704 14.0396 0.890403C14.1096 0.920403 14.1796 0.940379 14.2496 0.990379C15.0196 1.50038 15.1595 2.74034 15.2395 3.58034C15.3595 4.73034 15.4695 5.88043 15.5795 7.04043C15.8095 9.34043 16.0396 11.6503 16.2896 13.9503C16.3496 14.5503 16.4195 15.1404 16.4795 15.7404C16.0795 14.7404 15.6695 13.7503 15.3495 12.7103ZM11.6396 15.3303C11.4496 15.2603 11.2695 15.2004 11.0895 15.1404C9.58952 14.6804 8.04956 14.3604 6.49956 14.1204C5.69956 14.0004 4.88952 13.9004 4.08952 13.8104C3.74952 13.7704 3.36955 13.6904 2.98955 13.6404C4.66955 13.2004 6.61952 13.6704 8.20952 14.1004C9.37952 14.4204 10.5196 14.8503 11.6396 15.3303ZM1.87956 14.0904C1.90956 14.0704 1.93953 14.0604 1.96953 14.0504C2.47953 14.2304 3.06953 14.2503 3.59953 14.3203C4.41953 14.4403 5.22959 14.5603 6.03959 14.7103C7.55959 14.9903 9.06959 15.3004 10.5396 15.7604C10.8596 15.8504 11.1695 15.9603 11.4795 16.0703C11.0395 15.9903 10.5996 15.9204 10.1696 15.8404C8.5496 15.5704 6.9296 15.3504 5.2996 15.1804C4.4596 15.1004 3.62959 15.0204 2.78959 14.9704C2.21959 14.9304 1.60957 14.8504 1.01957 14.8904C1.19957 14.5504 1.58956 14.2604 1.87956 14.0904ZM13.4495 17.7204C10.9795 17.4704 8.48958 17.4004 6.02958 17.0604C4.76958 16.8904 3.5295 16.6404 2.3195 16.2604C1.8995 16.1304 1.16953 15.9704 0.969526 15.5104C1.48953 15.5804 2.02958 15.5804 2.52958 15.6104C3.28958 15.6704 4.05961 15.7304 4.80961 15.8004C6.32961 15.9504 7.84953 16.1404 9.34953 16.3804C10.8195 16.6204 12.2995 16.8604 13.7295 17.2504C14.0695 17.3504 14.4095 17.4503 14.7295 17.5703C14.9595 17.7103 15.1796 17.8504 15.3996 17.9904C14.7496 17.8704 14.0895 17.7904 13.4495 17.7204ZM22.5496 14.7604C23.0196 11.9304 23.9295 9.18038 25.2195 6.62038C25.0995 7.79038 25.0096 8.9704 24.8796 10.1404C24.6996 11.7904 24.4696 13.4403 24.1696 15.0703C23.8896 16.6203 23.5596 18.1603 23.1796 19.6903C22.9796 20.4603 22.7796 21.2204 22.5596 21.9804C22.4896 22.2204 22.3996 22.4804 22.3096 22.7404C21.9896 20.0904 22.1096 17.3504 22.5496 14.7604ZM23.2596 22.5304C23.2896 22.3404 23.3296 22.1604 23.3796 22.0004C23.5796 21.2404 23.7695 20.4703 23.9495 19.7003C24.3095 18.1703 24.6196 16.6303 24.8796 15.0803C25.2896 12.6503 25.6595 10.1104 25.7395 7.61037C26.2595 10.1604 26.3096 12.7904 25.8696 15.3704C25.5796 17.0604 25.0996 18.7104 24.4196 20.2804C24.0796 21.0604 23.6896 21.8004 23.2596 22.5304ZM10.8896 26.0703C9.34957 25.8503 7.81961 25.5404 6.30961 25.1504C5.03961 24.8204 3.57953 24.5404 2.46953 23.8104C2.24953 23.6704 2.01954 23.4904 1.85954 23.2704C3.21954 23.7204 4.6795 23.9604 6.0695 24.2804C7.6595 24.6404 9.25952 25.0104 10.8395 25.3904C12.2995 25.7404 13.7495 26.1204 15.2195 26.4104C15.2895 26.4304 15.3596 26.4403 15.4296 26.4503C13.9096 26.4003 12.3996 26.2803 10.8896 26.0703ZM17.2596 25.7304C16.5596 25.6904 15.8696 25.6004 15.1696 25.4804C13.6396 25.2204 12.1195 24.8803 10.5995 24.5703C9.07953 24.2703 7.55959 23.9304 6.03959 23.6104C4.58959 23.3004 3.11957 22.8804 1.63957 22.7404C1.63957 22.7304 1.62956 22.7103 1.62956 22.7003C1.60956 21.9703 2.40955 21.7004 2.98955 21.6004C3.67955 21.4904 4.37961 21.5804 5.05961 21.6404C5.91961 21.7304 6.76954 21.8404 7.60954 21.9904C10.6095 22.5304 13.5396 23.5003 16.2796 24.8203C16.8596 25.1003 17.4195 25.4104 17.9795 25.7304C17.7395 25.7404 17.4996 25.7504 17.2596 25.7304ZM26.1895 27.3904C26.3595 26.1404 26.7195 24.9204 27.1995 23.7604C27.9495 21.9104 29.0295 20.1404 30.1895 18.4704C29.2495 20.1604 28.5395 21.9904 27.8295 23.8004C27.2395 25.3204 26.6696 26.8604 26.1296 28.4004C26.1296 28.0704 26.1395 27.7304 26.1895 27.3904ZM26.5396 29.2704C27.1296 27.5304 27.7496 25.8104 28.3996 24.1004C29.1196 22.2204 29.9396 20.3603 30.5496 18.4403C30.1396 20.3603 29.6096 22.2604 28.9296 24.0904C28.4696 25.3304 27.9395 26.5304 27.3595 27.7104C27.1095 28.2404 26.8196 28.7504 26.5396 29.2704ZM4.51957 33.5004C7.68957 32.0304 11.2495 31.4903 14.7295 31.9503C17.1595 32.2703 19.4795 33.1304 21.5695 34.4004C21.3195 34.3604 21.0795 34.3204 20.8495 34.2804C19.9895 34.1304 19.1396 33.9904 18.2896 33.8704C16.6096 33.6404 14.9195 33.4704 13.2295 33.3604C10.3495 33.1704 7.45952 33.1904 4.58952 33.5204C4.56952 33.5104 4.53957 33.5004 4.51957 33.5004ZM18.1796 35.4204C16.5096 35.3904 14.8396 35.2904 13.1796 35.1204C10.8496 34.8704 8.53956 34.4604 6.24956 33.9204C8.56956 33.8704 10.8795 33.8804 13.1895 34.0604C14.8895 34.1904 16.5696 34.4004 18.2496 34.7104C19.0596 34.8604 19.8696 35.0204 20.6796 35.2104C20.8696 35.2604 21.0596 35.3104 21.2496 35.3604C20.2196 35.4004 19.1996 35.4304 18.1796 35.4204ZM11.1995 46.9004C11.0895 46.7404 11.1895 46.4004 11.2295 46.2404C11.7695 44.2704 12.9895 42.3804 14.3395 40.8704C15.9095 39.1204 17.8395 37.7404 19.9495 36.7304C20.0495 36.6804 20.0696 36.5804 20.0496 36.4904C20.3096 36.4804 20.5795 36.4603 20.8395 36.4503C18.1095 40.3203 14.8095 43.7704 11.3295 46.9704C11.2795 46.9504 11.2295 46.9404 11.1995 46.9004ZM16.0695 45.1004C15.2495 45.6004 14.3896 46.0304 13.4996 46.3904C13.0496 46.5804 12.5896 46.7404 12.1296 46.8704C12.1096 46.8804 12.0895 46.8804 12.0795 46.8904C15.7895 43.7904 19.0696 40.2304 22.1796 36.5204C22.2296 36.4604 22.2496 36.4104 22.2696 36.3504C22.5196 36.3304 22.7796 36.3104 23.0296 36.2804C21.8896 39.9404 19.3295 43.0904 16.0695 45.1004ZM25.1895 45.8104C26.1995 45.9304 27.1996 46.1504 28.1696 46.4804C28.3696 46.5404 28.5596 46.6304 28.7596 46.7104C28.6196 46.7004 28.4895 46.7004 28.3495 46.6804C27.4295 46.6004 26.5095 46.5004 25.5895 46.4304C23.9195 46.3004 22.2495 46.1604 20.5795 46.0204C22.0995 45.7204 23.6495 45.6304 25.1895 45.8104ZM22.1396 46.6804C23.2096 46.8504 24.2795 47.0204 25.3495 47.1704C26.2695 47.3004 27.1895 47.3904 28.1095 47.4904C28.5695 47.5304 29.0296 47.6004 29.4996 47.6604C26.9896 47.7604 24.5296 47.4004 22.1396 46.6804ZM5.46953 53.5904C11.4595 51.2704 18.4896 50.9104 24.6196 52.9904C24.3396 52.9804 24.0596 52.9804 23.7796 52.9704C22.8896 52.9404 22.0096 52.9004 21.1296 52.8804C19.2396 52.8404 17.3695 52.7903 15.4795 52.8303C12.2395 52.9003 8.9996 53.1304 5.7996 53.6604C5.6896 53.6404 5.57953 53.6204 5.46953 53.5904ZM6.96953 53.9503C9.86953 53.7103 12.7696 53.5004 15.6796 53.4704C17.4796 53.4504 19.2895 53.4603 21.0895 53.5803C21.9795 53.6403 22.8595 53.7104 23.7395 53.8104C24.1495 53.8604 24.5695 53.9304 24.9795 53.9904C19.0595 55.3504 12.8795 55.3303 6.96953 53.9503ZM51.0096 40.7104C50.9796 40.8004 50.9496 40.8804 50.9296 40.9304C49.6796 44.2704 47.8395 47.4304 45.7395 50.2904C43.9495 52.7304 41.8695 54.9503 39.5895 56.9503C39.7895 56.7303 39.9896 56.5104 40.1796 56.2804C40.7896 55.5604 41.3695 54.8104 41.9495 54.0604C43.1095 52.5604 44.2196 51.0204 45.2996 49.4704C47.2896 46.6004 49.2096 43.6904 51.0096 40.7104ZM38.9296 57.0104C38.7896 57.2204 38.6696 57.4304 38.5496 57.6504C38.7796 57.0704 39.0096 56.4904 39.2596 55.9204C40.7496 52.5704 42.6196 49.3904 44.7696 46.4304C45.8396 44.9704 46.9696 43.5604 48.1796 42.2204C48.7396 41.5904 49.2995 40.8904 49.9495 40.3604C50.0095 40.3204 50.0995 40.2504 50.1895 40.1804C48.4795 43.2204 46.6795 46.2103 44.6995 49.0803C43.6295 50.6403 42.5096 52.1703 41.3896 53.6903C40.8496 54.4203 40.2896 55.1404 39.7496 55.8604C39.4696 56.2404 39.1896 56.6204 38.9296 57.0104ZM5.57951 68.5604C5.55951 68.4104 5.58954 68.2404 5.72954 68.0204C6.24954 67.2004 7.25961 66.7204 8.05961 66.2404C9.00961 65.6604 9.96951 65.1004 10.9495 64.5904C12.9195 63.5504 14.9696 62.6704 17.1296 62.1104C19.6896 61.4504 22.4695 61.2803 25.0695 61.8303C21.8195 62.7703 18.6096 63.8004 15.4096 64.9104C13.7096 65.4904 12.0195 66.0904 10.3395 66.7104C9.46952 67.0304 8.60956 67.3504 7.74956 67.6804C7.02956 67.9604 6.26951 68.2104 5.57951 68.5604ZM16.3395 67.9403C14.4395 68.5603 12.4695 68.9804 10.4895 69.1604C9.49954 69.2504 8.49956 69.2804 7.49956 69.2504C7.07956 69.2304 6.3596 69.2104 5.9196 68.9904C6.5196 68.8104 7.10951 68.5604 7.69951 68.3404C8.55951 68.0204 9.4296 67.7104 10.2996 67.4004C12.0796 66.7604 13.8696 66.1503 15.6696 65.5803C18.8696 64.5603 22.1095 63.6604 25.3595 62.7904C22.7295 65.0904 19.6595 66.8603 16.3395 67.9403ZM11.6696 80.6404C13.9096 77.4404 17.0096 74.8604 20.5496 73.2104C22.3096 72.3804 24.2296 71.7104 26.1796 71.5004C26.7396 71.4404 27.2696 71.4504 27.7896 71.5004C24.6096 72.8104 21.5296 74.3704 18.6296 76.2204C15.8296 77.9904 13.0895 79.9805 10.7295 82.3305C10.7895 81.7505 11.4696 80.9304 11.6696 80.6404ZM19.2095 79.1804C17.4495 80.2304 15.6296 81.1604 13.7596 81.9704C13.2796 82.1704 12.7995 82.3704 12.3195 82.5604C12.0095 82.6904 11.3095 83.0204 10.9395 82.8104C13.5695 80.6604 16.2196 78.5504 19.1396 76.7704C21.9696 75.0404 24.9496 73.6004 28.0396 72.4104C25.3396 74.9804 22.4195 77.2804 19.2095 79.1804ZM25.5396 80.0703C27.7996 79.6703 30.1595 80.0005 32.2095 81.0905C33.7595 81.9105 34.9996 83.1204 36.0096 84.5204C34.5696 83.6704 33.0895 82.9004 31.5695 82.2204C30.4695 81.7304 29.3595 81.2804 28.2195 80.8904C27.3595 80.6004 26.4795 80.3004 25.5895 80.1104C25.5695 80.1004 25.5496 80.0903 25.5396 80.0703ZM26.6696 80.9904C27.1296 81.1504 27.5896 81.3004 28.0396 81.4704C29.1696 81.9004 30.2896 82.3703 31.3796 82.9003C33.1696 83.7603 34.8896 84.7803 36.5296 85.9103C32.9696 84.9103 29.5996 83.2504 26.6696 80.9904ZM49.0895 82.7104C49.2095 82.6404 49.3495 82.5704 49.4795 82.5104C49.3695 82.6804 49.2595 82.8503 49.2095 82.9303C49.0095 83.2903 48.8095 83.6404 48.5995 83.9904C48.2095 84.6304 47.8196 85.2603 47.4096 85.8803C46.5296 87.2103 45.5795 88.5104 44.5795 89.7604C42.8095 91.9704 40.8295 93.9804 38.8195 95.9804C39.0995 95.5804 39.2996 95.0503 39.5196 94.6703C39.8696 94.0503 40.2295 93.4405 40.6095 92.8405C41.3895 91.6005 42.2195 90.4004 43.1095 89.2404C43.9995 88.0704 44.9595 86.9505 45.9595 85.8705C46.9495 84.8005 48.0596 83.8404 49.0596 82.7704C49.0796 82.7504 49.0695 82.7304 49.0895 82.7104ZM42.4996 87.9704C43.4696 86.7504 44.5995 85.6203 45.8395 84.6703C46.2295 84.3803 46.6196 84.1205 47.0296 83.8605C46.4896 84.3905 45.9695 84.9504 45.4595 85.4904C44.4695 86.5504 43.5296 87.6504 42.6296 88.8004C41.7296 89.9504 40.8795 91.1305 40.0795 92.3605C39.9095 92.6405 39.7395 92.9304 39.5695 93.2104C39.7095 92.7904 39.8596 92.3804 40.0396 91.9704C40.6796 90.5404 41.5196 89.1904 42.4996 87.9704ZM45.6496 75.1504C49.1096 71.8804 53.4695 69.6404 58.1195 68.6504C59.6695 68.3304 61.2495 68.1504 62.8295 68.1104C61.3695 68.6004 59.9296 69.1804 58.5096 69.7304C56.4296 70.5304 54.3695 71.4204 52.3695 72.3804C50.3595 73.3504 48.3895 74.4104 46.4695 75.5504C45.5195 76.1204 44.5696 76.7003 43.6496 77.3203C44.2796 76.5603 44.9396 75.8204 45.6496 75.1504ZM43.2095 78.3604C43.5095 78.1604 43.7995 77.9604 44.0895 77.7804C44.9695 77.2204 45.8696 76.6804 46.7696 76.1504C48.6696 75.0504 50.6195 74.0404 52.6095 73.1104C54.5795 72.2004 56.5795 71.3704 58.6095 70.6404C59.7795 70.2204 60.9696 69.8904 62.1696 69.5604C56.3496 73.4604 49.9695 76.4604 43.2095 78.3604Z" fill="#4D4C51"/>
</svg>
