<svg width="77" height="130" viewBox="0 0 77 130" fill="none" xmlns="http://www.w3.org/2000/svg">
<path d="M53.06 24.937C52.99 23.893 52.6401 22.88 52.1001 21.991C50.8401 19.944 48.4899 18.722 46.1299 18.584C46.1099 18.583 46.1001 18.588 46.0901 18.589C46.3701 18.145 46.6301 17.685 46.8501 17.205C47.4201 15.97 47.7 14.6 47.49 13.246C47.31 12.032 46.7699 10.851 45.8799 9.993C44.7999 8.956 43.4 8.74001 41.97 8.67301C41.13 8.63401 40.31 8.579 39.5 8.385C38.68 8.192 37.9001 7.904 37.1201 7.612C36.2001 7.267 35.1899 6.896 34.1499 6.638C34.1199 6.611 34.09 6.60001 34.05 6.61301C32.11 6.14401 30.1 6.104 28.49 7.478C28.26 7.673 28.0601 7.895 27.8701 8.135C26.7101 7.846 25.4699 7.981 24.4299 8.746C23.3399 9.536 22.6401 10.722 21.6101 11.572C20.5001 12.489 19.2 13.138 18 13.922C16.77 14.728 15.55 15.74 14.96 17.132C14.48 18.273 14.43 19.777 15.23 20.79C15 20.837 14.78 20.894 14.56 20.962C13.2 21.382 11.94 22.306 11.21 23.539C10.86 24.134 10.6301 24.801 10.5901 25.493C10.5401 26.302 10.75 27.091 11.06 27.832C11.38 28.606 11.8099 29.332 12.1499 30.095C12.5099 30.899 12.7399 31.743 12.9099 32.606C13.2499 34.244 13.4701 35.946 14.3701 37.393C15.8201 39.718 18.6999 41.066 21.4099 40.753C21.4699 40.746 21.5201 40.735 21.5801 40.726C21.4101 41.435 21.2501 42.148 21.1001 42.863C21.0401 43.163 20.9799 43.464 20.9199 43.763C20.9099 43.806 20.9099 43.85 20.8999 43.893C20.5799 45.502 20.3 47.118 20.01 48.729C19.5 51.595 19.0401 54.468 18.6001 57.347C17.7401 63.104 17.03 68.881 16.48 74.676C16.02 79.555 15.6799 84.445 15.4399 89.339C14.5099 83.951 15.42 78.434 16.28 73.062C16.78 69.922 17.2101 66.784 17.3501 63.605C17.4801 60.512 17.3901 57.41 17.0701 54.33C16.8801 52.58 16.62 50.84 16.27 49.113C16.1 48.25 15.92 47.39 15.71 46.535C15.62 46.163 15.5299 45.791 15.4299 45.42C15.3599 44.982 15.2799 44.547 15.1799 44.115C15.1799 44.095 15.1599 44.084 15.1499 44.073C15.1499 44.047 15.1499 44.02 15.1399 43.994C15.1299 43.844 14.9199 43.881 14.9199 44.023C14.8799 44.032 14.8401 44.064 14.8501 44.112C14.8701 44.227 14.8999 44.342 14.9299 44.457C15.0299 47.594 14.8599 50.715 14.4399 53.827C14.0199 57.047 13.3999 60.237 12.8799 63.443C12.3599 66.655 11.9499 69.889 11.8999 73.147C11.8599 76.277 12.1199 79.418 12.6599 82.501C13.2299 85.719 14.0801 88.943 15.3201 91.977C15.3201 91.988 15.3201 91.998 15.3201 92.009C15.1501 96.119 15.07 100.232 15.06 104.345C14.9 103.017 14.6801 101.696 14.3601 100.398C13.8701 98.415 13.0999 96.542 12.1599 94.732C11.2099 92.905 10.12 91.149 9.21996 89.294C8.53996 87.895 7.9601 86.417 7.6101 84.891C7.6101 84.857 7.6101 84.824 7.6101 84.79C7.6101 84.773 7.60008 84.766 7.59008 84.761C7.51008 84.389 7.43988 84.014 7.38988 83.636C7.37988 83.296 7.3801 82.957 7.3601 82.618C7.3501 82.547 7.23997 82.549 7.22997 82.619C7.22997 82.627 7.22997 82.635 7.22997 82.642C7.22997 82.648 7.21996 82.654 7.21996 82.663C7.21996 82.703 7.21997 82.742 7.22997 82.781C7.20997 83.036 7.19994 83.292 7.19994 83.548C7.18994 83.553 7.17992 83.562 7.17992 83.575C7.16992 83.85 7.17993 84.126 7.18993 84.403C7.18993 84.818 7.19994 85.233 7.19994 85.647C7.21994 86.682 7.25007 87.718 7.33007 88.751C7.48007 90.792 7.80995 92.834 8.45995 94.78C9.72995 98.603 12.21 101.865 13.79 105.546C14.37 106.873 14.79 108.232 15.03 109.631C15.05 110.34 15.0799 111.048 15.1299 111.756C15.1699 113.879 15.22 116.001 15.31 118.122C15.42 121.025 15.53 123.941 15.8 126.835C15.86 127.552 15.94 128.263 16.04 128.976C16.08 129.234 16.52 129.249 16.52 128.97C16.53 126.883 16.4 124.793 16.28 122.707C16.43 121.714 16.56 120.715 16.71 119.721C16.92 118.392 17.1499 117.067 17.4299 115.751C17.9899 113.113 18.7501 110.506 19.8201 108.029C20.3701 106.782 20.99 105.571 21.71 104.415C22.41 103.29 23.1899 102.217 23.9499 101.135C25.4899 98.945 26.9001 96.701 27.5801 94.082C28.3701 91.049 28.34 87.873 28.24 84.763C28.24 84.537 27.8801 84.553 27.8501 84.768C27.2101 89.983 23.26 93.879 20.3 97.921C18.79 99.982 17.52 102.182 16.74 104.623C16.34 105.858 16.0601 107.125 15.8601 108.406C15.8501 108.389 15.8401 108.371 15.8301 108.354C15.7901 103.627 15.84 98.898 16 94.173C16.1 91.148 16.2399 88.126 16.4199 85.105C17.0399 83.471 17.8401 81.924 18.8401 80.463C20.2701 78.355 21.9799 76.45 23.6999 74.573C25.4199 72.69 27.1299 70.806 28.6599 68.755C30.1099 66.799 31.4301 64.741 32.6001 62.601C33.6901 60.598 34.73 58.508 35.47 56.337C35.51 56.272 35.5501 56.209 35.5901 56.144C35.6301 56.077 35.6201 56.008 35.5901 55.953C35.6701 55.704 35.7501 55.454 35.8301 55.202C35.8901 55.118 35.95 55.038 36.01 54.953C36.1 54.824 35.91 54.681 35.81 54.805C35.81 54.813 35.8 54.82 35.8 54.828C35.73 54.795 35.6401 54.81 35.6001 54.904C35.5501 55.026 35.4899 55.149 35.4399 55.271C33.9899 57.048 32.3601 58.619 30.6101 60.112C28.7301 61.723 26.79 63.27 25.04 65.035C21.66 68.457 19.1001 72.689 17.5801 77.247C17.2501 78.217 16.98 79.205 16.75 80.204C16.83 79.079 16.92 77.954 17.01 76.829C17.27 73.721 17.5699 70.617 17.9199 67.517C18.3999 66.336 19.01 65.217 19.76 64.172C20.75 62.784 21.9101 61.528 23.1201 60.324C25.4801 57.97 28.0299 55.769 29.9299 53.001C30.9399 51.521 31.7501 49.871 32.1201 48.106C32.6301 48.172 33.1499 48.255 33.6699 48.354C34.7599 48.562 35.88 48.772 36.99 48.663C38.95 48.471 40.4201 47.098 41.0801 45.292C41.5901 43.917 41.5901 42.473 41.3701 41.053C42.4301 41.093 43.5201 41.015 44.5701 40.849C45.6701 40.673 46.77 40.354 47.76 39.818C48.62 39.35 49.41 38.726 50.01 37.943C50.66 37.093 51.0099 36.093 51.1499 35.041C51.3199 33.878 51.2699 32.698 51.4099 31.533C51.5599 30.34 52.0299 29.267 52.4599 28.156C52.8599 27.118 53.14 26.059 53.06 24.937ZM11.3301 93.918C12.3101 95.732 13.17 97.586 13.75 99.568C14.32 101.542 14.6301 103.584 14.8201 105.628C14.8301 105.752 14.8401 105.876 14.8401 106C14.6401 105.45 14.45 104.896 14.28 104.334C13.81 102.764 13.44 101.167 13.02 99.582C12.61 98.052 12.1701 96.525 11.5701 95.061C10.9101 93.471 9.99995 92.009 9.20995 90.486C8.75995 89.628 8.35005 88.747 8.06005 87.822C7.87005 87.217 7.74992 86.603 7.67992 85.981C8.41992 88.783 9.96007 91.373 11.3301 93.918ZM13.3601 102.204C13.0701 101.494 12.77 100.788 12.47 100.084C11 96.689 9.42989 93.327 8.39989 89.765C8.23989 89.195 8.08995 88.619 7.95995 88.04C8.13995 88.601 8.36009 89.148 8.60009 89.668C9.34009 91.279 10.3 92.778 11.03 94.394C12.16 96.886 12.7101 99.561 13.3601 102.204ZM14.51 106.405C13.79 104.513 12.8101 102.741 11.8201 100.981C10.8401 99.244 9.85009 97.505 9.10009 95.658C8.31009 93.721 7.84011 91.695 7.62011 89.618C7.50011 88.563 7.44991 87.502 7.41991 86.442C7.55991 87.295 7.75996 88.14 7.96996 88.961C8.42996 90.736 9.02994 92.472 9.69994 94.178C11.0499 97.639 12.6599 100.996 13.9299 104.49C14.0699 104.873 14.2001 105.259 14.3301 105.646C14.3601 105.753 14.3999 105.859 14.4299 105.966C14.5899 106.464 14.7499 106.965 14.8899 107.468C14.9099 107.535 14.9199 107.603 14.9399 107.67C14.8099 107.241 14.66 106.819 14.51 106.405ZM13.1299 83.428C12.5299 80.316 12.22 77.147 12.23 73.977C12.26 67.484 13.79 61.171 14.71 54.778C15.02 52.642 15.2701 50.469 15.3301 48.298C15.4301 48.917 15.5201 49.538 15.6001 50.16C15.6401 51.44 15.6301 52.722 15.5801 54.002C15.4401 57.3 15.0599 60.581 14.6299 63.851C13.8099 70.015 12.9201 76.22 13.3401 82.454C13.4301 83.729 13.57 85 13.79 86.259C13.54 85.325 13.3099 84.384 13.1299 83.428ZM14.46 87.8C14.14 86.336 13.92 84.851 13.78 83.358C13.5 80.289 13.57 77.197 13.8 74.127C14.27 67.721 15.45 61.383 15.78 54.965C15.81 54.29 15.8401 53.614 15.8501 52.938C15.9001 53.859 15.9199 54.781 15.9199 55.702C15.9199 58.66 15.7099 61.612 15.4099 64.554C14.8299 70.357 13.99 76.153 14.06 81.999C14.08 83.614 14.1899 85.231 14.3999 86.833C14.4699 87.421 14.5599 88.006 14.6499 88.589C14.5799 88.328 14.52 88.065 14.46 87.8ZM15.04 89.978C14.86 89.129 14.7101 88.274 14.5901 87.416C14.3901 85.986 14.32 84.526 14.29 83.084C14.22 80.141 14.3799 77.202 14.6399 74.272C15.1799 68.404 16.0999 62.563 16.1899 56.661C16.2099 55.043 16.17 53.423 16.04 51.811C15.98 51.107 15.9101 50.405 15.8201 49.706C15.8201 49.656 15.8201 49.606 15.8201 49.556C15.7901 49.002 15.75 48.446 15.71 47.89C15.77 48.181 15.8399 48.471 15.8999 48.764C16.1899 50.293 16.4201 51.832 16.6101 53.378C16.9801 56.486 17.11 59.622 17 62.751C16.89 65.954 16.4599 69.124 15.9399 72.285C15.4299 75.428 14.8799 78.57 14.6599 81.751C14.4499 84.829 14.5601 87.967 15.3501 90.959C15.2401 90.632 15.14 90.305 15.04 89.978ZM27.3799 93.218C27.0899 94.58 26.64 95.896 26.01 97.137C25.41 98.325 24.6699 99.438 23.9099 100.53C23.1499 101.617 22.3699 102.688 21.6599 103.804C20.9499 104.912 20.33 106.07 19.78 107.266C18.69 109.676 17.9101 112.223 17.3401 114.805C17.0101 116.269 16.75 117.746 16.52 119.229C16.44 119.748 16.37 120.269 16.3 120.79C16.28 116.253 17.2 111.691 18.96 107.517C19.96 105.147 21.2499 102.954 22.6999 100.831C24.1399 98.716 25.67 96.633 26.75 94.302C27.07 93.607 27.3401 92.887 27.5701 92.153C27.5101 92.509 27.4499 92.864 27.3799 93.218ZM27.8401 86.664C27.8501 86.785 27.8699 86.906 27.8799 87.026C27.8799 88.152 27.86 89.278 27.77 90.398C27.55 91.576 27.1699 92.721 26.6799 93.813C25.6299 96.181 24.0999 98.287 22.6399 100.415C21.2199 102.475 19.9399 104.603 18.9299 106.895C17.9299 109.167 17.1799 111.546 16.6699 113.974C16.3699 115.375 16.1801 116.796 16.0701 118.224C16.0501 117.685 16.03 117.146 16.01 116.608C16.05 115.948 16.0899 115.29 16.1599 114.632C16.3999 112.115 16.8799 109.613 17.6799 107.212C18.4999 104.764 19.7001 102.498 21.1101 100.339C22.5101 98.198 24.05 96.151 25.31 93.926C26.55 91.73 27.6501 89.274 27.8201 86.721C27.8301 86.702 27.8301 86.683 27.8401 86.664ZM16.8701 105.371C17.6001 102.882 18.79 100.629 20.3 98.529C21.8 96.449 23.4899 94.521 24.9499 92.416C25.9699 90.946 26.88 89.371 27.5 87.693C27.13 89.634 26.42 91.481 25.46 93.23C24.21 95.505 22.6499 97.585 21.1999 99.733C19.7599 101.861 18.4901 104.055 17.6201 106.477C16.7701 108.823 16.25 111.276 15.96 113.75C15.95 113.851 15.9399 113.952 15.9299 114.053C15.9099 113.324 15.8899 112.595 15.8799 111.866C15.9599 109.679 16.2501 107.506 16.8701 105.371ZM17.6599 78.134C18.3699 75.821 19.31 73.585 20.52 71.49C21.71 69.424 23.14 67.493 24.77 65.754C26.46 63.96 28.37 62.404 30.25 60.814C30.81 60.339 31.3699 59.857 31.9299 59.363C29.7699 61.701 27.5199 63.947 25.3899 66.304C23.8999 67.949 22.4599 69.652 21.1899 71.479C19.9799 73.242 18.9401 75.094 18.1001 77.063C17.9401 77.43 17.7899 77.803 17.6499 78.178C17.6499 78.163 17.6599 78.148 17.6599 78.134ZM17.97 77.736C18.76 75.767 19.84 73.907 21.04 72.157C23.59 68.419 26.7699 65.187 29.9099 61.947C31.6199 60.173 33.3199 58.381 34.9099 56.485C34.8899 56.534 34.8601 56.584 34.8401 56.633C33.7301 58.323 32.52 59.946 31.24 61.514C29.77 63.299 28.2199 65.017 26.6899 66.746C23.7499 70.064 20.8499 73.466 18.6399 77.324C18.0899 78.273 17.5899 79.249 17.1499 80.25C17.3699 79.398 17.64 78.557 17.97 77.736ZM16.8 81.74C16.82 81.661 16.8401 81.582 16.8601 81.503C16.9201 81.332 16.98 81.161 17.05 80.992C17.47 79.997 17.94 79.027 18.46 78.082C19.52 76.145 20.7801 74.321 22.1201 72.573C24.8801 69 28.0199 65.75 30.9399 62.315C32.0199 61.047 33.08 59.748 34.06 58.398C33.57 59.483 33.07 60.56 32.51 61.614C31.36 63.795 30.0501 65.896 28.6001 67.894C27.1101 69.948 25.45 71.861 23.75 73.745C22.04 75.649 20.3001 77.545 18.8401 79.659C17.9501 80.943 17.13 82.331 16.53 83.796C16.6 83.109 16.69 82.423 16.8 81.74ZM44.9099 9.915C45.8799 10.543 46.5301 11.574 46.8201 12.675C47.1601 13.918 47.0499 15.2 46.6399 16.411C46.1799 17.763 45.3699 18.955 44.4499 20.039C43.5399 21.112 42.5199 22.096 41.4399 22.99C39.8799 24.276 38.1701 25.338 36.3701 26.214C36.6101 26.06 36.8401 25.902 37.0701 25.74C38.2301 24.919 39.31 23.972 40.24 22.9C42.2 20.647 43.6501 17.963 44.3601 15.055C44.7701 13.391 44.9799 11.614 44.8799 9.898C44.8899 9.904 44.8999 9.908 44.9099 9.915ZM41.8799 9.245C41.8799 9.233 41.8701 9.224 41.8701 9.213C42.8201 9.254 43.7701 9.31301 44.6201 9.74401C44.5801 9.77501 44.56 9.81901 44.56 9.87601C44.6 10.669 44.6201 11.447 44.5701 12.24C44.5101 12.978 44.41 13.713 44.27 14.439C43.97 15.933 43.5001 17.424 42.8301 18.792C42.1901 20.082 41.43 21.305 40.49 22.394C39.57 23.458 38.5299 24.422 37.3899 25.256C36.2099 26.123 34.9301 26.78 33.6001 27.392C33.5901 27.397 33.58 27.402 33.56 27.408C33.56 27.41 33.55 27.411 33.55 27.413C33.55 27.408 33.55 27.402 33.55 27.396C34.52 26.821 35.41 26.054 36.21 25.28C37.18 24.346 38.04 23.314 38.79 22.197C40.39 19.812 41.4001 17.092 41.8201 14.255C42.0601 12.596 42.0799 10.909 41.8799 9.245ZM36.1599 7.844C37.6299 8.394 39.1099 8.989 40.6899 9.144C40.9899 9.173 41.2901 9.18801 41.6001 9.20101C41.5901 9.22601 41.5801 9.254 41.5801 9.29C41.9401 12.22 41.6201 15.217 40.6101 17.994C39.7001 20.524 38.2301 22.831 36.3501 24.758C35.8401 25.283 35.3 25.779 34.73 26.241C34.38 26.527 34.0199 26.797 33.6499 27.066C33.6899 26.951 33.72 26.836 33.75 26.722C33.85 26.359 33.95 25.995 34.06 25.631C34.25 24.94 34.4401 24.249 34.6201 23.555C34.9901 22.115 35.31 20.656 35.53 19.185C35.95 16.468 36.0701 13.693 35.5901 10.975C35.3701 9.72801 35.04 8.42901 34.49 7.26801C35.06 7.43801 35.6199 7.641 36.1599 7.844ZM31.5901 6.868C32.4701 6.809 33.3299 6.95401 34.1799 7.18401C34.6199 8.30001 35.02 9.411 35.26 10.596C35.53 11.933 35.6599 13.298 35.6599 14.661C35.6599 17.483 35.1199 20.241 34.4499 22.971C34.2499 23.791 34.03 24.607 33.8 25.418C33.72 25.697 33.64 25.976 33.56 26.254C33.85 23.534 33.83 20.778 33.49 18.066C33.3 16.574 33.0399 15.076 32.6299 13.628C32.2699 12.344 31.7399 11.082 30.8799 10.045C30.2399 9.275 29.3799 8.66 28.4299 8.31C29.2199 7.398 30.4001 6.947 31.5901 6.868ZM27.1699 8.458C28.3299 8.581 29.44 9.16701 30.24 10.007C32.11 11.971 32.5899 14.946 32.9299 17.527C33.3499 20.606 33.35 23.719 33 26.801C32.93 26.721 32.86 26.651 32.79 26.58C32.78 26.576 32.78 26.572 32.78 26.568C32.77 26.561 32.76 26.554 32.75 26.547C32.73 26.524 32.7099 26.495 32.6799 26.474C32.6799 26.468 32.6699 26.464 32.6599 26.458C32.0399 21.14 30.9999 15.66 27.6599 11.33C26.9399 10.392 26.0599 9.382 24.9099 8.991C25.5699 8.578 26.3299 8.368 27.1699 8.458ZM29.75 30.832C30.2 30.286 30.69 29.765 31.21 29.278C31.68 28.842 32.1799 28.457 32.6699 28.054C32.4299 28.43 32.22 28.82 32 29.204C31.66 29.811 31.34 30.424 31.03 31.045C30.4 32.287 29.8301 33.555 29.3201 34.846C28.2901 37.409 27.4999 40.06 26.9399 42.763C26.6399 44.225 26.4 45.703 26.22 47.185C25.96 47.122 25.6999 47.045 25.4399 46.948C24.6799 46.663 24.02 46.207 23.52 45.583C24.77 40.391 26.26 35.007 29.75 30.832ZM23.3201 45.299C23.2801 45.251 23.25 45.205 23.22 45.155C22.72 44.324 22.49 43.336 22.48 42.371C22.46 40.32 23.29 38.269 24.23 36.477C25.86 33.354 28.3501 30.702 31.3301 28.828C30.8501 29.259 30.4 29.729 29.98 30.194C29.12 31.155 28.3599 32.207 27.6999 33.314C26.2699 35.698 25.28 38.312 24.49 40.969C24.07 42.402 23.6901 43.852 23.3201 45.299ZM24 9.717C24.22 9.493 24.4499 9.294 24.6999 9.122C25.7999 9.556 26.6301 10.406 27.3601 11.333C28.1701 12.379 28.8499 13.521 29.4199 14.718C30.6199 17.238 31.33 19.955 31.8 22.699C31.99 23.819 32.13 24.945 32.26 26.073C31.31 24.085 30.3599 22.102 29.3899 20.124C28.2999 17.885 27.3 15.534 25.74 13.57C25.32 13.041 24.8501 12.542 24.3401 12.096C23.8901 11.698 23.36 11.294 22.79 11.055C23.2 10.615 23.58 10.146 24 9.717ZM15.3301 17.327C15.8201 16.122 16.8499 15.222 17.8999 14.499C18.9999 13.741 20.2 13.14 21.29 12.365C21.78 12.016 22.2399 11.625 22.6499 11.194C23.1399 11.505 23.62 11.794 24.06 12.168C24.54 12.574 24.9701 13.03 25.3701 13.514C26.1401 14.437 26.7601 15.465 27.3201 16.52C28.5601 18.857 29.62 21.293 30.76 23.681C31.08 24.342 31.39 25.003 31.71 25.664C31.54 25.532 31.38 25.401 31.21 25.269C30.71 24.865 30.1999 24.467 29.6799 24.079C28.6099 23.274 27.5001 22.517 26.3501 21.826C24.1301 20.488 21.76 19.389 19.23 18.807C18.51 18.643 17.79 18.521 17.06 18.448C16.69 18.411 16.33 18.389 15.96 18.38C15.65 18.373 15.33 18.347 15.04 18.452C15.08 18.071 15.1801 17.692 15.3301 17.327ZM15.03 18.564C15.29 18.647 15.5501 18.63 15.8301 18.64C16.1501 18.651 16.47 18.672 16.79 18.7C17.42 18.755 18.0499 18.848 18.6799 18.973C19.9699 19.232 21.2299 19.634 22.4399 20.137C24.8699 21.14 27.0599 22.56 29.1499 24.135C29.7199 24.563 30.2801 25.001 30.8301 25.447C31.2601 25.796 31.6801 26.17 32.1201 26.519C32.1301 26.55 32.1499 26.581 32.1599 26.612C31.8999 26.358 31.6201 26.12 31.3301 25.891C30.6801 25.374 30 24.902 29.28 24.474C27.88 23.631 26.4001 22.947 24.8601 22.382C23.2601 21.792 21.5999 21.298 19.9299 20.948C18.4999 20.647 17 20.497 15.55 20.738C15.12 20.072 14.96 19.317 15.03 18.564ZM11.28 24.604C11.72 23.312 12.79 22.292 14.01 21.717C15.55 20.987 17.33 21 18.99 21.257C20.63 21.51 22.24 21.97 23.81 22.491C26.79 23.477 29.63 24.874 32.02 26.928C32.14 27.033 32.2699 27.13 32.3899 27.228C32.3899 27.267 32.3999 27.306 32.3999 27.345C30.8899 26.805 29.3801 26.25 27.8601 25.695C26.3601 25.143 24.84 24.603 23.29 24.185C20.52 23.437 17.58 23.123 14.79 23.971C13.46 24.376 12.1101 25.042 11.1201 26.041C11.0801 25.571 11.12 25.091 11.28 24.604ZM15.29 37.788C14.28 36.573 13.9101 35.069 13.6201 33.552C13.4701 32.743 13.3201 31.934 13.0901 31.142C12.8601 30.365 12.5099 29.643 12.1499 28.923C11.7299 28.089 11.2899 27.213 11.1499 26.304C12.1499 25.436 13.23 24.753 14.5 24.332C15.77 23.907 17.14 23.725 18.48 23.734C21.56 23.755 24.5101 24.782 27.3701 25.84C28.8601 26.389 30.3401 26.943 31.8201 27.507C31.4601 27.533 31.09 27.568 30.73 27.615C29.99 27.711 29.24 27.85 28.51 28.029C27.06 28.382 25.64 28.877 24.3 29.525C21.81 30.724 19.57 32.447 17.75 34.524C17.24 35.112 16.7601 35.729 16.3201 36.373C15.9901 36.848 15.6301 37.35 15.3701 37.877C15.3401 37.847 15.32 37.819 15.29 37.788ZM15.53 38.056C15.82 37.604 16.0701 37.127 16.3701 36.684C16.7401 36.133 17.1401 35.601 17.5701 35.088C18.4401 34.036 19.41 33.073 20.48 32.217C22.69 30.438 25.3401 29.136 28.1001 28.472C28.9001 28.281 29.7 28.137 30.51 28.042C30.87 28 31.2301 27.972 31.5901 27.949C30.8801 28.2 30.18 28.488 29.5 28.788C28.3 29.319 27.12 29.929 26.01 30.635C23.77 32.058 21.6899 33.819 19.9099 35.782C18.8999 36.891 17.9799 38.083 17.1999 39.364C16.5799 39.016 16.01 38.578 15.53 38.056ZM20.3 39.971C19.65 40.035 18.9901 39.975 18.3501 39.887C18.0001 39.764 17.6501 39.614 17.3301 39.438C18.8101 37.271 20.5 35.269 22.49 33.544C24.47 31.82 26.7899 30.412 29.1899 29.325C29.8199 29.036 30.4701 28.772 31.1201 28.534C30.0201 29.185 28.98 29.986 28.05 30.843C26.61 32.154 25.3701 33.667 24.3701 35.33C23.6201 36.57 22.96 37.927 22.53 39.334C22.48 39.33 22.4299 39.334 22.3799 39.357C21.6999 39.651 21.04 39.897 20.3 39.971ZM18.8799 59.56C19.5799 54.34 20.4301 49.144 21.3501 43.959C21.3601 43.929 21.3601 43.9 21.3701 43.87C21.5501 43.069 21.8 42.293 22.06 41.519C21.88 43.412 22.3699 45.464 23.9199 46.684C25.6899 48.073 28.0499 47.948 30.1699 47.967C30.6199 47.971 31.06 48.002 31.51 48.045C31.47 48.19 31.4201 48.33 31.3601 48.467C31.0101 48.956 30.68 49.462 30.3 49.934C30.16 50.11 30.0101 50.28 29.8701 50.453C29.6001 50.696 29.32 50.924 29.04 51.137C27.79 52.086 26.5 52.981 25.28 53.972C22.99 55.831 20.6101 57.838 19.1201 60.427C18.9501 60.721 18.7999 61.024 18.6599 61.332C18.7299 60.741 18.7999 60.15 18.8799 59.56ZM18.54 62.259C18.73 61.726 18.97 61.21 19.25 60.716C19.99 59.399 21.0001 58.24 22.0801 57.187C23.1801 56.113 24.35 55.114 25.55 54.152C26.57 53.335 27.6299 52.584 28.6699 51.808C27.5699 52.998 26.3799 54.103 25.1999 55.222C22.8999 57.405 20.6299 59.683 19.1699 62.532C18.7999 63.254 18.48 64.016 18.23 64.801C18.34 63.953 18.43 63.106 18.54 62.259ZM26.74 56.488C24.42 58.905 21.8101 61.072 19.8201 63.792C19.1001 64.777 18.44 65.84 17.98 66.974C17.99 66.877 18 66.78 18.01 66.683C18.02 66.63 18.03 66.577 18.04 66.523C18.05 66.503 18.0601 66.482 18.0701 66.462C18.0701 66.458 18.06 66.456 18.06 66.459C18.06 66.473 18.05 66.487 18.04 66.501C18.24 65.293 18.6099 64.13 19.1499 63.016C19.8399 61.598 20.75 60.304 21.77 59.109C23.87 56.643 26.3799 54.564 28.6399 52.255C29.1199 51.768 29.58 51.263 30.02 50.744C30.66 50.167 31.2101 49.506 31.5701 48.737C31.6101 48.68 31.6399 48.62 31.6699 48.562C30.8999 51.648 28.92 54.22 26.74 56.488ZM31.8799 47.517C30.1199 47.324 28.28 47.587 26.53 47.249C27.05 41.847 28.6 36.515 30.98 31.638C31.31 30.957 31.66 30.283 32.02 29.618C32.31 29.093 32.6299 28.582 32.9199 28.057C32.9399 28.062 32.96 28.064 32.97 28.062C33.26 28.577 33.5901 29.071 33.8701 29.59C34.2001 30.199 34.5 30.824 34.77 31.46C35.32 32.751 35.7501 34.091 36.0701 35.459C36.6901 38.15 36.85 40.946 36.5 43.687C36.31 45.191 35.97 46.689 35.47 48.121C34.26 47.995 33.0399 47.643 31.8799 47.517ZM40.9099 43.731C40.6899 45.395 39.7899 47.132 38.1799 47.816C37.4099 48.143 36.6 48.207 35.79 48.149C36.62 45.524 37.0099 42.814 36.9299 40.056C36.8399 37.242 36.2599 34.451 35.1999 31.843C34.8999 31.122 34.5699 30.415 34.1999 29.728C33.9199 29.2 33.63 28.647 33.28 28.149C37.11 29.428 38.7 33.605 39.78 37.148C40.15 38.362 40.57 39.621 40.79 40.898C40.79 40.919 40.8 40.938 40.8 40.958C40.96 41.877 41.0299 42.804 40.9099 43.731ZM48.06 39.063C47.09 39.714 45.9801 40.109 44.8401 40.344C43.6701 40.584 42.49 40.625 41.31 40.743C41.19 40.095 41.0301 39.453 40.8601 38.826C39.8001 35.049 38.5801 30.6 35.0801 28.379C35.7701 28.587 36.4501 28.809 37.1201 29.078C38.2901 29.546 39.43 30.107 40.51 30.756C42.63 32.03 44.5499 33.63 46.1799 35.492C47.0499 36.489 47.87 37.567 48.53 38.719C48.38 38.838 48.22 38.956 48.06 39.063ZM50.74 33.96C50.68 35.019 50.53 36.089 50.01 37.03C49.68 37.623 49.2299 38.133 48.7099 38.569C48.0699 37.562 47.3901 36.583 46.6201 35.668C45.8201 34.724 44.94 33.844 44.01 33.035C42.1 31.388 39.9401 30.038 37.6201 29.061C36.5801 28.624 35.4999 28.239 34.3899 27.987C34.3799 27.98 34.3701 27.974 34.3501 27.966C38.8101 27.374 43.4 27.96 47.55 29.729C48.72 30.228 49.7999 30.848 50.8999 31.473C50.7999 32.298 50.8 33.132 50.74 33.96ZM52.0901 27.599C51.7301 28.626 51.26 29.618 51.03 30.688C51 30.845 50.9799 31.003 50.9499 31.161C50.0499 30.559 49.0601 30.065 48.0801 29.626C46.9501 29.124 45.7901 28.71 44.6001 28.383C42.2601 27.737 39.8299 27.428 37.3999 27.488C36.2699 27.516 35.14 27.63 34.03 27.823C33.91 27.773 33.7899 27.726 33.6599 27.681C34.3799 27.461 35.08 27.201 35.77 26.908C39.93 25.719 44.18 24.728 48.52 25.344C49.86 25.533 51.1699 25.885 52.4099 26.409C52.3399 26.809 52.2301 27.206 52.0901 27.599ZM52.4499 26.142C47.6599 24.142 42.3099 24.879 37.4299 26.216C37.2899 26.255 37.15 26.298 37.01 26.338C38.44 25.628 39.8101 24.778 41.0801 23.813C42.2501 22.92 43.3401 21.924 44.3401 20.838C44.8801 20.251 45.3801 19.628 45.8401 18.969C45.8601 19.057 45.93 19.13 46.06 19.14C48.06 19.298 50.02 20.155 51.26 21.775C51.88 22.573 52.2899 23.52 52.4499 24.513C52.5399 25.065 52.5299 25.607 52.4499 26.142Z" fill="#4D4C51"/>
<path d="M21.8501 86.051C21.8501 86.05 21.8501 86.05 21.8501 86.051C21.8501 86.046 21.8501 86.042 21.8401 86.038C21.8401 86.038 21.8401 86.037 21.8401 86.036C21.8401 86.035 21.8401 86.034 21.8401 86.033C21.8401 86.032 21.8401 86.03 21.8301 86.029L21.8401 86.03C21.8301 86.029 21.8301 86.027 21.8301 86.025C21.8301 86.027 21.8301 86.031 21.8401 86.031C21.8401 86.043 21.8501 86.05 21.8501 86.051Z" fill="#4D4C51"/>
<path d="M21.76 86.217V86.22C21.77 86.223 21.77 86.225 21.77 86.229C21.77 86.224 21.77 86.22 21.76 86.217Z" fill="#4D4C51"/>
<path d="M22.9299 86.598C22.9999 86.447 23.02 86.279 23.01 86.112C23 86.001 22.99 85.89 22.95 85.785C22.83 85.392 22.4701 85.11 22.0601 85.069C21.6601 85.029 21.22 85.197 21 85.545C20.77 85.907 20.75 86.407 21.02 86.758C21.03 86.772 21.04 86.787 21.05 86.801C21.05 86.801 21.0701 86.814 21.0801 86.827C21.0801 86.83 21.1199 86.867 21.1399 86.883C21.3199 87.098 21.5801 87.241 21.8701 87.245C21.9901 87.246 22.1 87.228 22.21 87.198C22.41 87.157 22.59 87.06 22.75 86.9C22.83 86.813 22.8899 86.708 22.9299 86.598Z" fill="#4D4C51"/>
<path d="M24.84 86.702C24.85 86.697 24.85 86.692 24.85 86.686C24.85 86.654 24.85 86.62 24.85 86.588C24.84 86.558 24.83 86.523 24.82 86.497C24.82 86.487 24.82 86.478 24.81 86.469C24.8 86.447 24.79 86.425 24.77 86.405C24.77 86.4 24.7699 86.396 24.7599 86.392C24.7199 86.345 24.68 86.307 24.62 86.285C24.6 86.276 24.58 86.277 24.56 86.275C24.55 86.269 24.54 86.259 24.53 86.255C24.5 86.246 24.4699 86.233 24.4299 86.232C24.3999 86.232 24.37 86.23 24.34 86.234C24.32 86.238 24.2699 86.252 24.2599 86.258C24.2199 86.269 24.1898 86.292 24.1598 86.309C24.1498 86.319 24.1498 86.322 24.1298 86.342C24.1198 86.356 24.11 86.363 24.1 86.377C24.08 86.404 24.06 86.432 24.05 86.461C24.04 86.472 24.04 86.484 24.03 86.496C24.02 86.53 24.0099 86.574 24.0099 86.613C23.9999 86.667 23.9999 86.72 24.0099 86.773C24.0099 86.743 24.0099 86.713 24.0099 86.683C24.0099 86.719 24.0099 86.756 24.0099 86.793C24.0199 86.8 24.02 86.806 24.02 86.813C24.03 86.844 24.04 86.879 24.05 86.909C24.05 86.927 24.06 86.938 24.07 86.958C24.08 86.977 24.09 86.991 24.1 87.005C24.13 87.029 24.1499 87.055 24.1799 87.077C24.1799 87.079 24.1799 87.082 24.1799 87.084C24.2099 87.103 24.24 87.12 24.27 87.136C24.28 87.14 24.29 87.143 24.3 87.146C24.33 87.157 24.3698 87.167 24.3998 87.174C24.4098 87.175 24.4098 87.176 24.4098 87.176C24.4198 87.176 24.4199 87.177 24.4299 87.177C24.4599 87.178 24.5 87.178 24.54 87.176C24.6 87.166 24.6599 87.14 24.7199 87.099C24.7599 87.069 24.79 87.032 24.81 86.987C24.84 86.945 24.86 86.898 24.86 86.846C24.86 86.795 24.86 86.748 24.84 86.702Z" fill="#4D4C51"/>
<path d="M23.97 83.432C23.97 83.442 23.97 83.451 23.97 83.461C23.97 83.452 23.97 83.442 23.97 83.432C23.97 83.429 23.97 83.427 23.97 83.423C23.98 83.37 23.97 83.3189 23.95 83.2699C23.94 83.2199 23.9199 83.1749 23.8899 83.1359C23.8699 83.1129 23.8401 83.089 23.8201 83.066C23.7801 83.032 23.7299 83.0109 23.6799 83.0029C23.6299 82.9849 23.58 82.981 23.53 82.991C23.47 82.997 23.4299 83.014 23.3899 83.044C23.3399 83.066 23.3 83.098 23.27 83.14L23.22 83.2269C23.2 83.2759 23.19 83.327 23.2 83.38C23.19 83.432 23.2 83.4819 23.22 83.5289C23.24 83.5579 23.26 83.5859 23.28 83.6149C23.3 83.6459 23.3401 83.663 23.3701 83.685C23.3801 83.693 23.3799 83.699 23.3899 83.706C23.3999 83.715 23.4099 83.724 23.4099 83.734L23.47 83.7909C23.51 83.8179 23.5401 83.8359 23.5801 83.8429C23.6101 83.8539 23.6399 83.857 23.6699 83.853C23.7099 83.856 23.7501 83.8489 23.7901 83.8299C23.8101 83.8159 23.8401 83.803 23.8601 83.789L23.9199 83.7309C23.9399 83.6979 23.96 83.6599 23.97 83.6189C23.98 83.5779 23.99 83.536 23.98 83.493C23.97 83.473 23.97 83.453 23.97 83.432Z" fill="#4D4C51"/>
<path d="M18.78 42.915C18.78 42.89 18.78 42.865 18.78 42.84C18.77 42.743 18.7499 42.647 18.7099 42.558C18.7099 42.555 18.7099 42.552 18.7099 42.549C18.6999 42.543 18.6999 42.536 18.6999 42.531C18.6999 42.525 18.6899 42.52 18.6899 42.515C18.6699 42.461 18.6401 42.407 18.6101 42.357C18.5001 42.188 18.3299 42.089 18.1399 42.04C18.0999 42.025 18.06 42.007 18.01 41.997C17.72 41.924 17.4199 42.042 17.2199 42.264C17.0399 42.455 16.99 42.728 17.01 42.977C17.02 43.23 17.1501 43.482 17.3501 43.638C17.6001 43.832 17.9299 43.854 18.2199 43.739C18.3599 43.681 18.4801 43.584 18.5901 43.471C18.6901 43.358 18.75 43.22 18.77 43.07C18.78 43.044 18.78 43.018 18.78 42.992C18.78 42.966 18.78 42.94 18.78 42.915Z" fill="#4D4C51"/>
<path d="M20.1799 42.286C20.1699 42.229 20.1401 42.177 20.1101 42.131L20.05 42.072C20 42.036 19.9499 42.014 19.8899 42.007C19.8399 42 19.8 42.004 19.76 42.02C19.72 42.028 19.6799 42.046 19.6399 42.075C19.6099 42.101 19.5801 42.133 19.5601 42.172C19.5401 42.208 19.52 42.249 19.52 42.295V42.384C19.53 42.441 19.5501 42.493 19.5901 42.539C19.6101 42.559 19.6299 42.579 19.6499 42.598C19.6899 42.634 19.7501 42.656 19.8101 42.663C19.8501 42.67 19.8899 42.666 19.9399 42.65C19.9799 42.642 20.02 42.623 20.05 42.595C20.09 42.569 20.1099 42.537 20.1299 42.498C20.1599 42.461 20.1699 42.421 20.1799 42.375V42.286Z" fill="#4D4C51"/>
<path d="M10.0901 76.299C9.9901 75.967 9.72991 75.672 9.39991 75.547C9.06991 75.421 8.68013 75.449 8.37013 75.619C8.04013 75.802 7.8 76.1061 7.74 76.4891C7.68 76.8361 7.80003 77.217 8.02003 77.486C8.28003 77.793 8.65005 77.944 9.04005 77.913C9.27005 77.895 9.47992 77.798 9.65992 77.656C9.76992 77.579 9.87997 77.488 9.95997 77.37C10.18 77.048 10.2101 76.662 10.0901 76.299Z" fill="#4D4C51"/>
<path d="M10.6101 78.702C10.6001 78.655 10.58 78.613 10.54 78.576C10.54 78.572 10.54 78.569 10.54 78.565C10.52 78.549 10.5 78.543 10.49 78.53C10.49 78.523 10.48 78.516 10.48 78.509C10.47 78.493 10.4599 78.485 10.4399 78.469C10.4299 78.454 10.4199 78.446 10.4099 78.436C10.3899 78.425 10.3701 78.415 10.3501 78.404C10.3201 78.39 10.29 78.384 10.25 78.388C10.23 78.385 10.2099 78.388 10.1899 78.397C10.1599 78.403 10.1301 78.417 10.1001 78.438C10.0701 78.462 10.04 78.496 10.02 78.532C10 78.545 9.98997 78.552 9.96997 78.567C9.96997 78.57 9.96997 78.574 9.96997 78.578L9.91992 78.66C9.90992 78.692 9.89989 78.723 9.88989 78.755C9.88989 78.788 9.88989 78.821 9.88989 78.853C9.89989 78.883 9.90992 78.914 9.91992 78.944C9.93992 78.971 9.94997 78.998 9.96997 79.025C9.98997 79.047 10.01 79.069 10.04 79.091L10.1201 79.138C10.1601 79.159 10.21 79.167 10.26 79.162C10.29 79.166 10.3301 79.162 10.3601 79.149C10.3901 79.144 10.4199 79.132 10.4399 79.112C10.4699 79.099 10.5 79.08 10.52 79.055C10.54 79.035 10.5601 79.01 10.5701 78.981C10.5901 78.955 10.6001 78.925 10.6101 78.892C10.6201 78.861 10.6301 78.829 10.6201 78.795C10.6201 78.764 10.6201 78.732 10.6101 78.702Z" fill="#4D4C51"/>
<path d="M10.56 73.881C10.56 73.879 10.56 73.877 10.56 73.875C10.56 73.871 10.56 73.866 10.56 73.862C10.56 73.845 10.55 73.828 10.55 73.811C10.55 73.786 10.54 73.764 10.52 73.744C10.51 73.722 10.5 73.705 10.48 73.69C10.46 73.682 10.4499 73.674 10.4399 73.666C10.4099 73.655 10.3901 73.651 10.3601 73.654C10.3501 73.652 10.33 73.654 10.31 73.661C10.29 73.666 10.27 73.676 10.25 73.692C10.24 73.703 10.23 73.714 10.22 73.726C10.2 73.753 10.1899 73.783 10.1799 73.816C10.1799 73.833 10.1699 73.849 10.1699 73.866C10.1699 73.87 10.1699 73.874 10.1699 73.879C10.1699 73.881 10.1699 73.883 10.1699 73.885C10.1599 73.915 10.1699 73.963 10.1799 73.991C10.1899 73.998 10.1899 74.005 10.1899 74.012C10.2099 74.042 10.23 74.067 10.25 74.087C10.28 74.107 10.3101 74.12 10.3401 74.124C10.3801 74.128 10.4099 74.123 10.4399 74.11C10.4699 74.097 10.5 74.077 10.52 74.052C10.52 74.049 10.52 74.046 10.52 74.043V74.039L10.53 74.036C10.53 74.021 10.54 74.006 10.55 73.991C10.56 73.974 10.5601 73.956 10.5701 73.937C10.5601 73.917 10.56 73.899 10.56 73.881Z" fill="#4D4C51"/>
<path d="M37.69 51.419C37.6 50.941 37.16 50.516 36.64 50.599C36.45 50.63 36.28 50.733 36.15 50.872C36.15 50.877 36.14 50.883 36.13 50.888C36.11 50.911 36.0901 50.934 36.0801 50.959C36.0601 50.982 36.0401 51.002 36.0201 51.026C35.8501 51.278 35.81 51.566 35.9 51.854C35.98 52.073 36.1602 52.229 36.3502 52.334C36.5302 52.429 36.76 52.459 36.95 52.432C37.18 52.402 37.4001 52.285 37.5301 52.103C37.6801 51.913 37.74 51.655 37.69 51.419Z" fill="#4D4C51"/>
<path d="M39.97 50.626C39.97 50.599 39.96 50.5749 39.94 50.5539C39.93 50.5179 39.9002 50.489 39.8702 50.465C39.8402 50.452 39.8201 50.4389 39.8001 50.4249C39.7501 50.4039 39.69 50.397 39.64 50.405C39.59 50.416 39.5301 50.425 39.4901 50.444C39.4601 50.455 39.44 50.467 39.42 50.479C39.38 50.495 39.3501 50.511 39.3201 50.534C39.3101 50.542 39.3001 50.55 39.2901 50.558C39.2601 50.589 39.23 50.621 39.2 50.657C39.14 50.727 39.13 50.826 39.17 50.907C39.19 50.947 39.2101 50.9799 39.2501 51.0069C39.2801 51.0339 39.3202 51.051 39.3702 51.056C39.3902 51.061 39.41 51.065 39.44 51.066C39.49 51.068 39.5401 51.072 39.5801 51.061C39.6201 51.052 39.66 51.0439 39.69 51.0329C39.72 51.0249 39.7401 51.0189 39.7601 51.0069C39.7801 51.0009 39.7901 50.995 39.8001 50.989C39.8401 50.974 39.87 50.9519 39.9 50.9209C39.93 50.8949 39.95 50.863 39.96 50.824C39.97 50.797 39.98 50.7709 39.98 50.7439C39.99 50.7049 39.99 50.665 39.97 50.626Z" fill="#4D4C51"/>
</svg>
