<svg width="93" height="124" viewBox="0 0 93 124" fill="none" xmlns="http://www.w3.org/2000/svg">
<path d="M92.4585 93.5801C92.2615 92.7201 91.9516 91.8301 91.4546 91.1401C91.4516 91.1201 91.4525 91.1101 91.4485 91.1001C91.4135 90.9701 91.3115 90.8602 91.1905 90.8002C90.7855 90.3502 90.2765 90.0302 89.6265 89.9202C89.4855 89.8302 89.3115 89.8001 89.1465 89.8901C89.0955 89.8901 89.0535 89.8701 89.0005 89.8701C87.1395 89.9501 85.2625 91.1902 83.7515 92.1802C82.1385 93.2402 80.6655 94.5002 79.3415 95.9002C76.6065 98.8002 74.2345 102.66 73.5465 106.66C73.1265 104.31 72.3925 102.02 71.3705 99.8501C71.0235 99.1101 70.6425 98.4001 70.2465 97.6901C71.9435 96.2601 73.2385 94.4101 74.3375 92.5001C75.4955 90.4801 76.4215 88.3401 77.0965 86.1201C77.7785 83.8701 78.2256 81.5501 78.3916 79.2001C78.5566 76.8801 78.5426 74.4302 77.9806 72.1502C77.4446 69.9902 76.3165 67.9201 74.3535 66.7501C72.5005 65.6401 70.3196 65.6001 68.4676 66.7301C64.0956 69.4101 64.2755 75.5301 64.5045 80.0001C64.6525 82.9001 65.0675 85.7801 65.7415 88.6001C66.0635 89.9501 66.4346 91.3001 66.8686 92.6301C63.2996 88.0401 58.8585 84.0801 54.4445 80.3501C54.5525 80.2701 54.6315 80.1602 54.6785 80.0402C56.4145 79.1702 57.2635 76.9201 57.9315 75.2201C58.8995 72.7601 59.6015 70.1701 60.0785 67.5701C60.5675 64.9001 60.7925 62.1901 60.7645 59.4801C60.7415 57.2901 60.7455 54.7902 59.6845 52.8002C58.6615 50.8802 56.6905 49.9601 54.5525 50.2501C52.4145 50.5501 50.5645 51.8301 49.1875 53.4401C46.4235 56.6801 45.6125 61.2802 46.2215 65.4002C46.9555 70.3702 49.6465 74.7702 52.5735 78.7802C48.4785 75.3602 44.2905 72.0201 40.2935 68.4801C43.1865 63.9601 44.9895 58.6402 46.0655 53.4302C46.6625 50.5402 47.0135 47.6002 47.1085 44.6502C47.1905 42.0902 47.2645 39.2702 46.0535 36.9302C44.9535 34.8102 42.8375 33.5301 40.4755 33.3401C38.0915 33.1501 35.7865 34.0601 34.0665 35.7001C29.9035 39.6701 29.8405 45.8401 30.7045 51.1401C31.4005 55.4101 32.8275 59.6801 34.9935 63.4901C33.9835 62.4701 32.9905 61.4301 32.0355 60.3501C28.3115 56.1501 24.9705 51.4001 22.7215 46.2001C22.7875 46.0001 22.7615 45.7601 22.5755 45.5801C22.5175 45.5301 22.4545 45.4702 22.3965 45.4202C22.1495 44.8102 21.9065 44.2101 21.6905 43.5901C21.7585 43.5701 21.8266 43.5501 21.8946 43.5001C28.9876 38.5201 37.0935 32.5401 38.4975 23.3201C38.7455 21.7001 38.6755 19.6801 37.3355 18.5201C35.7155 17.1101 33.3935 17.9801 31.7555 18.8701C28.1835 20.8101 25.1545 23.7101 23.0965 27.2201C21.3365 30.2201 20.3025 33.6301 20.1015 37.1001C19.1815 30.5301 20.2105 23.5401 23.6895 17.8701C23.8035 17.8401 23.9155 17.7802 24.0105 17.6702C26.0465 15.2202 28.2695 12.8502 29.8295 10.0602C30.5925 8.69018 31.1845 7.21017 31.4715 5.67017C31.7135 4.37017 31.8335 2.75014 31.2635 1.51014C30.0865 -1.03986 26.5006 0.160082 24.7436 1.33008C22.6386 2.74008 21.2305 5.08016 20.7415 7.54016C20.4025 9.25016 20.4756 11.0401 20.8556 12.7301C21.2226 14.3701 21.7985 16.1201 22.7815 17.5001C22.8465 17.5901 22.9265 17.6402 23.0105 17.6502C23.0165 17.6602 23.0235 17.6602 23.0305 17.6702C21.4275 20.1002 20.2575 22.7901 19.5225 25.6201C19.4005 23.8901 19.1945 22.1601 18.9025 20.4501C18.3125 16.9901 17.5645 11.7602 13.4545 10.7802C11.6675 10.3602 9.94354 11.2601 8.97854 12.7701C7.93254 14.4001 7.78855 16.4501 7.82955 18.3401C7.90655 21.9101 8.97052 25.4502 10.7605 28.5302C12.6515 31.7802 15.3306 34.5702 18.6836 36.2802C18.8216 37.7302 19.0625 39.1701 19.3895 40.5801C17.6115 38.6401 15.4775 36.9801 13.2945 35.6001C11.7315 34.6101 10.0916 33.7602 8.38155 33.0502C7.50455 32.6902 6.61055 32.3701 5.70455 32.0901C4.80055 31.8101 3.86056 31.5402 2.90456 31.6502C1.20556 31.8402 0.106505 33.3901 0.00850485 35.0201C-0.106495 36.9201 0.965536 38.6502 1.96554 40.1802C4.00254 43.3102 6.68551 46.0701 10.0005 47.8201C13.7275 49.8001 18.3035 50.2701 22.2255 48.6001C23.6365 51.5701 25.3775 54.3901 27.3105 57.0101C28.7265 58.9301 30.2505 60.7601 31.8515 62.5201C29.4665 61.3801 26.9335 60.5301 24.3645 59.9501C22.1275 59.4401 19.8136 59.1001 17.5166 59.0901C15.4186 59.0801 13.2745 59.3701 11.4565 60.4901C8.2845 62.4401 7.13751 67.3201 10.6305 69.5701C12.4255 70.7301 14.7215 71.2101 16.7905 71.6001C19.0215 72.0401 21.2915 72.2301 23.5625 72.2001C28.6115 72.1501 33.6115 70.9801 38.1485 68.7601C39.4125 69.9201 40.7065 71.0502 42.0045 72.1702C40.1205 72.1102 38.1755 72.3401 36.3635 72.5901C33.8385 72.9501 31.3445 73.5202 28.9135 74.2902C26.4585 75.0702 24.0685 76.0501 21.7805 77.2401C19.8475 78.2401 17.4065 79.3502 16.2725 81.3102C15.2435 83.0902 15.6665 85.2902 16.8445 86.9002C18.1955 88.7302 20.4795 89.5702 22.6735 89.8102C27.4065 90.3402 32.3835 88.8401 36.2325 86.0901C40.2515 83.2301 43.1036 78.8402 44.1806 74.0302C45.2306 74.9202 46.2805 75.8101 47.3355 76.6901C50.9745 79.7101 54.7365 82.7401 58.2475 86.0101C57.7185 85.9401 57.1495 85.9801 56.5825 86.0701C53.2415 85.5601 49.8015 85.7102 46.4885 86.4202C43.9795 86.9702 41.5325 87.8402 39.2565 89.0302C37.1985 90.1002 35.1255 91.4502 33.8105 93.4102C32.5605 95.2802 32.2325 97.5902 33.2125 99.6502C34.1615 101.65 36.0495 103.17 38.1635 103.79C43.0105 105.19 48.3706 102.81 52.2536 99.9801C56.1656 97.1401 59.2235 93.1501 60.9545 88.6301C63.2715 91.0001 65.4155 93.5201 67.2515 96.2701C68.4665 98.1001 69.4925 100.04 70.2975 102.07C70.1285 102.14 69.9675 102.24 69.8125 102.36C68.6385 102 67.4095 101.85 66.1265 101.83C63.9785 101.8 61.7965 101.9 59.6865 102.32C56.1175 103.04 52.3345 105.05 51.0665 108.69C49.8525 112.18 51.3765 116.13 55.0535 117.23C58.8005 118.35 62.7935 116.44 65.6375 114.06C67.1885 112.76 68.5325 111.2 69.5615 109.46C70.0675 108.6 70.5135 107.72 70.8725 106.79C71.0575 106.31 71.2415 105.83 71.3715 105.33C71.5975 106.22 71.7835 107.13 71.9055 108.05C72.4335 112.05 71.9215 116.17 70.1095 119.79C69.6725 120.67 69.2175 121.53 68.6845 122.35C68.2035 123.1 69.1655 123.8 69.7605 123.18C72.5665 120.21 73.7646 116.07 73.9286 112.06C73.9356 111.91 73.9295 111.75 73.9325 111.59C77.4145 113.46 81.7635 111.47 84.8075 109.44C88.2185 107.17 91.0955 103.89 92.2105 99.8801C92.7815 97.8401 92.9345 95.6601 92.4585 93.5801ZM30.4525 1.96009C30.9545 3.09009 30.7395 4.60014 30.4845 5.76014C30.1835 7.13014 29.5975 8.44014 28.8765 9.64014C27.7435 11.5201 26.2795 13.1502 24.8255 14.7802C26.0605 12.8502 27.0725 10.7601 27.9025 8.63013C28.3825 7.39013 28.8005 6.14011 29.1505 4.86011C29.3105 4.28011 29.4576 3.6901 29.5926 3.1001C29.7226 2.5301 29.9125 1.92008 29.9285 1.33008C30.1415 1.48008 30.3255 1.68009 30.4525 1.96009ZM24.2385 14.6702C24.5035 12.4902 24.9946 10.3401 25.7666 8.27015C26.2336 7.02015 26.7855 5.79011 27.4115 4.61011C27.9015 3.68011 28.4875 2.82008 29.0475 1.95008C29.0005 2.24008 28.9635 2.53017 28.9055 2.80017C28.7715 3.43017 28.6205 4.06007 28.4545 4.69007C28.1235 5.93007 27.7285 7.16011 27.2765 8.36011C26.4495 10.5601 25.3895 12.6402 24.2385 14.6702ZM22.0965 11.7301C22.0515 12.1701 22.0296 12.6202 22.0196 13.0602C21.7066 11.7902 21.5425 10.4601 21.6225 9.14014C21.7675 6.79014 22.7185 4.53016 24.4565 2.91016C25.1305 2.28016 25.9025 1.78018 26.7545 1.43018C25.0675 3.11018 23.8275 5.34016 23.0475 7.54016C22.5675 8.89016 22.2425 10.3001 22.0965 11.7301ZM22.9795 15.8301C23.0295 15.2201 22.8585 14.5701 22.8335 13.9501C22.8035 13.2401 22.8266 12.5301 22.8916 11.8301C23.0186 10.4301 23.3165 9.06012 23.7775 7.74012C24.6785 5.16012 26.1936 3.06018 27.9936 1.06018C28.2816 1.01018 28.5785 0.980126 28.8645 1.00013C28.0795 1.92013 27.4415 3.01017 26.8515 4.05017C26.1385 5.30017 25.5245 6.61009 25.0095 7.96009C24.0035 10.5901 23.3745 13.3801 23.1225 16.1901C23.0745 16.0701 23.0275 15.9501 22.9795 15.8301ZM10.3935 12.6201C10.6875 12.3101 11.0265 12.0501 11.4235 11.8801C11.2955 12.6901 11.4045 13.5801 11.4625 14.3701C11.5395 15.4301 11.6615 16.4802 11.8205 17.5402C12.1335 19.6002 12.6055 21.6502 13.2005 23.6502C13.8045 25.6902 14.5625 27.6901 15.4665 29.6101C15.9155 30.5701 16.4005 31.5102 16.9285 32.4202C16.8635 32.3502 16.7935 32.2701 16.7335 32.2001C16.1175 31.4301 15.5425 30.6302 15.0085 29.8102C13.9255 28.1302 13.0265 26.3401 12.3145 24.4701C10.8765 20.7101 10.2025 16.7002 10.4155 12.6802C10.4155 12.6602 10.3985 12.6401 10.3935 12.6201ZM9.12655 20.6101C8.88355 18.9501 8.80252 17.2102 9.06252 15.5502C9.18852 14.7502 9.48355 13.8902 9.95455 13.1802C9.72455 17.0702 10.2665 21.0101 11.5735 24.6901C12.2575 26.6101 13.1415 28.4501 14.2005 30.1901C14.7455 31.0901 15.3385 31.9602 15.9785 32.7902C16.2845 33.1802 16.6045 33.6402 16.9635 34.0502C12.8455 30.6702 9.91255 25.9701 9.12655 20.6101ZM18.4545 32.7601C18.2195 32.3801 17.9855 32.0001 17.7645 31.6201C17.2685 30.7601 16.7925 29.8901 16.3505 29.0001C15.4505 27.1901 14.6786 25.3202 14.0426 23.4002C13.3956 21.4502 12.9135 19.4502 12.5745 17.4202C12.4105 16.4502 12.2815 15.4601 12.1875 14.4701C12.1045 13.6001 12.1435 12.6001 11.9245 11.7301C12.0185 11.7101 12.1045 11.6702 12.2035 11.6602C12.8155 11.5902 13.3885 11.7201 13.9145 11.9601C13.8105 12.7601 13.9705 13.6001 14.0795 14.3901C14.2005 15.2601 14.3315 16.1301 14.4795 17.0001C14.7695 18.7101 15.1185 20.4001 15.4915 22.0801C15.8635 23.7701 16.2775 25.4401 16.7365 27.1101C16.9535 27.8901 17.1795 28.6801 17.4155 29.4501C17.6795 30.3301 17.8835 31.2702 18.3485 32.0502C18.3835 32.1102 18.4255 32.1601 18.4735 32.2001C18.4675 32.3801 18.4605 32.5701 18.4545 32.7601ZM17.7826 26.9302C17.2596 25.2502 16.7885 23.5501 16.3715 21.8401C15.9715 20.2001 15.6375 18.5401 15.3385 16.8801C15.1885 16.0501 15.0476 15.2101 14.9176 14.3801C14.8136 13.7101 14.7495 13.0001 14.5665 12.3301C15.3235 12.8701 15.9365 13.6501 16.3255 14.4601C17.1535 16.1801 17.4736 18.1602 17.7956 20.0302C18.1946 22.3302 18.4406 24.6701 18.5296 27.0101C18.5586 27.7701 18.5585 28.5202 18.5485 29.2802C18.2835 28.5002 18.0266 27.7202 17.7826 26.9302ZM37.5296 20.7701C37.6816 21.5201 37.6335 22.3602 37.5105 23.0402C36.8125 26.8902 34.6845 30.3201 32.1435 33.2301C29.0255 36.8001 25.1025 39.5602 21.2595 42.2902C21.2305 42.1902 21.2055 42.1001 21.1785 42.0001C22.3155 41.1101 23.3235 39.9801 24.3015 38.9601C25.6155 37.5801 26.8815 36.1601 28.0985 34.7001C30.4865 31.8401 32.6815 28.8102 34.6645 25.6502C35.6675 24.0502 36.6216 22.4201 37.5296 20.7701ZM36.9435 19.4701C37.0195 19.5501 37.0815 19.6501 37.1435 19.7501C37.1155 19.7801 37.0875 19.8101 37.0665 19.8501C33.6715 26.4201 29.3405 32.4902 24.2935 37.9002C23.5705 38.6702 22.8325 39.4302 22.0855 40.1802C21.8075 40.4602 21.5275 40.7401 21.2505 41.0101C21.2885 40.9201 21.3345 40.8401 21.3675 40.7401C21.5125 40.3101 21.6635 39.8801 21.8225 39.4601C22.1385 38.6101 22.4815 37.7701 22.8455 36.9401C23.5875 35.2501 24.4375 33.6102 25.3895 32.0302C27.2685 28.9002 29.5925 26.0301 32.1995 23.4801C33.6895 22.0301 35.3015 20.7601 36.9355 19.4701C36.9385 19.4701 36.9395 19.4701 36.9435 19.4701ZM23.0405 29.3801C24.7025 25.9801 27.2875 23.0502 30.4025 20.9202C31.1855 20.3802 32.0055 19.9001 32.8545 19.4801C33.7375 19.0401 34.7855 18.6102 35.7895 18.8102C35.8865 18.8302 35.9585 18.8702 36.0465 18.9002C33.1425 20.9902 30.5455 23.6801 28.3385 26.4801C26.0385 29.3901 24.0716 32.6001 22.5296 35.9701C22.0996 36.9201 21.7035 37.8701 21.3485 38.8501C21.1595 39.3601 20.9805 39.8802 20.8115 40.4102C20.8085 40.4202 20.8055 40.4301 20.8025 40.4401C20.6655 36.6301 21.3605 32.8001 23.0405 29.3801ZM2.76754 32.8501C3.65054 32.6301 4.61354 32.9601 5.44954 33.2301C6.26054 33.4801 7.05952 33.7701 7.84652 34.0901C9.37352 34.7101 10.8625 35.4502 12.2775 36.2902C15.1525 38.0102 17.5735 40.1902 19.9065 42.5402C19.9925 42.8402 20.1015 43.1302 20.1955 43.4202C17.8565 41.4402 15.3205 39.7001 12.6565 38.1901C10.8615 37.1701 9.00851 36.2501 7.10451 35.4501C6.16751 35.0601 5.21855 34.6901 4.25655 34.3701C3.41355 34.0801 2.54851 33.7801 1.66451 33.6401C1.91351 33.2701 2.26354 32.9801 2.76754 32.8501ZM1.41451 34.1101C2.24051 34.4901 3.12253 34.7402 3.97353 35.0502C4.92753 35.4002 5.87452 35.7702 6.80752 36.1702C8.70452 36.9802 10.5525 37.9101 12.3225 38.9701C14.8135 40.4701 17.1325 42.2101 19.3165 44.1101C16.2485 43.1801 13.2565 41.9701 10.4095 40.5101C7.18051 38.8601 4.19153 36.8401 1.26253 34.7101C1.29753 34.5001 1.34351 34.3001 1.41451 34.1101ZM11.9336 47.3701C8.77355 46.1201 6.14254 43.8202 4.09054 41.1502C3.33754 40.1702 2.56955 39.1101 1.98855 37.9901C3.55055 39.8101 5.46152 41.3801 7.42452 42.6901C10.0965 44.4701 13.0176 45.8501 16.1186 46.7001C17.7906 47.1601 19.4955 47.4701 21.2215 47.6401C18.2295 48.7301 14.8866 48.5401 11.9336 47.3701ZM10.2005 43.3801C8.42152 42.4701 6.74954 41.3801 5.18954 40.1301C3.82254 39.0401 2.59651 37.8002 1.39351 36.5402C1.28151 36.1402 1.21352 35.7001 1.22152 35.2601C3.88552 37.5901 6.89052 39.5401 10.0105 41.2101C13.4625 43.0501 17.0915 44.4901 20.8415 45.5901C20.8845 45.6101 20.9185 45.6001 20.9585 45.6101C21.0775 45.9201 21.2095 46.2202 21.3325 46.5302C17.4455 46.2402 13.6765 45.1501 10.2005 43.3801ZM44.6525 36.8801C46.0475 38.9301 45.9985 41.6901 45.9415 44.0701C45.8775 46.7301 45.6015 49.3901 45.1265 52.0101C44.5845 55.0101 43.7805 57.9502 42.7235 60.8102C42.0315 62.6702 41.2195 64.4801 40.3665 66.2701C40.4425 65.9801 40.5155 65.6802 40.5925 65.4102C40.9015 64.3402 41.1735 63.2502 41.4185 62.1602C41.9185 59.9302 42.2975 57.6802 42.5535 55.4102C43.0565 50.9502 43.0985 46.4201 42.6745 41.9601C42.4475 39.5601 42.1675 37.0901 41.5745 34.7401C42.8015 35.0901 43.9125 35.7901 44.6525 36.8801ZM17.0326 60.3401C19.1186 60.3001 21.2375 60.5601 23.2845 60.9401C26.8675 61.6201 30.2625 62.8701 33.5235 64.4501C33.0835 64.3001 32.6466 64.1601 32.2146 64.0201C30.3786 63.4301 28.5175 62.9201 26.6385 62.4801C23.0615 61.6401 19.3035 60.9001 15.6135 61.1201C14.6205 61.1801 13.6335 61.3301 12.6735 61.5901C12.3325 61.6801 11.9625 61.7902 11.5985 61.9102C13.1105 60.7102 15.1506 60.3701 17.0326 60.3401ZM10.2895 63.4901C10.3685 63.5201 10.4565 63.5402 10.5485 63.5302C11.0665 63.4402 11.5195 63.1601 12.0055 62.9701C12.5335 62.7601 13.0755 62.6001 13.6295 62.4801C14.7295 62.2501 15.8605 62.1502 16.9845 62.1502C19.2115 62.1502 21.4396 62.4701 23.6316 62.8401C25.5736 63.1601 27.4976 63.5801 29.4046 64.0701C27.3686 63.8901 25.3246 63.7801 23.2826 63.7101C18.8766 63.5801 14.3765 63.6101 9.98855 64.1401C10.0725 63.9201 10.1745 63.7001 10.2895 63.4901ZM9.8185 64.7101C14.3565 64.5801 18.8635 64.4302 23.4065 64.6502C25.7005 64.7602 27.9856 64.9601 30.2696 65.1901C31.4116 65.3001 32.5535 65.4401 33.6915 65.5801C34.1425 65.6401 34.6035 65.7302 35.0665 65.8002C35.1505 65.8902 35.2365 65.9702 35.3205 66.0502C28.7825 67.5002 22.0825 67.8202 15.4245 66.7802C13.5065 66.4802 11.6005 66.1002 9.71255 65.6502C9.71555 65.3302 9.7435 65.0201 9.8185 64.7101ZM13.5745 69.5101C11.9005 68.9801 10.0056 68.1302 9.73055 66.1802C9.72955 66.1702 9.73051 66.1602 9.72951 66.1602C16.8255 68.4102 24.5146 68.8201 31.8556 67.7001C33.2966 67.4901 34.7325 67.2101 36.1515 66.8601C36.4975 67.2101 36.8385 67.5501 37.1945 67.8801C29.8835 71.2701 21.2755 71.9601 13.5745 69.5101ZM32.3595 53.3801C31.2355 48.5201 30.5405 42.5601 33.5015 38.1901C34.1775 37.1901 35.0375 36.3102 36.0365 35.6602C34.1565 39.1202 33.5465 43.3202 33.5625 47.1802C33.5815 51.9202 34.6255 56.5801 36.0275 61.0801C36.4075 62.3101 36.8065 63.5301 37.2345 64.7501C34.9785 61.2601 33.3045 57.4701 32.3595 53.3801ZM39.2985 67.1802C38.6785 65.4102 37.9775 63.6601 37.3595 61.8901C36.5635 59.6101 35.8385 57.3001 35.3225 54.9401C34.3705 50.5801 34.0405 46.0602 34.8465 41.6602C35.2615 39.3902 36.0485 37.2401 36.9695 35.1401C37.4045 34.9401 37.8585 34.7802 38.3335 34.6702C38.0035 36.6302 38.0356 38.7201 37.9776 40.6901C37.9146 42.8401 37.8965 44.9901 37.9225 47.1401C37.9745 51.5301 38.1926 55.9202 38.5896 60.2902C38.7926 62.5302 38.9875 64.7901 39.3485 67.0101C39.3315 67.0701 39.3165 67.1202 39.2985 67.1802ZM39.6345 60.9801C39.4005 58.8401 39.2105 56.7002 39.0645 54.5502C38.7675 50.1702 38.6875 45.7801 38.7805 41.3901C38.8055 40.1901 38.8455 38.9902 38.8975 37.8002C38.9455 36.7202 39.0365 35.6302 39.0015 34.5402C39.5095 34.4802 40.0245 34.4802 40.5315 34.5302C40.9285 36.7202 41.4255 38.8701 41.6945 41.0801C41.9605 43.2701 42.1115 45.4802 42.1455 47.6802C42.2145 52.1702 41.7665 56.6801 40.8615 61.0701C40.6315 62.1901 40.3625 63.3102 40.0735 64.4102C39.9175 63.2702 39.7605 62.1301 39.6345 60.9801ZM16.7775 83.7902C16.7415 83.2602 16.8045 82.7201 17.0235 82.2001C17.4255 81.2501 18.2605 80.5701 19.0945 80.0101C20.0575 79.3601 21.0845 78.8001 22.1115 78.2701C24.1735 77.1901 26.3175 76.2802 28.5185 75.5302C30.9825 74.6902 33.5196 74.0602 36.0896 73.6602C37.2886 73.4702 38.4955 73.3201 39.7045 73.2201C33.5395 75.2801 27.5325 77.8301 21.7865 80.8701C20.0805 81.7701 18.3825 82.7202 16.7775 83.7902ZM16.8465 84.3501C20.0675 82.7101 23.2025 80.9101 26.4755 79.3701C29.8705 77.7701 33.3415 76.3201 36.8815 75.0701C38.0035 74.6801 39.1326 74.3101 40.2666 73.9501C39.5146 74.4401 38.7635 74.9402 38.0005 75.4202C36.3815 76.4302 34.7265 77.4001 33.0625 78.3401C29.7595 80.2001 26.3895 81.9501 22.9635 83.5701C21.1825 84.4201 19.3855 85.2201 17.6135 86.0801C17.2535 85.5601 16.9765 84.9701 16.8465 84.3501ZM18.6945 87.2401C18.4225 87.0301 18.1765 86.7801 17.9475 86.5101C21.3415 85.3001 24.6196 83.7101 27.8426 82.1001C31.2706 80.4001 34.6155 78.5401 37.9195 76.6101C39.1955 75.8601 40.4945 75.1201 41.7515 74.3201C41.6195 74.5201 41.4885 74.7001 41.3535 74.8701C40.7855 75.5801 40.1945 76.2801 39.5815 76.9501C38.3155 78.3301 36.9305 79.5901 35.4505 80.7501C32.5335 83.0101 29.2675 84.8401 25.8075 86.1401C23.8675 86.8701 21.8636 87.3901 19.8686 87.9401C19.4566 87.7501 19.0605 87.5201 18.6945 87.2401ZM24.9585 88.8002C23.5915 88.8402 22.1405 88.7401 20.8125 88.3201C24.2325 87.8801 27.6055 86.5501 30.6295 84.9701C34.0355 83.1901 37.1295 80.8501 39.8425 78.1301C40.0595 77.9201 40.2695 77.6901 40.4825 77.4701C40.2485 77.9301 40.0005 78.3801 39.7365 78.8201C38.7755 80.4201 37.6245 81.8901 36.3025 83.2101C34.2345 85.2701 31.8315 86.8401 29.2545 88.1401C27.8525 88.5101 26.4135 88.7502 24.9585 88.8002ZM37.1055 83.9501C36.1295 84.8201 35.0595 85.5701 33.9325 86.2101C36.7205 84.1701 39.0945 81.4902 40.8415 78.6502C41.4775 77.6102 42.1545 76.4901 42.6265 75.3301C41.5785 78.6301 39.7015 81.6501 37.1055 83.9501ZM58.1395 52.6301C59.4095 54.1801 59.4535 56.4801 59.5315 58.3901C59.6305 60.8201 59.5015 63.2602 59.1685 65.6702C58.7945 68.3702 58.1575 71.0401 57.2555 73.6201C56.8565 74.7601 56.4415 75.9101 55.9185 77.0101C56.1615 76.2201 56.3655 75.4101 56.5595 74.6201C57.0255 72.7201 57.3585 70.7801 57.5655 68.8301C57.9695 65.0501 57.9245 61.2002 57.3675 57.4302C57.0685 55.4102 56.6115 53.4301 56.0495 51.4701C56.8385 51.5901 57.5755 51.9401 58.1395 52.6301ZM55.0535 51.4202C55.0545 51.4202 55.0525 51.4302 55.0535 51.4302C57.2585 58.5602 57.5375 66.2802 55.9615 73.5602C55.8525 74.0602 55.7256 74.5602 55.5896 75.0602C55.6356 74.1602 55.6675 73.2701 55.6935 72.3901C55.7645 70.0501 55.7296 67.7101 55.5896 65.3801C55.4496 63.0501 55.2255 60.7202 54.8875 58.4102C54.7185 57.2602 54.5185 56.1101 54.2905 54.9601C54.0785 53.8901 53.8985 52.7701 53.5105 51.7401C54.0095 51.5701 54.5325 51.4502 55.0535 51.4202ZM52.7905 52.0302C52.8385 52.0102 52.8885 51.9901 52.9375 51.9701C53.0525 53.0501 53.3495 54.1201 53.5445 55.1901C53.7545 56.3401 53.9385 57.4902 54.1005 58.6502C54.4135 60.8802 54.6375 63.1301 54.7385 65.3901C54.8405 67.6801 54.8366 69.9801 54.7276 72.2701C54.6876 73.1101 54.6145 73.9502 54.5345 74.7802C54.3175 72.1302 53.8835 69.4902 53.3975 66.9002C52.6255 62.7902 51.4766 58.7501 50.0426 54.8201C49.9896 54.6801 49.8965 54.6002 49.7905 54.5502C50.6005 53.5002 51.6095 52.6002 52.7905 52.0302ZM47.9225 67.6301C47.1695 65.0501 46.9985 62.2601 47.5495 59.6201C47.7065 61.0701 48.0275 62.5102 48.3495 63.9202C48.7355 65.6202 49.1725 67.3101 49.6565 68.9801C50.1525 70.7001 50.6845 72.4001 51.2675 74.0901C51.4225 74.5401 51.5755 74.9901 51.7305 75.4501C50.1295 73.0101 48.7435 70.4401 47.9225 67.6301ZM54.1395 78.8002C54.1405 78.8002 54.1385 78.8002 54.1395 78.8002C53.5855 77.1102 52.7635 75.5001 52.1395 73.8401C51.5135 72.1701 50.9376 70.4801 50.4306 68.7701C49.9226 67.0601 49.4715 65.3301 49.0695 63.5901C48.6715 61.8701 48.3845 60.1202 47.8805 58.4202C47.8765 58.4102 47.8665 58.4102 47.8625 58.4002C48.1045 57.6102 48.4025 56.8301 48.7945 56.0901C48.9105 55.8801 49.0356 55.6601 49.1676 55.4501C50.5726 59.2601 51.6825 63.1702 52.5255 67.1502C53.3415 71.0002 53.6865 74.8802 54.1425 78.7802C54.1415 78.7902 54.1395 78.8002 54.1395 78.8002ZM39.2005 90.4302C41.2365 89.3102 43.4205 88.4301 45.6745 87.8501C47.5385 87.3801 49.4345 87.1001 51.3365 87.0101C49.5185 87.4001 47.7175 87.8701 45.9475 88.4401C42.3905 89.5901 38.9665 91.1001 35.7305 92.9701C36.7275 91.9301 37.9775 91.1102 39.2005 90.4302ZM34.4155 94.7802C34.5555 94.5002 34.7175 94.2401 34.8935 93.9901C38.5005 92.0701 42.2665 90.4401 46.1745 89.2401C48.2155 88.6201 50.2946 88.1101 52.3916 87.7101C53.4236 87.5101 54.4605 87.3401 55.5005 87.2101C55.7385 87.1701 55.9885 87.1501 56.2435 87.1301C56.6675 87.1801 57.0925 87.2202 57.5145 87.2802C57.2055 87.3402 56.8955 87.4001 56.5875 87.4601C55.6865 87.6401 54.7885 87.8302 53.8965 88.0502C52.1395 88.4902 50.4005 89.0101 48.6905 89.6001C45.1815 90.8201 41.7975 92.3701 38.5745 94.2101C36.9815 95.1301 35.3095 96.0801 33.8875 97.2701C33.8475 96.4401 34.0075 95.5902 34.4155 94.7802ZM35.0896 100.34C34.4896 99.6001 34.1095 98.7601 33.9545 97.8901C35.4465 97.0801 36.8555 96.1001 38.3375 95.2601C39.9375 94.3601 41.5795 93.5402 43.2565 92.7902C46.5715 91.3102 50.0115 90.0901 53.5355 89.2201C54.4495 88.9901 55.3675 88.7901 56.2895 88.6001C55.8105 88.7701 55.3285 88.9301 54.8535 89.1201C53.1375 89.7801 51.4485 90.5102 49.7765 91.2802C46.4255 92.8202 43.2135 94.6101 40.1355 96.6401C38.3895 97.7901 36.7305 99.0401 35.1035 100.36C35.0995 100.35 35.0946 100.35 35.0896 100.34ZM37.0515 101.96C36.4655 101.63 35.9205 101.23 35.4445 100.73C41.2685 96.4701 47.6795 92.8301 54.4585 90.3401C54.7715 90.2301 55.0896 90.1301 55.4046 90.0101C55.3346 90.0801 55.2655 90.1501 55.1955 90.2101C54.4275 90.9101 53.6395 91.6001 52.8445 92.2701C51.3085 93.5701 49.6925 94.7802 48.0215 95.9002C46.3205 97.0302 44.5635 98.0902 42.7565 99.0502C40.9155 100.03 38.9845 100.83 37.1565 101.83C37.1035 101.86 37.0705 101.9 37.0515 101.96ZM43.6425 102.68C42.7845 102.86 41.9125 102.97 41.0355 102.96C39.8015 102.96 38.5885 102.7 37.5015 102.19C39.4445 101.63 41.2815 100.71 43.0725 99.7802C44.8905 98.8402 46.6625 97.8101 48.3805 96.6901C50.1275 95.5601 51.8195 94.3402 53.4625 93.0602C54.2835 92.4202 55.0795 91.7502 55.8585 91.0602C56.2735 90.6902 56.6856 90.3201 57.0896 89.9401C57.3396 89.7001 57.5895 89.4901 57.7505 89.2201C57.7895 89.2101 57.8295 89.2002 57.8685 89.1802C57.5625 89.7002 57.3085 90.2601 57.0105 90.7401C56.5135 91.5401 55.9815 92.3201 55.4145 93.0701C54.2665 94.5901 52.9825 96.0102 51.5795 97.3002C50.1955 98.5702 48.7015 99.7301 47.1185 100.74C45.9995 101.46 44.8215 102.07 43.6425 102.68ZM53.2735 97.5801C51.7955 98.8801 50.1615 100 48.4105 100.9C49.7155 100.02 50.9595 99.0501 52.1225 97.9901C53.5405 96.7001 54.8495 95.2801 56.0215 93.7601C56.6335 92.9701 57.2085 92.1502 57.7425 91.3002C58.1935 90.5802 58.8975 89.6801 59.0535 88.8301C59.2395 88.7801 59.4265 88.7202 59.6095 88.6602C58.2105 92.0702 56.0455 95.1401 53.2735 97.5801ZM76.5875 71.9102C77.2165 73.9902 77.2565 76.2901 77.1485 78.4501C77.0415 80.5801 76.7116 82.7101 76.1546 84.7701C75.5306 87.0801 74.6315 89.3202 73.5055 91.4302C72.8805 92.5902 72.1565 93.7002 71.4135 94.7902C71.9735 93.6202 72.4316 92.3902 72.8426 91.1702C73.4646 89.3102 73.9895 87.3901 74.3415 85.4701C75.0515 81.5901 75.1675 77.6301 74.7815 73.7101C74.6745 72.6201 74.5246 71.5501 74.3296 70.4801C74.1846 69.6801 74.0835 68.7202 73.7715 67.9202C75.1775 68.8102 76.1065 70.3102 76.5875 71.9102ZM72.7176 67.3901C72.6966 67.4401 72.6625 67.4701 72.6605 67.5201C72.6195 68.4101 73.0185 69.3501 73.2065 70.2101C73.4085 71.1401 73.5765 72.0701 73.7125 73.0101C73.9875 74.9101 74.1126 76.8401 74.0926 78.7601C74.0536 82.5701 73.5075 86.4301 72.4055 90.0801C71.8675 91.8601 71.1435 93.5602 70.4575 95.2802C70.5185 94.9902 70.5745 94.7002 70.6295 94.4102C70.8185 93.4302 70.9885 92.4301 71.1375 91.4401C71.4365 89.4501 71.6565 87.4501 71.7975 85.4401C72.0735 81.5001 72.0465 77.5301 71.7165 73.5901C71.5375 71.4501 71.2625 69.3301 70.8985 67.2201C71.4915 67.1401 72.1046 67.1801 72.7176 67.3901ZM67.3485 89.7101C66.7315 87.4101 66.2855 85.0701 66.0185 82.7001C65.7505 80.3301 65.6506 77.9302 65.7666 75.5502C65.8736 73.3302 66.2076 70.9702 67.6316 69.1802C67.7366 69.0502 67.8526 68.9302 67.9676 68.8102C67.6866 70.7302 67.6765 72.7402 67.6165 74.6602C67.5435 77.0102 67.5356 79.3701 67.5926 81.7301C67.6496 84.1201 67.7735 86.5202 67.9715 88.9002C68.0705 90.1002 68.1875 91.2901 68.3195 92.4801C68.3365 92.6301 68.3555 92.7901 68.3725 92.9401C67.9915 91.8801 67.6425 90.8001 67.3485 89.7101ZM69.5835 96.1101C69.5585 96.0501 69.5345 95.9902 69.5105 95.9202C69.5385 95.8802 69.5735 95.8402 69.5835 95.7802C69.6805 95.1902 69.5455 94.5901 69.4705 94.0101C69.4005 93.4501 69.3335 92.9001 69.2705 92.3401C69.1355 91.1501 69.0166 89.9601 68.9156 88.7601C68.7166 86.4201 68.5795 84.0701 68.5085 81.7101C68.4355 79.3201 68.4345 76.9202 68.5005 74.5302C68.5595 72.4002 68.8005 70.2501 68.7455 68.1201C69.0805 67.8801 69.4365 67.6701 69.8125 67.5101C71.1715 75.1501 71.4265 82.9502 70.4525 90.6502C70.3165 91.7302 70.1575 92.8001 69.9755 93.8701C69.8495 94.6001 69.6765 95.3601 69.5835 96.1101ZM58.9955 103.74C61.0845 103.18 63.2645 103.06 65.4145 102.95C65.9105 102.93 66.4175 102.92 66.9275 102.92C64.0795 103.24 61.2595 104 58.6475 105.09C56.8855 105.82 55.0605 106.66 53.5875 107.9C53.0215 108.37 52.5095 108.92 52.1095 109.54C52.9395 106.44 56.0635 104.52 58.9955 103.74ZM51.9865 112.26C52.0405 112.24 52.0885 112.2 52.1265 112.15C52.3405 111.81 52.3815 111.49 52.4835 111.12C52.5915 110.73 52.7735 110.36 52.9955 110.02C53.4275 109.36 54.0056 108.82 54.6286 108.35C56.0916 107.23 57.8325 106.44 59.5305 105.76C61.9015 104.8 64.3355 104.19 66.8205 103.82C66.2665 104.03 65.7106 104.25 65.1656 104.49C63.4746 105.23 61.8315 106.08 60.2435 107.03C58.6855 107.96 57.1845 108.98 55.7505 110.09C55.0265 110.65 54.3195 111.23 53.6315 111.84C53.1665 112.24 52.6675 112.66 52.2255 113.12C52.1245 112.84 52.0405 112.56 51.9865 112.26ZM52.8805 114.34C52.7325 114.14 52.6085 113.94 52.4965 113.73C53.0205 113.28 53.5085 112.78 54.0225 112.34C54.6885 111.76 55.3715 111.2 56.0705 110.66C57.5275 109.54 59.0545 108.51 60.6385 107.58C62.1595 106.69 63.7335 105.88 65.3505 105.18C66.1595 104.82 66.9785 104.5 67.8075 104.19C67.8865 104.16 67.9655 104.14 68.0445 104.11C67.5395 104.58 67.0355 105.06 66.5175 105.52C65.1285 106.76 63.7055 107.96 62.2375 109.11C60.7705 110.25 59.2645 111.35 57.7215 112.39C56.3585 113.31 54.9335 114.13 53.5705 115.05C53.3195 114.84 53.0835 114.61 52.8805 114.34ZM57.1485 116.32C56.0725 116.29 54.9815 115.99 54.0755 115.42C55.4965 114.71 56.8516 113.83 58.1806 112.97C59.7446 111.96 61.2745 110.9 62.7635 109.78C64.2515 108.66 65.7065 107.5 67.1075 106.27C67.8085 105.66 68.4975 105.04 69.1765 104.4C69.2355 104.35 69.3105 104.28 69.3765 104.23C69.2855 104.44 69.1955 104.66 69.0985 104.85C68.7375 105.55 68.3395 106.24 67.9105 106.9C67.0645 108.22 66.1155 109.47 65.0745 110.63C64.0375 111.8 62.9065 112.88 61.7005 113.87C60.6855 114.7 59.5765 115.41 58.5605 116.23C58.0915 116.29 57.6205 116.33 57.1485 116.32ZM69.8805 105.99C69.6065 106.72 69.2795 107.44 68.9065 108.14C68.1725 109.51 67.2335 110.77 66.1595 111.89C64.7325 113.38 62.8575 114.79 60.8205 115.61C61.2725 115.28 61.7155 114.94 62.1485 114.6C63.3995 113.6 64.5645 112.49 65.6395 111.3C66.7105 110.12 67.6875 108.85 68.5575 107.51C68.9785 106.87 69.3705 106.2 69.7505 105.53C69.9205 105.23 70.1695 104.86 70.3765 104.48C70.1985 104.97 70.0665 105.48 69.8805 105.99ZM89.9715 92.0302C90.0655 91.7902 90.1705 91.5602 90.2325 91.3102C90.3395 91.4102 90.4175 91.5302 90.5055 91.6502C90.4325 92.2902 90.4646 92.9601 90.3816 93.5901C90.2616 94.5001 90.0775 95.4102 89.8205 96.2902C89.3125 98.0402 88.5655 99.7201 87.5825 101.25C85.6595 104.25 82.8755 106.61 79.6265 108.06C78.3275 108.65 76.9505 109.09 75.5525 109.4C77.8745 107.97 80.0025 106.2 81.9015 104.27C84.3155 101.82 86.3915 99.0502 88.0605 96.0402C88.5345 95.1802 88.9735 94.3102 89.3765 93.4202C89.5845 92.9602 89.7835 92.5002 89.9715 92.0302ZM73.6845 107.46C73.7955 107.47 73.9115 107.44 73.9585 107.31C74.5315 105.7 75.0835 104.11 75.8445 102.57C76.6115 101.03 77.5535 99.5801 78.6225 98.2201C80.7535 95.5201 83.4645 93.2601 86.5445 91.7101C86.9245 91.5201 87.3295 91.3202 87.7465 91.1702C87.4105 91.5102 87.0826 91.8701 86.7536 92.2101C86.0386 92.9501 85.3335 93.7101 84.6385 94.4701C83.2235 96.0201 81.8505 97.6101 80.5205 99.2401C79.1905 100.87 77.9115 102.53 76.6775 104.24C76.0715 105.07 75.4765 105.92 74.8925 106.77C74.5515 107.27 74.1245 107.8 73.7935 108.37C73.7615 108.06 73.7285 107.76 73.6845 107.46ZM73.8965 109.65C73.8935 109.59 73.8865 109.53 73.8835 109.47C74.5645 108.91 75.0485 107.97 75.5485 107.27C76.1475 106.43 76.7576 105.6 77.3786 104.77C78.6426 103.09 79.9525 101.45 81.2985 99.8301C82.6215 98.2501 83.9855 96.7002 85.3895 95.1802C86.0915 94.4202 86.8035 93.6701 87.5265 92.9401C88.0945 92.3601 88.6925 91.7801 89.2555 91.1901C89.0275 91.6601 88.8806 92.2201 88.7046 92.6301C88.3856 93.3801 88.0395 94.1301 87.6695 94.8601C86.8895 96.4001 85.9975 97.8802 85.0055 99.2902C83.0675 102.05 80.7506 104.52 78.1286 106.64C76.7786 107.73 75.3465 108.7 73.8965 109.65ZM91.3535 98.1901C90.6765 101.91 88.3436 105.06 85.3816 107.32C83.7236 108.59 81.8505 109.67 79.8795 110.36C78.1365 110.98 76.1605 111.09 74.5235 110.21C81.7655 109.59 88.1405 104.24 90.4625 97.4102C90.8075 96.4002 91.0725 95.3502 91.2495 94.3002C91.2835 94.1002 91.2985 93.8901 91.3255 93.6901C91.6425 95.1601 91.6195 96.7201 91.3535 98.1901Z" fill="#4D4C51"/>
</svg>
