<svg width="70" height="120" viewBox="0 0 70 120" fill="none" xmlns="http://www.w3.org/2000/svg">
<path d="M44.0267 78.8162C45.8867 77.2632 47.5867 75.5302 49.2567 73.7812C50.9567 72.0032 52.5966 70.1662 54.1766 68.2802C57.3166 64.5332 60.2166 60.5892 62.8766 56.4892C64.3766 54.1782 65.7966 51.8142 67.1266 49.4022C67.2666 49.1512 66.9967 48.7752 66.7067 48.8982C62.0667 50.8702 57.9866 53.9872 54.6466 57.7402C51.3166 61.4712 48.7166 65.7982 46.6366 70.3312C46.0466 71.6072 45.5067 72.9012 44.9967 74.2082C44.5067 75.4522 44.0166 76.7052 43.6666 77.9972C43.0666 76.2732 42.4465 74.5562 41.8065 72.8462C42.2565 71.9362 42.6267 70.9882 42.9767 70.0402C43.4667 68.7362 43.8967 67.4122 44.2767 66.0722C45.0367 63.3942 45.5566 60.6482 45.8666 57.8842C46.4866 52.3392 46.2466 46.7052 45.1366 41.2362C44.5066 38.1603 43.5866 35.1573 42.3966 32.2513C42.2566 31.9183 41.7867 31.9053 41.6867 32.2763C40.2967 37.3983 39.3967 42.6372 39.0167 47.9302C38.6367 53.2222 38.7666 58.5502 39.4066 63.8172C39.5966 65.3762 39.8366 66.9302 40.1166 68.4772C38.0966 63.4292 35.8767 58.4652 33.4367 53.6102C33.4967 53.5892 33.5566 53.5472 33.5866 53.4732C35.1166 49.2952 36.0865 44.9052 36.7965 40.5163C37.4965 36.1483 37.8967 31.7253 37.9467 27.3013C37.9867 24.7863 37.9067 22.2713 37.7267 19.7633C37.6967 19.4173 37.2565 19.3133 37.0765 19.6133C34.7365 23.6633 33.0465 28.0913 32.0665 32.6673C31.0865 37.2273 30.8067 41.9442 31.2467 46.5862C31.3667 47.8582 31.5467 49.1232 31.7767 50.3792C31.2767 49.4312 30.7667 48.4872 30.2467 47.5482C29.8967 46.9092 29.5366 46.2752 29.1766 45.6412C29.2166 45.3092 29.2568 44.9782 29.2868 44.6442C29.3268 44.1182 29.3466 43.5902 29.3666 43.0632C29.4166 42.0072 29.4667 40.9512 29.5067 39.8953C29.5767 37.8033 29.6166 35.7093 29.5966 33.6153C29.5666 29.4173 29.3166 25.2123 28.6266 21.0683C28.2366 18.7543 27.7167 16.4673 27.0167 14.2263C26.9267 13.9223 26.4466 13.9213 26.3866 14.2493C25.6266 18.2473 25.2367 22.3003 25.2667 26.3713C25.2967 30.4193 25.7067 34.4633 26.4967 38.4343C26.7867 39.8943 27.1267 41.3412 27.5267 42.7762C26.0667 40.2913 24.5866 37.8263 23.1066 35.3563C23.3366 31.3093 23.0265 27.2073 22.5465 23.1893C22.0565 19.1823 21.3165 15.2053 20.3165 11.2973C19.7365 9.0793 19.0866 6.8853 18.3566 4.7153C18.2366 4.3613 17.7167 4.4513 17.7067 4.8223C17.6567 12.5823 18.5067 20.3503 20.2767 27.9063C20.6567 29.5403 21.0965 31.1613 21.5665 32.7743C20.2365 30.5333 18.9266 28.2833 17.6566 26.0053C17.4966 25.7103 17.3366 25.4153 17.1766 25.1203C17.2366 25.0813 17.2767 25.0003 17.2367 24.9253C17.1967 24.8573 17.1466 24.7933 17.1066 24.7253C16.9766 23.4513 16.7667 22.1783 16.5267 20.9313C16.1767 19.1063 15.7367 17.2983 15.1967 15.5183C14.1567 12.0103 12.6966 8.6283 10.9166 5.4313C9.89663 3.5953 8.75673 1.8273 7.51673 0.135301C7.26673 -0.198699 6.71668 0.1503 6.96668 0.4843C7.02668 0.5653 7.08661 0.649302 7.14661 0.730302C8.58661 7.9483 11.3466 14.7863 14.5966 21.3663C14.5866 21.3573 14.5865 21.3483 14.5765 21.3393C13.5965 20.1903 12.5767 19.0823 11.5067 18.0173C9.37672 15.8883 7.05658 13.9403 4.60658 12.1933C3.22658 11.2173 1.81659 10.3093 0.366585 9.4463C0.146585 9.3143 -0.0932486 9.6003 0.0367514 9.8063C3.37675 15.0353 7.64675 19.6713 12.5368 23.4883C13.8968 24.5553 15.3165 25.6143 16.8265 26.4793C16.8565 26.5003 16.8967 26.5053 16.9367 26.5043C17.0267 26.5933 17.1867 26.5743 17.2267 26.4423C19.2767 30.2723 21.4566 34.0353 23.6366 37.7963C23.4266 37.5723 23.2167 37.3483 22.9967 37.1263C21.9767 36.0573 20.8867 35.0333 19.7667 34.0543C17.5167 32.0733 15.1366 30.2483 12.6266 28.5993C11.1866 27.6533 9.71667 26.7603 8.20667 25.9383C7.91667 25.7803 7.67653 26.1183 7.80653 26.3753C10.4465 31.6213 14.8867 35.8983 20.2167 38.3573C21.7167 39.0483 23.2866 39.6013 24.8866 39.9803C24.8966 39.9813 24.8966 39.9793 24.9066 39.9803C25.8566 41.6212 26.8067 43.2642 27.7367 44.9142C29.4467 47.9302 31.0766 50.9802 32.6266 54.0672C32.6566 54.1592 32.6767 54.2522 32.6967 54.3442C32.7367 54.4542 32.7966 54.5242 32.8766 54.5622C33.6166 56.0522 34.3365 57.5542 35.0465 59.0622C34.1465 57.7322 33.1766 56.4452 32.1666 55.1972C30.5566 53.2082 28.8367 51.3132 26.9967 49.5262C23.3167 45.9292 19.1967 42.7852 14.7567 40.1643C12.2667 38.6893 9.6667 37.3883 6.9867 36.2703C6.6267 36.1163 6.30656 36.5413 6.58656 36.8383C9.98656 40.4543 13.5665 43.8992 17.3065 47.1642C21.0465 50.4282 24.9467 53.5072 28.9867 56.3862C31.1667 57.9372 33.3866 59.4272 35.6366 60.8612C35.8566 61.1622 36.0667 61.4622 36.2767 61.7642C36.2767 61.7732 36.2865 61.7762 36.2965 61.7842C37.1565 63.7192 37.9965 65.6682 38.7965 67.6382C39.1465 68.4982 39.4865 69.3622 39.8265 70.2262C39.3465 69.5102 38.8465 68.8052 38.3265 68.1192C36.9965 66.3832 35.5567 64.7372 34.0067 63.1992C30.9167 60.1192 27.3765 57.4482 23.5565 55.3352C21.3865 54.1402 19.1365 53.1292 16.8065 52.3052C16.5765 52.2222 16.3467 52.5492 16.4967 52.7412C19.0767 56.1312 21.8967 59.3272 25.0067 62.2452C28.1167 65.1602 31.4768 67.8052 35.0368 70.1432C36.9568 71.4022 38.9267 72.5712 40.9467 73.6482C40.9367 73.6772 40.9266 73.7052 40.9166 73.7342C40.8566 73.9192 41.0967 74.0142 41.2267 73.9092C42.6267 77.6952 43.9266 81.5192 45.1666 85.3632C45.1466 85.3102 45.1065 85.2632 45.0565 85.2232C44.0165 83.7912 42.8867 82.4262 41.7467 81.0882C39.9967 79.0232 38.1266 77.0532 36.1766 75.1812C32.2866 71.4662 28.0367 68.1412 23.4967 65.2602C20.9267 63.6272 18.2667 62.1402 15.5267 60.8072C15.2067 60.6512 14.8365 61.0132 15.0465 61.3272C17.8265 65.5592 21.1068 69.4662 24.7868 72.9442C28.4568 76.4232 32.5466 79.4792 36.9166 82.0282C39.3966 83.4712 41.9666 84.7462 44.6166 85.8462C44.6566 85.8662 44.7067 85.8712 44.7467 85.8732C45.0667 86.2892 45.3967 86.6982 45.7267 87.1102C46.2067 88.6462 46.6866 90.1842 47.1466 91.7262C47.2366 92.0182 47.3166 92.3102 47.4066 92.6022C47.2566 92.5802 47.1067 92.5522 46.9467 92.5292C46.5067 92.2262 46.0666 91.9352 45.6066 91.6442C44.5866 90.9942 43.5668 90.3532 42.5368 89.7192C40.4568 88.4422 38.3567 87.2092 36.2367 86.0082C31.9967 83.6072 27.6865 81.3362 23.2965 79.2232C20.8165 78.0332 18.3265 76.8822 15.8165 75.7922C15.4065 75.6172 15.0766 76.0892 15.3766 76.4122C18.6266 79.9522 22.3466 83.0512 26.4066 85.6152C30.4666 88.1792 34.8767 90.1962 39.4667 91.6112C41.9867 92.3892 44.5666 92.9722 47.1766 93.3632C47.3566 93.4642 47.5367 93.5622 47.7167 93.6572C48.5167 96.3812 49.2868 99.1162 50.0368 101.853C47.1068 99.8032 44.0167 97.9972 40.7667 96.5112C37.2967 94.9242 33.6767 93.6672 29.9767 92.7692C27.8667 92.2592 25.7366 91.8822 23.5866 91.5802C23.2866 91.5372 23.0365 91.9032 23.2965 92.1382C26.1665 94.7532 29.4467 96.9202 32.9467 98.6002C36.4467 100.281 40.1767 101.487 44.0067 102.152C45.9867 102.496 48.0168 102.708 50.0368 102.709C50.0868 102.749 50.1467 102.786 50.2067 102.826C50.2367 102.852 50.2765 102.865 50.3165 102.877C51.5465 107.37 52.7367 111.87 53.9867 116.359C54.2667 117.375 54.5666 118.382 54.8866 119.384C55.0266 119.788 55.5867 119.594 55.5067 119.193C54.6767 115.02 53.4766 110.908 52.3766 106.801C51.4566 103.417 50.5165 100.041 49.5465 96.6732C53.0865 93.6482 56.2167 90.1932 59.0067 86.4712C61.8167 82.7172 64.2567 78.6942 66.2767 74.4602C67.4067 72.0702 68.4167 69.6172 69.2767 67.1162C69.4167 66.7032 68.8566 66.5192 68.5966 66.7582C65.1566 69.9172 62.0067 73.3912 59.1967 77.1202C56.3767 80.8612 53.8867 84.8512 51.7767 89.0362C50.7967 90.9902 49.8965 92.9882 49.0765 95.0162C49.0265 94.8402 48.9766 94.6622 48.9266 94.4862C48.1666 91.8822 47.3765 89.2842 46.5565 86.6972C49.9365 84.0182 53.0567 81.0092 55.9767 77.8362C58.9967 74.5602 61.7665 71.0622 64.2965 67.3972C65.7165 65.3352 67.0565 63.2172 68.3165 61.0502C68.5065 60.7192 68.0965 60.4212 67.8065 60.5802C63.8165 62.7392 60.1667 65.4712 56.9567 68.6762C53.7567 71.8762 51.0065 75.5352 48.8265 79.5032C47.7965 81.3712 46.8766 83.3212 46.1166 85.3222C45.4166 83.1572 44.7067 80.9972 43.9667 78.8482C43.9867 78.8422 44.0067 78.8332 44.0267 78.8162Z" fill="#4D4C51"/>
</svg>
