<svg width="83" height="78" viewBox="0 0 83 78" fill="none" xmlns="http://www.w3.org/2000/svg">
<path d="M24.5526 59.0699C27.9239 57.3999 31.2881 55.72 34.6876 54.11C36.5366 53.24 38.4496 52.4999 40.3337 51.6899C40.3646 51.7499 40.3955 51.8 40.4262 51.86C40.235 52.01 40.0494 52.1699 39.8514 52.3199C37.7283 53.8799 35.6997 55.58 33.283 56.7C33.0112 56.83 32.8017 57.09 32.5361 57.23C31.6829 57.7 30.8643 58.3401 29.9465 58.5601C27.8462 59.0601 25.6949 59.35 23.5642 59.72C23.139 59.79 22.7125 59.86 22.4871 59.9C22.9349 59.54 23.5101 59.06 24.0972 58.61C25.1795 57.76 25.6967 56 25.0977 54.78C24.9185 54.42 24.4546 54.09 24.0507 53.95C21.651 53.11 19.2058 52.44 16.6501 52.25C15.5886 52.17 14.5298 52.06 13.453 51.97C13.7838 51.29 13.3184 50.7499 12.8552 50.1899C11.5715 48.6299 10.0393 47.45 8.175 46.6C6.5805 45.87 5.1305 44.83 3.6189 43.92C3.2861 43.72 2.963 43.51 2.5539 43.25C3.4572 43.27 4.2818 43.41 5.0499 43.27C6.4156 43.01 7.7556 42.6 9.0908 42.2C10.5158 41.77 11.9352 41.3201 13.3335 40.8101C14.2556 40.4801 15.1789 40.1 16.0263 39.62C17.7199 38.65 18.3409 37.0799 17.5249 35.3199C16.2436 32.5599 15.0935 29.6899 12.9182 27.4399C12.1467 26.6499 11.2946 25.93 10.3507 25.05C10.7713 25.13 11.0797 25.26 11.3739 25.23C12.4546 25.13 13.5698 25.1101 14.5969 24.8101C15.5613 24.5301 16.0874 23.61 16.1655 22.64C16.2729 21.3 16.2864 19.94 16.1631 18.61C16.1115 18.05 15.6055 17.54 15.2887 16.97C15.2707 16.98 15.3732 16.86 15.4883 16.85C16.4176 16.73 16.5028 16.06 16.4366 15.36C16.2957 13.87 16.0993 12.38 15.9343 10.89C15.8991 10.57 15.9006 10.25 15.8822 9.85999C15.9902 9.93999 16.0568 9.97001 16.0776 10.01C17.3915 12.81 19.92 13.77 22.6952 14.34C23.2049 14.45 23.7401 14.44 24.2644 14.46C25.354 14.52 26.1354 14.11 26.4638 13.02C26.4864 12.94 26.5572 12.88 26.6503 12.75C27.4595 14.82 29.1899 16.08 30.5362 17.66C31.2552 18.5 31.8239 19.47 32.4257 20.4C33.4992 22.07 35.134 22.6 36.9915 22.64C37.8613 22.67 38.1209 22.45 38.3497 21.61C38.9305 19.5 39.1616 17.34 39.2494 15.15C39.3029 13.81 39.501 12.48 39.6334 11.15C40.0175 11.49 40.3464 11.84 40.7335 12.1C41.2822 12.47 41.8772 12.47 42.4758 12.16C43.8196 11.46 45.083 10.68 46.0535 9.44995C46.493 8.89995 47.1879 8.41994 47.8645 8.18994C49.3485 7.69994 50.164 6.58 50.9032 5.37C51.4608 4.45 51.9349 3.48005 52.5006 2.43005C52.5286 2.76005 52.5972 3.01 52.5633 3.25C52.3173 4.99 52.6743 6.63997 53.3601 8.21997C53.8806 9.41997 54.4654 10.6 55.09 11.75C56.0478 13.51 58.078 14.41 60.0538 13.99C60.6883 13.86 61.3113 13.67 61.9928 13.49C59.7024 15.9 58.2338 18.69 57.5862 21.9C57.4827 22.42 57.2573 22.9201 57.2442 23.4301C57.2272 24.1101 57.3566 24.79 57.4365 25.48C57.4736 25.79 57.4774 26.14 57.6195 26.4C57.7166 26.58 58.0211 26.74 58.2433 26.76C59.7174 26.86 61.1791 26.79 62.5496 26.15C64.634 25.19 66.711 24.2 68.795 23.23C69.423 22.94 70.062 22.68 70.692 22.4C70.733 22.45 70.781 22.48 70.782 22.51C70.818 23.56 70.973 23.69 72.091 23.65C74.6 23.57 77.026 22.99 79.45 22.4C79.547 22.38 79.642 22.35 79.869 22.29C79.527 22.78 79.287 23.1901 78.988 23.5601C77.454 25.4101 76.617 27.61 75.92 29.86C75.418 31.48 75.031 33.14 74.593 34.78C74.571 34.86 74.56 34.95 74.546 35.03C74.245 36.86 74.732 37.76 76.441 38.49C76.997 38.73 77.572 38.92 78.222 39.16C77.263 39.48 76.357 39.72 75.501 40.08C74.866 40.35 74.209 40.68 73.714 41.15C72.344 42.43 71.052 43.79 69.731 45.13C69.085 45.78 68.959 46.58 69.34 47.36C69.718 48.14 70.227 48.8599 70.716 49.5699C72.212 51.7799 74.299 53.31 76.607 54.54C77.517 55.03 78.585 55.22 79.524 55.53C78.22 55.64 76.838 55.77 75.456 55.88C73.98 56 72.718 56.6 71.606 57.55C71.065 58.01 70.998 58.64 71.03 59.28C71.091 60.47 71.345 61.6099 71.999 62.6899C71.679 62.5099 71.339 62.35 71.043 62.13C69.825 61.23 68.414 61.06 66.959 60.89C65.332 60.71 63.727 60.33 62.1127 60.03C61.704 59.96 61.2978 59.86 60.8873 59.8C60.1089 59.68 59.3281 59.57 58.5487 59.46C58.1975 59.41 57.6712 59.18 57.5307 59.33C57.1548 59.71 56.7917 60.23 56.697 60.75C56.4076 62.33 56.5519 63.92 56.939 65.48C57.0837 66.06 57.2036 66.65 57.21 67.34C56.7334 66.95 56.1546 66.64 55.8006 66.16C54.9243 64.98 53.5587 64.6199 52.3803 63.9399C51.8812 63.6499 51.3395 63.33 51.0003 62.88C49.2112 60.55 47.4964 58.15 45.7229 55.8C44.8029 54.58 43.8142 53.41 42.859 52.22C42.7147 52.04 42.5837 51.85 42.4748 51.64C47.0843 54.79 50.7054 59 54.822 62.74C54.646 62.44 54.5197 62.09 54.2862 61.85C52.2533 59.71 50.2383 57.56 48.1408 55.49C46.8216 54.19 45.3689 53.02 43.9795 51.79C43.8055 51.64 43.6537 51.46 43.4915 51.29C43.5119 51.23 43.5324 51.17 43.5528 51.11C44.1441 51.22 44.734 51.3301 45.3268 51.4301C47.7257 51.8301 50.1196 52.27 52.5282 52.6C53.413 52.72 53.9631 53.19 54.5284 53.78C55.8888 55.21 57.3509 56.51 59.1442 57.39C59.326 57.48 59.5271 57.53 59.7539 57.54C57.9465 56.18 56.2133 54.76 54.5893 52.92C55.9808 53.01 57.1864 53.09 58.3917 53.17C58.8284 53.2 59.2645 53.27 59.701 53.27C60.6144 53.27 61.1676 53.82 61.7 54.46C61.9694 54.78 62.3343 55.03 62.6662 55.3C63.408 55.91 64.132 56.54 64.907 57.09C65.668 57.64 66.481 58.12 67.277 58.61C67.379 58.68 67.516 58.69 67.684 58.65C65.537 57.09 63.414 55.51 61.41 53.5C66.361 53.93 71.104 54.33 75.846 54.74C75.862 54.64 75.877 54.55 75.893 54.46C74.846 54.26 73.807 53.98 72.75 53.86C69.794 53.53 66.83 53.27 63.871 52.98C62.9189 52.88 61.9702 52.76 60.9775 52.64C61.9534 50.47 64.081 49.47 65.547 47.72C65.378 47.76 65.309 47.75 65.273 47.78C63.824 49.07 62.0717 50.03 61.0168 51.73C60.6128 52.38 60.1511 52.58 59.3458 52.46C57.8778 52.24 56.3814 52.22 54.8973 52.1C54.5722 52.08 54.2497 52.02 53.7877 51.96C55.5594 50.05 57.5067 48.5 59.3933 46.85C59.0241 47.04 58.6025 47.1799 58.2942 47.4399C56.7394 48.7799 55.2202 50.16 53.6703 51.51C53.4826 51.67 53.1651 51.82 52.9395 51.78C50.0423 51.31 47.1511 50.8101 44.2584 50.3101C44.1784 50.2901 44.1018 50.26 43.9548 50.21C44.1038 50.05 44.2037 49.9201 44.3302 49.8101C46.6928 47.9001 49.0792 46.0199 51.4106 44.0699C52.082 43.5099 52.7189 43.52 53.4685 43.73C54.3266 43.96 55.1881 44.21 56.0644 44.35C57.9668 44.65 59.873 44.96 61.7902 45.12C63.145 45.23 64.52 45.0899 65.887 45.0699C65.901 44.9899 65.915 44.92 65.93 44.84C65.758 44.78 65.585 44.6701 65.415 44.6801C62.2717 44.7701 59.161 44.51 56.0864 43.84C55.0559 43.61 54.0204 43.41 52.795 43.16C53.7667 42.38 54.6275 41.81 55.3393 41.1C56.3528 40.08 57.3481 39.76 58.8399 40.14C60.2861 40.51 61.8822 40.47 63.397 40.37C66.085 40.2 68.743 39.75 71.342 39.02C71.547 38.96 71.745 38.8801 71.946 38.8101C71.936 38.7501 71.925 38.7 71.915 38.64C71.381 38.73 70.833 38.77 70.314 38.91C67.513 39.7 64.644 39.99 61.752 40.11C60.4041 40.17 58.298 39.78 57.5895 39.37C58.2118 38.9 58.81 38.43 59.4165 37.98C61.2029 36.64 62.9835 35.29 64.791 33.99C65.036 33.81 65.436 33.74 65.744 33.77C67.112 33.94 68.472 34.17 69.837 34.36C70.158 34.41 70.488 34.39 70.839 34.26C69.184 33.95 67.53 33.6499 65.705 33.3199C69.087 30.4299 72.371 27.6299 75.654 24.8199C75.594 24.7399 75.535 24.66 75.475 24.58C74.865 25 74.221 25.37 73.652 25.83C71.162 27.87 68.693 29.93 66.215 31.98C66.168 32.02 66.104 32.04 65.944 32.12C66.173 30.88 66.389 29.72 66.604 28.55C66.545 28.54 66.486 28.52 66.427 28.51C66.148 29.59 65.807 30.66 65.615 31.76C65.517 32.32 65.355 32.71 64.888 33.05C62.6109 34.72 60.3565 36.42 58.0918 38.1C57.923 38.23 57.7372 38.33 57.5225 38.47C57.2387 35.37 57.7707 32.43 58.6978 29.55C58.633 29.53 58.5682 29.51 58.5033 29.49C58.2516 30.22 57.9085 30.93 57.7656 31.67C57.3622 33.78 56.8209 35.8799 57.0775 38.0699C57.1358 38.5599 56.9299 38.96 56.4803 39.28C55.0676 40.31 53.6937 41.39 52.2671 42.47C51.7589 41.23 52.1254 40.08 52.2128 38.95C52.3016 37.81 52.6057 36.69 52.8154 35.55C52.7621 35.54 52.7088 35.52 52.6553 35.51C52.5524 35.85 52.414 36.18 52.3526 36.53C52.0794 38.08 51.8247 39.6301 51.5742 41.1801C51.5436 41.3701 51.5216 41.59 51.593 41.76C51.9488 42.58 51.5194 42.99 50.8608 43.41C48.0131 45.24 45.5808 47.58 43.0114 49.76C42.8027 49.93 42.4695 49.96 42.0657 50.11C42.1236 49.39 42.1591 48.88 42.2084 48.36C42.542 44.87 43.2503 41.46 44.3098 38.13C44.5538 37.36 44.7183 36.56 44.9623 35.79C45.0392 35.55 45.2085 35.27 45.4172 35.15C48.9174 33.03 52.417 30.91 55.4159 28.08C55.6856 27.83 55.908 27.52 56.1524 27.24C56.0958 27.19 56.0393 27.1299 55.9826 27.0699C54.3207 28.4599 52.7286 29.94 50.9775 31.21C49.2167 32.48 47.2979 33.54 45.3308 34.77C45.3496 34.52 45.3409 34.43 45.3667 34.34C45.9572 32.3 46.4852 30.25 47.1844 28.26C47.3998 27.64 48.0595 27.17 48.5572 26.67C50.1 25.12 51.6705 23.6101 53.214 22.0601C53.9241 21.3501 54.6 20.61 55.2838 19.87C55.4527 19.69 55.5925 19.48 55.6914 19.25C53.0541 21.83 50.4169 24.42 47.7796 27C47.7162 26.95 47.6528 26.91 47.5895 26.86C47.7404 26.22 47.8877 25.5701 48.0431 24.9301C48.6663 22.3701 49.3293 19.81 49.8952 17.23C50.0823 16.38 50.4615 15.76 51.1722 15.29C51.3884 15.15 51.5785 14.9701 51.7807 14.8101C51.7524 14.7601 51.7242 14.72 51.6961 14.67C51.2649 14.94 50.8338 15.21 50.3922 15.49C50.8554 12.93 51.9464 10.5 51.5545 7.65002C51.2025 9.21002 50.9175 10.61 50.5694 11.99C50.2175 13.38 49.8031 14.76 49.3644 16.33C48.5299 15.09 47.7774 13.98 47.025 12.87C46.958 12.91 46.891 12.95 46.824 12.99C47.0397 13.31 47.2656 13.63 47.469 13.96C47.9858 14.79 48.5081 15.63 48.9927 16.48C49.119 16.7 49.2141 17.02 49.1561 17.26C48.6004 19.5 48.0107 21.73 47.4264 23.97C47.179 24.92 46.9209 25.8601 46.6676 26.8101C46.5974 26.8201 46.5271 26.84 46.4569 26.86C44.7913 23.15 43.1256 19.45 41.4128 15.64C41.7906 16.82 42.1016 17.91 42.4977 18.98C42.7783 19.73 43.189 20.4401 43.5149 21.1801C44.2438 22.8301 44.8547 24.54 45.708 26.13C46.3481 27.32 46.1937 28.34 45.7829 29.51C45.1589 31.3 44.6957 33.15 44.1625 34.97C44.1147 35.13 44.0537 35.29 43.9326 35.65C43.4661 35.03 43.0047 34.56 42.725 34.01C42.1567 32.88 41.6893 31.7 41.1759 30.54C40.4857 28.99 39.7923 27.43 39.096 25.88C39.0544 25.79 38.9753 25.7101 38.7665 25.6801C38.8688 26.0301 38.9378 26.4 39.0783 26.74C40.0647 29.12 41.0294 31.51 42.0838 33.85C42.416 34.59 42.9545 35.26 43.4888 35.88C43.7847 36.23 43.7847 36.51 43.6773 36.88C43.1629 38.66 42.587 40.43 42.1684 42.23C41.7258 44.14 41.436 46.08 41.1048 47.87C40.6798 47.08 40.2189 46.0999 39.6496 45.1899C38.6664 43.6099 37.6242 42.07 36.5863 40.53C36.3859 40.23 36.311 40.01 36.4801 39.66C37.5604 37.37 37.8857 34.91 38.0424 32.42C38.1005 31.5 38.0964 30.57 38.0183 29.64C37.7655 33.01 37.4244 36.34 35.929 39.55C35.7108 39.31 35.5459 39.17 35.4319 38.99C33.8957 36.66 32.3603 34.32 30.8498 31.97C30.7464 31.81 30.7559 31.46 30.8621 31.3C31.7555 29.91 32.5333 28.48 32.9131 26.87C33.0996 26.08 33.216 25.27 33.3642 24.47C33.2523 24.44 33.1403 24.41 33.0283 24.38C32.8683 26.91 32.0144 29.16 30.3681 31.17C30.0022 30.6 29.6478 30.04 29.2908 29.48C28.49 28.23 27.6741 26.99 26.8997 25.73C26.7647 25.51 26.7251 25.17 26.7722 24.91C27.0252 23.51 27.3463 22.13 27.5901 20.74C27.7502 19.82 27.825 18.89 27.9247 17.96C27.9419 17.8 27.8922 17.63 27.7976 17.46C27.5055 19.96 27.1827 22.45 26.3796 24.97C25.2461 23.52 24.1874 22.2 23.1682 20.84C23.0433 20.67 23.0328 20.3 23.1325 20.11C23.8905 18.64 24.6901 17.19 25.4729 15.74C25.5322 15.63 25.5605 15.5 25.6033 15.38C25.5433 15.35 25.4834 15.32 25.4233 15.29C25.1726 15.82 24.9379 16.37 24.6669 16.89C24.3863 17.43 24.1 17.97 23.7621 18.48C23.4187 18.99 23.009 19.4599 22.5392 20.0699C22.0851 19.4299 21.625 18.78 21.1586 18.14C20.6978 17.51 20.2306 16.87 19.6458 16.3C20.3941 17.64 21.1424 18.97 21.9357 20.39C20.8766 20.14 19.799 19.89 18.7215 19.63C18.7092 19.66 18.6969 19.69 18.6844 19.73C19.5029 19.99 20.3093 20.31 21.1434 20.51C21.9628 20.71 22.6056 21.04 23.1119 21.76C24.0473 23.11 25.0887 24.3701 26.082 25.6801C26.1829 25.8101 26.2565 25.9601 26.3849 26.1801C24.8138 26.3001 23.3454 26.08 21.9251 25.7C20.5071 25.31 19.1384 24.75 17.7048 24.34C18.3766 24.71 19.0157 25.16 19.7261 25.42C21.875 26.21 24.0931 26.68 26.4037 26.62C26.5562 26.62 26.781 26.73 26.8567 26.86C27.8426 28.51 28.8028 30.17 29.7804 31.83C30.1216 32.4 30.4928 32.96 30.849 33.53C30.9606 33.71 31.0677 33.89 31.2199 34.14C25.6162 32.64 20.4655 30.32 15.4098 27.7C15.9641 28.11 16.4771 28.6 17.0795 28.91C20.8738 30.9 24.7173 32.7801 28.8292 34.0601C29.3921 34.2301 29.9412 34.45 30.5043 34.63C31.4149 34.91 32.0851 35.41 32.5704 36.27C33.1969 37.39 33.9773 38.4199 34.8257 39.6899C34.2116 39.6899 33.7779 39.7299 33.3522 39.6899C32.657 39.6199 31.9563 39.55 31.2768 39.39C28.1865 38.69 25.0372 38.21 22.0915 36.96C21.5553 36.73 20.957 36.65 20.3332 36.63C20.8522 36.83 21.386 36.99 21.8877 37.22C24.7516 38.54 27.8103 39.2 30.8683 39.87C31.746 40.06 32.6308 40.22 33.5179 40.36C33.8332 40.41 34.1922 40.44 34.483 40.34C35.0136 40.15 35.3401 40.28 35.6368 40.74C36.9275 42.77 38.2833 44.7501 39.5237 46.8101C40.0205 47.6301 40.2809 48.6 40.6867 49.59C38.893 49.26 37.2504 48.96 35.6075 48.66C33.8626 48.34 32.1178 48.02 30.3719 47.7C30.1356 47.66 29.8926 47.64 29.6524 47.63C28.8732 47.62 28.2948 47.37 28.2254 46.48C28.2186 46.4 28.1792 46.31 28.1338 46.24C27.1534 44.67 26.1698 43.1 25.1871 41.54C25.1405 41.56 25.0941 41.59 25.0475 41.61C26.0549 43.46 27.0622 45.31 28.0696 47.16C28.0042 47.22 27.9386 47.28 27.8732 47.35C27.1181 47.16 26.3677 46.95 25.6067 46.79C24.4727 46.55 23.3391 46.27 22.1904 46.15C21.0383 46.03 20.4908 45.38 20.0712 44.4C19.7007 43.55 19.1943 42.7501 18.7479 41.9301C18.6884 41.9601 18.6289 41.99 18.5697 42.02C19.1154 43.19 19.6611 44.36 20.2393 45.6C15.8392 44.62 11.5281 43.58 7.0388 44.09C11.3717 44.21 15.5561 45.18 19.7297 46.2C19.7513 46.26 19.7727 46.32 19.7943 46.39C18.201 47.13 16.6075 47.87 15.0142 48.61C15.0459 48.68 15.0776 48.7499 15.1093 48.8199C15.551 48.6199 15.99 48.41 16.4346 48.22C17.6777 47.68 18.9215 47.15 20.1693 46.62C20.3233 46.56 20.5148 46.5 20.6686 46.53C23.1254 47.05 25.5785 47.58 28.2091 48.15C26.1484 49.75 23.8877 50.54 21.6742 51.41C21.7079 51.49 21.7416 51.57 21.7751 51.65C22.0849 51.55 22.3933 51.44 22.7047 51.34C24.7452 50.7 26.6414 49.76 28.4426 48.62C28.692 48.46 29.0734 48.3701 29.3582 48.4301C31.8259 48.9101 34.2826 49.45 36.7487 49.95C37.5624 50.11 38.3961 50.1701 39.2163 50.3101C39.6344 50.3801 40.0427 50.5 40.4476 50.67C34.5278 53.32 28.8716 56.37 23.0818 59.51C23.3876 59.65 23.4838 59.7 23.5799 59.74C23.903 59.52 24.2027 59.2399 24.5526 59.0699ZM39.1927 8.83997C38.8466 11.12 38.4934 13.4001 38.1568 15.6801C37.8742 17.6001 37.6074 19.5199 37.3423 21.4399C37.2932 21.7999 37.1148 21.91 36.7645 21.88C35.259 21.76 33.9797 21.27 33.0564 19.97C32.188 18.74 31.2601 17.5501 30.2595 16.4301C28.9649 14.9901 27.5346 13.66 26.9673 11.71C26.9134 11.52 26.6192 11.41 26.4364 11.26C26.3597 11.46 26.2561 11.65 26.2109 11.86C26.0295 12.69 25.3615 13.99 24.2031 13.76C23.4106 13.61 22.5706 13.64 21.8052 13.42C19.2571 12.66 17.0684 11.46 16.3395 8.60999C16.2556 8.28999 16.0604 7.97995 15.8588 7.69995C15.7637 7.56995 15.527 7.46998 15.3637 7.47998C15.2608 7.48998 15.1133 7.72 15.0941 7.87C15.0402 8.27 14.9833 8.68997 15.0328 9.08997C15.259 10.93 15.5244 12.76 15.7698 14.59C15.9324 15.8 15.8763 15.9 14.7732 16.46C14.0417 16.83 14.0568 17.1799 14.7173 17.6899C15.056 17.9499 15.4414 18.34 15.5088 18.73C15.7536 20.13 15.7738 21.5601 15.3488 22.9301C15.2043 23.4001 14.7708 23.97 14.3414 24.11C13.5101 24.39 12.586 24.5 11.7043 24.49C10.8637 24.47 10.0315 24.1701 9.1875 24.0601C8.957 24.0301 8.6969 24.2299 8.4503 24.3199C8.5827 24.5199 8.6791 24.76 8.8535 24.91C10.0993 26 11.4464 26.99 12.5991 28.17C14.6437 30.26 15.5716 33.03 16.7946 35.61C17.4709 37.03 16.9748 38.21 15.5813 38.99C14.7276 39.46 13.8058 39.84 12.8827 40.17C11.0712 40.82 9.2523 41.46 7.4073 42.01C6.3922 42.31 5.3181 42.5601 4.2699 42.5601C3.0794 42.5701 1.8896 42.25 0.695801 42.11C0.473601 42.09 0.2323 42.22 0 42.28C0.1354 42.5 0.221201 42.79 0.415901 42.92C0.869401 43.21 1.3903 43.4101 1.8575 43.6801C3.8976 44.9001 5.8592 46.2701 7.9843 47.3101C9.7292 48.1701 11.1402 49.3 12.3567 50.76C12.7343 51.22 12.8663 51.53 12.3212 51.99C11.9584 52.29 11.7733 52.81 11.5087 53.23C11.5775 53.31 11.6462 53.38 11.715 53.46C11.9259 53.39 12.1374 53.31 12.3477 53.24C12.7505 53.09 13.1491 52.8299 13.5557 52.8199C14.4241 52.7899 15.2975 52.8799 16.1668 52.9399C18.739 53.1399 21.2272 53.71 23.633 54.63C24.4812 54.95 24.8235 55.75 24.5026 56.58C24.1993 57.37 23.7686 58.06 23.0269 58.52C22.3218 58.96 21.6219 59.41 20.9331 59.88C20.7535 60 20.6244 60.19 20.472 60.36C20.6855 60.48 20.8908 60.61 21.1154 60.71C21.2266 60.75 21.3749 60.73 21.5029 60.72C23.8449 60.42 26.1883 60.13 28.5271 59.8C29.8121 59.63 31.0798 59.35 32.1981 58.65C32.8263 58.26 33.3999 57.78 34.0321 57.39C35.5607 56.46 37.218 55.73 38.5495 54.49C39.2744 53.81 40.0496 53.19 40.8227 52.52C40.4312 53.93 40.093 55.3 39.6708 56.64C39.0557 58.6 38.2807 60.51 37.7548 62.48C37.0486 65.14 36.4686 67.83 35.9217 70.52C35.4699 72.74 34.5599 74.6 32.4546 75.71C31.9838 75.96 31.7273 76.37 31.8532 76.9C32.031 77.66 32.7278 77.7401 33.3236 77.9301C33.7652 78.0701 34.2073 78.02 34.4221 77.6C35.0816 76.3 35.8779 75.03 36.2765 73.65C37.0137 71.1 37.4464 68.47 38.1186 65.89C38.6916 63.7 39.4197 61.55 40.0849 59.38C40.4044 58.34 40.7539 57.31 41.059 56.26C41.4225 55.02 41.7529 53.76 42.1141 52.45C42.9869 53.55 43.8037 54.5401 44.579 55.5601C45.1738 56.3401 45.7114 57.16 46.2837 57.96C47.1729 59.2 47.9988 60.5 48.983 61.67C49.9971 62.86 50.9135 64.21 52.5775 64.7C53.2557 64.9 53.9246 65.2599 54.489 65.6899C55.6432 66.5599 56.712 67.55 57.8429 68.46C58.1192 68.68 58.4994 68.7801 58.8318 68.9301C58.738 68.6201 58.6443 68.32 58.5499 68.01C58.5434 67.99 58.5313 67.97 58.5216 67.95C57.7481 66.41 57.6413 64.7299 57.428 63.0699C57.3374 62.3599 57.3991 61.63 57.4716 60.92C57.5111 60.53 57.515 59.9599 58.1824 60.0699C59.5004 60.2899 60.8112 60.55 62.1288 60.77C63.938 61.07 65.757 61.32 67.56 61.66C68.43 61.82 69.3 62.07 70.117 62.41C70.919 62.73 71.646 63.24 72.426 63.63C72.646 63.74 72.938 63.71 73.197 63.75C73.134 63.51 73.119 63.25 73.001 63.05C72.373 61.97 71.747 60.91 71.654 59.62C71.59 58.74 71.797 58.08 72.617 57.58C73.557 57.01 74.529 56.58 75.619 56.54C77.821 56.43 80.025 56.4001 82.227 56.3101C82.489 56.3001 82.743 56.11 83 56C82.788 55.83 82.601 55.58 82.361 55.51C80.885 55.1 79.395 54.74 77.913 54.35C76.541 53.99 75.535 53.03 74.383 52.29C72.658 51.18 71.569 49.57 70.398 48.01C70.169 47.7 69.953 47.3099 69.924 46.9399C69.892 46.5299 69.932 45.9601 70.188 45.6801C71.523 44.2401 72.865 42.79 74.345 41.51C75.754 40.28 77.654 40.1 79.388 39.59C79.646 39.51 79.867 39.31 80.105 39.17C79.876 39 79.67 38.7801 79.414 38.6801C78.557 38.3501 77.664 38.11 76.821 37.75C75.456 37.17 75.113 36.49 75.339 35.03C75.353 34.94 75.364 34.85 75.385 34.77C75.736 33.35 76.022 31.92 76.456 30.53C77.144 28.33 77.869 26.13 79.338 24.27C79.919 23.54 80.462 22.77 80.977 21.99C81.11 21.79 81.07 21.48 81.11 21.21C80.83 21.22 80.528 21.15 80.275 21.24C79.76 21.4 79.289 21.73 78.767 21.85C77.406 22.17 76.033 22.4599 74.652 22.6899C73.628 22.8599 72.585 22.91 71.506 23.02C71.501 22.73 71.512 22.56 71.492 22.39C71.415 21.75 70.876 21.49 70.297 21.76C67.572 23.06 64.868 24.41 62.0941 25.59C61.1656 25.99 60.0522 25.96 59.0221 26.12C58.6926 26.17 58.5469 25.9899 58.4076 25.6899C57.9227 24.6399 58.1115 23.6199 58.3911 22.5699C59.0237 20.1799 59.5815 17.79 61.1379 15.76C61.6729 15.07 62.0128 14.2201 62.4196 13.4301C62.4842 13.3101 62.4935 13.05 62.4146 12.98C62.3155 12.89 62.0883 12.88 61.9359 12.91C61.5109 13.01 61.1002 13.17 60.6758 13.28C59.2108 13.63 57.811 13.51 56.7297 12.37C56.1419 11.76 55.6801 11 55.2747 10.24C54.305 8.42999 53.3686 6.59999 53.2551 4.48999C53.1863 3.20999 53.1639 1.93002 53.0915 0.650024C53.079 0.430024 52.9213 0.22 52.8307 0C52.6648 0.2 52.4049 0.369966 52.3478 0.589966C51.9335 2.20997 51.3268 3.73999 50.3684 5.10999C49.6613 6.12999 48.981 7.11005 47.6648 7.55005C46.8508 7.82005 46.05 8.40995 45.4803 9.06995C44.5461 10.1399 43.4402 10.92 42.1872 11.5C41.8768 11.65 41.3369 11.58 41.0376 11.4C40.6774 11.18 40.4239 10.74 40.1923 10.36C39.8914 9.86999 39.6577 9.33006 39.3949 8.81006C39.3275 8.82006 39.2601 8.82997 39.1927 8.83997Z" fill="#231F20"/>
</svg>
