<svg width="56" height="74" viewBox="0 0 56 74" fill="none" xmlns="http://www.w3.org/2000/svg">
<path d="M29.2966 51.579C24.4189 50.059 19.7778 47.969 15.202 45.729C13.7334 45.009 12.4751 43.859 11.1725 42.939C11.2027 42.999 11.2575 43.2491 11.413 43.3891C12.4887 44.3391 13.4526 45.5491 14.6995 46.1591C18.6604 48.1091 22.6723 49.969 26.774 51.589C30.1331 52.909 33.689 53.5091 37.345 53.1491C38.1844 53.0691 39.0387 53.1191 39.8853 53.1491C40.083 53.1491 40.3605 53.229 40.4608 53.369C42.4377 56.179 44.394 59.009 46.3545 61.829C46.2987 61.899 46.2429 61.9591 46.1871 62.0291C45.4846 61.8191 44.7818 61.5991 44.0793 61.3791C41.9473 60.7291 39.8497 59.909 37.6771 59.449C31.1326 58.059 25.0773 55.4491 19.2296 52.2691C16.6678 50.8791 14.067 49.5491 11.5818 48.0291C8.67503 46.2591 6.20713 43.9291 4.31763 41.0591C3.03353 39.1191 2.38363 36.879 1.96613 34.589C1.61853 32.679 1.30633 30.769 0.98793 28.859C0.48503 25.839 0.901129 22.829 1.13363 19.819C1.15553 19.539 1.25383 19.229 1.17623 18.969C0.683231 17.359 1.42663 16.0191 2.03943 14.6491C3.17903 12.0991 4.39383 9.58907 5.46113 7.01907C5.83213 6.11907 5.85933 5.07911 6.05303 4.05911C6.19383 4.11911 6.34963 4.16905 6.47843 4.24905C8.89963 5.87905 11.542 6.36899 14.407 5.93899C16.0027 5.70899 17.1213 4.7691 18.1877 3.6791C20.2127 1.6091 22.5284 0.299012 25.5682 0.709012C30.8016 1.41901 35.2743 3.85906 39.4831 6.87906C41.4402 8.27906 43.4566 9.66904 45.1522 11.359C47.836 14.039 50.4932 16.799 52.0993 20.359C52.3223 20.849 52.5441 21.3491 52.8223 21.8091C54.0499 23.8491 54.4452 26.099 54.5481 28.439C54.6733 31.279 54.8767 34.129 54.9424 36.979C55.0445 41.399 53.672 45.419 51.6979 49.339C50.4355 51.839 49.563 54.5391 48.5751 57.1791C48.3517 57.7791 48.3905 58.469 48.2819 59.109C48.1454 59.919 47.9812 60.719 47.8678 61.319C47.2854 60.569 46.5972 59.719 45.9558 58.839C45.3203 57.969 44.7749 57.0291 44.1075 56.1791C43.6616 55.6191 43.5257 55.0891 43.6788 54.3791C44.0791 52.5191 44.3572 50.6291 44.7666 48.7691C45.1524 47.0191 45.7307 45.3091 46.0686 43.5491C46.6485 40.5291 47.1609 37.489 47.6025 34.449C48.1313 30.809 48.4194 27.129 48.1351 23.449C48.0342 22.149 47.665 20.859 47.4183 19.569C47.3146 19.579 47.211 19.599 47.1073 19.619C47.133 19.999 47.1006 20.3891 47.1936 20.7491C47.9752 23.8091 47.6484 26.889 47.3886 29.949C47.138 32.899 46.7834 35.8591 46.2637 38.7691C45.7896 41.4291 45.0006 44.0291 44.412 46.6691C44.0153 48.4491 43.7259 50.2591 43.388 52.0491C43.2534 52.7591 43.1181 53.479 42.983 54.189C42.8944 54.199 42.8059 54.209 42.7173 54.219C41.8321 52.979 40.9394 51.7491 40.0638 50.4991C38.6903 48.5391 37.2832 46.609 35.9945 44.599C35.687 44.109 35.667 43.3591 35.7242 42.7491C36.1066 38.659 36.6096 34.5891 36.9512 30.4991C37.4552 24.469 37.8061 18.4391 37.0977 12.3991C37.0106 11.6591 36.846 10.919 36.5476 10.199C37.436 21.229 36.3251 32.129 34.92 43.209C34.6434 42.909 34.4669 42.7491 34.3227 42.5591C32.0484 39.5691 29.79 36.569 27.4993 33.589C26.8757 32.779 26.172 32.0391 25.4777 31.2791C25.1341 30.9091 25.0811 30.589 25.2263 30.069C26.853 24.189 28.0309 18.259 27.2993 12.099C27.1954 11.229 27.0902 10.349 26.9426 9.48904C26.9715 11.749 27.1319 14.0191 26.9926 16.2791C26.8488 18.5991 26.4751 20.919 26.0879 23.229C25.7066 25.489 25.1822 27.739 24.6727 30.229C24.2883 29.869 24.0974 29.7291 23.9434 29.5491C22.2477 27.5991 20.5682 25.6291 18.8588 23.6791C18.4012 23.1591 18.2552 22.719 18.3806 21.949C18.8109 19.339 19.1328 16.6991 19.3637 14.0591C19.5342 12.1091 19.559 10.1391 19.5281 8.1791C19.5141 7.2991 19.2068 6.41909 18.8669 5.53909C19.8217 11.1491 18.139 16.5391 17.7245 22.0191C17.6484 22.0691 17.572 22.1291 17.4958 22.1791C15.5197 19.4191 13.3848 16.7591 11.6127 13.8791C9.85303 11.0091 8.45863 7.91902 6.83173 4.96902C8.23153 8.55902 9.43163 12.2491 11.7771 15.4091C14.0794 18.5091 16.2816 21.6891 18.6493 25.0091C14.2349 23.9291 10.223 22.0891 6.11863 20.4091C6.17543 20.4691 6.22513 20.549 6.29103 20.599C6.38113 20.659 6.47903 20.7191 6.58133 20.7691C9.28073 21.9991 11.9547 23.2991 14.6923 24.4291C16.0876 25.0091 17.6048 25.2891 19.0507 25.7591C19.4021 25.8691 19.7554 26.1291 19.996 26.4091C21.4363 28.1291 22.8335 29.889 24.2651 31.609C25.8062 33.469 27.3707 35.2991 28.9209 37.1491C29.112 37.3791 29.278 37.629 29.547 37.989C24.9323 38.089 20.4505 38.8291 16.1054 37.3791C14.1631 36.7391 12.3401 35.719 10.466 34.869C10.1656 34.729 9.88053 34.559 9.54753 34.479C10.8622 35.759 12.4205 36.6591 14.0731 37.3791C17.3916 38.8291 20.9 39.1191 24.463 38.9991C26.2369 38.9291 28.009 38.8191 29.7829 38.7591C29.9594 38.7491 30.2051 38.8991 30.3137 39.0491C33.3562 43.3091 36.3854 47.579 39.4138 51.849C39.488 51.959 39.528 52.0891 39.6297 52.2991C36.1041 52.2791 32.6691 52.629 29.2966 51.579ZM55.9981 38.959C55.9283 35.939 55.8288 32.9191 55.607 29.9091C55.4675 28.0191 55.4251 26.0091 54.7424 24.2891C53.4475 21.0291 52.2281 17.679 49.797 14.989C48.8527 13.949 48.1155 12.709 47.2626 11.579C46.9908 11.219 46.6803 10.879 46.3355 10.589C45.0079 9.47902 43.7031 8.32911 42.3109 7.30911C37.5167 3.77911 32.4831 0.789056 26.3995 0.129056C24.8529 -0.0309442 23.3042 -0.180983 21.9185 0.589017C20.5971 1.32902 19.2667 2.14899 18.1764 3.18899C16.8309 4.46899 15.3874 5.32903 13.5417 5.34903C12.7064 5.35903 11.8455 5.24909 11.0371 5.03909C8.90913 4.47909 6.70933 3.99904 5.57053 1.73904C5.50293 1.60904 5.19493 1.58908 4.99883 1.52908C4.94373 1.72908 4.79823 1.95907 4.84763 2.13907C5.30823 3.76907 4.86753 5.34901 4.33503 6.82901C3.36083 9.52901 2.17213 12.1491 1.08583 14.8091C0.654831 15.8691 0.251332 16.9191 0.521732 18.1291C0.653432 18.7091 0.59613 19.359 0.54763 19.969C0.36603 22.269 -0.0852703 24.569 0.0141297 26.849C0.12773 29.459 0.732331 32.0391 1.10353 34.6391C2.00023 40.9091 5.56493 45.3391 10.6011 48.7791C14.2236 51.2691 18.2439 52.9791 22.1074 54.9991C25.6408 56.8491 29.3205 58.3091 33.1617 59.3091C37.1012 60.3191 41.1343 61.0091 44.8372 62.8091C45.533 63.1391 46.2107 63.579 46.7921 64.079C47.338 64.559 47.7778 65.1791 48.2067 65.7691C48.9126 66.7491 49.6259 67.7391 50.2364 68.7791C50.8678 69.8591 51.3964 70.9991 51.9349 72.1291C52.0881 72.4591 52.0944 72.849 52.2141 73.189C52.3162 73.479 52.4264 73.899 52.6395 73.979C52.8539 74.059 53.2289 73.8391 53.4801 73.6691C53.7743 73.4691 54.0416 73.2091 54.2632 72.9291C54.4733 72.6691 54.7752 72.3091 54.7264 72.0491C54.6852 71.8391 54.2027 71.6991 53.9065 71.5391C53.6989 71.4391 53.3644 71.4191 53.2783 71.2491C52.6664 70.0991 52.0903 68.919 51.5292 67.739C50.6917 65.969 49.8647 64.1991 49.0608 62.4191C48.9132 62.0991 48.7908 61.699 48.8379 61.349C48.993 60.229 49.0792 59.0491 49.4668 57.9991C50.4972 55.1891 51.5911 52.4091 52.8116 49.6791C53.9189 47.2091 55.1911 44.819 55.7472 41.619C55.8048 41.059 56.0224 40.009 55.9981 38.959Z" fill="#231F20"/>
</svg>
