<svg width="102" height="67" viewBox="0 0 102 67" fill="none" xmlns="http://www.w3.org/2000/svg">
<path d="M22.9325 39.96C22.6891 38.14 22.3974 35.96 22.1025 33.76C23.5769 34.02 25.1954 34.31 26.5529 34.55C25.2961 36.43 24.0219 38.33 22.9325 39.96ZM42.9762 29.34C43.6897 30.98 44.4649 32.77 45.3295 34.77C43.3745 34.69 41.6043 34.6201 39.9983 34.5601C41.0384 32.7401 42.067 30.93 42.9762 29.34ZM32.7618 42.8101C32.1025 40.1701 31.4685 37.6401 30.8239 35.0601C32.5058 35.2301 34.2576 35.41 36.2741 35.62C33.8259 37.53 33.4357 40.1901 32.7618 42.8101ZM39.6309 35.76C41.3857 35.81 43.1752 35.86 45.0074 35.92C44.1613 37.97 43.3446 39.95 42.5445 41.89C41.5809 39.87 40.6257 37.86 39.6309 35.76ZM30.2038 32.75C31.3805 31.06 32.5856 29.39 33.7858 27.71C33.8217 27.66 33.9031 27.65 33.7981 27.7C34.4722 29.86 35.1565 32.05 35.8706 34.34C34.009 34.15 32.0193 33.95 29.893 33.73C30.0177 33.32 30.0398 32.98 30.2038 32.75ZM11.268 56.26C12.5785 54.12 13.9401 52.02 15.1858 49.85C16.5463 47.47 17.8275 45.06 19.0898 42.63C19.9266 41.02 20.3229 39.3 20.252 37.46C20.2135 36.46 20.4006 35.4399 20.486 34.4399C23.2409 40.9299 19.8901 51.79 11.268 56.26ZM28.9333 35.15C29.8515 35.62 30.1269 36.54 30.3924 37.4C32.0419 42.75 31.9931 48.12 30.2344 53.42C29.4448 55.8 28.3684 58.08 27.4226 60.41C27.3035 60.71 27.1885 61 27.0715 61.3C26.9391 61.25 26.8066 61.21 26.6742 61.16C28.4286 52.6 29.7179 43.99 28.9333 35.15ZM69.8541 9.72998C70.2413 16.61 62.8342 31.0001 57.7447 33.3101C60.3491 24.7001 66.3934 17.97 69.8541 9.72998ZM49.8638 27.72C50.8827 23.61 51.7463 19.47 52.7361 15.36C53.2733 13.13 53.9311 10.93 54.5546 8.71997C54.6508 8.37997 54.8551 8.06998 55.0175 7.72998C55.1206 7.79998 55.2085 7.83 55.2077 7.87C55.0892 12.81 54.9645 17.75 54.839 22.7C54.8372 22.77 54.8332 22.85 54.813 22.92C53.593 27.08 51.6758 30.83 48.3174 33.7C48.2733 33.73 48.1819 33.72 47.9853 33.74C48.6351 31.68 49.3644 29.73 49.8638 27.72ZM55.6807 28.84C56.5816 25.58 58.0965 22.57 60.0483 19.84C61.587 17.68 63.4577 15.77 65.11 13.7C66.8898 11.46 68.5872 9.15005 70.2816 6.93005C70.2105 7.16005 70.1241 7.55003 69.977 7.91003C67.6674 13.58 64.1311 18.56 61.1891 23.88C59.4329 27.05 58.0469 30.43 56.4937 33.72C56.4347 33.85 56.3668 33.97 56.2151 34.26C55.3829 32.4 55.1879 30.62 55.6807 28.84ZM37.8056 40.6C37.7999 39.66 37.6798 38.71 37.4782 37.79C37.3005 36.98 37.4911 36.44 38.3303 36.02C39.4842 37.07 40.0421 38.5401 40.7026 39.9301C41.6944 42.0201 42.0203 44.24 41.901 46.53C41.7064 50.27 41.2054 53.94 39.5521 57.36C38.9526 58.6 38.4572 59.9 37.9143 61.16C38.8005 54.27 37.8487 47.44 37.8056 40.6ZM34.111 53.11C33.3013 48.56 33.5741 44.02 35.008 39.6C35.2681 38.8 35.751 38.08 36.2872 37.35C37.4585 41.73 37.2105 46.1699 37.4407 50.5699C37.6712 54.9799 37.7181 59.38 36.3257 63.49C35.6085 60.17 34.7423 56.66 34.111 53.11ZM34.4534 20.24C33.9361 24.26 32.5368 27.91 29.7538 31.03C29.7685 30.66 29.7665 30.28 29.8005 29.91C30.4002 23.42 30.9383 16.9199 31.6446 10.4399C31.8755 8.31994 32.5429 6.24002 33.0227 4.15002C33.0672 3.96002 33.1992 3.78001 33.3972 3.39001C33.8668 9.16001 35.1748 14.63 34.4534 20.24ZM46.3779 5.35999C45.8767 10.11 45.3888 14.85 44.861 19.6C44.306 24.58 42.7169 29.18 39.6414 33.2C39.3765 33.55 39.0801 33.8699 38.7806 34.1899C38.6903 34.2799 38.5411 34.32 38.2691 34.47C38.6377 32.91 39.0257 31.51 39.2991 30.08C39.9012 26.93 40.4784 23.77 41.0044 20.61C41.6355 16.82 42.6375 13.14 44.1686 9.60999C44.8324 8.07999 45.5247 6.55998 46.2886 4.84998C46.3465 5.16998 46.3878 5.26999 46.3779 5.35999ZM12.3286 41.89C14.029 38.83 16.4613 36.5001 19.4381 34.5601C19.5128 38.0201 19.2991 41.25 17.5686 44.24C15.3011 48.15 13.1332 52.1199 10.9251 56.0699C10.7221 56.4299 10.5382 56.8 10.3428 57.17C9.62209 51.89 9.64224 46.72 12.3286 41.89ZM44.0828 28.92C43.9778 28.63 43.9893 28.25 44.0757 27.95C44.8678 25.19 45.5308 22.37 46.5467 19.7C47.4718 17.26 48.639 14.88 49.9806 12.65C51.0497 10.87 52.5423 9.33995 53.8467 7.69995C53.9482 7.75995 54.0497 7.82 54.1513 7.88C51.8857 16.12 49.6265 24.35 47.3418 32.58C47.1613 33.23 46.8011 33.83 46.5245 34.45C46.4083 34.45 46.2923 34.45 46.1764 34.45C45.4736 32.61 44.7572 30.77 44.0828 28.92ZM30.0731 21.74C29.7501 24.46 29.4242 27.17 29.091 29.88C29.0348 30.34 28.9349 30.79 28.8346 31.36C22.458 21.73 25.6287 9.07997 33.3481 1.96997C30.4294 8.38997 30.8569 15.16 30.0731 21.74ZM22.5094 51.5601C22.1625 50.1501 22.1595 48.57 22.3952 47.13C22.9667 43.64 23.6389 40.14 25.8487 37.22C26.319 36.6 26.9012 36.06 27.4317 35.49C27.5698 35.51 27.7078 35.5399 27.846 35.5699C28.0147 36.6499 28.2711 37.7201 28.3382 38.8101C28.7725 45.8501 27.7423 52.76 26.3771 59.64C26.2167 60.44 26.1329 61.27 26.0136 62.08C25.8609 62.1 25.708 62.12 25.5551 62.13C24.5229 58.61 23.3881 55.1201 22.5094 51.5601ZM64.4401 31.8199C67.2766 22.7499 73.3799 16.55 81.6249 12.14C81.8838 17.59 71.7373 30.75 65.0386 33.53C65.3402 32.85 65.5121 32.33 65.7931 31.86C69.0111 26.57 72.9123 21.82 77.3344 17.5C77.5425 17.29 77.7437 17.08 77.9379 16.87C77.9802 16.82 77.9788 16.73 77.9976 16.67C72.6235 20.94 68.1249 26.0199 64.4401 31.8199ZM67.6406 37.33C71.225 39.63 74.3751 42.36 76.3253 46.21C78.2923 50.09 78.8211 54.24 78.1831 58.61C71.4123 52.62 66.3181 45.69 65.0578 36.2C70.6982 41.7 73.5924 48.6499 76.7433 55.4399C74.8126 48.8399 72.1539 42.63 67.6406 37.33ZM40.1291 20.24C39.4524 24.16 38.6438 28.05 37.8732 31.95C37.7554 32.55 37.5233 33.12 37.2608 33.98C36.0461 31.74 35.3902 29.67 35.1549 27.38C34.8287 24.19 36.1329 21.17 35.8509 18.04C35.6305 15.6 36.4709 13.61 37.6972 11.6C39.7586 8.23998 43.09 4.96002 46.733 3.02002C43.2963 8.34002 41.1931 14.08 40.1291 20.24ZM61.7895 46.02C63.3116 49.16 64.2756 52.57 65.4303 55.72C64.7423 48.34 60.8233 42.1701 56.7911 36.0601C56.8753 35.9501 56.9597 35.84 57.0441 35.74C57.8944 36.19 58.7651 36.62 59.5916 37.12C62.7018 38.98 64.0534 42.07 65.2383 45.29C67.0217 50.15 66.9986 55.15 66.6102 60.2C66.6021 60.3 66.5503 60.4 66.4859 60.61C65.7125 59.45 65.0288 58.31 64.2437 57.25C62.6617 55.12 61.0477 53.01 59.4043 50.92C56.7935 47.6 55.2268 41.0801 56.2183 36.8101C58.1839 40.0101 60.2655 42.88 61.7895 46.02ZM99.03 36.76C95.2297 35.76 91.4251 34.85 87.4659 34.61C82.498 34.3 77.5457 33.74 72.5872 33.28C72.3453 33.26 72.1076 33.19 71.7453 33.12C73.2707 31.64 75.0199 30.78 76.8519 30.08C80.3745 28.73 84.0141 27.85 87.7343 28.91C89.8749 29.52 91.9835 30.46 93.896 31.6C96.5767 33.2 98.9331 35.28 101.156 37.88C99.7784 38.04 98.6084 38.12 97.4545 38.3C94.7629 38.74 92.0822 39.2401 89.3912 39.6801C86.6432 40.1201 83.9452 39.79 81.3118 38.96C78.1893 37.97 75.0755 36.95 71.9833 35.87C71.5562 35.72 71.2742 35.16 70.9252 34.78C71.4053 34.58 71.9001 34.16 72.3638 34.2C78.2373 34.61 84.1193 34.96 89.9714 35.59C93.0675 35.92 96.1096 36.76 99.1759 37.37C99.4821 37.43 99.7867 37.5001 100.092 37.5601C100.126 37.4901 100.159 37.41 100.193 37.33C99.8062 37.14 99.439 36.87 99.03 36.76ZM50.4331 63.53C49.5427 58.95 48.5004 54.39 47.7185 49.79C47.2751 47.19 47.1744 44.51 47.0386 41.86C46.9484 40.1 47.0689 38.33 47.0959 36.52C48.9516 37.68 49.9244 39.51 50.5733 41.54C51.8404 45.52 51.6422 49.6099 51.4357 53.6899C51.2443 57.4799 51.0405 61.26 50.8398 65.09C50.6869 65.02 50.4325 64.9199 50.1784 64.8199C49.6025 64.1799 49.0811 63.48 48.4397 62.91C45.2252 60.07 43.6702 56.46 43.3855 52.24C43.2558 50.31 43.1281 48.39 43.0084 46.46C42.7953 43.03 44.2802 40.08 45.6533 37.1C45.6917 37.01 45.7983 36.96 46.0509 36.74C46.1724 37.5 46.39 38.13 46.3517 38.74C46.0082 44.22 46.9333 49.57 48.063 54.89C48.7137 57.96 49.4407 61.0099 50.1245 64.0699C50.1789 64.3199 50.1637 64.5699 50.1807 64.8199C50.2725 64.3899 50.5112 63.93 50.4331 63.53ZM62.9905 14.38C59.6847 17.83 57.2341 21.79 55.3567 26.16C54.5618 28 54.1176 29.91 54.3473 31.91C54.4482 32.79 54.7606 33.64 55.0141 34.66C52.8438 34.71 50.9186 34.7601 49.118 34.8101C50.4544 33.1001 51.9637 31.57 52.9915 29.77C54.1853 27.67 55.4432 25.3999 55.7979 23.0699C56.3314 19.5699 56.1952 15.95 56.1716 12.38C56.1541 9.73 55.7155 7.05995 57.0721 4.56995C57.1877 4.35995 56.9383 3.95 56.7975 3.38C52.0264 8.06 47.5999 12.56 45.843 19.01C45.789 17.62 45.8807 16.29 45.981 14.97C46.3011 10.75 46.6492 6.53994 47.8313 2.43994C47.8853 2.24994 47.5167 1.73997 47.3094 1.71997C46.9425 1.68997 46.5054 1.83003 46.172 2.03003C42.3726 4.26003 38.8027 6.75005 36.6724 10.8C36.3986 11.32 36.151 11.85 35.891 12.38C34.7036 8.23 33.7085 4.25 34.2177 0C33.697 0.18 33.2695 0.369951 32.9869 0.699951C31.5932 2.27995 30.0791 3.80003 28.896 5.53003C23.3396 13.69 22.3561 22.2 27.169 31.1C27.5302 31.77 27.7544 32.5101 28.1283 33.4301C27.4447 33.3601 27.0854 33.37 26.7471 33.28C23.1436 32.43 19.4927 31.73 15.9544 30.65C10.8459 29.1 5.71157 27.56 0.967924 25C0.740561 24.88 0.176204 24.93 0.101959 25.08C-0.0312219 25.34 -0.0454199 25.88 0.128329 26.03C0.658809 26.5 1.25351 26.98 1.9095 27.21C7.48855 29.11 13.0867 30.96 18.679 32.83C19.002 32.93 19.3235 33.05 19.5642 33.13C18.3231 34.08 17.1007 34.96 15.9401 35.91C10.5407 40.36 8.4347 46.2199 8.67795 53.0699C8.73349 54.6299 8.92352 56.18 9.07765 57.74C9.10751 58.04 9.25837 58.33 9.35348 58.63C9.67336 58.52 10.0453 58.48 10.3047 58.29C12.0322 57.02 13.7005 55.66 15.457 54.42C17.1955 53.2 18.5823 51.71 19.585 49.84C20.1005 48.88 20.6363 47.93 21.2193 46.87C21.2425 48.19 21.201 49.36 21.2945 50.51C21.5821 54.05 22.9834 57.29 24.1375 60.59C24.5106 61.65 24.8954 62.72 25.3297 63.76C25.4391 64.03 25.735 64.25 25.9993 64.38C26.0793 64.42 26.3924 64.14 26.5124 63.95C28.4999 60.78 30.1043 57.44 31.2338 53.87C31.6166 52.66 31.9379 51.43 32.3332 50.05C33.5775 58.58 35.3156 65.65 36.5171 67C38.4796 62.17 40.4298 57.37 42.2985 52.77C42.2808 56.6 43.7028 60.12 46.7538 62.91C47.9087 63.97 49.0501 65.0501 50.2465 66.0601C50.6575 66.4101 51.2173 66.58 51.7091 66.83C51.7677 66.36 51.8267 65.89 51.8839 65.42C51.8926 65.35 51.8928 65.27 51.8964 65.2C52.0961 61.16 52.391 57.12 52.4651 53.08C52.5225 49.95 52.4937 46.8 52.151 43.7C51.833 40.83 50.6974 38.17 48.4099 35.97C50.7765 35.94 52.9417 35.91 55.0932 35.87C55.003 36.68 54.8777 37.4 54.8485 38.12C54.6432 43.21 55.7637 47.84 59.0914 51.89C61.5596 54.89 63.7532 58.11 66.0719 61.24C66.2284 61.45 66.4079 61.64 66.6889 61.98C66.8193 61.48 66.927 61.18 66.9762 60.86C67.8966 55.04 67.749 49.31 65.5695 43.73C64.5171 41.03 63.2895 38.52 60.7884 36.85C60.3189 36.54 59.9045 36.15 59.3104 35.66C60.5193 35.57 61.5231 35.49 62.5797 35.41C64.5793 39.86 66.3066 44.43 68.6339 48.67C71.004 52.99 74.5556 56.45 78.619 59.85C78.7959 58.32 78.9883 57.0099 79.092 55.6899C79.4643 50.9699 78.1055 46.71 75.2536 43C72.7782 39.79 69.7661 37.12 66.1229 35.11C66.8936 35 67.6885 34.9 68.3517 35.15C69.2083 35.48 69.9059 36.23 70.7657 36.54C74.0955 37.71 77.4526 38.81 80.8193 39.87C83.479 40.71 86.2075 41.17 88.997 40.71C92.1154 40.19 95.2184 39.57 98.3298 39.01C99.5123 38.8 100.7 38.61 102 38.39C101.782 37.95 101.693 37.7501 101.592 37.5601C100.167 34.8801 97.778 33.18 95.3906 31.51C93.9353 30.5 92.4333 29.35 90.7764 28.86C83.6263 26.73 77.037 28.06 71.1706 32.7C69.9818 33.64 68.702 33.65 67.1273 33.66C67.509 33.37 67.7111 33.2299 67.9093 33.0699C71.7046 30.1499 75.2655 26.97 77.998 22.99C80.3775 19.52 82.1074 15.77 82.5383 11.51C82.5628 11.27 82.4817 11.02 82.4442 10.73C81.9325 11.02 81.5673 11.2199 81.2085 11.4399C78.9615 12.7799 76.4758 13.84 74.5151 15.52C68.9522 20.28 64.3328 25.76 62.9176 33.3C62.865 33.58 62.5433 33.98 62.2949 34.02C61.031 34.24 59.7496 34.36 58.4746 34.52C62.7137 30.53 65.6569 25.83 67.7943 20.63C69.9228 15.45 71.2014 10.09 70.3928 4.40002C68.6049 8.28002 65.8541 11.39 62.9905 14.38Z" fill="#231F20"/>
</svg>
