<svg width="87" height="71" viewBox="0 0 87 71" fill="none" xmlns="http://www.w3.org/2000/svg">
<path d="M17.9233 27.6016C17.9953 27.5316 18.0673 27.4617 18.1383 27.3917C18.5873 27.8817 19.0423 28.3716 19.4823 28.8716C21.6603 31.3316 24.0033 33.6617 25.9693 36.2817C29.0053 40.3217 32.6383 43.7217 36.6753 46.6817C39.0793 48.4517 41.7693 49.8417 44.3323 51.4017C44.3803 51.4217 44.4603 51.4117 44.5533 51.4117C44.5633 51.3217 44.5833 51.2417 44.5833 51.1517C44.5793 50.0717 44.5433 49.0017 44.5733 47.9217C44.6093 46.4817 44.7333 45.0516 44.7523 43.6116C44.7783 41.7416 44.7343 39.8616 44.7313 37.9816C44.7293 37.2116 44.8883 36.4117 44.7363 35.6717C44.5413 34.7317 44.1813 33.8116 43.7613 32.9416C42.8653 31.0816 41.8923 29.2716 40.9403 27.4516C40.5403 26.6816 40.1543 25.9117 39.6883 25.1817C37.9473 22.4717 36.0123 19.9116 33.8843 17.4916C33.6613 17.2316 33.4743 16.9417 33.2713 16.6717C33.3293 16.6217 33.3843 16.5717 33.4423 16.5217C33.9583 17.0117 34.5173 17.4616 34.9813 17.9916C37.9903 21.4416 40.8153 25.0216 42.7623 29.2016C43.4093 30.5916 44.2353 31.9016 45.0213 33.3216C44.4783 25.2716 45.8073 17.4217 46.4423 9.53168C46.5703 16.6817 45.4833 23.8016 45.7163 30.8716C46.8643 28.6916 47.9033 26.4117 49.2233 24.3017C50.8773 21.6617 53.2323 19.1716 54.2273 18.6916C51.8573 21.3316 49.8043 24.0116 48.2743 27.0716C47.1173 29.3916 46.1403 31.7816 45.8753 34.3416C45.5963 37.0316 45.6163 39.7516 45.6123 42.4616C45.6103 45.0216 45.7443 47.5917 45.8273 50.1517C45.8433 50.6417 45.9013 51.1316 45.9413 51.6216C46.3493 51.2316 46.6163 50.8117 46.8903 50.3917C47.4243 49.5717 47.8603 48.6616 48.5173 47.9616C50.6213 45.7116 52.7113 43.4316 54.9863 41.3616C58.0873 38.5416 61.2263 35.7516 64.6723 33.3216C66.1113 32.3016 67.3333 30.9817 68.6553 29.8017C69.2143 29.3017 69.7723 28.8017 70.3313 28.3017C69.3463 29.4617 68.4423 30.7316 67.3033 31.7316C64.0213 34.6216 60.6413 37.4016 57.3053 40.2316C56.2643 41.1116 55.2393 42.0117 54.2083 42.9117C54.4543 42.9417 54.6343 42.8717 54.8073 42.7917C56.8413 41.8517 58.8673 40.8816 60.9143 39.9616C65.4083 37.9416 70.2413 37.2516 75.0513 36.4816C77.2443 36.1216 79.4363 35.7617 81.6253 35.3817C82.2533 35.2717 82.8663 35.0916 83.4873 34.9416C83.5053 35.0116 83.5213 35.0817 83.5383 35.1617C82.2133 35.5017 80.9053 35.9416 79.5593 36.1916C75.2743 36.9716 70.9703 37.6617 66.6823 38.4317C64.3673 38.8417 62.2953 39.9216 60.1813 40.9416C64.5293 40.5016 68.5043 42.2417 72.6783 42.7717C72.6623 42.8817 72.6463 42.9916 72.6303 43.1016C71.3983 42.9216 70.1523 42.8117 68.9363 42.5517C66.3303 42.0017 63.7643 41.2416 61.0393 41.6216C59.2833 41.8716 57.4783 41.8617 55.9833 43.0217C55.7923 43.1617 55.5613 43.2617 55.3463 43.3817C52.8803 44.7317 50.6803 46.4016 49.0743 48.7316C48.4313 49.6716 47.8623 50.6517 47.2293 51.6617C47.4223 51.6817 47.4893 51.7116 47.5513 51.6916C47.9633 51.6016 48.3693 51.4917 48.7853 51.4217C51.9203 50.8517 55.1033 50.7416 58.2283 51.2116C60.9023 51.6016 63.4623 51.4016 66.0533 50.8616C67.7853 50.5016 69.5273 50.1716 71.2653 49.8316C71.2793 49.8916 71.2953 49.9617 71.3083 50.0217C68.6033 50.8017 65.8723 51.4817 63.0623 51.9017C67.4233 52.7417 71.7053 53.8017 75.8753 55.2817C75.3593 55.2417 74.8563 55.1617 74.3603 55.0517C71.2713 54.3117 68.1833 53.5616 65.0943 52.8216C60.8923 51.8216 56.6403 51.3617 52.3203 51.6717C51.7193 51.7117 51.1183 51.7417 50.5213 51.8117C49.9503 51.8817 49.3783 51.9816 48.8153 52.1016C48.2543 52.2316 47.7023 52.4016 46.9583 52.6116C47.3203 52.6816 47.4873 52.7317 47.6573 52.7517C50.1193 52.9217 52.4443 53.6216 54.5483 54.8616C57.7633 56.7616 60.9043 58.7817 64.0733 60.7617C64.3143 60.9117 64.5233 61.1017 64.7463 61.2817C64.1943 61.1217 63.7283 60.8716 63.2713 60.6016C60.3273 58.8516 57.4143 57.0516 54.4363 55.3616C51.9323 53.9516 49.1893 53.3017 46.2933 53.3117C47.1633 53.6217 48.0553 53.8617 48.9233 54.1717C51.4803 55.0717 53.7603 56.5116 56.0873 57.8616C59.3913 59.7816 62.5723 61.9216 66.2013 63.2416C66.6963 63.4216 67.1303 63.7617 67.6043 64.0117C68.0263 64.2317 68.4663 64.4116 68.8983 64.6116C68.9543 64.5416 69.0073 64.4717 69.0633 64.3917C67.2523 62.5817 65.5523 60.6316 63.5973 58.9816C61.6463 57.3316 59.8953 55.4017 57.5063 54.3117C57.9203 53.6417 57.9263 53.6216 58.5933 53.7316C59.3953 53.8716 60.1913 54.0516 60.9853 54.2316C63.3423 54.7816 65.6813 55.4316 68.0583 55.8716C72.4713 56.7016 76.9103 57.4017 81.3373 58.1517C81.3713 58.0817 81.4053 58.0117 81.4383 57.9317C80.8753 57.4117 80.3773 56.7816 79.7363 56.3716C77.6903 55.0816 75.6163 53.8317 73.5023 52.6517C72.5113 52.1017 71.3803 51.9017 70.2123 52.0217C69.9993 52.0417 69.7643 51.8617 69.5393 51.7817C69.7403 51.6117 69.9333 51.3217 70.1423 51.3117C72.2743 51.2017 74.1293 50.2916 75.9743 49.3616C76.1403 49.2716 76.2953 49.1716 76.4543 49.0716C76.4443 49.0016 76.4343 48.9416 76.4263 48.8716C74.4973 48.7816 72.5703 48.6416 70.6443 48.6116C66.6113 48.5516 62.5783 48.6017 58.5453 48.5217C57.1973 48.5017 55.8523 48.2516 54.5123 48.0716C54.2993 48.0416 54.1183 47.7817 53.9233 47.6317C54.1063 47.4617 54.2593 47.2317 54.4743 47.1417C59.1243 45.1617 63.9613 44.0117 69.0433 44.0017C70.1123 44.0017 71.1873 43.9617 72.2483 44.0617C74.3143 44.2717 76.3723 44.4117 78.4353 44.0517C78.6443 44.0117 78.8493 43.9516 79.1973 43.8616C78.7273 43.6016 78.4013 43.3516 78.0313 43.2416C75.9583 42.5916 73.8703 41.9916 71.8003 41.3516C71.5313 41.2616 71.3223 40.9917 71.0873 40.8117C71.3243 40.6917 71.5513 40.5516 71.7983 40.4816C72.1153 40.3816 72.4633 40.3617 72.7713 40.2517C73.8303 39.8417 74.8813 39.4216 75.9313 38.9916C78.6643 37.8616 81.3993 36.7416 84.1223 35.5916C84.6513 35.3616 85.1313 35.0216 85.6343 34.7416C85.6093 34.6816 85.5853 34.6216 85.5593 34.5716C81.7853 34.5516 78.1763 34.6916 74.7303 35.2216C72.0013 35.6316 69.4313 36.5317 66.8773 37.5117C66.6313 37.6117 66.3463 37.6017 65.8963 37.6717C68.8143 32.9817 71.6273 28.4716 74.4383 23.9516C74.3763 23.9016 74.3163 23.8617 74.2543 23.8117C73.5963 24.2117 72.9333 24.6117 72.2803 25.0217C68.8403 27.1917 65.7613 29.8016 62.7233 32.4816C57.8263 36.8016 52.8103 40.9916 48.3953 45.8216C48.2783 45.9516 48.0653 45.9817 47.8953 46.0617C47.8103 45.8817 47.6413 45.6817 47.6553 45.5017C47.7343 44.5417 47.7923 43.5616 47.9833 42.6116C48.3393 40.8416 48.7223 39.0716 49.2073 37.3316C50.1413 33.9716 51.0153 30.5817 52.1693 27.2917C53.8613 22.4817 56.4133 18.0516 58.9013 13.6016C58.9913 13.4416 59.0593 13.2716 59.1463 13.0816C59.0473 13.0716 58.9993 13.0616 58.9613 13.0716C58.8343 13.1016 58.7043 13.1416 58.5833 13.1916C56.0813 14.2016 54.1503 15.9916 52.4123 17.9416C51.2523 19.2516 49.9723 20.5416 49.4843 22.3316C49.4403 22.4916 49.0943 22.5716 48.8893 22.6916C48.8513 22.4816 48.7633 22.2617 48.7853 22.0617C48.9863 20.2017 49.3613 18.3416 49.3923 16.4716C49.4663 12.1216 48.6763 7.85163 47.8063 3.60163C47.6253 2.72163 47.4383 1.84168 47.2173 0.781683C47.0323 1.09168 46.9543 1.22163 46.8823 1.35163C45.3953 4.10163 44.5473 7.08161 43.7993 10.0816C42.8613 13.8216 42.6053 17.6617 42.6093 21.5217C42.6113 22.6017 42.4933 23.6817 42.3823 24.7617C42.3643 24.9517 42.1133 25.1117 41.9703 25.2917C41.8023 25.1417 41.5693 25.0216 41.4823 24.8416C41.2413 24.3216 41.1103 23.7517 40.8453 23.2517C40.2663 22.1517 39.6803 21.0517 39.0103 20.0117C38.1343 18.6617 37.2283 17.3117 36.2313 16.0517C34.6943 14.0917 32.3793 13.3217 30.1243 12.2517C30.2053 12.5317 30.2253 12.6916 30.2933 12.8216C30.8303 13.8616 31.3643 14.9017 31.9193 15.9317C33.2853 18.4717 34.7143 20.9717 36.0203 23.5317C36.8703 25.2017 37.7443 26.9016 38.2633 28.6916C39.2903 32.2116 40.0593 35.8016 40.5483 39.4416C40.8173 41.4316 41.3583 43.3816 41.7313 45.3516C41.8003 45.7216 41.6533 46.1317 41.6073 46.5217C41.2493 46.3417 40.8453 46.2116 40.5403 45.9716C38.8403 44.5816 37.1883 43.1317 35.4723 41.7617C33.3173 40.0417 31.0893 38.3817 29.4093 36.1717C27.0463 33.0717 24.2743 30.4117 21.1173 28.1417C19.0523 26.6517 16.9533 25.2116 14.8703 23.7416C14.8283 23.7816 14.7873 23.8316 14.7463 23.8716C15.5373 25.8716 16.1583 27.9416 17.5223 29.7016C19.3023 31.9916 21.0033 34.3516 22.7133 36.6916C23.2073 37.3716 23.6783 38.0916 24.0353 38.8416C24.1963 39.1916 24.1303 39.7016 24.0013 40.0816C23.9653 40.1816 23.3083 40.1716 22.9823 40.0716C22.0483 39.7916 21.1443 39.4116 20.2143 39.1116C17.5913 38.2716 14.9613 37.4617 12.3343 36.6317C10.1463 35.9417 7.90633 35.6317 5.61233 35.7717C4.29833 35.8517 2.98733 35.9916 1.51033 36.1216C1.81633 36.2916 1.97134 36.3716 2.11734 36.4616C3.52934 37.3416 4.98133 38.1616 6.33833 39.1216C7.97733 40.2716 9.74433 41.0816 11.7413 41.2316C12.8533 41.3016 13.9643 41.2916 15.0193 41.7016C15.2043 41.7716 15.3553 41.9217 15.5223 42.0417C15.3563 42.1917 15.2143 42.4116 15.0213 42.4616C14.5163 42.6216 13.9693 42.6516 13.4743 42.8316C12.0343 43.3516 10.6113 43.9216 9.18333 44.4716C9.02933 44.5316 8.88533 44.6217 8.57833 44.7717C10.2253 44.8617 11.6903 44.9417 13.1533 45.0417C14.3963 45.1317 15.6463 45.4116 16.8753 45.3316C19.2333 45.1816 21.5373 45.4916 23.8673 45.7116C26.7543 45.9916 29.4093 46.9217 31.9973 48.1317C32.1983 48.2217 32.3573 48.4116 32.6203 48.6216C31.9133 48.8616 31.3923 49.1316 30.8443 49.2016C29.0333 49.4116 27.1943 49.4417 25.4023 49.7517C23.1053 50.1417 20.8373 50.7117 18.5663 51.2517C16.5623 51.7117 14.5713 52.2417 12.4133 52.7817C12.7253 52.9517 12.8833 53.0616 13.0613 53.1216C14.6713 53.6916 16.2873 54.2317 17.8923 54.8117C18.1123 54.8917 18.2823 55.1017 18.4753 55.2617C18.3153 55.4217 18.1863 55.6516 17.9923 55.7416C17.1373 56.1016 16.2573 56.4017 15.3973 56.7617C13.0703 57.7217 11.0543 59.1917 9.03733 60.6417C8.34633 61.1417 7.78934 61.8217 7.17134 62.4217C7.56634 62.4017 7.85233 62.2816 8.15033 62.2116C10.8053 61.5716 13.5003 61.0717 16.1103 60.2817C19.0673 59.4017 21.9613 58.2916 24.8613 57.2316C27.2373 56.3516 29.6543 55.5517 31.7423 54.0617C31.8463 53.9817 32.1083 53.9517 32.1503 54.0117C32.2403 54.1217 32.2933 54.3416 32.2463 54.4716C32.1723 54.6616 32.0233 54.8516 31.8603 54.9916C30.5543 56.1316 29.2843 57.3116 27.9143 58.3716C25.1913 60.4716 23.2233 63.2016 21.2753 65.9516C20.9573 66.4016 20.7973 66.9616 20.5643 67.4616C20.6153 67.5016 20.6653 67.5317 20.7153 67.5617C21.1003 67.3117 21.5013 67.0717 21.8653 66.7917C23.5633 65.4817 25.3743 64.3717 27.3613 63.5417C27.9923 63.2817 28.6153 62.9517 29.1723 62.5617C30.9503 61.3017 32.6983 60.0016 34.4533 58.7116C34.6483 58.5716 34.8003 58.3716 34.9913 58.2216C35.7033 57.6616 36.3583 56.9916 37.1523 56.5916C38.9583 55.6916 40.8373 54.9316 42.6743 54.0916C43.0823 53.9016 43.4373 53.6016 43.8173 53.3516C43.7813 53.2916 43.7473 53.2417 43.7133 53.1817C43.4703 53.2017 43.2243 53.2016 42.9853 53.2416C40.4933 53.7116 38.0803 54.4916 35.9523 55.8316C33.2513 57.5416 30.6993 59.4817 28.0813 61.3117C27.6853 61.5917 27.2873 61.8717 26.8893 62.1417C26.8233 62.0417 26.7603 61.9416 26.6963 61.8416C31.1093 57.7116 35.8613 54.1116 42.0193 52.4516C41.7793 52.3516 41.7033 52.2917 41.6253 52.2917C39.5593 52.2017 37.4953 52.0417 35.4313 52.0517C34.2143 52.0517 33.0023 52.3516 31.7823 52.4416C28.4983 52.6716 25.3983 53.6517 22.4043 54.9017C19.8843 55.9417 17.4813 57.2716 15.0253 58.4716C14.8543 58.5516 14.6733 58.6116 14.4973 58.6916C14.4773 58.6316 14.4583 58.5817 14.4393 58.5317C18.4493 55.7617 22.8033 53.6316 27.5283 52.4416C32.2403 51.2516 37.0573 50.6917 41.9763 51.3817C40.9503 50.7117 39.9013 50.1917 38.8503 49.6717C36.4763 48.5117 34.1153 47.3116 31.7183 46.1916C30.0903 45.4216 28.3383 44.8917 26.7783 44.0217C25.4083 43.2517 23.9533 42.9717 22.5063 43.0117C20.4073 43.0817 18.3173 43.4817 16.2263 43.7617C15.4543 43.8617 14.6923 44.0417 13.9253 44.1817C13.9133 44.1217 13.9003 44.0516 13.8883 43.9916C15.2093 43.4216 16.6113 43.1716 18.0343 42.9716C19.4473 42.7616 20.8453 42.4616 22.2513 42.2116C16.2903 40.3016 10.3203 38.3916 4.35034 36.4816C4.36334 36.4316 4.37533 36.3816 4.38833 36.3216C5.53833 36.5916 6.70033 36.8217 7.83633 37.1417C9.61233 37.6417 11.3653 38.2116 13.1383 38.7216C16.5313 39.7016 19.9833 40.5117 23.3143 41.6617C26.4173 42.7317 29.3993 44.1517 32.4293 45.4317C33.1413 45.7317 33.8363 46.0717 34.5393 46.4017C34.3663 46.0917 34.1453 45.8817 33.9063 45.6817C30.6073 42.9517 27.5823 40.0016 25.1273 36.4516C23.5573 34.1816 21.6143 32.1617 19.8483 30.0217C19.1903 29.2317 18.5633 28.4116 17.9233 27.6016ZM67.6343 36.3917C67.9663 36.2817 68.2633 36.2116 68.5423 36.0916C72.3513 34.5516 76.3563 34.0516 80.4253 33.9416C82.4083 33.8816 84.3923 33.9017 86.3773 33.9117C86.5863 33.9217 86.7933 34.1016 87.0003 34.2016C86.8983 34.3616 86.8093 34.5317 86.6913 34.6817C85.5353 36.1617 83.7833 36.6716 82.1573 37.3616C79.6213 38.4416 77.0553 39.4517 74.5033 40.5017C74.2373 40.6117 73.9823 40.7417 73.6413 40.9017C74.1573 41.0717 74.5873 41.2516 75.0373 41.3616C76.8803 41.8016 78.5143 42.7017 80.1293 43.6417C80.2783 43.7317 80.3793 43.9116 80.4753 44.0716C80.4853 44.0816 80.3143 44.2617 80.2043 44.2917C78.2753 44.8817 76.2973 45.2516 74.2883 44.9816C71.3023 44.5816 68.3153 44.7416 65.3493 44.9716C61.9993 45.2316 58.6983 45.8916 55.5853 47.2416C55.4683 47.2916 55.3543 47.3516 55.0813 47.4916C55.4853 47.5616 55.7303 47.6417 55.9773 47.6417C60.5003 47.7117 65.0243 47.7216 69.5473 47.8416C71.8323 47.9016 74.1153 48.1316 76.3923 48.3516C76.8063 48.3816 77.1913 48.7217 77.5893 48.9317C77.2783 49.1817 76.9973 49.4917 76.6493 49.6717C75.3673 50.3317 74.0613 50.9517 72.8393 51.5517C74.1773 52.2517 75.6083 52.9616 76.9993 53.7416C79.1273 54.9316 81.1543 56.2617 82.5853 58.2917C82.7203 58.4817 82.7563 58.7416 82.8383 58.9716C82.5773 59.0016 82.2803 59.1117 82.0573 59.0317C80.1503 58.3317 78.1203 58.3717 76.1553 58.0317C73.3553 57.5417 70.5483 57.0817 67.7613 56.5217C65.8483 56.1417 63.9693 55.5817 62.0643 55.1517C61.4113 55.0017 60.7233 55.0116 59.8473 54.9416C60.8903 55.8116 61.7743 56.6016 62.7013 57.3316C65.3773 59.4316 67.6803 61.8817 69.7663 64.5417C69.9093 64.7317 69.9193 65.0217 69.9893 65.2617C69.7583 65.2817 69.5013 65.3817 69.3023 65.3117C68.4243 65.0117 67.5603 64.6716 66.6963 64.3316C66.4303 64.2316 66.1913 64.0416 65.9183 63.9516C62.2223 62.7416 59.0093 60.6016 55.6773 58.6916C53.3683 57.3616 51.1563 55.8416 48.6143 54.9516C47.8043 54.6616 46.9943 54.3716 46.1843 54.0916C46.1263 54.1316 46.0703 54.1816 46.0123 54.2216C46.4963 55.0916 46.8703 56.0417 47.4933 56.8017C48.3413 57.8317 48.4973 58.8616 48.0933 60.0716C47.8623 60.7616 47.8063 61.5217 47.4953 62.1617C47.0463 63.0917 46.5283 64.0217 45.8733 64.8117C44.4943 66.4917 43.0033 68.0716 41.5623 69.7016C41.2833 70.0216 41.0763 70.4217 40.7453 70.6617C40.4573 70.8617 39.8873 71.0916 39.7103 70.9616C39.3023 70.6616 38.9923 70.1616 38.7813 69.6916C38.7153 69.5416 39.0363 69.1116 39.2763 68.9516C41.2893 67.6516 42.8473 65.8817 44.2773 64.0117C45.2423 62.7517 46.0423 61.3617 46.8643 60.0017C47.3983 59.1217 47.3763 58.2516 46.5823 57.4716C45.7283 56.6316 45.3793 55.5217 45.0373 54.4217C44.9613 54.1717 44.8823 53.9217 44.8023 53.6817C42.5833 55.4417 39.7923 55.9716 37.4233 57.3416C36.8143 57.6916 36.2353 58.1017 35.6733 58.5217C32.7713 60.7117 30.0523 63.1416 26.6363 64.6016C25.1433 65.2416 23.8203 66.2817 22.4343 67.1617C21.8353 67.5417 21.2863 68.0017 20.6823 68.3717C20.4643 68.5017 20.1533 68.4917 19.8843 68.5417C19.8563 68.2517 19.7433 67.9516 19.8123 67.6916C20.3283 65.7516 21.6223 64.2816 22.8013 62.7216C24.6103 60.3316 26.7803 58.3217 29.0833 56.3817C28.3123 56.7217 27.5563 57.0917 26.7703 57.3817C24.2463 58.3217 21.6883 59.1617 19.1853 60.1417C15.7253 61.4917 12.1163 62.2217 8.48133 62.8817C8.15633 62.9417 7.84634 63.0817 7.52234 63.1417C7.15834 63.2117 6.78634 63.2617 6.41734 63.2717C6.27634 63.2717 6.05034 63.1417 6.01634 63.0217C5.97934 62.9017 6.08933 62.7016 6.19233 62.5816C8.68133 59.6616 11.8613 57.7016 15.2993 56.1116C15.8763 55.8416 16.5103 55.6917 17.3063 55.4317C15.7263 54.8717 14.3203 54.4216 12.9503 53.8716C12.3523 53.6316 11.8253 53.2116 11.2803 52.8516C11.1973 52.8016 11.1243 52.5917 11.1653 52.5217C11.2483 52.3917 11.4003 52.2516 11.5483 52.2216C12.3673 52.0216 13.1983 51.8717 14.0173 51.6717C17.9273 50.7317 21.8293 49.7516 25.7493 48.8516C26.7603 48.6116 27.8253 48.6117 28.8663 48.5017C29.3243 48.4517 29.7813 48.4116 30.2413 48.3716C30.2553 48.2916 30.2693 48.2116 30.2833 48.1216C28.7663 47.7316 27.2653 47.2716 25.7313 46.9816C24.1583 46.6816 22.5563 46.5316 20.9633 46.3616C20.1683 46.2716 19.3633 46.2716 18.5633 46.2316C16.6773 46.1216 14.7903 46.0217 12.9043 45.9017C10.9713 45.7817 9.03933 45.6517 7.10833 45.5017C6.87333 45.4917 6.64933 45.3316 6.42033 45.2416C6.59733 45.0516 6.73833 44.7816 6.95533 44.6916C8.84533 43.8816 10.7493 43.1117 12.6413 42.2817C9.62834 42.2417 7.15634 40.9716 4.82834 39.2116C3.63434 38.3116 2.23233 37.6717 0.924328 36.9217C0.732328 36.8117 0.502334 36.7316 0.358334 36.5816C0.188334 36.4016 -0.0246688 36.1317 0.00233115 35.9317C0.0273312 35.7517 0.341337 35.5416 0.561337 35.4916C1.29234 35.3216 2.03834 35.2316 2.77934 35.1116C6.64734 34.4716 10.3943 34.9917 14.1163 36.1317C16.5633 36.8817 19.0383 37.5116 21.3713 38.5916C21.9653 38.8616 22.6253 38.9916 23.3763 39.2216C22.4863 37.9316 21.7043 36.7316 20.8523 35.5816C19.4933 33.7516 18.0943 31.9417 16.7043 30.1317C15.2233 28.2017 14.3813 26.0116 14.0883 23.6216C14.0533 23.3416 14.0793 23.0517 14.0773 22.6417C14.3893 22.7317 14.6333 22.7516 14.8103 22.8716C17.3253 24.5416 19.8763 26.1717 22.3273 27.9317C25.1003 29.9217 27.5783 32.2517 29.6203 35.0017C31.3903 37.3817 33.6613 39.2317 35.9783 41.0417C37.3403 42.1017 38.6553 43.2216 39.9893 44.3216C40.2263 44.5216 40.4513 44.7316 40.8333 44.8716C40.6923 44.2916 40.5203 43.7317 40.4133 43.1417C39.9813 40.8017 39.6033 38.4416 39.1413 36.1016C38.4443 32.5716 37.8293 29.0016 36.2633 25.7216C35.1583 23.4016 33.8683 21.1817 32.6783 18.9017C31.7463 17.1217 30.8093 15.3317 29.9373 13.5217C29.6503 12.9217 29.5583 12.2416 29.3403 11.4516C29.7563 11.4916 30.0063 11.4617 30.2073 11.5417C31.1313 11.9317 32.0313 12.3617 32.9523 12.7517C35.9483 14.0117 37.8093 16.4117 39.4163 19.0617C40.1823 20.3217 40.9113 21.6117 41.7843 22.9017C41.7823 22.6117 41.7823 22.3217 41.7773 22.0217C41.6973 18.1017 41.9643 14.1816 42.8733 10.3716C43.6143 7.26165 44.4203 4.14165 46.1483 1.37165C46.3693 1.01165 46.6083 0.661629 46.8863 0.351629C47.3383 -0.148371 47.5173 -0.138317 47.7303 0.531683C48.0773 1.59168 48.3693 2.68168 48.6043 3.78168C49.4723 7.80168 50.1413 11.8616 50.1893 15.9816C50.2033 17.1716 50.1133 18.3716 50.0673 19.6916C50.3003 19.3816 50.5113 19.1417 50.6723 18.8817C52.0843 16.5617 54.2023 14.9417 56.3633 13.4317C57.4163 12.7017 58.8083 12.4416 60.0523 11.9816C60.1553 11.9416 60.3783 12.0216 60.4283 12.1116C60.4863 12.2116 60.4463 12.4017 60.3823 12.5217C57.2393 18.1017 54.1963 23.7216 52.1693 29.8216C51.3193 32.3716 50.7003 35.0016 50.0053 37.6116C49.6033 39.1216 49.2393 40.6517 48.8953 42.1717C48.7373 42.8717 48.6683 43.5817 48.5643 44.2517C51.9143 41.1617 55.1813 38.0017 58.6133 35.0117C63.1373 31.0817 67.5203 26.9617 72.7663 23.9317C73.5143 23.5017 74.2333 23.0116 74.9773 22.5716C75.1063 22.5016 75.2943 22.5216 75.4553 22.4916C75.4673 22.6516 75.5443 22.8416 75.4833 22.9516C74.7083 24.4416 73.9763 25.9617 73.1123 27.4017C71.3443 30.3417 69.5013 33.2417 67.6923 36.1517C67.6623 36.2017 67.6623 36.2717 67.6343 36.3917Z" fill="#231F20"/>
</svg>
