<svg width="915" height="139" viewBox="0 0 915 139" fill="none" xmlns="http://www.w3.org/2000/svg">
<path d="M88.6546 9.10294V0H0V9.10294H88.6546ZM10.0924 138.523V97.9555H0V138.523H10.0924ZM0 77.3749H88.6546V68.272H0V77.3749Z" fill="#FFFFFF"/>
<path d="M214.514 9.10294V0H124.87V9.10294H214.514ZM214.514 138.523V129.42H124.87V138.523H214.514ZM214.514 72.6256V63.7205H154.553V72.6256H214.514ZM134.17 28.694H124.87V107.652H134.17V28.694Z" fill="#FFFFFF"/>
<path d="M330.28 90.0399C340.768 87.0715 348.684 81.7285 354.423 74.2087C359.964 66.8868 362.734 57.5859 362.734 46.702C362.734 32.0582 357.787 20.5806 347.892 12.2692C337.998 4.1557 324.343 0 306.929 0H257.259V9.10294H306.929C321.771 9.10294 333.051 12.2692 340.768 18.7995C348.486 25.3299 352.444 34.6307 352.444 46.702C352.444 58.7733 348.486 67.8762 340.768 74.4066C333.051 80.9369 321.771 84.3011 306.929 84.3011H257.259V93.2061H306.929C311.085 93.2061 315.438 92.8103 320.386 92.2166L353.433 138.523H364.911L330.28 90.0399ZM267.351 138.523V109.433H257.259V138.523H267.351Z" fill="#FFFFFF"/>
<path d="M399.741 138.523H409.833V42.3484L399.741 28.694V138.523ZM502.446 0V120.317L408.25 0H399.741V4.74937L409.833 18.2059L504.227 138.523H512.538V0H502.446Z" fill="#FFFFFF"/>
<path d="M611.484 0H601.392V0.197907L606.339 11.0818L612.672 25.132L612.869 25.3299L664.321 138.523H675.205L611.484 0ZM537.671 138.523H548.555L598.424 28.4961L593.278 17.6122L537.671 138.523Z" fill="#FFFFFF"/>
<path d="M710.43 108.246V0H700.337V108.246H710.43ZM710.43 129.42H700.337V138.523H790.179V129.42H710.43Z" fill="#FFFFFF"/>
<path d="M792.951 0L839.257 75.396L844.996 66.8868L804.033 0H792.951ZM904.165 0L854.099 81.5306L848.756 90.8314V138.523H858.848V90.8314L914.653 0H904.165Z" fill="#FFFFFF"/>
</svg>
